<svg height="51" viewBox="0 0 755 51" width="755" xmlns="http://www.w3.org/2000/svg"><path d="m59.13 18.62h-17.22v30.38h-24.36v-30.38h-17.22v-16.24h58.8zm66.400973 30.38h-24.43v-16.17h-12.3199997v16.17h-24.36v-46.62h24.36v17.5h12.3199997v-17.5h24.43zm60.520974 0h-53.41v-46.62h53.41v14.91h-29.05v4.41h18.2v7.14h-18.2v3.99h29.05zm77.921946 0h-53.76v-46.62h24.36v30.45h29.4zm29.300973 0h-24.36v-46.62h24.36zm61.780974-31.71h-30.31v5.67h15.33v8.26h-15.33v17.78h-24.36v-46.62h54.67zm57.790973 31.71h-53.41v-46.62h53.41v14.91h-29.05v4.41h18.2v7.14h-18.2v3.99h29.05zm81.981947-6.23c-6.02 5.04-15.12 7.98-25.83 7.98-20.44 0-33.74-10.22-33.74-24.78v-.56c0-14.56 13.3-24.78 33.74-24.78 10.71 0 21.07 3.36 26.6 7.98l-9.1 11.55c-3.78-2.45-8.89-4.13-13.93-4.13-7.07 0-12.46 3.78-12.46 9.52v.28c0 5.74 5.39 9.52 12.46 9.52 5.39 0 10.99-2.03 13.93-4.13zm66.610973-16.73c0 13.51-11.69 24.71-31.64 24.71-20.02 0-31.71-11.2-31.71-24.71v-.84c0-13.58 11.69-24.57 31.71-24.57 19.95 0 31.64 10.99 31.64 24.57zm-24.85.21v-1.19c0-5.18-1.12-9.94-6.79-9.94s-6.86 4.76-6.86 9.94v1.19c0 5.11 1.19 9.87 6.86 9.87s6.79-4.76 6.79-9.87zm91.880973 22.75h-25.27l-2.73-8.12h-14.21l-3.15 8.12h-21.28l20.58-46.62h25.06zm-31.5-18.76-3.01-8.75-3.43 8.75zm91.740973 12.53c-6.02 5.04-15.12 7.98-25.83 7.98-20.44 0-33.74-10.22-33.74-24.78v-.56c0-14.56 13.3-24.78 33.74-24.78 10.71 0 21.07 3.36 26.6 7.98l-9.1 11.55c-3.78-2.45-8.89-4.13-13.93-4.13-7.07 0-12.46 3.78-12.46 9.52v.28c0 5.74 5.39 9.52 12.46 9.52 5.39 0 10.99-2.03 13.93-4.13zm66.120974 6.23h-24.43v-16.17h-12.32v16.17h-24.36v-46.62h24.36v17.5h12.32v-17.5h24.43z" fill-rule="evenodd"/></svg>