<?xml version="1.0" encoding="UTF-8"?>
<svg width="545px" height="94px" viewBox="0 0 545 94" version="1.1" xmlns="http://www.w3.org/2000/svg" xmlns:xlink="http://www.w3.org/1999/xlink">
    <!-- Generator: Sketch 49.3 (51167) - http://www.bohemiancoding.com/sketch -->
    <title>Group 10</title>
    <desc>Created with Sketch.</desc>
    <defs></defs>
    <g id="Page-1" stroke="none" stroke-width="1" fill="none" fill-rule="evenodd">
        <g id="Group-10" fill="#000000">
            <path d="M195.41,84.54 C195.41,90.03 191.54,93.48 184.46,93.48 C180.23,93.48 176.18,92.37 173,90.3 L175.94,84.39 C178.13,85.47 180.35,86.22 182.48,86.22 C184.28,86.22 184.97,85.38 184.97,83.76 L184.97,72.75 L195.41,72.75 L195.41,84.54 Z M224.28756,84.15 C224.28756,89.37 220.74756,93.48 211.29756,93.48 C201.87756,93.48 198.15756,89.37 198.15756,84.15 L198.15756,72.75 L208.59756,72.75 L208.59756,83.4 C208.59756,85.89 209.34756,86.97 211.83756,86.97 C214.32756,86.97 215.01756,85.89 215.01756,83.4 L215.01756,72.75 L224.28756,72.75 L224.28756,84.15 Z M253.22512,92.73 L244.28512,92.73 L237.29512,85.8 L236.54512,84.93 L236.54512,92.73 L227.18512,92.73 L227.18512,72.75 L235.64512,72.75 L243.14512,79.74 L243.83512,80.49 L243.83512,72.75 L253.22512,72.75 L253.22512,92.73 Z M279.162681,92.73 L256.272681,92.73 L256.272681,72.75 L279.162681,72.75 L279.162681,79.14 L266.712681,79.14 L266.712681,81.03 L274.512681,81.03 L274.512681,84.09 L266.712681,84.09 L266.712681,85.8 L279.162681,85.8 L279.162681,92.73 Z M298.787801,92.73 L289.517801,92.73 L289.517801,76.17 C292.007801,76.17 293.297801,74.52 293.297801,72.75 L298.787801,72.75 L298.787801,92.73 Z M322.325361,78.36 C322.325361,82.14 318.005361,84.27 310.895361,86.7 L322.415361,86.7 L322.415361,92.73 L300.635361,92.73 L300.635361,90.48 C300.635361,82.47 313.685361,82.53 313.685361,79.5 C313.685361,78.63 312.755361,78 310.655361,78 C308.405361,78 305.585361,78.78 302.915361,79.92 L300.875361,74.34 C304.415361,72.81 307.475361,72 311.975361,72 C318.125361,72 322.325361,74.88 322.325361,78.36 Z M336.172921,85.92 L324.622921,85.92 L324.622921,81.42 L336.172921,81.42 L336.172921,85.92 Z M348.190482,92.73 L338.920482,92.73 L338.920482,76.17 C341.410482,76.17 342.700482,74.52 342.700482,72.75 L348.190482,72.75 L348.190482,92.73 Z M371.878042,77.1 C366.868042,81.96 363.778042,86.34 362.338042,92.73 L352.468042,92.73 C354.208042,87.12 358.528042,81.78 363.508042,78.9 L350.248042,78.9 L350.248042,72.75 L371.878042,72.75 L371.878042,77.1 Z" id="JUNE-12-17"></path>
            <path d="M53.76,48.37 L0,48.37 L0,1.75 L24.36,1.75 L24.36,32.2 L53.76,32.2 L53.76,48.37 Z M83.0609733,48.37 L58.7009733,48.37 L58.7009733,1.75 L83.0609733,1.75 L83.0609733,48.37 Z M144.841947,16.66 L114.531947,16.66 L114.531947,22.33 L129.861947,22.33 L129.861947,30.59 L114.531947,30.59 L114.531947,48.37 L90.1719466,48.37 L90.1719466,1.75 L144.841947,1.75 L144.841947,16.66 Z M202.63292,48.37 L149.22292,48.37 L149.22292,1.75 L202.63292,1.75 L202.63292,16.66 L173.58292,16.66 L173.58292,21.07 L191.78292,21.07 L191.78292,28.21 L173.58292,28.21 L173.58292,32.2 L202.63292,32.2 L202.63292,48.37 Z M284.614866,42.14 C278.594866,47.18 269.494866,50.12 258.784866,50.12 C238.344866,50.12 225.044866,39.9 225.044866,25.34 L225.044866,24.78 C225.044866,10.22 238.344866,0 258.784866,0 C269.494866,0 279.854866,3.36 285.384866,7.98 L276.284866,19.53 C272.504866,17.08 267.394866,15.4 262.354866,15.4 C255.284866,15.4 249.894866,19.18 249.894866,24.92 L249.894866,25.2 C249.894866,30.94 255.284866,34.72 262.354866,34.72 C267.744866,34.72 273.344866,32.69 276.284866,30.59 L284.614866,42.14 Z M351.22584,25.41 C351.22584,38.92 339.53584,50.12 319.58584,50.12 C299.56584,50.12 287.87584,38.92 287.87584,25.41 L287.87584,24.57 C287.87584,10.99 299.56584,0 319.58584,0 C339.53584,0 351.22584,10.99 351.22584,24.57 L351.22584,25.41 Z M326.37584,25.62 L326.37584,24.43 C326.37584,19.25 325.25584,14.49 319.58584,14.49 C313.91584,14.49 312.72584,19.25 312.72584,24.43 L312.72584,25.62 C312.72584,30.73 313.91584,35.49 319.58584,35.49 C325.25584,35.49 326.37584,30.73 326.37584,25.62 Z M418.256813,48.37 L392.986813,48.37 L390.256813,40.25 L376.046813,40.25 L372.896813,48.37 L351.616813,48.37 L372.196813,1.75 L397.256813,1.75 L418.256813,48.37 Z M386.756813,29.61 L383.746813,20.86 L380.316813,29.61 L386.756813,29.61 Z M478.497786,42.14 C472.477786,47.18 463.377786,50.12 452.667786,50.12 C432.227786,50.12 418.927786,39.9 418.927786,25.34 L418.927786,24.78 C418.927786,10.22 432.227786,0 452.667786,0 C463.377786,0 473.737786,3.36 479.267786,7.98 L470.167786,19.53 C466.387786,17.08 461.277786,15.4 456.237786,15.4 C449.167786,15.4 443.777786,19.18 443.777786,24.92 L443.777786,25.2 C443.777786,30.94 449.167786,34.72 456.237786,34.72 C461.627786,34.72 467.227786,32.69 470.167786,30.59 L478.497786,42.14 Z M544.61876,48.37 L520.18876,48.37 L520.18876,32.2 L507.86876,32.2 L507.86876,48.37 L483.50876,48.37 L483.50876,1.75 L507.86876,1.75 L507.86876,19.25 L520.18876,19.25 L520.18876,1.75 L544.61876,1.75 L544.61876,48.37 Z" id="the-life-coach"></path>
        </g>
    </g>
</svg>