<svg height="22" viewBox="0 0 200 22" width="200" xmlns="http://www.w3.org/2000/svg"><path d="m643.14 190.81c0 5.49-3.87 8.94-10.95 8.94-4.23 0-8.28-1.11-11.46-3.18l2.94-5.91c2.19 1.08 4.41 1.83 6.54 1.83 1.8 0 2.49-.84 2.49-2.46v-11.01h10.44zm28.87756-.39c0 5.22-3.54 9.33-12.99 9.33-9.42 0-13.14-4.11-13.14-9.33v-11.4h10.44v10.65c0 2.49.75 3.57 3.24 3.57s3.18-1.08 3.18-3.57v-10.65h9.27zm28.93756 8.58h-8.94l-6.99-6.93-.75-.87v7.8h-9.36v-19.98h8.46l7.5 6.99.69.75v-7.74h9.39zm25.937561 0h-22.89v-19.98h22.89v6.39h-12.45v1.89h7.8v3.06h-7.8v1.71h12.45zm19.62512 0h-9.27v-16.56c2.49 0 3.78-1.65 3.78-3.42h5.49zm23.53756-14.37c0 3.78-4.32 5.91-11.43 8.34h11.52v6.03h-21.78v-2.25c0-8.01 13.05-7.95 13.05-10.98 0-.87-.93-1.5-3.03-1.5-2.25 0-5.07.78-7.74 1.92l-2.04-5.58c3.54-1.53 6.6-2.34 11.1-2.34 6.15 0 10.35 2.88 10.35 6.36zm13.84756 7.56h-11.55v-4.5h11.55zm12.017561 6.81h-9.27v-16.56c2.49 0 3.78-1.65 3.78-3.42h5.49zm23.68756-15.63c-5.01 4.86-8.1 9.24-9.54 15.63h-9.87c1.74-5.61 6.06-10.95 11.04-13.83h-13.26v-6.15h21.63z" fill-rule="evenodd" transform="translate(-620 -178)"/></svg>