<?xml version="1.0" encoding="UTF-8"?>
<svg width="755px" height="94px" viewBox="0 0 755 94" version="1.1" xmlns="http://www.w3.org/2000/svg" xmlns:xlink="http://www.w3.org/1999/xlink">
    <!-- Generator: Sketch 49.3 (51167) - http://www.bohemiancoding.com/sketch -->
    <title>Group 10</title>
    <desc>Created with Sketch.</desc>
    <defs></defs>
    <g id="Page-1" stroke="none" stroke-width="1" fill="none" fill-rule="evenodd">
        <g id="Group-10" fill="#000000">
            <path d="M300.41,84.54 C300.41,90.03 296.54,93.48 289.46,93.48 C285.23,93.48 281.18,92.37 278,90.3 L280.94,84.39 C283.13,85.47 285.35,86.22 287.48,86.22 C289.28,86.22 289.97,85.38 289.97,83.76 L289.97,72.75 L300.41,72.75 L300.41,84.54 Z M329.28756,84.15 C329.28756,89.37 325.74756,93.48 316.29756,93.48 C306.87756,93.48 303.15756,89.37 303.15756,84.15 L303.15756,72.75 L313.59756,72.75 L313.59756,83.4 C313.59756,85.89 314.34756,86.97 316.83756,86.97 C319.32756,86.97 320.01756,85.89 320.01756,83.4 L320.01756,72.75 L329.28756,72.75 L329.28756,84.15 Z M358.22512,92.73 L349.28512,92.73 L342.29512,85.8 L341.54512,84.93 L341.54512,92.73 L332.18512,92.73 L332.18512,72.75 L340.64512,72.75 L348.14512,79.74 L348.83512,80.49 L348.83512,72.75 L358.22512,72.75 L358.22512,92.73 Z M384.162681,92.73 L361.272681,92.73 L361.272681,72.75 L384.162681,72.75 L384.162681,79.14 L371.712681,79.14 L371.712681,81.03 L379.512681,81.03 L379.512681,84.09 L371.712681,84.09 L371.712681,85.8 L384.162681,85.8 L384.162681,92.73 Z M403.787801,92.73 L394.517801,92.73 L394.517801,76.17 C397.007801,76.17 398.297801,74.52 398.297801,72.75 L403.787801,72.75 L403.787801,92.73 Z M427.325361,78.36 C427.325361,82.14 423.005361,84.27 415.895361,86.7 L427.415361,86.7 L427.415361,92.73 L405.635361,92.73 L405.635361,90.48 C405.635361,82.47 418.685361,82.53 418.685361,79.5 C418.685361,78.63 417.755361,78 415.655361,78 C413.405361,78 410.585361,78.78 407.915361,79.92 L405.875361,74.34 C409.415361,72.81 412.475361,72 416.975361,72 C423.125361,72 427.325361,74.88 427.325361,78.36 Z M441.172921,85.92 L429.622921,85.92 L429.622921,81.42 L441.172921,81.42 L441.172921,85.92 Z M453.190482,92.73 L443.920482,92.73 L443.920482,76.17 C446.410482,76.17 447.700482,74.52 447.700482,72.75 L453.190482,72.75 L453.190482,92.73 Z M476.878042,77.1 C471.868042,81.96 468.778042,86.34 467.338042,92.73 L457.468042,92.73 C459.208042,87.12 463.528042,81.78 468.508042,78.9 L455.248042,78.9 L455.248042,72.75 L476.878042,72.75 L476.878042,77.1 Z" id="JUNE-12-17"></path>
            <path d="M58.8,17.99 L41.58,17.99 L41.58,48.37 L17.22,48.37 L17.22,17.99 L0,17.99 L0,1.75 L58.8,1.75 L58.8,17.99 Z M125.200973,48.37 L100.770973,48.37 L100.770973,32.2 L88.4509733,32.2 L88.4509733,48.37 L64.0909733,48.37 L64.0909733,1.75 L88.4509733,1.75 L88.4509733,19.25 L100.770973,19.25 L100.770973,1.75 L125.200973,1.75 L125.200973,48.37 Z M185.721947,48.37 L132.311947,48.37 L132.311947,1.75 L185.721947,1.75 L185.721947,16.66 L156.671947,16.66 L156.671947,21.07 L174.871947,21.07 L174.871947,28.21 L156.671947,28.21 L156.671947,32.2 L185.721947,32.2 L185.721947,48.37 Z M263.643893,48.37 L209.883893,48.37 L209.883893,1.75 L234.243893,1.75 L234.243893,32.2 L263.643893,32.2 L263.643893,48.37 Z M292.944866,48.37 L268.584866,48.37 L268.584866,1.75 L292.944866,1.75 L292.944866,48.37 Z M354.72584,16.66 L324.41584,16.66 L324.41584,22.33 L339.74584,22.33 L339.74584,30.59 L324.41584,30.59 L324.41584,48.37 L300.05584,48.37 L300.05584,1.75 L354.72584,1.75 L354.72584,16.66 Z M412.516813,48.37 L359.106813,48.37 L359.106813,1.75 L412.516813,1.75 L412.516813,16.66 L383.466813,16.66 L383.466813,21.07 L401.666813,21.07 L401.666813,28.21 L383.466813,28.21 L383.466813,32.2 L412.516813,32.2 L412.516813,48.37 Z M494.49876,42.14 C488.47876,47.18 479.37876,50.12 468.66876,50.12 C448.22876,50.12 434.92876,39.9 434.92876,25.34 L434.92876,24.78 C434.92876,10.22 448.22876,0 468.66876,0 C479.37876,0 489.73876,3.36 495.26876,7.98 L486.16876,19.53 C482.38876,17.08 477.27876,15.4 472.23876,15.4 C465.16876,15.4 459.77876,19.18 459.77876,24.92 L459.77876,25.2 C459.77876,30.94 465.16876,34.72 472.23876,34.72 C477.62876,34.72 483.22876,32.69 486.16876,30.59 L494.49876,42.14 Z M561.109733,25.41 C561.109733,38.92 549.419733,50.12 529.469733,50.12 C509.449733,50.12 497.759733,38.92 497.759733,25.41 L497.759733,24.57 C497.759733,10.99 509.449733,0 529.469733,0 C549.419733,0 561.109733,10.99 561.109733,24.57 L561.109733,25.41 Z M536.259733,25.62 L536.259733,24.43 C536.259733,19.25 535.139733,14.49 529.469733,14.49 C523.799733,14.49 522.609733,19.25 522.609733,24.43 L522.609733,25.62 C522.609733,30.73 523.799733,35.49 529.469733,35.49 C535.139733,35.49 536.259733,30.73 536.259733,25.62 Z M628.140706,48.37 L602.870706,48.37 L600.140706,40.25 L585.930706,40.25 L582.780706,48.37 L561.500706,48.37 L582.080706,1.75 L607.140706,1.75 L628.140706,48.37 Z M596.640706,29.61 L593.630706,20.86 L590.200706,29.61 L596.640706,29.61 Z M688.381679,42.14 C682.361679,47.18 673.261679,50.12 662.551679,50.12 C642.111679,50.12 628.811679,39.9 628.811679,25.34 L628.811679,24.78 C628.811679,10.22 642.111679,0 662.551679,0 C673.261679,0 683.621679,3.36 689.151679,7.98 L680.051679,19.53 C676.271679,17.08 671.161679,15.4 666.121679,15.4 C659.051679,15.4 653.661679,19.18 653.661679,24.92 L653.661679,25.2 C653.661679,30.94 659.051679,34.72 666.121679,34.72 C671.511679,34.72 677.111679,32.69 680.051679,30.59 L688.381679,42.14 Z M754.502653,48.37 L730.072653,48.37 L730.072653,32.2 L717.752653,32.2 L717.752653,48.37 L693.392653,48.37 L693.392653,1.75 L717.752653,1.75 L717.752653,19.25 L730.072653,19.25 L730.072653,1.75 L754.502653,1.75 L754.502653,48.37 Z" id="the-life-coach"></path>
        </g>
    </g>
</svg>