<?xml version="1.0" encoding="UTF-8"?>
<svg width="219px" height="15px" viewBox="0 0 219 15" version="1.1" xmlns="http://www.w3.org/2000/svg" xmlns:xlink="http://www.w3.org/1999/xlink">
    <!-- Generator: Sketch 49.3 (51167) - http://www.bohemiancoding.com/sketch -->
    <title>GET DIRECTIONS</title>
    <desc>Created with Sketch.</desc>
    <defs></defs>
    <g id="03" stroke="none" stroke-width="1" fill="none" fill-rule="evenodd">
        <g id="iPhone-2-columns-Copy-3" transform="translate(-78.000000, -614.000000)" fill="#000000">
            <g id="Map" transform="translate(-2.000000, 525.000000)">
                <path d="M97.8,103 L93.88,103 L93.62,101.8 C92.38,102.92 90.6,103.5 88.76,103.5 C84.1,103.5 80.28,100.76 80.28,96.52 L80.28,96.28 C80.28,92.1 84.28,89.18 89.62,89.18 C92.94,89.18 95.44,89.8 97.48,90.8 L95.38,94.68 C93.88,94 92.54,93.62 90.98,93.62 C88.78,93.62 87.38,94.86 87.38,96.58 L87.38,96.7 C87.38,98.24 88.52,99.32 90.34,99.32 C91.38,99.32 92.22,98.88 92.66,98.22 L92.66,98.14 L89.5,98.14 L89.5,95.78 L97.8,95.78 L97.8,103 Z M114.32,103 L99.06,103 L99.06,89.68 L114.32,89.68 L114.32,93.94 L106.02,93.94 L106.02,95.2 L111.22,95.2 L111.22,97.24 L106.02,97.24 L106.02,98.38 L114.32,98.38 L114.32,103 Z M132.02,94.32 L127.1,94.32 L127.1,103 L120.14,103 L120.14,94.32 L115.22,94.32 L115.22,89.68 L132.02,89.68 L132.02,94.32 Z M155.82,96.44 C155.82,100.02 152.7,103 146.78,103 L138.22,103 L138.22,89.68 L146.78,89.68 C152.7,89.68 155.82,92.6 155.82,96.2 L155.82,96.44 Z M148.74,96.48 L148.74,96.16 C148.74,94.82 148.08,93.7 146.28,93.7 L145.18,93.7 L145.18,98.94 L146.28,98.94 C148.08,98.94 148.74,97.82 148.74,96.48 Z M164.08,103 L157.12,103 L157.12,89.68 L164.08,89.68 L164.08,103 Z M182.88,103 L176.8,103 C176,103 175.2,102.12 175.2,100.94 L175.2,99.72 C175.2,98.78 175,98.3 173.98,98.3 L172.82,98.3 L172.82,103 L165.88,103 L165.88,89.68 L176.58,89.68 C180.2,89.68 182.38,91.26 182.38,93.4 L182.38,93.58 C182.38,94.86 181.16,96.18 179.2,96.56 C181.52,96.78 182.16,98.14 182.16,99.68 L182.16,100.78 C182.16,101.62 182.36,102.24 182.88,102.8 L182.88,103 Z M175.34,94.72 L175.34,94.66 C175.34,93.96 174.96,93.7 173.92,93.7 L172.82,93.7 L172.82,95.82 L173.92,95.82 C174.96,95.82 175.34,95.38 175.34,94.72 Z M199.08,103 L183.82,103 L183.82,89.68 L199.08,89.68 L199.08,93.94 L190.78,93.94 L190.78,95.2 L195.98,95.2 L195.98,97.24 L190.78,97.24 L190.78,98.38 L199.08,98.38 L199.08,103 Z M217.02,101.22 C215.3,102.66 212.7,103.5 209.64,103.5 C203.8,103.5 200,100.58 200,96.42 L200,96.26 C200,92.1 203.8,89.18 209.64,89.18 C212.7,89.18 215.66,90.14 217.24,91.46 L214.64,94.76 C213.56,94.06 212.1,93.58 210.66,93.58 C208.64,93.58 207.1,94.66 207.1,96.3 L207.1,96.38 C207.1,98.02 208.64,99.1 210.66,99.1 C212.2,99.1 213.8,98.52 214.64,97.92 L217.02,101.22 Z M234.5,94.32 L229.58,94.32 L229.58,103 L222.62,103 L222.62,94.32 L217.7,94.32 L217.7,89.68 L234.5,89.68 L234.5,94.32 Z M242.74,103 L235.78,103 L235.78,89.68 L242.74,89.68 L242.74,103 Z M262.14,96.44 C262.14,100.3 258.8,103.5 253.1,103.5 C247.38,103.5 244.04,100.3 244.04,96.44 L244.04,96.2 C244.04,92.32 247.38,89.18 253.1,89.18 C258.8,89.18 262.14,92.32 262.14,96.2 L262.14,96.44 Z M255.04,96.5 L255.04,96.16 C255.04,94.68 254.72,93.32 253.1,93.32 C251.48,93.32 251.14,94.68 251.14,96.16 L251.14,96.5 C251.14,97.96 251.48,99.32 253.1,99.32 C254.72,99.32 255.04,97.96 255.04,96.5 Z M280.8,103 L274.84,103 L270.18,98.38 L269.68,97.8 L269.68,103 L263.44,103 L263.44,89.68 L269.08,89.68 L274.08,94.34 L274.54,94.84 L274.54,89.68 L280.8,89.68 L280.8,103 Z M298.84,98.56 C298.84,101.56 296.14,103.5 290.14,103.5 C286.94,103.5 283.54,102.68 281.62,101.54 L283.5,98.32 C286.06,99.38 288.54,99.8 290.22,99.8 C291.38,99.8 292.08,99.58 292.08,99.22 C292.08,97.94 282.18,98.9 282.18,93.82 C282.18,91.28 284.98,89.18 290.44,89.18 C294.2,89.18 297.24,90.1 298.66,90.88 L296.64,93.94 C294.42,93.26 292.34,92.88 290.92,92.88 C289.96,92.88 289.36,93.06 289.36,93.44 C289.36,94.86 298.84,93.66 298.84,98.56 Z" id="GET-DIRECTIONS"></path>
            </g>
        </g>
    </g>
</svg>