<svg height="23" viewBox="0 0 377 23" width="377" xmlns="http://www.w3.org/2000/svg"><g fill="#fff" fill-rule="evenodd" transform="translate(0 -9)"><path d="m246.6275 31h-9.579v-17.112c2.573 0 3.906-1.705 3.906-3.534h5.673zm23.963-14.849c0 3.906-4.464 6.107-11.811 8.618h11.904v6.231h-22.506v-2.325c0-8.277 13.485-8.215 13.485-11.346 0-.899-.961-1.55-3.131-1.55-2.325 0-5.239.806-7.998 1.984l-2.108-5.766c3.658-1.581 6.82-2.418 11.47-2.418 6.355 0 10.695 2.976 10.695 6.572zm13.95 7.812h-11.935v-4.65h11.935zm26.071 1.674c0 3.348-3.782 6.138-12.059 6.138s-12.059-2.79-12.059-6.138v-.186c0-2.077 1.829-4.061 5.549-4.929-3.038-.465-4.96-2.325-4.96-4.402v-.186c0-3.1 3.224-6.355 11.47-6.355 8.215 0 11.47 3.255 11.47 6.355v.186c0 2.077-1.953 3.937-4.991 4.402 3.751.868 5.58 2.852 5.58 4.929zm-9.424-8.525v-.186c0-.837-.62-1.798-2.635-1.798s-2.666.961-2.666 1.798v.186c0 1.147 1.085 1.86 2.666 1.86s2.635-.713 2.635-1.86zm0 7.254v-.217c0-.992-.868-1.798-2.635-1.798-1.798 0-2.666.806-2.666 1.798v.217c0 .992.744 1.86 2.666 1.86 1.891 0 2.635-.868 2.635-1.86zm37.293-6.789c0 3.751-2.79 7.161-8.99 7.161h-5.828v6.262h-10.788v-20.646h16.368c6.231 0 9.238 3.162 9.238 6.913zm-10.912.93v-.093c0-1.147-.496-1.705-2.108-1.705h-1.798v3.503h1.798c1.612 0 2.108-.62 2.108-1.705zm49.383 12.493h-10.292v-11.129l-.868 2.542-3.007 8.587h-9.269l-2.976-8.587-.868-2.542v11.129h-9.176v-20.646h15.19l2.79 8.091.496 1.643.496-1.643 2.79-8.091h14.694z"/><path d="m23.3025 22.537c0 5.673-3.999 9.238-11.315 9.238-4.371 0-8.556-1.147-11.842-3.286l3.038-6.107c2.263 1.116 4.557 1.891 6.758 1.891 1.86 0 2.573-.868 2.573-2.542v-11.377h10.788zm29.481-.403c0 5.394-3.658 9.641-13.423 9.641-9.734 0-13.578-4.247-13.578-9.641v-11.78h10.788v11.005c0 2.573.775 3.689 3.348 3.689s3.286-1.116 3.286-3.689v-11.005h9.579zm29.543 8.866h-9.238l-7.223-7.161-.775-.899v8.06h-9.672v-20.646h8.742l7.75 7.223.713.775v-7.998h9.703zm26.443 0h-23.653v-20.646h23.653v6.603h-12.865v1.953h8.06v3.162h-8.06v1.767h12.865z"/><path d="m128.441 31h-9.579v-17.112c2.573 0 3.906-1.705 3.906-3.534h5.673zm23.963-14.849c0 3.906-4.464 6.107-11.811 8.618h11.904v6.231h-22.506v-2.325c0-8.277 13.485-8.215 13.485-11.346 0-.899-.961-1.55-3.131-1.55-2.325 0-5.239.806-7.998 1.984l-2.108-5.766c3.658-1.581 6.82-2.418 11.47-2.418 6.355 0 10.695 2.976 10.695 6.572zm13.95 7.812h-11.935v-4.65h11.935zm12.059 7.037h-9.579v-17.112c2.573 0 3.906-1.705 3.906-3.534h5.673zm24.118-16.151c-5.177 5.022-8.37 9.548-9.858 16.151h-10.199c1.798-5.797 6.262-11.315 11.408-14.291h-13.702v-6.355h22.351z"/></g></svg>