<?xml version="1.0" encoding="UTF-8"?>
<svg width="258px" height="267px" viewBox="0 0 258 267" version="1.1" xmlns="http://www.w3.org/2000/svg" xmlns:xlink="http://www.w3.org/1999/xlink">
    <!-- Generator: Sketch 49.3 (51167) - http://www.bohemiancoding.com/sketch -->
    <title>Group 30</title>
    <desc>Created with Sketch.</desc>
    <defs></defs>
    <g id="03" stroke="none" stroke-width="1" fill="none" fill-rule="evenodd">
        <g id="Group-30" fill="#FFFFFF">
            <g id="Group-9" transform="translate(0.000000, 40.000000)">
                <path d="M39.944,226.202 L32.002,226.202 L31.144,223.65 L26.678,223.65 L25.688,226.202 L19,226.202 L25.468,211.55 L33.344,211.55 L39.944,226.202 Z M30.044,220.306 L29.098,217.556 L28.02,220.306 L30.044,220.306 Z M57.346,226.202 L40.45,226.202 L40.45,211.55 L48.106,211.55 L48.106,221.12 L57.346,221.12 L57.346,226.202 Z M75.43,226.202 L58.644,226.202 L58.644,211.55 L75.43,211.55 L75.43,216.236 L66.3,216.236 L66.3,217.622 L72.02,217.622 L72.02,219.866 L66.3,219.866 L66.3,221.12 L75.43,221.12 L75.43,226.202 Z M94.856,221.318 C94.856,224.618 91.886,226.752 85.286,226.752 C81.766,226.752 78.026,225.85 75.914,224.596 L77.982,221.054 C80.798,222.22 83.526,222.682 85.374,222.682 C86.65,222.682 87.42,222.44 87.42,222.044 C87.42,220.636 76.53,221.692 76.53,216.104 C76.53,213.31 79.61,211 85.616,211 C89.752,211 93.096,212.012 94.658,212.87 L92.436,216.236 C89.994,215.488 87.706,215.07 86.144,215.07 C85.088,215.07 84.428,215.268 84.428,215.686 C84.428,217.248 94.856,215.928 94.856,221.318 Z M112.94,226.202 L96.154,226.202 L96.154,211.55 L112.94,211.55 L112.94,216.236 L103.81,216.236 L103.81,217.622 L109.53,217.622 L109.53,219.866 L103.81,219.866 L103.81,221.12 L112.94,221.12 L112.94,226.202 Z M139.384,218.986 C139.384,223.232 135.71,226.752 129.44,226.752 C123.148,226.752 119.474,223.232 119.474,218.986 L119.474,218.722 C119.474,214.454 123.148,211 129.44,211 C135.71,211 139.384,214.454 139.384,218.722 L139.384,218.986 Z M131.574,219.052 L131.574,218.678 C131.574,217.05 131.222,215.554 129.44,215.554 C127.658,215.554 127.284,217.05 127.284,218.678 L127.284,219.052 C127.284,220.658 127.658,222.154 129.44,222.154 C131.222,222.154 131.574,220.658 131.574,219.052 Z M158.678,221.318 C158.678,224.618 155.708,226.752 149.108,226.752 C145.588,226.752 141.848,225.85 139.736,224.596 L141.804,221.054 C144.62,222.22 147.348,222.682 149.196,222.682 C150.472,222.682 151.242,222.44 151.242,222.044 C151.242,220.636 140.352,221.692 140.352,216.104 C140.352,213.31 143.432,211 149.438,211 C153.574,211 156.918,212.012 158.48,212.87 L156.258,216.236 C153.816,215.488 151.528,215.07 149.966,215.07 C148.91,215.07 148.25,215.268 148.25,215.686 C148.25,217.248 158.678,215.928 158.678,221.318 Z M177.972,222.44 C177.972,224.574 176.212,226.202 172.23,226.202 L159.976,226.202 L159.976,211.55 L171.966,211.55 C175.992,211.55 177.884,213.156 177.884,215.4 L177.884,215.576 C177.884,217.072 176.564,218.392 173.99,218.898 C176.828,219.36 177.972,220.57 177.972,222.264 L177.972,222.44 Z M170.382,216.874 L170.382,216.808 C170.382,216.148 169.964,215.884 168.82,215.884 L167.632,215.884 L167.632,217.798 L168.82,217.798 C169.964,217.798 170.382,217.512 170.382,216.874 Z M170.382,221.01 L170.382,220.944 C170.382,220.306 169.964,220.02 168.82,220.02 L167.632,220.02 L167.632,221.934 L168.82,221.934 C169.964,221.934 170.382,221.67 170.382,221.01 Z M198.608,218.986 C198.608,223.232 194.934,226.752 188.664,226.752 C182.372,226.752 178.698,223.232 178.698,218.986 L178.698,218.722 C178.698,214.454 182.372,211 188.664,211 C194.934,211 198.608,214.454 198.608,218.722 L198.608,218.986 Z M190.798,219.052 L190.798,218.678 C190.798,217.05 190.446,215.554 188.664,215.554 C186.882,215.554 186.508,217.05 186.508,218.678 L186.508,219.052 C186.508,220.658 186.882,222.154 188.664,222.154 C190.446,222.154 190.798,220.658 190.798,219.052 Z M218.738,226.202 L212.05,226.202 C211.17,226.202 210.29,225.234 210.29,223.936 L210.29,222.594 C210.29,221.56 210.07,221.032 208.948,221.032 L207.672,221.032 L207.672,226.202 L200.038,226.202 L200.038,211.55 L211.808,211.55 C215.79,211.55 218.188,213.288 218.188,215.642 L218.188,215.84 C218.188,217.248 216.846,218.7 214.69,219.118 C217.242,219.36 217.946,220.856 217.946,222.55 L217.946,223.76 C217.946,224.684 218.166,225.366 218.738,225.982 L218.738,226.202 Z M210.444,217.094 L210.444,217.028 C210.444,216.258 210.026,215.972 208.882,215.972 L207.672,215.972 L207.672,218.304 L208.882,218.304 C210.026,218.304 210.444,217.82 210.444,217.094 Z M238.868,226.202 L232.312,226.202 L227.186,221.12 L226.636,220.482 L226.636,226.202 L219.772,226.202 L219.772,211.55 L225.976,211.55 L231.476,216.676 L231.982,217.226 L231.982,211.55 L238.868,211.55 L238.868,226.202 Z" id="alese-osborn"></path>
                <path d="M13.5378386,204 L10.3698386,204 L9.21483858,198.621 L4.46283858,198.621 L3.30783858,204 L0.271838577,204 L5.25483858,182.022 L8.55483858,182.022 L13.5378386,204 Z M8.65383858,195.948 L6.83883858,186.939 L5.02383858,195.948 L8.65383858,195.948 Z M26.0311547,204 L15.9661547,204 L15.9661547,182.022 L19.0681547,182.022 L19.0681547,201.162 L26.0311547,201.162 L26.0311547,204 Z M31.7924709,204 L28.6574709,204 L28.6574709,182.022 L31.7924709,182.022 L31.7924709,204 Z M46.760787,183.441 L38.708787,201.162 L46.463787,201.162 L46.463787,204 L34.748787,204 L34.748787,202.581 L42.899787,184.893 L35.177787,184.893 L35.177787,182.022 L46.760787,182.022 L46.760787,183.441 Z M61.4321031,204 L58.2641031,204 L57.1091031,198.621 L52.3571031,198.621 L51.2021031,204 L48.1661031,204 L53.1491031,182.022 L56.4491031,182.022 L61.4321031,204 Z M56.5481031,195.948 L54.7331031,186.939 L52.9181031,195.948 L56.5481031,195.948 Z M82.0627354,204 L78.6637354,204 L74.5057354,194.199 L72.7567354,197.202 L72.7567354,204 L69.6547354,204 L69.6547354,182.022 L72.7567354,182.022 L72.7567354,192.714 L78.7297354,182.022 L82.0627354,182.022 L76.5187354,191.46 L82.0627354,204 Z M94.8860516,204 L84.6560516,204 L84.6560516,182.022 L94.8860516,182.022 L94.8860516,184.86 L87.7580516,184.86 L87.7580516,191.13 L92.9060516,191.13 L92.9060516,193.836 L87.7580516,193.836 L87.7580516,201.162 L94.8860516,201.162 L94.8860516,204 Z M108.072368,204 L98.0073677,204 L98.0073677,182.022 L101.109368,182.022 L101.109368,201.162 L108.072368,201.162 L108.072368,204 Z M120.763684,204 L110.698684,204 L110.698684,182.022 L113.800684,182.022 L113.800684,201.162 L120.763684,201.162 L120.763684,204 Z M135.204,182.022 L129.924,195.156 L129.924,204 L126.822,204 L126.822,195.156 L121.509,182.022 L124.875,182.022 L128.472,192.153 L132.069,182.022 L135.204,182.022 Z M153.128632,184.827 L146.132632,184.827 L146.132632,191.592 L151.511632,191.592 L151.511632,194.331 L146.132632,194.331 L146.132632,204 L142.997632,204 L142.997632,181.989 L153.128632,181.989 L153.128632,184.827 Z M167.535948,204 L164.367948,204 L163.212948,198.621 L158.460948,198.621 L157.305948,204 L154.269948,204 L159.252948,182.022 L162.552948,182.022 L167.535948,204 Z M162.651948,195.948 L160.836948,186.939 L159.021948,195.948 L162.651948,195.948 Z M182.504265,204.231 L181.811265,204.231 C179.336265,204.231 178.478265,203.538 178.478265,201.261 L178.478265,196.971 C178.478265,195.453 177.785265,194.43 176.201265,194.43 L173.099265,194.43 L173.099265,204 L169.964265,204 L169.964265,182.022 L176.333265,182.022 C179.897265,182.022 181.481265,183.804 181.481265,186.939 L181.481265,189.348 C181.481265,191.493 180.755265,192.78 178.643265,193.209 C180.722265,193.539 181.580265,195.288 181.580265,197.037 L181.580265,201.03 C181.580265,201.624 181.844265,201.888 182.504265,201.888 L182.504265,204.231 Z M178.346265,189.546 L178.346265,186.873 C178.346265,185.619 177.818265,184.728 176.333265,184.728 L173.099265,184.728 L173.099265,192.054 L176.003265,192.054 C177.521265,192.054 178.346265,191.196 178.346265,189.546 Z M196.944581,204 L193.776581,204 L192.621581,198.621 L187.869581,198.621 L186.714581,204 L183.678581,204 L188.661581,182.022 L191.961581,182.022 L196.944581,204 Z M192.060581,195.948 L190.245581,186.939 L188.430581,195.948 L192.060581,195.948 Z M211.219897,204 L209.668897,204 L209.074897,202.317 C208.315897,203.736 206.764897,204.495 204.784897,204.495 C200.956897,204.495 199.075897,201.822 199.075897,198.456 L199.075897,187.566 C199.075897,184.332 201.088897,181.56 205.213897,181.56 C209.371897,181.56 211.087897,184.035 211.087897,187.566 L211.087897,188.853 L208.117897,188.853 L208.117897,187.203 C208.117897,185.718 207.259897,184.332 205.213897,184.332 C203.167897,184.332 202.210897,185.784 202.210897,187.269 L202.210897,198.753 C202.210897,200.271 203.134897,201.723 205.213897,201.723 C207.292897,201.723 208.249897,200.271 208.249897,198.753 L208.249897,195.354 L205.312897,195.354 L205.312897,192.714 L211.219897,192.714 L211.219897,204 Z M227.178213,204 L224.076213,204 L224.076213,194.364 L217.839213,194.364 L217.839213,204 L214.704213,204 L214.704213,182.022 L217.839213,182.022 L217.839213,191.559 L224.076213,191.559 L224.076213,182.022 L227.178213,182.022 L227.178213,204 Z M241.354529,204 L231.124529,204 L231.124529,182.022 L241.354529,182.022 L241.354529,184.86 L234.226529,184.86 L234.226529,191.13 L239.374529,191.13 L239.374529,193.836 L234.226529,193.836 L234.226529,201.162 L241.354529,201.162 L241.354529,204 Z M257.015845,204.231 L256.322845,204.231 C253.847845,204.231 252.989845,203.538 252.989845,201.261 L252.989845,196.971 C252.989845,195.453 252.296845,194.43 250.712845,194.43 L247.610845,194.43 L247.610845,204 L244.475845,204 L244.475845,182.022 L250.844845,182.022 C254.408845,182.022 255.992845,183.804 255.992845,186.939 L255.992845,189.348 C255.992845,191.493 255.266845,192.78 253.154845,193.209 C255.233845,193.539 256.091845,195.288 256.091845,197.037 L256.091845,201.03 C256.091845,201.624 256.355845,201.888 257.015845,201.888 L257.015845,204.231 Z M252.857845,189.546 L252.857845,186.873 C252.857845,185.619 252.329845,184.728 250.844845,184.728 L247.610845,184.728 L247.610845,192.054 L250.514845,192.054 C252.032845,192.054 252.857845,191.196 252.857845,189.546 Z" id="Aliza-Kelly-Faragher"></path>
                <path d="M39.36,166.986 C39.36,170.924 35.928,174.202 29.416,174.202 L20,174.202 L20,159.55 L29.416,159.55 C35.928,159.55 39.36,162.762 39.36,166.722 L39.36,166.986 Z M31.572,167.03 L31.572,166.678 C31.572,165.204 30.846,163.972 28.866,163.972 L27.656,163.972 L27.656,169.736 L28.866,169.736 C30.846,169.736 31.572,168.504 31.572,167.03 Z M57.576,174.202 L40.79,174.202 L40.79,159.55 L57.576,159.55 L57.576,164.236 L48.446,164.236 L48.446,165.622 L54.166,165.622 L54.166,167.866 L48.446,167.866 L48.446,169.12 L57.576,169.12 L57.576,174.202 Z M77.134,170.44 C77.134,172.574 75.374,174.202 71.392,174.202 L59.138,174.202 L59.138,159.55 L71.128,159.55 C75.154,159.55 77.046,161.156 77.046,163.4 L77.046,163.576 C77.046,165.072 75.726,166.392 73.152,166.898 C75.99,167.36 77.134,168.57 77.134,170.264 L77.134,170.44 Z M69.544,164.874 L69.544,164.808 C69.544,164.148 69.126,163.884 67.982,163.884 L66.794,163.884 L66.794,165.798 L67.982,165.798 C69.126,165.798 69.544,165.512 69.544,164.874 Z M69.544,169.01 L69.544,168.944 C69.544,168.306 69.126,168.02 67.982,168.02 L66.794,168.02 L66.794,169.934 L67.982,169.934 C69.126,169.934 69.544,169.67 69.544,169.01 Z M96.406,170.44 C96.406,172.574 94.646,174.202 90.664,174.202 L78.41,174.202 L78.41,159.55 L90.4,159.55 C94.426,159.55 96.318,161.156 96.318,163.4 L96.318,163.576 C96.318,165.072 94.998,166.392 92.424,166.898 C95.262,167.36 96.406,168.57 96.406,170.264 L96.406,170.44 Z M88.816,164.874 L88.816,164.808 C88.816,164.148 88.398,163.884 87.254,163.884 L86.066,163.884 L86.066,165.798 L87.254,165.798 C88.398,165.798 88.816,165.512 88.816,164.874 Z M88.816,169.01 L88.816,168.944 C88.816,168.306 88.398,168.02 87.254,168.02 L86.066,168.02 L86.066,169.934 L87.254,169.934 C88.398,169.934 88.816,169.67 88.816,169.01 Z M105.338,174.202 L97.682,174.202 L97.682,159.55 L105.338,159.55 L105.338,174.202 Z M124.104,174.202 L107.318,174.202 L107.318,159.55 L124.104,159.55 L124.104,164.236 L114.974,164.236 L114.974,165.622 L120.694,165.622 L120.694,167.866 L114.974,167.866 L114.974,169.12 L124.104,169.12 L124.104,174.202 Z M150.57,174.202 L142.628,174.202 L141.77,171.65 L137.304,171.65 L136.314,174.202 L129.626,174.202 L136.094,159.55 L143.97,159.55 L150.57,174.202 Z M140.67,168.306 L139.724,165.556 L138.646,168.306 L140.67,168.306 Z M168.984,164.654 L163.572,164.654 L163.572,174.202 L155.916,174.202 L155.916,164.654 L150.504,164.654 L150.504,159.55 L168.984,159.55 L168.984,164.654 Z M188.3,164.654 L182.888,164.654 L182.888,174.202 L175.232,174.202 L175.232,164.654 L169.82,164.654 L169.82,159.55 L188.3,159.55 L188.3,164.654 Z M197.364,174.202 L189.708,174.202 L189.708,159.55 L197.364,159.55 L197.364,174.202 Z M218.726,174.202 L210.784,174.202 L209.926,171.65 L205.46,171.65 L204.47,174.202 L197.782,174.202 L204.25,159.55 L212.126,159.55 L218.726,174.202 Z M208.826,168.306 L207.88,165.556 L206.802,168.306 L208.826,168.306 Z M237.096,169.318 C237.096,172.618 234.126,174.752 227.526,174.752 C224.006,174.752 220.266,173.85 218.154,172.596 L220.222,169.054 C223.038,170.22 225.766,170.682 227.614,170.682 C228.89,170.682 229.66,170.44 229.66,170.044 C229.66,168.636 218.77,169.692 218.77,164.104 C218.77,161.31 221.85,159 227.856,159 C231.992,159 235.336,160.012 236.898,160.87 L234.676,164.236 C232.234,163.488 229.946,163.07 228.384,163.07 C227.328,163.07 226.668,163.268 226.668,163.686 C226.668,165.248 237.096,163.928 237.096,169.318 Z" id="debbie-attias"></path>
                <path d="M32.434,150.978 L29.596,150.978 L29.596,133.851 L28.705,138.042 L25.702,150.978 L22.633,150.978 L19.696,138.042 L18.772,133.851 L18.772,150.978 L16,150.978 L16,129 L20.356,129 L23.359,142.728 L24.25,146.919 L25.141,142.695 L28.078,129 L32.434,129 L32.434,150.978 Z M48.0953161,150.978 L44.9273161,150.978 L43.7723161,145.599 L39.0203161,145.599 L37.8653161,150.978 L34.8293161,150.978 L39.8123161,129 L43.1123161,129 L48.0953161,150.978 Z M43.2113161,142.926 L41.3963161,133.917 L39.5813161,142.926 L43.2113161,142.926 Z M63.0636323,151.209 L62.3706323,151.209 C59.8956323,151.209 59.0376323,150.516 59.0376323,148.239 L59.0376323,143.949 C59.0376323,142.431 58.3446323,141.408 56.7606323,141.408 L53.6586323,141.408 L53.6586323,150.978 L50.5236323,150.978 L50.5236323,129 L56.8926323,129 C60.4566323,129 62.0406323,130.782 62.0406323,133.917 L62.0406323,136.326 C62.0406323,138.471 61.3146323,139.758 59.2026323,140.187 C61.2816323,140.517 62.1396323,142.266 62.1396323,144.015 L62.1396323,148.008 C62.1396323,148.602 62.4036323,148.866 63.0636323,148.866 L63.0636323,151.209 Z M58.9056323,136.524 L58.9056323,133.851 C58.9056323,132.597 58.3776323,131.706 56.8926323,131.706 L53.6586323,131.706 L53.6586323,139.032 L56.5626323,139.032 C58.0806323,139.032 58.9056323,138.174 58.9056323,136.524 Z M68.9239484,150.978 L65.7889484,150.978 L65.7889484,129 L68.9239484,129 L68.9239484,150.978 Z M84.5522646,150.978 L81.3842646,150.978 L80.2292646,145.599 L75.4772646,145.599 L74.3222646,150.978 L71.2862646,150.978 L76.2692646,129 L79.5692646,129 L84.5522646,150.978 Z M79.6682646,142.926 L77.8532646,133.917 L76.0382646,142.926 L79.6682646,142.926 Z M99.4545807,150.978 L96.3525807,150.978 L96.3525807,141.342 L90.1155807,141.342 L90.1155807,150.978 L86.9805807,150.978 L86.9805807,129 L90.1155807,129 L90.1155807,138.537 L96.3525807,138.537 L96.3525807,129 L99.4545807,129 L99.4545807,150.978 Z M125.629213,150.978 L122.791213,150.978 L122.791213,133.851 L121.900213,138.042 L118.897213,150.978 L115.828213,150.978 L112.891213,138.042 L111.967213,133.851 L111.967213,150.978 L109.195213,150.978 L109.195213,129 L113.551213,129 L116.554213,142.728 L117.445213,146.919 L118.336213,142.695 L121.273213,129 L125.629213,129 L125.629213,150.978 Z M141.290529,150.978 L138.122529,150.978 L136.967529,145.599 L132.215529,145.599 L131.060529,150.978 L128.024529,150.978 L133.007529,129 L136.307529,129 L141.290529,150.978 Z M136.406529,142.926 L134.591529,133.917 L132.776529,142.926 L136.406529,142.926 Z M156.126845,150.978 L152.727845,150.978 L148.569845,141.177 L146.820845,144.18 L146.820845,150.978 L143.718845,150.978 L143.718845,129 L146.820845,129 L146.820845,139.692 L152.793845,129 L156.126845,129 L150.582845,138.438 L156.126845,150.978 Z M170.435161,150.978 L167.267161,150.978 L166.112161,145.599 L161.360161,145.599 L160.205161,150.978 L157.169161,150.978 L162.152161,129 L165.452161,129 L170.435161,150.978 Z M165.551161,142.926 L163.736161,133.917 L161.921161,142.926 L165.551161,142.926 Z M182.928478,150.978 L172.863478,150.978 L172.863478,129 L175.965478,129 L175.965478,148.14 L182.928478,148.14 L182.928478,150.978 Z M197.269794,150.978 L194.101794,150.978 L192.946794,145.599 L188.194794,145.599 L187.039794,150.978 L184.003794,150.978 L188.986794,129 L192.286794,129 L197.269794,150.978 Z M192.385794,142.926 L190.570794,133.917 L188.755794,142.926 L192.385794,142.926 Z M211.21511,137.118 C211.21511,140.22 209.63111,142.167 206.06711,142.167 L202.80011,142.167 L202.80011,150.978 L199.69811,150.978 L199.69811,129 L206.06711,129 C209.63111,129 211.21511,130.914 211.21511,134.082 L211.21511,137.118 Z M208.08011,137.217 L208.08011,133.983 C208.08011,132.531 207.55211,131.706 206.10011,131.706 L202.80011,131.706 L202.80011,139.494 L206.10011,139.494 C207.55211,139.494 208.08011,138.636 208.08011,137.217 Z M226.447426,145.731 C226.447426,149.361 223.906426,151.473 220.309426,151.473 C216.745426,151.473 214.204426,149.361 214.204426,145.731 L214.204426,129 L217.339426,129 L217.339426,145.731 C217.339426,147.678 218.296426,148.734 220.342426,148.734 C222.388426,148.734 223.345426,147.678 223.345426,145.731 L223.345426,129 L226.447426,129 L226.447426,145.731 Z M242.042742,150.978 L238.874742,150.978 L237.719742,145.599 L232.967742,145.599 L231.812742,150.978 L228.776742,150.978 L233.759742,129 L237.059742,129 L242.042742,150.978 Z M237.158742,142.926 L235.343742,133.917 L233.528742,142.926 L237.158742,142.926 Z" id="mariah-makalapua"></path>
                <path d="M44.942,116.318 C44.942,119.618 41.972,121.752 35.372,121.752 C31.852,121.752 28.112,120.85 26,119.596 L28.068,116.054 C30.884,117.22 33.612,117.682 35.46,117.682 C36.736,117.682 37.506,117.44 37.506,117.044 C37.506,115.636 26.616,116.692 26.616,111.104 C26.616,108.31 29.696,106 35.702,106 C39.838,106 43.182,107.012 44.744,107.87 L42.522,111.236 C40.08,110.488 37.792,110.07 36.23,110.07 C35.174,110.07 34.514,110.268 34.514,110.686 C34.514,112.248 44.942,110.928 44.942,116.318 Z M65.622,121.202 L57.68,121.202 L56.822,118.65 L52.356,118.65 L51.366,121.202 L44.678,121.202 L51.146,106.55 L59.022,106.55 L65.622,121.202 Z M55.722,115.306 L54.776,112.556 L53.698,115.306 L55.722,115.306 Z M84.828,121.202 L78.14,121.202 C77.26,121.202 76.38,120.234 76.38,118.936 L76.38,117.594 C76.38,116.56 76.16,116.032 75.038,116.032 L73.762,116.032 L73.762,121.202 L66.128,121.202 L66.128,106.55 L77.898,106.55 C81.88,106.55 84.278,108.288 84.278,110.642 L84.278,110.84 C84.278,112.248 82.936,113.7 80.78,114.118 C83.332,114.36 84.036,115.856 84.036,117.55 L84.036,118.76 C84.036,119.684 84.256,120.366 84.828,120.982 L84.828,121.202 Z M76.534,112.094 L76.534,112.028 C76.534,111.258 76.116,110.972 74.972,110.972 L73.762,110.972 L73.762,113.304 L74.972,113.304 C76.116,113.304 76.534,112.82 76.534,112.094 Z M105.244,121.202 L97.302,121.202 L96.444,118.65 L91.978,118.65 L90.988,121.202 L84.3,121.202 L90.768,106.55 L98.644,106.55 L105.244,121.202 Z M95.344,115.306 L94.398,112.556 L93.32,115.306 L95.344,115.306 Z M124.956,121.202 L117.278,121.202 L117.278,116.12 L113.406,116.12 L113.406,121.202 L105.75,121.202 L105.75,106.55 L113.406,106.55 L113.406,112.05 L117.278,112.05 L117.278,106.55 L124.956,106.55 L124.956,121.202 Z M149.354,121.202 L132.458,121.202 L132.458,106.55 L140.114,106.55 L140.114,116.12 L149.354,116.12 L149.354,121.202 Z M170.848,106.55 L163.786,116.23 L163.786,121.202 L156.13,121.202 L156.13,116.23 L149.244,106.55 L157.714,106.55 L160.53,110.818 L163.236,106.55 L170.848,106.55 Z M190.802,113.986 C190.802,118.232 187.128,121.752 180.858,121.752 C174.566,121.752 170.892,118.232 170.892,113.986 L170.892,113.722 C170.892,109.454 174.566,106 180.858,106 C187.128,106 190.802,109.454 190.802,113.722 L190.802,113.986 Z M182.992,114.052 L182.992,113.678 C182.992,112.05 182.64,110.554 180.858,110.554 C179.076,110.554 178.702,112.05 178.702,113.678 L178.702,114.052 C178.702,115.658 179.076,117.154 180.858,117.154 C182.64,117.154 182.992,115.658 182.992,114.052 Z M211.328,121.202 L204.772,121.202 L199.646,116.12 L199.096,115.482 L199.096,121.202 L192.232,121.202 L192.232,106.55 L198.436,106.55 L203.936,111.676 L204.442,112.226 L204.442,106.55 L211.328,106.55 L211.328,121.202 Z M231.172,116.318 C231.172,119.618 228.202,121.752 221.602,121.752 C218.082,121.752 214.342,120.85 212.23,119.596 L214.298,116.054 C217.114,117.22 219.842,117.682 221.69,117.682 C222.966,117.682 223.736,117.44 223.736,117.044 C223.736,115.636 212.846,116.692 212.846,111.104 C212.846,108.31 215.926,106 221.932,106 C226.068,106 229.412,107.012 230.974,107.87 L228.752,111.236 C226.31,110.488 224.022,110.07 222.46,110.07 C221.404,110.07 220.744,110.268 220.744,110.686 C220.744,112.248 231.172,110.928 231.172,116.318 Z" id="sarah-lyons"></path>
                <path d="M49.266,98.44 L46.098,98.44 L44.943,93.061 L40.191,93.061 L39.036,98.44 L36,98.44 L40.983,76.462 L44.283,76.462 L49.266,98.44 Z M44.382,90.388 L42.567,81.379 L40.752,90.388 L44.382,90.388 Z M61.9243161,98.44 L51.6943161,98.44 L51.6943161,76.462 L61.9243161,76.462 L61.9243161,79.3 L54.7963161,79.3 L54.7963161,85.57 L59.9443161,85.57 L59.9443161,88.276 L54.7963161,88.276 L54.7963161,95.602 L61.9243161,95.602 L61.9243161,98.44 Z M77.5856323,98.671 L76.8926323,98.671 C74.4176323,98.671 73.5596323,97.978 73.5596323,95.701 L73.5596323,91.411 C73.5596323,89.893 72.8666323,88.87 71.2826323,88.87 L68.1806323,88.87 L68.1806323,98.44 L65.0456323,98.44 L65.0456323,76.462 L71.4146323,76.462 C74.9786323,76.462 76.5626323,78.244 76.5626323,81.379 L76.5626323,83.788 C76.5626323,85.933 75.8366323,87.22 73.7246323,87.649 C75.8036323,87.979 76.6616323,89.728 76.6616323,91.477 L76.6616323,95.47 C76.6616323,96.064 76.9256323,96.328 77.5856323,96.328 L77.5856323,98.671 Z M73.4276323,83.986 L73.4276323,81.313 C73.4276323,80.059 72.8996323,79.168 71.4146323,79.168 L68.1806323,79.168 L68.1806323,86.494 L71.0846323,86.494 C72.6026323,86.494 73.4276323,85.636 73.4276323,83.986 Z M83.4459484,98.44 L80.3109484,98.44 L80.3109484,76.462 L83.4459484,76.462 L83.4459484,98.44 Z M99.8002646,98.44 L97.5892646,98.44 L92.1442646,87.748 L90.2962646,83.887 L90.2962646,98.44 L87.3262646,98.44 L87.3262646,76.462 L89.8672646,76.462 L95.0812646,87.352 L96.8302646,91.213 L96.8302646,76.462 L99.8002646,76.462 L99.8002646,98.44 Z M116.154581,98.44 L113.943581,98.44 L108.498581,87.748 L106.650581,83.887 L106.650581,98.44 L103.680581,98.44 L103.680581,76.462 L106.221581,76.462 L111.435581,87.352 L113.184581,91.213 L113.184581,76.462 L116.154581,76.462 L116.154581,98.44 Z M138.270213,98.44 L134.871213,98.44 L130.713213,88.639 L128.964213,91.642 L128.964213,98.44 L125.862213,98.44 L125.862213,76.462 L128.964213,76.462 L128.964213,87.154 L134.937213,76.462 L138.270213,76.462 L132.726213,85.9 L138.270213,98.44 Z M152.842529,92.632 C152.842529,96.229 150.862529,98.935 146.704529,98.935 C142.579529,98.935 140.566529,96.229 140.566529,92.632 L140.566529,82.27 C140.566529,78.706 142.579529,76 146.704529,76 C150.862529,76 152.842529,78.706 152.842529,82.27 L152.842529,92.632 Z M149.740529,92.896 L149.740529,82.006 C149.740529,80.125 148.750529,78.772 146.704529,78.772 C144.658529,78.772 143.701529,80.125 143.701529,82.006 L143.701529,92.896 C143.701529,94.777 144.658529,96.13 146.704529,96.13 C148.750529,96.13 149.740529,94.777 149.740529,92.896 Z M166.556845,98.44 L156.491845,98.44 L156.491845,76.462 L159.593845,76.462 L159.593845,95.602 L166.556845,95.602 L166.556845,98.44 Z M179.314161,79.267 L172.318161,79.267 L172.318161,86.032 L177.697161,86.032 L177.697161,88.771 L172.318161,88.771 L172.318161,98.44 L169.183161,98.44 L169.183161,76.429 L179.314161,76.429 L179.314161,79.267 Z M193.721478,98.44 L190.553478,98.44 L189.398478,93.061 L184.646478,93.061 L183.491478,98.44 L180.455478,98.44 L185.438478,76.462 L188.738478,76.462 L193.721478,98.44 Z M188.837478,90.388 L187.022478,81.379 L185.207478,90.388 L188.837478,90.388 Z M207.996794,98.44 L206.445794,98.44 L205.851794,96.757 C205.092794,98.176 203.541794,98.935 201.561794,98.935 C197.733794,98.935 195.852794,96.262 195.852794,92.896 L195.852794,82.006 C195.852794,78.772 197.865794,76 201.990794,76 C206.148794,76 207.864794,78.475 207.864794,82.006 L207.864794,83.293 L204.894794,83.293 L204.894794,81.643 C204.894794,80.158 204.036794,78.772 201.990794,78.772 C199.944794,78.772 198.987794,80.224 198.987794,81.709 L198.987794,93.193 C198.987794,94.711 199.911794,96.163 201.990794,96.163 C204.069794,96.163 205.026794,94.711 205.026794,93.193 L205.026794,89.794 L202.089794,89.794 L202.089794,87.154 L207.996794,87.154 L207.996794,98.44 Z M221.71111,98.44 L211.48111,98.44 L211.48111,76.462 L221.71111,76.462 L221.71111,79.3 L214.58311,79.3 L214.58311,85.57 L219.73111,85.57 L219.73111,88.276 L214.58311,88.276 L214.58311,95.602 L221.71111,95.602 L221.71111,98.44 Z" id="aerinn-kolfage"></path>
                <path d="M57.722,66.244 C55.83,67.828 52.97,68.752 49.604,68.752 C43.18,68.752 39,65.54 39,60.964 L39,60.788 C39,56.212 43.18,53 49.604,53 C52.97,53 56.226,54.056 57.964,55.508 L55.104,59.138 C53.916,58.368 52.31,57.84 50.726,57.84 C48.504,57.84 46.81,59.028 46.81,60.832 L46.81,60.92 C46.81,62.724 48.504,63.912 50.726,63.912 C52.42,63.912 54.18,63.274 55.104,62.614 L57.722,66.244 Z M78.424,68.202 L70.482,68.202 L69.624,65.65 L65.158,65.65 L64.168,68.202 L57.48,68.202 L63.948,53.55 L71.824,53.55 L78.424,68.202 Z M68.524,62.306 L67.578,59.556 L66.5,62.306 L68.524,62.306 Z M96.838,58.654 L91.426,58.654 L91.426,68.202 L83.77,68.202 L83.77,58.654 L78.358,58.654 L78.358,53.55 L96.838,53.55 L96.838,58.654 Z M121.94,66.244 C120.048,67.828 117.188,68.752 113.822,68.752 C107.398,68.752 103.218,65.54 103.218,60.964 L103.218,60.788 C103.218,56.212 107.398,53 113.822,53 C117.188,53 120.444,54.056 122.182,55.508 L119.322,59.138 C118.134,58.368 116.528,57.84 114.944,57.84 C112.722,57.84 111.028,59.028 111.028,60.832 L111.028,60.92 C111.028,62.724 112.722,63.912 114.944,63.912 C116.638,63.912 118.398,63.274 119.322,62.614 L121.94,66.244 Z M142.642,68.202 L134.7,68.202 L133.842,65.65 L129.376,65.65 L128.386,68.202 L121.698,68.202 L128.166,53.55 L136.042,53.55 L142.642,68.202 Z M132.742,62.306 L131.796,59.556 L130.718,62.306 L132.742,62.306 Z M161.144,64.44 C161.144,66.574 159.384,68.202 155.402,68.202 L143.148,68.202 L143.148,53.55 L155.138,53.55 C159.164,53.55 161.056,55.156 161.056,57.4 L161.056,57.576 C161.056,59.072 159.736,60.392 157.162,60.898 C160,61.36 161.144,62.57 161.144,64.264 L161.144,64.44 Z M153.554,58.874 L153.554,58.808 C153.554,58.148 153.136,57.884 151.992,57.884 L150.804,57.884 L150.804,59.798 L151.992,59.798 C153.136,59.798 153.554,59.512 153.554,58.874 Z M153.554,63.01 L153.554,62.944 C153.554,62.306 153.136,62.02 151.992,62.02 L150.804,62.02 L150.804,63.934 L151.992,63.934 C153.136,63.934 153.554,63.67 153.554,63.01 Z M181.12,68.202 L174.432,68.202 C173.552,68.202 172.672,67.234 172.672,65.936 L172.672,64.594 C172.672,63.56 172.452,63.032 171.33,63.032 L170.054,63.032 L170.054,68.202 L162.42,68.202 L162.42,53.55 L174.19,53.55 C178.172,53.55 180.57,55.288 180.57,57.642 L180.57,57.84 C180.57,59.248 179.228,60.7 177.072,61.118 C179.624,61.36 180.328,62.856 180.328,64.55 L180.328,65.76 C180.328,66.684 180.548,67.366 181.12,67.982 L181.12,68.202 Z M172.826,59.094 L172.826,59.028 C172.826,58.258 172.408,57.972 171.264,57.972 L170.054,57.972 L170.054,60.304 L171.264,60.304 C172.408,60.304 172.826,59.82 172.826,59.094 Z M201.536,68.202 L193.594,68.202 L192.736,65.65 L188.27,65.65 L187.28,68.202 L180.592,68.202 L187.06,53.55 L194.936,53.55 L201.536,68.202 Z M191.636,62.306 L190.69,59.556 L189.612,62.306 L191.636,62.306 Z M218.938,68.202 L202.042,68.202 L202.042,53.55 L209.698,53.55 L209.698,63.12 L218.938,63.12 L218.938,68.202 Z" id="cat-cabral"></path>
                <path d="M50.144,26.333 L45.656,26.333 L45.656,45.44 L42.521,45.44 L42.521,26.333 L38,26.333 L38,23.462 L50.144,23.462 L50.144,26.333 Z M65.2113161,45.44 L62.1093161,45.44 L62.1093161,35.804 L55.8723161,35.804 L55.8723161,45.44 L52.7373161,45.44 L52.7373161,23.462 L55.8723161,23.462 L55.8723161,32.999 L62.1093161,32.999 L62.1093161,23.462 L65.2113161,23.462 L65.2113161,45.44 Z M79.3876323,45.44 L69.1576323,45.44 L69.1576323,23.462 L79.3876323,23.462 L79.3876323,26.3 L72.2596323,26.3 L72.2596323,32.57 L77.4076323,32.57 L77.4076323,35.276 L72.2596323,35.276 L72.2596323,42.602 L79.3876323,42.602 L79.3876323,45.44 Z M100.777265,45.44 L97.6752646,45.44 L97.6752646,35.804 L91.4382646,35.804 L91.4382646,45.44 L88.3032646,45.44 L88.3032646,23.462 L91.4382646,23.462 L91.4382646,32.999 L97.6752646,32.999 L97.6752646,23.462 L100.777265,23.462 L100.777265,45.44 Z M116.702581,39.632 C116.702581,43.229 114.722581,45.935 110.564581,45.935 C106.439581,45.935 104.426581,43.229 104.426581,39.632 L104.426581,29.27 C104.426581,25.706 106.439581,23 110.564581,23 C114.722581,23 116.702581,25.706 116.702581,29.27 L116.702581,39.632 Z M113.600581,39.896 L113.600581,29.006 C113.600581,27.125 112.610581,25.772 110.564581,25.772 C108.518581,25.772 107.561581,27.125 107.561581,29.006 L107.561581,39.896 C107.561581,41.777 108.518581,43.13 110.564581,43.13 C112.610581,43.13 113.600581,41.777 113.600581,39.896 Z M132.330897,39.632 C132.330897,43.229 130.350897,45.935 126.192897,45.935 C122.067897,45.935 120.054897,43.229 120.054897,39.632 L120.054897,29.27 C120.054897,25.706 122.067897,23 126.192897,23 C130.350897,23 132.330897,25.706 132.330897,29.27 L132.330897,39.632 Z M129.228897,39.896 L129.228897,29.006 C129.228897,27.125 128.238897,25.772 126.192897,25.772 C124.146897,25.772 123.189897,27.125 123.189897,29.006 L123.189897,39.896 C123.189897,41.777 124.146897,43.13 126.192897,43.13 C128.238897,43.13 129.228897,41.777 129.228897,39.896 Z M148.058213,39.5 C148.058213,42.899 146.276213,45.44 142.184213,45.44 L135.980213,45.44 L135.980213,23.462 L142.184213,23.462 C146.276213,23.462 148.058213,26.003 148.058213,29.402 L148.058213,39.5 Z M144.956213,39.368 L144.956213,29.567 C144.956213,27.488 144.032213,26.333 141.986213,26.333 L139.115213,26.333 L139.115213,42.569 L141.986213,42.569 C144.032213,42.569 144.956213,41.414 144.956213,39.368 Z M170.055529,23.462 L165.996529,45.44 L162.960529,45.44 L160.188529,30.293 L157.218529,45.44 L154.182529,45.44 L150.321529,23.462 L153.489529,23.462 L155.799529,39.698 L158.901529,23.462 L161.739529,23.462 L164.577529,39.698 L166.986529,23.462 L170.055529,23.462 Z M175.618845,45.44 L172.483845,45.44 L172.483845,23.462 L175.618845,23.462 L175.618845,45.44 Z M190.323161,26.333 L185.835161,26.333 L185.835161,45.44 L182.700161,45.44 L182.700161,26.333 L178.179161,26.333 L178.179161,23.462 L190.323161,23.462 L190.323161,26.333 Z M204.730478,40.127 C204.730478,43.328 202.915478,45.935 198.757478,45.935 C194.599478,45.935 192.619478,43.064 192.619478,39.83 L192.619478,29.072 C192.619478,25.838 194.599478,23 198.757478,23 C202.915478,23 204.730478,25.574 204.730478,28.775 L204.730478,31.151 L201.925478,31.151 L201.925478,28.841 C201.925478,26.993 200.902478,25.772 198.856478,25.772 C196.777478,25.772 195.754478,27.026 195.754478,28.709 L195.754478,40.193 C195.754478,41.876 196.777478,43.13 198.856478,43.13 C200.902478,43.13 201.925478,41.942 201.925478,40.061 L201.925478,37.751 L204.730478,37.751 L204.730478,40.127 Z M220.424794,45.44 L217.322794,45.44 L217.322794,35.804 L211.085794,35.804 L211.085794,45.44 L207.950794,45.44 L207.950794,23.462 L211.085794,23.462 L211.085794,32.999 L217.322794,32.999 L217.322794,23.462 L220.424794,23.462 L220.424794,45.44 Z" id="the-hoodwitch"></path>
                <path d="M50.944,15.202 L43.002,15.202 L42.144,12.65 L37.678,12.65 L36.688,15.202 L30,15.202 L36.468,0.55 L44.344,0.55 L50.944,15.202 Z M41.044,9.306 L40.098,6.556 L39.02,9.306 L41.044,9.306 Z M69.314,10.318 C69.314,13.618 66.344,15.752 59.744,15.752 C56.224,15.752 52.484,14.85 50.372,13.596 L52.44,10.054 C55.256,11.22 57.984,11.682 59.832,11.682 C61.108,11.682 61.878,11.44 61.878,11.044 C61.878,9.636 50.988,10.692 50.988,5.104 C50.988,2.31 54.068,0 60.074,0 C64.21,0 67.554,1.012 69.116,1.87 L66.894,5.236 C64.452,4.488 62.164,4.07 60.602,4.07 C59.546,4.07 58.886,4.268 58.886,4.686 C58.886,6.248 69.314,4.928 69.314,10.318 Z M88.52,5.654 L83.108,5.654 L83.108,15.202 L75.452,15.202 L75.452,5.654 L70.04,5.654 L70.04,0.55 L88.52,0.55 L88.52,5.654 Z M108.628,15.202 L101.94,15.202 C101.06,15.202 100.18,14.234 100.18,12.936 L100.18,11.594 C100.18,10.56 99.96,10.032 98.838,10.032 L97.562,10.032 L97.562,15.202 L89.928,15.202 L89.928,0.55 L101.698,0.55 C105.68,0.55 108.078,2.288 108.078,4.642 L108.078,4.84 C108.078,6.248 106.736,7.7 104.58,8.118 C107.132,8.36 107.836,9.856 107.836,11.55 L107.836,12.76 C107.836,13.684 108.056,14.366 108.628,14.982 L108.628,15.202 Z M100.334,6.094 L100.334,6.028 C100.334,5.258 99.916,4.972 98.772,4.972 L97.562,4.972 L97.562,7.304 L98.772,7.304 C99.916,7.304 100.334,6.82 100.334,6.094 Z M129.022,7.986 C129.022,12.232 125.348,15.752 119.078,15.752 C112.786,15.752 109.112,12.232 109.112,7.986 L109.112,7.722 C109.112,3.454 112.786,0 119.078,0 C125.348,0 129.022,3.454 129.022,7.722 L129.022,7.986 Z M121.212,8.052 L121.212,7.678 C121.212,6.05 120.86,4.554 119.078,4.554 C117.296,4.554 116.922,6.05 116.922,7.678 L116.922,8.052 C116.922,9.658 117.296,11.154 119.078,11.154 C120.86,11.154 121.212,9.658 121.212,8.052 Z M148.36,5.654 L142.948,5.654 L142.948,15.202 L135.292,15.202 L135.292,5.654 L129.88,5.654 L129.88,0.55 L148.36,0.55 L148.36,5.654 Z M179.336,0.55 L174.144,15.202 L165.806,15.202 L163.496,7.832 L161.186,15.202 L153.684,15.202 L148.558,0.55 L156.764,0.55 L158.854,8.096 L160.966,0.55 L168.38,0.55 L170.602,8.184 L172.824,0.55 L179.336,0.55 Z M187.652,15.202 L179.996,15.202 L179.996,0.55 L187.652,0.55 L187.652,15.202 Z M208.728,15.202 L202.172,15.202 L197.046,10.12 L196.496,9.482 L196.496,15.202 L189.632,15.202 L189.632,0.55 L195.836,0.55 L201.336,5.676 L201.842,6.226 L201.842,0.55 L208.728,0.55 L208.728,15.202 Z M228.572,10.318 C228.572,13.618 225.602,15.752 219.002,15.752 C215.482,15.752 211.742,14.85 209.63,13.596 L211.698,10.054 C214.514,11.22 217.242,11.682 219.09,11.682 C220.366,11.682 221.136,11.44 221.136,11.044 C221.136,9.636 210.246,10.692 210.246,5.104 C210.246,2.31 213.326,0 219.332,0 C223.468,0 226.812,1.012 228.374,1.87 L226.152,5.236 C223.71,4.488 221.422,4.07 219.86,4.07 C218.804,4.07 218.144,4.268 218.144,4.686 C218.144,6.248 228.572,4.928 228.572,10.318 Z" id="astrotwins"></path>
            </g>
            <path d="M118.14,1.72 L113.9,1.72 L113.9,5.82 L117.16,5.82 L117.16,7.48 L113.9,7.48 L113.9,13.34 L112,13.34 L112,0 L118.14,0 L118.14,1.72 Z M125.74,13.34 L119.54,13.34 L119.54,0.02 L125.74,0.02 L125.74,1.74 L121.42,1.74 L121.42,5.54 L124.54,5.54 L124.54,7.18 L121.42,7.18 L121.42,11.62 L125.74,11.62 L125.74,13.34 Z M134.5,13.34 L132.58,13.34 L131.88,10.08 L129,10.08 L128.3,13.34 L126.46,13.34 L129.48,0.02 L131.48,0.02 L134.5,13.34 Z M131.54,8.46 L130.44,3 L129.34,8.46 L131.54,8.46 Z M142.28,1.76 L139.56,1.76 L139.56,13.34 L137.66,13.34 L137.66,1.76 L134.92,1.76 L134.92,0.02 L142.28,0.02 L142.28,1.76 Z M145.26,13.34 L143.62,13.34 L143.62,11.08 L145.26,11.08 L145.26,13.34 Z" id="FEAT."></path>
        </g>
    </g>
</svg>