<?xml version="1.0" encoding="UTF-8"?>
<svg width="200px" height="269px" viewBox="0 0 200 269" version="1.1" xmlns="http://www.w3.org/2000/svg" xmlns:xlink="http://www.w3.org/1999/xlink">
    <!-- Generator: Sketch 49.3 (51167) - http://www.bohemiancoding.com/sketch -->
    <title>Featured artists</title>
    <desc>Created with Sketch.</desc>
    <defs></defs>
    <g id="03" stroke="none" stroke-width="1" fill="none" fill-rule="evenodd">
        <g id="Featured-artists" fill="#FFFFFF">
            <path d="M21.718,268 L13.776,268 L12.918,265.448 L8.452,265.448 L7.462,268 L0.774,268 L7.242,253.348 L15.118,253.348 L21.718,268 Z M11.818,262.104 L10.872,259.354 L9.794,262.104 L11.818,262.104 Z M40.088,263.116 C40.088,266.416 37.118,268.55 30.518,268.55 C26.998,268.55 23.258,267.648 21.146,266.394 L23.214,262.852 C26.03,264.018 28.758,264.48 30.606,264.48 C31.882,264.48 32.652,264.238 32.652,263.842 C32.652,262.434 21.762,263.49 21.762,257.902 C21.762,255.108 24.842,252.798 30.848,252.798 C34.984,252.798 38.328,253.81 39.89,254.668 L37.668,258.034 C35.226,257.286 32.938,256.868 31.376,256.868 C30.32,256.868 29.66,257.066 29.66,257.484 C29.66,259.046 40.088,257.726 40.088,263.116 Z M59.294,258.452 L53.882,258.452 L53.882,268 L46.226,268 L46.226,258.452 L40.814,258.452 L40.814,253.348 L59.294,253.348 L59.294,258.452 Z M79.402,268 L72.714,268 C71.834,268 70.954,267.032 70.954,265.734 L70.954,264.392 C70.954,263.358 70.734,262.83 69.612,262.83 L68.336,262.83 L68.336,268 L60.702,268 L60.702,253.348 L72.472,253.348 C76.454,253.348 78.852,255.086 78.852,257.44 L78.852,257.638 C78.852,259.046 77.51,260.498 75.354,260.916 C77.906,261.158 78.61,262.654 78.61,264.348 L78.61,265.558 C78.61,266.482 78.83,267.164 79.402,267.78 L79.402,268 Z M71.108,258.892 L71.108,258.826 C71.108,258.056 70.69,257.77 69.546,257.77 L68.336,257.77 L68.336,260.102 L69.546,260.102 C70.69,260.102 71.108,259.618 71.108,258.892 Z M99.796,260.784 C99.796,265.03 96.122,268.55 89.852,268.55 C83.56,268.55 79.886,265.03 79.886,260.784 L79.886,260.52 C79.886,256.252 83.56,252.798 89.852,252.798 C96.122,252.798 99.796,256.252 99.796,260.52 L99.796,260.784 Z M91.986,260.85 L91.986,260.476 C91.986,258.848 91.634,257.352 89.852,257.352 C88.07,257.352 87.696,258.848 87.696,260.476 L87.696,260.85 C87.696,262.456 88.07,263.952 89.852,263.952 C91.634,263.952 91.986,262.456 91.986,260.85 Z M119.134,258.452 L113.722,258.452 L113.722,268 L106.066,268 L106.066,258.452 L100.654,258.452 L100.654,253.348 L119.134,253.348 L119.134,258.452 Z M150.11,253.348 L144.918,268 L136.58,268 L134.27,260.63 L131.96,268 L124.458,268 L119.332,253.348 L127.538,253.348 L129.628,260.894 L131.74,253.348 L139.154,253.348 L141.376,260.982 L143.598,253.348 L150.11,253.348 Z M158.426,268 L150.77,268 L150.77,253.348 L158.426,253.348 L158.426,268 Z M179.502,268 L172.946,268 L167.82,262.918 L167.27,262.28 L167.27,268 L160.406,268 L160.406,253.348 L166.61,253.348 L172.11,258.474 L172.616,259.024 L172.616,253.348 L179.502,253.348 L179.502,268 Z M199.346,263.116 C199.346,266.416 196.376,268.55 189.776,268.55 C186.256,268.55 182.516,267.648 180.404,266.394 L182.472,262.852 C185.288,264.018 188.016,264.48 189.864,264.48 C191.14,264.48 191.91,264.238 191.91,263.842 C191.91,262.434 181.02,263.49 181.02,257.902 C181.02,255.108 184.1,252.798 190.106,252.798 C194.242,252.798 197.586,253.81 199.148,254.668 L196.926,258.034 C194.484,257.286 192.196,256.868 190.634,256.868 C189.578,256.868 188.918,257.066 188.918,257.484 C188.918,259.046 199.346,257.726 199.346,263.116 Z" id="astrotwins"></path>
            <path d="M21.7964451,225.893 L17.3084451,225.893 L17.3084451,245 L14.1734451,245 L14.1734451,225.893 L9.65244507,225.893 L9.65244507,223.022 L21.7964451,223.022 L21.7964451,225.893 Z M36.3687612,239.192 C36.3687612,242.789 34.3887612,245.495 30.2307612,245.495 C26.1057612,245.495 24.0927612,242.789 24.0927612,239.192 L24.0927612,228.83 C24.0927612,225.266 26.1057612,222.56 30.2307612,222.56 C34.3887612,222.56 36.3687612,225.266 36.3687612,228.83 L36.3687612,239.192 Z M33.2667612,239.456 L33.2667612,228.566 C33.2667612,226.685 32.2767612,225.332 30.2307612,225.332 C28.1847612,225.332 27.2277612,226.685 27.2277612,228.566 L27.2277612,239.456 C27.2277612,241.337 28.1847612,242.69 30.2307612,242.69 C32.2767612,242.69 33.2667612,241.337 33.2667612,239.456 Z M50.8090774,225.893 L46.3210774,225.893 L46.3210774,245 L43.1860774,245 L43.1860774,225.893 L38.6650774,225.893 L38.6650774,223.022 L50.8090774,223.022 L50.8090774,225.893 Z M65.1173935,245 L61.9493935,245 L60.7943935,239.621 L56.0423935,239.621 L54.8873935,245 L51.8513935,245 L56.8343935,223.022 L60.1343935,223.022 L65.1173935,245 Z M60.2333935,236.948 L58.4183935,227.939 L56.6033935,236.948 L60.2333935,236.948 Z M77.6107096,245 L67.5457096,245 L67.5457096,223.022 L70.6477096,223.022 L70.6477096,242.162 L77.6107096,242.162 L77.6107096,245 Z M96.1623419,225.827 L89.1663419,225.827 L89.1663419,232.592 L94.5453419,232.592 L94.5453419,235.331 L89.1663419,235.331 L89.1663419,245 L86.0313419,245 L86.0313419,222.989 L96.1623419,222.989 L96.1623419,225.827 Z M111.394658,245.231 L110.701658,245.231 C108.226658,245.231 107.368658,244.538 107.368658,242.261 L107.368658,237.971 C107.368658,236.453 106.675658,235.43 105.091658,235.43 L101.989658,235.43 L101.989658,245 L98.8546581,245 L98.8546581,223.022 L105.223658,223.022 C108.787658,223.022 110.371658,224.804 110.371658,227.939 L110.371658,230.348 C110.371658,232.493 109.645658,233.78 107.533658,234.209 C109.612658,234.539 110.470658,236.288 110.470658,238.037 L110.470658,242.03 C110.470658,242.624 110.734658,242.888 111.394658,242.888 L111.394658,245.231 Z M107.236658,230.546 L107.236658,227.873 C107.236658,226.619 106.708658,225.728 105.223658,225.728 L101.989658,225.728 L101.989658,233.054 L104.893658,233.054 C106.411658,233.054 107.236658,232.196 107.236658,230.546 Z M124.349974,245 L114.119974,245 L114.119974,223.022 L124.349974,223.022 L124.349974,225.86 L117.221974,225.86 L117.221974,232.13 L122.369974,232.13 L122.369974,234.836 L117.221974,234.836 L117.221974,242.162 L124.349974,242.162 L124.349974,245 Z M137.70129,245 L127.47129,245 L127.47129,223.022 L137.70129,223.022 L137.70129,225.86 L130.57329,225.86 L130.57329,232.13 L135.72129,232.13 L135.72129,234.836 L130.57329,234.836 L130.57329,242.162 L137.70129,242.162 L137.70129,245 Z M152.900606,239.06 C152.900606,242.459 151.118606,245 147.026606,245 L140.822606,245 L140.822606,223.022 L147.026606,223.022 C151.118606,223.022 152.900606,225.563 152.900606,228.962 L152.900606,239.06 Z M149.798606,238.928 L149.798606,229.127 C149.798606,227.048 148.874606,225.893 146.828606,225.893 L143.957606,225.893 L143.957606,242.129 L146.828606,242.129 C148.874606,242.129 149.798606,240.974 149.798606,238.928 Z M168.528923,239.192 C168.528923,242.789 166.548923,245.495 162.390923,245.495 C158.265923,245.495 156.252923,242.789 156.252923,239.192 L156.252923,228.83 C156.252923,225.266 158.265923,222.56 162.390923,222.56 C166.548923,222.56 168.528923,225.266 168.528923,228.83 L168.528923,239.192 Z M165.426923,239.456 L165.426923,228.566 C165.426923,226.685 164.436923,225.332 162.390923,225.332 C160.344923,225.332 159.387923,226.685 159.387923,228.566 L159.387923,239.456 C159.387923,241.337 160.344923,242.69 162.390923,242.69 C164.436923,242.69 165.426923,241.337 165.426923,239.456 Z M188.612239,245 L185.774239,245 L185.774239,227.873 L184.883239,232.064 L181.880239,245 L178.811239,245 L175.874239,232.064 L174.950239,227.873 L174.950239,245 L172.178239,245 L172.178239,223.022 L176.534239,223.022 L179.537239,236.75 L180.428239,240.941 L181.319239,236.717 L184.256239,223.022 L188.612239,223.022 L188.612239,245 Z" id="total-freedom"></path>
            <path d="M85.1,207.784 C85.1,211.722 81.668,215 75.156,215 L65.74,215 L65.74,200.348 L75.156,200.348 C81.668,200.348 85.1,203.56 85.1,207.52 L85.1,207.784 Z M77.312,207.828 L77.312,207.476 C77.312,206.002 76.586,204.77 74.606,204.77 L73.396,204.77 L73.396,210.534 L74.606,210.534 C76.586,210.534 77.312,209.302 77.312,207.828 Z M105.912,215 L97.97,215 L97.112,212.448 L92.646,212.448 L91.656,215 L84.968,215 L91.436,200.348 L99.312,200.348 L105.912,215 Z M96.012,209.104 L95.066,206.354 L93.988,209.104 L96.012,209.104 Z M114.074,215 L106.418,215 L106.418,200.348 L114.074,200.348 L114.074,215 Z M135.15,215 L128.594,215 L123.468,209.918 L122.918,209.28 L122.918,215 L116.054,215 L116.054,200.348 L122.258,200.348 L127.758,205.474 L128.264,206.024 L128.264,200.348 L135.15,200.348 L135.15,215 Z" id="dain"></path>
            <path d="M39.2942612,187.083 C39.2942612,190.218 37.7102612,192 34.1462612,192 L27.6122612,192 L27.6122612,170.022 L33.9812612,170.022 C37.5452612,170.022 39.0632612,171.804 39.0632612,174.939 L39.0632612,176.721 C39.0632612,178.998 38.1392612,180.285 36.2582612,180.681 C38.4032612,181.11 39.2942612,182.595 39.2942612,184.74 L39.2942612,187.083 Z M35.9942612,177.183 L35.9942612,174.873 C35.9942612,173.619 35.4992612,172.728 34.0142612,172.728 L30.7472612,172.728 L30.7472612,179.658 L33.6512612,179.658 C35.2022612,179.658 35.9942612,178.8 35.9942612,177.183 Z M36.1592612,187.182 L36.1592612,184.608 C36.1592612,182.991 35.3342612,182.133 33.8162612,182.133 L30.7472612,182.133 L30.7472612,189.294 L34.1462612,189.294 C35.6312612,189.294 36.1592612,188.403 36.1592612,187.182 Z M55.1205774,192 L51.7215774,192 L47.5635774,182.199 L45.8145774,185.202 L45.8145774,192 L42.7125774,192 L42.7125774,170.022 L45.8145774,170.022 L45.8145774,180.714 L51.7875774,170.022 L55.1205774,170.022 L49.5765774,179.46 L55.1205774,192 Z M74.7942096,186.522 C74.7942096,190.152 72.2202096,192.495 68.7552096,192.495 C65.1252096,192.495 62.7162096,190.119 62.7162096,186.918 L62.7162096,185.4 L65.8182096,185.4 L65.8182096,186.423 C65.8182096,188.667 66.8412096,189.822 68.7882096,189.822 C70.7022096,189.822 71.6922096,188.667 71.6922096,186.984 C71.6922096,185.037 70.8342096,183.816 68.0622096,182.067 C65.5872096,180.483 62.9802096,178.338 62.9802096,175.17 C62.9802096,172.035 65.0592096,169.56 68.7882096,169.56 C72.3522096,169.56 74.6292096,171.903 74.6292096,175.137 L74.6292096,176.556 L71.6592096,176.556 L71.6592096,175.533 C71.6592096,173.685 70.7682096,172.233 68.6892096,172.233 C66.9732096,172.233 66.0822096,173.256 66.0822096,174.741 C66.0822096,176.688 66.9732096,177.711 70.1412096,179.757 C73.3422096,181.836 74.7942096,183.684 74.7942096,186.522 Z M88.7725258,172.893 L84.2845258,172.893 L84.2845258,192 L81.1495258,192 L81.1495258,172.893 L76.6285258,172.893 L76.6285258,170.022 L88.7725258,170.022 L88.7725258,172.893 Z M101.595842,192 L91.3658419,192 L91.3658419,170.022 L101.595842,170.022 L101.595842,172.86 L94.4678419,172.86 L94.4678419,179.13 L99.6158419,179.13 L99.6158419,181.836 L94.4678419,181.836 L94.4678419,189.162 L101.595842,189.162 L101.595842,192 Z M116.234158,178.14 C116.234158,181.242 114.650158,183.189 111.086158,183.189 L107.819158,183.189 L107.819158,192 L104.717158,192 L104.717158,170.022 L111.086158,170.022 C114.650158,170.022 116.234158,171.936 116.234158,175.104 L116.234158,178.14 Z M113.099158,178.239 L113.099158,175.005 C113.099158,173.553 112.571158,172.728 111.119158,172.728 L107.819158,172.728 L107.819158,180.516 L111.119158,180.516 C112.571158,180.516 113.099158,179.658 113.099158,178.239 Z M130.806474,178.14 C130.806474,181.242 129.222474,183.189 125.658474,183.189 L122.391474,183.189 L122.391474,192 L119.289474,192 L119.289474,170.022 L125.658474,170.022 C129.222474,170.022 130.806474,171.936 130.806474,175.104 L130.806474,178.14 Z M127.671474,178.239 L127.671474,175.005 C127.671474,173.553 127.143474,172.728 125.691474,172.728 L122.391474,172.728 L122.391474,180.516 L125.691474,180.516 C127.143474,180.516 127.671474,179.658 127.671474,178.239 Z M144.09179,192 L133.86179,192 L133.86179,170.022 L144.09179,170.022 L144.09179,172.86 L136.96379,172.86 L136.96379,179.13 L142.11179,179.13 L142.11179,181.836 L136.96379,181.836 L136.96379,189.162 L144.09179,189.162 L144.09179,192 Z M159.753106,192.231 L159.060106,192.231 C156.585106,192.231 155.727106,191.538 155.727106,189.261 L155.727106,184.971 C155.727106,183.453 155.034106,182.43 153.450106,182.43 L150.348106,182.43 L150.348106,192 L147.213106,192 L147.213106,170.022 L153.582106,170.022 C157.146106,170.022 158.730106,171.804 158.730106,174.939 L158.730106,177.348 C158.730106,179.493 158.004106,180.78 155.892106,181.209 C157.971106,181.539 158.829106,183.288 158.829106,185.037 L158.829106,189.03 C158.829106,189.624 159.093106,189.888 159.753106,189.888 L159.753106,192.231 Z M155.595106,177.546 L155.595106,174.873 C155.595106,173.619 155.067106,172.728 153.582106,172.728 L150.348106,172.728 L150.348106,180.054 L153.252106,180.054 C154.770106,180.054 155.595106,179.196 155.595106,177.546 Z M173.764423,186.522 C173.764423,190.152 171.190423,192.495 167.725423,192.495 C164.095423,192.495 161.686423,190.119 161.686423,186.918 L161.686423,185.4 L164.788423,185.4 L164.788423,186.423 C164.788423,188.667 165.811423,189.822 167.758423,189.822 C169.672423,189.822 170.662423,188.667 170.662423,186.984 C170.662423,185.037 169.804423,183.816 167.032423,182.067 C164.557423,180.483 161.950423,178.338 161.950423,175.17 C161.950423,172.035 164.029423,169.56 167.758423,169.56 C171.322423,169.56 173.599423,171.903 173.599423,175.137 L173.599423,176.556 L170.629423,176.556 L170.629423,175.533 C170.629423,173.685 169.738423,172.233 167.659423,172.233 C165.943423,172.233 165.052423,173.256 165.052423,174.741 C165.052423,176.688 165.943423,177.711 169.111423,179.757 C172.312423,181.836 173.764423,183.684 173.764423,186.522 Z" id="bk-steppers"></path>
            <path d="M80.926,147.348 L73.534,162 L66.23,162 L59.036,147.348 L67.352,147.348 L70.564,155.202 L73.908,147.348 L80.926,147.348 Z M100.506,162 L92.828,162 L92.828,156.918 L88.956,156.918 L88.956,162 L81.3,162 L81.3,147.348 L88.956,147.348 L88.956,152.848 L92.828,152.848 L92.828,147.348 L100.506,147.348 L100.506,162 Z M122.814,147.348 L115.422,162 L108.118,162 L100.924,147.348 L109.24,147.348 L112.452,155.202 L115.796,147.348 L122.814,147.348 Z M140.084,162 L123.188,162 L123.188,147.348 L130.844,147.348 L130.844,156.918 L140.084,156.918 L140.084,162 Z" id="vhvl"></path>
            <path d="M28.3451031,119.893 L23.8571031,119.893 L23.8571031,139 L20.7221031,139 L20.7221031,119.893 L16.2011031,119.893 L16.2011031,117.022 L28.3451031,117.022 L28.3451031,119.893 Z M43.4124193,139 L40.3104193,139 L40.3104193,129.364 L34.0734193,129.364 L34.0734193,139 L30.9384193,139 L30.9384193,117.022 L34.0734193,117.022 L34.0734193,126.559 L40.3104193,126.559 L40.3104193,117.022 L43.4124193,117.022 L43.4124193,139 Z M59.3377354,133.192 C59.3377354,136.789 57.3577354,139.495 53.1997354,139.495 C49.0747354,139.495 47.0617354,136.789 47.0617354,133.192 L47.0617354,122.83 C47.0617354,119.266 49.0747354,116.56 53.1997354,116.56 C57.3577354,116.56 59.3377354,119.266 59.3377354,122.83 L59.3377354,133.192 Z M56.2357354,133.456 L56.2357354,122.566 C56.2357354,120.685 55.2457354,119.332 53.1997354,119.332 C51.1537354,119.332 50.1967354,120.685 50.1967354,122.566 L50.1967354,133.456 C50.1967354,135.337 51.1537354,136.69 53.1997354,136.69 C55.2457354,136.69 56.2357354,135.337 56.2357354,133.456 Z M79.4210516,139 L76.5830516,139 L76.5830516,121.873 L75.6920516,126.064 L72.6890516,139 L69.6200516,139 L66.6830516,126.064 L65.7590516,121.873 L65.7590516,139 L62.9870516,139 L62.9870516,117.022 L67.3430516,117.022 L70.3460516,130.75 L71.2370516,134.941 L72.1280516,130.717 L75.0650516,117.022 L79.4210516,117.022 L79.4210516,139 Z M95.0823677,139 L91.9143677,139 L90.7593677,133.621 L86.0073677,133.621 L84.8523677,139 L81.8163677,139 L86.7993677,117.022 L90.0993677,117.022 L95.0823677,139 Z M90.1983677,130.948 L88.3833677,121.939 L86.5683677,130.948 L90.1983677,130.948 Z M108.796684,133.522 C108.796684,137.152 106.222684,139.495 102.757684,139.495 C99.1276839,139.495 96.7186839,137.119 96.7186839,133.918 L96.7186839,132.4 L99.8206839,132.4 L99.8206839,133.423 C99.8206839,135.667 100.843684,136.822 102.790684,136.822 C104.704684,136.822 105.694684,135.667 105.694684,133.984 C105.694684,132.037 104.836684,130.816 102.064684,129.067 C99.5896839,127.483 96.9826839,125.338 96.9826839,122.17 C96.9826839,119.035 99.0616839,116.56 102.790684,116.56 C106.354684,116.56 108.631684,118.903 108.631684,122.137 L108.631684,123.556 L105.661684,123.556 L105.661684,122.533 C105.661684,120.685 104.770684,119.233 102.691684,119.233 C100.975684,119.233 100.084684,120.256 100.084684,121.741 C100.084684,123.688 100.975684,124.711 104.143684,126.757 C107.344684,128.836 108.796684,130.684 108.796684,133.522 Z M129.493316,139 L126.325316,139 L125.170316,133.621 L120.418316,133.621 L119.263316,139 L116.227316,139 L121.210316,117.022 L124.510316,117.022 L129.493316,139 Z M124.609316,130.948 L122.794316,121.939 L120.979316,130.948 L124.609316,130.948 Z M141.986632,139 L131.921632,139 L131.921632,117.022 L135.023632,117.022 L135.023632,136.162 L141.986632,136.162 L141.986632,139 Z M154.677948,139 L144.612948,139 L144.612948,117.022 L147.714948,117.022 L147.714948,136.162 L154.677948,136.162 L154.677948,139 Z M167.534265,139 L157.304265,139 L157.304265,117.022 L167.534265,117.022 L167.534265,119.86 L160.406265,119.86 L160.406265,126.13 L165.554265,126.13 L165.554265,128.836 L160.406265,128.836 L160.406265,136.162 L167.534265,136.162 L167.534265,139 Z M183.096581,139 L180.885581,139 L175.440581,128.308 L173.592581,124.447 L173.592581,139 L170.622581,139 L170.622581,117.022 L173.163581,117.022 L178.377581,127.912 L180.126581,131.773 L180.126581,117.022 L183.096581,117.022 L183.096581,139 Z" id="thomas-allen"></path>
            <path d="M95.803,109 L91.491,109 L91.205,107.68 C89.841,108.912 87.883,109.55 85.859,109.55 C80.733,109.55 76.531,106.536 76.531,101.872 L76.531,101.608 C76.531,97.01 80.931,93.798 86.805,93.798 C90.457,93.798 93.207,94.48 95.451,95.58 L93.141,99.848 C91.491,99.1 90.017,98.682 88.301,98.682 C85.881,98.682 84.341,100.046 84.341,101.938 L84.341,102.07 C84.341,103.764 85.595,104.952 87.597,104.952 C88.741,104.952 89.665,104.468 90.149,103.742 L90.149,103.654 L86.673,103.654 L86.673,101.058 L95.803,101.058 L95.803,109 Z M104.845,109 L97.189,109 L97.189,94.348 L104.845,94.348 L104.845,109 Z M124.447,96.064 L116.967,103.61 L124.491,103.61 L124.491,109 L106.099,109 L106.099,107.284 L113.997,99.276 L106.429,99.276 L106.429,94.348 L124.447,94.348 L124.447,96.064 Z" id="giz"></path>
            <path d="M20.0639451,66.893 L15.5759451,66.893 L15.5759451,86 L12.4409451,86 L12.4409451,66.893 L7.91994507,66.893 L7.91994507,64.022 L20.0639451,64.022 L20.0639451,66.893 Z M35.1312612,86 L32.0292612,86 L32.0292612,76.364 L25.7922612,76.364 L25.7922612,86 L22.6572612,86 L22.6572612,64.022 L25.7922612,64.022 L25.7922612,73.559 L32.0292612,73.559 L32.0292612,64.022 L35.1312612,64.022 L35.1312612,86 Z M49.3075774,86 L39.0775774,86 L39.0775774,64.022 L49.3075774,64.022 L49.3075774,66.86 L42.1795774,66.86 L42.1795774,73.13 L47.3275774,73.13 L47.3275774,75.836 L42.1795774,75.836 L42.1795774,83.162 L49.3075774,83.162 L49.3075774,86 Z M70.6972096,86 L67.5952096,86 L67.5952096,76.364 L61.3582096,76.364 L61.3582096,86 L58.2232096,86 L58.2232096,64.022 L61.3582096,64.022 L61.3582096,73.559 L67.5952096,73.559 L67.5952096,64.022 L70.6972096,64.022 L70.6972096,86 Z M86.6225258,80.192 C86.6225258,83.789 84.6425258,86.495 80.4845258,86.495 C76.3595258,86.495 74.3465258,83.789 74.3465258,80.192 L74.3465258,69.83 C74.3465258,66.266 76.3595258,63.56 80.4845258,63.56 C84.6425258,63.56 86.6225258,66.266 86.6225258,69.83 L86.6225258,80.192 Z M83.5205258,80.456 L83.5205258,69.566 C83.5205258,67.685 82.5305258,66.332 80.4845258,66.332 C78.4385258,66.332 77.4815258,67.685 77.4815258,69.566 L77.4815258,80.456 C77.4815258,82.337 78.4385258,83.69 80.4845258,83.69 C82.5305258,83.69 83.5205258,82.337 83.5205258,80.456 Z M102.250842,80.192 C102.250842,83.789 100.270842,86.495 96.1128419,86.495 C91.9878419,86.495 89.9748419,83.789 89.9748419,80.192 L89.9748419,69.83 C89.9748419,66.266 91.9878419,63.56 96.1128419,63.56 C100.270842,63.56 102.250842,66.266 102.250842,69.83 L102.250842,80.192 Z M99.1488419,80.456 L99.1488419,69.566 C99.1488419,67.685 98.1588419,66.332 96.1128419,66.332 C94.0668419,66.332 93.1098419,67.685 93.1098419,69.566 L93.1098419,80.456 C93.1098419,82.337 94.0668419,83.69 96.1128419,83.69 C98.1588419,83.69 99.1488419,82.337 99.1488419,80.456 Z M117.978158,80.06 C117.978158,83.459 116.196158,86 112.104158,86 L105.900158,86 L105.900158,64.022 L112.104158,64.022 C116.196158,64.022 117.978158,66.563 117.978158,69.962 L117.978158,80.06 Z M114.876158,79.928 L114.876158,70.127 C114.876158,68.048 113.952158,66.893 111.906158,66.893 L109.035158,66.893 L109.035158,83.129 L111.906158,83.129 C113.952158,83.129 114.876158,81.974 114.876158,79.928 Z M139.975474,64.022 L135.916474,86 L132.880474,86 L130.108474,70.853 L127.138474,86 L124.102474,86 L120.241474,64.022 L123.409474,64.022 L125.719474,80.258 L128.821474,64.022 L131.659474,64.022 L134.497474,80.258 L136.906474,64.022 L139.975474,64.022 Z M145.53879,86 L142.40379,86 L142.40379,64.022 L145.53879,64.022 L145.53879,86 Z M160.243106,66.893 L155.755106,66.893 L155.755106,86 L152.620106,86 L152.620106,66.893 L148.099106,66.893 L148.099106,64.022 L160.243106,64.022 L160.243106,66.893 Z M174.650423,80.687 C174.650423,83.888 172.835423,86.495 168.677423,86.495 C164.519423,86.495 162.539423,83.624 162.539423,80.39 L162.539423,69.632 C162.539423,66.398 164.519423,63.56 168.677423,63.56 C172.835423,63.56 174.650423,66.134 174.650423,69.335 L174.650423,71.711 L171.845423,71.711 L171.845423,69.401 C171.845423,67.553 170.822423,66.332 168.776423,66.332 C166.697423,66.332 165.674423,67.586 165.674423,69.269 L165.674423,80.753 C165.674423,82.436 166.697423,83.69 168.776423,83.69 C170.822423,83.69 171.845423,82.502 171.845423,80.621 L171.845423,78.311 L174.650423,78.311 L174.650423,80.687 Z M190.344739,86 L187.242739,86 L187.242739,76.364 L181.005739,76.364 L181.005739,86 L177.870739,86 L177.870739,64.022 L181.005739,64.022 L181.005739,73.559 L187.242739,73.559 L187.242739,64.022 L190.344739,64.022 L190.344739,86 Z" id="the-hoodwitch"></path>
            <path d="M58.381,41.348 L50.989,56 L43.685,56 L36.491,41.348 L44.807,41.348 L48.019,49.202 L51.363,41.348 L58.381,41.348 Z M75.541,56 L58.755,56 L58.755,41.348 L75.541,41.348 L75.541,46.034 L66.411,46.034 L66.411,47.42 L72.131,47.42 L72.131,49.664 L66.411,49.664 L66.411,50.918 L75.541,50.918 L75.541,56 Z M96.199,56 L89.643,56 L84.517,50.918 L83.967,50.28 L83.967,56 L77.103,56 L77.103,41.348 L83.307,41.348 L88.807,46.474 L89.313,47.024 L89.313,41.348 L96.199,41.348 L96.199,56 Z M117.231,49.708 C117.231,53.536 114.635,56.55 107.705,56.55 C100.797,56.55 98.069,53.536 98.069,49.708 L98.069,41.348 L105.725,41.348 L105.725,49.158 C105.725,50.984 106.275,51.776 108.101,51.776 C109.927,51.776 110.433,50.984 110.433,49.158 L110.433,41.348 L117.231,41.348 L117.231,49.708 Z M136.965,51.116 C136.965,54.416 133.995,56.55 127.395,56.55 C123.875,56.55 120.135,55.648 118.023,54.394 L120.091,50.852 C122.907,52.018 125.635,52.48 127.483,52.48 C128.759,52.48 129.529,52.238 129.529,51.842 C129.529,50.434 118.639,51.49 118.639,45.902 C118.639,43.108 121.719,40.798 127.725,40.798 C131.861,40.798 135.205,41.81 136.767,42.668 L134.545,46.034 C132.103,45.286 129.815,44.868 128.253,44.868 C127.197,44.868 126.537,45.066 126.537,45.484 C126.537,47.046 136.965,45.726 136.965,51.116 Z M163.871,56 L155.467,56 L153.179,52.898 L150.847,56 L142.971,56 L148.867,48.74 L142.971,41.348 L151.331,41.348 L153.707,44.67 L156.017,41.348 L163.871,41.348 L157.997,48.762 L163.871,56 Z" id="venus-x"></path>
            <path d="M89.52,2.38 L85.28,2.38 L85.28,6.48 L88.54,6.48 L88.54,8.14 L85.28,8.14 L85.28,14 L83.38,14 L83.38,0.66 L89.52,0.66 L89.52,2.38 Z M97.12,14 L90.92,14 L90.92,0.68 L97.12,0.68 L97.12,2.4 L92.8,2.4 L92.8,6.2 L95.92,6.2 L95.92,7.84 L92.8,7.84 L92.8,12.28 L97.12,12.28 L97.12,14 Z M105.88,14 L103.96,14 L103.26,10.74 L100.38,10.74 L99.68,14 L97.84,14 L100.86,0.68 L102.86,0.68 L105.88,14 Z M102.92,9.12 L101.82,3.66 L100.72,9.12 L102.92,9.12 Z M113.66,2.42 L110.94,2.42 L110.94,14 L109.04,14 L109.04,2.42 L106.3,2.42 L106.3,0.68 L113.66,0.68 L113.66,2.42 Z M116.64,14 L115,14 L115,11.74 L116.64,11.74 L116.64,14 Z" id="FEAT."></path>
        </g>
    </g>
</svg>