<?xml version="1.0" encoding="UTF-8"?>
<svg width="199px" height="246px" viewBox="0 0 199 246" version="1.1" xmlns="http://www.w3.org/2000/svg" xmlns:xlink="http://www.w3.org/1999/xlink">
    <!-- Generator: Sketch 49.3 (51167) - http://www.bohemiancoding.com/sketch -->
    <title>Featured artists</title>
    <desc>Created with Sketch.</desc>
    <defs></defs>
    <g id="03" stroke="none" stroke-width="1" fill="none" fill-rule="evenodd">
        <g id="Featured-artists" fill="#FFFFFF">
            <path d="M20.944,56.202 L13.002,56.202 L12.144,53.65 L7.678,53.65 L6.688,56.202 L0,56.202 L6.468,41.55 L14.344,41.55 L20.944,56.202 Z M11.044,50.306 L10.098,47.556 L9.02,50.306 L11.044,50.306 Z M39.314,51.318 C39.314,54.618 36.344,56.752 29.744,56.752 C26.224,56.752 22.484,55.85 20.372,54.596 L22.44,51.054 C25.256,52.22 27.984,52.682 29.832,52.682 C31.108,52.682 31.878,52.44 31.878,52.044 C31.878,50.636 20.988,51.692 20.988,46.104 C20.988,43.31 24.068,41 30.074,41 C34.21,41 37.554,42.012 39.116,42.87 L36.894,46.236 C34.452,45.488 32.164,45.07 30.602,45.07 C29.546,45.07 28.886,45.268 28.886,45.686 C28.886,47.248 39.314,45.928 39.314,51.318 Z M58.52,46.654 L53.108,46.654 L53.108,56.202 L45.452,56.202 L45.452,46.654 L40.04,46.654 L40.04,41.55 L58.52,41.55 L58.52,46.654 Z M78.628,56.202 L71.94,56.202 C71.06,56.202 70.18,55.234 70.18,53.936 L70.18,52.594 C70.18,51.56 69.96,51.032 68.838,51.032 L67.562,51.032 L67.562,56.202 L59.928,56.202 L59.928,41.55 L71.698,41.55 C75.68,41.55 78.078,43.288 78.078,45.642 L78.078,45.84 C78.078,47.248 76.736,48.7 74.58,49.118 C77.132,49.36 77.836,50.856 77.836,52.55 L77.836,53.76 C77.836,54.684 78.056,55.366 78.628,55.982 L78.628,56.202 Z M70.334,47.094 L70.334,47.028 C70.334,46.258 69.916,45.972 68.772,45.972 L67.562,45.972 L67.562,48.304 L68.772,48.304 C69.916,48.304 70.334,47.82 70.334,47.094 Z M99.022,48.986 C99.022,53.232 95.348,56.752 89.078,56.752 C82.786,56.752 79.112,53.232 79.112,48.986 L79.112,48.722 C79.112,44.454 82.786,41 89.078,41 C95.348,41 99.022,44.454 99.022,48.722 L99.022,48.986 Z M91.212,49.052 L91.212,48.678 C91.212,47.05 90.86,45.554 89.078,45.554 C87.296,45.554 86.922,47.05 86.922,48.678 L86.922,49.052 C86.922,50.658 87.296,52.154 89.078,52.154 C90.86,52.154 91.212,50.658 91.212,49.052 Z M118.36,46.654 L112.948,46.654 L112.948,56.202 L105.292,56.202 L105.292,46.654 L99.88,46.654 L99.88,41.55 L118.36,41.55 L118.36,46.654 Z M149.336,41.55 L144.144,56.202 L135.806,56.202 L133.496,48.832 L131.186,56.202 L123.684,56.202 L118.558,41.55 L126.764,41.55 L128.854,49.096 L130.966,41.55 L138.38,41.55 L140.602,49.184 L142.824,41.55 L149.336,41.55 Z M157.652,56.202 L149.996,56.202 L149.996,41.55 L157.652,41.55 L157.652,56.202 Z M178.728,56.202 L172.172,56.202 L167.046,51.12 L166.496,50.482 L166.496,56.202 L159.632,56.202 L159.632,41.55 L165.836,41.55 L171.336,46.676 L171.842,47.226 L171.842,41.55 L178.728,41.55 L178.728,56.202 Z M198.572,51.318 C198.572,54.618 195.602,56.752 189.002,56.752 C185.482,56.752 181.742,55.85 179.63,54.596 L181.698,51.054 C184.514,52.22 187.242,52.682 189.09,52.682 C190.366,52.682 191.136,52.44 191.136,52.044 C191.136,50.636 180.246,51.692 180.246,46.104 C180.246,43.31 183.326,41 189.332,41 C193.468,41 196.812,42.012 198.374,42.87 L196.152,46.236 C193.71,45.488 191.422,45.07 189.86,45.07 C188.804,45.07 188.144,45.268 188.144,45.686 C188.144,47.248 198.572,45.928 198.572,51.318 Z" id="astrotwins"></path>
            <path d="M20.7964451,225.893 L16.3084451,225.893 L16.3084451,245 L13.1734451,245 L13.1734451,225.893 L8.65244507,225.893 L8.65244507,223.022 L20.7964451,223.022 L20.7964451,225.893 Z M35.3687612,239.192 C35.3687612,242.789 33.3887612,245.495 29.2307612,245.495 C25.1057612,245.495 23.0927612,242.789 23.0927612,239.192 L23.0927612,228.83 C23.0927612,225.266 25.1057612,222.56 29.2307612,222.56 C33.3887612,222.56 35.3687612,225.266 35.3687612,228.83 L35.3687612,239.192 Z M32.2667612,239.456 L32.2667612,228.566 C32.2667612,226.685 31.2767612,225.332 29.2307612,225.332 C27.1847612,225.332 26.2277612,226.685 26.2277612,228.566 L26.2277612,239.456 C26.2277612,241.337 27.1847612,242.69 29.2307612,242.69 C31.2767612,242.69 32.2667612,241.337 32.2667612,239.456 Z M49.8090774,225.893 L45.3210774,225.893 L45.3210774,245 L42.1860774,245 L42.1860774,225.893 L37.6650774,225.893 L37.6650774,223.022 L49.8090774,223.022 L49.8090774,225.893 Z M64.1173935,245 L60.9493935,245 L59.7943935,239.621 L55.0423935,239.621 L53.8873935,245 L50.8513935,245 L55.8343935,223.022 L59.1343935,223.022 L64.1173935,245 Z M59.2333935,236.948 L57.4183935,227.939 L55.6033935,236.948 L59.2333935,236.948 Z M76.6107096,245 L66.5457096,245 L66.5457096,223.022 L69.6477096,223.022 L69.6477096,242.162 L76.6107096,242.162 L76.6107096,245 Z M95.1623419,225.827 L88.1663419,225.827 L88.1663419,232.592 L93.5453419,232.592 L93.5453419,235.331 L88.1663419,235.331 L88.1663419,245 L85.0313419,245 L85.0313419,222.989 L95.1623419,222.989 L95.1623419,225.827 Z M110.394658,245.231 L109.701658,245.231 C107.226658,245.231 106.368658,244.538 106.368658,242.261 L106.368658,237.971 C106.368658,236.453 105.675658,235.43 104.091658,235.43 L100.989658,235.43 L100.989658,245 L97.8546581,245 L97.8546581,223.022 L104.223658,223.022 C107.787658,223.022 109.371658,224.804 109.371658,227.939 L109.371658,230.348 C109.371658,232.493 108.645658,233.78 106.533658,234.209 C108.612658,234.539 109.470658,236.288 109.470658,238.037 L109.470658,242.03 C109.470658,242.624 109.734658,242.888 110.394658,242.888 L110.394658,245.231 Z M106.236658,230.546 L106.236658,227.873 C106.236658,226.619 105.708658,225.728 104.223658,225.728 L100.989658,225.728 L100.989658,233.054 L103.893658,233.054 C105.411658,233.054 106.236658,232.196 106.236658,230.546 Z M123.349974,245 L113.119974,245 L113.119974,223.022 L123.349974,223.022 L123.349974,225.86 L116.221974,225.86 L116.221974,232.13 L121.369974,232.13 L121.369974,234.836 L116.221974,234.836 L116.221974,242.162 L123.349974,242.162 L123.349974,245 Z M136.70129,245 L126.47129,245 L126.47129,223.022 L136.70129,223.022 L136.70129,225.86 L129.57329,225.86 L129.57329,232.13 L134.72129,232.13 L134.72129,234.836 L129.57329,234.836 L129.57329,242.162 L136.70129,242.162 L136.70129,245 Z M151.900606,239.06 C151.900606,242.459 150.118606,245 146.026606,245 L139.822606,245 L139.822606,223.022 L146.026606,223.022 C150.118606,223.022 151.900606,225.563 151.900606,228.962 L151.900606,239.06 Z M148.798606,238.928 L148.798606,229.127 C148.798606,227.048 147.874606,225.893 145.828606,225.893 L142.957606,225.893 L142.957606,242.129 L145.828606,242.129 C147.874606,242.129 148.798606,240.974 148.798606,238.928 Z M167.528923,239.192 C167.528923,242.789 165.548923,245.495 161.390923,245.495 C157.265923,245.495 155.252923,242.789 155.252923,239.192 L155.252923,228.83 C155.252923,225.266 157.265923,222.56 161.390923,222.56 C165.548923,222.56 167.528923,225.266 167.528923,228.83 L167.528923,239.192 Z M164.426923,239.456 L164.426923,228.566 C164.426923,226.685 163.436923,225.332 161.390923,225.332 C159.344923,225.332 158.387923,226.685 158.387923,228.566 L158.387923,239.456 C158.387923,241.337 159.344923,242.69 161.390923,242.69 C163.436923,242.69 164.426923,241.337 164.426923,239.456 Z M187.612239,245 L184.774239,245 L184.774239,227.873 L183.883239,232.064 L180.880239,245 L177.811239,245 L174.874239,232.064 L173.950239,227.873 L173.950239,245 L171.178239,245 L171.178239,223.022 L175.534239,223.022 L178.537239,236.75 L179.428239,240.941 L180.319239,236.717 L183.256239,223.022 L187.612239,223.022 L187.612239,245 Z" id="total-freedom"></path>
            <path d="M84.1,207.784 C84.1,211.722 80.668,215 74.156,215 L64.74,215 L64.74,200.348 L74.156,200.348 C80.668,200.348 84.1,203.56 84.1,207.52 L84.1,207.784 Z M76.312,207.828 L76.312,207.476 C76.312,206.002 75.586,204.77 73.606,204.77 L72.396,204.77 L72.396,210.534 L73.606,210.534 C75.586,210.534 76.312,209.302 76.312,207.828 Z M104.912,215 L96.97,215 L96.112,212.448 L91.646,212.448 L90.656,215 L83.968,215 L90.436,200.348 L98.312,200.348 L104.912,215 Z M95.012,209.104 L94.066,206.354 L92.988,209.104 L95.012,209.104 Z M113.074,215 L105.418,215 L105.418,200.348 L113.074,200.348 L113.074,215 Z M134.15,215 L127.594,215 L122.468,209.918 L121.918,209.28 L121.918,215 L115.054,215 L115.054,200.348 L121.258,200.348 L126.758,205.474 L127.264,206.024 L127.264,200.348 L134.15,200.348 L134.15,215 Z" id="dain"></path>
            <path d="M38.2942612,187.083 C38.2942612,190.218 36.7102612,192 33.1462612,192 L26.6122612,192 L26.6122612,170.022 L32.9812612,170.022 C36.5452612,170.022 38.0632612,171.804 38.0632612,174.939 L38.0632612,176.721 C38.0632612,178.998 37.1392612,180.285 35.2582612,180.681 C37.4032612,181.11 38.2942612,182.595 38.2942612,184.74 L38.2942612,187.083 Z M34.9942612,177.183 L34.9942612,174.873 C34.9942612,173.619 34.4992612,172.728 33.0142612,172.728 L29.7472612,172.728 L29.7472612,179.658 L32.6512612,179.658 C34.2022612,179.658 34.9942612,178.8 34.9942612,177.183 Z M35.1592612,187.182 L35.1592612,184.608 C35.1592612,182.991 34.3342612,182.133 32.8162612,182.133 L29.7472612,182.133 L29.7472612,189.294 L33.1462612,189.294 C34.6312612,189.294 35.1592612,188.403 35.1592612,187.182 Z M54.1205774,192 L50.7215774,192 L46.5635774,182.199 L44.8145774,185.202 L44.8145774,192 L41.7125774,192 L41.7125774,170.022 L44.8145774,170.022 L44.8145774,180.714 L50.7875774,170.022 L54.1205774,170.022 L48.5765774,179.46 L54.1205774,192 Z M73.7942096,186.522 C73.7942096,190.152 71.2202096,192.495 67.7552096,192.495 C64.1252096,192.495 61.7162096,190.119 61.7162096,186.918 L61.7162096,185.4 L64.8182096,185.4 L64.8182096,186.423 C64.8182096,188.667 65.8412096,189.822 67.7882096,189.822 C69.7022096,189.822 70.6922096,188.667 70.6922096,186.984 C70.6922096,185.037 69.8342096,183.816 67.0622096,182.067 C64.5872096,180.483 61.9802096,178.338 61.9802096,175.17 C61.9802096,172.035 64.0592096,169.56 67.7882096,169.56 C71.3522096,169.56 73.6292096,171.903 73.6292096,175.137 L73.6292096,176.556 L70.6592096,176.556 L70.6592096,175.533 C70.6592096,173.685 69.7682096,172.233 67.6892096,172.233 C65.9732096,172.233 65.0822096,173.256 65.0822096,174.741 C65.0822096,176.688 65.9732096,177.711 69.1412096,179.757 C72.3422096,181.836 73.7942096,183.684 73.7942096,186.522 Z M87.7725258,172.893 L83.2845258,172.893 L83.2845258,192 L80.1495258,192 L80.1495258,172.893 L75.6285258,172.893 L75.6285258,170.022 L87.7725258,170.022 L87.7725258,172.893 Z M100.595842,192 L90.3658419,192 L90.3658419,170.022 L100.595842,170.022 L100.595842,172.86 L93.4678419,172.86 L93.4678419,179.13 L98.6158419,179.13 L98.6158419,181.836 L93.4678419,181.836 L93.4678419,189.162 L100.595842,189.162 L100.595842,192 Z M115.234158,178.14 C115.234158,181.242 113.650158,183.189 110.086158,183.189 L106.819158,183.189 L106.819158,192 L103.717158,192 L103.717158,170.022 L110.086158,170.022 C113.650158,170.022 115.234158,171.936 115.234158,175.104 L115.234158,178.14 Z M112.099158,178.239 L112.099158,175.005 C112.099158,173.553 111.571158,172.728 110.119158,172.728 L106.819158,172.728 L106.819158,180.516 L110.119158,180.516 C111.571158,180.516 112.099158,179.658 112.099158,178.239 Z M129.806474,178.14 C129.806474,181.242 128.222474,183.189 124.658474,183.189 L121.391474,183.189 L121.391474,192 L118.289474,192 L118.289474,170.022 L124.658474,170.022 C128.222474,170.022 129.806474,171.936 129.806474,175.104 L129.806474,178.14 Z M126.671474,178.239 L126.671474,175.005 C126.671474,173.553 126.143474,172.728 124.691474,172.728 L121.391474,172.728 L121.391474,180.516 L124.691474,180.516 C126.143474,180.516 126.671474,179.658 126.671474,178.239 Z M143.09179,192 L132.86179,192 L132.86179,170.022 L143.09179,170.022 L143.09179,172.86 L135.96379,172.86 L135.96379,179.13 L141.11179,179.13 L141.11179,181.836 L135.96379,181.836 L135.96379,189.162 L143.09179,189.162 L143.09179,192 Z M158.753106,192.231 L158.060106,192.231 C155.585106,192.231 154.727106,191.538 154.727106,189.261 L154.727106,184.971 C154.727106,183.453 154.034106,182.43 152.450106,182.43 L149.348106,182.43 L149.348106,192 L146.213106,192 L146.213106,170.022 L152.582106,170.022 C156.146106,170.022 157.730106,171.804 157.730106,174.939 L157.730106,177.348 C157.730106,179.493 157.004106,180.78 154.892106,181.209 C156.971106,181.539 157.829106,183.288 157.829106,185.037 L157.829106,189.03 C157.829106,189.624 158.093106,189.888 158.753106,189.888 L158.753106,192.231 Z M154.595106,177.546 L154.595106,174.873 C154.595106,173.619 154.067106,172.728 152.582106,172.728 L149.348106,172.728 L149.348106,180.054 L152.252106,180.054 C153.770106,180.054 154.595106,179.196 154.595106,177.546 Z M172.764423,186.522 C172.764423,190.152 170.190423,192.495 166.725423,192.495 C163.095423,192.495 160.686423,190.119 160.686423,186.918 L160.686423,185.4 L163.788423,185.4 L163.788423,186.423 C163.788423,188.667 164.811423,189.822 166.758423,189.822 C168.672423,189.822 169.662423,188.667 169.662423,186.984 C169.662423,185.037 168.804423,183.816 166.032423,182.067 C163.557423,180.483 160.950423,178.338 160.950423,175.17 C160.950423,172.035 163.029423,169.56 166.758423,169.56 C170.322423,169.56 172.599423,171.903 172.599423,175.137 L172.599423,176.556 L169.629423,176.556 L169.629423,175.533 C169.629423,173.685 168.738423,172.233 166.659423,172.233 C164.943423,172.233 164.052423,173.256 164.052423,174.741 C164.052423,176.688 164.943423,177.711 168.111423,179.757 C171.312423,181.836 172.764423,183.684 172.764423,186.522 Z" id="bk-steppers"></path>
            <path d="M79.926,147.348 L72.534,162 L65.23,162 L58.036,147.348 L66.352,147.348 L69.564,155.202 L72.908,147.348 L79.926,147.348 Z M99.506,162 L91.828,162 L91.828,156.918 L87.956,156.918 L87.956,162 L80.3,162 L80.3,147.348 L87.956,147.348 L87.956,152.848 L91.828,152.848 L91.828,147.348 L99.506,147.348 L99.506,162 Z M121.814,147.348 L114.422,162 L107.118,162 L99.924,147.348 L108.24,147.348 L111.452,155.202 L114.796,147.348 L121.814,147.348 Z M139.084,162 L122.188,162 L122.188,147.348 L129.844,147.348 L129.844,156.918 L139.084,156.918 L139.084,162 Z" id="vhvl"></path>
            <path d="M27.3451031,119.893 L22.8571031,119.893 L22.8571031,139 L19.7221031,139 L19.7221031,119.893 L15.2011031,119.893 L15.2011031,117.022 L27.3451031,117.022 L27.3451031,119.893 Z M42.4124193,139 L39.3104193,139 L39.3104193,129.364 L33.0734193,129.364 L33.0734193,139 L29.9384193,139 L29.9384193,117.022 L33.0734193,117.022 L33.0734193,126.559 L39.3104193,126.559 L39.3104193,117.022 L42.4124193,117.022 L42.4124193,139 Z M58.3377354,133.192 C58.3377354,136.789 56.3577354,139.495 52.1997354,139.495 C48.0747354,139.495 46.0617354,136.789 46.0617354,133.192 L46.0617354,122.83 C46.0617354,119.266 48.0747354,116.56 52.1997354,116.56 C56.3577354,116.56 58.3377354,119.266 58.3377354,122.83 L58.3377354,133.192 Z M55.2357354,133.456 L55.2357354,122.566 C55.2357354,120.685 54.2457354,119.332 52.1997354,119.332 C50.1537354,119.332 49.1967354,120.685 49.1967354,122.566 L49.1967354,133.456 C49.1967354,135.337 50.1537354,136.69 52.1997354,136.69 C54.2457354,136.69 55.2357354,135.337 55.2357354,133.456 Z M78.4210516,139 L75.5830516,139 L75.5830516,121.873 L74.6920516,126.064 L71.6890516,139 L68.6200516,139 L65.6830516,126.064 L64.7590516,121.873 L64.7590516,139 L61.9870516,139 L61.9870516,117.022 L66.3430516,117.022 L69.3460516,130.75 L70.2370516,134.941 L71.1280516,130.717 L74.0650516,117.022 L78.4210516,117.022 L78.4210516,139 Z M94.0823677,139 L90.9143677,139 L89.7593677,133.621 L85.0073677,133.621 L83.8523677,139 L80.8163677,139 L85.7993677,117.022 L89.0993677,117.022 L94.0823677,139 Z M89.1983677,130.948 L87.3833677,121.939 L85.5683677,130.948 L89.1983677,130.948 Z M107.796684,133.522 C107.796684,137.152 105.222684,139.495 101.757684,139.495 C98.1276839,139.495 95.7186839,137.119 95.7186839,133.918 L95.7186839,132.4 L98.8206839,132.4 L98.8206839,133.423 C98.8206839,135.667 99.8436839,136.822 101.790684,136.822 C103.704684,136.822 104.694684,135.667 104.694684,133.984 C104.694684,132.037 103.836684,130.816 101.064684,129.067 C98.5896839,127.483 95.9826839,125.338 95.9826839,122.17 C95.9826839,119.035 98.0616839,116.56 101.790684,116.56 C105.354684,116.56 107.631684,118.903 107.631684,122.137 L107.631684,123.556 L104.661684,123.556 L104.661684,122.533 C104.661684,120.685 103.770684,119.233 101.691684,119.233 C99.9756839,119.233 99.0846839,120.256 99.0846839,121.741 C99.0846839,123.688 99.9756839,124.711 103.143684,126.757 C106.344684,128.836 107.796684,130.684 107.796684,133.522 Z M128.493316,139 L125.325316,139 L124.170316,133.621 L119.418316,133.621 L118.263316,139 L115.227316,139 L120.210316,117.022 L123.510316,117.022 L128.493316,139 Z M123.609316,130.948 L121.794316,121.939 L119.979316,130.948 L123.609316,130.948 Z M140.986632,139 L130.921632,139 L130.921632,117.022 L134.023632,117.022 L134.023632,136.162 L140.986632,136.162 L140.986632,139 Z M153.677948,139 L143.612948,139 L143.612948,117.022 L146.714948,117.022 L146.714948,136.162 L153.677948,136.162 L153.677948,139 Z M166.534265,139 L156.304265,139 L156.304265,117.022 L166.534265,117.022 L166.534265,119.86 L159.406265,119.86 L159.406265,126.13 L164.554265,126.13 L164.554265,128.836 L159.406265,128.836 L159.406265,136.162 L166.534265,136.162 L166.534265,139 Z M182.096581,139 L179.885581,139 L174.440581,128.308 L172.592581,124.447 L172.592581,139 L169.622581,139 L169.622581,117.022 L172.163581,117.022 L177.377581,127.912 L179.126581,131.773 L179.126581,117.022 L182.096581,117.022 L182.096581,139 Z" id="thomas-allen"></path>
            <path d="M94.803,109 L90.491,109 L90.205,107.68 C88.841,108.912 86.883,109.55 84.859,109.55 C79.733,109.55 75.531,106.536 75.531,101.872 L75.531,101.608 C75.531,97.01 79.931,93.798 85.805,93.798 C89.457,93.798 92.207,94.48 94.451,95.58 L92.141,99.848 C90.491,99.1 89.017,98.682 87.301,98.682 C84.881,98.682 83.341,100.046 83.341,101.938 L83.341,102.07 C83.341,103.764 84.595,104.952 86.597,104.952 C87.741,104.952 88.665,104.468 89.149,103.742 L89.149,103.654 L85.673,103.654 L85.673,101.058 L94.803,101.058 L94.803,109 Z M103.845,109 L96.189,109 L96.189,94.348 L103.845,94.348 L103.845,109 Z M123.447,96.064 L115.967,103.61 L123.491,103.61 L123.491,109 L105.099,109 L105.099,107.284 L112.997,99.276 L105.429,99.276 L105.429,94.348 L123.447,94.348 L123.447,96.064 Z" id="giz"></path>
            <path d="M19.0639451,66.893 L14.5759451,66.893 L14.5759451,86 L11.4409451,86 L11.4409451,66.893 L6.91994507,66.893 L6.91994507,64.022 L19.0639451,64.022 L19.0639451,66.893 Z M34.1312612,86 L31.0292612,86 L31.0292612,76.364 L24.7922612,76.364 L24.7922612,86 L21.6572612,86 L21.6572612,64.022 L24.7922612,64.022 L24.7922612,73.559 L31.0292612,73.559 L31.0292612,64.022 L34.1312612,64.022 L34.1312612,86 Z M48.3075774,86 L38.0775774,86 L38.0775774,64.022 L48.3075774,64.022 L48.3075774,66.86 L41.1795774,66.86 L41.1795774,73.13 L46.3275774,73.13 L46.3275774,75.836 L41.1795774,75.836 L41.1795774,83.162 L48.3075774,83.162 L48.3075774,86 Z M69.6972096,86 L66.5952096,86 L66.5952096,76.364 L60.3582096,76.364 L60.3582096,86 L57.2232096,86 L57.2232096,64.022 L60.3582096,64.022 L60.3582096,73.559 L66.5952096,73.559 L66.5952096,64.022 L69.6972096,64.022 L69.6972096,86 Z M85.6225258,80.192 C85.6225258,83.789 83.6425258,86.495 79.4845258,86.495 C75.3595258,86.495 73.3465258,83.789 73.3465258,80.192 L73.3465258,69.83 C73.3465258,66.266 75.3595258,63.56 79.4845258,63.56 C83.6425258,63.56 85.6225258,66.266 85.6225258,69.83 L85.6225258,80.192 Z M82.5205258,80.456 L82.5205258,69.566 C82.5205258,67.685 81.5305258,66.332 79.4845258,66.332 C77.4385258,66.332 76.4815258,67.685 76.4815258,69.566 L76.4815258,80.456 C76.4815258,82.337 77.4385258,83.69 79.4845258,83.69 C81.5305258,83.69 82.5205258,82.337 82.5205258,80.456 Z M101.250842,80.192 C101.250842,83.789 99.2708419,86.495 95.1128419,86.495 C90.9878419,86.495 88.9748419,83.789 88.9748419,80.192 L88.9748419,69.83 C88.9748419,66.266 90.9878419,63.56 95.1128419,63.56 C99.2708419,63.56 101.250842,66.266 101.250842,69.83 L101.250842,80.192 Z M98.1488419,80.456 L98.1488419,69.566 C98.1488419,67.685 97.1588419,66.332 95.1128419,66.332 C93.0668419,66.332 92.1098419,67.685 92.1098419,69.566 L92.1098419,80.456 C92.1098419,82.337 93.0668419,83.69 95.1128419,83.69 C97.1588419,83.69 98.1488419,82.337 98.1488419,80.456 Z M116.978158,80.06 C116.978158,83.459 115.196158,86 111.104158,86 L104.900158,86 L104.900158,64.022 L111.104158,64.022 C115.196158,64.022 116.978158,66.563 116.978158,69.962 L116.978158,80.06 Z M113.876158,79.928 L113.876158,70.127 C113.876158,68.048 112.952158,66.893 110.906158,66.893 L108.035158,66.893 L108.035158,83.129 L110.906158,83.129 C112.952158,83.129 113.876158,81.974 113.876158,79.928 Z M138.975474,64.022 L134.916474,86 L131.880474,86 L129.108474,70.853 L126.138474,86 L123.102474,86 L119.241474,64.022 L122.409474,64.022 L124.719474,80.258 L127.821474,64.022 L130.659474,64.022 L133.497474,80.258 L135.906474,64.022 L138.975474,64.022 Z M144.53879,86 L141.40379,86 L141.40379,64.022 L144.53879,64.022 L144.53879,86 Z M159.243106,66.893 L154.755106,66.893 L154.755106,86 L151.620106,86 L151.620106,66.893 L147.099106,66.893 L147.099106,64.022 L159.243106,64.022 L159.243106,66.893 Z M173.650423,80.687 C173.650423,83.888 171.835423,86.495 167.677423,86.495 C163.519423,86.495 161.539423,83.624 161.539423,80.39 L161.539423,69.632 C161.539423,66.398 163.519423,63.56 167.677423,63.56 C171.835423,63.56 173.650423,66.134 173.650423,69.335 L173.650423,71.711 L170.845423,71.711 L170.845423,69.401 C170.845423,67.553 169.822423,66.332 167.776423,66.332 C165.697423,66.332 164.674423,67.586 164.674423,69.269 L164.674423,80.753 C164.674423,82.436 165.697423,83.69 167.776423,83.69 C169.822423,83.69 170.845423,82.502 170.845423,80.621 L170.845423,78.311 L173.650423,78.311 L173.650423,80.687 Z M189.344739,86 L186.242739,86 L186.242739,76.364 L180.005739,76.364 L180.005739,86 L176.870739,86 L176.870739,64.022 L180.005739,64.022 L180.005739,73.559 L186.242739,73.559 L186.242739,64.022 L189.344739,64.022 L189.344739,86 Z" id="the-hoodwitch"></path>
            <path d="M88.52,2.38 L84.28,2.38 L84.28,6.48 L87.54,6.48 L87.54,8.14 L84.28,8.14 L84.28,14 L82.38,14 L82.38,0.66 L88.52,0.66 L88.52,2.38 Z M96.12,14 L89.92,14 L89.92,0.68 L96.12,0.68 L96.12,2.4 L91.8,2.4 L91.8,6.2 L94.92,6.2 L94.92,7.84 L91.8,7.84 L91.8,12.28 L96.12,12.28 L96.12,14 Z M104.88,14 L102.96,14 L102.26,10.74 L99.38,10.74 L98.68,14 L96.84,14 L99.86,0.68 L101.86,0.68 L104.88,14 Z M101.92,9.12 L100.82,3.66 L99.72,9.12 L101.92,9.12 Z M112.66,2.42 L109.94,2.42 L109.94,14 L108.04,14 L108.04,2.42 L105.3,2.42 L105.3,0.68 L112.66,0.68 L112.66,2.42 Z M115.64,14 L114,14 L114,11.74 L115.64,11.74 L115.64,14 Z" id="FEAT."></path>
        </g>
    </g>
</svg>