<?xml version="1.0" encoding="UTF-8"?>
<svg width="258px" height="351px" viewBox="0 0 258 351" version="1.1" xmlns="http://www.w3.org/2000/svg" xmlns:xlink="http://www.w3.org/1999/xlink">
    <!-- Generator: Sketch 49.3 (51167) - http://www.bohemiancoding.com/sketch -->
    <title>Featured Artists</title>
    <desc>Created with Sketch.</desc>
    <defs></defs>
    <g id="03" stroke="none" stroke-width="1" fill="none" fill-rule="evenodd">
        <g id="Featured-Artists" fill="#FFFFFF">
            <path d="M59.485,136.042 C57.593,137.626 54.733,138.55 51.367,138.55 C44.943,138.55 40.763,135.338 40.763,130.762 L40.763,130.586 C40.763,126.01 44.943,122.798 51.367,122.798 C54.733,122.798 57.989,123.854 59.727,125.306 L56.867,128.936 C55.679,128.166 54.073,127.638 52.489,127.638 C50.267,127.638 48.573,128.826 48.573,130.63 L48.573,130.718 C48.573,132.522 50.267,133.71 52.489,133.71 C54.183,133.71 55.943,133.072 56.867,132.412 L59.485,136.042 Z M80.165,130.784 C80.165,135.03 76.491,138.55 70.221,138.55 C63.929,138.55 60.255,135.03 60.255,130.784 L60.255,130.52 C60.255,126.252 63.929,122.798 70.221,122.798 C76.491,122.798 80.165,126.252 80.165,130.52 L80.165,130.784 Z M72.355,130.85 L72.355,130.476 C72.355,128.848 72.003,127.352 70.221,127.352 C68.439,127.352 68.065,128.848 68.065,130.476 L68.065,130.85 C68.065,132.456 68.439,133.952 70.221,133.952 C72.003,133.952 72.355,132.456 72.355,130.85 Z M98.491,138 L81.595,138 L81.595,123.348 L89.251,123.348 L89.251,132.918 L98.491,132.918 L98.491,138 Z M116.575,138 L99.789,138 L99.789,123.348 L116.575,123.348 L116.575,128.034 L107.445,128.034 L107.445,129.42 L113.165,129.42 L113.165,131.664 L107.445,131.664 L107.445,132.918 L116.575,132.918 L116.575,138 Z M140.555,138 L123.659,138 L123.659,123.348 L131.315,123.348 L131.315,132.918 L140.555,132.918 L140.555,138 Z M161.213,130.784 C161.213,135.03 157.539,138.55 151.269,138.55 C144.977,138.55 141.303,135.03 141.303,130.784 L141.303,130.52 C141.303,126.252 144.977,122.798 151.269,122.798 C157.539,122.798 161.213,126.252 161.213,130.52 L161.213,130.784 Z M153.403,130.85 L153.403,130.476 C153.403,128.848 153.051,127.352 151.269,127.352 C149.487,127.352 149.113,128.848 149.113,130.476 L149.113,130.85 C149.113,132.456 149.487,133.952 151.269,133.952 C153.051,133.952 153.403,132.456 153.403,130.85 Z M180.815,128.474 C180.815,131.136 178.835,133.556 174.435,133.556 L170.299,133.556 L170.299,138 L162.643,138 L162.643,123.348 L174.259,123.348 C178.681,123.348 180.815,125.592 180.815,128.254 L180.815,128.474 Z M173.071,129.134 L173.071,129.068 C173.071,128.254 172.719,127.858 171.575,127.858 L170.299,127.858 L170.299,130.344 L171.575,130.344 C172.719,130.344 173.071,129.904 173.071,129.134 Z M199.031,138 L182.245,138 L182.245,123.348 L199.031,123.348 L199.031,128.034 L189.901,128.034 L189.901,129.42 L195.621,129.42 L195.621,131.664 L189.901,131.664 L189.901,132.918 L199.031,132.918 L199.031,138 Z M218.215,125.064 L210.735,132.61 L218.259,132.61 L218.259,138 L199.867,138 L199.867,136.284 L207.765,128.276 L200.197,128.276 L200.197,123.348 L218.215,123.348 L218.215,125.064 Z" id="cole-lopez"></path>
            <path d="M23.411,297 L15.469,297 L14.611,294.448 L10.145,294.448 L9.155,297 L2.467,297 L8.935,282.348 L16.811,282.348 L23.411,297 Z M13.511,291.104 L12.565,288.354 L11.487,291.104 L13.511,291.104 Z M40.703,297 L23.917,297 L23.917,282.348 L40.703,282.348 L40.703,287.034 L31.573,287.034 L31.573,288.42 L37.293,288.42 L37.293,290.664 L31.573,290.664 L31.573,291.918 L40.703,291.918 L40.703,297 Z M60.965,297 L54.277,297 C53.397,297 52.517,296.032 52.517,294.734 L52.517,293.392 C52.517,292.358 52.297,291.83 51.175,291.83 L49.899,291.83 L49.899,297 L42.265,297 L42.265,282.348 L54.035,282.348 C58.017,282.348 60.415,284.086 60.415,286.44 L60.415,286.638 C60.415,288.046 59.073,289.498 56.917,289.916 C59.469,290.158 60.173,291.654 60.173,293.348 L60.173,294.558 C60.173,295.482 60.393,296.164 60.965,296.78 L60.965,297 Z M52.671,287.892 L52.671,287.826 C52.671,287.056 52.253,286.77 51.109,286.77 L49.899,286.77 L49.899,289.102 L51.109,289.102 C52.253,289.102 52.671,288.618 52.671,287.892 Z M69.655,297 L61.999,297 L61.999,282.348 L69.655,282.348 L69.655,297 Z M90.731,297 L84.175,297 L79.049,291.918 L78.499,291.28 L78.499,297 L71.635,297 L71.635,282.348 L77.839,282.348 L83.339,287.474 L83.845,288.024 L83.845,282.348 L90.731,282.348 L90.731,297 Z M111.807,297 L105.251,297 L100.125,291.918 L99.575,291.28 L99.575,297 L92.711,297 L92.711,282.348 L98.915,282.348 L104.415,287.474 L104.921,288.024 L104.921,282.348 L111.807,282.348 L111.807,297 Z M139.285,297 L131.167,297 L128.615,292.776 L126.965,294.492 L126.965,297 L119.309,297 L119.309,282.348 L126.965,282.348 L126.965,287.958 L131.123,282.348 L139.241,282.348 L133.763,288.618 L139.285,297 Z M159.679,289.784 C159.679,294.03 156.005,297.55 149.735,297.55 C143.443,297.55 139.769,294.03 139.769,289.784 L139.769,289.52 C139.769,285.252 143.443,281.798 149.735,281.798 C156.005,281.798 159.679,285.252 159.679,289.52 L159.679,289.784 Z M151.869,289.85 L151.869,289.476 C151.869,287.848 151.517,286.352 149.735,286.352 C147.953,286.352 147.579,287.848 147.579,289.476 L147.579,289.85 C147.579,291.456 147.953,292.952 149.735,292.952 C151.517,292.952 151.869,291.456 151.869,289.85 Z M178.005,297 L161.109,297 L161.109,282.348 L168.765,282.348 L168.765,291.918 L178.005,291.918 L178.005,297 Z M196.485,287.034 L186.959,287.034 L186.959,288.816 L191.777,288.816 L191.777,291.412 L186.959,291.412 L186.959,297 L179.303,297 L179.303,282.348 L196.485,282.348 L196.485,287.034 Z M216.989,297 L209.047,297 L208.189,294.448 L203.723,294.448 L202.733,297 L196.045,297 L202.513,282.348 L210.389,282.348 L216.989,297 Z M207.089,291.104 L206.143,288.354 L205.065,291.104 L207.089,291.104 Z M236.217,297 L231.905,297 L231.619,295.68 C230.255,296.912 228.297,297.55 226.273,297.55 C221.147,297.55 216.945,294.536 216.945,289.872 L216.945,289.608 C216.945,285.01 221.345,281.798 227.219,281.798 C230.871,281.798 233.621,282.48 235.865,283.58 L233.555,287.848 C231.905,287.1 230.431,286.682 228.715,286.682 C226.295,286.682 224.755,288.046 224.755,289.938 L224.755,290.07 C224.755,291.764 226.009,292.952 228.011,292.952 C229.155,292.952 230.079,292.468 230.563,291.742 L230.563,291.654 L227.087,291.654 L227.087,289.058 L236.217,289.058 L236.217,297 Z M254.389,297 L237.603,297 L237.603,282.348 L254.389,282.348 L254.389,287.034 L245.259,287.034 L245.259,288.42 L250.979,288.42 L250.979,290.664 L245.259,290.664 L245.259,291.918 L254.389,291.918 L254.389,297 Z" id="Aerinn-Kolfage"></path>
            <path d="M45.158,80.116 C45.158,83.416 42.188,85.55 35.588,85.55 C32.068,85.55 28.328,84.648 26.216,83.394 L28.284,79.852 C31.1,81.018 33.828,81.48 35.676,81.48 C36.952,81.48 37.722,81.238 37.722,80.842 C37.722,79.434 26.832,80.49 26.832,74.902 C26.832,72.108 29.912,69.798 35.918,69.798 C40.054,69.798 43.398,70.81 44.96,71.668 L42.738,75.034 C40.296,74.286 38.008,73.868 36.446,73.868 C35.39,73.868 34.73,74.066 34.73,74.484 C34.73,76.046 45.158,74.726 45.158,80.116 Z M65.838,85 L57.896,85 L57.038,82.448 L52.572,82.448 L51.582,85 L44.894,85 L51.362,70.348 L59.238,70.348 L65.838,85 Z M55.938,79.104 L54.992,76.354 L53.914,79.104 L55.938,79.104 Z M85.044,85 L78.356,85 C77.476,85 76.596,84.032 76.596,82.734 L76.596,81.392 C76.596,80.358 76.376,79.83 75.254,79.83 L73.978,79.83 L73.978,85 L66.344,85 L66.344,70.348 L78.114,70.348 C82.096,70.348 84.494,72.086 84.494,74.44 L84.494,74.638 C84.494,76.046 83.152,77.498 80.996,77.916 C83.548,78.158 84.252,79.654 84.252,81.348 L84.252,82.558 C84.252,83.482 84.472,84.164 85.044,84.78 L85.044,85 Z M76.75,75.892 L76.75,75.826 C76.75,75.056 76.332,74.77 75.188,74.77 L73.978,74.77 L73.978,77.102 L75.188,77.102 C76.332,77.102 76.75,76.618 76.75,75.892 Z M105.46,85 L97.518,85 L96.66,82.448 L92.194,82.448 L91.204,85 L84.516,85 L90.984,70.348 L98.86,70.348 L105.46,85 Z M95.56,79.104 L94.614,76.354 L93.536,79.104 L95.56,79.104 Z M125.172,85 L117.494,85 L117.494,79.918 L113.622,79.918 L113.622,85 L105.966,85 L105.966,70.348 L113.622,70.348 L113.622,75.848 L117.494,75.848 L117.494,70.348 L125.172,70.348 L125.172,85 Z M149.57,85 L132.674,85 L132.674,70.348 L140.33,70.348 L140.33,79.918 L149.57,79.918 L149.57,85 Z M171.064,70.348 L164.002,80.028 L164.002,85 L156.346,85 L156.346,80.028 L149.46,70.348 L157.93,70.348 L160.746,74.616 L163.452,70.348 L171.064,70.348 Z M191.018,77.784 C191.018,82.03 187.344,85.55 181.074,85.55 C174.782,85.55 171.108,82.03 171.108,77.784 L171.108,77.52 C171.108,73.252 174.782,69.798 181.074,69.798 C187.344,69.798 191.018,73.252 191.018,77.52 L191.018,77.784 Z M183.208,77.85 L183.208,77.476 C183.208,75.848 182.856,74.352 181.074,74.352 C179.292,74.352 178.918,75.848 178.918,77.476 L178.918,77.85 C178.918,79.456 179.292,80.952 181.074,80.952 C182.856,80.952 183.208,79.456 183.208,77.85 Z M211.544,85 L204.988,85 L199.862,79.918 L199.312,79.28 L199.312,85 L192.448,85 L192.448,70.348 L198.652,70.348 L204.152,75.474 L204.658,76.024 L204.658,70.348 L211.544,70.348 L211.544,85 Z M231.388,80.116 C231.388,83.416 228.418,85.55 221.818,85.55 C218.298,85.55 214.558,84.648 212.446,83.394 L214.514,79.852 C217.33,81.018 220.058,81.48 221.906,81.48 C223.182,81.48 223.952,81.238 223.952,80.842 C223.952,79.434 213.062,80.49 213.062,74.902 C213.062,72.108 216.142,69.798 222.148,69.798 C226.284,69.798 229.628,70.81 231.19,71.668 L228.968,75.034 C226.526,74.286 224.238,73.868 222.676,73.868 C221.62,73.868 220.96,74.066 220.96,74.484 C220.96,76.046 231.388,74.726 231.388,80.116 Z" id="sarah-lyons"></path>
            <path d="M40.598,342.784 C40.598,346.722 37.166,350 30.654,350 L21.238,350 L21.238,335.348 L30.654,335.348 C37.166,335.348 40.598,338.56 40.598,342.52 L40.598,342.784 Z M32.81,342.828 L32.81,342.476 C32.81,341.002 32.084,339.77 30.104,339.77 L28.894,339.77 L28.894,345.534 L30.104,345.534 C32.084,345.534 32.81,344.302 32.81,342.828 Z M58.814,350 L42.028,350 L42.028,335.348 L58.814,335.348 L58.814,340.034 L49.684,340.034 L49.684,341.42 L55.404,341.42 L55.404,343.664 L49.684,343.664 L49.684,344.918 L58.814,344.918 L58.814,350 Z M78.372,346.238 C78.372,348.372 76.612,350 72.63,350 L60.376,350 L60.376,335.348 L72.366,335.348 C76.392,335.348 78.284,336.954 78.284,339.198 L78.284,339.374 C78.284,340.87 76.964,342.19 74.39,342.696 C77.228,343.158 78.372,344.368 78.372,346.062 L78.372,346.238 Z M70.782,340.672 L70.782,340.606 C70.782,339.946 70.364,339.682 69.22,339.682 L68.032,339.682 L68.032,341.596 L69.22,341.596 C70.364,341.596 70.782,341.31 70.782,340.672 Z M70.782,344.808 L70.782,344.742 C70.782,344.104 70.364,343.818 69.22,343.818 L68.032,343.818 L68.032,345.732 L69.22,345.732 C70.364,345.732 70.782,345.468 70.782,344.808 Z M97.644,346.238 C97.644,348.372 95.884,350 91.902,350 L79.648,350 L79.648,335.348 L91.638,335.348 C95.664,335.348 97.556,336.954 97.556,339.198 L97.556,339.374 C97.556,340.87 96.236,342.19 93.662,342.696 C96.5,343.158 97.644,344.368 97.644,346.062 L97.644,346.238 Z M90.054,340.672 L90.054,340.606 C90.054,339.946 89.636,339.682 88.492,339.682 L87.304,339.682 L87.304,341.596 L88.492,341.596 C89.636,341.596 90.054,341.31 90.054,340.672 Z M90.054,344.808 L90.054,344.742 C90.054,344.104 89.636,343.818 88.492,343.818 L87.304,343.818 L87.304,345.732 L88.492,345.732 C89.636,345.732 90.054,345.468 90.054,344.808 Z M106.576,350 L98.92,350 L98.92,335.348 L106.576,335.348 L106.576,350 Z M125.342,350 L108.556,350 L108.556,335.348 L125.342,335.348 L125.342,340.034 L116.212,340.034 L116.212,341.42 L121.932,341.42 L121.932,343.664 L116.212,343.664 L116.212,344.918 L125.342,344.918 L125.342,350 Z M151.808,350 L143.866,350 L143.008,347.448 L138.542,347.448 L137.552,350 L130.864,350 L137.332,335.348 L145.208,335.348 L151.808,350 Z M141.908,344.104 L140.962,341.354 L139.884,344.104 L141.908,344.104 Z M170.222,340.452 L164.81,340.452 L164.81,350 L157.154,350 L157.154,340.452 L151.742,340.452 L151.742,335.348 L170.222,335.348 L170.222,340.452 Z M189.538,340.452 L184.126,340.452 L184.126,350 L176.47,350 L176.47,340.452 L171.058,340.452 L171.058,335.348 L189.538,335.348 L189.538,340.452 Z M198.602,350 L190.946,350 L190.946,335.348 L198.602,335.348 L198.602,350 Z M219.964,350 L212.022,350 L211.164,347.448 L206.698,347.448 L205.708,350 L199.02,350 L205.488,335.348 L213.364,335.348 L219.964,350 Z M210.064,344.104 L209.118,341.354 L208.04,344.104 L210.064,344.104 Z M238.334,345.116 C238.334,348.416 235.364,350.55 228.764,350.55 C225.244,350.55 221.504,349.648 219.392,348.394 L221.46,344.852 C224.276,346.018 227.004,346.48 228.852,346.48 C230.128,346.48 230.898,346.238 230.898,345.842 C230.898,344.434 220.008,345.49 220.008,339.902 C220.008,337.108 223.088,334.798 229.094,334.798 C233.23,334.798 236.574,335.81 238.136,336.668 L235.914,340.034 C233.472,339.286 231.184,338.868 229.622,338.868 C228.566,338.868 227.906,339.066 227.906,339.484 C227.906,341.046 238.334,339.726 238.334,345.116 Z" id="debbie-attias"></path>
            <path d="M58.319,189.042 C56.427,190.626 53.567,191.55 50.201,191.55 C43.777,191.55 39.597,188.338 39.597,183.762 L39.597,183.586 C39.597,179.01 43.777,175.798 50.201,175.798 C53.567,175.798 56.823,176.854 58.561,178.306 L55.701,181.936 C54.513,181.166 52.907,180.638 51.323,180.638 C49.101,180.638 47.407,181.826 47.407,183.63 L47.407,183.718 C47.407,185.522 49.101,186.71 51.323,186.71 C53.017,186.71 54.777,186.072 55.701,185.412 L58.319,189.042 Z M79.021,191 L71.079,191 L70.221,188.448 L65.755,188.448 L64.765,191 L58.077,191 L64.545,176.348 L72.421,176.348 L79.021,191 Z M69.121,185.104 L68.175,182.354 L67.097,185.104 L69.121,185.104 Z M97.435,181.452 L92.023,181.452 L92.023,191 L84.367,191 L84.367,181.452 L78.955,181.452 L78.955,176.348 L97.435,176.348 L97.435,181.452 Z M122.537,189.042 C120.645,190.626 117.785,191.55 114.419,191.55 C107.995,191.55 103.815,188.338 103.815,183.762 L103.815,183.586 C103.815,179.01 107.995,175.798 114.419,175.798 C117.785,175.798 121.041,176.854 122.779,178.306 L119.919,181.936 C118.731,181.166 117.125,180.638 115.541,180.638 C113.319,180.638 111.625,181.826 111.625,183.63 L111.625,183.718 C111.625,185.522 113.319,186.71 115.541,186.71 C117.235,186.71 118.995,186.072 119.919,185.412 L122.537,189.042 Z M143.239,191 L135.297,191 L134.439,188.448 L129.973,188.448 L128.983,191 L122.295,191 L128.763,176.348 L136.639,176.348 L143.239,191 Z M133.339,185.104 L132.393,182.354 L131.315,185.104 L133.339,185.104 Z M161.741,187.238 C161.741,189.372 159.981,191 155.999,191 L143.745,191 L143.745,176.348 L155.735,176.348 C159.761,176.348 161.653,177.954 161.653,180.198 L161.653,180.374 C161.653,181.87 160.333,183.19 157.759,183.696 C160.597,184.158 161.741,185.368 161.741,187.062 L161.741,187.238 Z M154.151,181.672 L154.151,181.606 C154.151,180.946 153.733,180.682 152.589,180.682 L151.401,180.682 L151.401,182.596 L152.589,182.596 C153.733,182.596 154.151,182.31 154.151,181.672 Z M154.151,185.808 L154.151,185.742 C154.151,185.104 153.733,184.818 152.589,184.818 L151.401,184.818 L151.401,186.732 L152.589,186.732 C153.733,186.732 154.151,186.468 154.151,185.808 Z M181.717,191 L175.029,191 C174.149,191 173.269,190.032 173.269,188.734 L173.269,187.392 C173.269,186.358 173.049,185.83 171.927,185.83 L170.651,185.83 L170.651,191 L163.017,191 L163.017,176.348 L174.787,176.348 C178.769,176.348 181.167,178.086 181.167,180.44 L181.167,180.638 C181.167,182.046 179.825,183.498 177.669,183.916 C180.221,184.158 180.925,185.654 180.925,187.348 L180.925,188.558 C180.925,189.482 181.145,190.164 181.717,190.78 L181.717,191 Z M173.423,181.892 L173.423,181.826 C173.423,181.056 173.005,180.77 171.861,180.77 L170.651,180.77 L170.651,183.102 L171.861,183.102 C173.005,183.102 173.423,182.618 173.423,181.892 Z M202.133,191 L194.191,191 L193.333,188.448 L188.867,188.448 L187.877,191 L181.189,191 L187.657,176.348 L195.533,176.348 L202.133,191 Z M192.233,185.104 L191.287,182.354 L190.209,185.104 L192.233,185.104 Z M219.535,191 L202.639,191 L202.639,176.348 L210.295,176.348 L210.295,185.918 L219.535,185.918 L219.535,191 Z" id="cat-cabral"></path>
            <path d="M59.8696031,115 L56.7016031,115 L55.5466031,109.621 L50.7946031,109.621 L49.6396031,115 L46.6036031,115 L51.5866031,93.022 L54.8866031,93.022 L59.8696031,115 Z M54.9856031,106.948 L53.1706031,97.939 L51.3556031,106.948 L54.9856031,106.948 Z M72.3629193,115 L62.2979193,115 L62.2979193,93.022 L65.3999193,93.022 L65.3999193,112.162 L72.3629193,112.162 L72.3629193,115 Z M85.2192354,115 L74.9892354,115 L74.9892354,93.022 L85.2192354,93.022 L85.2192354,95.86 L78.0912354,95.86 L78.0912354,102.13 L83.2392354,102.13 L83.2392354,104.836 L78.0912354,104.836 L78.0912354,112.162 L85.2192354,112.162 L85.2192354,115 Z M99.6265516,109.522 C99.6265516,113.152 97.0525516,115.495 93.5875516,115.495 C89.9575516,115.495 87.5485516,113.119 87.5485516,109.918 L87.5485516,108.4 L90.6505516,108.4 L90.6505516,109.423 C90.6505516,111.667 91.6735516,112.822 93.6205516,112.822 C95.5345516,112.822 96.5245516,111.667 96.5245516,109.984 C96.5245516,108.037 95.6665516,106.816 92.8945516,105.067 C90.4195516,103.483 87.8125516,101.338 87.8125516,98.17 C87.8125516,95.035 89.8915516,92.56 93.6205516,92.56 C97.1845516,92.56 99.4615516,94.903 99.4615516,98.137 L99.4615516,99.556 L96.4915516,99.556 L96.4915516,98.533 C96.4915516,96.685 95.6005516,95.233 93.5215516,95.233 C91.8055516,95.233 90.9145516,96.256 90.9145516,97.741 C90.9145516,99.688 91.8055516,100.711 94.9735516,102.757 C98.1745516,104.836 99.6265516,106.684 99.6265516,109.522 Z M113.043868,115 L102.813868,115 L102.813868,93.022 L113.043868,93.022 L113.043868,95.86 L105.915868,95.86 L105.915868,102.13 L111.063868,102.13 L111.063868,104.836 L105.915868,104.836 L105.915868,112.162 L113.043868,112.162 L113.043868,115 Z M133.9385,109.192 C133.9385,112.789 131.9585,115.495 127.8005,115.495 C123.6755,115.495 121.6625,112.789 121.6625,109.192 L121.6625,98.83 C121.6625,95.266 123.6755,92.56 127.8005,92.56 C131.9585,92.56 133.9385,95.266 133.9385,98.83 L133.9385,109.192 Z M130.8365,109.456 L130.8365,98.566 C130.8365,96.685 129.8465,95.332 127.8005,95.332 C125.7545,95.332 124.7975,96.685 124.7975,98.566 L124.7975,109.456 C124.7975,111.337 125.7545,112.69 127.8005,112.69 C129.8465,112.69 130.8365,111.337 130.8365,109.456 Z M148.873816,109.522 C148.873816,113.152 146.299816,115.495 142.834816,115.495 C139.204816,115.495 136.795816,113.119 136.795816,109.918 L136.795816,108.4 L139.897816,108.4 L139.897816,109.423 C139.897816,111.667 140.920816,112.822 142.867816,112.822 C144.781816,112.822 145.771816,111.667 145.771816,109.984 C145.771816,108.037 144.913816,106.816 142.141816,105.067 C139.666816,103.483 137.059816,101.338 137.059816,98.17 C137.059816,95.035 139.138816,92.56 142.867816,92.56 C146.431816,92.56 148.708816,94.903 148.708816,98.137 L148.708816,99.556 L145.738816,99.556 L145.738816,98.533 C145.738816,96.685 144.847816,95.233 142.768816,95.233 C141.052816,95.233 140.161816,96.256 140.161816,97.741 C140.161816,99.688 141.052816,100.711 144.220816,102.757 C147.421816,104.836 148.873816,106.684 148.873816,109.522 Z M163.743132,110.083 C163.743132,113.218 162.159132,115 158.595132,115 L152.061132,115 L152.061132,93.022 L158.430132,93.022 C161.994132,93.022 163.512132,94.804 163.512132,97.939 L163.512132,99.721 C163.512132,101.998 162.588132,103.285 160.707132,103.681 C162.852132,104.11 163.743132,105.595 163.743132,107.74 L163.743132,110.083 Z M160.443132,100.183 L160.443132,97.873 C160.443132,96.619 159.948132,95.728 158.463132,95.728 L155.196132,95.728 L155.196132,102.658 L158.100132,102.658 C159.651132,102.658 160.443132,101.8 160.443132,100.183 Z M160.608132,110.182 L160.608132,107.608 C160.608132,105.991 159.783132,105.133 158.265132,105.133 L155.196132,105.133 L155.196132,112.294 L158.595132,112.294 C160.080132,112.294 160.608132,111.403 160.608132,110.182 Z M179.140448,109.192 C179.140448,112.789 177.160448,115.495 173.002448,115.495 C168.877448,115.495 166.864448,112.789 166.864448,109.192 L166.864448,98.83 C166.864448,95.266 168.877448,92.56 173.002448,92.56 C177.160448,92.56 179.140448,95.266 179.140448,98.83 L179.140448,109.192 Z M176.038448,109.456 L176.038448,98.566 C176.038448,96.685 175.048448,95.332 173.002448,95.332 C170.956448,95.332 169.999448,96.685 169.999448,98.566 L169.999448,109.456 C169.999448,111.337 170.956448,112.69 173.002448,112.69 C175.048448,112.69 176.038448,111.337 176.038448,109.456 Z M195.329765,115.231 L194.636765,115.231 C192.161765,115.231 191.303765,114.538 191.303765,112.261 L191.303765,107.971 C191.303765,106.453 190.610765,105.43 189.026765,105.43 L185.924765,105.43 L185.924765,115 L182.789765,115 L182.789765,93.022 L189.158765,93.022 C192.722765,93.022 194.306765,94.804 194.306765,97.939 L194.306765,100.348 C194.306765,102.493 193.580765,103.78 191.468765,104.209 C193.547765,104.539 194.405765,106.288 194.405765,108.037 L194.405765,112.03 C194.405765,112.624 194.669765,112.888 195.329765,112.888 L195.329765,115.231 Z M191.171765,100.546 L191.171765,97.873 C191.171765,96.619 190.643765,95.728 189.158765,95.728 L185.924765,95.728 L185.924765,103.054 L188.828765,103.054 C190.346765,103.054 191.171765,102.196 191.171765,100.546 Z M210.496081,115 L208.285081,115 L202.840081,104.308 L200.992081,100.447 L200.992081,115 L198.022081,115 L198.022081,93.022 L200.563081,93.022 L205.777081,103.912 L207.526081,107.773 L207.526081,93.022 L210.496081,93.022 L210.496081,115 Z" id="Alese-Osborn"></path>
            <path d="M49.0639451,42.893 L44.5759451,42.893 L44.5759451,62 L41.4409451,62 L41.4409451,42.893 L36.9199451,42.893 L36.9199451,40.022 L49.0639451,40.022 L49.0639451,42.893 Z M64.1312612,62 L61.0292612,62 L61.0292612,52.364 L54.7922612,52.364 L54.7922612,62 L51.6572612,62 L51.6572612,40.022 L54.7922612,40.022 L54.7922612,49.559 L61.0292612,49.559 L61.0292612,40.022 L64.1312612,40.022 L64.1312612,62 Z M78.3075774,62 L68.0775774,62 L68.0775774,40.022 L78.3075774,40.022 L78.3075774,42.86 L71.1795774,42.86 L71.1795774,49.13 L76.3275774,49.13 L76.3275774,51.836 L71.1795774,51.836 L71.1795774,59.162 L78.3075774,59.162 L78.3075774,62 Z M99.6972096,62 L96.5952096,62 L96.5952096,52.364 L90.3582096,52.364 L90.3582096,62 L87.2232096,62 L87.2232096,40.022 L90.3582096,40.022 L90.3582096,49.559 L96.5952096,49.559 L96.5952096,40.022 L99.6972096,40.022 L99.6972096,62 Z M115.622526,56.192 C115.622526,59.789 113.642526,62.495 109.484526,62.495 C105.359526,62.495 103.346526,59.789 103.346526,56.192 L103.346526,45.83 C103.346526,42.266 105.359526,39.56 109.484526,39.56 C113.642526,39.56 115.622526,42.266 115.622526,45.83 L115.622526,56.192 Z M112.520526,56.456 L112.520526,45.566 C112.520526,43.685 111.530526,42.332 109.484526,42.332 C107.438526,42.332 106.481526,43.685 106.481526,45.566 L106.481526,56.456 C106.481526,58.337 107.438526,59.69 109.484526,59.69 C111.530526,59.69 112.520526,58.337 112.520526,56.456 Z M131.250842,56.192 C131.250842,59.789 129.270842,62.495 125.112842,62.495 C120.987842,62.495 118.974842,59.789 118.974842,56.192 L118.974842,45.83 C118.974842,42.266 120.987842,39.56 125.112842,39.56 C129.270842,39.56 131.250842,42.266 131.250842,45.83 L131.250842,56.192 Z M128.148842,56.456 L128.148842,45.566 C128.148842,43.685 127.158842,42.332 125.112842,42.332 C123.066842,42.332 122.109842,43.685 122.109842,45.566 L122.109842,56.456 C122.109842,58.337 123.066842,59.69 125.112842,59.69 C127.158842,59.69 128.148842,58.337 128.148842,56.456 Z M146.978158,56.06 C146.978158,59.459 145.196158,62 141.104158,62 L134.900158,62 L134.900158,40.022 L141.104158,40.022 C145.196158,40.022 146.978158,42.563 146.978158,45.962 L146.978158,56.06 Z M143.876158,55.928 L143.876158,46.127 C143.876158,44.048 142.952158,42.893 140.906158,42.893 L138.035158,42.893 L138.035158,59.129 L140.906158,59.129 C142.952158,59.129 143.876158,57.974 143.876158,55.928 Z M168.975474,40.022 L164.916474,62 L161.880474,62 L159.108474,46.853 L156.138474,62 L153.102474,62 L149.241474,40.022 L152.409474,40.022 L154.719474,56.258 L157.821474,40.022 L160.659474,40.022 L163.497474,56.258 L165.906474,40.022 L168.975474,40.022 Z M174.53879,62 L171.40379,62 L171.40379,40.022 L174.53879,40.022 L174.53879,62 Z M189.243106,42.893 L184.755106,42.893 L184.755106,62 L181.620106,62 L181.620106,42.893 L177.099106,42.893 L177.099106,40.022 L189.243106,40.022 L189.243106,42.893 Z M203.650423,56.687 C203.650423,59.888 201.835423,62.495 197.677423,62.495 C193.519423,62.495 191.539423,59.624 191.539423,56.39 L191.539423,45.632 C191.539423,42.398 193.519423,39.56 197.677423,39.56 C201.835423,39.56 203.650423,42.134 203.650423,45.335 L203.650423,47.711 L200.845423,47.711 L200.845423,45.401 C200.845423,43.553 199.822423,42.332 197.776423,42.332 C195.697423,42.332 194.674423,43.586 194.674423,45.269 L194.674423,56.753 C194.674423,58.436 195.697423,59.69 197.776423,59.69 C199.822423,59.69 200.845423,58.502 200.845423,56.621 L200.845423,54.311 L203.650423,54.311 L203.650423,56.687 Z M219.344739,62 L216.242739,62 L216.242739,52.364 L210.005739,52.364 L210.005739,62 L206.870739,62 L206.870739,40.022 L210.005739,40.022 L210.005739,49.559 L216.242739,49.559 L216.242739,40.022 L219.344739,40.022 L219.344739,62 Z" id="the-hoodwitch"></path>
            <path d="M65.5736031,168 L62.4716031,168 L62.4716031,158.364 L56.2346031,158.364 L56.2346031,168 L53.0996031,168 L53.0996031,146.022 L56.2346031,146.022 L56.2346031,155.559 L62.4716031,155.559 L62.4716031,146.022 L65.5736031,146.022 L65.5736031,168 Z M81.2349193,168 L78.0669193,168 L76.9119193,162.621 L72.1599193,162.621 L71.0049193,168 L67.9689193,168 L72.9519193,146.022 L76.2519193,146.022 L81.2349193,168 Z M76.3509193,159.948 L74.5359193,150.939 L72.7209193,159.948 L76.3509193,159.948 Z M95.4772354,146.022 L90.1972354,159.156 L90.1972354,168 L87.0952354,168 L87.0952354,159.156 L81.7822354,146.022 L85.1482354,146.022 L88.7452354,156.153 L92.3422354,146.022 L95.4772354,146.022 Z M107.541552,168 L97.4765516,168 L97.4765516,146.022 L100.578552,146.022 L100.578552,165.162 L107.541552,165.162 L107.541552,168 Z M113.302868,168 L110.167868,168 L110.167868,146.022 L113.302868,146.022 L113.302868,168 Z M129.657184,168 L127.446184,168 L122.001184,157.308 L120.153184,153.447 L120.153184,168 L117.183184,168 L117.183184,146.022 L119.724184,146.022 L124.938184,156.912 L126.687184,160.773 L126.687184,146.022 L129.657184,146.022 L129.657184,168 Z M151.046816,163.083 C151.046816,166.218 149.462816,168 145.898816,168 L139.364816,168 L139.364816,146.022 L145.733816,146.022 C149.297816,146.022 150.815816,147.804 150.815816,150.939 L150.815816,152.721 C150.815816,154.998 149.891816,156.285 148.010816,156.681 C150.155816,157.11 151.046816,158.595 151.046816,160.74 L151.046816,163.083 Z M147.746816,153.183 L147.746816,150.873 C147.746816,149.619 147.251816,148.728 145.766816,148.728 L142.499816,148.728 L142.499816,155.658 L145.403816,155.658 C146.954816,155.658 147.746816,154.8 147.746816,153.183 Z M147.911816,163.182 L147.911816,160.608 C147.911816,158.991 147.086816,158.133 145.568816,158.133 L142.499816,158.133 L142.499816,165.294 L145.898816,165.294 C147.383816,165.294 147.911816,164.403 147.911816,163.182 Z M164.695132,168 L154.465132,168 L154.465132,146.022 L164.695132,146.022 L164.695132,148.86 L157.567132,148.86 L157.567132,155.13 L162.715132,155.13 L162.715132,157.836 L157.567132,157.836 L157.567132,165.162 L164.695132,165.162 L164.695132,168 Z M177.881448,168 L167.816448,168 L167.816448,146.022 L170.918448,146.022 L170.918448,165.162 L177.881448,165.162 L177.881448,168 Z M192.222765,168 L189.054765,168 L187.899765,162.621 L183.147765,162.621 L181.992765,168 L178.956765,168 L183.939765,146.022 L187.239765,146.022 L192.222765,168 Z M187.338765,159.948 L185.523765,150.939 L183.708765,159.948 L187.338765,159.948 Z M206.465081,146.022 L201.185081,159.156 L201.185081,168 L198.083081,168 L198.083081,159.156 L192.770081,146.022 L196.136081,146.022 L199.733081,156.153 L203.330081,146.022 L206.465081,146.022 Z" id="haylin-belay"></path>
            <path d="M33.4804709,274 L30.6424709,274 L30.6424709,256.873 L29.7514709,261.064 L26.7484709,274 L23.6794709,274 L20.7424709,261.064 L19.8184709,256.873 L19.8184709,274 L17.0464709,274 L17.0464709,252.022 L21.4024709,252.022 L24.4054709,265.75 L25.2964709,269.941 L26.1874709,265.717 L29.1244709,252.022 L33.4804709,252.022 L33.4804709,274 Z M49.141787,274 L45.973787,274 L44.818787,268.621 L40.066787,268.621 L38.911787,274 L35.875787,274 L40.858787,252.022 L44.158787,252.022 L49.141787,274 Z M44.257787,265.948 L42.442787,256.939 L40.627787,265.948 L44.257787,265.948 Z M64.1101031,274.231 L63.4171031,274.231 C60.9421031,274.231 60.0841031,273.538 60.0841031,271.261 L60.0841031,266.971 C60.0841031,265.453 59.3911031,264.43 57.8071031,264.43 L54.7051031,264.43 L54.7051031,274 L51.5701031,274 L51.5701031,252.022 L57.9391031,252.022 C61.5031031,252.022 63.0871031,253.804 63.0871031,256.939 L63.0871031,259.348 C63.0871031,261.493 62.3611031,262.78 60.2491031,263.209 C62.3281031,263.539 63.1861031,265.288 63.1861031,267.037 L63.1861031,271.03 C63.1861031,271.624 63.4501031,271.888 64.1101031,271.888 L64.1101031,274.231 Z M59.9521031,259.546 L59.9521031,256.873 C59.9521031,255.619 59.4241031,254.728 57.9391031,254.728 L54.7051031,254.728 L54.7051031,262.054 L57.6091031,262.054 C59.1271031,262.054 59.9521031,261.196 59.9521031,259.546 Z M69.9704193,274 L66.8354193,274 L66.8354193,252.022 L69.9704193,252.022 L69.9704193,274 Z M85.5987354,274 L82.4307354,274 L81.2757354,268.621 L76.5237354,268.621 L75.3687354,274 L72.3327354,274 L77.3157354,252.022 L80.6157354,252.022 L85.5987354,274 Z M80.7147354,265.948 L78.8997354,256.939 L77.0847354,265.948 L80.7147354,265.948 Z M100.501052,274 L97.3990516,274 L97.3990516,264.364 L91.1620516,264.364 L91.1620516,274 L88.0270516,274 L88.0270516,252.022 L91.1620516,252.022 L91.1620516,261.559 L97.3990516,261.559 L97.3990516,252.022 L100.501052,252.022 L100.501052,274 Z M126.675684,274 L123.837684,274 L123.837684,256.873 L122.946684,261.064 L119.943684,274 L116.874684,274 L113.937684,261.064 L113.013684,256.873 L113.013684,274 L110.241684,274 L110.241684,252.022 L114.597684,252.022 L117.600684,265.75 L118.491684,269.941 L119.382684,265.717 L122.319684,252.022 L126.675684,252.022 L126.675684,274 Z M142.337,274 L139.169,274 L138.014,268.621 L133.262,268.621 L132.107,274 L129.071,274 L134.054,252.022 L137.354,252.022 L142.337,274 Z M137.453,265.948 L135.638,256.939 L133.823,265.948 L137.453,265.948 Z M157.173316,274 L153.774316,274 L149.616316,264.199 L147.867316,267.202 L147.867316,274 L144.765316,274 L144.765316,252.022 L147.867316,252.022 L147.867316,262.714 L153.840316,252.022 L157.173316,252.022 L151.629316,261.46 L157.173316,274 Z M171.481632,274 L168.313632,274 L167.158632,268.621 L162.406632,268.621 L161.251632,274 L158.215632,274 L163.198632,252.022 L166.498632,252.022 L171.481632,274 Z M166.597632,265.948 L164.782632,256.939 L162.967632,265.948 L166.597632,265.948 Z M183.974948,274 L173.909948,274 L173.909948,252.022 L177.011948,252.022 L177.011948,271.162 L183.974948,271.162 L183.974948,274 Z M198.316265,274 L195.148265,274 L193.993265,268.621 L189.241265,268.621 L188.086265,274 L185.050265,274 L190.033265,252.022 L193.333265,252.022 L198.316265,274 Z M193.432265,265.948 L191.617265,256.939 L189.802265,265.948 L193.432265,265.948 Z M212.261581,260.14 C212.261581,263.242 210.677581,265.189 207.113581,265.189 L203.846581,265.189 L203.846581,274 L200.744581,274 L200.744581,252.022 L207.113581,252.022 C210.677581,252.022 212.261581,253.936 212.261581,257.104 L212.261581,260.14 Z M209.126581,260.239 L209.126581,257.005 C209.126581,255.553 208.598581,254.728 207.146581,254.728 L203.846581,254.728 L203.846581,262.516 L207.146581,262.516 C208.598581,262.516 209.126581,261.658 209.126581,260.239 Z M227.493897,268.753 C227.493897,272.383 224.952897,274.495 221.355897,274.495 C217.791897,274.495 215.250897,272.383 215.250897,268.753 L215.250897,252.022 L218.385897,252.022 L218.385897,268.753 C218.385897,270.7 219.342897,271.756 221.388897,271.756 C223.434897,271.756 224.391897,270.7 224.391897,268.753 L224.391897,252.022 L227.493897,252.022 L227.493897,268.753 Z M243.089213,274 L239.921213,274 L238.766213,268.621 L234.014213,268.621 L232.859213,274 L229.823213,274 L234.806213,252.022 L238.106213,252.022 L243.089213,274 Z M238.205213,265.948 L236.390213,256.939 L234.575213,265.948 L238.205213,265.948 Z" id="mariah-makalapua"></path>
            <path d="M13.5378386,327 L10.3698386,327 L9.21483858,321.621 L4.46283858,321.621 L3.30783858,327 L0.271838577,327 L5.25483858,305.022 L8.55483858,305.022 L13.5378386,327 Z M8.65383858,318.948 L6.83883858,309.939 L5.02383858,318.948 L8.65383858,318.948 Z M26.0311547,327 L15.9661547,327 L15.9661547,305.022 L19.0681547,305.022 L19.0681547,324.162 L26.0311547,324.162 L26.0311547,327 Z M31.7924709,327 L28.6574709,327 L28.6574709,305.022 L31.7924709,305.022 L31.7924709,327 Z M46.760787,306.441 L38.708787,324.162 L46.463787,324.162 L46.463787,327 L34.748787,327 L34.748787,325.581 L42.899787,307.893 L35.177787,307.893 L35.177787,305.022 L46.760787,305.022 L46.760787,306.441 Z M61.4321031,327 L58.2641031,327 L57.1091031,321.621 L52.3571031,321.621 L51.2021031,327 L48.1661031,327 L53.1491031,305.022 L56.4491031,305.022 L61.4321031,327 Z M56.5481031,318.948 L54.7331031,309.939 L52.9181031,318.948 L56.5481031,318.948 Z M82.0627354,327 L78.6637354,327 L74.5057354,317.199 L72.7567354,320.202 L72.7567354,327 L69.6547354,327 L69.6547354,305.022 L72.7567354,305.022 L72.7567354,315.714 L78.7297354,305.022 L82.0627354,305.022 L76.5187354,314.46 L82.0627354,327 Z M94.8860516,327 L84.6560516,327 L84.6560516,305.022 L94.8860516,305.022 L94.8860516,307.86 L87.7580516,307.86 L87.7580516,314.13 L92.9060516,314.13 L92.9060516,316.836 L87.7580516,316.836 L87.7580516,324.162 L94.8860516,324.162 L94.8860516,327 Z M108.072368,327 L98.0073677,327 L98.0073677,305.022 L101.109368,305.022 L101.109368,324.162 L108.072368,324.162 L108.072368,327 Z M120.763684,327 L110.698684,327 L110.698684,305.022 L113.800684,305.022 L113.800684,324.162 L120.763684,324.162 L120.763684,327 Z M135.204,305.022 L129.924,318.156 L129.924,327 L126.822,327 L126.822,318.156 L121.509,305.022 L124.875,305.022 L128.472,315.153 L132.069,305.022 L135.204,305.022 Z M153.128632,307.827 L146.132632,307.827 L146.132632,314.592 L151.511632,314.592 L151.511632,317.331 L146.132632,317.331 L146.132632,327 L142.997632,327 L142.997632,304.989 L153.128632,304.989 L153.128632,307.827 Z M167.535948,327 L164.367948,327 L163.212948,321.621 L158.460948,321.621 L157.305948,327 L154.269948,327 L159.252948,305.022 L162.552948,305.022 L167.535948,327 Z M162.651948,318.948 L160.836948,309.939 L159.021948,318.948 L162.651948,318.948 Z M182.504265,327.231 L181.811265,327.231 C179.336265,327.231 178.478265,326.538 178.478265,324.261 L178.478265,319.971 C178.478265,318.453 177.785265,317.43 176.201265,317.43 L173.099265,317.43 L173.099265,327 L169.964265,327 L169.964265,305.022 L176.333265,305.022 C179.897265,305.022 181.481265,306.804 181.481265,309.939 L181.481265,312.348 C181.481265,314.493 180.755265,315.78 178.643265,316.209 C180.722265,316.539 181.580265,318.288 181.580265,320.037 L181.580265,324.03 C181.580265,324.624 181.844265,324.888 182.504265,324.888 L182.504265,327.231 Z M178.346265,312.546 L178.346265,309.873 C178.346265,308.619 177.818265,307.728 176.333265,307.728 L173.099265,307.728 L173.099265,315.054 L176.003265,315.054 C177.521265,315.054 178.346265,314.196 178.346265,312.546 Z M196.944581,327 L193.776581,327 L192.621581,321.621 L187.869581,321.621 L186.714581,327 L183.678581,327 L188.661581,305.022 L191.961581,305.022 L196.944581,327 Z M192.060581,318.948 L190.245581,309.939 L188.430581,318.948 L192.060581,318.948 Z M211.219897,327 L209.668897,327 L209.074897,325.317 C208.315897,326.736 206.764897,327.495 204.784897,327.495 C200.956897,327.495 199.075897,324.822 199.075897,321.456 L199.075897,310.566 C199.075897,307.332 201.088897,304.56 205.213897,304.56 C209.371897,304.56 211.087897,307.035 211.087897,310.566 L211.087897,311.853 L208.117897,311.853 L208.117897,310.203 C208.117897,308.718 207.259897,307.332 205.213897,307.332 C203.167897,307.332 202.210897,308.784 202.210897,310.269 L202.210897,321.753 C202.210897,323.271 203.134897,324.723 205.213897,324.723 C207.292897,324.723 208.249897,323.271 208.249897,321.753 L208.249897,318.354 L205.312897,318.354 L205.312897,315.714 L211.219897,315.714 L211.219897,327 Z M227.178213,327 L224.076213,327 L224.076213,317.364 L217.839213,317.364 L217.839213,327 L214.704213,327 L214.704213,305.022 L217.839213,305.022 L217.839213,314.559 L224.076213,314.559 L224.076213,305.022 L227.178213,305.022 L227.178213,327 Z M241.354529,327 L231.124529,327 L231.124529,305.022 L241.354529,305.022 L241.354529,307.86 L234.226529,307.86 L234.226529,314.13 L239.374529,314.13 L239.374529,316.836 L234.226529,316.836 L234.226529,324.162 L241.354529,324.162 L241.354529,327 Z M257.015845,327.231 L256.322845,327.231 C253.847845,327.231 252.989845,326.538 252.989845,324.261 L252.989845,319.971 C252.989845,318.453 252.296845,317.43 250.712845,317.43 L247.610845,317.43 L247.610845,327 L244.475845,327 L244.475845,305.022 L250.844845,305.022 C254.408845,305.022 255.992845,306.804 255.992845,309.939 L255.992845,312.348 C255.992845,314.493 255.266845,315.78 253.154845,316.209 C255.233845,316.539 256.091845,318.288 256.091845,320.037 L256.091845,324.03 C256.091845,324.624 256.355845,324.888 257.015845,324.888 L257.015845,327.231 Z M252.857845,312.546 L252.857845,309.873 C252.857845,308.619 252.329845,307.728 250.844845,307.728 L247.610845,307.728 L247.610845,315.054 L250.514845,315.054 C252.032845,315.054 252.857845,314.196 252.857845,312.546 Z" id="Aliza-Kelly-Faragher"></path>
            <path d="M54.2449451,221 L51.4069451,221 L51.4069451,203.873 L50.5159451,208.064 L47.5129451,221 L44.4439451,221 L41.5069451,208.064 L40.5829451,203.873 L40.5829451,221 L37.8109451,221 L37.8109451,199.022 L42.1669451,199.022 L45.1699451,212.75 L46.0609451,216.941 L46.9519451,212.717 L49.8889451,199.022 L54.2449451,199.022 L54.2449451,221 Z M69.9062612,221 L66.7382612,221 L65.5832612,215.621 L60.8312612,215.621 L59.6762612,221 L56.6402612,221 L61.6232612,199.022 L64.9232612,199.022 L69.9062612,221 Z M65.0222612,212.948 L63.2072612,203.939 L61.3922612,212.948 L65.0222612,212.948 Z M84.8745774,221.231 L84.1815774,221.231 C81.7065774,221.231 80.8485774,220.538 80.8485774,218.261 L80.8485774,213.971 C80.8485774,212.453 80.1555774,211.43 78.5715774,211.43 L75.4695774,211.43 L75.4695774,221 L72.3345774,221 L72.3345774,199.022 L78.7035774,199.022 C82.2675774,199.022 83.8515774,200.804 83.8515774,203.939 L83.8515774,206.348 C83.8515774,208.493 83.1255774,209.78 81.0135774,210.209 C83.0925774,210.539 83.9505774,212.288 83.9505774,214.037 L83.9505774,218.03 C83.9505774,218.624 84.2145774,218.888 84.8745774,218.888 L84.8745774,221.231 Z M80.7165774,206.546 L80.7165774,203.873 C80.7165774,202.619 80.1885774,201.728 78.7035774,201.728 L75.4695774,201.728 L75.4695774,209.054 L78.3735774,209.054 C79.8915774,209.054 80.7165774,208.196 80.7165774,206.546 Z M98.3908935,201.893 L93.9028935,201.893 L93.9028935,221 L90.7678935,221 L90.7678935,201.893 L86.2468935,201.893 L86.2468935,199.022 L98.3908935,199.022 L98.3908935,201.893 Z M112.79821,199.022 L107.51821,212.156 L107.51821,221 L104.41621,221 L104.41621,212.156 L99.1032096,199.022 L102.46921,199.022 L106.06621,209.153 L109.66321,199.022 L112.79821,199.022 Z M138.939842,199.022 L134.880842,221 L131.844842,221 L129.072842,205.853 L126.102842,221 L123.066842,221 L119.205842,199.022 L122.373842,199.022 L124.683842,215.258 L127.785842,199.022 L130.623842,199.022 L133.461842,215.258 L135.870842,199.022 L138.939842,199.022 Z M144.503158,221 L141.368158,221 L141.368158,199.022 L144.503158,199.022 L144.503158,221 Z M160.857474,221 L158.646474,221 L153.201474,210.308 L151.353474,206.447 L151.353474,221 L148.383474,221 L148.383474,199.022 L150.924474,199.022 L156.138474,209.912 L157.887474,213.773 L157.887474,199.022 L160.857474,199.022 L160.857474,221 Z M176.84879,215.06 C176.84879,218.459 175.06679,221 170.97479,221 L164.77079,221 L164.77079,199.022 L170.97479,199.022 C175.06679,199.022 176.84879,201.563 176.84879,204.962 L176.84879,215.06 Z M173.74679,214.928 L173.74679,205.127 C173.74679,203.048 172.82279,201.893 170.77679,201.893 L167.90579,201.893 L167.90579,218.129 L170.77679,218.129 C172.82279,218.129 173.74679,216.974 173.74679,214.928 Z M192.213106,221 L189.045106,221 L187.890106,215.621 L183.138106,215.621 L181.983106,221 L178.947106,221 L183.930106,199.022 L187.230106,199.022 L192.213106,221 Z M187.329106,212.948 L185.514106,203.939 L183.699106,212.948 L187.329106,212.948 Z M207.115423,221 L204.013423,221 L204.013423,211.364 L197.776423,211.364 L197.776423,221 L194.641423,221 L194.641423,199.022 L197.776423,199.022 L197.776423,208.559 L204.013423,208.559 L204.013423,199.022 L207.115423,199.022 L207.115423,221 Z M221.126739,221 L211.061739,221 L211.061739,199.022 L214.163739,199.022 L214.163739,218.162 L221.126739,218.162 L221.126739,221 Z" id="marty-windahl"></path>
            <path d="M42.331,236.784 C42.331,240.722 38.899,244 32.387,244 L22.971,244 L22.971,229.348 L32.387,229.348 C38.899,229.348 42.331,232.56 42.331,236.52 L42.331,236.784 Z M34.543,236.828 L34.543,236.476 C34.543,235.002 33.817,233.77 31.837,233.77 L30.627,233.77 L30.627,239.534 L31.837,239.534 C33.817,239.534 34.543,238.302 34.543,236.828 Z M60.547,244 L43.761,244 L43.761,229.348 L60.547,229.348 L60.547,234.034 L51.417,234.034 L51.417,235.42 L57.137,235.42 L57.137,237.664 L51.417,237.664 L51.417,238.918 L60.547,238.918 L60.547,244 Z M87.981,244 L80.677,244 L80.677,236.102 L80.061,237.906 L77.927,244 L71.349,244 L69.237,237.906 L68.621,236.102 L68.621,244 L62.109,244 L62.109,229.348 L72.889,229.348 L74.869,235.09 L75.221,236.256 L75.573,235.09 L77.553,229.348 L87.981,229.348 L87.981,244 Z M109.321,236.784 C109.321,241.03 105.647,244.55 99.377,244.55 C93.085,244.55 89.411,241.03 89.411,236.784 L89.411,236.52 C89.411,232.252 93.085,228.798 99.377,228.798 C105.647,228.798 109.321,232.252 109.321,236.52 L109.321,236.784 Z M101.511,236.85 L101.511,236.476 C101.511,234.848 101.159,233.352 99.377,233.352 C97.595,233.352 97.221,234.848 97.221,236.476 L97.221,236.85 C97.221,238.456 97.595,239.952 99.377,239.952 C101.159,239.952 101.511,238.456 101.511,236.85 Z M129.847,244 L123.291,244 L118.165,238.918 L117.615,238.28 L117.615,244 L110.751,244 L110.751,229.348 L116.955,229.348 L122.455,234.474 L122.961,235.024 L122.961,229.348 L129.847,229.348 L129.847,244 Z M155.213,239.116 C155.213,242.416 152.243,244.55 145.643,244.55 C142.123,244.55 138.383,243.648 136.271,242.394 L138.339,238.852 C141.155,240.018 143.883,240.48 145.731,240.48 C147.007,240.48 147.777,240.238 147.777,239.842 C147.777,238.434 136.887,239.49 136.887,233.902 C136.887,231.108 139.967,228.798 145.973,228.798 C150.109,228.798 153.453,229.81 155.015,230.668 L152.793,234.034 C150.351,233.286 148.063,232.868 146.501,232.868 C145.445,232.868 144.785,233.066 144.785,233.484 C144.785,235.046 155.213,233.726 155.213,239.116 Z M174.419,234.452 L169.007,234.452 L169.007,244 L161.351,244 L161.351,234.452 L155.939,234.452 L155.939,229.348 L174.419,229.348 L174.419,234.452 Z M195.209,244 L187.267,244 L186.409,241.448 L181.943,241.448 L180.953,244 L174.265,244 L180.733,229.348 L188.609,229.348 L195.209,244 Z M185.309,238.104 L184.363,235.354 L183.285,238.104 L185.309,238.104 Z M214.811,244 L208.255,244 L203.129,238.918 L202.579,238.28 L202.579,244 L195.715,244 L195.715,229.348 L201.919,229.348 L207.419,234.474 L207.925,235.024 L207.925,229.348 L214.811,229.348 L214.811,244 Z M235.513,244 L231.201,244 L230.915,242.68 C229.551,243.912 227.593,244.55 225.569,244.55 C220.443,244.55 216.241,241.536 216.241,236.872 L216.241,236.608 C216.241,232.01 220.641,228.798 226.515,228.798 C230.167,228.798 232.917,229.48 235.161,230.58 L232.851,234.848 C231.201,234.1 229.727,233.682 228.011,233.682 C225.591,233.682 224.051,235.046 224.051,236.938 L224.051,237.07 C224.051,238.764 225.305,239.952 227.307,239.952 C228.451,239.952 229.375,239.468 229.859,238.742 L229.859,238.654 L226.383,238.654 L226.383,236.058 L235.513,236.058 L235.513,244 Z" id="demon-stang"></path>
            <path d="M118.14,1.72 L113.9,1.72 L113.9,5.82 L117.16,5.82 L117.16,7.48 L113.9,7.48 L113.9,13.34 L112,13.34 L112,0 L118.14,0 L118.14,1.72 Z M125.74,13.34 L119.54,13.34 L119.54,0.02 L125.74,0.02 L125.74,1.74 L121.42,1.74 L121.42,5.54 L124.54,5.54 L124.54,7.18 L121.42,7.18 L121.42,11.62 L125.74,11.62 L125.74,13.34 Z M134.5,13.34 L132.58,13.34 L131.88,10.08 L129,10.08 L128.3,13.34 L126.46,13.34 L129.48,0.02 L131.48,0.02 L134.5,13.34 Z M131.54,8.46 L130.44,3 L129.34,8.46 L131.54,8.46 Z M142.28,1.76 L139.56,1.76 L139.56,13.34 L137.66,13.34 L137.66,1.76 L134.92,1.76 L134.92,0.02 L142.28,0.02 L142.28,1.76 Z M145.26,13.34 L143.62,13.34 L143.62,11.08 L145.26,11.08 L145.26,13.34 Z" id="FEAT."></path>
        </g>
    </g>
</svg>