<svg viewBox="0 0 79.22 97.11" xmlns="http://www.w3.org/2000/svg"><g fill="#fff" transform="translate(-.6 -.4)"><path d="m13 97.24c-2.55 0-3.43-.72-3.43-3.06v-4.42c0-1.56-.72-2.62-2.35-2.62h-3.15v9.86h-3.23v-22.64h6.56c3.67 0 5.3 1.83 5.3 5.06v2.49c0 2.21-.75 3.53-2.92 4a3.67 3.67 0 0 1 3 4v4.11c0 .61.27.88.95.88v2.42zm-3.53-17.88c0-1.3-.54-2.21-2.07-2.21h-3.33v7.54h3c1.56 0 2.41-.88 2.41-2.58z"/><path d="m22.19 97.51c-4.25 0-6.33-2.79-6.33-6.49v-10.68c0-3.67 2.08-6.46 6.33-6.46s6.32 2.79 6.32 6.46v10.66c0 3.72-2.04 6.51-6.32 6.51zm3.12-17.44c0-1.94-1-3.33-3.12-3.33s-3.1 1.39-3.1 3.33v11.22c0 1.94 1 3.33 3.1 3.33s3.12-1.39 3.12-3.33z"/><path d="m37.89 97.51c-4.24 0-6.32-2.79-6.32-6.49v-10.68c0-3.67 2.08-6.46 6.32-6.46s6.33 2.79 6.33 6.46v10.66c0 3.72-2.04 6.51-6.33 6.51zm3.11-17.44c0-1.94-1-3.33-3.13-3.33s-3.09 1.39-3.09 3.33v11.22c0 1.94 1 3.33 3.09 3.33s3.13-1.39 3.13-3.33z"/><path d="m61.59 97v-17.64l-.92 4.31-3.09 13.33h-3.16l-3-13.33-1-4.31v17.64h-2.84v-22.64h4.49l3.1 14.14.91 4.32.92-4.35 3-14.11h4.49v22.64z"/><path d="m73.59 97.51c-3.74 0-6.22-2.45-6.22-5.75v-1.56h3.2v1c0 2.32 1.05 3.51 3.06 3.51a2.72 2.72 0 0 0 3-2.93c0-2-.88-3.26-3.74-5.06-2.55-1.64-5.24-3.84-5.24-7.11s2.15-5.78 6-5.78c3.67 0 6 2.42 6 5.75v1.46h-3v-1.04c0-1.91-.92-3.4-3.06-3.4a2.42 2.42 0 0 0 -2.69 2.58c0 2 .92 3.06 4.18 5.17s4.8 4 4.8 7a5.91 5.91 0 0 1 -6.29 6.16z"/><path d="m68 54.5v12.5h-30.3v-12.5h-37.1v-15.3l39.5-38.8h27.9v35.9h10v18.2zm-30.3-29.4-11 11.2h11z"/></g></svg>