<?xml version="1.0" encoding="UTF-8"?>
<svg width="513px" height="37px" viewBox="0 0 513 37" version="1.1" xmlns="http://www.w3.org/2000/svg" xmlns:xlink="http://www.w3.org/1999/xlink">
    <!-- Generator: Sketch 49.3 (51167) - http://www.bohemiancoding.com/sketch -->
    <title>hashtag</title>
    <desc>Created with Sketch.</desc>
    <defs></defs>
    <g id="03" stroke="none" stroke-width="1" fill="none" fill-rule="evenodd">
        <g id="Desktop-Copy-4" transform="translate(-322.000000, -1569.000000)" fill="#231F20">
            <g id="Group" transform="translate(289.000000, 1440.000000)">
                <path d="M67.9367985,144.162184 L60.819414,144.162184 L59.6584222,150.169054 L66.4224614,150.169054 L66.4224614,156.125447 L58.5479083,156.125447 L57.0335712,164 L50.4714437,164 L51.9857808,156.125447 L46.2817777,156.125447 L44.7674405,164 L38.205313,164 L39.7196501,156.125447 L33.6623017,156.125447 L33.6623017,150.169054 L40.8806419,150.169054 L42.0416337,144.162184 L35.2271167,144.162184 L35.2271167,138.205791 L43.1521476,138.205791 L44.6664847,130.381716 L51.1781343,130.381716 L49.6637972,138.205791 L55.3678004,138.205791 L56.8821375,130.381716 L63.444265,130.381716 L61.9299279,138.205791 L67.9367985,138.205791 L67.9367985,144.162184 Z M54.2572865,144.162184 L48.5532833,144.162184 L47.3922915,150.169054 L53.0962947,150.169054 L54.2572865,144.162184 Z M110.489672,164 L71.7226413,164 L71.7226413,130.381716 L89.2889519,130.381716 L89.2889519,152.339604 L110.489672,152.339604 L110.489672,164 Z M131.034178,164 L113.467868,164 L113.467868,130.381716 L131.034178,130.381716 L131.034178,164 Z M175.000433,141.133509 L153.1435,141.133509 L153.1435,145.22222 L164.198161,145.22222 L164.198161,151.178612 L153.1435,151.178612 L153.1435,164 L135.57719,164 L135.57719,130.381716 L175.000433,130.381716 L175.000433,141.133509 Z M216.089447,164 L177.574806,164 L177.574806,130.381716 L216.089447,130.381716 L216.089447,141.133509 L195.141117,141.133509 L195.141117,144.313617 L208.265372,144.313617 L208.265372,149.462364 L195.141117,149.462364 L195.141117,152.339604 L216.089447,152.339604 L216.089447,164 Z M261.368127,159.507467 C257.027027,163.141876 250.464899,165.261948 242.74178,165.261948 C228.002232,165.261948 218.41143,157.892174 218.41143,147.39277 L218.41143,146.988946 C218.41143,136.489542 228.002232,129.119768 242.74178,129.119768 C250.464899,129.119768 257.935629,131.542708 261.923384,134.874249 L255.361256,143.203104 C252.635449,141.436377 248.950562,140.224907 245.316153,140.224907 C240.217885,140.224907 236.331086,142.950714 236.331086,147.089902 L236.331086,147.291814 C236.331086,151.431002 240.217885,154.156809 245.316153,154.156809 C249.202952,154.156809 253.241184,152.69295 255.361256,151.178612 L261.368127,159.507467 Z M308.817356,147.443247 C308.817356,157.185483 300.387546,165.261948 286.001344,165.261948 C271.564663,165.261948 263.134853,157.185483 263.134853,147.443247 L263.134853,146.837513 C263.134853,137.044799 271.564663,129.119768 286.001344,129.119768 C300.387546,129.119768 308.817356,137.044799 308.817356,146.837513 L308.817356,147.443247 Z M290.8977,147.594681 L290.8977,146.736557 C290.8977,143.001192 290.090054,139.568694 286.001344,139.568694 C281.912634,139.568694 281.054509,143.001192 281.054509,146.736557 L281.054509,147.594681 C281.054509,151.279568 281.912634,154.712066 286.001344,154.712066 C290.090054,154.712066 290.8977,151.279568 290.8977,147.594681 Z M356.569454,164 L338.34693,164 L336.378292,158.144563 L326.131277,158.144563 L323.859772,164 L308.514489,164 L323.354993,130.381716 L341.426082,130.381716 L356.569454,164 Z M333.854397,150.471922 L331.683847,144.162184 L329.21043,150.471922 L333.854397,150.471922 Z M399.425194,159.507467 C395.084094,163.141876 388.521967,165.261948 380.798847,165.261948 C366.059299,165.261948 356.468498,157.892174 356.468498,147.39277 L356.468498,146.988946 C356.468498,136.489542 366.059299,129.119768 380.798847,129.119768 C388.521967,129.119768 395.992697,131.542708 399.980451,134.874249 L393.418323,143.203104 C390.692517,141.436377 387.00763,140.224907 383.373221,140.224907 C378.274952,140.224907 374.388154,142.950714 374.388154,147.089902 L374.388154,147.291814 C374.388154,151.431002 378.274952,154.156809 383.373221,154.156809 C387.260019,154.156809 391.298251,152.69295 393.418323,151.178612 L399.425194,159.507467 Z M446.521078,164 L428.90429,164 L428.90429,152.339604 L420.020179,152.339604 L420.020179,164 L402.453868,164 L402.453868,130.381716 L420.020179,130.381716 L420.020179,143.001192 L428.90429,143.001192 L428.90429,130.381716 L446.521078,130.381716 L446.521078,164 Z M494.878911,164 L479.836495,164 L468.075143,152.339604 L466.813196,150.875745 L466.813196,164 L451.06409,164 L451.06409,130.381716 L465.298859,130.381716 L477.918335,142.143068 L479.079327,143.405015 L479.079327,130.381716 L494.878911,130.381716 L494.878911,164 Z M545.760638,130.381716 L529.557231,152.591994 L529.557231,164 L511.99092,164 L511.99092,152.591994 L496.191336,130.381716 L515.625329,130.381716 L522.086501,140.174429 L528.295283,130.381716 L545.760638,130.381716 Z" id="hashtag" transform="translate(289.711470, 147.190858) rotate(-360.000000) translate(-289.711470, -147.190858) "></path>
            </g>
        </g>
    </g>
</svg>