<?xml version="1.0" encoding="UTF-8"?>
<svg width="372px" height="25px" viewBox="0 0 372 25" version="1.1" xmlns="http://www.w3.org/2000/svg" xmlns:xlink="http://www.w3.org/1999/xlink">
    <!-- Generator: Sketch 49.3 (51167) - http://www.bohemiancoding.com/sketch -->
    <title>107 GRAND STREET, SO</title>
    <desc>Created with Sketch.</desc>
    <defs></defs>
    <g id="03" stroke="none" stroke-width="1" fill="none" fill-rule="evenodd">
        <path d="M2.968,22 L0.178,22 L0.178,2.687 C1.17,2.687 1.511,2.036 1.511,1.354 L2.968,1.354 L2.968,22 Z M17.507,17.102 C17.507,20.295 15.368,22.465 12.02,22.465 C8.641,22.465 6.533,20.295 6.533,17.102 L6.533,6.252 C6.533,3.059 8.641,0.889 12.02,0.889 C15.368,0.889 17.507,3.059 17.507,6.252 L17.507,17.102 Z M14.748,17.381 L14.748,5.973 C14.748,4.578 13.725,3.431 12.02,3.431 C10.315,3.431 9.261,4.578 9.261,5.973 L9.261,17.381 C9.261,18.776 10.315,19.923 12.02,19.923 C13.725,19.923 14.748,18.776 14.748,17.381 Z M30.31,3.183 C26.683,10.158 24.513,15.304 24.451,22 L21.475,22 C21.599,16.234 24.296,9.476 27.396,3.958 L19.646,3.958 L19.646,1.354 L30.31,1.354 L30.31,3.183 Z M48.352,22 L46.895,22 L46.337,20.419 C45.624,21.752 44.167,22.465 42.307,22.465 C38.711,22.465 36.944,19.954 36.944,16.792 L36.944,6.562 C36.944,3.524 38.835,0.92 42.71,0.92 C46.616,0.92 48.228,3.245 48.228,6.562 L48.228,7.771 L45.438,7.771 L45.438,6.221 C45.438,4.826 44.632,3.524 42.71,3.524 C40.788,3.524 39.889,4.888 39.889,6.283 L39.889,17.071 C39.889,18.497 40.757,19.861 42.71,19.861 C44.663,19.861 45.562,18.497 45.562,17.071 L45.562,13.878 L42.803,13.878 L42.803,11.398 L48.352,11.398 L48.352,22 Z M63.046,22.217 L62.395,22.217 C60.07,22.217 59.264,21.566 59.264,19.427 L59.264,15.397 C59.264,13.971 58.613,13.01 57.125,13.01 L54.211,13.01 L54.211,22 L51.266,22 L51.266,1.354 L57.249,1.354 C60.597,1.354 62.085,3.028 62.085,5.973 L62.085,8.236 C62.085,10.251 61.403,11.46 59.419,11.863 C61.372,12.173 62.178,13.816 62.178,15.459 L62.178,19.21 C62.178,19.768 62.426,20.016 63.046,20.016 L63.046,22.217 Z M59.14,8.422 L59.14,5.911 C59.14,4.733 58.644,3.896 57.249,3.896 L54.211,3.896 L54.211,10.778 L56.939,10.778 C58.365,10.778 59.14,9.972 59.14,8.422 Z M76.252,22 L73.276,22 L72.191,16.947 L67.727,16.947 L66.642,22 L63.79,22 L68.471,1.354 L71.571,1.354 L76.252,22 Z M71.664,14.436 L69.959,5.973 L68.254,14.436 L71.664,14.436 Z M89.861,22 L87.784,22 L82.669,11.956 L80.933,8.329 L80.933,22 L78.143,22 L78.143,1.354 L80.53,1.354 L85.428,11.584 L87.071,15.211 L87.071,1.354 L89.861,1.354 L89.861,22 Z M104.524,16.42 C104.524,19.613 102.85,22 99.006,22 L93.178,22 L93.178,1.354 L99.006,1.354 C102.85,1.354 104.524,3.741 104.524,6.934 L104.524,16.42 Z M101.61,16.296 L101.61,7.089 C101.61,5.136 100.742,4.051 98.82,4.051 L96.123,4.051 L96.123,19.303 L98.82,19.303 C100.742,19.303 101.61,18.218 101.61,16.296 Z M123.279,16.854 C123.279,20.264 120.861,22.465 117.606,22.465 C114.196,22.465 111.933,20.233 111.933,17.226 L111.933,15.8 L114.847,15.8 L114.847,16.761 C114.847,18.869 115.808,19.954 117.637,19.954 C119.435,19.954 120.365,18.869 120.365,17.288 C120.365,15.459 119.559,14.312 116.955,12.669 C114.63,11.181 112.181,9.166 112.181,6.19 C112.181,3.245 114.134,0.92 117.637,0.92 C120.985,0.92 123.124,3.121 123.124,6.159 L123.124,7.492 L120.334,7.492 L120.334,6.531 C120.334,4.795 119.497,3.431 117.544,3.431 C115.932,3.431 115.095,4.392 115.095,5.787 C115.095,7.616 115.932,8.577 118.908,10.499 C121.915,12.452 123.279,14.188 123.279,16.854 Z M136.051,4.051 L131.835,4.051 L131.835,22 L128.89,22 L128.89,4.051 L124.643,4.051 L124.643,1.354 L136.051,1.354 L136.051,4.051 Z M149.908,22.217 L149.257,22.217 C146.932,22.217 146.126,21.566 146.126,19.427 L146.126,15.397 C146.126,13.971 145.475,13.01 143.987,13.01 L141.073,13.01 L141.073,22 L138.128,22 L138.128,1.354 L144.111,1.354 C147.459,1.354 148.947,3.028 148.947,5.973 L148.947,8.236 C148.947,10.251 148.265,11.46 146.281,11.863 C148.234,12.173 149.04,13.816 149.04,15.459 L149.04,19.21 C149.04,19.768 149.288,20.016 149.908,20.016 L149.908,22.217 Z M146.002,8.422 L146.002,5.911 C146.002,4.733 145.506,3.896 144.111,3.896 L141.073,3.896 L141.073,10.778 L143.801,10.778 C145.227,10.778 146.002,9.972 146.002,8.422 Z M161.719,22 L152.109,22 L152.109,1.354 L161.719,1.354 L161.719,4.02 L155.023,4.02 L155.023,9.91 L159.859,9.91 L159.859,12.452 L155.023,12.452 L155.023,19.334 L161.719,19.334 L161.719,22 Z M173.902,22 L164.292,22 L164.292,1.354 L173.902,1.354 L173.902,4.02 L167.206,4.02 L167.206,9.91 L172.042,9.91 L172.042,12.452 L167.206,12.452 L167.206,19.334 L173.902,19.334 L173.902,22 Z M186.612,4.051 L182.396,4.051 L182.396,22 L179.451,22 L179.451,4.051 L175.204,4.051 L175.204,1.354 L186.612,1.354 L186.612,4.051 Z M191.231,21.597 C191.231,23.55 190.301,24.945 188.131,24.945 L188.131,24.046 C189.216,24.046 189.836,23.271 189.836,22 L188.689,22 L188.689,18.497 L191.231,18.497 L191.231,21.597 Z M210.234,16.854 C210.234,20.264 207.816,22.465 204.561,22.465 C201.151,22.465 198.888,20.233 198.888,17.226 L198.888,15.8 L201.802,15.8 L201.802,16.761 C201.802,18.869 202.763,19.954 204.592,19.954 C206.39,19.954 207.32,18.869 207.32,17.288 C207.32,15.459 206.514,14.312 203.91,12.669 C201.585,11.181 199.136,9.166 199.136,6.19 C199.136,3.245 201.089,0.92 204.592,0.92 C207.94,0.92 210.079,3.121 210.079,6.159 L210.079,7.492 L207.289,7.492 L207.289,6.531 C207.289,4.795 206.452,3.431 204.499,3.431 C202.887,3.431 202.05,4.392 202.05,5.787 C202.05,7.616 202.887,8.577 205.863,10.499 C208.87,12.452 210.234,14.188 210.234,16.854 Z M224.122,16.544 C224.122,19.923 222.262,22.465 218.356,22.465 C214.481,22.465 212.59,19.923 212.59,16.544 L212.59,6.81 C212.59,3.462 214.481,0.92 218.356,0.92 C222.262,0.92 224.122,3.462 224.122,6.81 L224.122,16.544 Z M221.208,16.792 L221.208,6.562 C221.208,4.795 220.278,3.524 218.356,3.524 C216.434,3.524 215.535,4.795 215.535,6.562 L215.535,16.792 C215.535,18.559 216.434,19.83 218.356,19.83 C220.278,19.83 221.208,18.559 221.208,16.792 Z M238.909,22 L235.995,22 L235.995,12.948 L230.136,12.948 L230.136,22 L227.191,22 L227.191,1.354 L230.136,1.354 L230.136,10.313 L235.995,10.313 L235.995,1.354 L238.909,1.354 L238.909,22 Z M253.51,16.544 C253.51,19.923 251.65,22.465 247.744,22.465 C243.869,22.465 241.978,19.923 241.978,16.544 L241.978,6.81 C241.978,3.462 243.869,0.92 247.744,0.92 C251.65,0.92 253.51,3.462 253.51,6.81 L253.51,16.544 Z M250.596,16.792 L250.596,6.562 C250.596,4.795 249.666,3.524 247.744,3.524 C245.822,3.524 244.923,4.795 244.923,6.562 L244.923,16.792 C244.923,18.559 245.822,19.83 247.744,19.83 C249.666,19.83 250.596,18.559 250.596,16.792 Z M259.121,21.597 C259.121,23.55 258.191,24.945 256.021,24.945 L256.021,24.046 C257.106,24.046 257.726,23.271 257.726,22 L256.579,22 L256.579,18.497 L259.121,18.497 L259.121,21.597 Z M279.209,22 L277.132,22 L272.017,11.956 L270.281,8.329 L270.281,22 L267.491,22 L267.491,1.354 L269.878,1.354 L274.776,11.584 L276.419,15.211 L276.419,1.354 L279.209,1.354 L279.209,22 Z M292.136,22 L282.526,22 L282.526,1.354 L292.136,1.354 L292.136,4.02 L285.44,4.02 L285.44,9.91 L290.276,9.91 L290.276,12.452 L285.44,12.452 L285.44,19.334 L292.136,19.334 L292.136,22 Z M311.945,1.354 L308.132,22 L305.28,22 L302.676,7.771 L299.886,22 L297.034,22 L293.407,1.354 L296.383,1.354 L298.553,16.606 L301.467,1.354 L304.133,1.354 L306.799,16.606 L309.062,1.354 L311.945,1.354 Z M330.049,1.354 L325.089,13.692 L325.089,22 L322.175,22 L322.175,13.692 L317.184,1.354 L320.346,1.354 L323.725,10.871 L327.104,1.354 L330.049,1.354 Z M342.821,16.544 C342.821,19.923 340.961,22.465 337.055,22.465 C333.18,22.465 331.289,19.923 331.289,16.544 L331.289,6.81 C331.289,3.462 333.18,0.92 337.055,0.92 C340.961,0.92 342.821,3.462 342.821,6.81 L342.821,16.544 Z M339.907,16.792 L339.907,6.562 C339.907,4.795 338.977,3.524 337.055,3.524 C335.133,3.524 334.234,4.795 334.234,6.562 L334.234,16.792 C334.234,18.559 335.133,19.83 337.055,19.83 C338.977,19.83 339.907,18.559 339.907,16.792 Z M357.67,22.217 L357.019,22.217 C354.694,22.217 353.888,21.566 353.888,19.427 L353.888,15.397 C353.888,13.971 353.237,13.01 351.749,13.01 L348.835,13.01 L348.835,22 L345.89,22 L345.89,1.354 L351.873,1.354 C355.221,1.354 356.709,3.028 356.709,5.973 L356.709,8.236 C356.709,10.251 356.027,11.46 354.043,11.863 C355.996,12.173 356.802,13.816 356.802,15.459 L356.802,19.21 C356.802,19.768 357.05,20.016 357.67,20.016 L357.67,22.217 Z M353.764,8.422 L353.764,5.911 C353.764,4.733 353.268,3.896 351.873,3.896 L348.835,3.896 L348.835,10.778 L351.563,10.778 C352.989,10.778 353.764,9.972 353.764,8.422 Z M371.527,22 L368.334,22 L364.428,12.793 L362.785,15.614 L362.785,22 L359.871,22 L359.871,1.354 L362.785,1.354 L362.785,11.398 L368.396,1.354 L371.527,1.354 L366.319,10.22 L371.527,22 Z" id="107-GRAND-STREET,-SO" fill="#FFFFFF"></path>
    </g>
</svg>