<svg height="36" viewBox="0 0 174 36" width="174" xmlns="http://www.w3.org/2000/svg"><path d="m17.956 26.33c0 5.508-2.499 9.435-8.619 9.435-5.814 0-8.823-3.315-8.823-8.874v-5.406h4.539v5.253c0 3.162 1.428 4.692 4.131 4.692s3.927-1.53 3.927-4.692v-25.704h4.845zm24.225.561c0 5.61-3.927 8.874-9.486 8.874-5.508 0-9.435-3.264-9.435-8.874v-25.857h4.845v25.857c0 3.009 1.479 4.641 4.641 4.641s4.641-1.632 4.641-4.641v-25.857h4.794zm24.633 8.109h-3.417l-8.415-16.524-2.856-5.967v22.491h-4.59v-33.966h3.927l8.058 16.83 2.703 5.967v-22.797h4.59zm21.267 0h-15.81v-33.966h15.81v4.386h-11.016v9.69h7.956v4.182h-7.956v11.322h11.016zm17.901 0h-4.59v-31.773c1.632 0 2.193-1.071 2.193-2.193h2.397zm22.338-26.112c0 4.539-2.856 8.466-7.854 12.546-3.57 3.621-4.743 6.834-4.743 9.18h12.291v4.386h-17.085v-1.836c0-4.845 1.071-8.568 7.14-14.739 4.131-3.876 5.967-6.375 5.967-9.741 0-2.754-1.377-4.437-4.182-4.437-2.958 0-4.233 1.683-4.233 4.59v3.111h-4.08v-3.162c0-4.539 2.703-8.517 8.262-8.517 6.171 0 8.517 4.029 8.517 8.619zm13.464 12.393h-10.71v-3.876h10.71zm9.639 13.719h-4.59v-31.773c1.632 0 2.193-1.071 2.193-2.193h2.397zm22.287-30.957c-5.967 11.475-9.537 19.941-9.639 30.957h-4.896c.204-9.486 4.641-20.604 9.741-29.682h-12.75v-4.284h17.544z" fill="#fff" fill-rule="evenodd"/></svg>