<svg viewBox="0 0 151.6 296.87" xmlns="http://www.w3.org/2000/svg"><g fill="#231f20" transform="translate(-.4 -.45)"><path d="m44 281.4h-42v-21.95h42z"/><path d="m15.42 231.81h5.11v-13.81h7.47v13.82h16v22h-42v-49.33h13.42z"/><path d="m44 149.47-14.58 14.7-1.82 1.58h16.4v19.68h-42v-17.79l14.7-15.77 1.58-1.45h-16.28v-19.75h42z"/><path d="m45.58 98c0 18-10.1 28.58-22.28 28.58h-.75c-12.24-.02-22.15-10.58-22.15-28.58s9.91-28.52 22.15-28.52h.75c12.18-.02 22.28 10.52 22.28 28.52zm-23.16-6.14c-4.67 0-9 1-9 6.12s4.29 6.19 9 6.19h1.07c4.61 0 8.9-1.08 8.9-6.19s-4.29-6.12-8.9-6.12z"/><path d="m16.62 30.79h27.38v22h-27.38v15.47h-14.62v-53h14.62z"/><path d="m98 221.75-14.58 14.7-1.82 1.55h16.4v19.68h-42v-17.76l14.7-15.78 1.58-1.45h-16.28v-19.75h42z"/><path d="m99.58 170.26c0 18-10.1 28.58-22.28 28.58h-.75c-12.24 0-22.15-10.54-22.15-28.58s9.91-28.52 22.15-28.52h.75c12.18 0 22.28 10.54 22.28 28.52zm-23.16-6.12c-4.67 0-9 1-9 6.12s4.29 6.18 9 6.18h1.07c4.61 0 8.9-1.07 8.9-6.18s-4.29-6.12-8.9-6.12z"/><path d="m98 69.93v23.91l-21.14 6.63 21.14 6.62v21.52l-42 14.7v-23.53l21.64-6-21.64-6.06v-21.26l21.89-6.37-21.89-6.37v-18.72z"/><path d="m107.46 61.67h-3.53c0-2.84-2.71-5.24-5.93-5.24v5.24h-12.93v-13.5h12.05c5.67 0 10.34 4.54 10.34 13.5z"/><path d="m152 223.94v23.92l-21.14 6.62 21.14 6.63v21.51l-42 14.7v-23.53l21.64-6-21.64-6.05v-21.27l21.89-6.37-21.89-6.37v-18.68z"/><path d="m152 175.36h-14.58v11.1h14.58v22h-42v-22h15.77v-11.1h-15.77v-22h42z"/><path d="m152 148.92h-42v-48.14h13.44v26.22h4v-16.4h6.44v16.4h3.59v-26.22h14.53z"/><path d="m152 61.59-14.58 14.7-1.82 1.58h16.4v19.69h-42v-17.8l14.68-15.76 1.58-1.45h-16.26v-19.76h42z"/><path d="m136.73 17.11v12.89c-8.83 0-10.41-10.54-13.19-10.54-1.32 0-2.27 1.39-2.27 4.73 0 3.54 1.08 8.4 2.65 13.32l-10.41 4.16c-3.53-7.13-5.11-12.74-5.11-20.38 0-13.5 5.87-20.82 12.18-20.82 9.65-.02 9.65 16.64 16.15 16.64zm15.27 12.68h-12.24v-12.49h12.24z"/></g></svg>