<?xml version="1.0" encoding="UTF-8"?>
<svg width="79px" height="370px" viewBox="0 0 79 370" version="1.1" xmlns="http://www.w3.org/2000/svg" xmlns:xlink="http://www.w3.org/1999/xlink">
    <!-- Generator: Sketch 49.3 (51167) - http://www.bohemiancoding.com/sketch -->
    <title>indreams</title>
    <desc>Created with Sketch.</desc>
    <defs></defs>
    <g id="03" stroke="none" stroke-width="1" fill="none" fill-rule="evenodd">
        <g id="Desktop-Copy-4" transform="translate(-1260.000000, -1831.000000)" fill="#231F20">
            <g id="Group" transform="translate(1296.000000, 2016.500000) rotate(-270.000000) translate(-1296.000000, -2016.500000) translate(1007.500000, 1872.500000)">
                <g id="indreams" transform="translate(288.000000, 136.500000) rotate(-180.000000) translate(-288.000000, -136.500000) translate(103.000000, 93.000000)">
                    <path d="M18.1043685,35 L0.538057912,35 L0.538057912,1.38171594 L18.1043685,1.38171594 L18.1043685,35 Z M66.4622005,35 L51.4197851,35 L39.6584335,23.3396042 L38.3964859,21.875745 L38.3964859,35 L22.6473799,35 L22.6473799,1.38171594 L36.8821488,1.38171594 L49.5016248,13.1430676 L50.6626166,14.4050152 L50.6626166,1.38171594 L66.4622005,1.38171594 L66.4622005,35 Z M127.843332,18.4432475 C127.843332,27.4787923 119.968779,35 105.027319,35 L83.4227763,35 L83.4227763,1.38171594 L105.027319,1.38171594 C119.968779,1.38171594 127.843332,8.75148992 127.843332,17.8375126 L127.843332,18.4432475 Z M109.974154,18.5442033 L109.974154,17.7365568 C109.974154,14.3545373 108.308383,11.5277746 103.765372,11.5277746 L100.989087,11.5277746 L100.989087,24.7529855 L103.765372,24.7529855 C108.308383,24.7529855 109.974154,21.9262229 109.974154,18.5442033 Z M174.030614,35 L158.685331,35 C156.666215,35 154.647099,32.7789722 154.647099,29.8007759 L154.647099,26.7216237 C154.647099,24.3491623 154.14232,23.1376926 151.567947,23.1376926 L148.640228,23.1376926 L148.640228,35 L131.124396,35 L131.124396,1.38171594 L158.130074,1.38171594 C167.266575,1.38171594 172.768666,5.36947035 172.768666,10.7706061 L172.768666,11.2249072 C172.768666,14.4554931 169.689514,17.7870347 164.74268,18.7461149 C170.598116,19.3013719 172.213409,22.7338693 172.213409,26.6206679 L172.213409,29.3969527 C172.213409,31.5170246 172.718188,33.0818396 174.030614,34.495221 L174.030614,35 Z M155.000444,14.1021477 L155.000444,13.950714 C155.000444,12.1839874 154.041364,11.5277746 151.416513,11.5277746 L148.640228,11.5277746 L148.640228,16.8784325 L151.416513,16.8784325 C154.041364,16.8784325 155.000444,15.7679186 155.000444,14.1021477 Z M214.917716,35 L176.403075,35 L176.403075,1.38171594 L214.917716,1.38171594 L214.917716,12.1335095 L193.969386,12.1335095 L193.969386,15.3136174 L207.093641,15.3136174 L207.093641,20.4623636 L193.969386,20.4623636 L193.969386,23.3396042 L214.917716,23.3396042 L214.917716,35 Z M262.972681,35 L244.750157,35 L242.781519,29.1445631 L232.534505,29.1445631 L230.262999,35 L214.917716,35 L229.75822,1.38171594 L247.82931,1.38171594 L262.972681,35 Z M240.257624,21.4719217 L238.087074,15.1621837 L235.613657,21.4719217 L240.257624,21.4719217 Z M323.495688,35 L306.737024,35 L306.737024,16.8784325 L305.323642,21.0176206 L300.427286,35 L285.334392,35 L280.488513,21.0176206 L279.075132,16.8784325 L279.075132,35 L264.133673,35 L264.133673,1.38171594 L288.867846,1.38171594 L293.410857,14.5564489 L294.218503,17.2317778 L295.02615,14.5564489 L299.569161,1.38171594 L323.495688,1.38171594 L323.495688,35 Z M369.026757,23.7939053 C369.026757,31.3655909 362.21224,36.2619476 347.068869,36.2619476 C338.992404,36.2619476 330.411161,34.1923535 325.565282,31.315113 L330.310205,23.1881705 C336.771376,25.8634994 343.030637,26.9235354 347.27078,26.9235354 C350.198499,26.9235354 351.965226,26.3682784 351.965226,25.4596761 C351.965226,22.2290903 326.978663,24.6520297 326.978663,11.8306421 C326.978663,5.41994826 334.04557,0.119768336 347.826037,0.119768336 C357.315883,0.119768336 364.988525,2.44175192 368.572456,4.41039018 L363.474188,12.1335095 C357.87114,10.4172608 352.621438,9.45818058 349.037507,9.45818058 C346.614568,9.45818058 345.100231,9.91248171 345.100231,10.8715619 C345.100231,14.4554931 369.026757,11.4268188 369.026757,23.7939053 Z" id="IN-DREAMS"></path>
                    <path d="M81.1069155,43.3817159 L69.1941301,77 L50.0630045,77 L44.7628246,60.0899022 L39.4626447,77 L22.2496794,77 L10.4883278,43.3817159 L29.316586,43.3817159 L34.1119869,60.695637 L38.9578656,43.3817159 L55.9689193,43.3817159 L61.0671876,60.8975486 L66.1654559,43.3817159 L81.1069155,43.3817159 Z M121.135893,77 L82.6212526,77 L82.6212526,43.3817159 L121.135893,43.3817159 L121.135893,54.1335095 L100.187563,54.1335095 L100.187563,57.3136174 L113.311818,57.3136174 L113.311818,62.4623636 L100.187563,62.4623636 L100.187563,65.3396042 L121.135893,65.3396042 L121.135893,77 Z M178.478792,55.0925897 L166.061228,55.0925897 L166.061228,77 L148.494917,77 L148.494917,55.0925897 L136.077353,55.0925897 L136.077353,43.3817159 L178.478792,43.3817159 L178.478792,55.0925897 Z M224.615597,77 L209.270314,77 C207.251198,77 205.232081,74.7789722 205.232081,71.8007759 L205.232081,68.7216237 C205.232081,66.3491623 204.727302,65.1376926 202.152929,65.1376926 L199.225211,65.1376926 L199.225211,77 L181.709378,77 L181.709378,43.3817159 L208.715057,43.3817159 C217.851557,43.3817159 223.353649,47.3694704 223.353649,52.7706061 L223.353649,53.2249072 C223.353649,56.4554931 220.274497,59.7870347 215.327662,60.7461149 C221.183099,61.3013719 222.798392,64.7338693 222.798392,68.6206679 L222.798392,71.3969527 C222.798392,73.5170246 223.303171,75.0818396 224.615597,76.495221 L224.615597,77 Z M205.585427,56.1021477 L205.585427,55.950714 C205.585427,54.1839874 204.626347,53.5277746 202.001496,53.5277746 L199.225211,53.5277746 L199.225211,58.8784325 L202.001496,58.8784325 C204.626347,58.8784325 205.585427,57.7679186 205.585427,56.1021477 Z M270.701923,62.5633195 C270.701923,71.3464748 264.74553,78.2619476 248.84499,78.2619476 C232.994929,78.2619476 226.735669,71.3464748 226.735669,62.5633195 L226.735669,43.3817159 L244.301979,43.3817159 L244.301979,61.3013719 C244.301979,65.4910379 245.563927,67.3082424 249.753593,67.3082424 C253.943259,67.3082424 255.104251,65.4910379 255.104251,61.3013719 L255.104251,43.3817159 L270.701923,43.3817159 L270.701923,62.5633195 Z M315.980603,65.7939053 C315.980603,73.3655909 309.166086,78.2619476 294.022715,78.2619476 C285.94625,78.2619476 277.365006,76.1923535 272.519127,73.315113 L277.26405,65.1881705 C283.725222,67.8634994 289.984482,68.9235354 294.224626,68.9235354 C297.152345,68.9235354 298.919071,68.3682784 298.919071,67.4596761 C298.919071,64.2290903 273.932509,66.6520297 273.932509,53.8306421 C273.932509,47.4199483 280.999415,42.1197683 294.779883,42.1197683 C304.269729,42.1197683 311.94237,44.4417519 315.526302,46.4103902 L310.428033,54.1335095 C304.824986,52.4172608 299.575284,51.4581806 295.991353,51.4581806 C293.568413,51.4581806 292.054076,51.9124817 292.054076,52.8715619 C292.054076,56.4554931 315.980603,53.4268188 315.980603,65.7939053 Z M360.047813,55.0925897 L347.630249,55.0925897 L347.630249,77 L330.063938,77 L330.063938,55.0925897 L317.646374,55.0925897 L317.646374,43.3817159 L360.047813,43.3817159 L360.047813,55.0925897 Z" id="WE-TRUST"></path>
                </g>
            </g>
        </g>
    </g>
</svg>