<svg viewBox="0 0 650.22 79.8" xmlns="http://www.w3.org/2000/svg"><g fill="#fff" transform="translate(-1.35 -.45)"><path d="m520.86 79-11.65-11.55-1.21-1.45v13h-15.65v-33.3h14.11l12.54 11.65 1.15 1.25v-12.9h15.65v33.3z"/><path d="m560.86 80.25c-14.3 0-22.65-8-22.65-17.65v-.6c0-9.7 8.35-17.55 22.65-17.55s22.6 7.85 22.6 17.55v.6c0 9.65-8.35 17.65-22.6 17.65zm4.85-18.35c0-3.7-.8-7.1-4.85-7.1s-4.9 3.4-4.9 7.1v.85c0 3.65.85 7 4.9 7s4.85-3.4 4.85-7z"/><path d="m639.76 79h-19l-5.25-16.75-5.2 16.75h-17l-11.7-33.3h18.65l4.74 17.15 4.8-17.15h16.85l5.05 17.35 5-17.35h14.81z"/><path d="m370.42 67.7v11.3h-17.42v-11.3l-15.65-22h19.25l6.4 9.7 6.15-9.7h17.3z"/><path d="m405.47 80.25c-14.3 0-22.65-8-22.65-17.65v-.6c0-9.7 8.35-17.55 22.65-17.55s22.6 7.85 22.6 17.55v.6c0 9.65-8.35 17.65-22.6 17.65zm4.85-18.35c0-3.7-.8-7.1-4.85-7.1s-4.9 3.4-4.9 7.1v.85c0 3.65.85 7 4.9 7s4.85-3.4 4.85-7z"/><path d="m450 80.25c-15.7 0-21.9-6.85-21.9-15.55v-19h17.4v17.75c0 4.15 1.25 6 5.4 6s5.3-1.8 5.3-6v-17.75h15.45v19c.02 8.7-5.88 15.55-21.65 15.55z"/><path d="m59.5 79h-19l-5.2-16.75-5.25 16.75h-17.05l-11.65-33.3h18.65l4.75 17.15 4.8-17.15h16.85l5.05 17.35 5-17.35h14.85z"/><path d="m72.8 79v-33.3h17.4v33.3z"/><path d="m94.7 79v-33.3h17.4v21.75h21v11.55z"/><path d="m136.05 79v-33.3h17.4v21.75h21v11.55z"/><path d="m212.63 80.25c-8 0-16.51-2-21.31-4.9l4.71-8a46.4 46.4 0 0 0 16.8 3.7c2.9 0 4.65-.55 4.65-1.45 0-3.2-24.75-.8-24.75-13.5 0-6.35 7-11.6 20.65-11.6 9.4 0 17 2.3 20.55 4.25l-5.05 7.65a53.45 53.45 0 0 0 -14.3-2.65c-2.4 0-3.9.45-3.9 1.4 0 3.55 23.7.55 23.7 12.8 0 7.45-6.75 12.3-21.75 12.3z"/><path d="m237.32 79v-33.3h38.16v10.65h-20.75v3.15h13v5.1h-13v2.85h20.75v11.55z"/><path d="m279 79v-33.3h38.16v10.65h-20.73v3.15h13v5.1h-13v2.85h20.75v11.55z"/><path d="m92.26 13.3v21.7h-17.4v-21.7h-12.3v-11.6h42v11.6z"/><path d="m134 35v-11.55h-8.8v11.55h-17.45v-33.3h17.41v12.5h8.84v-12.5h17.45v33.3z"/><path d="m155.9 35v-33.3h38.16v10.65h-20.75v3.15h13v5.1h-13v2.85h20.75v11.55z"/><path d="m215 36v-33.3h17.4v21.75h21v11.55z"/><path d="m256.32 36v-33.3h17.41v33.3z"/><path d="m295.63 13.35v4h10.95v5.9h-10.95v12.75h-17.41v-33.3h39.06v10.65z"/><path d="m319.82 36v-33.3h38.18v10.65h-20.78v3.15h13v5.1h-13v2.85h20.78v11.55z"/><path d="m401.09 36.25c-14.6 0-24.11-7.3-24.11-17.7v-.4c0-10.4 9.51-17.7 24.11-17.7 7.65 0 15.05 2.4 19 5.7l-6.5 8.25a18.92 18.92 0 0 0 -9.95-3c-5.05 0-8.9 2.7-8.9 6.8v.2c0 4.1 3.85 6.8 8.9 6.8a18.77 18.77 0 0 0 9.95-2.95l6 8.25c-4.35 3.65-10.85 5.75-18.5 5.75z"/><path d="m442.94 36.25c-14.3 0-22.65-8-22.65-17.65v-.6c0-9.7 8.35-17.55 22.65-17.55s22.6 7.85 22.6 17.55v.6c0 9.65-8.35 17.65-22.6 17.65zm4.85-18.35c0-3.7-.8-7.1-4.85-7.1s-4.9 3.4-4.9 7.1v.85c0 3.65.85 7.05 4.9 7.05s4.85-3.4 4.85-7z"/><path d="m492 35-1.95-5.8h-10.12l-2.25 5.8h-15.2l14.7-33.3h17.9l15 33.3zm-6.6-19.65-2.4 6.25h4.6z"/><path d="m531.09 36.25c-14.6 0-24.1-7.3-24.1-17.7v-.4c0-10.4 9.5-17.7 24.1-17.7 7.65 0 15 2.4 19 5.7l-6.5 8.25a18.92 18.92 0 0 0 -10-3c-5 0-8.9 2.7-8.9 6.8v.2c0 4.1 3.85 6.8 8.9 6.8a18.77 18.77 0 0 0 10-2.95l5.95 8.25c-4.3 3.65-10.8 5.75-18.45 5.75z"/><path d="m578 35v-11.55h-8.8v11.55h-17.4v-33.3h17.4v12.5h8.8v-12.5h17.45v33.3z"/></g></svg>