<svg viewBox="0 0 230.41 56.28" xmlns="http://www.w3.org/2000/svg"><g transform="translate(-.92 -.02)"><path d="m27.22 21v-10.9l-.85 2.49-2.95 8.41h-9.08l-2.91-8.41-.85-2.49v10.9h-9v-20.22h14.89l2.73 7.92.49 1.61.48-1.61 2.74-7.92h14.39v20.22z"/><path d="m40 21v-20.22h10.59v20.22z"/><path d="m69.69 21-3.52-5.83-2.28 2.37v3.46h-10.57v-20.22h10.57v7.74l5.74-7.74h11.2l-7.56 8.65 7.63 11.57z"/><path d="m82.32 21v-20.22h23.16v6.47h-12.6v1.91h7.9v3.09h-7.9v1.75h12.6v7z"/><path d="m139.34 21.76a8.78 8.78 0 0 1 -4.53-1.15 17.9 17.9 0 0 1 -6.59 1.15c-8.65 0-13.72-4.86-13.72-10.72v-.36c0-5.89 5.07-10.68 13.72-10.68s13.78 4.79 13.78 10.68v.32a8.77 8.77 0 0 1 -1.34 4.74 3.91 3.91 0 0 0 2.25.54v4.92a8.67 8.67 0 0 1 -3.57.56zm-8.14-11.14c0-2.25-.52-4.32-3-4.32s-2.94 2.07-2.94 4.32v.51c0 2.22.48 4.28 2.94 4.28a3.3 3.3 0 0 0 1.6-.41l-1.12-1.31 2.52-2.37z"/><path d="m177.5 21v-10.9l-.85 2.49-3 8.41h-9.08l-2.91-8.41-.85-2.49v10.9h-9v-20.22h14.88l2.73 7.92.49 1.61.48-1.61 2.8-7.92h14.39v20.22z"/><path d="m190.31 21v-20.22h10.56v20.22z"/><path d="m219.73 21-3.16-4.28-3.22 4.28h-10.87l8.14-10-8.14-10.22h11.52l3.28 4.58 3.21-4.58h10.84l-8.11 10.22 8.11 10z"/><g fill="#231f20"><path d="m197.9 44.34h-3.14l-.26 3.86a2.78 2.78 0 0 1 2.5-1.12 2.36 2.36 0 0 1 2.48 2.56v3.36a3.09 3.09 0 0 1 -3.48 3.3 3 3 0 0 1 -3.24-3.16v-1h1.6v.8c0 1.08.52 1.82 1.64 1.82s1.66-.6 1.66-1.82v-3a1.26 1.26 0 0 0 -1.32-1.42 2.08 2.08 0 0 0 -2 1.5l-1.48-.3.36-7h6.18c-.04 1.16-.4 1.62-1.5 1.62z"/><path d="m204.76 56.3c-2.18 0-3.38-1.32-3.38-3.06v-.86h1.62v.62a1.63 1.63 0 0 0 1.86 1.74c1.14 0 1.66-.72 1.66-1.82v-3.08a2.72 2.72 0 0 1 -2.42 1.16 2.64 2.64 0 0 1 -2.76-2.8v-2.4a3.45 3.45 0 0 1 6.9.06v7a3.21 3.21 0 0 1 -3.48 3.44zm1.72-10.6a1.63 1.63 0 0 0 -1.72-1.76 1.55 1.55 0 0 0 -1.76 1.62v2.44a1.52 1.52 0 0 0 1.72 1.6 1.58 1.58 0 0 0 1.72-1.6z"/><path d="m210.6 49.5v-2.26h1.64v2.26zm0 6.5v-2.26h1.64v2.26z"/><path d="m217.64 56.3a3 3 0 0 1 -3.24-3.16v-1.2h1.6v1c0 1.2.48 1.82 1.6 1.82a1.51 1.51 0 0 0 1.66-1.76v-1.84c0-.62-.3-1.22-1.44-1.22h-1v-1.44h1c1.14 0 1.44-.58 1.44-1.22v-1.6a1.51 1.51 0 0 0 -1.66-1.74c-1.12 0-1.6.64-1.6 1.82v1h-1.6v-1.2a3 3 0 0 1 3.24-3.16 3 3 0 0 1 3.34 3.2v1.36a2.06 2.06 0 0 1 -1.58 2.2 2 2 0 0 1 1.6 2.1v1.84a3 3 0 0 1 -3.36 3.2z"/><path d="m228.36 53v3h-1.6v-3h-4.54v-1.34l4.68-9h1.46v8.74h1.18v1.6zm-1.6-6.82-2.68 5.24h2.68z"/><path d="m4.46 56.3a3.29 3.29 0 0 1 -3.54-3.46v-7a3.29 3.29 0 0 1 3.54-3.46 3.3 3.3 0 0 1 3.54 3.46v7a3.3 3.3 0 0 1 -3.54 3.46zm1.76-10.64a1.63 1.63 0 0 0 -1.76-1.66 1.65 1.65 0 0 0 -1.78 1.64v7.36a1.65 1.65 0 0 0 1.78 1.64 1.63 1.63 0 0 0 1.76-1.64z"/><path d="m12.86 56h-1.92c.08-3.72 1.82-8.08 3.82-11.64h-5v-1.68h6.88v1.18c-2.34 4.5-3.74 7.82-3.78 12.14z"/><path d="m18.2 49.5v-2.26h1.64v2.26zm0 6.5v-2.26h1.64v2.26z"/><path d="m27.18 44.34h-3.18l-.26 3.86a2.78 2.78 0 0 1 2.46-1.12 2.36 2.36 0 0 1 2.48 2.56v3.36a3.09 3.09 0 0 1 -3.38 3.3 3 3 0 0 1 -3.24-3.16v-1h1.6v.8c0 1.08.52 1.82 1.64 1.82s1.7-.62 1.7-1.84v-3a1.26 1.26 0 0 0 -1.32-1.42 2.08 2.08 0 0 0 -2 1.5l-1.48-.3.36-7h6.18c-.1 1.18-.42 1.64-1.56 1.64z"/><path d="m34.1 56.28a3.21 3.21 0 0 1 -3.46-3.4v-6.94a3.31 3.31 0 0 1 3.52-3.56 3.06 3.06 0 0 1 3.26 3.16v.86h-1.6v-.64a1.6 1.6 0 0 0 -1.76-1.82c-1.12 0-1.68.72-1.68 2v3.06a3.18 3.18 0 0 1 2.54-1.18 2.52 2.52 0 0 1 2.64 2.7v2.32a3.2 3.2 0 0 1 -3.46 3.44zm1.72-5.44a1.44 1.44 0 0 0 -1.66-1.6 1.62 1.62 0 0 0 -1.78 1.6v2.16a1.65 1.65 0 0 0 1.72 1.76 1.58 1.58 0 0 0 1.72-1.62z"/></g></g></svg>