<svg viewBox="0 0 277.56 334.12" xmlns="http://www.w3.org/2000/svg"><g fill="#231f20" transform="translate(-1.17 -.98)"><path d="m81.32 333.52-14.7-14.58-1.62-1.82v16.4h-19.64v-42h17.79l15.77 14.7 1.46 1.58v-16.3h19.74v42z"/><path d="m131.81 335.1c-18 0-28.59-10.1-28.59-22.28v-.75c0-12.24 10.54-22.15 28.59-22.15s28.51 9.91 28.51 22.15v.75c0 12.18-10.53 22.28-28.51 22.28zm6.12-23.16c0-4.67-1-9-6.12-9s-6.19 4.29-6.19 9v1.06c0 4.61 1.07 8.9 6.19 8.9s6.12-4.29 6.12-8.9z"/><path d="m230.69 333.52h-23.92l-6.62-21.14-6.63 21.14h-21.52l-14.7-42h23.53l6 21.64 6-21.64h21.27l6.37 21.89 6.37-21.89h18.68z"/><path d="m95.76 15.62v27.38h-22v-27.38h-15.47v-14.62h53v14.62z"/><path d="m148.39 43v-14.58h-11.11v14.58h-22v-42h22v15.75h11.11v-15.75h22v42z"/><path d="m176.09 43v-42h48.14v13.42h-26.23v4h16.41v6.44h-16.41v3.59h26.19v14.55z"/><path d="m51.85 91.6v-42h22v27.4h26.5v14.6z"/><path d="m104 91.6v-42h22v42z"/><path d="m153.62 63v5.11h13.82v7.44h-13.82v16h-22v-42h49.38v13.45z"/><path d="m184.16 91.6v-42h48.15v13.4h-26.19v4h16.41v6.44h-16.41v3.56h26.19v14.6z"/><path d="m94.72 270.66v14.26h-22v-14.26l-19.72-27.76h24.31l8.08 12.24 7.76-12.24h21.85z"/><path d="m139 286.5c-18.05 0-28.59-10.1-28.59-22.28v-.75c0-12.24 10.54-22.15 28.59-22.15s28.51 9.91 28.51 22.15v.75c-.04 12.18-10.57 22.28-28.51 22.28zm6.12-23.16c0-4.67-1-9-6.12-9s-6.19 4.29-6.19 9v1.07c0 4.61 1.07 8.9 6.19 8.9s6.12-4.29 6.12-8.9z"/><path d="m198.87 286.5c-19.81 0-27.63-8.65-27.63-19.62v-24h21.95v22.4c0 5.23 1.58 7.51 6.82 7.51s6.68-2.28 6.68-7.51v-22.38h19.5v24c0 10.95-7.44 19.6-27.32 19.6z"/><path d="m31.58 141.24c-18.43 0-30.41-9.21-30.41-22.34v-.5c0-13.13 12-22.34 30.41-22.34 9.65 0 19 3 24 7.19l-8.2 10.42a23.86 23.86 0 0 0 -12.56-3.73c-6.37 0-11.23 3.41-11.23 8.58v.26c0 5.17 4.86 8.58 11.23 8.58a23.63 23.63 0 0 0 12.56-3.73l7.48 10.37c-5.43 4.59-13.63 7.24-23.28 7.24z"/><path d="m84.39 141.24c-18 0-28.58-10.1-28.58-22.28v-.75c0-12.24 10.53-22.15 28.58-22.15s28.52 9.91 28.52 22.15v.79c0 12.14-10.54 22.24-28.52 22.24zm6.12-23.16c0-4.67-1-9-6.12-9s-6.18 4.29-6.18 9v1.07c0 4.61 1.07 8.9 6.18 8.9s6.12-4.29 6.12-8.9z"/><path d="m147.29 139.66-2.46-7.32h-12.83l-2.84 7.32h-19.16l18.55-42h22.59l18.93 42zm-8.29-24.8-3.09 7.89h5.81z"/><path d="m197.52 141.24c-18.42 0-30.41-9.21-30.41-22.34v-.5c0-13.13 12-22.34 30.41-22.34 9.66 0 19 3 24 7.19l-8.2 10.42a23.89 23.89 0 0 0 -12.56-3.73c-6.37 0-11.23 3.41-11.23 8.58v.26c0 5.17 4.86 8.58 11.23 8.58a23.63 23.63 0 0 0 12.56-3.73l7.49 10.37c-5.43 4.59-13.63 7.24-23.29 7.24z"/><path d="m256.71 139.66v-14.58h-11.11v14.58h-21.95v-42h21.95v15.77h11.11v-15.79h22v42z"/><path d="m104.52 188.26h-23.91l-6.61-21.14-6.62 21.14h-21.54l-14.7-42h23.54l6 21.64 6.06-21.64h21.26l6.37 21.89 6.37-21.89h18.68z"/><path d="m121.31 188.26v-42h21.95v42z"/><path d="m148.94 188.26v-42h22v27.44h26.5v14.58z"/><path d="m201.12 188.26v-42h22v27.44h26.5v14.58z"/><path d="m87.64 237.9c-10.09 0-20.82-2.59-26.87-6.19l5.93-10.15a58.57 58.57 0 0 0 21.2 4.66c3.66 0 5.86-.69 5.86-1.82 0-4-31.23-1-31.23-17 0-8 8.84-14.64 26.06-14.64 11.86 0 21.45 2.9 25.93 5.36l-6.37 9.66c-7-2.15-13.57-3.35-18.05-3.35-3 0-4.92.57-4.92 1.77 0 4.48 29.91.69 29.91 16.15 0 9.43-8.52 15.55-27.45 15.55z"/><path d="m118.81 236.32v-42h48.19v13.44h-26.23v4h16.41v6.44h-16.41v3.6h26.23v14.57z"/><path d="m171.44 236.32v-42h48.14v13.44h-26.19v4h16.41v6.44h-16.41v3.6h26.19v14.57z"/></g></svg>