<svg height="198" viewBox="0 0 217 198" width="217" xmlns="http://www.w3.org/2000/svg"><g fill="#fff" fill-rule="evenodd"><path d="m45.9350952 40h-11.92l-9.32-9.24-1-1.16v10.4h-12.48v-26.64h11.28l10 9.32.92 1v-10.32h12.52zm38.1632699-13.12c0 7.72-6.68 14.12-18.08 14.12-11.44 0-18.12-6.4-18.12-14.12v-.48c0-7.76 6.68-14.04 18.12-14.04 11.4 0 18.08 6.28 18.08 14.04zm-14.2.12v-.68c0-2.96-.64-5.68-3.88-5.68s-3.92 2.72-3.92 5.68v.68c0 2.92.68 5.64 3.92 5.64s3.88-2.72 3.88-5.64zm69.9232699-13.64-9.44 26.64h-15.16l-4.2-13.4-4.2 13.4h-13.6400001l-9.32-26.64h14.92l3.8000001 13.72 3.84-13.72h13.48l4.04 13.88 4.04-13.88z" transform="translate(33 157)"/><g transform="translate(-10 123)"><path d="m158.797777 13.36-12.84 17.6v9.04h-13.92v-9.04l-12.52-17.6h15.4l5.12 7.76 4.92-7.76zm33.280001 13.52c0 7.72-6.68 14.12-18.08 14.12-11.44 0-18.12-6.4-18.12-14.12v-.48c0-7.76 6.68-14.04 18.12-14.04 11.4 0 18.08 6.28 18.08 14.04zm-14.2.12v-.68c0-2.96-.64-5.68-3.88-5.68s-3.92 2.72-3.92 5.68v.68c0 2.92.68 5.64 3.92 5.64s3.88-2.72 3.88-5.64zm48.44 1.56c0 6.96-4.72 12.44-17.32 12.44-12.56 0-17.52-5.48-17.52-12.44v-15.2h13.92v14.2c0 3.32 1 4.76 4.32 4.76s4.24-1.44 4.24-4.76v-14.2h12.36z"/><path d="m45.2437037 31.12c0 6-5.4 9.88-17.4 9.88-6.4 0-13.2-1.64-17.04-3.92l3.76-6.44c5.12 2.12 10.08 2.96 13.44 2.96 2.32 0 3.72-.44 3.72-1.16 0-2.56-19.8-.64-19.8-10.8 0-5.08 5.6-9.28 16.52-9.28 7.52 0 13.6 1.84 16.44 3.4l-4.04 6.12c-4.44-1.36-8.6-2.12-11.44-2.12-1.92 0-3.12.36-3.12 1.12 0 2.84 18.96.44 18.96 10.24zm32.88 8.88h-30.52v-26.64h30.52v8.52h-16.6v2.52h10.4v4.08h-10.4v2.28h16.6zm33.3600003 0h-30.5200003v-26.64h30.5200003v8.52h-16.6000003v2.52h10.4000003v4.08h-10.4000003v2.28h16.6000003z"/></g><path d="m66.24 13.36-9.44 26.64h-15.16l-4.2-13.4-4.2 13.4h-13.64l-9.32-26.64h14.92l3.8 13.72 3.84-13.72h13.48l4.04 13.88 4.04-13.88zm15.12 26.64h-13.92v-26.64h13.92zm34.32 0h-30.72v-26.64h13.92v17.4h16.8zm33.08 0h-30.72v-26.64h13.92v17.4h16.8z" transform="translate(27 89)"/><path d="m39.66 36.44c-3.44 2.88-8.64 4.56-14.76 4.56-11.68 0-19.27999997-5.84-19.27999997-14.16v-.32c0-8.32 7.59999997-14.16 19.27999997-14.16 6.12 0 12.04 1.92 15.2 4.56l-5.2 6.6c-2.16-1.4-5.08-2.36-7.96-2.36-4.04 0-7.12 2.16-7.12 5.44v.16c0 3.28 3.08 5.44 7.12 5.44 3.08 0 6.28-1.16 7.96-2.36zm36.8-9.56c0 7.72-6.68 14.12-18.08 14.12-11.44 0-18.12-6.4-18.12-14.12v-.48c0-7.76 6.68-14.04 18.12-14.04 11.4 0 18.08 6.28 18.08 14.04zm-14.2.12v-.68c0-2.96-.64-5.68-3.88-5.68s-3.92 2.72-3.92 5.68v.68c0 2.92.68 5.64 3.92 5.64s3.88-2.72 3.88-5.64zm51.24 13h-14.44l-1.56-4.64h-8.12l-1.8 4.64h-12.16l11.76-26.64h14.32zm-18-10.72-1.72-5-1.96 5zm51.16 7.16c-3.44 2.88-8.64 4.56-14.76 4.56-11.68 0-19.28-5.84-19.28-14.16v-.32c0-8.32 7.6-14.16 19.28-14.16 6.12 0 12.04 1.92 15.2 4.56l-5.2 6.6c-2.16-1.4-5.08-2.36-7.96-2.36-4.04 0-7.12 2.16-7.12 5.44v.16c0 3.28 3.08 5.44 7.12 5.44 3.08 0 6.28-1.16 7.96-2.36zm36.52 3.56h-13.96v-9.24h-7.04v9.24h-13.92v-26.64h13.92v10h7.04v-10h13.96z" transform="translate(12 55)"/><path d="m43.4 40h-30.72v-26.64h13.92v17.4h16.8zm16.28 0h-13.92v-26.64h13.92zm34.84-18.12h-17.32v3.24h8.76v4.72h-8.76v10.16h-13.92v-26.64h31.24zm32.56 18.12h-30.52v-26.64h30.52v8.52h-16.6v2.52h10.4v4.08h-10.4v2.28h16.6z" transform="translate(37 21)"/><path d="m44.86 22.64h-9.84v17.36h-13.92v-17.36h-9.84v-9.28h33.6zm37.48 17.36h-13.96v-9.24h-7.04v9.24h-13.92v-26.64h13.92v10h7.04v-10h13.96zm34.12 0h-30.52v-26.64h30.52v8.52h-16.6v2.52h10.4v4.08h-10.4v2.28h16.6z" transform="translate(43 -13)"/></g></svg>