<svg viewBox="0 0 695.33 198.18" xmlns="http://www.w3.org/2000/svg"><g fill="#231f20" transform="translate(-.87 -.4)"><path d="m38.35 16.62v27.38h-22v-27.38h-15.48v-14.62h53v14.62z"/><path d="m91 44v-14.58h-11.14v14.58h-22v-42h22v15.75h11.14v-15.75h22v42z"/><path d="m118.67 44v-42h48.14v13.42h-26.18v4h16.37v6.44h-16.4v3.59h26.18v14.55z"/><path d="m221 31.25h-11.91v12.75h-22v-42h33.31c12.68 0 18.81 6.43 18.81 14.07v.63c.04 7.61-5.64 14.55-18.21 14.55zm-4-12.87c0-2.33-1-3.47-4.29-3.47h-3.66v7.09h3.66c3.29 0 4.29-1.22 4.29-3.43z"/><path d="m270.35 45.58c-18 0-28.58-10.1-28.58-22.28v-.75c0-12.24 10.54-22.15 28.58-22.15s28.52 9.91 28.52 22.15v.75c0 12.18-10.54 22.28-28.52 22.28zm6.12-23.16c0-4.67-1-9-6.12-9s-6.18 4.29-6.18 9v1.07c0 4.61 1.07 8.9 6.18 8.9s6.12-4.29 6.12-8.9z"/><path d="m370.68 44h-23.91l-6.63-21.14-6.62 21.14h-21.52l-14.7-42h23.54l6 21.64 6.05-21.64h21.26l6.37 21.89 6.38-21.89h18.67z"/><path d="m387.47 44v-42h48.14v13.42h-26.19v4h16.41v6.44h-16.41v3.59h26.19v14.55z"/><path d="m474.54 44c-2.52 0-5.05-2.78-5.05-6.5v-3.85c0-3-.63-4.48-3.85-4.48h-3.64v14.83h-21.91v-42h33.76c11.42 0 18.29 5 18.29 11.73v.57c0 4-3.85 8.2-10 9.4 7.32.7 9.34 5 9.34 9.85v3.45a8.62 8.62 0 0 0 2.27 6.37v.63zm-4.61-26.31c0-2.21-1.19-3-4.48-3h-3.45v6.69h3.47c3.29 0 4.48-1.39 4.48-3.47z"/><path d="m512.52 44v-42h22v27.42h26.48v14.58z"/><path d="m564.71 44v-42h21.95v42z"/><path d="m592.34 44v-42h48.14v13.42h-26.18v4h16.4v6.44h-16.4v3.59h26.18v14.55z"/><path d="m668.75 45.58c-10.09 0-20.82-2.59-26.88-6.19l5.93-10.15a58.61 58.61 0 0 0 21.2 4.66c3.66 0 5.87-.69 5.87-1.82 0-4-31.23-1-31.23-17 0-8.08 8.83-14.68 26.06-14.68 11.86 0 21.45 2.9 25.93 5.36l-6.37 9.66c-7-2.15-13.57-3.35-18-3.35-3 0-4.92.57-4.92 1.77 0 4.48 29.91.69 29.91 16.15-.05 9.47-8.57 15.59-27.5 15.59z"/><path d="m156.75 95h-23.92l-6.62-21.14-6.63 21.14h-21.51l-14.7-42h23.53l6 21.64 6.1-21.64h21.27l6.37 21.89 6.36-21.89h18.68z"/><path d="m173.53 95v-42h22v42z"/><path d="m237 67.62v27.38h-22v-27.38h-15.47v-14.62h53v14.62z"/><path d="m289.63 95v-14.58h-11.11v14.58h-21.95v-42h21.95v15.75h11.11v-15.75h22v42z"/><path d="m317.33 95v-42h22v42z"/><path d="m380.93 95-14.7-14.58-1.58-1.82v16.4h-19.65v-42h17.79l15.77 14.7 1.44 1.56v-16.26h19.75v42z"/><path d="m458.92 80.74v14.26h-21.92v-14.26l-19.79-27.74h24.29l8.08 12.24 7.76-12.24h21.83z"/><path d="m503.15 96.58c-18 0-28.58-10.1-28.58-22.28v-.75c0-12.24 10.54-22.15 28.58-22.15s28.52 9.91 28.52 22.15v.75c0 12.18-10.54 22.28-28.52 22.28zm6.12-23.16c0-4.67-1-9-6.12-9s-6.18 4.29-6.18 9v1.07c0 4.61 1.07 8.9 6.18 8.9s6.12-4.29 6.12-8.9z"/><path d="m563.09 96.58c-19.81 0-27.63-8.65-27.63-19.62v-23.96h22v22.4c0 5.23 1.57 7.51 6.81 7.51s6.69-2.28 6.69-7.51v-22.4h19.49v24c-.04 10.93-7.45 19.58-27.36 19.58z"/><path d="m593.57 95v-12.93h13.5v12.93z"/><path d="m66.25 146h-35.14v-42h34.39c11.54 0 17 4.6 17 11v.51c0 4.29-3.79 8.07-11.17 9.52 8.14 1.33 11.42 4.8 11.42 9.66v.5c-.03 6.14-5.08 10.81-16.5 10.81zm-5.25-26.94c0-1.89-1.19-2.65-4.48-2.65h-3.4v5.49h3.4c3.29 0 4.48-.82 4.48-2.65zm0 11.86c0-1.83-1.19-2.65-4.48-2.65h-3.4v5.49h3.4c3.29 0 4.48-.76 4.48-2.65z"/><path d="m117.93 146-2.46-7.32h-12.81l-2.84 7.32h-19.18l18.55-42h22.59l18.93 42zm-8.33-24.8-3.09 7.89h5.8z"/><path d="m171.38 118.62v27.38h-22v-27.38h-15.48v-14.62h53v14.64z"/><path d="m225.51 118.62v27.38h-21.95v-27.38h-15.56v-14.62h53v14.64z"/><path d="m243.81 146v-42h48.19v13.44h-26.23v4h16.4v6.44h-16.4v3.59h26.23v14.53z"/><path d="m329.62 146c-2.52 0-5-2.78-5-6.5v-3.85c0-3-.64-4.48-3.85-4.48h-3.66v14.83h-21.9v-42h33.76c11.42 0 18.3 5 18.3 11.73v.57c0 4-3.85 8.2-10 9.4 7.32.7 9.34 5 9.34 9.85v3.45a8.62 8.62 0 0 0 2.27 6.37v.63zm-4.62-26.31c0-2.21-1.2-3-4.48-3h-3.47v6.69h3.47c3.28 0 4.48-1.39 4.48-3.47z"/><path d="m350.51 146v-42h22v42z"/><path d="m376.88 146v-42h48.12v13.44h-26.16v4h16.41v6.44h-16.41v3.59h26.16v14.53z"/><path d="m452 147.58c-10.09 0-20.82-2.59-26.88-6.19l5.93-10.15a58.61 58.61 0 0 0 21.2 4.66c3.66 0 5.87-.69 5.87-1.82 0-4-31.23-1-31.23-17 0-8 8.83-14.64 26.06-14.64 11.86 0 21.45 2.9 25.93 5.36l-6.37 9.66c-7-2.15-13.57-3.35-18.05-3.35-3 0-4.92.57-4.92 1.77 0 4.48 29.91.69 29.91 16.15.03 9.43-8.45 15.55-27.45 15.55z"/><path d="m532.48 146-14.7-14.58-1.58-1.82v16.4h-19.69v-42h17.8l15.77 14.7 1.45 1.58v-16.28h19.75v42z"/><path d="m582.7 147.58c-18 0-28.58-10.1-28.58-22.28v-.75c0-12.24 10.54-22.15 28.58-22.15s28.52 9.91 28.52 22.15v.75c0 12.18-10.53 22.28-28.52 22.28zm6.12-23.16c0-4.67-1-9-6.12-9s-6.18 4.29-6.18 9v1.07c0 4.61 1.07 8.9 6.18 8.9s6.12-4.29 6.12-8.9z"/><path d="m648.64 118.62v27.38h-22v-27.38h-15.48v-14.62h53v14.64z"/><path d="m171 197c-2.53 0-5.05-2.78-5.05-6.5v-3.85c0-3-.63-4.48-3.85-4.48h-3.66v14.83h-21.89v-42h33.75c11.42 0 18.3 5 18.3 11.73v.57c0 4-3.85 8.2-10 9.4 7.32.7 9.34 5 9.34 9.85v3.45a8.62 8.62 0 0 0 2.27 6.37v.63zm-4.61-26.31c0-2.21-1.2-3-4.48-3h-3.47v6.69h3.47c3.28 0 4.48-1.39 4.48-3.47z"/><path d="m191.88 197v-42h48.12v13.44h-26.16v4h16.4v6.44h-16.4v3.59h26.16v14.53z"/><path d="m293.28 198.58a18.1 18.1 0 0 1 -9.4-2.4 36.81 36.81 0 0 1 -13.7 2.4c-18 0-28.51-10.1-28.51-22.28v-.75c0-12.24 10.53-22.15 28.51-22.15s28.59 9.91 28.59 22.15v.75a18.18 18.18 0 0 1 -2.78 9.85 8 8 0 0 0 4.67 1.13v10.22c-1.58.7-3.72 1.08-7.38 1.08zm-16.91-23.16c0-4.67-1.07-9-6.19-9s-6.12 4.29-6.12 9v1.07c0 4.61 1 8.9 6.12 8.9a6.79 6.79 0 0 0 3.29-.82l-2.34-2.71 5.24-4.92z"/><path d="m329.56 198.58c-19.81 0-27.64-8.65-27.64-19.62v-23.96h22v22.4c0 5.23 1.58 7.51 6.81 7.51s6.69-2.28 6.69-7.51v-22.4h19.5v24c-.04 10.93-7.49 19.58-27.36 19.58z"/><path d="m361 197v-42h22v42z"/><path d="m421.8 197c-2.52 0-5-2.78-5-6.5v-3.85c0-3-.63-4.48-3.85-4.48h-3.66v14.83h-21.93v-42h33.75c11.42 0 18.3 5 18.3 11.73v.57c0 4-3.85 8.2-10 9.4 7.32.7 9.33 5 9.33 9.85v3.45a8.63 8.63 0 0 0 2.28 6.37v.63zm-4.6-26.31c0-2.21-1.2-3-4.48-3h-3.47v6.69h3.47c3.28 0 4.48-1.39 4.48-3.47z"/><path d="m442.69 197v-42h48.14v13.44h-26.18v4h16.4v6.44h-16.4v3.59h26.18v14.53z"/><path d="m520.74 197h-27v-42h27c18.68 0 28.52 9.21 28.52 20.57v.75c0 11.28-9.84 20.68-28.52 20.68zm6.18-21.58c0-4.23-2.08-7.76-7.76-7.76h-3.47v16.53h3.47c5.68 0 7.76-3.53 7.76-7.76z"/><path d="m549.26 197v-12.93h13.5v12.93z"/></g></svg>