<svg viewBox="0 0 78.6 101.61" xmlns="http://www.w3.org/2000/svg"><g fill="#fff" transform="translate(-1.3 2.1)"><path d="m17.23 99h-6.39v-22.64h6.39c4.21 0 6.05 2.62 6.05 6.12v10.4c0 3.5-1.84 6.12-6.05 6.12zm2.85-16.35c0-2.14-.95-3.33-3.06-3.33h-2.95v16.68h2.93c2.11 0 3.06-1.19 3.06-3.3z"/><path d="m35.32 99-1.19-5.54h-4.9l-1.23 5.54h-3.08l5.13-22.64h3.4l5.13 22.64zm-3.64-17.58-1.87 9.29h3.74z"/><path d="m46.61 89.89v9.11h-3.2v-9.11l-5.47-13.53h3.47l3.7 10.43 3.71-10.43h3.23z"/><path d="m59 99.51c-3.74 0-6.22-2.45-6.22-5.75v-1.56h3.22v1c0 2.37 1 3.56 3 3.56a2.72 2.72 0 0 0 3-2.93c0-2-.88-3.26-3.74-5.06-2.54-1.64-5.26-3.84-5.26-7.11s2.14-5.78 6-5.78c3.67 0 6 2.42 6 5.75v1.46h-3v-1.09c0-1.91-.92-3.4-3.06-3.4a2.42 2.42 0 0 0 -2.69 2.58c0 2 .92 3.06 4.19 5.17s4.79 4 4.79 7a5.9 5.9 0 0 1 -6.23 6.16z"/><path d="m42.4 69.5c-24.6 0-41.1-12.9-41.1-33.8v-1.6c0-21.9 20.1-36.2 44-36.2a78.2 78.2 0 0 1 32.41 6.6l-6.61 16.1a63.09 63.09 0 0 0 -20.1-3.5c-11.6 0-19.7 6.4-19.7 15v1c5.8-5.2 12.3-9 23.5-9 15.6 0 25.1 9.6 25.1 20.1v.5c0 13.2-14.6 24.8-37.5 24.8zm10.2-27.3c0-3.4-3.2-6.3-9.4-6.3-5 0-8.6 1.9-11.9 4.6v.3c0 4.8 4.7 8.7 10.4 8.7 6.9 0 10.9-3.8 10.9-7z"/></g></svg>