<svg height="77" viewBox="0 0 241 77" width="241" xmlns="http://www.w3.org/2000/svg"><g fill="#231f20" fill-rule="evenodd"><path d="m44.641905 17.4432475c0 9.0355448-7.874553 16.5567525-22.8160126 16.5567525h-21.60454287v-33.61828406h21.60454287c14.9414596 0 22.8160126 7.36977398 22.8160126 16.45579666zm-17.869178.1009558v-.8076465c0-3.3820195-1.6657708-6.2087822-6.2087822-6.2087822h-2.7762847v13.2252109h2.7762847c4.5430114 0 6.2087822-2.8267626 6.2087822-6.2087822zm64.0564602 16.4557967h-15.3452828c-2.0191162 0-4.0382323-2.2210278-4.0382323-5.1992241v-3.0791522c0-2.3724614-.5047791-3.5839311-3.0791522-3.5839311h-2.9277184v11.8623074h-17.5158327v-33.61828406h27.0056786c9.1365007 0 14.6385922 3.98775441 14.6385922 9.38889014v.45430112c0 3.2305859-3.0791521 6.5621275-8.0259867 7.5212077 5.8554368.555257 7.4707298 3.9877544 7.4707298 7.874553v2.7762848c0 2.1200719.504779 3.6848869 1.8172045 5.0982683zm-19.0301698-20.8978523v-.1514337c0-1.7667266-.9590802-2.4229394-3.5839312-2.4229394h-2.7762847v5.3506579h2.7762847c2.624851 0 3.5839312-1.1105139 3.5839312-2.7762848zm59.9172716 20.8978523h-38.5146403v-33.61828406h38.5146403v10.75179356h-20.94833v3.1801079h13.124255v5.1487462h-13.124255v2.8772406h20.94833zm48.054965 0h-18.222523l-1.968639-5.8554369h-10.247014l-2.271506 5.8554369h-15.345283l14.840504-33.61828406h18.07109zm-22.715057-13.5280783-2.17055-6.309738-2.473417 6.309738zm83.238064 13.5280783h-16.758664v-18.1215675l-1.413381 4.1391881-4.896357 13.9823794h-15.092893l-4.845879-13.9823794-1.413382-4.1391881v18.1215675h-14.941459v-33.61828406h24.734173l4.543011 13.17473296.807647 2.6753289.807646-2.6753289 4.543011-13.17473296h23.926527z"/><path d="m107.714046 66.1682784c0 4.8963567-4.038232 8.6317216-13.1747328 8.6317216h-28.1161926v-33.6182841h27.5104577c9.2374567 0 13.5785557 3.684887 13.5785557 8.8336332v.4038233c0 3.4324974-3.028674 6.4611717-8.9345885 7.6221635 6.5116495 1.060036 9.1365005 3.8363207 9.1365005 7.7231193zm-17.4148768-12.7709097v-.1514337c0-1.5143371-.9590802-2.120072-3.5839312-2.120072h-2.7258068v4.3915777h2.7258068c2.624851 0 3.5839312-.6562128 3.5839312-2.120072zm0 9.489846v-.1514338c0-1.4638592-.9590802-2.1200719-3.5839312-2.1200719h-2.7258068v4.3915776h2.7258068c2.624851 0 3.5839312-.6057348 3.5839312-2.1200719zm37.9089058 11.9127853h-17.56631v-33.6182841h17.56631zm47.499708 0h-9.893669l-.656213-3.0286742c-3.12963 2.8267626-7.622164 4.2906218-12.266131 4.2906218-11.761351 0-21.402631-6.9154728-21.402631-17.6167885v-.6057348c0-10.549882 10.095581-17.919656 23.573181-17.919656 8.379332 0 14.68907 1.5648151 19.837816 4.0887103l-5.30018 9.7927133c-3.785842-1.7162487-7.167862-2.6753289-11.105138-2.6753289-5.55257 0-9.086023 3.1296301-9.086023 7.4707298v.3028674c0 3.8867986 2.87724 6.6126055 7.47073 6.6126055 2.624851 0 4.744923-1.1105139 5.855436-2.7762848v-.2019116h-7.975508v-5.9563926h20.94833z"/></g></svg>