<svg viewBox="0 0 165.25 68.24" xmlns="http://www.w3.org/2000/svg"><g transform="translate(-.58 -.09)"><path d="m18.71 56.35h20.34v10.65h-38.47v-4c0-14.12 23.05-14 23.05-19.37 0-1.54-1.63-2.63-5.35-2.63-4 0-9 1.38-13.67 3.39l-3.61-9.88a45.18 45.18 0 0 1 19.6-4.13c10.87 0 18.29 5.09 18.29 11.24.01 6.67-7.63 10.44-20.18 14.73z"/><path d="m58.88 56.35h20.35v10.65h-38.47v-4c0-14.15 23.05-14.05 23.05-19.4 0-1.54-1.65-2.65-5.35-2.65-4 0-9 1.38-13.68 3.39l-3.6-9.86a45.22 45.22 0 0 1 19.61-4.13c10.86 0 18.28 5.09 18.28 11.24 0 6.7-7.63 10.47-20.19 14.76z"/><path d="m117.23 60.38v6.62h-16.06v-6.62h-19.66v-8.11l20.93-20.56h14.79v19h5.3v9.65zm-16.06-15.58-5.83 5.93h5.83z"/><path d="m157.35 41.93h-16.35l-.59 6.31a16.65 16.65 0 0 1 11.18-3.6c9.17 0 14.26 4.82 14.26 10.86v.16c0 6.94-6.52 12.67-20.08 12.67a59.93 59.93 0 0 1 -21-3.71l3.49-9.23a46.81 46.81 0 0 0 15.32 2.49c4.4 0 6.31-1.59 6.31-3.7v-.18c0-1.48-1.22-3.28-4.4-3.28a8.43 8.43 0 0 0 -6.49 2.55l-12.45-1.48 1.64-20.08h37.26c-.52 6.29-2.85 10.22-8.1 10.22z"/><g fill="#231f20"><path d="m45.61 20h-2.61l-4.65-19.5h2.9l3.13 15.08 3.14-15.08h2.81z"/><path d="m52.47 20v-19.5h2.78v19.5z"/><path d="m63.36 20.44c-3.22 0-5.36-2.11-5.36-5v-1.3h2.75v.91c0 2 .91 3 2.64 3a2.34 2.34 0 0 0 2.61-2.5c0-1.73-.76-2.81-3.22-4.36-2.2-1.41-4.51-3.31-4.51-6.12a4.77 4.77 0 0 1 5.15-5 4.81 4.81 0 0 1 5.18 5v1.23h-2.66v-.91c0-1.64-.79-2.93-2.64-2.93a2.09 2.09 0 0 0 -2.3 2.23c0 1.72.79 2.63 3.6 4.45s4.13 3.48 4.13 6a5.09 5.09 0 0 1 -5.37 5.3z"/><path d="m71.53 20v-19.5h2.78v19.5z"/><path d="m83.36 3.05v16.95h-2.78v-16.95h-4v-2.55h10.77v2.55z"/><path d="m94.55 20.44c-3.66 0-5.45-2.4-5.45-5.59v-9.2c0-3.16 1.79-5.56 5.45-5.56s5.45 2.4 5.45 5.56v9.2c0 3.15-1.76 5.59-5.45 5.59zm2.69-15a2.55 2.55 0 0 0 -2.69-2.87c-1.82 0-2.67 1.2-2.67 2.87v9.66c0 1.67.85 2.87 2.67 2.87a2.55 2.55 0 0 0 2.69-2.87z"/><path d="m113.73 20.21c-2.19 0-3-.62-3-2.64v-3.81c0-1.34-.61-2.25-2-2.25h-2.73v8.49h-2.78v-19.5h5.65c3.16 0 4.57 1.58 4.57 4.36v2.14c0 1.9-.65 3-2.52 3.42a3.16 3.16 0 0 1 2.61 3.4v3.54c0 .53.23.77.82.77v2.08zm-3.07-15.41c0-1.11-.47-1.9-1.79-1.9h-2.87v6.5h2.58c1.34 0 2.08-.76 2.08-2.23z"/><path d="m121.4 20.44c-3.22 0-5.35-2.11-5.35-5v-1.3h2.75v.91c0 2 .91 3 2.63 3a2.34 2.34 0 0 0 2.57-2.5c0-1.73-.76-2.81-3.22-4.36-2.2-1.41-4.51-3.31-4.51-6.12a5.17 5.17 0 0 1 10.34 0v1.23h-2.61v-.91c0-1.64-.79-2.93-2.63-2.93a2.09 2.09 0 0 0 -2.37 2.23c0 1.72.79 2.63 3.6 4.45s4.13 3.48 4.13 6a5.09 5.09 0 0 1 -5.33 5.3z"/></g></g></svg>