<svg viewBox="0 0 171.47 116.48" xmlns="http://www.w3.org/2000/svg"><g fill="#231f20" transform="translate(-.65 -.12)"><path d="m46.09 23.59v11.41h-17.57v-11.41l-15.8-22.21h19.43l6.47 9.8 6.2-9.8h17.47z"/><path d="m81.47 36.26c-14.43 0-22.86-8.07-22.86-17.82v-.6c0-9.79 8.39-17.72 22.86-17.72s22.82 7.93 22.82 17.72v.6c0 9.75-8.43 17.82-22.82 17.82zm4.9-18.52c0-3.74-.81-7.17-4.9-7.17s-4.94 3.43-4.94 7.17v.86c0 3.68.85 7.11 4.94 7.11s4.9-3.43 4.9-7.11z"/><path d="m129.43 36.26c-15.85 0-22.11-6.91-22.11-15.7v-19.18h17.56v17.92c0 4.19 1.27 6 5.45 6s5.36-1.82 5.36-6v-17.92h15.59v19.18c0 8.79-5.95 15.7-21.85 15.7z"/><path d="m47.4 75.8-2-5.86h-10.22l-2.27 5.86h-15.34l14.84-33.62h18.07l15.14 33.62zm-6.66-19.8-2.48 6.31h4.65z"/><path d="m94.34 75.8c-2 0-4-2.22-4-5.2v-3.08c0-2.37-.5-3.58-3.07-3.58h-2.97v11.86h-17.52v-33.62h27c9.13 0 14.63 4 14.63 9.39v.43c0 3.23-3.07 6.56-8 7.52 5.85.55 7.47 4 7.47 7.87v2.81a6.88 6.88 0 0 0 1.82 5.09v.51zm-3.68-21c0-1.77-1-2.42-3.59-2.42h-2.77v5.35h2.77c2.63 0 3.59-1.11 3.59-2.78z"/><path d="m112.06 75.8v-33.62h38.51v10.75h-20.94v3.18h13.12v5.15h-13.12v2.88h20.94v11.66z"/><path d="m27.1 116.6v-11.66h-8.89v11.66h-17.56v-33.6h17.56v12.6h8.89v-12.6h17.61v33.6z"/><path d="m48.25 116.6v-33.6h38.51v10.73h-21v3.18h13.18v5.15h-13.13v2.88h21v11.66z"/><path d="m116.9 116.6c-2 0-4-2.22-4-5.2v-3.08c0-2.37-.51-3.58-3.08-3.58h-2.93v11.86h-17.55v-33.6h27c9.14 0 14.64 4 14.64 9.39v.46c0 3.23-3.08 6.56-8 7.52 5.86.55 7.47 4 7.47 7.87v2.76a6.88 6.88 0 0 0 1.82 5.09v.51zm-3.69-21c0-1.77-1-2.42-3.58-2.42h-2.78v5.35h2.78c2.62 0 3.58-1.11 3.58-2.78z"/><path d="m133.61 116.6v-33.6h38.51v10.73h-21v3.18h13.12v5.15h-13.07v2.88h21v11.66z"/></g></svg>