<svg id="Layer_1" data-name="Layer 1" xmlns="http://www.w3.org/2000/svg" viewBox="0 0 221.09 90.62"><defs><style>.cls-1{isolation:isolate;}.cls-2{fill:#231f20;}</style></defs><title>date</title><g id="Page-1"><g id="Desktop-HD"><g id="date"><g id="Page-1-2" data-name="Page-1"><g id="JUNE" class="cls-1"><g class="cls-1"><path class="cls-2" d="M24.93,44.58A44.49,44.49,0,0,1,.83,37.89L7,25.46c4.61,2.27,9.28,3.85,13.76,3.85,3.78,0,5.23-1.77,5.23-5.18V1H48v24.8C48,37.32,39.82,44.58,24.93,44.58Z" transform="translate(-0.83 -0.98)"/><path class="cls-2" d="M80.65,44.58C60.83,44.58,53,35.93,53,25V1H75v22.4c0,5.23,1.57,7.51,6.81,7.51s6.69-2.28,6.69-7.51V1H108V25C108,35.93,100.52,44.58,80.65,44.58Z" transform="translate(-0.83 -0.98)"/><path class="cls-2" d="M149.3,43,134.59,28.42,133,26.6V43H113.33V1h17.79l15.78,14.7,1.45,1.58V1H168.1V43Z" transform="translate(-0.83 -0.98)"/><path class="cls-2" d="M173.78,43V1h48.14V14.42H195.74v4h16.4v6.44h-16.4v3.59h26.18V43Z" transform="translate(-0.83 -0.98)"/></g></g><g id="_7-17" data-name="7-17" class="cls-1"><g class="cls-1"><path class="cls-2" d="M65.91,91.6H45.15A53.54,53.54,0,0,1,68.37,62.51H40.49V49.58H86v9.15C75.44,69,68.94,78.16,65.91,91.6Z" transform="translate(-0.83 -0.98)"/><path class="cls-2" d="M84.59,77.28V67.81h24.29v9.47Z" transform="translate(-0.83 -0.98)"/><path class="cls-2" d="M113.93,91.6V56.77c5.23,0,7.95-3.47,7.95-7.19h11.54v42Z" transform="translate(-0.83 -0.98)"/><path class="cls-2" d="M162.45,91.6H141.69a53.49,53.49,0,0,1,23.22-29.09H137V49.58h45.49v9.15C172,69,165.48,78.16,162.45,91.6Z" transform="translate(-0.83 -0.98)"/></g></g></g></g></g></g></svg>