<svg id="Layer_1" data-name="Layer 1" xmlns="http://www.w3.org/2000/svg" viewBox="0 0 401.88 482.97"><defs><style>.cls-1{isolation:isolate;}.cls-2{fill:#231f20;}</style></defs><title>graffiti-artists</title><g id="Page-1"><g id="Group-10"><g id="graffiti-artists" class="cls-1"><g class="cls-1"><path class="cls-2" d="M23.55,23l-.43-2A12.07,12.07,0,0,1,15,23.83C7.27,23.83.91,19.27.91,12.21v-.4C.91,4.85,7.57,0,16.46,0a29.07,29.07,0,0,1,13.09,2.7l-3.5,6.46a17.1,17.1,0,0,0-7.33-1.77c-3.66,0-6,2.07-6,4.93v.2c0,2.57,1.9,4.36,4.93,4.36A4.52,4.52,0,0,0,21.52,15v-.13H16.26V11H30.08V23Z" transform="translate(-0.91 0.01)"/><path class="cls-2" d="M50.35,23c-1.33,0-2.66-1.46-2.66-3.43v-2c0-1.57-.34-2.36-2-2.36H43.72V23H32.17V.83H50c6,0,9.66,2.63,9.66,6.19v.3c0,2.13-2,4.33-5.29,5,3.86.37,4.92,2.63,4.92,5.19V19.3a4.6,4.6,0,0,0,1.2,3.37V23ZM47.92,9.12c0-1.17-.63-1.6-2.36-1.6H43.72v3.53h1.84c1.73,0,2.36-.74,2.36-1.83Z" transform="translate(-0.91 0.01)"/><path class="cls-2" d="M79.34,23l-1.29-3.86H71.29L69.79,23H59.67L69.46.83H81.38L91.36,23ZM75,9.92l-1.63,4.16h3.06Z" transform="translate(-0.91 0.01)"/><path class="cls-2" d="M103.71,7.92v2.69H111v3.93h-7.29V23H92.13V.83h26V7.92Z" transform="translate(-0.91 0.01)"/><path class="cls-2" d="M131.41,7.92v2.69h7.29v3.93h-7.29V23H119.82V.83h26V7.92Z" transform="translate(-0.91 0.01)"/><path class="cls-2" d="M147.52,23V.83h11.59V23Z" transform="translate(-0.91 0.01)"/><path class="cls-2" d="M181,8.55V23H169.42V8.55h-8.19V.83h28V8.55Z" transform="translate(-0.91 0.01)"/><path class="cls-2" d="M191.33,23V.83h11.59V23Z" transform="translate(-0.91 0.01)"/><path class="cls-2" d="M231.58,23l-1.3-3.86h-6.76L222,23H211.9L221.69.83h11.92L243.6,23Zm-4.4-13.08-1.63,4.16h3.06Z" transform="translate(-0.91 0.01)"/><path class="cls-2" d="M262.54,23c-1.33,0-2.67-1.46-2.67-3.43v-2c0-1.57-.33-2.36-2-2.36h-1.93V23H244.36V.83h17.81c6,0,9.66,2.63,9.66,6.19v.3c0,2.13-2,4.33-5.3,5,3.86.37,4.93,2.63,4.93,5.19V19.3a4.56,4.56,0,0,0,1.2,3.37V23ZM260.11,9.12c0-1.17-.64-1.6-2.37-1.6h-1.83v3.53h1.83c1.73,0,2.37-.74,2.37-1.83Z" transform="translate(-0.91 0.01)"/><path class="cls-2" d="M292.63,8.55V23H281.05V8.55h-8.19V.83h28V8.55Z" transform="translate(-0.91 0.01)"/><path class="cls-2" d="M303,23V.83h11.59V23Z" transform="translate(-0.91 0.01)"/><path class="cls-2" d="M330.08,23.83c-5.32,0-11-1.36-14.18-3.26L319,15.21a31,31,0,0,0,11.19,2.46c1.93,0,3.09-.36,3.09-1,0-2.13-16.48-.54-16.48-9,0-4.23,4.66-7.73,13.75-7.73,6.26,0,11.32,1.54,13.69,2.83l-3.36,5.1a35.75,35.75,0,0,0-9.53-1.77c-1.59,0-2.59.3-2.59.93,0,2.37,15.78.37,15.78,8.53C344.57,20.6,340.07,23.83,330.08,23.83Z" transform="translate(-0.91 0.01)"/><path class="cls-2" d="M365.44,8.55V23H353.85V8.55h-8.19V.83h28V8.55Z" transform="translate(-0.91 0.01)"/><path class="cls-2" d="M388.31,23.83c-5.33,0-11-1.36-14.19-3.26l3.13-5.36a31,31,0,0,0,11.19,2.46c1.93,0,3.1-.36,3.1-1,0-2.13-16.48-.54-16.48-9,0-4.23,4.66-7.73,13.75-7.73,6.26,0,11.32,1.54,13.68,2.83l-3.36,5.1a35.75,35.75,0,0,0-9.52-1.77c-1.6,0-2.6.3-2.6.93,0,2.37,15.78.37,15.78,8.53C402.79,20.6,398.3,23.83,388.31,23.83Z" transform="translate(-0.91 0.01)"/></g></g><g id="Group-8"><g id="Group-3"><g id="jonathan-bailey" class="cls-1"><g class="cls-1"><path class="cls-2" d="M75,150.65a15.4,15.4,0,0,1-8.35-2.32L68.83,144a11.06,11.06,0,0,0,4.77,1.33c1.31,0,1.82-.61,1.82-1.79v-8H83v8.59C83,148.13,80.2,150.65,75,150.65Z" transform="translate(-0.91 0.01)"/><path class="cls-2" d="M94.24,150.65c-6.26,0-9.91-3.5-9.91-7.72v-.26c0-4.25,3.65-7.68,9.91-7.68s9.88,3.43,9.88,7.68v.26C104.12,147.15,100.47,150.65,94.24,150.65Zm2.12-8c0-1.62-.35-3.1-2.12-3.1s-2.15,1.48-2.15,3.1V143c0,1.6.38,3.09,2.15,3.09s2.12-1.49,2.12-3.09Z" transform="translate(-0.91 0.01)"/><path class="cls-2" d="M118,150.1l-5.1-5-.54-.64v5.69h-6.83V135.54h6.17l5.47,5.09.5.55v-5.64h6.84V150.1Z" transform="translate(-0.91 0.01)"/><path class="cls-2" d="M137.85,150.1l-.86-2.54h-4.44l-1,2.54h-6.65l6.43-14.56h7.83l6.56,14.56ZM135,141.51l-1.07,2.73h2Z" transform="translate(-0.91 0.01)"/><path class="cls-2" d="M156.8,140.61v9.49h-7.61v-9.49h-5.38v-5.07h18.37v5.07Z" transform="translate(-0.91 0.01)"/><path class="cls-2" d="M175,150.1v-5h-3.85v5h-7.61V135.54h7.61V141H175v-5.46h7.63V150.1Z" transform="translate(-0.91 0.01)"/><path class="cls-2" d="M196,150.1l-.85-2.54H190.7l-1,2.54h-6.65l6.43-14.56h7.83l6.56,14.56Zm-2.88-8.59L192,144.24h2Z" transform="translate(-0.91 0.01)"/><path class="cls-2" d="M216.85,150.1l-5.1-5-.54-.64v5.69h-6.83V135.54h6.17l5.47,5.09.5.55v-5.64h6.84V150.1Z" transform="translate(-0.91 0.01)"/><path class="cls-2" d="M243,150.1H230.81V135.54h11.92c4,0,5.88,1.59,5.88,3.82v.18c0,1.49-1.31,2.8-3.87,3.3,2.82.46,4,1.66,4,3.35v.17C248.7,148.48,247,150.1,243,150.1Zm-1.84-9.34c0-.65-.41-.91-1.55-.91h-1.18v1.9h1.18c1.14,0,1.55-.29,1.55-.92Zm0,4.11c0-.63-.41-.91-1.55-.91h-1.18v1.9h1.18c1.14,0,1.55-.26,1.55-.92Z" transform="translate(-0.91 0.01)"/><path class="cls-2" d="M261.33,150.1l-.85-2.54H256l-1,2.54h-6.64l6.42-14.56h7.83l6.56,14.56Zm-2.89-8.59-1.07,2.73h2Z" transform="translate(-0.91 0.01)"/><path class="cls-2" d="M269.72,150.1V135.54h7.61V150.1Z" transform="translate(-0.91 0.01)"/><path class="cls-2" d="M279.29,150.1V135.54h7.61v9.51h9.19v5Z" transform="translate(-0.91 0.01)"/><path class="cls-2" d="M297.37,150.1V135.54h16.68v4.65H305v1.38h5.69v2.23H305v1.25h9.07v5Z" transform="translate(-0.91 0.01)"/><path class="cls-2" d="M328.66,145.16v4.94h-7.61v-4.94l-6.85-9.62h8.42l2.8,4.24,2.69-4.24h7.56Z" transform="translate(-0.91 0.01)"/></g></g><g id="june-10" class="cls-1"><g class="cls-1"><path class="cls-2" d="M175,172.46c-2.71,0-4.11-1.54-4.11-4.13v-2.52H173v2.45c0,1.47.66,2.18,1.92,2.18s1.83-.71,1.83-2.18v-12H179v11.79C179,170.64,177.82,172.46,175,172.46Z" transform="translate(-0.91 0.01)"/><path class="cls-2" d="M186.11,172.46c-2.56,0-4.39-1.52-4.39-4.13V156.28H184v12.05a2.16,2.16,0,1,0,4.32,0V156.28h2.23v12.05C190.53,170.94,188.7,172.46,186.11,172.46Z" transform="translate(-0.91 0.01)"/><path class="cls-2" d="M200.68,172.11l-3.92-7.7-1.33-2.78v10.48h-2.14V156.28h1.83l3.75,7.85,1.26,2.77V156.28h2.14v15.83Z" transform="translate(-0.91 0.01)"/><path class="cls-2" d="M205.07,172.11V156.28h7.37v2.05h-5.13v4.51H211v1.95h-3.7v5.27h5.13v2.05Z" transform="translate(-0.91 0.01)"/><path class="cls-2" d="M219.16,172.11v-14.8a.94.94,0,0,0,1-1h1.11v15.83Z" transform="translate(-0.91 0.01)"/><path class="cls-2" d="M228.5,172.46a3.9,3.9,0,0,1-4.2-4.11V160a4.21,4.21,0,0,1,8.41,0v8.31A3.92,3.92,0,0,1,228.5,172.46Zm2.09-12.64a2.11,2.11,0,0,0-4.2,0v8.75a2.11,2.11,0,0,0,4.2,0Z" transform="translate(-0.91 0.01)"/></g></g></g><g id="david-boddy" class="cls-1"><g class="cls-1"><path class="cls-2" d="M112.81,88h-9.36V73.44h9.36c6.47,0,9.88,3.19,9.88,7.13v.26C122.69,84.74,119.28,88,112.81,88ZM115,80.52a2.44,2.44,0,0,0-2.69-2.69h-1.2v5.73h1.2A2.43,2.43,0,0,0,115,80.87Z" transform="translate(-0.91 0.01)"/><path class="cls-2" d="M134.5,88l-.86-2.54h-4.43l-1,2.54h-6.65L128,73.44h7.83L142.39,88Zm-2.89-8.59-1.07,2.73h2Z" transform="translate(-0.91 0.01)"/><path class="cls-2" d="M153.67,88h-7.26l-7.15-14.56h8.26l3.2,7.8,3.32-7.8h7Z" transform="translate(-0.91 0.01)"/><path class="cls-2" d="M161.38,88V73.44H169V88Z" transform="translate(-0.91 0.01)"/><path class="cls-2" d="M180.2,88h-9.35V73.44h9.35c6.48,0,9.89,3.19,9.89,7.13v.26C190.09,84.74,186.68,88,180.2,88Zm2.15-7.48a2.44,2.44,0,0,0-2.69-2.69h-1.2v5.73h1.2a2.43,2.43,0,0,0,2.69-2.69Z" transform="translate(-0.91 0.01)"/><path class="cls-2" d="M209.17,88H197V73.44h11.92c4,0,5.88,1.59,5.88,3.82v.18c0,1.49-1.31,2.8-3.87,3.3,2.82.46,4,1.66,4,3.35v.17C214.88,86.38,213.13,88,209.17,88Zm-1.84-9.34c0-.65-.41-.91-1.55-.91H204.6v1.9h1.18c1.14,0,1.55-.29,1.55-.92Zm0,4.11c0-.63-.41-.91-1.55-.91H204.6v1.9h1.18c1.14,0,1.55-.26,1.55-.92Z" transform="translate(-0.91 0.01)"/><path class="cls-2" d="M225.5,88.55c-6.26,0-9.91-3.5-9.91-7.72v-.26c0-4.25,3.65-7.68,9.91-7.68s9.88,3.43,9.88,7.68v.26C235.38,85.05,231.73,88.55,225.5,88.55Zm2.12-8c0-1.62-.35-3.1-2.12-3.1s-2.15,1.48-2.15,3.1v.37c0,1.6.37,3.09,2.15,3.09s2.12-1.49,2.12-3.09Z" transform="translate(-0.91 0.01)"/><path class="cls-2" d="M246,88h-9.36V73.44H246c6.48,0,9.89,3.19,9.89,7.13v.26C255.93,84.74,252.52,88,246,88Zm2.15-7.48a2.44,2.44,0,0,0-2.69-2.69h-1.21v5.73h1.21a2.44,2.44,0,0,0,2.69-2.69Z" transform="translate(-0.91 0.01)"/><path class="cls-2" d="M266.59,88h-9.36V73.44h9.36c6.47,0,9.88,3.19,9.88,7.13v.26C276.47,84.74,273.06,88,266.59,88Zm2.14-7.48A2.44,2.44,0,0,0,266,77.83h-1.2v5.73H266a2.43,2.43,0,0,0,2.69-2.69Z" transform="translate(-0.91 0.01)"/><path class="cls-2" d="M289.3,83.06V88h-7.6V83.06l-6.85-9.62h8.42l2.8,4.24,2.69-4.24h7.56Z" transform="translate(-0.91 0.01)"/></g></g><g id="june-9" class="cls-1"><g class="cls-1"><path class="cls-2" d="M175,110.36c-2.71,0-4.11-1.54-4.11-4.13v-2.52H173v2.45c0,1.47.66,2.18,1.92,2.18s1.83-.71,1.83-2.18v-12H179V106C179,108.54,177.82,110.36,175,110.36Z" transform="translate(-0.91 0.01)"/><path class="cls-2" d="M186.11,110.36c-2.56,0-4.39-1.52-4.39-4.13v-12H184v12a2.16,2.16,0,1,0,4.32,0v-12h2.23v12C190.53,108.84,188.7,110.36,186.11,110.36Z" transform="translate(-0.91 0.01)"/><path class="cls-2" d="M200.68,110l-3.92-7.7-1.33-2.78V110h-2.14V94.18h1.83l3.75,7.85,1.26,2.77V94.18h2.14V110Z" transform="translate(-0.91 0.01)"/><path class="cls-2" d="M205.07,110V94.18h7.37v2h-5.13v4.51H211v2h-3.7V108h5.13V110Z" transform="translate(-0.91 0.01)"/><path class="cls-2" d="M222.66,110.36c-2.59,0-4-1.56-4-3.63v-1h1.88v.73a1.94,1.94,0,0,0,2.21,2.07c1.35,0,2-.85,2-2.16v-3.66a3.25,3.25,0,0,1-2.83,1.4,3.14,3.14,0,0,1-3.28-3.32V97.89a4.1,4.1,0,0,1,8.2.07v8.29A3.81,3.81,0,0,1,222.66,110.36Zm2-12.59a1.93,1.93,0,0,0-2-2.09,1.85,1.85,0,0,0-2,1.93v2.87a1.8,1.8,0,0,0,2,1.9,1.87,1.87,0,0,0,2-1.9Z" transform="translate(-0.91 0.01)"/></g></g><g id="Group-3-2" data-name="Group-3"><g id="carlos-becil" class="cls-1"><g class="cls-1"><path class="cls-2" d="M109.79,212.75c-6.39,0-10.54-3.2-10.54-7.74v-.18c0-4.55,4.15-7.74,10.54-7.74,3.35,0,6.58,1,8.31,2.49l-2.84,3.61a8.33,8.33,0,0,0-4.36-1.29c-2.2,0-3.89,1.18-3.89,3V205c0,1.8,1.69,3,3.89,3a8.28,8.28,0,0,0,4.36-1.29l2.6,3.6A12.52,12.52,0,0,1,109.79,212.75Z" transform="translate(-0.91 0.01)"/><path class="cls-2" d="M130.53,212.2l-.85-2.54h-4.44l-1,2.54h-6.65L124,197.64h7.83l6.56,14.56Zm-2.88-8.59-1.07,2.73h2Z" transform="translate(-0.91 0.01)"/><path class="cls-2" d="M150.86,212.2a2.09,2.09,0,0,1-1.75-2.25v-1.34c0-1-.21-1.55-1.33-1.55h-1.27v5.14h-7.59V197.64h11.7c4,0,6.34,1.73,6.34,4.06v.2c0,1.4-1.33,2.84-3.47,3.26,2.53.24,3.23,1.73,3.23,3.41v1.2a3,3,0,0,0,.79,2.21v.22Zm-1.59-9.12c0-.76-.42-1.05-1.56-1.05h-1.2v2.32h1.2c1.14,0,1.56-.48,1.56-1.2Z" transform="translate(-0.91 0.01)"/><path class="cls-2" d="M158.53,212.2V197.64h7.61v9.51h9.18v5Z" transform="translate(-0.91 0.01)"/><path class="cls-2" d="M185.75,212.75c-6.25,0-9.91-3.5-9.91-7.72v-.26c0-4.25,3.66-7.68,9.91-7.68s9.88,3.43,9.88,7.68V205C195.63,209.25,192,212.75,185.75,212.75Zm2.12-8c0-1.62-.35-3.1-2.12-3.1s-2.14,1.48-2.14,3.1v.37c0,1.6.37,3.09,2.14,3.09s2.12-1.49,2.12-3.09Z" transform="translate(-0.91 0.01)"/><path class="cls-2" d="M205.29,212.75A20,20,0,0,1,196,210.6l2.05-3.52a20.28,20.28,0,0,0,7.35,1.62c1.27,0,2-.24,2-.63,0-1.4-10.82-.35-10.82-5.91,0-2.77,3.06-5.07,9-5.07a20.35,20.35,0,0,1,9,1.86l-2.21,3.34a23.45,23.45,0,0,0-6.26-1.15c-1,0-1.7.19-1.7.61,0,1.55,10.36.24,10.36,5.6C214.8,210.63,211.85,212.75,205.29,212.75Z" transform="translate(-0.91 0.01)"/><path class="cls-2" d="M233.75,212.2H221.57V197.64h11.92c4,0,5.88,1.59,5.88,3.82v.18c0,1.49-1.31,2.8-3.87,3.3,2.82.46,4,1.66,4,3.35v.17C239.46,210.58,237.71,212.2,233.75,212.2Zm-1.83-9.34c0-.65-.42-.91-1.56-.91h-1.18v1.9h1.18c1.14,0,1.56-.29,1.56-.92Zm0,4.11c0-.63-.42-.91-1.56-.91h-1.18V208h1.18c1.14,0,1.56-.26,1.56-.92Z" transform="translate(-0.91 0.01)"/><path class="cls-2" d="M240.72,212.2V197.64h16.69v4.65h-9.08v1.38H254v2.23h-5.69v1.25h9.08v5Z" transform="translate(-0.91 0.01)"/><path class="cls-2" d="M268.94,212.75c-6.38,0-10.53-3.2-10.53-7.74v-.18c0-4.55,4.15-7.74,10.53-7.74,3.35,0,6.59,1,8.31,2.49l-2.84,3.61a8.33,8.33,0,0,0-4.35-1.29c-2.21,0-3.89,1.18-3.89,3V205c0,1.8,1.68,3,3.89,3a8.27,8.27,0,0,0,4.35-1.29l2.6,3.6A12.52,12.52,0,0,1,268.94,212.75Z" transform="translate(-0.91 0.01)"/><path class="cls-2" d="M278.32,212.2V197.64h7.61V212.2Z" transform="translate(-0.91 0.01)"/><path class="cls-2" d="M287.89,212.2V197.64h7.61v9.51h9.19v5Z" transform="translate(-0.91 0.01)"/></g></g><g id="june-11" class="cls-1"><g class="cls-1"><path class="cls-2" d="M175.07,234.56c-2.71,0-4.11-1.54-4.11-4.13v-2.52h2.12v2.45c0,1.47.66,2.18,1.92,2.18s1.83-.71,1.83-2.18v-12h2.26v11.79C179.09,232.74,177.92,234.56,175.07,234.56Z" transform="translate(-0.91 0.01)"/><path class="cls-2" d="M186.21,234.56c-2.56,0-4.39-1.52-4.39-4.13V218.38h2.26v12.05a2.16,2.16,0,0,0,4.32,0V218.38h2.23v12.05C190.63,233,188.8,234.56,186.21,234.56Z" transform="translate(-0.91 0.01)"/><path class="cls-2" d="M200.78,234.21l-3.92-7.7-1.33-2.78v10.48h-2.14V218.38h1.83l3.75,7.85,1.26,2.77V218.38h2.14v15.83Z" transform="translate(-0.91 0.01)"/><path class="cls-2" d="M205.17,234.21V218.38h7.37v2.05h-5.13v4.51h3.7v1.95h-3.7v5.28h5.13v2Z" transform="translate(-0.91 0.01)"/><path class="cls-2" d="M219.26,234.21v-14.8a.94.94,0,0,0,1-1h1.11v15.83Z" transform="translate(-0.91 0.01)"/><path class="cls-2" d="M224.92,234.21v-14.8a.94.94,0,0,0,1-1h1.12v15.83Z" transform="translate(-0.91 0.01)"/></g></g></g><g id="Group-3-Copy"><g id="wendy-chan" class="cls-1"><g class="cls-1"><path class="cls-2" d="M128.71,274.3h-8.28l-2.3-7.33-2.3,7.33h-7.45l-5.1-14.56h8.16l2.08,7.5,2.1-7.5H123l2.21,7.58,2.21-7.58h6.47Z" transform="translate(-0.91 0.01)"/><path class="cls-2" d="M134.52,274.3V259.74H151.2v4.65h-9.07v1.38h5.68V268h-5.68v1.25h9.07v5.05Z" transform="translate(-0.91 0.01)"/><path class="cls-2" d="M165.21,274.3l-5.09-5.05-.55-.64v5.69h-6.82V259.74h6.17l5.46,5.09.51.55v-5.64h6.84V274.3Z" transform="translate(-0.91 0.01)"/><path class="cls-2" d="M182.94,274.3h-9.36V259.74h9.36c6.47,0,9.88,3.19,9.88,7.13v.26C192.82,271,189.41,274.3,182.94,274.3Zm2.14-7.48a2.44,2.44,0,0,0-2.69-2.69h-1.2v5.73h1.2a2.43,2.43,0,0,0,2.69-2.69Z" transform="translate(-0.91 0.01)"/><path class="cls-2" d="M205.65,269.36v4.94h-7.6v-4.94l-6.85-9.62h8.42l2.8,4.24,2.69-4.24h7.56Z" transform="translate(-0.91 0.01)"/><path class="cls-2" d="M228.74,274.85c-6.39,0-10.54-3.2-10.54-7.74v-.18c0-4.55,4.15-7.74,10.54-7.74,3.34,0,6.58,1.05,8.31,2.49l-2.85,3.61a8.3,8.3,0,0,0-4.35-1.29c-2.21,0-3.89,1.18-3.89,3v.09c0,1.8,1.68,3,3.89,3a8.21,8.21,0,0,0,4.35-1.29l2.6,3.6A12.51,12.51,0,0,1,228.74,274.85Z" transform="translate(-0.91 0.01)"/><path class="cls-2" d="M249.57,274.3v-5.05h-3.85v5.05h-7.61V259.74h7.61v5.46h3.85v-5.46h7.63V274.3Z" transform="translate(-0.91 0.01)"/><path class="cls-2" d="M270.53,274.3l-.85-2.54h-4.44l-1,2.54h-6.65L264,259.74h7.83l6.55,14.56Zm-2.89-8.59-1.07,2.73h2Z" transform="translate(-0.91 0.01)"/><path class="cls-2" d="M291.38,274.3l-5.09-5.05-.55-.64v5.69h-6.82V259.74h6.17l5.46,5.09.51.55v-5.64h6.84V274.3Z" transform="translate(-0.91 0.01)"/></g></g><g id="june-12" class="cls-1"><g class="cls-1"><path class="cls-2" d="M175,296.66c-2.71,0-4.11-1.54-4.11-4.13V290H173v2.45c0,1.47.66,2.18,1.92,2.18s1.83-.71,1.83-2.18v-12H179v11.79C179,294.83,177.82,296.66,175,296.66Z" transform="translate(-0.91 0.01)"/><path class="cls-2" d="M186.11,296.66c-2.56,0-4.39-1.52-4.39-4.13v-12H184v12a2.16,2.16,0,0,0,4.32,0v-12h2.23v12C190.53,295.14,188.7,296.66,186.11,296.66Z" transform="translate(-0.91 0.01)"/><path class="cls-2" d="M200.68,296.31l-3.92-7.7-1.33-2.78v10.48h-2.14V280.48h1.83l3.75,7.85,1.26,2.77V280.48h2.14v15.83Z" transform="translate(-0.91 0.01)"/><path class="cls-2" d="M205.07,296.31V280.48h7.37v2h-5.13V287H211V289h-3.7v5.27h5.13v2.05Z" transform="translate(-0.91 0.01)"/><path class="cls-2" d="M219.16,296.31v-14.8a.94.94,0,0,0,1-1h1.11v15.83Z" transform="translate(-0.91 0.01)"/><path class="cls-2" d="M228.31,290c-1.66,1.68-2.21,3.18-2.21,4.27h5.73v2.05h-8v-.86c0-2.25.5-4,3.32-6.86,1.93-1.81,2.78-3,2.78-4.54A1.81,1.81,0,0,0,228,282c-1.38,0-2,.79-2,2.14v1.45h-1.9V284.1a3.68,3.68,0,0,1,3.85-4c2.88,0,4,1.87,4,4S230.64,288.09,228.31,290Z" transform="translate(-0.91 0.01)"/></g></g></g><g id="Group-3-Copy-2"><g id="sarah-waiser" class="cls-1"><g class="cls-1"><path class="cls-2" d="M100.76,337a20,20,0,0,1-9.31-2.15l2-3.52a20.28,20.28,0,0,0,7.35,1.62c1.27,0,2-.24,2-.63,0-1.4-10.82-.35-10.82-5.91,0-2.77,3.06-5.07,9-5.07a20.35,20.35,0,0,1,9,1.86l-2.21,3.35a23.13,23.13,0,0,0-6.26-1.16c-1,0-1.7.19-1.7.61,0,1.55,10.36.24,10.36,5.6C110.27,334.83,107.32,337,100.76,337Z" transform="translate(-0.91 0.01)"/><path class="cls-2" d="M122.71,336.4l-.85-2.54h-4.44l-1,2.54h-6.64l6.42-14.56H124l6.56,14.56Zm-2.89-8.59-1.07,2.73h2Z" transform="translate(-0.91 0.01)"/><path class="cls-2" d="M143,336.4a2.08,2.08,0,0,1-1.75-2.25v-1.34c0-1-.22-1.55-1.33-1.55h-1.27v5.14H131.1V321.84h11.7c4,0,6.34,1.73,6.34,4.06v.2c0,1.4-1.34,2.84-3.48,3.26,2.54.24,3.24,1.73,3.24,3.41V334a3,3,0,0,0,.79,2.21v.22Zm-1.6-9.12c0-.76-.41-1-1.55-1h-1.2v2.32h1.2c1.14,0,1.55-.48,1.55-1.2Z" transform="translate(-0.91 0.01)"/><path class="cls-2" d="M162.08,336.4l-.86-2.54h-4.43l-1,2.54h-6.65l6.43-14.56h7.83L170,336.4Zm-2.89-8.59-1.07,2.73h2Z" transform="translate(-0.91 0.01)"/><path class="cls-2" d="M181.92,336.4v-5h-3.84v5h-7.61V321.84h7.61v5.46h3.84v-5.46h7.64V336.4Z" transform="translate(-0.91 0.01)"/><path class="cls-2" d="M221.23,336.4h-8.29l-2.29-7.32-2.3,7.32H200.9l-5.1-14.56H204l2.07,7.5,2.1-7.5h7.37l2.21,7.58,2.21-7.58h6.47Z" transform="translate(-0.91 0.01)"/><path class="cls-2" d="M236.88,336.4l-.86-2.54h-4.44l-1,2.54H224l6.43-14.56h7.83l6.56,14.56ZM234,327.81l-1.07,2.73h2Z" transform="translate(-0.91 0.01)"/><path class="cls-2" d="M245.27,336.4V321.84h7.61V336.4Z" transform="translate(-0.91 0.01)"/><path class="cls-2" d="M263.08,337a20,20,0,0,1-9.31-2.15l2-3.52a20.28,20.28,0,0,0,7.35,1.62c1.27,0,2-.24,2-.63,0-1.4-10.83-.35-10.83-5.91,0-2.77,3.06-5.07,9-5.07a20.31,20.31,0,0,1,9,1.86l-2.21,3.35a23.14,23.14,0,0,0-6.25-1.16c-1.05,0-1.71.19-1.71.61,0,1.55,10.37.24,10.37,5.6C272.6,334.83,269.64,337,263.08,337Z" transform="translate(-0.91 0.01)"/><path class="cls-2" d="M273.88,336.4V321.84h16.68v4.66h-9.07v1.37h5.68v2.23h-5.68v1.25h9.07v5Z" transform="translate(-0.91 0.01)"/><path class="cls-2" d="M304.05,336.4a2.08,2.08,0,0,1-1.75-2.25v-1.34c0-1-.22-1.55-1.33-1.55H299.7v5.14h-7.59V321.84h11.7c4,0,6.34,1.73,6.34,4.06v.2c0,1.4-1.33,2.84-3.48,3.26,2.54.24,3.24,1.73,3.24,3.41V334a3,3,0,0,0,.79,2.21v.22Zm-1.6-9.12c0-.76-.41-1-1.55-1h-1.2v2.32h1.2c1.14,0,1.55-.48,1.55-1.2Z" transform="translate(-0.91 0.01)"/></g></g><g id="june-13" class="cls-1"><g class="cls-1"><path class="cls-2" d="M175,358.76c-2.71,0-4.11-1.54-4.11-4.13v-2.52H173v2.45c0,1.47.66,2.19,1.92,2.19s1.83-.72,1.83-2.19v-12H179v11.79C179,356.94,177.82,358.76,175,358.76Z" transform="translate(-0.91 0.01)"/><path class="cls-2" d="M186.11,358.76c-2.56,0-4.39-1.52-4.39-4.13V342.58H184v12.05a2.16,2.16,0,0,0,4.32,0V342.58h2.23v12.05C190.53,357.24,188.7,358.76,186.11,358.76Z" transform="translate(-0.91 0.01)"/><path class="cls-2" d="M200.68,358.41l-3.92-7.7-1.33-2.78v10.48h-2.14V342.58h1.83l3.75,7.85,1.26,2.78V342.58h2.14v15.83Z" transform="translate(-0.91 0.01)"/><path class="cls-2" d="M205.07,358.41V342.58h7.37v2.05h-5.13v4.51H211v1.95h-3.7v5.28h5.13v2Z" transform="translate(-0.91 0.01)"/><path class="cls-2" d="M219.16,358.41v-14.8a.94.94,0,0,0,1-1h1.11v15.83Z" transform="translate(-0.91 0.01)"/><path class="cls-2" d="M227.91,358.76a3.54,3.54,0,0,1-3.85-3.75v-1.43H226v1.17c0,1.42.57,2.16,1.9,2.16a1.79,1.79,0,0,0,2-2v-2.21c0-.74-.36-1.45-1.71-1.45h-1.23V349.5h1.23c1.35,0,1.71-.69,1.71-1.45v-1.9c0-1.33-.64-2.07-2-2.07s-1.9.76-1.9,2.16v1.17h-1.9V346a3.52,3.52,0,0,1,3.85-3.75c2.54,0,4,1.52,4,3.8v1.62a2.45,2.45,0,0,1-1.88,2.61,2.41,2.41,0,0,1,1.88,2.52V355A3.6,3.6,0,0,1,227.91,358.76Z" transform="translate(-0.91 0.01)"/></g></g></g><g id="Group-3-Copy-3"><g id="bobby-marcus" class="cls-1"><g class="cls-1"><path class="cls-2" d="M99.93,398.5H87.75V383.94H99.67c4,0,5.88,1.59,5.88,3.82v.18c0,1.49-1.31,2.8-3.87,3.3,2.82.46,4,1.66,4,3.35v.17C105.64,396.88,103.89,398.5,99.93,398.5Zm-1.83-9.34c0-.65-.42-.91-1.56-.91H95.36v1.9h1.18c1.14,0,1.56-.29,1.56-.92Zm0,4.11c0-.63-.42-.91-1.56-.91H95.36v1.9h1.18c1.14,0,1.56-.26,1.56-.92Z" transform="translate(-0.91 0.01)"/><path class="cls-2" d="M116.26,399.05c-6.25,0-9.91-3.5-9.91-7.72v-.26c0-4.25,3.66-7.68,9.91-7.68s9.88,3.43,9.88,7.68v.26C126.14,395.55,122.49,399.05,116.26,399.05Zm2.12-8c0-1.62-.35-3.1-2.12-3.1s-2.14,1.48-2.14,3.1v.37c0,1.6.37,3.09,2.14,3.09s2.12-1.49,2.12-3.09Z" transform="translate(-0.91 0.01)"/><path class="cls-2" d="M139.74,398.5H127.56V383.94h11.91c4,0,5.89,1.59,5.89,3.82v.18c0,1.49-1.32,2.8-3.87,3.3,2.82.46,3.95,1.66,3.95,3.35v.17C145.44,396.88,143.69,398.5,139.74,398.5Zm-1.84-9.34c0-.65-.42-.91-1.55-.91h-1.18v1.9h1.18c1.13,0,1.55-.29,1.55-.92Zm0,4.11c0-.63-.42-.91-1.55-.91h-1.18v1.9h1.18c1.13,0,1.55-.26,1.55-.92Z" transform="translate(-0.91 0.01)"/><path class="cls-2" d="M158.89,398.5H146.71V383.94h11.91c4,0,5.88,1.59,5.88,3.82v.18c0,1.49-1.31,2.8-3.87,3.3,2.83.46,4,1.66,4,3.35v.17C164.59,396.88,162.84,398.5,158.89,398.5Zm-1.84-9.34c0-.65-.42-.91-1.55-.91h-1.18v1.9h1.18c1.13,0,1.55-.29,1.55-.92Zm0,4.11c0-.63-.42-.91-1.55-.91h-1.18v1.9h1.18c1.13,0,1.55-.26,1.55-.92Z" transform="translate(-0.91 0.01)"/><path class="cls-2" d="M178.58,393.56v4.94H171v-4.94l-6.84-9.62h8.42l2.8,4.24,2.69-4.24h7.56Z" transform="translate(-0.91 0.01)"/><path class="cls-2" d="M210.13,398.5v-7.85l-.61,1.79-2.13,6.06h-6.53l-2.1-6.06-.62-1.79v7.85h-6.47V383.94h10.72l2,5.7.36,1.16.34-1.16,2-5.7h10.37V398.5Z" transform="translate(-0.91 0.01)"/><path class="cls-2" d="M230.72,398.5l-.86-2.54h-4.44l-1,2.54h-6.65l6.43-14.56h7.83l6.56,14.56Zm-2.89-8.59-1.07,2.73h2Z" transform="translate(-0.91 0.01)"/><path class="cls-2" d="M251.05,398.5a2.08,2.08,0,0,1-1.75-2.25v-1.34c0-1-.22-1.55-1.34-1.55h-1.27v5.14h-7.58V383.94H250.8c4,0,6.35,1.73,6.35,4.06v.2c0,1.4-1.34,2.84-3.48,3.26,2.54.24,3.24,1.73,3.24,3.41v1.2a3,3,0,0,0,.78,2.21v.22Zm-1.6-9.12c0-.76-.42-1.05-1.55-1.05h-1.21v2.32h1.21c1.13,0,1.55-.48,1.55-1.2Z" transform="translate(-0.91 0.01)"/><path class="cls-2" d="M268.71,399.05c-6.39,0-10.54-3.2-10.54-7.74v-.18c0-4.55,4.15-7.74,10.54-7.74,3.34,0,6.58,1.05,8.31,2.49l-2.85,3.61a8.3,8.3,0,0,0-4.35-1.29c-2.21,0-3.89,1.18-3.89,3v.09c0,1.8,1.68,3,3.89,3a8.24,8.24,0,0,0,4.35-1.29l2.61,3.6A12.56,12.56,0,0,1,268.71,399.05Z" transform="translate(-0.91 0.01)"/><path class="cls-2" d="M287.55,399.05c-6.87,0-9.58-3-9.58-6.8v-8.31h7.61v7.76c0,1.81.55,2.6,2.36,2.6s2.32-.79,2.32-2.6v-7.76H297v8.31C297,396.05,294.44,399.05,287.55,399.05Z" transform="translate(-0.91 0.01)"/><path class="cls-2" d="M307.11,399.05a20,20,0,0,1-9.31-2.15l2.05-3.52A20.28,20.28,0,0,0,307.2,395c1.27,0,2-.24,2-.63,0-1.4-10.82-.35-10.82-5.91,0-2.77,3.06-5.07,9-5.07a20.31,20.31,0,0,1,9,1.86l-2.21,3.34a23.45,23.45,0,0,0-6.26-1.15c-1,0-1.7.19-1.7.61,0,1.55,10.36.24,10.36,5.6C316.62,396.93,313.67,399.05,307.11,399.05Z" transform="translate(-0.91 0.01)"/></g></g><g id="june-14" class="cls-1"><g class="cls-1"><path class="cls-2" d="M175,420.86c-2.71,0-4.11-1.54-4.11-4.13v-2.52H173v2.45c0,1.47.66,2.18,1.92,2.18s1.83-.71,1.83-2.18v-12H179v11.79C179,419,177.82,420.86,175,420.86Z" transform="translate(-0.91 0.01)"/><path class="cls-2" d="M186.11,420.86c-2.56,0-4.39-1.52-4.39-4.13V404.68H184v12.05a2.16,2.16,0,1,0,4.32,0V404.68h2.23v12.05C190.53,419.34,188.7,420.86,186.11,420.86Z" transform="translate(-0.91 0.01)"/><path class="cls-2" d="M200.68,420.51l-3.92-7.7L195.43,410v10.48h-2.14V404.68h1.83l3.75,7.85,1.26,2.77V404.68h2.14v15.83Z" transform="translate(-0.91 0.01)"/><path class="cls-2" d="M205.07,420.51V404.68h7.37v2.05h-5.13v4.51H211v1.95h-3.7v5.27h5.13v2.05Z" transform="translate(-0.91 0.01)"/><path class="cls-2" d="M219.16,420.51v-14.8a.94.94,0,0,0,1-1h1.11v15.83Z" transform="translate(-0.91 0.01)"/><path class="cls-2" d="M230.73,416.92v3.59h-1.9v-3.59h-5.39v-1.57L229,404.68h1.73V415h1.41v1.88Zm-1.9-8.1L225.65,415h3.18Z" transform="translate(-0.91 0.01)"/></g></g></g><g id="Group-3-Copy-4"><g id="emily-wolfe" class="cls-1"><g class="cls-1"><path class="cls-2" d="M100.55,460.6V446h16.68v4.65h-9.07v1.38h5.69v2.23h-5.69v1.25h9.07v5.05Z" transform="translate(-0.91 0.01)"/><path class="cls-2" d="M137.24,460.6v-7.85l-.62,1.79-2.12,6.06H128l-2.1-6.06-.62-1.79v7.85h-6.47V446H129.5l2,5.7.35,1.16.35-1.16,2-5.7H144.5V460.6Z" transform="translate(-0.91 0.01)"/><path class="cls-2" d="M146.46,460.6V446h7.6V460.6Z" transform="translate(-0.91 0.01)"/><path class="cls-2" d="M156,460.6V446h7.61v9.51h9.18v5.05Z" transform="translate(-0.91 0.01)"/><path class="cls-2" d="M183.77,455.66v4.94h-7.61v-4.94L169.32,446h8.42l2.8,4.24,2.69-4.24h7.56Z" transform="translate(-0.91 0.01)"/><path class="cls-2" d="M221.09,460.6H212.8l-2.29-7.33-2.3,7.33h-7.46L195.66,446h8.15l2.08,7.5L208,446h7.37l2.21,7.58,2.21-7.58h6.47Z" transform="translate(-0.91 0.01)"/><path class="cls-2" d="M235.49,461.15c-6.25,0-9.9-3.5-9.9-7.72v-.26c0-4.25,3.65-7.68,9.9-7.68s9.89,3.43,9.89,7.68v.26C245.38,457.65,241.72,461.15,235.49,461.15Zm2.12-8c0-1.62-.35-3.1-2.12-3.1s-2.14,1.48-2.14,3.1v.37c0,1.6.37,3.09,2.14,3.09s2.12-1.49,2.12-3.09Z" transform="translate(-0.91 0.01)"/><path class="cls-2" d="M246.79,460.6V446h7.61v9.51h9.18v5.05Z" transform="translate(-0.91 0.01)"/><path class="cls-2" d="M272.48,450.69v1.78h4.78v2.58h-4.78v5.55h-7.61V446h17.07v4.65Z" transform="translate(-0.91 0.01)"/><path class="cls-2" d="M283.05,460.6V446h16.69v4.65h-9.08v1.38h5.69v2.23h-5.69v1.25h9.08v5.05Z" transform="translate(-0.91 0.01)"/></g></g><g id="june-15" class="cls-1"><g class="cls-1"><path class="cls-2" d="M175,483c-2.71,0-4.11-1.54-4.11-4.13v-2.52H173v2.45c0,1.47.66,2.19,1.92,2.19s1.83-.72,1.83-2.19v-12H179v11.78C179,481.14,177.82,483,175,483Z" transform="translate(-0.91 0.01)"/><path class="cls-2" d="M186.11,483c-2.56,0-4.39-1.52-4.39-4.13v-12H184v12a2.16,2.16,0,0,0,4.32,0v-12h2.23v12C190.53,481.44,188.7,483,186.11,483Z" transform="translate(-0.91 0.01)"/><path class="cls-2" d="M200.68,482.61l-3.92-7.7-1.33-2.78v10.48h-2.14V466.79h1.83l3.75,7.84,1.26,2.78V466.79h2.14v15.82Z" transform="translate(-0.91 0.01)"/><path class="cls-2" d="M205.07,482.61V466.79h7.37v2h-5.13v4.51H211v2h-3.7v5.28h5.13v2Z" transform="translate(-0.91 0.01)"/><path class="cls-2" d="M219.16,482.61v-14.8a.94.94,0,0,0,1-1h1.11v15.82Z" transform="translate(-0.91 0.01)"/><path class="cls-2" d="M230.21,468.76h-3.73l-.31,4.58a3.31,3.31,0,0,1,2.92-1.33,2.81,2.81,0,0,1,2.95,3v4c0,2.37-1.47,3.89-4.06,3.89a3.61,3.61,0,0,1-3.85-3.75V478H226V479c0,1.28.62,2.16,1.95,2.16s2-.71,2-2.16v-3.56a1.5,1.5,0,0,0-1.57-1.69,2.47,2.47,0,0,0-2.35,1.78l-1.76-.36.43-8.33H232C232,468.21,231.57,468.76,230.21,468.76Z" transform="translate(-0.91 0.01)"/></g></g></g></g></g></g></svg>