<svg id="Layer_1" data-name="Layer 1" xmlns="http://www.w3.org/2000/svg" viewBox="0 0 695.33 198.18"><defs><style>.cls-1{isolation:isolate;}.cls-2{fill:#231f20;}</style></defs><title>power-lies-within</title><g id="Page-1"><g id="the-power-lies" class="cls-1"><g class="cls-1"><path class="cls-2" d="M38.35,16.62V44h-22V16.62H.87V2h53V16.62Z" transform="translate(-0.87 -0.4)"/><path class="cls-2" d="M91,44V29.42H79.86V44h-22V2h22V17.75H91V2h22V44Z" transform="translate(-0.87 -0.4)"/><path class="cls-2" d="M118.67,44V2h48.14V15.42H140.63v4H157v6.44h-16.4v3.59h26.18V44Z" transform="translate(-0.87 -0.4)"/><path class="cls-2" d="M221,31.25H209.09V44h-22V2h33.31c12.68,0,18.81,6.43,18.81,14.07v.63C239.25,24.31,233.57,31.25,221,31.25ZM217,18.38c0-2.33-1-3.47-4.29-3.47h-3.66V22h3.66C216,22,217,20.78,217,18.57Z" transform="translate(-0.87 -0.4)"/><path class="cls-2" d="M270.35,45.58c-18,0-28.58-10.1-28.58-22.28v-.75C241.77,10.31,252.31.4,270.35.4s28.52,9.91,28.52,22.15v.75C298.87,35.48,288.33,45.58,270.35,45.58Zm6.12-23.16c0-4.67-1-9-6.12-9s-6.18,4.29-6.18,9v1.07c0,4.61,1.07,8.9,6.18,8.9s6.12-4.29,6.12-8.9Z" transform="translate(-0.87 -0.4)"/><path class="cls-2" d="M370.68,44H346.77l-6.63-21.14L333.52,44H312L297.3,2h23.54l6,21.64L332.89,2h21.26l6.37,21.89L366.9,2h18.67Z" transform="translate(-0.87 -0.4)"/><path class="cls-2" d="M387.47,44V2h48.14V15.42H409.42v4h16.41v6.44H409.42v3.59h26.19V44Z" transform="translate(-0.87 -0.4)"/><path class="cls-2" d="M474.54,44c-2.52,0-5.05-2.78-5.05-6.5V33.65c0-3-.63-4.48-3.85-4.48H462V44H440.09V2h33.76c11.42,0,18.29,5,18.29,11.73v.57c0,4-3.85,8.2-10,9.4,7.32.7,9.34,5,9.34,9.85V37a8.62,8.62,0,0,0,2.27,6.37V44Zm-4.61-26.31c0-2.21-1.19-3-4.48-3H462v6.69h3.47c3.29,0,4.48-1.39,4.48-3.47Z" transform="translate(-0.87 -0.4)"/><path class="cls-2" d="M512.52,44V2h22V29.42H561V44Z" transform="translate(-0.87 -0.4)"/><path class="cls-2" d="M564.71,44V2h21.95V44Z" transform="translate(-0.87 -0.4)"/><path class="cls-2" d="M592.34,44V2h48.14V15.42H614.3v4h16.4v6.44H614.3v3.59h26.18V44Z" transform="translate(-0.87 -0.4)"/><path class="cls-2" d="M668.75,45.58c-10.09,0-20.82-2.59-26.88-6.19l5.93-10.15A58.61,58.61,0,0,0,669,33.9c3.66,0,5.87-.69,5.87-1.82,0-4-31.23-1-31.23-17C643.64,7,652.47.4,669.7.4c11.86,0,21.45,2.9,25.93,5.36l-6.37,9.66c-7-2.15-13.57-3.35-18-3.35-3,0-4.92.57-4.92,1.77,0,4.48,29.91.69,29.91,16.15C696.2,39.46,687.68,45.58,668.75,45.58Z" transform="translate(-0.87 -0.4)"/></g></g><g id="within-you." class="cls-1"><g class="cls-1"><path class="cls-2" d="M156.75,95H132.83l-6.62-21.14L119.58,95H98.07L83.37,53H106.9l6,21.64L119,53h21.27l6.37,21.89L153,53h18.68Z" transform="translate(-0.87 -0.4)"/><path class="cls-2" d="M173.53,95V53h22V95Z" transform="translate(-0.87 -0.4)"/><path class="cls-2" d="M237,67.62V95h-22V67.62H199.53V53h53V67.62Z" transform="translate(-0.87 -0.4)"/><path class="cls-2" d="M289.63,95V80.42H278.52V95H256.57V53h21.95V68.75h11.11V53h22V95Z" transform="translate(-0.87 -0.4)"/><path class="cls-2" d="M317.33,95V53h22V95Z" transform="translate(-0.87 -0.4)"/><path class="cls-2" d="M380.93,95l-14.7-14.58-1.58-1.82V95H345V53h17.79l15.77,14.7L380,69.26V53h19.75V95Z" transform="translate(-0.87 -0.4)"/><path class="cls-2" d="M458.92,80.74V95H437V80.74L417.21,53H441.5l8.08,12.24L457.34,53h21.83Z" transform="translate(-0.87 -0.4)"/><path class="cls-2" d="M503.15,96.58c-18,0-28.58-10.1-28.58-22.28v-.75c0-12.24,10.54-22.15,28.58-22.15s28.52,9.91,28.52,22.15v.75C531.67,86.48,521.13,96.58,503.15,96.58Zm6.12-23.16c0-4.67-1-9-6.12-9s-6.18,4.29-6.18,9v1.07c0,4.61,1.07,8.9,6.18,8.9s6.12-4.29,6.12-8.9Z" transform="translate(-0.87 -0.4)"/><path class="cls-2" d="M563.09,96.58c-19.81,0-27.63-8.65-27.63-19.62V53h22v22.4c0,5.23,1.57,7.51,6.81,7.51s6.69-2.28,6.69-7.51V53h19.49V77C590.41,87.93,583,96.58,563.09,96.58Z" transform="translate(-0.87 -0.4)"/><path class="cls-2" d="M593.57,95V82.07h13.5V95Z" transform="translate(-0.87 -0.4)"/></g></g><g id="batteries-not" class="cls-1"><g class="cls-1"><path class="cls-2" d="M66.25,146H31.11V104H65.5c11.54,0,17,4.6,17,11v.51c0,4.29-3.79,8.07-11.17,9.52,8.14,1.33,11.42,4.8,11.42,9.66v.5C82.72,141.33,77.67,146,66.25,146ZM61,119.06c0-1.89-1.19-2.65-4.48-2.65h-3.4v5.49h3.4c3.29,0,4.48-.82,4.48-2.65Zm0,11.86c0-1.83-1.19-2.65-4.48-2.65h-3.4v5.49h3.4c3.29,0,4.48-.76,4.48-2.65Z" transform="translate(-0.87 -0.4)"/><path class="cls-2" d="M117.93,146l-2.46-7.32H102.66L99.82,146H80.64l18.55-42h22.59l18.93,42Zm-8.33-24.8-3.09,7.89h5.8Z" transform="translate(-0.87 -0.4)"/><path class="cls-2" d="M171.38,118.62V146h-22V118.62H133.9V104h53v14.64Z" transform="translate(-0.87 -0.4)"/><path class="cls-2" d="M225.51,118.62V146H203.56V118.62H188V104h53v14.64Z" transform="translate(-0.87 -0.4)"/><path class="cls-2" d="M243.81,146V104H292v13.44H265.77v4h16.4v6.44h-16.4v3.59H292V146Z" transform="translate(-0.87 -0.4)"/><path class="cls-2" d="M329.62,146c-2.52,0-5-2.78-5-6.5v-3.85c0-3-.64-4.48-3.85-4.48h-3.66V146h-21.9V104h33.76c11.42,0,18.3,5,18.3,11.73v.57c0,4-3.85,8.2-10,9.4,7.32.7,9.34,5,9.34,9.85V139a8.62,8.62,0,0,0,2.27,6.37V146ZM325,119.69c0-2.21-1.2-3-4.48-3h-3.47v6.69h3.47c3.28,0,4.48-1.39,4.48-3.47Z" transform="translate(-0.87 -0.4)"/><path class="cls-2" d="M350.51,146V104h22v42Z" transform="translate(-0.87 -0.4)"/><path class="cls-2" d="M376.88,146V104H425v13.44H398.84v4h16.41v6.44H398.84v3.59H425V146Z" transform="translate(-0.87 -0.4)"/><path class="cls-2" d="M452,147.58c-10.09,0-20.82-2.59-26.88-6.19l5.93-10.15a58.61,58.61,0,0,0,21.2,4.66c3.66,0,5.87-.69,5.87-1.82,0-4-31.23-1-31.23-17,0-8,8.83-14.64,26.06-14.64,11.86,0,21.45,2.9,25.93,5.36l-6.37,9.66c-7-2.15-13.57-3.35-18.05-3.35-3,0-4.92.57-4.92,1.77,0,4.48,29.91.69,29.91,16.15C479.48,141.46,471,147.58,452,147.58Z" transform="translate(-0.87 -0.4)"/><path class="cls-2" d="M532.48,146l-14.7-14.58-1.58-1.82V146H496.51V104h17.8l15.77,14.7,1.45,1.58V104h19.75v42Z" transform="translate(-0.87 -0.4)"/><path class="cls-2" d="M582.7,147.58c-18,0-28.58-10.1-28.58-22.28v-.75c0-12.24,10.54-22.15,28.58-22.15s28.52,9.91,28.52,22.15v.75C611.22,137.48,600.69,147.58,582.7,147.58Zm6.12-23.16c0-4.67-1-9-6.12-9s-6.18,4.29-6.18,9v1.07c0,4.61,1.07,8.9,6.18,8.9s6.12-4.29,6.12-8.9Z" transform="translate(-0.87 -0.4)"/><path class="cls-2" d="M648.64,118.62V146h-22V118.62H611.16V104h53v14.64Z" transform="translate(-0.87 -0.4)"/></g></g><g id="required." class="cls-1"><g class="cls-1"><path class="cls-2" d="M171,197c-2.53,0-5.05-2.78-5.05-6.5v-3.85c0-3-.63-4.48-3.85-4.48h-3.66V197H136.55V155H170.3c11.42,0,18.3,5,18.3,11.73v.57c0,4-3.85,8.2-10,9.4,7.32.7,9.34,5,9.34,9.85V190a8.62,8.62,0,0,0,2.27,6.37V197Zm-4.61-26.31c0-2.21-1.2-3-4.48-3h-3.47v6.69h3.47c3.28,0,4.48-1.39,4.48-3.47Z" transform="translate(-0.87 -0.4)"/><path class="cls-2" d="M191.88,197V155H240v13.44H213.84v4h16.4v6.44h-16.4v3.59H240V197Z" transform="translate(-0.87 -0.4)"/><path class="cls-2" d="M293.28,198.58a18.1,18.1,0,0,1-9.4-2.4,36.81,36.81,0,0,1-13.7,2.4c-18,0-28.51-10.1-28.51-22.28v-.75c0-12.24,10.53-22.15,28.51-22.15s28.59,9.91,28.59,22.15v.75a18.18,18.18,0,0,1-2.78,9.85,8,8,0,0,0,4.67,1.13V197.5C299.08,198.2,296.94,198.58,293.28,198.58Zm-16.91-23.16c0-4.67-1.07-9-6.19-9s-6.12,4.29-6.12,9v1.07c0,4.61,1,8.9,6.12,8.9a6.79,6.79,0,0,0,3.29-.82l-2.34-2.71,5.24-4.92Z" transform="translate(-0.87 -0.4)"/><path class="cls-2" d="M329.56,198.58c-19.81,0-27.64-8.65-27.64-19.62V155h22v22.4c0,5.23,1.58,7.51,6.81,7.51s6.69-2.28,6.69-7.51V155h19.5v24C356.88,189.93,349.43,198.58,329.56,198.58Z" transform="translate(-0.87 -0.4)"/><path class="cls-2" d="M361,197V155h22v42Z" transform="translate(-0.87 -0.4)"/><path class="cls-2" d="M421.8,197c-2.52,0-5-2.78-5-6.5v-3.85c0-3-.63-4.48-3.85-4.48h-3.66V197H387.36V155h33.75c11.42,0,18.3,5,18.3,11.73v.57c0,4-3.85,8.2-10,9.4,7.32.7,9.33,5,9.33,9.85V190a8.63,8.63,0,0,0,2.28,6.37V197Zm-4.6-26.31c0-2.21-1.2-3-4.48-3h-3.47v6.69h3.47c3.28,0,4.48-1.39,4.48-3.47Z" transform="translate(-0.87 -0.4)"/><path class="cls-2" d="M442.69,197V155h48.14v13.44H464.65v4h16.4v6.44h-16.4v3.59h26.18V197Z" transform="translate(-0.87 -0.4)"/><path class="cls-2" d="M520.74,197h-27V155h27c18.68,0,28.52,9.21,28.52,20.57v.75C549.26,187.6,539.42,197,520.74,197Zm6.18-21.58c0-4.23-2.08-7.76-7.76-7.76h-3.47v16.53h3.47c5.68,0,7.76-3.53,7.76-7.76Z" transform="translate(-0.87 -0.4)"/><path class="cls-2" d="M549.26,197V184.07h13.5V197Z" transform="translate(-0.87 -0.4)"/></g></g></g></svg>