<svg id="Layer_1" data-name="Layer 1" xmlns="http://www.w3.org/2000/svg" viewBox="0 0 414.92 45.11"><defs><style>.cls-1{isolation:isolate;}.cls-2{fill:#fff;}</style></defs><title>tygapaw</title><g id="Page-1"><g id="tygapaw" class="cls-1"><g class="cls-1"><path class="cls-2" d="M38.11,16.66V44H16.18V16.66H.68V2H53.6V16.66Z" transform="translate(-0.68 -0.46)"/><path class="cls-2" d="M95.25,29.76V44H73.32V29.76L53.6,2H77.86l8.06,12.22L93.67,2h21.8Z" transform="translate(-0.68 -0.46)"/><path class="cls-2" d="M153.71,44l-.82-3.78c-3.9,3.53-9.51,5.36-15.31,5.36-14.68,0-26.71-8.64-26.71-22v-.76c0-13.17,12.6-22.37,29.42-22.37,10.46,0,18.34,2,24.76,5.11l-6.61,12.22a32.31,32.31,0,0,0-13.86-3.34c-6.93,0-11.34,3.91-11.34,9.33v.37c0,4.85,3.59,8.26,9.32,8.26a8.58,8.58,0,0,0,7.31-3.47v-.25h-10V21.26h26.14V44Z" transform="translate(-0.68 -0.46)"/><path class="cls-2" d="M203.73,44l-2.46-7.31H188.48L185.65,44H166.49L185,2h22.55l18.9,42Zm-8.32-24.76-3.09,7.88h5.8Z" transform="translate(-0.68 -0.46)"/><path class="cls-2" d="M261.69,31.27H249.84V44H227.92V2h33.26C273.85,2,280,8.47,280,16.09v.63C280,24.34,274.29,31.27,261.69,31.27Zm-3.91-12.85c0-2.33-1-3.46-4.28-3.46h-3.66v7.12h3.66c3.27,0,4.28-1.27,4.28-3.47Z" transform="translate(-0.68 -0.46)"/><path class="cls-2" d="M311.46,44,309,36.69H296.21L293.38,44H274.22L292.75,2H315.3l18.9,42Zm-8.32-24.76-3.08,7.88h5.79Z" transform="translate(-0.68 -0.46)"/><path class="cls-2" d="M400.74,44H376.86l-6.62-21.11L363.63,44H342.14L327.46,2H351l6,21.61L363,2h21.23l6.36,21.86L397,2H415.6Z" transform="translate(-0.68 -0.46)"/></g></g></g></svg>