<svg id="Layer_1" data-name="Layer 1" xmlns="http://www.w3.org/2000/svg" viewBox="0 0 534.05 45.11"><defs><style>.cls-1{isolation:isolate;}.cls-2{fill:#fff;}</style></defs><title>discwoman</title><g id="Page-1"><g id="discwoman" class="cls-1"><g class="cls-1"><path class="cls-2" d="M27.65,44H.69V2h27c18.65,0,28.48,9.2,28.48,20.54v.75C56.13,34.61,46.3,44,27.65,44Zm6.18-21.55c0-4.22-2.08-7.75-7.75-7.75H22.61V31.21h3.47c5.67,0,7.75-3.53,7.75-7.75Z" transform="translate(-0.69 -0.46)"/><path class="cls-2" d="M60.22,44V2H82.15V44Z" transform="translate(-0.69 -0.46)"/><path class="cls-2" d="M111.57,45.58c-10.08,0-20.79-2.59-26.84-6.18l5.92-10.14a58.43,58.43,0,0,0,21.17,4.66c3.65,0,5.86-.69,5.86-1.83,0-4-31.19-1-31.19-17,0-8,8.82-14.62,26-14.62,11.85,0,21.42,2.9,25.9,5.36L132,15.46c-7-2.14-13.54-3.34-18-3.34-3,0-4.91.57-4.91,1.76,0,4.48,29.86.7,29.86,16.13C139,39.46,130.47,45.58,111.57,45.58Z" transform="translate(-0.69 -0.46)"/><path class="cls-2" d="M171.48,45.58c-18.4,0-30.37-9.2-30.37-22.31v-.5c0-13.11,12-22.31,30.37-22.31,9.64,0,19,3,23.94,7.19L187.23,18a23.87,23.87,0,0,0-12.54-3.71c-6.36,0-11.21,3.4-11.21,8.56v.26c0,5.16,4.85,8.56,11.21,8.56A23.67,23.67,0,0,0,187.23,28l7.5,10.39C189.31,42.93,181.12,45.58,171.48,45.58Z" transform="translate(-0.69 -0.46)"/><path class="cls-2" d="M269.25,44H245.37l-6.61-21.11L232.14,44H210.66L196,2h23.5l6,21.61,6-21.61h21.23l6.37,21.86L265.47,2h18.65Z" transform="translate(-0.69 -0.46)"/><path class="cls-2" d="M310.77,45.58c-18,0-28.54-10.09-28.54-22.25v-.75c0-12.22,10.52-22.12,28.54-22.12s28.48,9.9,28.48,22.12v.75C339.25,35.49,328.73,45.58,310.77,45.58Zm6.11-23.13c0-4.66-1-8.94-6.11-8.94s-6.17,4.28-6.17,8.94v1.07c0,4.6,1.07,8.89,6.17,8.89s6.11-4.29,6.11-8.89Z" transform="translate(-0.69 -0.46)"/><path class="cls-2" d="M396.51,44V21.38l-1.76,5.17L388.64,44H369.8l-6.05-17.45L362,21.38V44H343.34V2h30.87l5.67,16.44,1,3.34,1-3.34L387.57,2h29.86V44Z" transform="translate(-0.69 -0.46)"/><path class="cls-2" d="M455.86,44l-2.46-7.31H440.61L437.78,44H418.62L437.15,2H459.7l18.9,42Zm-8.32-24.76-3.09,7.88h5.8Z" transform="translate(-0.69 -0.46)"/><path class="cls-2" d="M516,44,501.28,29.45l-1.57-1.83V44H480.05V2h17.77l15.75,14.68L515,18.29V2h19.73V44Z" transform="translate(-0.69 -0.46)"/></g></g></g></svg>