<svg id="Layer_1" data-name="Layer 1" xmlns="http://www.w3.org/2000/svg" viewBox="0 0 531.72 45.11"><defs><style>.cls-1{isolation:isolate;}.cls-2{fill:#fff;}</style></defs><title>kenny-dope</title><g id="Page-1"><g id="kenny-dope"><g class="cls-1"><g class="cls-1"><path class="cls-2" d="M35.2,44,27.89,31.9l-4.73,4.92V44H1.24V2H23.16V18.11L35.07,2H58.32L42.63,20,58.45,44Z" transform="translate(-1.24 -0.46)"/><path class="cls-2" d="M61.4,44V2h48.07V15.46H83.33v4H99.71v6.43H83.33v3.59h26.14V44Z" transform="translate(-1.24 -0.46)"/><path class="cls-2" d="M149.86,44,135.18,29.45l-1.58-1.83V44H113.94V2h17.77l15.75,14.68,1.45,1.57V2h19.72V44Z" transform="translate(-1.24 -0.46)"/><path class="cls-2" d="M210.21,44,195.53,29.45,194,27.62V44H174.3V2h17.76l15.76,14.68,1.45,1.57V2H229V44Z" transform="translate(-1.24 -0.46)"/><path class="cls-2" d="M272.26,29.76V44H250.34V29.76L230.62,2h24.26l8.06,12.22L270.69,2h21.8Z" transform="translate(-1.24 -0.46)"/><path class="cls-2" d="M336.65,44h-27V2h27c18.65,0,28.48,9.2,28.48,20.54v.75C365.13,34.61,355.3,44,336.65,44Zm6.17-21.55c0-4.22-2.08-7.75-7.75-7.75h-3.46V31.21h3.46c5.67,0,7.75-3.53,7.75-7.75Z" transform="translate(-1.24 -0.46)"/><path class="cls-2" d="M396.18,45.58c-18,0-28.54-10.09-28.54-22.25v-.75c0-12.22,10.52-22.12,28.54-22.12s28.48,9.9,28.48,22.12v.75C424.66,35.49,414.14,45.58,396.18,45.58Zm6.11-23.13c0-4.66-1-8.94-6.11-8.94S390,17.79,390,22.45v1.07c0,4.6,1.07,8.89,6.17,8.89s6.11-4.29,6.11-8.89Z" transform="translate(-1.24 -0.46)"/><path class="cls-2" d="M462.52,31.27H450.68V44H428.75V2H462c12.66,0,18.77,6.43,18.77,14.05v.63C480.79,24.34,475.12,31.27,462.52,31.27Zm-3.9-12.85c0-2.33-1-3.46-4.29-3.46h-3.65v7.12h3.65c3.28,0,4.29-1.27,4.29-3.47Z" transform="translate(-1.24 -0.46)"/><path class="cls-2" d="M484.88,44V2H533V15.46H506.81v4h16.38v6.43H506.81v3.59H533V44Z" transform="translate(-1.24 -0.46)"/></g></g></g></g></svg>