<svg height="15" viewBox="0 0 50 15" width="50" xmlns="http://www.w3.org/2000/svg"><path d="m9.08 14h-6.18v-11.04c1.66 0 2.52-1.1 2.52-2.28h3.66zm17.5117068-6.36c0 4.34-3.3 6.86-7.98 6.86-4.7 0-8-2.52-8-6.86v-.6c0-4.38 3.3-6.86 8-6.86 4.68 0 7.98 2.48 7.98 6.86zm-5.94.14v-.92c0-1.8-.74-2.68-2.04-2.68-1.32 0-2.06.88-2.06 2.68v.92c0 1.8.74 2.72 2.06 2.72 1.3 0 2.04-.92 2.04-2.72zm14.9717068 1.68h-7.7v-3h7.7zm15.8917068 1.12c0 2-2.88 3.92-7.5 3.92-2.54 0-5.02-.54-7.46-1.5l1.32-3.68c1.82.76 3.76 1.3 5.4 1.3 1.4 0 2.06-.38 2.06-.98v-.06c0-.64-.7-.98-1.9-.98h-1.36v-2.52h1.42c1.12 0 1.84-.38 1.84-.98v-.06c0-.56-.68-.98-2.06-.98-1.78 0-3.26.5-4.82 1.3l-1.32-3.68c2.42-1.06 4-1.5 7.22-1.5 4.48 0 6.96 1.96 6.96 3.82v.1c0 1.32-1.04 2.88-4.5 3.14 3.84.38 4.7 1.9 4.7 3.22z" fill-rule="evenodd" transform="translate(-2)"/></svg>