<?xml version="1.0" encoding="UTF-8"?>
<svg width="122px" height="14px" viewBox="0 0 122 14" version="1.1" xmlns="http://www.w3.org/2000/svg" xmlns:xlink="http://www.w3.org/1999/xlink">
    <!-- Generator: Sketch 49.3 (51167) - http://www.bohemiancoding.com/sketch -->
    <title>3-4</title>
    <desc>Created with Sketch.</desc>
    <defs></defs>
    <g id="Page-1" stroke="none" stroke-width="1" fill="none" fill-rule="evenodd">
        <g id="3-4">
            <rect id="Rectangle" x="0" y="0" width="122" height="13.75"></rect>
            <path d="M14.3616,9.984 C14.3616,11.904 11.5968,13.7472 7.1616,13.7472 C4.7232,13.7472 2.3424,13.2288 0,12.3072 L1.2672,8.7744 C3.0144,9.504 4.8768,10.0224 6.4512,10.0224 C7.7952,10.0224 8.4288,9.6576 8.4288,9.0816 L8.4288,9.024 C8.4288,8.4096 7.7568,8.0832 6.6048,8.0832 L5.2992,8.0832 L5.2992,5.664 L6.6624,5.664 C7.7376,5.664 8.4288,5.2992 8.4288,4.7232 L8.4288,4.6656 C8.4288,4.128 7.776,3.7248 6.4512,3.7248 C4.7424,3.7248 3.3216,4.2048 1.824,4.9728 L0.5568,1.44 C2.88,0.4224 4.3968,0 7.488,0 C11.7888,0 14.1696,1.8816 14.1696,3.6672 L14.1696,3.7632 C14.1696,5.0304 13.1712,6.528 9.8496,6.7776 C13.536,7.1424 14.3616,8.6016 14.3616,9.8688 L14.3616,9.984 Z M31.5456,4.9536 C31.5456,7.2768 29.8176,9.3888 25.9776,9.3888 L22.368,9.3888 L22.368,13.2672 L15.6864,13.2672 L15.6864,0.48 L25.824,0.48 C29.6832,0.48 31.5456,2.4384 31.5456,4.7616 L31.5456,4.9536 Z M24.7872,5.5296 L24.7872,5.472 C24.7872,4.7616 24.48,4.416 23.4816,4.416 L22.368,4.416 L22.368,6.5856 L23.4816,6.5856 C24.48,6.5856 24.7872,6.2016 24.7872,5.5296 Z M55.3728,13.2672 L48.9984,13.2672 L48.9984,6.3744 L48.4608,7.9488 L46.5984,13.2672 L40.8576,13.2672 L39.0144,7.9488 L38.4768,6.3744 L38.4768,13.2672 L32.7936,13.2672 L32.7936,0.48 L42.2016,0.48 L43.9296,5.4912 L44.2368,6.5088 L44.544,5.4912 L46.272,0.48 L55.3728,0.48 L55.3728,13.2672 Z M64.3008,8.9088 L56.9088,8.9088 L56.9088,6.0288 L64.3008,6.0288 L64.3008,8.9088 Z M80.1408,10.8672 L78.2208,10.8672 L78.2208,13.2672 L72.4032,13.2672 L72.4032,10.8672 L65.28,10.8672 L65.28,7.9296 L72.864,0.48 L78.2208,0.48 L78.2208,7.3728 L80.1408,7.3728 L80.1408,10.8672 Z M72.4032,7.3728 L72.4032,5.2224 L70.2912,7.3728 L72.4032,7.3728 Z M97.2672,4.9536 C97.2672,7.2768 95.5392,9.3888 91.6992,9.3888 L88.0896,9.3888 L88.0896,13.2672 L81.408,13.2672 L81.408,0.48 L91.5456,0.48 C95.4048,0.48 97.2672,2.4384 97.2672,4.7616 L97.2672,4.9536 Z M90.5088,5.5296 L90.5088,5.472 C90.5088,4.7616 90.2016,4.416 89.2032,4.416 L88.0896,4.416 L88.0896,6.5856 L89.2032,6.5856 C90.2016,6.5856 90.5088,6.2016 90.5088,5.5296 Z M121.0944,13.2672 L114.72,13.2672 L114.72,6.3744 L114.1824,7.9488 L112.32,13.2672 L106.5792,13.2672 L104.736,7.9488 L104.1984,6.3744 L104.1984,13.2672 L98.5152,13.2672 L98.5152,0.48 L107.9232,0.48 L109.6512,5.4912 L109.9584,6.5088 L110.2656,5.4912 L111.9936,0.48 L121.0944,0.48 L121.0944,13.2672 Z" id="3pm-4pm" fill="#000000"></path>
        </g>
    </g>
</svg>