<?xml version="1.0" encoding="UTF-8"?>
<svg width="122px" height="14px" viewBox="0 0 122 14" version="1.1" xmlns="http://www.w3.org/2000/svg" xmlns:xlink="http://www.w3.org/1999/xlink">
    <!-- Generator: Sketch 49.3 (51167) - http://www.bohemiancoding.com/sketch -->
    <title>4-6</title>
    <desc>Created with Sketch.</desc>
    <defs></defs>
    <g id="Page-1" stroke="none" stroke-width="1" fill="none" fill-rule="evenodd">
        <g id="4-6">
            <rect id="Rectangle" x="0" y="0" width="122" height="13.75"></rect>
            <path d="M14.8608,10.8672 L12.9408,10.8672 L12.9408,13.2672 L7.1232,13.2672 L7.1232,10.8672 L0,10.8672 L0,7.9296 L7.584,0.48 L12.9408,0.48 L12.9408,7.3728 L14.8608,7.3728 L14.8608,10.8672 Z M7.1232,7.3728 L7.1232,5.2224 L5.0112,7.3728 L7.1232,7.3728 Z M31.9872,4.9536 C31.9872,7.2768 30.2592,9.3888 26.4192,9.3888 L22.8096,9.3888 L22.8096,13.2672 L16.128,13.2672 L16.128,0.48 L26.2656,0.48 C30.1248,0.48 31.9872,2.4384 31.9872,4.7616 L31.9872,4.9536 Z M25.2288,5.5296 L25.2288,5.472 C25.2288,4.7616 24.9216,4.416 23.9232,4.416 L22.8096,4.416 L22.8096,6.5856 L23.9232,6.5856 C24.9216,6.5856 25.2288,6.2016 25.2288,5.5296 Z M55.8144,13.2672 L49.44,13.2672 L49.44,6.3744 L48.9024,7.9488 L47.04,13.2672 L41.2992,13.2672 L39.456,7.9488 L38.9184,6.3744 L38.9184,13.2672 L33.2352,13.2672 L33.2352,0.48 L42.6432,0.48 L44.3712,5.4912 L44.6784,6.5088 L44.9856,5.4912 L46.7136,0.48 L55.8144,0.48 L55.8144,13.2672 Z M64.7424,8.9088 L57.3504,8.9088 L57.3504,6.0288 L64.7424,6.0288 L64.7424,8.9088 Z M80.9472,8.9856 C80.9472,11.52 78.144,13.7472 73.7472,13.7472 C69.024,13.7472 65.856,11.2704 65.856,7.2576 L65.856,6.9504 C65.856,2.7456 69.7152,0 74.304,0 C76.7616,0 78.5472,0.4416 80.5248,1.2672 L79.2576,4.3584 C78.1248,3.9744 76.8,3.6864 75.3984,3.6864 C73.1712,3.6864 71.616,4.9152 71.616,6.5664 L71.616,6.7584 C72.7296,5.76 73.9776,5.0304 76.128,5.0304 C79.1232,5.0304 80.9472,6.8736 80.9472,8.8896 L80.9472,8.9856 Z M75.7056,8.5632 L75.7056,8.5056 C75.7056,7.8528 75.0912,7.296 73.9008,7.296 C72.9408,7.296 72.2496,7.6608 71.616,8.1792 L71.616,8.2368 C71.616,9.1584 72.5184,9.9072 73.6128,9.9072 C74.9376,9.9072 75.7056,9.1776 75.7056,8.5632 Z M97.9392,4.9536 C97.9392,7.2768 96.2112,9.3888 92.3712,9.3888 L88.7616,9.3888 L88.7616,13.2672 L82.08,13.2672 L82.08,0.48 L92.2176,0.48 C96.0768,0.48 97.9392,2.4384 97.9392,4.7616 L97.9392,4.9536 Z M91.1808,5.5296 L91.1808,5.472 C91.1808,4.7616 90.8736,4.416 89.8752,4.416 L88.7616,4.416 L88.7616,6.5856 L89.8752,6.5856 C90.8736,6.5856 91.1808,6.2016 91.1808,5.5296 Z M121.7664,13.2672 L115.392,13.2672 L115.392,6.3744 L114.8544,7.9488 L112.992,13.2672 L107.2512,13.2672 L105.408,7.9488 L104.8704,6.3744 L104.8704,13.2672 L99.1872,13.2672 L99.1872,0.48 L108.5952,0.48 L110.3232,5.4912 L110.6304,6.5088 L110.9376,5.4912 L112.6656,0.48 L121.7664,0.48 L121.7664,13.2672 Z" id="4pm-6pm" fill="#000000"></path>
        </g>
    </g>
</svg>