<?xml version="1.0" encoding="UTF-8"?>
<svg width="120px" height="14px" viewBox="0 0 120 14" version="1.1" xmlns="http://www.w3.org/2000/svg" xmlns:xlink="http://www.w3.org/1999/xlink">
    <!-- Generator: Sketch 49.3 (51167) - http://www.bohemiancoding.com/sketch -->
    <title>5-7</title>
    <desc>Created with Sketch.</desc>
    <defs></defs>
    <g id="Page-1" stroke="none" stroke-width="1" fill="none" fill-rule="evenodd">
        <g id="5-7">
            <path d="M14.7456,0 C14.5728,2.2848 13.728,3.7056 11.8272,3.7056 L5.8944,3.7056 L5.6832,5.9904 C6.7968,5.1648 7.8336,4.6848 9.7344,4.6848 C13.056,4.6848 14.8992,6.432 14.8992,8.6208 L14.8992,8.6784 C14.8992,11.1936 12.5376,13.2672 7.6224,13.2672 C4.7808,13.2672 2.4,12.7872 0,11.9232 L1.2672,8.5824 C3.2064,9.2544 5.1264,9.4848 6.816,9.4848 C8.4096,9.4848 9.1008,8.9088 9.1008,8.1408 L9.1008,8.064 C9.1008,7.5264 8.6592,6.8736 7.5072,6.8736 C6.4896,6.8736 5.8944,7.1424 5.1648,7.8144 L0.6528,7.2768 L1.248,0 L14.7456,0 Z M31.9296,4.4736 C31.9296,6.7968 30.2016,8.9088 26.3616,8.9088 L22.752,8.9088 L22.752,12.7872 L16.0704,12.7872 L16.0704,0 L26.208,0 C30.0672,0 31.9296,1.9584 31.9296,4.2816 L31.9296,4.4736 Z M25.1712,5.0496 L25.1712,4.992 C25.1712,4.2816 24.864,3.936 23.8656,3.936 L22.752,3.936 L22.752,6.1056 L23.8656,6.1056 C24.864,6.1056 25.1712,5.7216 25.1712,5.0496 Z M55.7568,12.7872 L49.3824,12.7872 L49.3824,5.8944 L48.8448,7.4688 L46.9824,12.7872 L41.2416,12.7872 L39.3984,7.4688 L38.8608,5.8944 L38.8608,12.7872 L33.1776,12.7872 L33.1776,0 L42.5856,0 L44.3136,5.0112 L44.6208,6.0288 L44.928,5.0112 L46.656,0 L55.7568,0 L55.7568,12.7872 Z M64.6848,8.4288 L57.2928,8.4288 L57.2928,5.5488 L64.6848,5.5488 L64.6848,8.4288 Z M79.4304,2.784 C76.224,5.8944 74.2464,8.6976 73.3248,12.7872 L67.008,12.7872 C68.1216,9.1968 70.8864,5.7792 74.0736,3.936 L65.5872,3.936 L65.5872,0 L79.4304,0 L79.4304,2.784 Z M96.0192,4.4736 C96.0192,6.7968 94.2912,8.9088 90.4512,8.9088 L86.8416,8.9088 L86.8416,12.7872 L80.16,12.7872 L80.16,0 L90.2976,0 C94.1568,0 96.0192,1.9584 96.0192,4.2816 L96.0192,4.4736 Z M89.2608,5.0496 L89.2608,4.992 C89.2608,4.2816 88.9536,3.936 87.9552,3.936 L86.8416,3.936 L86.8416,6.1056 L87.9552,6.1056 C88.9536,6.1056 89.2608,5.7216 89.2608,5.0496 Z M119.8464,12.7872 L113.472,12.7872 L113.472,5.8944 L112.9344,7.4688 L111.072,12.7872 L105.3312,12.7872 L103.488,7.4688 L102.9504,5.8944 L102.9504,12.7872 L97.2672,12.7872 L97.2672,0 L106.6752,0 L108.4032,5.0112 L108.7104,6.0288 L109.0176,5.0112 L110.7456,0 L119.8464,0 L119.8464,12.7872 Z" id="5pm-7pm" fill="#000000"></path>
            <rect id="Rectangle" x="0" y="0" width="122" height="13.75"></rect>
        </g>
    </g>
</svg>