<svg height="15" viewBox="0 0 41 15" width="41" xmlns="http://www.w3.org/2000/svg"><path d="m18.18 15.54c0 2.64-2.92 4.96-7.5 4.96-4.92 0-8.22-2.58-8.22-6.76v-.32c0-4.38 4.02-7.24 8.8-7.24 2.56 0 4.42.46 6.48 1.32l-1.32 3.22c-1.18-.4-2.56-.7-4.02-.7-2.32 0-3.94 1.28-3.94 3v.2c1.16-1.04 2.46-1.8 4.7-1.8 3.12 0 5.02 1.92 5.02 4.02zm-5.46-.44v-.06c0-.68-.64-1.26-1.88-1.26-1 0-1.72.38-2.38.92v.06c0 .96.94 1.74 2.08 1.74 1.38 0 2.18-.76 2.18-1.4zm14.3717068.36h-7.7v-3h7.7zm15.5917068-5.88c-3.34 3.24-5.4 6.16-6.36 10.42h-6.58c1.16-3.74 4.04-7.3 7.36-9.22h-8.84v-4.1h14.42z" fill-rule="evenodd" transform="translate(-2 -6)"/></svg>