<?xml version="1.0" encoding="UTF-8"?>
<svg width="43px" height="15px" viewBox="0 0 43 15" version="1.1" xmlns="http://www.w3.org/2000/svg" xmlns:xlink="http://www.w3.org/1999/xlink">
    <!-- Generator: Sketch 49.3 (51167) - http://www.bohemiancoding.com/sketch -->
    <title>6-8</title>
    <desc>Created with Sketch.</desc>
    <defs></defs>
    <g id="Page-1" stroke="none" stroke-width="1" fill="none" fill-rule="evenodd">
        <path d="M16.18,9.54 C16.18,12.18 13.26,14.5 8.68,14.5 C3.76,14.5 0.46,11.92 0.46,7.74 L0.46,7.42 C0.46,3.04 4.48,0.18 9.26,0.18 C11.82,0.18 13.68,0.64 15.74,1.5 L14.42,4.72 C13.24,4.32 11.86,4.02 10.4,4.02 C8.08,4.02 6.46,5.3 6.46,7.02 L6.46,7.22 C7.62,6.18 8.92,5.42 11.16,5.42 C14.28,5.42 16.18,7.34 16.18,9.44 L16.18,9.54 Z M10.72,9.1 L10.72,9.04 C10.72,8.36 10.08,7.78 8.84,7.78 C7.84,7.78 7.12,8.16 6.46,8.7 L6.46,8.76 C6.46,9.72 7.4,10.5 8.54,10.5 C9.92,10.5 10.72,9.74 10.72,9.1 Z M25.0917068,9.46 L17.3917068,9.46 L17.3917068,6.46 L25.0917068,6.46 L25.0917068,9.46 Z M42.1434136,10.54 C42.1434136,12.7 39.7034136,14.5 34.3634136,14.5 C29.0234136,14.5 26.5834136,12.7 26.5834136,10.54 L26.5834136,10.42 C26.5834136,9.08 27.7634136,7.8 30.1634136,7.24 C28.2034136,6.94 26.9634136,5.74 26.9634136,4.4 L26.9634136,4.28 C26.9634136,2.28 29.0434136,0.18 34.3634136,0.18 C39.6634136,0.18 41.7634136,2.28 41.7634136,4.28 L41.7634136,4.4 C41.7634136,5.74 40.5034136,6.94 38.5434136,7.24 C40.9634136,7.8 42.1434136,9.08 42.1434136,10.42 L42.1434136,10.54 Z M36.0634136,5.04 L36.0634136,4.92 C36.0634136,4.38 35.6634136,3.76 34.3634136,3.76 C33.0634136,3.76 32.6434136,4.38 32.6434136,4.92 L32.6434136,5.04 C32.6434136,5.78 33.3434136,6.24 34.3634136,6.24 C35.3834136,6.24 36.0634136,5.78 36.0634136,5.04 Z M36.0634136,9.72 L36.0634136,9.58 C36.0634136,8.94 35.5034136,8.42 34.3634136,8.42 C33.2034136,8.42 32.6434136,8.94 32.6434136,9.58 L32.6434136,9.72 C32.6434136,10.36 33.1234136,10.92 34.3634136,10.92 C35.5834136,10.92 36.0634136,10.36 36.0634136,9.72 Z" id="6-8" fill="#000000"></path>
    </g>
</svg>