<?xml version="1.0" encoding="UTF-8"?>
<svg width="123px" height="14px" viewBox="0 0 123 14" version="1.1" xmlns="http://www.w3.org/2000/svg" xmlns:xlink="http://www.w3.org/1999/xlink">
    <!-- Generator: Sketch 49.3 (51167) - http://www.bohemiancoding.com/sketch -->
    <title>6-8</title>
    <desc>Created with Sketch.</desc>
    <defs></defs>
    <g id="Page-1" stroke="none" stroke-width="1" fill="none" fill-rule="evenodd">
        <g id="6-8">
            <rect id="Rectangle" x="0" y="0" width="122" height="13.75"></rect>
            <path d="M15.0912,8.9856 C15.0912,11.52 12.288,13.7472 7.8912,13.7472 C3.168,13.7472 0,11.2704 0,7.2576 L0,6.9504 C0,2.7456 3.8592,0 8.448,0 C10.9056,0 12.6912,0.4416 14.6688,1.2672 L13.4016,4.3584 C12.2688,3.9744 10.944,3.6864 9.5424,3.6864 C7.3152,3.6864 5.76,4.9152 5.76,6.5664 L5.76,6.7584 C6.8736,5.76 8.1216,5.0304 10.272,5.0304 C13.2672,5.0304 15.0912,6.8736 15.0912,8.8896 L15.0912,8.9856 Z M9.8496,8.5632 L9.8496,8.5056 C9.8496,7.8528 9.2352,7.296 8.0448,7.296 C7.0848,7.296 6.3936,7.6608 5.76,8.1792 L5.76,8.2368 C5.76,9.1584 6.6624,9.9072 7.7568,9.9072 C9.0816,9.9072 9.8496,9.1776 9.8496,8.5632 Z M32.0832,4.9536 C32.0832,7.2768 30.3552,9.3888 26.5152,9.3888 L22.9056,9.3888 L22.9056,13.2672 L16.224,13.2672 L16.224,0.48 L26.3616,0.48 C30.2208,0.48 32.0832,2.4384 32.0832,4.7616 L32.0832,4.9536 Z M25.3248,5.5296 L25.3248,5.472 C25.3248,4.7616 25.0176,4.416 24.0192,4.416 L22.9056,4.416 L22.9056,6.5856 L24.0192,6.5856 C25.0176,6.5856 25.3248,6.2016 25.3248,5.5296 Z M55.9104,13.2672 L49.536,13.2672 L49.536,6.3744 L48.9984,7.9488 L47.136,13.2672 L41.3952,13.2672 L39.552,7.9488 L39.0144,6.3744 L39.0144,13.2672 L33.3312,13.2672 L33.3312,0.48 L42.7392,0.48 L44.4672,5.4912 L44.7744,6.5088 L45.0816,5.4912 L46.8096,0.48 L55.9104,0.48 L55.9104,13.2672 Z M64.8384,8.9088 L57.4464,8.9088 L57.4464,6.0288 L64.8384,6.0288 L64.8384,8.9088 Z M80.9856,9.9456 C80.9856,12.0192 78.6432,13.7472 73.5168,13.7472 C68.3904,13.7472 66.048,12.0192 66.048,9.9456 L66.048,9.8304 C66.048,8.544 67.1808,7.3152 69.4848,6.7776 C67.6032,6.4896 66.4128,5.3376 66.4128,4.0512 L66.4128,3.936 C66.4128,2.016 68.4096,0 73.5168,0 C78.6048,0 80.6208,2.016 80.6208,3.936 L80.6208,4.0512 C80.6208,5.3376 79.4112,6.4896 77.5296,6.7776 C79.8528,7.3152 80.9856,8.544 80.9856,9.8304 L80.9856,9.9456 Z M75.1488,4.6656 L75.1488,4.5504 C75.1488,4.032 74.7648,3.4368 73.5168,3.4368 C72.2688,3.4368 71.8656,4.032 71.8656,4.5504 L71.8656,4.6656 C71.8656,5.376 72.5376,5.8176 73.5168,5.8176 C74.496,5.8176 75.1488,5.376 75.1488,4.6656 Z M75.1488,9.1584 L75.1488,9.024 C75.1488,8.4096 74.6112,7.9104 73.5168,7.9104 C72.4032,7.9104 71.8656,8.4096 71.8656,9.024 L71.8656,9.1584 C71.8656,9.7728 72.3264,10.3104 73.5168,10.3104 C74.688,10.3104 75.1488,9.7728 75.1488,9.1584 Z M98.2464,4.9536 C98.2464,7.2768 96.5184,9.3888 92.6784,9.3888 L89.0688,9.3888 L89.0688,13.2672 L82.3872,13.2672 L82.3872,0.48 L92.5248,0.48 C96.384,0.48 98.2464,2.4384 98.2464,4.7616 L98.2464,4.9536 Z M91.488,5.5296 L91.488,5.472 C91.488,4.7616 91.1808,4.416 90.1824,4.416 L89.0688,4.416 L89.0688,6.5856 L90.1824,6.5856 C91.1808,6.5856 91.488,6.2016 91.488,5.5296 Z M122.0736,13.2672 L115.6992,13.2672 L115.6992,6.3744 L115.1616,7.9488 L113.2992,13.2672 L107.5584,13.2672 L105.7152,7.9488 L105.1776,6.3744 L105.1776,13.2672 L99.4944,13.2672 L99.4944,0.48 L108.9024,0.48 L110.6304,5.4912 L110.9376,6.5088 L111.2448,5.4912 L112.9728,0.48 L122.0736,0.48 L122.0736,13.2672 Z" id="6pm-8pm" fill="#000000"></path>
        </g>
    </g>
</svg>