<svg height="15" viewBox="0 0 43 15" width="43" xmlns="http://www.w3.org/2000/svg"><path d="m18.18 9.54c0 2.64-2.92 4.96-7.5 4.96-4.92 0-8.22-2.58-8.22-6.76v-.32c0-4.38 4.02-7.24 8.8-7.24 2.56 0 4.42.46 6.48 1.32l-1.32 3.22c-1.18-.4-2.56-.7-4.02-.7-2.32 0-3.94 1.28-3.94 3v.2c1.16-1.04 2.46-1.8 4.7-1.8 3.12 0 5.02 1.92 5.02 4.02zm-5.46-.44v-.06c0-.68-.64-1.26-1.88-1.26-1 0-1.72.38-2.38.92v.06c0 .96.94 1.74 2.08 1.74 1.38 0 2.18-.76 2.18-1.4zm14.3717068.36h-7.7v-3h7.7zm16.9917068-2.2c0 4.34-4.08 7.24-9.24 7.24-2.56 0-4.4-.46-6.5-1.32l1.16-3.36c1.34.48 2.94.84 4.52.84 2.7 0 4.06-1.42 4.06-2.78v-.14c-1.12.94-2.28 1.52-4.22 1.52-3.44 0-5.5-1.64-5.5-3.92v-.1c0-2.62 2.92-5.06 7.5-5.06 4.92 0 8.22 2.58 8.22 6.76zm-6-1.28v-.06c0-.96-.92-1.74-2.08-1.74-1.38 0-2.16.76-2.16 1.4v.06c0 .68.64 1.26 1.88 1.26.98 0 1.7-.38 2.36-.92z" fill-rule="evenodd" transform="translate(-2)"/></svg>