<?xml version="1.0" encoding="UTF-8"?>
<svg width="41px" height="15px" viewBox="0 0 41 15" version="1.1" xmlns="http://www.w3.org/2000/svg" xmlns:xlink="http://www.w3.org/1999/xlink">
    <!-- Generator: Sketch 49.3 (51167) - http://www.bohemiancoding.com/sketch -->
    <title>7-9</title>
    <desc>Created with Sketch.</desc>
    <defs></defs>
    <g id="Page-1" stroke="none" stroke-width="1" fill="none" fill-rule="evenodd">
        <g id="Calendar" transform="translate(-581.000000, -495.000000)" fill="#000000">
            <g id="13" transform="translate(576.000000, 273.000000)">
                <g id="Performer" transform="translate(3.000000, 222.000000)">
                    <path d="M16.66,3.58 C13.32,6.82 11.26,9.74 10.3,14 L3.72,14 C4.88,10.26 7.76,6.7 11.08,4.78 L2.24,4.78 L2.24,0.68 L16.66,0.68 L16.66,3.58 Z M25.1517068,9.46 L17.4517068,9.46 L17.4517068,6.46 L25.1517068,6.46 L25.1517068,9.46 Z M42.1434136,7.26 C42.1434136,11.6 38.0634136,14.5 32.9034136,14.5 C30.3434136,14.5 28.5034136,14.04 26.4034136,13.18 L27.5634136,9.82 C28.9034136,10.3 30.5034136,10.66 32.0834136,10.66 C34.7834136,10.66 36.1434136,9.24 36.1434136,7.88 L36.1434136,7.74 C35.0234136,8.68 33.8634136,9.26 31.9234136,9.26 C28.4834136,9.26 26.4234136,7.62 26.4234136,5.34 L26.4234136,5.24 C26.4234136,2.62 29.3434136,0.18 33.9234136,0.18 C38.8434136,0.18 42.1434136,2.76 42.1434136,6.94 L42.1434136,7.26 Z M36.1434136,5.98 L36.1434136,5.92 C36.1434136,4.96 35.2234136,4.18 34.0634136,4.18 C32.6834136,4.18 31.9034136,4.94 31.9034136,5.58 L31.9034136,5.64 C31.9034136,6.32 32.5434136,6.9 33.7834136,6.9 C34.7634136,6.9 35.4834136,6.52 36.1434136,5.98 Z" id="7-9"></path>
                </g>
            </g>
        </g>
    </g>
</svg>