<?xml version="1.0" encoding="UTF-8"?>
<svg width="51px" height="15px" viewBox="0 0 51 15" version="1.1" xmlns="http://www.w3.org/2000/svg" xmlns:xlink="http://www.w3.org/1999/xlink">
    <!-- Generator: Sketch 49.3 (51167) - http://www.bohemiancoding.com/sketch -->
    <title>8-10</title>
    <desc>Created with Sketch.</desc>
    <defs></defs>
    <g id="Page-1" stroke="none" stroke-width="1" fill="none" fill-rule="evenodd">
        <path d="M16.12,10.54 C16.12,12.7 13.68,14.5 8.34,14.5 C3,14.5 0.56,12.7 0.56,10.54 L0.56,10.42 C0.56,9.08 1.74,7.8 4.14,7.24 C2.18,6.94 0.94,5.74 0.94,4.4 L0.94,4.28 C0.94,2.28 3.02,0.18 8.34,0.18 C13.64,0.18 15.74,2.28 15.74,4.28 L15.74,4.4 C15.74,5.74 14.48,6.94 12.52,7.24 C14.94,7.8 16.12,9.08 16.12,10.42 L16.12,10.54 Z M10.04,5.04 L10.04,4.92 C10.04,4.38 9.64,3.76 8.34,3.76 C7.04,3.76 6.62,4.38 6.62,4.92 L6.62,5.04 C6.62,5.78 7.32,6.24 8.34,6.24 C9.36,6.24 10.04,5.78 10.04,5.04 Z M10.04,9.72 L10.04,9.58 C10.04,8.94 9.48,8.42 8.34,8.42 C7.18,8.42 6.62,8.94 6.62,9.58 L6.62,9.72 C6.62,10.36 7.1,10.92 8.34,10.92 C9.56,10.92 10.04,10.36 10.04,9.72 Z M25.3117068,9.46 L17.6117068,9.46 L17.6117068,6.46 L25.3117068,6.46 L25.3117068,9.46 Z M33.3234136,14 L27.1434136,14 L27.1434136,2.96 C28.8034136,2.96 29.6634136,1.86 29.6634136,0.68 L33.3234136,0.68 L33.3234136,14 Z M50.8351204,7.64 C50.8351204,11.98 47.5351204,14.5 42.8551204,14.5 C38.1551204,14.5 34.8551204,11.98 34.8551204,7.64 L34.8551204,7.04 C34.8551204,2.66 38.1551204,0.18 42.8551204,0.18 C47.5351204,0.18 50.8351204,2.66 50.8351204,7.04 L50.8351204,7.64 Z M44.8951204,7.78 L44.8951204,6.86 C44.8951204,5.06 44.1551204,4.18 42.8551204,4.18 C41.5351204,4.18 40.7951204,5.06 40.7951204,6.86 L40.7951204,7.78 C40.7951204,9.58 41.5351204,10.5 42.8551204,10.5 C44.1551204,10.5 44.8951204,9.58 44.8951204,7.78 Z" id="8-10" fill="#000000"></path>
    </g>
</svg>