<?xml version="1.0" encoding="UTF-8"?>
<svg width="130px" height="14px" viewBox="0 0 130 14" version="1.1" xmlns="http://www.w3.org/2000/svg" xmlns:xlink="http://www.w3.org/1999/xlink">
    <!-- Generator: Sketch 49.3 (51167) - http://www.bohemiancoding.com/sketch -->
    <title>8-10</title>
    <desc>Created with Sketch.</desc>
    <defs></defs>
    <g id="Page-1" stroke="none" stroke-width="1" fill="none" fill-rule="evenodd">
        <g id="8-10">
            <rect id="Rectangle" x="0" y="0" width="122" height="13.75"></rect>
            <path d="M14.9376,9.9456 C14.9376,12.0192 12.5952,13.7472 7.4688,13.7472 C2.3424,13.7472 0,12.0192 0,9.9456 L0,9.8304 C0,8.544 1.1328,7.3152 3.4368,6.7776 C1.5552,6.4896 0.3648,5.3376 0.3648,4.0512 L0.3648,3.936 C0.3648,2.016 2.3616,0 7.4688,0 C12.5568,0 14.5728,2.016 14.5728,3.936 L14.5728,4.0512 C14.5728,5.3376 13.3632,6.4896 11.4816,6.7776 C13.8048,7.3152 14.9376,8.544 14.9376,9.8304 L14.9376,9.9456 Z M9.1008,4.6656 L9.1008,4.5504 C9.1008,4.032 8.7168,3.4368 7.4688,3.4368 C6.2208,3.4368 5.8176,4.032 5.8176,4.5504 L5.8176,4.6656 C5.8176,5.376 6.4896,5.8176 7.4688,5.8176 C8.448,5.8176 9.1008,5.376 9.1008,4.6656 Z M9.1008,9.1584 L9.1008,9.024 C9.1008,8.4096 8.5632,7.9104 7.4688,7.9104 C6.3552,7.9104 5.8176,8.4096 5.8176,9.024 L5.8176,9.1584 C5.8176,9.7728 6.2784,10.3104 7.4688,10.3104 C8.64,10.3104 9.1008,9.7728 9.1008,9.1584 Z M32.1984,4.9536 C32.1984,7.2768 30.4704,9.3888 26.6304,9.3888 L23.0208,9.3888 L23.0208,13.2672 L16.3392,13.2672 L16.3392,0.48 L26.4768,0.48 C30.336,0.48 32.1984,2.4384 32.1984,4.7616 L32.1984,4.9536 Z M25.44,5.5296 L25.44,5.472 C25.44,4.7616 25.1328,4.416 24.1344,4.416 L23.0208,4.416 L23.0208,6.5856 L24.1344,6.5856 C25.1328,6.5856 25.44,6.2016 25.44,5.5296 Z M56.0256,13.2672 L49.6512,13.2672 L49.6512,6.3744 L49.1136,7.9488 L47.2512,13.2672 L41.5104,13.2672 L39.6672,7.9488 L39.1296,6.3744 L39.1296,13.2672 L33.4464,13.2672 L33.4464,0.48 L42.8544,0.48 L44.5824,5.4912 L44.8896,6.5088 L45.1968,5.4912 L46.9248,0.48 L56.0256,0.48 L56.0256,13.2672 Z M64.9536,8.9088 L57.5616,8.9088 L57.5616,6.0288 L64.9536,6.0288 L64.9536,8.9088 Z M72.4224,13.2672 L66.4896,13.2672 L66.4896,2.6688 C68.0832,2.6688 68.9088,1.6128 68.9088,0.48 L72.4224,0.48 L72.4224,13.2672 Z M89.0112,7.1616 C89.0112,11.328 85.8432,13.7472 81.3504,13.7472 C76.8384,13.7472 73.6704,11.328 73.6704,7.1616 L73.6704,6.5856 C73.6704,2.3808 76.8384,0 81.3504,0 C85.8432,0 89.0112,2.3808 89.0112,6.5856 L89.0112,7.1616 Z M83.3088,7.296 L83.3088,6.4128 C83.3088,4.6848 82.5984,3.84 81.3504,3.84 C80.0832,3.84 79.3728,4.6848 79.3728,6.4128 L79.3728,7.296 C79.3728,9.024 80.0832,9.9072 81.3504,9.9072 C82.5984,9.9072 83.3088,9.024 83.3088,7.296 Z M106.1184,4.9536 C106.1184,7.2768 104.3904,9.3888 100.5504,9.3888 L96.9408,9.3888 L96.9408,13.2672 L90.2592,13.2672 L90.2592,0.48 L100.3968,0.48 C104.256,0.48 106.1184,2.4384 106.1184,4.7616 L106.1184,4.9536 Z M99.36,5.5296 L99.36,5.472 C99.36,4.7616 99.0528,4.416 98.0544,4.416 L96.9408,4.416 L96.9408,6.5856 L98.0544,6.5856 C99.0528,6.5856 99.36,6.2016 99.36,5.5296 Z M129.9456,13.2672 L123.5712,13.2672 L123.5712,6.3744 L123.0336,7.9488 L121.1712,13.2672 L115.4304,13.2672 L113.5872,7.9488 L113.0496,6.3744 L113.0496,13.2672 L107.3664,13.2672 L107.3664,0.48 L116.7744,0.48 L118.5024,5.4912 L118.8096,6.5088 L119.1168,5.4912 L120.8448,0.48 L129.9456,0.48 L129.9456,13.2672 Z" id="8pm-10pm" fill="#000000"></path>
        </g>
    </g>
</svg>