<?xml version="1.0" encoding="UTF-8"?>
<svg width="109px" height="13px" viewBox="0 0 109 13" version="1.1" xmlns="http://www.w3.org/2000/svg" xmlns:xlink="http://www.w3.org/1999/xlink">
    <!-- Generator: Sketch 49.3 (51167) - http://www.bohemiancoding.com/sketch -->
    <title>allday</title>
    <desc>Created with Sketch.</desc>
    <defs></defs>
    <g id="Page-1" stroke="none" stroke-width="1" fill="none" fill-rule="evenodd">
        <g id="allday">
            <rect id="Rectangle" x="0" y="0" width="122" height="13.75"></rect>
            <path d="M18.2790078,12.7876252 L11.3475773,12.7876252 L10.5987524,10.5603511 L6.7010228,10.5603511 L5.83699407,12.7876252 L0,12.7876252 L5.64498769,0 L12.5188162,0 L18.2790078,12.7876252 Z M9.63872047,7.64185408 L8.81309302,5.24177428 L7.87226174,7.64185408 L9.63872047,7.64185408 Z M33.4667127,12.7876252 L18.7206224,12.7876252 L18.7206224,0 L25.4024446,0 L25.4024446,8.3522777 L33.4667127,8.3522777 L33.4667127,12.7876252 Z M49.3456407,12.7876252 L34.5995504,12.7876252 L34.5995504,0 L41.2813726,0 L41.2813726,8.3522777 L49.3456407,8.3522777 L49.3456407,12.7876252 Z M72.0983972,6.48981578 C72.0983972,9.92673005 69.1030976,12.7876252 63.4197086,12.7876252 L55.2018354,12.7876252 L55.2018354,0 L63.4197086,0 C69.1030976,0 72.0983972,2.80329321 72.0983972,6.25940812 L72.0983972,6.48981578 Z M65.3013712,6.52821705 L65.3013712,6.22100684 C65.3013712,4.93456407 64.6677501,3.85932832 62.9396927,3.85932832 L61.8836576,3.85932832 L61.8836576,8.88989558 L62.9396927,8.88989558 C64.6677501,8.88989558 65.3013712,7.81465983 65.3013712,6.52821705 Z M90.2622011,12.7876252 L83.3307706,12.7876252 L82.5819457,10.5603511 L78.6842161,10.5603511 L77.8201874,12.7876252 L71.9831933,12.7876252 L77.628181,0 L84.5020096,0 L90.2622011,12.7876252 Z M81.6219138,7.64185408 L80.7962864,5.24177428 L79.8554551,7.64185408 L81.6219138,7.64185408 Z M108.330002,0 L102.166597,8.44828089 L102.166597,12.7876252 L95.4847747,12.7876252 L95.4847747,8.44828089 L89.4749749,0 L96.8672207,0 L99.3249024,3.72492385 L101.686581,0 L108.330002,0 Z" id="ALL-DAY" fill="#000000"></path>
        </g>
    </g>
</svg>