<svg height="14" viewBox="0 0 110 14" width="110" xmlns="http://www.w3.org/2000/svg"><path d="m20.52 14h-7.22l-.78-2.32h-4.06l-.9 2.32h-6.08l5.88-13.32h7.16zm-9-5.36-.86-2.5-.98 2.5zm25.0517068 5.36h-15.36v-13.32h6.96v8.7h8.4zm16.7717068 0h-15.36v-13.32h6.96v8.7h8.4zm18.9117068-6.56c0 3.58-3.12 6.56-9.04 6.56h-8.56v-13.32h8.56c5.92 0 9.04 2.92 9.04 6.52zm-7.08.04v-.32c0-1.34-.66-2.46-2.46-2.46h-1.1v5.24h1.1c1.8 0 2.46-1.12 2.46-2.46zm26.2317068 6.52h-7.22l-.78-2.32h-4.06l-.9 2.32h-6.08l5.88-13.32h7.16zm-9-5.36-.86-2.5-.98 2.5zm28.0517068-7.96-6.42 8.8v4.52h-6.96v-4.52l-6.26-8.8h7.7l2.56 3.88 2.46-3.88z" fill-rule="evenodd" transform="translate(-1)"/></svg>