<svg height="38" viewBox="0 0 287 38" width="287" xmlns="http://www.w3.org/2000/svg"><g fill="none" fill-rule="evenodd" transform=""><path d="m0 0h287v38h-287z" fill="#000"/><path d="m27.236 18.994c0 4.026-2.838 6.556-8.03 6.556-3.102 0-6.072-.814-8.404-2.332l2.156-4.334c1.606.792 3.234 1.342 4.796 1.342 1.32 0 1.826-.616 1.826-1.804v-8.074h7.656zm21.1768773-.286c0 3.828-2.596 6.842-9.526 6.842-6.908 0-9.636-3.014-9.636-6.842v-8.36h7.656v7.81c0 1.826.55 2.618 2.376 2.618s2.332-.792 2.332-2.618v-7.81h6.798zm21.2208773 6.292h-6.556l-5.126-5.082-.55-.638v5.72h-6.864v-14.652h6.204l5.5 5.126.506.55v-5.676h6.886zm19.0208773 0h-16.786v-14.652h16.786v4.686h-9.13v1.386h5.72v2.244h-5.72v1.254h9.13zm14.3917541 0h-6.7979995v-12.144c1.826 0 2.772-1.21 2.772-2.508h4.0259995zm18.580878-14.652c-.198 2.618-1.166 4.246-3.344 4.246h-6.798l-.242 2.618c1.276-.946 2.464-1.496 4.642-1.496 3.806 0 5.918 2.002 5.918 4.51v.066c0 2.882-2.706 5.258-8.338 5.258-3.256 0-5.984-.55-8.734-1.54l1.452-3.828c2.222.77 4.422 1.034 6.358 1.034 1.826 0 2.618-.66 2.618-1.54v-.088c0-.616-.506-1.364-1.826-1.364-1.166 0-1.848.308-2.684 1.078l-5.17-.616.682-8.338z" fill="#fff"/></g></svg>