<?xml version="1.0" encoding="UTF-8"?>
<svg width="420px" height="225px" viewBox="0 0 420 225" version="1.1" xmlns="http://www.w3.org/2000/svg" xmlns:xlink="http://www.w3.org/1999/xlink">
    <!-- Generator: Sketch 49.3 (51167) - http://www.bohemiancoding.com/sketch -->
    <title>friday-s</title>
    <desc>Created with Sketch.</desc>
    <defs></defs>
    <g id="friday-s" stroke="none" stroke-width="1" fill="none" fill-rule="evenodd">
        <path d="M164.963,55.754 L161.291,55.754 L161.291,71.387 L158.726,71.387 L158.726,55.754 L155.027,55.754 L155.027,53.405 L164.963,53.405 L164.963,55.754 Z M176.978,71.387 L174.44,71.387 L174.44,63.503 L169.337,63.503 L169.337,71.387 L166.772,71.387 L166.772,53.405 L169.337,53.405 L169.337,61.208 L174.44,61.208 L174.44,53.405 L176.978,53.405 L176.978,71.387 Z M188.264,71.387 L179.894,71.387 L179.894,53.405 L188.264,53.405 L188.264,55.727 L182.432,55.727 L182.432,60.857 L186.644,60.857 L186.644,63.071 L182.432,63.071 L182.432,69.065 L188.264,69.065 L188.264,71.387 Z M205.139,71.387 L202.601,71.387 L202.601,63.503 L197.498,63.503 L197.498,71.387 L194.933,71.387 L194.933,53.405 L197.498,53.405 L197.498,61.208 L202.601,61.208 L202.601,53.405 L205.139,53.405 L205.139,71.387 Z M217.856,66.635 C217.856,69.578 216.236,71.792 212.834,71.792 C209.459,71.792 207.812,69.578 207.812,66.635 L207.812,58.157 C207.812,55.241 209.459,53.027 212.834,53.027 C216.236,53.027 217.856,55.241 217.856,58.157 L217.856,66.635 Z M215.318,66.851 L215.318,57.941 C215.318,56.402 214.508,55.295 212.834,55.295 C211.16,55.295 210.377,56.402 210.377,57.941 L210.377,66.851 C210.377,68.39 211.16,69.497 212.834,69.497 C214.508,69.497 215.318,68.39 215.318,66.851 Z M230.33,66.635 C230.33,69.578 228.71,71.792 225.308,71.792 C221.933,71.792 220.286,69.578 220.286,66.635 L220.286,58.157 C220.286,55.241 221.933,53.027 225.308,53.027 C228.71,53.027 230.33,55.241 230.33,58.157 L230.33,66.635 Z M227.792,66.851 L227.792,57.941 C227.792,56.402 226.982,55.295 225.308,55.295 C223.634,55.295 222.851,56.402 222.851,57.941 L222.851,66.851 C222.851,68.39 223.634,69.497 225.308,69.497 C226.982,69.497 227.792,68.39 227.792,66.851 Z M242.885,66.527 C242.885,69.308 241.427,71.387 238.079,71.387 L233.003,71.387 L233.003,53.405 L238.079,53.405 C241.427,53.405 242.885,55.484 242.885,58.265 L242.885,66.527 Z M240.347,66.419 L240.347,58.4 C240.347,56.699 239.591,55.754 237.917,55.754 L235.568,55.754 L235.568,69.038 L237.917,69.038 C239.591,69.038 240.347,68.093 240.347,66.419 Z M260.57,53.405 L257.249,71.387 L254.765,71.387 L252.497,58.994 L250.067,71.387 L247.583,71.387 L244.424,53.405 L247.016,53.405 L248.906,66.689 L251.444,53.405 L253.766,53.405 L256.088,66.689 L258.059,53.405 L260.57,53.405 Z M264.809,71.387 L262.244,71.387 L262.244,53.405 L264.809,53.405 L264.809,71.387 Z M276.527,55.754 L272.855,55.754 L272.855,71.387 L270.29,71.387 L270.29,55.754 L266.591,55.754 L266.591,53.405 L276.527,53.405 L276.527,55.754 Z M288.002,67.04 C288.002,69.659 286.517,71.792 283.115,71.792 C279.713,71.792 278.093,69.443 278.093,66.797 L278.093,57.995 C278.093,55.349 279.713,53.027 283.115,53.027 C286.517,53.027 288.002,55.133 288.002,57.752 L288.002,59.696 L285.707,59.696 L285.707,57.806 C285.707,56.294 284.87,55.295 283.196,55.295 C281.495,55.295 280.658,56.321 280.658,57.698 L280.658,67.094 C280.658,68.471 281.495,69.497 283.196,69.497 C284.87,69.497 285.707,68.525 285.707,66.986 L285.707,65.096 L288.002,65.096 L288.002,67.04 Z M300.53,71.387 L297.992,71.387 L297.992,63.503 L292.889,63.503 L292.889,71.387 L290.324,71.387 L290.324,53.405 L292.889,53.405 L292.889,61.208 L297.992,61.208 L297.992,53.405 L300.53,53.405 L300.53,71.387 Z M316.703,55.754 L313.031,55.754 L313.031,71.387 L310.466,71.387 L310.466,55.754 L306.767,55.754 L306.767,53.405 L316.703,53.405 L316.703,55.754 Z M328.097,71.387 L325.505,71.387 L324.56,66.986 L320.672,66.986 L319.727,71.387 L317.243,71.387 L321.32,53.405 L324.02,53.405 L328.097,71.387 Z M324.101,64.799 L322.616,57.428 L321.131,64.799 L324.101,64.799 Z M338.006,71.387 L329.771,71.387 L329.771,53.405 L332.309,53.405 L332.309,69.065 L338.006,69.065 L338.006,71.387 Z M349.994,71.387 L347.213,71.387 L343.811,63.368 L342.38,65.825 L342.38,71.387 L339.842,71.387 L339.842,53.405 L342.38,53.405 L342.38,62.153 L347.267,53.405 L349.994,53.405 L345.458,61.127 L349.994,71.387 Z M369.596,68.849 C369.596,70.766 368.516,71.792 366.815,71.792 C365.816,71.792 364.817,71.225 363.872,70.307 C362.846,71.225 361.442,71.792 360.065,71.792 C357.392,71.792 355.664,69.794 355.664,67.31 C355.664,64.934 356.987,63.125 359.066,61.64 C358.58,60.317 358.283,58.886 358.283,57.671 C358.283,55.052 359.741,53 362.252,53 C364.628,53 365.681,54.701 365.681,56.969 C365.681,59.291 364.007,61.019 361.739,62.396 C362.279,63.989 363.116,65.96 363.953,67.148 C364.979,65.609 365.681,63.422 365.681,62.099 L367.706,62.099 C367.679,64.124 366.68,66.851 365.303,68.795 C365.843,69.362 366.437,69.686 367.004,69.686 C367.544,69.686 367.787,69.416 367.787,68.768 L367.787,67.04 L369.596,67.04 L369.596,68.849 Z M363.521,56.996 C363.521,55.916 363.143,55.214 362.252,55.214 C361.199,55.214 360.578,56.078 360.578,57.644 C360.578,58.427 360.767,59.48 361.064,60.587 C362.927,59.345 363.521,57.941 363.521,56.996 Z M362.495,68.849 C361.469,67.499 360.524,65.528 359.822,63.692 C358.796,64.502 358.094,65.636 358.094,66.959 C358.094,68.714 359.039,69.605 360.659,69.605 C361.388,69.605 362.09,69.254 362.495,68.849 Z M165.368,93.905 C165.368,96.875 163.262,98.792 160.427,98.792 C157.457,98.792 155.486,96.848 155.486,94.229 L155.486,92.987 L158.024,92.987 L158.024,93.824 C158.024,95.66 158.861,96.605 160.454,96.605 C162.02,96.605 162.83,95.66 162.83,94.283 C162.83,92.69 162.128,91.691 159.86,90.26 C157.835,88.964 155.702,87.209 155.702,84.617 C155.702,82.052 157.403,80.027 160.454,80.027 C163.37,80.027 165.233,81.944 165.233,84.59 L165.233,85.751 L162.803,85.751 L162.803,84.914 C162.803,83.402 162.074,82.214 160.373,82.214 C158.969,82.214 158.24,83.051 158.24,84.266 C158.24,85.859 158.969,86.696 161.561,88.37 C164.18,90.071 165.368,91.583 165.368,93.905 Z M177.464,93.635 C177.464,96.578 175.844,98.792 172.442,98.792 C169.067,98.792 167.42,96.578 167.42,93.635 L167.42,85.157 C167.42,82.241 169.067,80.027 172.442,80.027 C175.844,80.027 177.464,82.241 177.464,85.157 L177.464,93.635 Z M174.926,93.851 L174.926,84.941 C174.926,83.402 174.116,82.295 172.442,82.295 C170.768,82.295 169.985,83.402 169.985,84.941 L169.985,93.851 C169.985,95.39 170.768,96.497 172.442,96.497 C174.116,96.497 174.926,95.39 174.926,93.851 Z M190.1,94.094 C190.1,97.064 188.021,98.792 185.078,98.792 C182.162,98.792 180.083,97.064 180.083,94.094 L180.083,80.405 L182.648,80.405 L182.648,94.094 C182.648,95.687 183.431,96.551 185.105,96.551 C186.779,96.551 187.562,95.687 187.562,94.094 L187.562,80.405 L190.1,80.405 L190.1,94.094 Z M203.141,98.387 L201.332,98.387 L196.877,89.639 L195.365,86.48 L195.365,98.387 L192.935,98.387 L192.935,80.405 L195.014,80.405 L199.28,89.315 L200.711,92.474 L200.711,80.405 L203.141,80.405 L203.141,98.387 Z M215.912,93.527 C215.912,96.308 214.454,98.387 211.106,98.387 L206.03,98.387 L206.03,80.405 L211.106,80.405 C214.454,80.405 215.912,82.484 215.912,85.265 L215.912,93.527 Z M213.374,93.419 L213.374,85.4 C213.374,83.699 212.618,82.754 210.944,82.754 L208.595,82.754 L208.595,96.038 L210.944,96.038 C212.618,96.038 213.374,95.093 213.374,93.419 Z M232.571,94.364 C232.571,96.929 231.275,98.387 228.359,98.387 L223.013,98.387 L223.013,80.405 L228.224,80.405 C231.14,80.405 232.382,81.863 232.382,84.428 L232.382,85.886 C232.382,87.749 231.626,88.802 230.087,89.126 C231.842,89.477 232.571,90.692 232.571,92.447 L232.571,94.364 Z M229.871,86.264 L229.871,84.374 C229.871,83.348 229.466,82.619 228.251,82.619 L225.578,82.619 L225.578,88.289 L227.954,88.289 C229.223,88.289 229.871,87.587 229.871,86.264 Z M230.006,94.445 L230.006,92.339 C230.006,91.016 229.331,90.314 228.089,90.314 L225.578,90.314 L225.578,96.173 L228.359,96.173 C229.574,96.173 230.006,95.444 230.006,94.445 Z M244.64,98.387 L242.048,98.387 L241.103,93.986 L237.215,93.986 L236.27,98.387 L233.786,98.387 L237.863,80.405 L240.563,80.405 L244.64,98.387 Z M240.644,91.799 L239.159,84.428 L237.674,91.799 L240.644,91.799 Z M255.143,82.754 L251.471,82.754 L251.471,98.387 L248.906,98.387 L248.906,82.754 L245.207,82.754 L245.207,80.405 L255.143,80.405 L255.143,82.754 Z M267.158,98.387 L264.62,98.387 L264.62,90.503 L259.517,90.503 L259.517,98.387 L256.952,98.387 L256.952,80.405 L259.517,80.405 L259.517,88.208 L264.62,88.208 L264.62,80.405 L267.158,80.405 L267.158,98.387 Z M287.948,98.387 L285.626,98.387 L285.626,84.374 L284.897,87.803 L282.44,98.387 L279.929,98.387 L277.526,87.803 L276.77,84.374 L276.77,98.387 L274.502,98.387 L274.502,80.405 L278.066,80.405 L280.523,91.637 L281.252,95.066 L281.981,91.61 L284.384,80.405 L287.948,80.405 L287.948,98.387 Z M299.234,98.387 L290.864,98.387 L290.864,80.405 L299.234,80.405 L299.234,82.727 L293.402,82.727 L293.402,87.857 L297.614,87.857 L297.614,90.071 L293.402,90.071 L293.402,96.065 L299.234,96.065 L299.234,98.387 Z M311.357,93.527 C311.357,96.308 309.899,98.387 306.551,98.387 L301.475,98.387 L301.475,80.405 L306.551,80.405 C309.899,80.405 311.357,82.484 311.357,85.265 L311.357,93.527 Z M308.819,93.419 L308.819,85.4 C308.819,83.699 308.063,82.754 306.389,82.754 L304.04,82.754 L304.04,96.038 L306.389,96.038 C308.063,96.038 308.819,95.093 308.819,93.419 Z M316.595,98.387 L314.03,98.387 L314.03,80.405 L316.595,80.405 L316.595,98.387 Z M328.313,82.754 L324.641,82.754 L324.641,98.387 L322.076,98.387 L322.076,82.754 L318.377,82.754 L318.377,80.405 L328.313,80.405 L328.313,82.754 Z M339.707,98.387 L337.115,98.387 L336.17,93.986 L332.282,93.986 L331.337,98.387 L328.853,98.387 L332.93,80.405 L335.63,80.405 L339.707,98.387 Z M335.711,91.799 L334.226,84.428 L332.741,91.799 L335.711,91.799 Z M350.21,82.754 L346.538,82.754 L346.538,98.387 L343.973,98.387 L343.973,82.754 L340.274,82.754 L340.274,80.405 L350.21,80.405 L350.21,82.754 Z M354.584,98.387 L352.019,98.387 L352.019,80.405 L354.584,80.405 L354.584,98.387 Z M367.274,93.635 C367.274,96.578 365.654,98.792 362.252,98.792 C358.877,98.792 357.23,96.578 357.23,93.635 L357.23,85.157 C357.23,82.241 358.877,80.027 362.252,80.027 C365.654,80.027 367.274,82.241 367.274,85.157 L367.274,93.635 Z M364.736,93.851 L364.736,84.941 C364.736,83.402 363.926,82.295 362.252,82.295 C360.578,82.295 359.795,83.402 359.795,84.941 L359.795,93.851 C359.795,95.39 360.578,96.497 362.252,96.497 C363.926,96.497 364.736,95.39 364.736,93.851 Z M380.126,98.387 L378.317,98.387 L373.862,89.639 L372.35,86.48 L372.35,98.387 L369.92,98.387 L369.92,80.405 L371.999,80.405 L376.265,89.315 L377.696,92.474 L377.696,80.405 L380.126,80.405 L380.126,98.387 Z M171.146,107.405 L167.825,125.387 L165.341,125.387 L163.073,112.994 L160.643,125.387 L158.159,125.387 L155,107.405 L157.592,107.405 L159.482,120.689 L162.02,107.405 L164.342,107.405 L166.664,120.689 L168.635,107.405 L171.146,107.405 Z M178.517,105.704 L173.171,127.115 L171.416,127.115 L176.789,105.704 L178.517,105.704 Z M194.285,107.405 L189.938,125.387 L187.481,125.387 L183.242,107.405 L185.915,107.405 L188.804,121.31 L191.693,107.405 L194.285,107.405 Z M204.329,125.387 L195.959,125.387 L195.959,107.405 L204.329,107.405 L204.329,109.727 L198.497,109.727 L198.497,114.857 L202.709,114.857 L202.709,117.071 L198.497,117.071 L198.497,123.065 L204.329,123.065 L204.329,125.387 Z M216.749,125.387 L214.94,125.387 L210.485,116.639 L208.973,113.48 L208.973,125.387 L206.543,125.387 L206.543,107.405 L208.622,107.405 L212.888,116.315 L214.319,119.474 L214.319,107.405 L216.749,107.405 L216.749,125.387 Z M229.601,121.094 C229.601,124.064 227.522,125.792 224.579,125.792 C221.663,125.792 219.584,124.064 219.584,121.094 L219.584,107.405 L222.149,107.405 L222.149,121.094 C222.149,122.687 222.932,123.551 224.606,123.551 C226.28,123.551 227.063,122.687 227.063,121.094 L227.063,107.405 L229.601,107.405 L229.601,121.094 Z M241.697,120.905 C241.697,123.875 239.591,125.792 236.756,125.792 C233.786,125.792 231.815,123.848 231.815,121.229 L231.815,119.987 L234.353,119.987 L234.353,120.824 C234.353,122.66 235.19,123.605 236.783,123.605 C238.349,123.605 239.159,122.66 239.159,121.283 C239.159,119.69 238.457,118.691 236.189,117.26 C234.164,115.964 232.031,114.209 232.031,111.617 C232.031,109.052 233.732,107.027 236.783,107.027 C239.699,107.027 241.562,108.944 241.562,111.59 L241.562,112.751 L239.132,112.751 L239.132,111.914 C239.132,110.402 238.403,109.214 236.702,109.214 C235.298,109.214 234.569,110.051 234.569,111.266 C234.569,112.859 235.298,113.696 237.89,115.37 C240.509,117.071 241.697,118.583 241.697,120.905 Z M258.41,125.387 L255.656,125.387 L252.821,118.502 L249.959,125.387 L247.34,125.387 L251.525,116.234 L247.583,107.405 L250.337,107.405 L252.956,114.074 L255.602,107.405 L258.221,107.405 L254.279,116.126 L258.41,125.387 Z M262.298,125.036 C262.298,126.737 261.488,127.952 259.598,127.952 L259.598,127.169 C260.543,127.169 261.083,126.494 261.083,125.387 L260.084,125.387 L260.084,122.336 L262.298,122.336 L262.298,125.036 Z M279.497,120.527 C279.497,123.308 278.039,125.387 274.691,125.387 L269.615,125.387 L269.615,107.405 L274.691,107.405 C278.039,107.405 279.497,109.484 279.497,112.265 L279.497,120.527 Z M276.959,120.419 L276.959,112.4 C276.959,110.699 276.203,109.754 274.529,109.754 L272.18,109.754 L272.18,123.038 L274.529,123.038 C276.203,123.038 276.959,122.093 276.959,120.419 Z M290.729,120.797 C290.729,123.713 289.406,125.792 286.166,125.792 C283.088,125.792 281.495,124.037 281.495,121.094 L281.495,118.232 L283.898,118.232 L283.898,121.013 C283.898,122.687 284.654,123.497 286.085,123.497 C287.516,123.497 288.164,122.687 288.164,121.013 L288.164,107.405 L290.729,107.405 L290.729,120.797 Z M307.253,120.905 C307.253,123.875 305.147,125.792 302.312,125.792 C299.342,125.792 297.371,123.848 297.371,121.229 L297.371,119.987 L299.909,119.987 L299.909,120.824 C299.909,122.66 300.746,123.605 302.339,123.605 C303.905,123.605 304.715,122.66 304.715,121.283 C304.715,119.69 304.013,118.691 301.745,117.26 C299.72,115.964 297.587,114.209 297.587,111.617 C297.587,109.052 299.288,107.027 302.339,107.027 C305.255,107.027 307.118,108.944 307.118,111.59 L307.118,112.751 L304.688,112.751 L304.688,111.914 C304.688,110.402 303.959,109.214 302.258,109.214 C300.854,109.214 300.125,110.051 300.125,111.266 C300.125,112.859 300.854,113.696 303.446,115.37 C306.065,117.071 307.253,118.583 307.253,120.905 Z M317.918,125.387 L309.548,125.387 L309.548,107.405 L317.918,107.405 L317.918,109.727 L312.086,109.727 L312.086,114.857 L316.298,114.857 L316.298,117.071 L312.086,117.071 L312.086,123.065 L317.918,123.065 L317.918,125.387 Z M328.988,109.754 L325.316,109.754 L325.316,125.387 L322.751,125.387 L322.751,109.754 L319.052,109.754 L319.052,107.405 L328.988,107.405 L328.988,109.754 Z" id="the-hoodwitch-talk-&amp;" fill="#000000"></path>
        <g id="Group-9" transform="translate(0.000000, 3.000000)" fill="#000000">
            <g id="Group-2">
                <path d="M18.2784,12.7872 L11.3472,12.7872 L10.5984,10.56 L6.7008,10.56 L5.8368,12.7872 L0,12.7872 L5.6448,0 L12.5184,0 L18.2784,12.7872 Z M9.6384,7.6416 L8.8128,5.2416 L7.872,7.6416 L9.6384,7.6416 Z M33.4656,12.7872 L18.72,12.7872 L18.72,0 L25.4016,0 L25.4016,8.352 L33.4656,8.352 L33.4656,12.7872 Z M49.344,12.7872 L34.5984,12.7872 L34.5984,0 L41.28,0 L41.28,8.352 L49.344,8.352 L49.344,12.7872 Z M72.096,6.4896 C72.096,9.9264 69.1008,12.7872 63.4176,12.7872 L55.2,12.7872 L55.2,0 L63.4176,0 C69.1008,0 72.096,2.8032 72.096,6.2592 L72.096,6.4896 Z M65.2992,6.528 L65.2992,6.2208 C65.2992,4.9344 64.6656,3.8592 62.9376,3.8592 L61.8816,3.8592 L61.8816,8.8896 L62.9376,8.8896 C64.6656,8.8896 65.2992,7.8144 65.2992,6.528 Z M90.2592,12.7872 L83.328,12.7872 L82.5792,10.56 L78.6816,10.56 L77.8176,12.7872 L71.9808,12.7872 L77.6256,0 L84.4992,0 L90.2592,12.7872 Z M81.6192,7.6416 L80.7936,5.2416 L79.8528,7.6416 L81.6192,7.6416 Z M108.3264,0 L102.1632,8.448 L102.1632,12.7872 L95.4816,12.7872 L95.4816,8.448 L89.472,0 L96.864,0 L99.3216,3.7248 L101.6832,0 L108.3264,0 Z" id="ALL-DAY"></path>
            </g>
            <g id="Group-5" transform="translate(0.000000, 52.000000)">
                <path d="M14.9376,9.9456 C14.9376,12.0192 12.5952,13.7472 7.4688,13.7472 C2.3424,13.7472 0,12.0192 0,9.9456 L0,9.8304 C0,8.544 1.1328,7.3152 3.4368,6.7776 C1.5552,6.4896 0.3648,5.3376 0.3648,4.0512 L0.3648,3.936 C0.3648,2.016 2.3616,0 7.4688,0 C12.5568,0 14.5728,2.016 14.5728,3.936 L14.5728,4.0512 C14.5728,5.3376 13.3632,6.4896 11.4816,6.7776 C13.8048,7.3152 14.9376,8.544 14.9376,9.8304 L14.9376,9.9456 Z M9.1008,4.6656 L9.1008,4.5504 C9.1008,4.032 8.7168,3.4368 7.4688,3.4368 C6.2208,3.4368 5.8176,4.032 5.8176,4.5504 L5.8176,4.6656 C5.8176,5.376 6.4896,5.8176 7.4688,5.8176 C8.448,5.8176 9.1008,5.376 9.1008,4.6656 Z M9.1008,9.1584 L9.1008,9.024 C9.1008,8.4096 8.5632,7.9104 7.4688,7.9104 C6.3552,7.9104 5.8176,8.4096 5.8176,9.024 L5.8176,9.1584 C5.8176,9.7728 6.2784,10.3104 7.4688,10.3104 C8.64,10.3104 9.1008,9.7728 9.1008,9.1584 Z M32.1984,4.9536 C32.1984,7.2768 30.4704,9.3888 26.6304,9.3888 L23.0208,9.3888 L23.0208,13.2672 L16.3392,13.2672 L16.3392,0.48 L26.4768,0.48 C30.336,0.48 32.1984,2.4384 32.1984,4.7616 L32.1984,4.9536 Z M25.44,5.5296 L25.44,5.472 C25.44,4.7616 25.1328,4.416 24.1344,4.416 L23.0208,4.416 L23.0208,6.5856 L24.1344,6.5856 C25.1328,6.5856 25.44,6.2016 25.44,5.5296 Z M56.0256,13.2672 L49.6512,13.2672 L49.6512,6.3744 L49.1136,7.9488 L47.2512,13.2672 L41.5104,13.2672 L39.6672,7.9488 L39.1296,6.3744 L39.1296,13.2672 L33.4464,13.2672 L33.4464,0.48 L42.8544,0.48 L44.5824,5.4912 L44.8896,6.5088 L45.1968,5.4912 L46.9248,0.48 L56.0256,0.48 L56.0256,13.2672 Z M64.9536,8.9088 L57.5616,8.9088 L57.5616,6.0288 L64.9536,6.0288 L64.9536,8.9088 Z M72.4224,13.2672 L66.4896,13.2672 L66.4896,2.6688 C68.0832,2.6688 68.9088,1.6128 68.9088,0.48 L72.4224,0.48 L72.4224,13.2672 Z M89.0112,7.1616 C89.0112,11.328 85.8432,13.7472 81.3504,13.7472 C76.8384,13.7472 73.6704,11.328 73.6704,7.1616 L73.6704,6.5856 C73.6704,2.3808 76.8384,0 81.3504,0 C85.8432,0 89.0112,2.3808 89.0112,6.5856 L89.0112,7.1616 Z M83.3088,7.296 L83.3088,6.4128 C83.3088,4.6848 82.5984,3.84 81.3504,3.84 C80.0832,3.84 79.3728,4.6848 79.3728,6.4128 L79.3728,7.296 C79.3728,9.024 80.0832,9.9072 81.3504,9.9072 C82.5984,9.9072 83.3088,9.024 83.3088,7.296 Z M106.1184,4.9536 C106.1184,7.2768 104.3904,9.3888 100.5504,9.3888 L96.9408,9.3888 L96.9408,13.2672 L90.2592,13.2672 L90.2592,0.48 L100.3968,0.48 C104.256,0.48 106.1184,2.4384 106.1184,4.7616 L106.1184,4.9536 Z M99.36,5.5296 L99.36,5.472 C99.36,4.7616 99.0528,4.416 98.0544,4.416 L96.9408,4.416 L96.9408,6.5856 L98.0544,6.5856 C99.0528,6.5856 99.36,6.2016 99.36,5.5296 Z M129.9456,13.2672 L123.5712,13.2672 L123.5712,6.3744 L123.0336,7.9488 L121.1712,13.2672 L115.4304,13.2672 L113.5872,7.9488 L113.0496,6.3744 L113.0496,13.2672 L107.3664,13.2672 L107.3664,0.48 L116.7744,0.48 L118.5024,5.4912 L118.8096,6.5088 L119.1168,5.4912 L120.8448,0.48 L129.9456,0.48 L129.9456,13.2672 Z" id="8pm-10pm"></path>
            </g>
        </g>
        <path d="M164.936,3.727 L161.264,3.727 L161.264,19.36 L158.699,19.36 L158.699,3.727 L155,3.727 L155,1.378 L164.936,1.378 L164.936,3.727 Z M176.33,19.36 L173.738,19.36 L172.793,14.959 L168.905,14.959 L167.96,19.36 L165.476,19.36 L169.553,1.378 L172.253,1.378 L176.33,19.36 Z M172.334,12.772 L170.849,5.401 L169.364,12.772 L172.334,12.772 Z M188.264,19.549 L187.697,19.549 C185.672,19.549 184.97,18.982 184.97,17.119 L184.97,13.609 C184.97,12.367 184.403,11.53 183.107,11.53 L180.569,11.53 L180.569,19.36 L178.004,19.36 L178.004,1.378 L183.215,1.378 C186.131,1.378 187.427,2.836 187.427,5.401 L187.427,7.372 C187.427,9.127 186.833,10.18 185.105,10.531 C186.806,10.801 187.508,12.232 187.508,13.663 L187.508,16.93 C187.508,17.416 187.724,17.632 188.264,17.632 L188.264,19.549 Z M184.862,7.534 L184.862,5.347 C184.862,4.321 184.43,3.592 183.215,3.592 L180.569,3.592 L180.569,9.586 L182.945,9.586 C184.187,9.586 184.862,8.884 184.862,7.534 Z M199.982,14.608 C199.982,17.551 198.362,19.765 194.96,19.765 C191.585,19.765 189.938,17.551 189.938,14.608 L189.938,6.13 C189.938,3.214 191.585,1 194.96,1 C198.362,1 199.982,3.214 199.982,6.13 L199.982,14.608 Z M197.444,14.824 L197.444,5.914 C197.444,4.375 196.634,3.268 194.96,3.268 C193.286,3.268 192.503,4.375 192.503,5.914 L192.503,14.824 C192.503,16.363 193.286,17.47 194.96,17.47 C196.634,17.47 197.444,16.363 197.444,14.824 Z M211.484,3.727 L207.812,3.727 L207.812,19.36 L205.247,19.36 L205.247,3.727 L201.548,3.727 L201.548,1.378 L211.484,1.378 L211.484,3.727 Z M227.981,19.549 L227.414,19.549 C225.389,19.549 224.687,18.982 224.687,17.119 L224.687,13.609 C224.687,12.367 224.12,11.53 222.824,11.53 L220.286,11.53 L220.286,19.36 L217.721,19.36 L217.721,1.378 L222.932,1.378 C225.848,1.378 227.144,2.836 227.144,5.401 L227.144,7.372 C227.144,9.127 226.55,10.18 224.822,10.531 C226.523,10.801 227.225,12.232 227.225,13.663 L227.225,16.93 C227.225,17.416 227.441,17.632 227.981,17.632 L227.981,19.549 Z M224.579,7.534 L224.579,5.347 C224.579,4.321 224.147,3.592 222.932,3.592 L220.286,3.592 L220.286,9.586 L222.662,9.586 C223.904,9.586 224.579,8.884 224.579,7.534 Z M238.268,19.36 L229.898,19.36 L229.898,1.378 L238.268,1.378 L238.268,3.7 L232.436,3.7 L232.436,8.83 L236.648,8.83 L236.648,11.044 L232.436,11.044 L232.436,17.038 L238.268,17.038 L238.268,19.36 Z M250.094,19.36 L247.502,19.36 L246.557,14.959 L242.669,14.959 L241.724,19.36 L239.24,19.36 L243.317,1.378 L246.017,1.378 L250.094,19.36 Z M246.098,12.772 L244.613,5.401 L243.128,12.772 L246.098,12.772 Z M261.65,14.5 C261.65,17.281 260.192,19.36 256.844,19.36 L251.768,19.36 L251.768,1.378 L256.844,1.378 C260.192,1.378 261.65,3.457 261.65,6.238 L261.65,14.5 Z M259.112,14.392 L259.112,6.373 C259.112,4.672 258.356,3.727 256.682,3.727 L254.333,3.727 L254.333,17.011 L256.682,17.011 C258.356,17.011 259.112,16.066 259.112,14.392 Z M272.693,19.36 L264.323,19.36 L264.323,1.378 L272.693,1.378 L272.693,3.7 L266.861,3.7 L266.861,8.83 L271.073,8.83 L271.073,11.044 L266.861,11.044 L266.861,17.038 L272.693,17.038 L272.693,19.36 Z M285.194,19.549 L284.627,19.549 C282.602,19.549 281.9,18.982 281.9,17.119 L281.9,13.609 C281.9,12.367 281.333,11.53 280.037,11.53 L277.499,11.53 L277.499,19.36 L274.934,19.36 L274.934,1.378 L280.145,1.378 C283.061,1.378 284.357,2.836 284.357,5.401 L284.357,7.372 C284.357,9.127 283.763,10.18 282.035,10.531 C283.736,10.801 284.438,12.232 284.438,13.663 L284.438,16.93 C284.438,17.416 284.654,17.632 285.194,17.632 L285.194,19.549 Z M281.792,7.534 L281.792,5.347 C281.792,4.321 281.36,3.592 280.145,3.592 L277.499,3.592 L277.499,9.586 L279.875,9.586 C281.117,9.586 281.792,8.884 281.792,7.534 Z M296.345,14.878 C296.345,17.848 294.239,19.765 291.404,19.765 C288.434,19.765 286.463,17.821 286.463,15.202 L286.463,13.96 L289.001,13.96 L289.001,14.797 C289.001,16.633 289.838,17.578 291.431,17.578 C292.997,17.578 293.807,16.633 293.807,15.256 C293.807,13.663 293.105,12.664 290.837,11.233 C288.812,9.937 286.679,8.182 286.679,5.59 C286.679,3.025 288.38,1 291.431,1 C294.347,1 296.21,2.917 296.21,5.563 L296.21,6.724 L293.78,6.724 L293.78,5.887 C293.78,4.375 293.051,3.187 291.35,3.187 C289.946,3.187 289.217,4.024 289.217,5.239 C289.217,6.832 289.946,7.669 292.538,9.343 C295.157,11.044 296.345,12.556 296.345,14.878 Z" id="tarot-readers" fill="#000000"></path>
    </g>
</svg>