<?xml version="1.0" encoding="UTF-8"?>
<svg width="410px" height="122px" viewBox="0 0 410 122" version="1.1" xmlns="http://www.w3.org/2000/svg" xmlns:xlink="http://www.w3.org/1999/xlink">
    <!-- Generator: Sketch 49.3 (51167) - http://www.bohemiancoding.com/sketch -->
    <title>friday-m</title>
    <desc>Created with Sketch.</desc>
    <defs></defs>
    <g id="friday-m" stroke="none" stroke-width="1" fill="none" fill-rule="evenodd">
        <path d="M160.957424,45.7557637 L157.287479,45.7557637 L157.287479,61.3987752 L154.723915,61.3987752 L154.723915,45.7557637 L151.026985,45.7557637 L151.026985,43.4052594 L160.957424,43.4052594 L160.957424,45.7557637 Z M172.965699,61.3987752 L170.42912,61.3987752 L170.42912,53.5097262 L165.328976,53.5097262 L165.328976,61.3987752 L162.765411,61.3987752 L162.765411,43.4052594 L165.328976,43.4052594 L165.328976,51.2132565 L170.42912,51.2132565 L170.42912,43.4052594 L172.965699,43.4052594 L172.965699,61.3987752 Z M184.245383,61.3987752 L175.880067,61.3987752 L175.880067,43.4052594 L184.245383,43.4052594 L184.245383,45.7287464 L178.416647,45.7287464 L178.416647,50.8620317 L182.626289,50.8620317 L182.626289,53.0774496 L178.416647,53.0774496 L178.416647,59.0752882 L184.245383,59.0752882 L184.245383,61.3987752 Z M201.110938,61.3987752 L198.574358,61.3987752 L198.574358,53.5097262 L193.474214,53.5097262 L193.474214,61.3987752 L190.91065,61.3987752 L190.91065,43.4052594 L193.474214,43.4052594 L193.474214,51.2132565 L198.574358,51.2132565 L198.574358,43.4052594 L201.110938,43.4052594 L201.110938,61.3987752 Z M213.82082,56.643732 C213.82082,59.5886167 212.201727,61.8040346 208.801631,61.8040346 C205.42852,61.8040346 203.782442,59.5886167 203.782442,56.643732 L203.782442,48.1603026 C203.782442,45.2424352 205.42852,43.0270173 208.801631,43.0270173 C212.201727,43.0270173 213.82082,45.2424352 213.82082,48.1603026 L213.82082,56.643732 Z M211.284241,56.8598703 L211.284241,47.9441643 C211.284241,46.4041787 210.474694,45.2964697 208.801631,45.2964697 C207.128568,45.2964697 206.346006,46.4041787 206.346006,47.9441643 L206.346006,56.8598703 C206.346006,58.3998559 207.128568,59.5075648 208.801631,59.5075648 C210.474694,59.5075648 211.284241,58.3998559 211.284241,56.8598703 Z M226.287839,56.643732 C226.287839,59.5886167 224.668746,61.8040346 221.26865,61.8040346 C217.895538,61.8040346 216.24946,59.5886167 216.24946,56.643732 L216.24946,48.1603026 C216.24946,45.2424352 217.895538,43.0270173 221.26865,43.0270173 C224.668746,43.0270173 226.287839,45.2424352 226.287839,48.1603026 L226.287839,56.643732 Z M223.751259,56.8598703 L223.751259,47.9441643 C223.751259,46.4041787 222.941713,45.2964697 221.26865,45.2964697 C219.595586,45.2964697 218.813025,46.4041787 218.813025,47.9441643 L218.813025,56.8598703 C218.813025,58.3998559 219.595586,59.5075648 221.26865,59.5075648 C222.941713,59.5075648 223.751259,58.3998559 223.751259,56.8598703 Z M238.835812,56.5356628 C238.835812,59.3184438 237.378628,61.3987752 234.032502,61.3987752 L228.959343,61.3987752 L228.959343,43.4052594 L234.032502,43.4052594 C237.378628,43.4052594 238.835812,45.4855908 238.835812,48.2683718 L238.835812,56.5356628 Z M236.299232,56.4275937 L236.299232,48.4034582 C236.299232,46.7013689 235.543656,45.7557637 233.870592,45.7557637 L231.522907,45.7557637 L231.522907,59.0482709 L233.870592,59.0482709 C235.543656,59.0482709 236.299232,58.1026657 236.299232,56.4275937 Z M256.510914,43.4052594 L253.191773,61.3987752 L250.709163,61.3987752 L248.442432,48.9978386 L246.013792,61.3987752 L243.531183,61.3987752 L240.373951,43.4052594 L242.9645,43.4052594 L244.853442,56.6977666 L247.390022,43.4052594 L249.710722,43.4052594 L252.031422,56.6977666 L254.001319,43.4052594 L256.510914,43.4052594 Z M260.747541,61.3987752 L258.183977,61.3987752 L258.183977,43.4052594 L260.747541,43.4052594 L260.747541,61.3987752 Z M272.458983,45.7557637 L268.789038,45.7557637 L268.789038,61.3987752 L266.225474,61.3987752 L266.225474,45.7557637 L262.528544,45.7557637 L262.528544,43.4052594 L272.458983,43.4052594 L272.458983,45.7557637 Z M283.927561,57.0489914 C283.927561,59.6696686 282.443392,61.8040346 279.043296,61.8040346 C275.6432,61.8040346 274.024107,59.4535303 274.024107,56.8058357 L274.024107,47.9981988 C274.024107,45.3505043 275.6432,43.0270173 279.043296,43.0270173 C282.443392,43.0270173 283.927561,45.134366 283.927561,47.7550432 L283.927561,49.7002882 L281.633845,49.7002882 L281.633845,47.8090778 C281.633845,46.2961095 280.797314,45.2964697 279.12425,45.2964697 C277.424202,45.2964697 276.587671,46.3231268 276.587671,47.7010086 L276.587671,57.1030259 C276.587671,58.4809078 277.424202,59.5075648 279.12425,59.5075648 C280.797314,59.5075648 281.633845,58.5349424 281.633845,56.9949568 L281.633845,55.1037464 L283.927561,55.1037464 L283.927561,57.0489914 Z M296.448549,61.3987752 L293.911969,61.3987752 L293.911969,53.5097262 L288.811825,53.5097262 L288.811825,61.3987752 L286.248261,61.3987752 L286.248261,43.4052594 L288.811825,43.4052594 L288.811825,51.2132565 L293.911969,51.2132565 L293.911969,43.4052594 L296.448549,43.4052594 L296.448549,61.3987752 Z M312.612497,45.7557637 L308.942552,45.7557637 L308.942552,61.3987752 L306.378988,61.3987752 L306.378988,45.7557637 L302.682058,45.7557637 L302.682058,43.4052594 L312.612497,43.4052594 L312.612497,45.7557637 Z M324.00012,61.3987752 L321.409571,61.3987752 L320.4651,56.9949568 L316.579276,56.9949568 L315.634805,61.3987752 L313.152195,61.3987752 L317.226913,43.4052594 L319.925402,43.4052594 L324.00012,61.3987752 Z M320.006356,54.8065562 L318.522188,47.4308357 L317.038019,54.8065562 L320.006356,54.8065562 Z M333.903574,61.3987752 L325.673183,61.3987752 L325.673183,43.4052594 L328.209763,43.4052594 L328.209763,59.0752882 L333.903574,59.0752882 L333.903574,61.3987752 Z M345.884864,61.3987752 L343.105421,61.3987752 L339.705325,53.3746398 L338.275126,55.8332133 L338.275126,61.3987752 L335.738546,61.3987752 L335.738546,43.4052594 L338.275126,43.4052594 L338.275126,52.1588617 L343.159391,43.4052594 L345.884864,43.4052594 L341.351403,51.1322046 L345.884864,61.3987752 Z M365.475893,58.8591499 C365.475893,60.7773775 364.396498,61.8040346 362.69645,61.8040346 C361.698009,61.8040346 360.699568,61.2366715 359.755097,60.3180836 C358.729671,61.2366715 357.326457,61.8040346 355.950228,61.8040346 C353.278724,61.8040346 351.551691,59.804755 351.551691,57.3191643 C351.551691,54.9416427 352.873951,53.1314841 354.951787,51.6455331 C354.466059,50.3216859 354.169225,48.8897695 354.169225,47.6739914 C354.169225,45.0533141 355.626409,43 358.136004,43 C360.510674,43 361.563085,44.7020893 361.563085,46.9715418 C361.563085,49.2950288 359.890022,51.0241354 357.623291,52.4020173 C358.162989,53.9960375 358.99952,55.9682997 359.836052,57.1570605 C360.861478,55.6170749 361.563085,53.4286744 361.563085,52.1048271 L363.586951,52.1048271 C363.559966,54.1311239 362.561526,56.8598703 361.185296,58.8051153 C361.724994,59.3724784 362.318662,59.6966859 362.885344,59.6966859 C363.425042,59.6966859 363.667906,59.426513 363.667906,58.778098 L363.667906,57.0489914 L365.475893,57.0489914 L365.475893,58.8591499 Z M359.404294,46.9985591 C359.404294,45.9178674 359.026505,45.2154179 358.136004,45.2154179 C357.083593,45.2154179 356.462941,46.0799712 356.462941,47.6469741 C356.462941,48.4304755 356.651835,49.4841499 356.948669,50.5918588 C358.810626,49.3490634 359.404294,47.9441643 359.404294,46.9985591 Z M358.378868,58.8591499 C357.353442,57.5082853 356.408971,55.5360231 355.707364,53.6988473 C354.681938,54.509366 353.980331,55.6440922 353.980331,56.9679395 C353.980331,58.7240634 354.924802,59.615634 356.543895,59.615634 C357.272487,59.615634 357.974095,59.2644092 358.378868,58.8591499 Z M161.362197,83.931196 C161.362197,86.903098 159.257376,88.8213256 156.423963,88.8213256 C153.455625,88.8213256 151.485728,86.8760807 151.485728,84.2554035 L151.485728,83.0126081 L154.022308,83.0126081 L154.022308,83.8501441 C154.022308,85.6873199 154.858839,86.6329251 156.450947,86.6329251 C158.016071,86.6329251 158.825618,85.6873199 158.825618,84.309438 C158.825618,82.7154179 158.124011,81.7157781 155.85728,80.2838617 C153.833413,78.9870317 151.701607,77.2309078 151.701607,74.6372478 C151.701607,72.0706052 153.401655,70.0443084 156.450947,70.0443084 C159.365315,70.0443084 161.227273,71.962536 161.227273,74.6102305 L161.227273,75.7719741 L158.798633,75.7719741 L158.798633,74.934438 C158.798633,73.4214697 158.070041,72.2327089 156.369993,72.2327089 C154.966779,72.2327089 154.238187,73.070245 154.238187,74.2860231 C154.238187,75.8800432 154.966779,76.7175793 157.557328,78.3926513 C160.174862,80.0947406 161.362197,81.6077089 161.362197,83.931196 Z M173.451427,83.6610231 C173.451427,86.6059078 171.832334,88.8213256 168.432238,88.8213256 C165.059127,88.8213256 163.413049,86.6059078 163.413049,83.6610231 L163.413049,75.1775937 C163.413049,72.2597262 165.059127,70.0443084 168.432238,70.0443084 C171.832334,70.0443084 173.451427,72.2597262 173.451427,75.1775937 L173.451427,83.6610231 Z M170.914848,83.8771614 L170.914848,74.9614553 C170.914848,73.4214697 170.105301,72.3137608 168.432238,72.3137608 C166.759175,72.3137608 165.976613,73.4214697 165.976613,74.9614553 L165.976613,83.8771614 C165.976613,85.417147 166.759175,86.5248559 168.432238,86.5248559 C170.105301,86.5248559 170.914848,85.417147 170.914848,83.8771614 Z M186.080355,84.120317 C186.080355,87.092219 184.002519,88.8213256 181.061166,88.8213256 C178.146798,88.8213256 176.068961,87.092219 176.068961,84.120317 L176.068961,70.4225504 L178.632526,70.4225504 L178.632526,84.120317 C178.632526,85.7143372 179.415088,86.5788905 181.088151,86.5788905 C182.761214,86.5788905 183.543775,85.7143372 183.543775,84.120317 L183.543775,70.4225504 L186.080355,70.4225504 L186.080355,84.120317 Z M199.114056,88.4160663 L197.306069,88.4160663 L192.853562,79.662464 L191.342408,76.5014409 L191.342408,88.4160663 L188.913768,88.4160663 L188.913768,70.4225504 L190.991605,70.4225504 L195.255217,79.3382565 L196.685416,82.4992795 L196.685416,70.4225504 L199.114056,70.4225504 L199.114056,88.4160663 Z M211.877908,83.5529539 C211.877908,86.3357349 210.420724,88.4160663 207.074598,88.4160663 L202.001439,88.4160663 L202.001439,70.4225504 L207.074598,70.4225504 C210.420724,70.4225504 211.877908,72.5028818 211.877908,75.2856628 L211.877908,83.5529539 Z M209.341329,83.4448847 L209.341329,75.4207493 C209.341329,73.7186599 208.585752,72.7730548 206.912689,72.7730548 L204.565004,72.7730548 L204.565004,86.065562 L206.912689,86.065562 C208.585752,86.065562 209.341329,85.1199568 209.341329,83.4448847 Z M228.527585,84.3904899 C228.527585,86.9571326 227.23231,88.4160663 224.317942,88.4160663 L218.974934,88.4160663 L218.974934,70.4225504 L224.183018,70.4225504 C227.097385,70.4225504 228.33869,71.8814841 228.33869,74.4481268 L228.33869,75.9070605 C228.33869,77.7712536 227.583113,78.824928 226.044975,79.1491354 C227.798993,79.5003602 228.527585,80.7161383 228.527585,82.4722622 L228.527585,84.3904899 Z M225.829096,76.2853026 L225.829096,74.3940922 C225.829096,73.3674352 225.424322,72.6379683 224.210002,72.6379683 L221.538498,72.6379683 L221.538498,78.3115994 L223.913169,78.3115994 C225.181458,78.3115994 225.829096,77.6091499 225.829096,76.2853026 Z M225.96402,84.4715418 L225.96402,82.3641931 C225.96402,81.0403458 225.289398,80.3378963 224.048093,80.3378963 L221.538498,80.3378963 L221.538498,86.2006484 L224.317942,86.2006484 C225.532262,86.2006484 225.96402,85.4711816 225.96402,84.4715418 Z M240.58983,88.4160663 L237.99928,88.4160663 L237.054809,84.0122478 L233.168985,84.0122478 L232.224514,88.4160663 L229.741905,88.4160663 L233.816623,70.4225504 L236.515112,70.4225504 L240.58983,88.4160663 Z M236.596066,81.8238473 L235.111897,74.4481268 L233.627728,81.8238473 L236.596066,81.8238473 Z M251.086951,72.7730548 L247.417006,72.7730548 L247.417006,88.4160663 L244.853442,88.4160663 L244.853442,72.7730548 L241.156512,72.7730548 L241.156512,70.4225504 L251.086951,70.4225504 L251.086951,72.7730548 Z M263.095227,88.4160663 L260.558647,88.4160663 L260.558647,80.5270173 L255.458503,80.5270173 L255.458503,88.4160663 L252.894939,88.4160663 L252.894939,70.4225504 L255.458503,70.4225504 L255.458503,78.2305476 L260.558647,78.2305476 L260.558647,70.4225504 L263.095227,70.4225504 L263.095227,88.4160663 Z M283.873591,88.4160663 L281.55289,88.4160663 L281.55289,74.3940922 L280.824298,77.8252882 L278.368674,88.4160663 L275.859079,88.4160663 L273.457424,77.8252882 L272.701847,74.3940922 L272.701847,88.4160663 L270.435116,88.4160663 L270.435116,70.4225504 L273.997122,70.4225504 L276.452746,81.6617435 L277.181338,85.0929395 L277.90993,81.6347262 L280.311586,70.4225504 L283.873591,70.4225504 L283.873591,88.4160663 Z M295.153274,88.4160663 L286.787959,88.4160663 L286.787959,70.4225504 L295.153274,70.4225504 L295.153274,72.7460375 L289.324538,72.7460375 L289.324538,77.8793228 L293.534181,77.8793228 L293.534181,80.0947406 L289.324538,80.0947406 L289.324538,86.0925793 L295.153274,86.0925793 L295.153274,88.4160663 Z M307.269489,83.5529539 C307.269489,86.3357349 305.812305,88.4160663 302.466179,88.4160663 L297.39302,88.4160663 L297.39302,70.4225504 L302.466179,70.4225504 C305.812305,70.4225504 307.269489,72.5028818 307.269489,75.2856628 L307.269489,83.5529539 Z M304.73291,83.4448847 L304.73291,75.4207493 C304.73291,73.7186599 303.977333,72.7730548 302.30427,72.7730548 L299.956584,72.7730548 L299.956584,86.065562 L302.30427,86.065562 C303.977333,86.065562 304.73291,85.1199568 304.73291,83.4448847 Z M312.504557,88.4160663 L309.940993,88.4160663 L309.940993,70.4225504 L312.504557,70.4225504 L312.504557,88.4160663 Z M324.215999,72.7730548 L320.546054,72.7730548 L320.546054,88.4160663 L317.98249,88.4160663 L317.98249,72.7730548 L314.28556,72.7730548 L314.28556,70.4225504 L324.215999,70.4225504 L324.215999,72.7730548 Z M335.603622,88.4160663 L333.013073,88.4160663 L332.068602,84.0122478 L328.182778,84.0122478 L327.238307,88.4160663 L324.755697,88.4160663 L328.830415,70.4225504 L331.528904,70.4225504 L335.603622,88.4160663 Z M331.609858,81.8238473 L330.12569,74.4481268 L328.641521,81.8238473 L331.609858,81.8238473 Z M346.100744,72.7730548 L342.430799,72.7730548 L342.430799,88.4160663 L339.867234,88.4160663 L339.867234,72.7730548 L336.170305,72.7730548 L336.170305,70.4225504 L346.100744,70.4225504 L346.100744,72.7730548 Z M350.472296,88.4160663 L347.908731,88.4160663 L347.908731,70.4225504 L350.472296,70.4225504 L350.472296,88.4160663 Z M363.155193,83.6610231 C363.155193,86.6059078 361.5361,88.8213256 358.136004,88.8213256 C354.762893,88.8213256 353.116815,86.6059078 353.116815,83.6610231 L353.116815,75.1775937 C353.116815,72.2597262 354.762893,70.0443084 358.136004,70.0443084 C361.5361,70.0443084 363.155193,72.2597262 363.155193,75.1775937 L363.155193,83.6610231 Z M360.618614,83.8771614 L360.618614,74.9614553 C360.618614,73.4214697 359.809067,72.3137608 358.136004,72.3137608 C356.462941,72.3137608 355.680379,73.4214697 355.680379,74.9614553 L355.680379,83.8771614 C355.680379,85.417147 356.462941,86.5248559 358.136004,86.5248559 C359.809067,86.5248559 360.618614,85.417147 360.618614,83.8771614 Z M376,88.4160663 L374.192012,88.4160663 L369.739506,79.662464 L368.228352,76.5014409 L368.228352,88.4160663 L365.799712,88.4160663 L365.799712,70.4225504 L367.877549,70.4225504 L372.141161,79.3382565 L373.57136,82.4992795 L373.57136,70.4225504 L376,70.4225504 L376,88.4160663 Z M167.136963,97.4398415 L163.817822,115.433357 L161.335212,115.433357 L159.068482,103.032421 L156.639842,115.433357 L154.157232,115.433357 L151,97.4398415 L153.590549,97.4398415 L155.479491,110.732349 L158.016071,97.4398415 L160.336771,97.4398415 L162.657472,110.732349 L164.627369,97.4398415 L167.136963,97.4398415 Z M174.503838,95.7377522 L169.16083,117.162464 L167.406812,117.162464 L172.776805,95.7377522 L174.503838,95.7377522 Z M190.263013,97.4398415 L185.918446,115.433357 L183.462821,115.433357 L179.226193,97.4398415 L181.897697,97.4398415 L184.78508,111.353746 L187.672463,97.4398415 L190.263013,97.4398415 Z M200.301391,115.433357 L191.936076,115.433357 L191.936076,97.4398415 L200.301391,97.4398415 L200.301391,99.7633285 L194.472655,99.7633285 L194.472655,104.896614 L198.682298,104.896614 L198.682298,107.112032 L194.472655,107.112032 L194.472655,113.10987 L200.301391,113.10987 L200.301391,115.433357 Z M212.71444,115.433357 L210.906452,115.433357 L206.453946,106.679755 L204.942792,103.518732 L204.942792,115.433357 L202.514152,115.433357 L202.514152,97.4398415 L204.591988,97.4398415 L208.855601,106.355548 L210.2858,109.516571 L210.2858,97.4398415 L212.71444,97.4398415 L212.71444,115.433357 Z M225.559247,111.137608 C225.559247,114.10951 223.48141,115.838617 220.540058,115.838617 C217.62569,115.838617 215.547853,114.10951 215.547853,111.137608 L215.547853,97.4398415 L218.111418,97.4398415 L218.111418,111.137608 C218.111418,112.731628 218.893979,113.596182 220.567042,113.596182 C222.240106,113.596182 223.022667,112.731628 223.022667,111.137608 L223.022667,97.4398415 L225.559247,97.4398415 L225.559247,111.137608 Z M237.648477,110.948487 C237.648477,113.920389 235.543656,115.838617 232.710242,115.838617 C229.741905,115.838617 227.772008,113.893372 227.772008,111.272695 L227.772008,110.029899 L230.308587,110.029899 L230.308587,110.867435 C230.308587,112.704611 231.145119,113.650216 232.737227,113.650216 C234.302351,113.650216 235.111897,112.704611 235.111897,111.326729 C235.111897,109.732709 234.41029,108.733069 232.14356,107.301153 C230.119693,106.004323 227.987887,104.248199 227.987887,101.654539 C227.987887,99.0878963 229.687935,97.0615994 232.737227,97.0615994 C235.651595,97.0615994 237.513552,98.9798271 237.513552,101.627522 L237.513552,102.789265 L235.084912,102.789265 L235.084912,101.951729 C235.084912,100.438761 234.35632,99.25 232.656272,99.25 C231.253058,99.25 230.524466,100.087536 230.524466,101.303314 C230.524466,102.897334 231.253058,103.73487 233.843608,105.409942 C236.461142,107.112032 237.648477,108.625 237.648477,110.948487 Z M254.352123,115.433357 L251.599664,115.433357 L248.766251,108.543948 L245.905853,115.433357 L243.288319,115.433357 L247.470976,106.274496 L243.531183,97.4398415 L246.283641,97.4398415 L248.901175,104.113112 L251.545694,97.4398415 L254.163229,97.4398415 L250.223435,106.166427 L254.352123,115.433357 Z M258.237947,115.082133 C258.237947,116.784222 257.4284,118 255.539458,118 L255.539458,117.216499 C256.483929,117.216499 257.023627,116.541066 257.023627,115.433357 L256.025186,115.433357 L256.025186,112.380403 L258.237947,112.380403 L258.237947,115.082133 Z M275.427321,110.570245 C275.427321,113.353026 273.970137,115.433357 270.624011,115.433357 L265.550852,115.433357 L265.550852,97.4398415 L270.624011,97.4398415 C273.970137,97.4398415 275.427321,99.5201729 275.427321,102.302954 L275.427321,110.570245 Z M272.890741,110.462176 L272.890741,102.43804 C272.890741,100.735951 272.135164,99.7903458 270.462101,99.7903458 L268.114416,99.7903458 L268.114416,113.082853 L270.462101,113.082853 C272.135164,113.082853 272.890741,112.137248 272.890741,110.462176 Z M286.653034,110.840418 C286.653034,113.758285 285.330775,115.838617 282.092588,115.838617 C279.016311,115.838617 277.424202,114.082493 277.424202,111.137608 L277.424202,108.273775 L279.825858,108.273775 L279.825858,111.056556 C279.825858,112.731628 280.581434,113.542147 282.011633,113.542147 C283.441833,113.542147 284.08947,112.731628 284.08947,111.056556 L284.08947,97.4398415 L286.653034,97.4398415 L286.653034,110.840418 Z M303.167786,110.948487 C303.167786,113.920389 301.062965,115.838617 298.229551,115.838617 C295.261214,115.838617 293.291317,113.893372 293.291317,111.272695 L293.291317,110.029899 L295.827896,110.029899 L295.827896,110.867435 C295.827896,112.704611 296.664428,113.650216 298.256536,113.650216 C299.82166,113.650216 300.631207,112.704611 300.631207,111.326729 C300.631207,109.732709 299.929599,108.733069 297.662869,107.301153 C295.639002,106.004323 293.507196,104.248199 293.507196,101.654539 C293.507196,99.0878963 295.207244,97.0615994 298.256536,97.0615994 C301.170904,97.0615994 303.032862,98.9798271 303.032862,101.627522 L303.032862,102.789265 L300.604222,102.789265 L300.604222,101.951729 C300.604222,100.438761 299.87563,99.25 298.175582,99.25 C296.772367,99.25 296.043775,100.087536 296.043775,101.303314 C296.043775,102.897334 296.772367,103.73487 299.362917,105.409942 C301.980451,107.112032 303.167786,108.625 303.167786,110.948487 Z M313.826817,115.433357 L305.461502,115.433357 L305.461502,97.4398415 L313.826817,97.4398415 L313.826817,99.7633285 L307.998081,99.7633285 L307.998081,104.896614 L312.207724,104.896614 L312.207724,107.112032 L307.998081,107.112032 L307.998081,113.10987 L313.826817,113.10987 L313.826817,115.433357 Z M324.890621,99.7903458 L321.220676,99.7903458 L321.220676,115.433357 L318.657112,115.433357 L318.657112,99.7903458 L314.960182,99.7903458 L314.960182,97.4398415 L324.890621,97.4398415 L324.890621,99.7903458 Z" id="the-hoodwitch-talk-&amp;" fill="#000000"></path>
        <g id="Group-9" transform="translate(-1.000000, 3.000000)" fill="#000000">
            <g id="Group-2">
                <path d="M18.7792,13 L11.848,13 L11.0992,10.7728 L7.2016,10.7728 L6.3376,13 L0.5008,13 L6.1456,0.2128 L13.0192,0.2128 L18.7792,13 Z M10.1392,7.8544 L9.3136,5.4544 L8.3728,7.8544 L10.1392,7.8544 Z M33.9664,13 L19.2208,13 L19.2208,0.2128 L25.9024,0.2128 L25.9024,8.5648 L33.9664,8.5648 L33.9664,13 Z M49.8448,13 L35.0992,13 L35.0992,0.2128 L41.7808,0.2128 L41.7808,8.5648 L49.8448,8.5648 L49.8448,13 Z M72.5968,6.7024 C72.5968,10.1392 69.6016,13 63.9184,13 L55.7008,13 L55.7008,0.2128 L63.9184,0.2128 C69.6016,0.2128 72.5968,3.016 72.5968,6.472 L72.5968,6.7024 Z M65.8,6.7408 L65.8,6.4336 C65.8,5.1472 65.1664,4.072 63.4384,4.072 L62.3824,4.072 L62.3824,9.1024 L63.4384,9.1024 C65.1664,9.1024 65.8,8.0272 65.8,6.7408 Z M90.76,13 L83.8288,13 L83.08,10.7728 L79.1824,10.7728 L78.3184,13 L72.4816,13 L78.1264,0.2128 L85,0.2128 L90.76,13 Z M82.12,7.8544 L81.2944,5.4544 L80.3536,7.8544 L82.12,7.8544 Z M108.8272,0.2128 L102.664,8.6608 L102.664,13 L95.9824,13 L95.9824,8.6608 L89.9728,0.2128 L97.3648,0.2128 L99.8224,3.9376 L102.184,0.2128 L108.8272,0.2128 Z" id="ALL-DAY"></path>
            </g>
            <g id="Group-5" transform="translate(1.000000, 41.000000)">
                <path d="M15.4752,10.6784 C15.4752,12.752 13.1328,14.48 8.0064,14.48 C2.88,14.48 0.5376,12.752 0.5376,10.6784 L0.5376,10.5632 C0.5376,9.2768 1.6704,8.048 3.9744,7.5104 C2.0928,7.2224 0.9024,6.0704 0.9024,4.784 L0.9024,4.6688 C0.9024,2.7488 2.8992,0.7328 8.0064,0.7328 C13.0944,0.7328 15.1104,2.7488 15.1104,4.6688 L15.1104,4.784 C15.1104,6.0704 13.9008,7.2224 12.0192,7.5104 C14.3424,8.048 15.4752,9.2768 15.4752,10.5632 L15.4752,10.6784 Z M9.6384,5.3984 L9.6384,5.2832 C9.6384,4.7648 9.2544,4.1696 8.0064,4.1696 C6.7584,4.1696 6.3552,4.7648 6.3552,5.2832 L6.3552,5.3984 C6.3552,6.1088 7.0272,6.5504 8.0064,6.5504 C8.9856,6.5504 9.6384,6.1088 9.6384,5.3984 Z M9.6384,9.8912 L9.6384,9.7568 C9.6384,9.1424 9.1008,8.6432 8.0064,8.6432 C6.8928,8.6432 6.3552,9.1424 6.3552,9.7568 L6.3552,9.8912 C6.3552,10.5056 6.816,11.0432 8.0064,11.0432 C9.1776,11.0432 9.6384,10.5056 9.6384,9.8912 Z M32.736,5.6864 C32.736,8.0096 31.008,10.1216 27.168,10.1216 L23.5584,10.1216 L23.5584,14 L16.8768,14 L16.8768,1.2128 L27.0144,1.2128 C30.8736,1.2128 32.736,3.1712 32.736,5.4944 L32.736,5.6864 Z M25.9776,6.2624 L25.9776,6.2048 C25.9776,5.4944 25.6704,5.1488 24.672,5.1488 L23.5584,5.1488 L23.5584,7.3184 L24.672,7.3184 C25.6704,7.3184 25.9776,6.9344 25.9776,6.2624 Z M56.5632,14 L50.1888,14 L50.1888,7.1072 L49.6512,8.6816 L47.7888,14 L42.048,14 L40.2048,8.6816 L39.6672,7.1072 L39.6672,14 L33.984,14 L33.984,1.2128 L43.392,1.2128 L45.12,6.224 L45.4272,7.2416 L45.7344,6.224 L47.4624,1.2128 L56.5632,1.2128 L56.5632,14 Z M65.4912,9.6416 L58.0992,9.6416 L58.0992,6.7616 L65.4912,6.7616 L65.4912,9.6416 Z M72.96,14 L67.0272,14 L67.0272,3.4016 C68.6208,3.4016 69.4464,2.3456 69.4464,1.2128 L72.96,1.2128 L72.96,14 Z M89.5488,7.8944 C89.5488,12.0608 86.3808,14.48 81.888,14.48 C77.376,14.48 74.208,12.0608 74.208,7.8944 L74.208,7.3184 C74.208,3.1136 77.376,0.7328 81.888,0.7328 C86.3808,0.7328 89.5488,3.1136 89.5488,7.3184 L89.5488,7.8944 Z M83.8464,8.0288 L83.8464,7.1456 C83.8464,5.4176 83.136,4.5728 81.888,4.5728 C80.6208,4.5728 79.9104,5.4176 79.9104,7.1456 L79.9104,8.0288 C79.9104,9.7568 80.6208,10.64 81.888,10.64 C83.136,10.64 83.8464,9.7568 83.8464,8.0288 Z M106.656,5.6864 C106.656,8.0096 104.928,10.1216 101.088,10.1216 L97.4784,10.1216 L97.4784,14 L90.7968,14 L90.7968,1.2128 L100.9344,1.2128 C104.7936,1.2128 106.656,3.1712 106.656,5.4944 L106.656,5.6864 Z M99.8976,6.2624 L99.8976,6.2048 C99.8976,5.4944 99.5904,5.1488 98.592,5.1488 L97.4784,5.1488 L97.4784,7.3184 L98.592,7.3184 C99.5904,7.3184 99.8976,6.9344 99.8976,6.2624 Z M130.4832,14 L124.1088,14 L124.1088,7.1072 L123.5712,8.6816 L121.7088,14 L115.968,14 L114.1248,8.6816 L113.5872,7.1072 L113.5872,14 L107.904,14 L107.904,1.2128 L117.312,1.2128 L119.04,6.224 L119.3472,7.2416 L119.6544,6.224 L121.3824,1.2128 L130.4832,1.2128 L130.4832,14 Z" id="8pm-10pm"></path>
            </g>
        </g>
        <path d="M161.911748,3.76115108 L158.248711,3.76115108 L158.248711,19.5899281 L155.689971,19.5899281 L155.689971,3.76115108 L152,3.76115108 L152,1.38273381 L161.911748,1.38273381 L161.911748,3.76115108 Z M173.277937,19.5899281 L170.692264,19.5899281 L169.74957,15.1338129 L165.87106,15.1338129 L164.928367,19.5899281 L162.45043,19.5899281 L166.517479,1.38273381 L169.210888,1.38273381 L173.277937,19.5899281 Z M169.291691,12.9194245 L167.810315,5.45611511 L166.32894,12.9194245 L169.291691,12.9194245 Z M185.182808,19.781295 L184.617192,19.781295 C182.597135,19.781295 181.896848,19.2071942 181.896848,17.3208633 L181.896848,13.7669065 C181.896848,12.5093525 181.331232,11.6618705 180.038395,11.6618705 L177.50659,11.6618705 L177.50659,19.5899281 L174.947851,19.5899281 L174.947851,1.38273381 L180.146132,1.38273381 C183.055014,1.38273381 184.347851,2.85899281 184.347851,5.45611511 L184.347851,7.45179856 C184.347851,9.22877698 183.755301,10.294964 182.031519,10.6503597 C183.728367,10.923741 184.428653,12.3726619 184.428653,13.8215827 L184.428653,17.1294964 C184.428653,17.6215827 184.644126,17.8402878 185.182808,17.8402878 L185.182808,19.781295 Z M181.789112,7.61582734 L181.789112,5.40143885 C181.789112,4.36258993 181.358166,3.62446043 180.146132,3.62446043 L177.50659,3.62446043 L177.50659,9.69352518 L179.876791,9.69352518 C181.115759,9.69352518 181.789112,8.98273381 181.789112,7.61582734 Z M196.872206,14.7784173 C196.872206,17.7582734 195.25616,20 191.862464,20 C188.495702,20 186.852722,17.7582734 186.852722,14.7784173 L186.852722,6.1942446 C186.852722,3.24172662 188.495702,1 191.862464,1 C195.25616,1 196.872206,3.24172662 196.872206,6.1942446 L196.872206,14.7784173 Z M194.340401,14.9971223 L194.340401,5.97553957 C194.340401,4.41726619 193.532378,3.29640288 191.862464,3.29640288 C190.19255,3.29640288 189.411461,4.41726619 189.411461,5.97553957 L189.411461,14.9971223 C189.411461,16.5553957 190.19255,17.676259 191.862464,17.676259 C193.532378,17.676259 194.340401,16.5553957 194.340401,14.9971223 Z M208.346132,3.76115108 L204.683095,3.76115108 L204.683095,19.5899281 L202.124355,19.5899281 L202.124355,3.76115108 L198.434384,3.76115108 L198.434384,1.38273381 L208.346132,1.38273381 L208.346132,3.76115108 Z M224.802865,19.781295 L224.237249,19.781295 C222.217192,19.781295 221.516905,19.2071942 221.516905,17.3208633 L221.516905,13.7669065 C221.516905,12.5093525 220.951289,11.6618705 219.658453,11.6618705 L217.126648,11.6618705 L217.126648,19.5899281 L214.567908,19.5899281 L214.567908,1.38273381 L219.766189,1.38273381 C222.675072,1.38273381 223.967908,2.85899281 223.967908,5.45611511 L223.967908,7.45179856 C223.967908,9.22877698 223.375358,10.294964 221.651576,10.6503597 C223.348424,10.923741 224.048711,12.3726619 224.048711,13.8215827 L224.048711,17.1294964 C224.048711,17.6215827 224.264183,17.8402878 224.802865,17.8402878 L224.802865,19.781295 Z M221.409169,7.61582734 L221.409169,5.40143885 C221.409169,4.36258993 220.978223,3.62446043 219.766189,3.62446043 L217.126648,3.62446043 L217.126648,9.69352518 L219.496848,9.69352518 C220.735817,9.69352518 221.409169,8.98273381 221.409169,7.61582734 Z M235.064756,19.5899281 L226.715186,19.5899281 L226.715186,1.38273381 L235.064756,1.38273381 L235.064756,3.73381295 L229.246991,3.73381295 L229.246991,8.92805755 L233.448711,8.92805755 L233.448711,11.1697842 L229.246991,11.1697842 L229.246991,17.2388489 L235.064756,17.2388489 L235.064756,19.5899281 Z M246.861891,19.5899281 L244.276218,19.5899281 L243.333524,15.1338129 L239.455014,15.1338129 L238.512321,19.5899281 L236.034384,19.5899281 L240.101433,1.38273381 L242.794842,1.38273381 L246.861891,19.5899281 Z M242.875645,12.9194245 L241.394269,5.45611511 L239.912894,12.9194245 L242.875645,12.9194245 Z M258.389685,14.6690647 C258.389685,17.4848921 256.935244,19.5899281 253.595415,19.5899281 L248.531805,19.5899281 L248.531805,1.38273381 L253.595415,1.38273381 C256.935244,1.38273381 258.389685,3.48776978 258.389685,6.30359712 L258.389685,14.6690647 Z M255.85788,14.5597122 L255.85788,6.44028777 C255.85788,4.71798561 255.103725,3.76115108 253.433811,3.76115108 L251.090544,3.76115108 L251.090544,17.2115108 L253.433811,17.2115108 C255.103725,17.2115108 255.85788,16.2546763 255.85788,14.5597122 Z M269.405731,19.5899281 L261.05616,19.5899281 L261.05616,1.38273381 L269.405731,1.38273381 L269.405731,3.73381295 L263.587966,3.73381295 L263.587966,8.92805755 L267.789685,8.92805755 L267.789685,11.1697842 L263.587966,11.1697842 L263.587966,17.2388489 L269.405731,17.2388489 L269.405731,19.5899281 Z M281.876218,19.781295 L281.310602,19.781295 C279.290544,19.781295 278.590258,19.2071942 278.590258,17.3208633 L278.590258,13.7669065 C278.590258,12.5093525 278.024642,11.6618705 276.731805,11.6618705 L274.2,11.6618705 L274.2,19.5899281 L271.641261,19.5899281 L271.641261,1.38273381 L276.839542,1.38273381 C279.748424,1.38273381 281.041261,2.85899281 281.041261,5.45611511 L281.041261,7.45179856 C281.041261,9.22877698 280.448711,10.294964 278.724928,10.6503597 C280.421777,10.923741 281.122063,12.3726619 281.122063,13.8215827 L281.122063,17.1294964 C281.122063,17.6215827 281.337536,17.8402878 281.876218,17.8402878 L281.876218,19.781295 Z M278.482521,7.61582734 L278.482521,5.40143885 C278.482521,4.36258993 278.051576,3.62446043 276.839542,3.62446043 L274.2,3.62446043 L274.2,9.69352518 L276.570201,9.69352518 C277.809169,9.69352518 278.482521,8.98273381 278.482521,7.61582734 Z M293,15.0517986 C293,18.0589928 290.89914,20 288.07106,20 C285.108309,20 283.14212,18.0316547 283.14212,15.3798561 L283.14212,14.1223022 L285.673926,14.1223022 L285.673926,14.9697842 C285.673926,16.828777 286.508883,17.7856115 288.097994,17.7856115 C289.660172,17.7856115 290.468195,16.828777 290.468195,15.4345324 C290.468195,13.8215827 289.767908,12.8100719 287.505444,11.3611511 C285.485387,10.0489209 283.357593,8.27194245 283.357593,5.64748201 C283.357593,3.05035971 285.054441,1 288.097994,1 C291.006877,1 292.86533,2.94100719 292.86533,5.62014388 L292.86533,6.79568345 L290.441261,6.79568345 L290.441261,5.94820144 C290.441261,4.41726619 289.71404,3.21438849 288.017192,3.21438849 C286.616619,3.21438849 285.889398,4.0618705 285.889398,5.29208633 C285.889398,6.90503597 286.616619,7.75251799 289.202292,9.44748201 C291.8149,11.1697842 293,12.7007194 293,15.0517986 Z" id="tarot-readers" fill="#000000"></path>
    </g>
</svg>