<?xml version="1.0" encoding="UTF-8"?>
<svg width="420px" height="45px" viewBox="0 0 420 45" version="1.1" xmlns="http://www.w3.org/2000/svg" xmlns:xlink="http://www.w3.org/1999/xlink">
    <!-- Generator: Sketch 49.3 (51167) - http://www.bohemiancoding.com/sketch -->
    <title>June 12</title>
    <desc>Created with Sketch.</desc>
    <defs></defs>
    <g id="Page-1" stroke="none" stroke-width="1" fill="none" fill-rule="evenodd">
        <g id="Calendar" transform="translate(-727.000000, -615.000000)">
            <g id="June-12" transform="translate(727.000000, 615.000000)">
                <rect id="Rectangle-Copy-7" fill="#000000" x="0" y="0" width="420" height="45"></rect>
                <path d="M301.334,19.878 C301.334,22.146 298.742,23.424 294.476,24.882 L301.388,24.882 L301.388,28.5 L288.32,28.5 L288.32,27.15 C288.32,22.344 296.15,22.38 296.15,20.562 C296.15,20.04 295.592,19.662 294.332,19.662 C292.982,19.662 291.29,20.13 289.688,20.814 L288.464,17.466 C290.588,16.548 292.424,16.062 295.124,16.062 C298.814,16.062 301.334,17.79 301.334,19.878 Z M317.552,20.706 C317.552,22.884 315.932,24.864 312.332,24.864 L308.948,24.864 L308.948,28.5 L302.684,28.5 L302.684,16.512 L312.188,16.512 C315.806,16.512 317.552,18.348 317.552,20.526 L317.552,20.706 Z M311.216,21.246 L311.216,21.192 C311.216,20.526 310.928,20.202 309.992,20.202 L308.948,20.202 L308.948,22.236 L309.992,22.236 C310.928,22.236 311.216,21.876 311.216,21.246 Z M339.89,28.5 L333.914,28.5 L333.914,22.038 L333.41,23.514 L331.664,28.5 L326.282,28.5 L324.554,23.514 L324.05,22.038 L324.05,28.5 L318.722,28.5 L318.722,16.512 L327.542,16.512 L329.162,21.21 L329.45,22.164 L329.738,21.21 L331.358,16.512 L339.89,16.512 L339.89,28.5 Z M348.26,24.414 L341.33,24.414 L341.33,21.714 L348.26,21.714 L348.26,24.414 Z M355.262,28.5 L349.7,28.5 L349.7,18.564 C351.194,18.564 351.968,17.574 351.968,16.512 L355.262,16.512 L355.262,28.5 Z M370.814,22.776 C370.814,26.682 367.844,28.95 363.632,28.95 C359.402,28.95 356.432,26.682 356.432,22.776 L356.432,22.236 C356.432,18.294 359.402,16.062 363.632,16.062 C367.844,16.062 370.814,18.294 370.814,22.236 L370.814,22.776 Z M365.468,22.902 L365.468,22.074 C365.468,20.454 364.802,19.662 363.632,19.662 C362.444,19.662 361.778,20.454 361.778,22.074 L361.778,22.902 C361.778,24.522 362.444,25.35 363.632,25.35 C364.802,25.35 365.468,24.522 365.468,22.902 Z M386.852,20.706 C386.852,22.884 385.232,24.864 381.632,24.864 L378.248,24.864 L378.248,28.5 L371.984,28.5 L371.984,16.512 L381.488,16.512 C385.106,16.512 386.852,18.348 386.852,20.526 L386.852,20.706 Z M380.516,21.246 L380.516,21.192 C380.516,20.526 380.228,20.202 379.292,20.202 L378.248,20.202 L378.248,22.236 L379.292,22.236 C380.228,22.236 380.516,21.876 380.516,21.246 Z M409.19,28.5 L403.214,28.5 L403.214,22.038 L402.71,23.514 L400.964,28.5 L395.582,28.5 L393.854,23.514 L393.35,22.038 L393.35,28.5 L388.022,28.5 L388.022,16.512 L396.842,16.512 L398.462,21.21 L398.75,22.164 L399.038,21.21 L400.658,16.512 L409.19,16.512 L409.19,28.5 Z" id="2PM-10PM" fill="#FFFFFF"></path>
                <path d="M29.188,23.902 C29.188,28.66 25.834,31.65 19.698,31.65 C16.032,31.65 12.522,30.688 9.766,28.894 L12.314,23.772 C14.212,24.708 16.136,25.358 17.982,25.358 C19.542,25.358 20.14,24.63 20.14,23.226 L20.14,13.684 L29.188,13.684 L29.188,23.902 Z M54.2152188,23.564 C54.2152188,28.088 51.1472188,31.65 42.9572188,31.65 C34.7932188,31.65 31.5692188,28.088 31.5692188,23.564 L31.5692188,13.684 L40.6172188,13.684 L40.6172188,22.914 C40.6172188,25.072 41.2672188,26.008 43.4252188,26.008 C45.5832188,26.008 46.1812188,25.072 46.1812188,22.914 L46.1812188,13.684 L54.2152188,13.684 L54.2152188,23.564 Z M79.2944376,31 L71.5464376,31 L65.4884376,24.994 L64.8384376,24.24 L64.8384376,31 L56.7264376,31 L56.7264376,13.684 L64.0584376,13.684 L70.5584376,19.742 L71.1564376,20.392 L71.1564376,13.684 L79.2944376,13.684 L79.2944376,31 Z M101.773656,31 L81.9356564,31 L81.9356564,13.684 L101.773656,13.684 L101.773656,19.222 L90.9836564,19.222 L90.9836564,20.86 L97.7436564,20.86 L97.7436564,23.512 L90.9836564,23.512 L90.9836564,24.994 L101.773656,24.994 L101.773656,31 Z M118.782094,31 L110.748094,31 L110.748094,16.648 C112.906094,16.648 114.024094,15.218 114.024094,13.684 L118.782094,13.684 L118.782094,31 Z M141.287313,25.202 C141.287313,28.634 137.491313,31.65 131.537313,31.65 C125.141313,31.65 120.851313,28.296 120.851313,22.862 L120.851313,22.446 C120.851313,16.752 126.077313,13.034 132.291313,13.034 C135.619313,13.034 138.037313,13.632 140.715313,14.75 L138.999313,18.936 C137.465313,18.416 135.671313,18.026 133.773313,18.026 C130.757313,18.026 128.651313,19.69 128.651313,21.926 L128.651313,22.186 C130.159313,20.834 131.849313,19.846 134.761313,19.846 C138.817313,19.846 141.287313,22.342 141.287313,25.072 L141.287313,25.202 Z M134.189313,24.63 L134.189313,24.552 C134.189313,23.668 133.357313,22.914 131.745313,22.914 C130.445313,22.914 129.509313,23.408 128.651313,24.11 L128.651313,24.188 C128.651313,25.436 129.873313,26.45 131.355313,26.45 C133.149313,26.45 134.189313,25.462 134.189313,24.63 Z" id="june-16" fill="#FFFFFF"></path>
            </g>
        </g>
    </g>
</svg>