<?xml version="1.0" encoding="UTF-8"?>
<svg width="410px" height="138px" viewBox="0 0 410 138" version="1.1" xmlns="http://www.w3.org/2000/svg" xmlns:xlink="http://www.w3.org/1999/xlink">
    <!-- Generator: Sketch 49.3 (51167) - http://www.bohemiancoding.com/sketch -->
    <title>saturday-m</title>
    <desc>Created with Sketch.</desc>
    <defs></defs>
    <g id="saturday-m" stroke="none" stroke-width="1" fill="none" fill-rule="evenodd">
        <g id="Group" transform="translate(-1.000000, 3.000000)" fill="#000000">
            <g id="Group-2">
                <path d="M18.7792,13 L11.848,13 L11.0992,10.7728 L7.2016,10.7728 L6.3376,13 L0.5008,13 L6.1456,0.2128 L13.0192,0.2128 L18.7792,13 Z M10.1392,7.8544 L9.3136,5.4544 L8.3728,7.8544 L10.1392,7.8544 Z M33.9664,13 L19.2208,13 L19.2208,0.2128 L25.9024,0.2128 L25.9024,8.5648 L33.9664,8.5648 L33.9664,13 Z M49.8448,13 L35.0992,13 L35.0992,0.2128 L41.7808,0.2128 L41.7808,8.5648 L49.8448,8.5648 L49.8448,13 Z M72.5968,6.7024 C72.5968,10.1392 69.6016,13 63.9184,13 L55.7008,13 L55.7008,0.2128 L63.9184,0.2128 C69.6016,0.2128 72.5968,3.016 72.5968,6.472 L72.5968,6.7024 Z M65.8,6.7408 L65.8,6.4336 C65.8,5.1472 65.1664,4.072 63.4384,4.072 L62.3824,4.072 L62.3824,9.1024 L63.4384,9.1024 C65.1664,9.1024 65.8,8.0272 65.8,6.7408 Z M90.76,13 L83.8288,13 L83.08,10.7728 L79.1824,10.7728 L78.3184,13 L72.4816,13 L78.1264,0.2128 L85,0.2128 L90.76,13 Z M82.12,7.8544 L81.2944,5.4544 L80.3536,7.8544 L82.12,7.8544 Z M108.8272,0.2128 L102.664,8.6608 L102.664,13 L95.9824,13 L95.9824,8.6608 L89.9728,0.2128 L97.3648,0.2128 L99.8224,3.9376 L102.184,0.2128 L108.8272,0.2128 Z" id="ALL-DAY"></path>
            </g>
            <g id="Group-5" transform="translate(1.000000, 36.000000)">
                <path d="M162.043,22 L159.451,22 L158.506,17.599 L154.618,17.599 L153.673,22 L151.189,22 L155.266,4.018 L157.966,4.018 L162.043,22 Z M158.047,15.412 L156.562,8.041 L155.077,15.412 L158.047,15.412 Z M172.951,17.518 C172.951,20.488 170.845,22.405 168.01,22.405 C165.04,22.405 163.069,20.461 163.069,17.842 L163.069,16.6 L165.607,16.6 L165.607,17.437 C165.607,19.273 166.444,20.218 168.037,20.218 C169.603,20.218 170.413,19.273 170.413,17.896 C170.413,16.303 169.711,15.304 167.443,13.873 C165.418,12.577 163.285,10.822 163.285,8.23 C163.285,5.665 164.986,3.64 168.037,3.64 C170.953,3.64 172.816,5.557 172.816,8.203 L172.816,9.364 L170.386,9.364 L170.386,8.527 C170.386,7.015 169.657,5.827 167.956,5.827 C166.552,5.827 165.823,6.664 165.823,7.879 C165.823,9.472 166.552,10.309 169.144,11.983 C171.763,13.684 172.951,15.196 172.951,17.518 Z M184.075,6.367 L180.403,6.367 L180.403,22 L177.838,22 L177.838,6.367 L174.139,6.367 L174.139,4.018 L184.075,4.018 L184.075,6.367 Z M196.144,22.189 L195.577,22.189 C193.552,22.189 192.85,21.622 192.85,19.759 L192.85,16.249 C192.85,15.007 192.283,14.17 190.987,14.17 L188.449,14.17 L188.449,22 L185.884,22 L185.884,4.018 L191.095,4.018 C194.011,4.018 195.307,5.476 195.307,8.041 L195.307,10.012 C195.307,11.767 194.713,12.82 192.985,13.171 C194.686,13.441 195.388,14.872 195.388,16.303 L195.388,19.57 C195.388,20.056 195.604,20.272 196.144,20.272 L196.144,22.189 Z M192.742,10.174 L192.742,7.987 C192.742,6.961 192.31,6.232 191.095,6.232 L188.449,6.232 L188.449,12.226 L190.825,12.226 C192.067,12.226 192.742,11.524 192.742,10.174 Z M207.862,17.248 C207.862,20.191 206.242,22.405 202.84,22.405 C199.465,22.405 197.818,20.191 197.818,17.248 L197.818,8.77 C197.818,5.854 199.465,3.64 202.84,3.64 C206.242,3.64 207.862,5.854 207.862,8.77 L207.862,17.248 Z M205.324,17.464 L205.324,8.554 C205.324,7.015 204.514,5.908 202.84,5.908 C201.166,5.908 200.383,7.015 200.383,8.554 L200.383,17.464 C200.383,19.003 201.166,20.11 202.84,20.11 C204.514,20.11 205.324,19.003 205.324,17.464 Z M219.364,6.367 L215.692,6.367 L215.692,22 L213.127,22 L213.127,6.367 L209.428,6.367 L209.428,4.018 L219.364,4.018 L219.364,6.367 Z M236.185,4.018 L232.864,22 L230.38,22 L228.112,9.607 L225.682,22 L223.198,22 L220.039,4.018 L222.631,4.018 L224.521,17.302 L227.059,4.018 L229.381,4.018 L231.703,17.302 L233.674,4.018 L236.185,4.018 Z M240.424,22 L237.859,22 L237.859,4.018 L240.424,4.018 L240.424,22 Z M253.492,22 L251.683,22 L247.228,13.252 L245.716,10.093 L245.716,22 L243.286,22 L243.286,4.018 L245.365,4.018 L249.631,12.928 L251.062,16.087 L251.062,4.018 L253.492,4.018 L253.492,22 Z M265.615,17.518 C265.615,20.488 263.509,22.405 260.674,22.405 C257.704,22.405 255.733,20.461 255.733,17.842 L255.733,16.6 L258.271,16.6 L258.271,17.437 C258.271,19.273 259.108,20.218 260.701,20.218 C262.267,20.218 263.077,19.273 263.077,17.896 C263.077,16.303 262.375,15.304 260.107,13.873 C258.082,12.577 255.949,10.822 255.949,8.23 C255.949,5.665 257.65,3.64 260.701,3.64 C263.617,3.64 265.48,5.557 265.48,8.203 L265.48,9.364 L263.05,9.364 L263.05,8.527 C263.05,7.015 262.321,5.827 260.62,5.827 C259.216,5.827 258.487,6.664 258.487,7.879 C258.487,9.472 259.216,10.309 261.808,11.983 C264.427,13.684 265.615,15.196 265.615,17.518 Z M280.708,22 L272.338,22 L272.338,4.018 L280.708,4.018 L280.708,6.34 L274.876,6.34 L274.876,11.47 L279.088,11.47 L279.088,13.684 L274.876,13.684 L274.876,19.678 L280.708,19.678 L280.708,22 Z M292.858,4.018 L288.511,22 L286.054,22 L281.815,4.018 L284.488,4.018 L287.377,17.923 L290.266,4.018 L292.858,4.018 Z M302.902,22 L294.532,22 L294.532,4.018 L302.902,4.018 L302.902,6.34 L297.07,6.34 L297.07,11.47 L301.282,11.47 L301.282,13.684 L297.07,13.684 L297.07,19.678 L302.902,19.678 L302.902,22 Z M315.322,22 L313.513,22 L309.058,13.252 L307.546,10.093 L307.546,22 L305.116,22 L305.116,4.018 L307.195,4.018 L311.461,12.928 L312.892,16.087 L312.892,4.018 L315.322,4.018 L315.322,22 Z M327.04,6.367 L323.368,6.367 L323.368,22 L320.803,22 L320.803,6.367 L317.104,6.367 L317.104,4.018 L327.04,4.018 L327.04,6.367 Z" id="astrotwins-event"></path>
                <path d="M15.5328,14.7184 C15.5328,17.2528 12.7296,19.48 8.3328,19.48 C3.6096,19.48 0.4416,17.0032 0.4416,12.9904 L0.4416,12.6832 C0.4416,8.4784 4.3008,5.7328 8.8896,5.7328 C11.3472,5.7328 13.1328,6.1744 15.1104,7 L13.8432,10.0912 C12.7104,9.7072 11.3856,9.4192 9.984,9.4192 C7.7568,9.4192 6.2016,10.648 6.2016,12.2992 L6.2016,12.4912 C7.3152,11.4928 8.5632,10.7632 10.7136,10.7632 C13.7088,10.7632 15.5328,12.6064 15.5328,14.6224 L15.5328,14.7184 Z M10.2912,14.296 L10.2912,14.2384 C10.2912,13.5856 9.6768,13.0288 8.4864,13.0288 C7.5264,13.0288 6.8352,13.3936 6.2016,13.912 L6.2016,13.9696 C6.2016,14.8912 7.104,15.64 8.1984,15.64 C9.5232,15.64 10.2912,14.9104 10.2912,14.296 Z M32.5248,10.6864 C32.5248,13.0096 30.7968,15.1216 26.9568,15.1216 L23.3472,15.1216 L23.3472,19 L16.6656,19 L16.6656,6.2128 L26.8032,6.2128 C30.6624,6.2128 32.5248,8.1712 32.5248,10.4944 L32.5248,10.6864 Z M25.7664,11.2624 L25.7664,11.2048 C25.7664,10.4944 25.4592,10.1488 24.4608,10.1488 L23.3472,10.1488 L23.3472,12.3184 L24.4608,12.3184 C25.4592,12.3184 25.7664,11.9344 25.7664,11.2624 Z M56.352,19 L49.9776,19 L49.9776,12.1072 L49.44,13.6816 L47.5776,19 L41.8368,19 L39.9936,13.6816 L39.456,12.1072 L39.456,19 L33.7728,19 L33.7728,6.2128 L43.1808,6.2128 L44.9088,11.224 L45.216,12.2416 L45.5232,11.224 L47.2512,6.2128 L56.352,6.2128 L56.352,19 Z M65.28,14.6416 L57.888,14.6416 L57.888,11.7616 L65.28,11.7616 L65.28,14.6416 Z M81.4272,15.6784 C81.4272,17.752 79.0848,19.48 73.9584,19.48 C68.832,19.48 66.4896,17.752 66.4896,15.6784 L66.4896,15.5632 C66.4896,14.2768 67.6224,13.048 69.9264,12.5104 C68.0448,12.2224 66.8544,11.0704 66.8544,9.784 L66.8544,9.6688 C66.8544,7.7488 68.8512,5.7328 73.9584,5.7328 C79.0464,5.7328 81.0624,7.7488 81.0624,9.6688 L81.0624,9.784 C81.0624,11.0704 79.8528,12.2224 77.9712,12.5104 C80.2944,13.048 81.4272,14.2768 81.4272,15.5632 L81.4272,15.6784 Z M75.5904,10.3984 L75.5904,10.2832 C75.5904,9.7648 75.2064,9.1696 73.9584,9.1696 C72.7104,9.1696 72.3072,9.7648 72.3072,10.2832 L72.3072,10.3984 C72.3072,11.1088 72.9792,11.5504 73.9584,11.5504 C74.9376,11.5504 75.5904,11.1088 75.5904,10.3984 Z M75.5904,14.8912 L75.5904,14.7568 C75.5904,14.1424 75.0528,13.6432 73.9584,13.6432 C72.8448,13.6432 72.3072,14.1424 72.3072,14.7568 L72.3072,14.8912 C72.3072,15.5056 72.768,16.0432 73.9584,16.0432 C75.1296,16.0432 75.5904,15.5056 75.5904,14.8912 Z M98.688,10.6864 C98.688,13.0096 96.96,15.1216 93.12,15.1216 L89.5104,15.1216 L89.5104,19 L82.8288,19 L82.8288,6.2128 L92.9664,6.2128 C96.8256,6.2128 98.688,8.1712 98.688,10.4944 L98.688,10.6864 Z M91.9296,11.2624 L91.9296,11.2048 C91.9296,10.4944 91.6224,10.1488 90.624,10.1488 L89.5104,10.1488 L89.5104,12.3184 L90.624,12.3184 C91.6224,12.3184 91.9296,11.9344 91.9296,11.2624 Z M122.5152,19 L116.1408,19 L116.1408,12.1072 L115.6032,13.6816 L113.7408,19 L108,19 L106.1568,13.6816 L105.6192,12.1072 L105.6192,19 L99.936,19 L99.936,6.2128 L109.344,6.2128 L111.072,11.224 L111.3792,12.2416 L111.6864,11.224 L113.4144,6.2128 L122.5152,6.2128 L122.5152,19 Z" id="6pm-8pm"></path>
            </g>
            <g id="Group-8" transform="translate(1.000000, 78.000000)">
                <path d="M161.287,6.367 L157.615,6.367 L157.615,22 L155.05,22 L155.05,6.367 L151.351,6.367 L151.351,4.018 L161.287,4.018 L161.287,6.367 Z M172.897,17.248 C172.897,20.191 171.277,22.405 167.875,22.405 C164.5,22.405 162.853,20.191 162.853,17.248 L162.853,8.77 C162.853,5.854 164.5,3.64 167.875,3.64 C171.277,3.64 172.897,5.854 172.897,8.77 L172.897,17.248 Z M170.359,17.464 L170.359,8.554 C170.359,7.015 169.549,5.908 167.875,5.908 C166.201,5.908 165.418,7.015 165.418,8.554 L165.418,17.464 C165.418,19.003 166.201,20.11 167.875,20.11 C169.549,20.11 170.359,19.003 170.359,17.464 Z M184.399,6.367 L180.727,6.367 L180.727,22 L178.162,22 L178.162,6.367 L174.463,6.367 L174.463,4.018 L184.399,4.018 L184.399,6.367 Z M195.793,22 L193.201,22 L192.256,17.599 L188.368,17.599 L187.423,22 L184.939,22 L189.016,4.018 L191.716,4.018 L195.793,22 Z M191.797,15.412 L190.312,8.041 L188.827,15.412 L191.797,15.412 Z M205.702,22 L197.467,22 L197.467,4.018 L200.005,4.018 L200.005,19.678 L205.702,19.678 L205.702,22 Z M220.255,6.313 L214.531,6.313 L214.531,11.848 L218.932,11.848 L218.932,14.089 L214.531,14.089 L214.531,22 L211.966,22 L211.966,3.991 L220.255,3.991 L220.255,6.313 Z M232.405,22.189 L231.838,22.189 C229.813,22.189 229.111,21.622 229.111,19.759 L229.111,16.249 C229.111,15.007 228.544,14.17 227.248,14.17 L224.71,14.17 L224.71,22 L222.145,22 L222.145,4.018 L227.356,4.018 C230.272,4.018 231.568,5.476 231.568,8.041 L231.568,10.012 C231.568,11.767 230.974,12.82 229.246,13.171 C230.947,13.441 231.649,14.872 231.649,16.303 L231.649,19.57 C231.649,20.056 231.865,20.272 232.405,20.272 L232.405,22.189 Z M229.003,10.174 L229.003,7.987 C229.003,6.961 228.571,6.232 227.356,6.232 L224.71,6.232 L224.71,12.226 L227.086,12.226 C228.328,12.226 229.003,11.524 229.003,10.174 Z M242.692,22 L234.322,22 L234.322,4.018 L242.692,4.018 L242.692,6.34 L236.86,6.34 L236.86,11.47 L241.072,11.47 L241.072,13.684 L236.86,13.684 L236.86,19.678 L242.692,19.678 L242.692,22 Z M253.303,22 L244.933,22 L244.933,4.018 L253.303,4.018 L253.303,6.34 L247.471,6.34 L247.471,11.47 L251.683,11.47 L251.683,13.684 L247.471,13.684 L247.471,19.678 L253.303,19.678 L253.303,22 Z M265.426,17.14 C265.426,19.921 263.968,22 260.62,22 L255.544,22 L255.544,4.018 L260.62,4.018 C263.968,4.018 265.426,6.097 265.426,8.878 L265.426,17.14 Z M262.888,17.032 L262.888,9.013 C262.888,7.312 262.132,6.367 260.458,6.367 L258.109,6.367 L258.109,19.651 L260.458,19.651 C262.132,19.651 262.888,18.706 262.888,17.032 Z M277.9,17.248 C277.9,20.191 276.28,22.405 272.878,22.405 C269.503,22.405 267.856,20.191 267.856,17.248 L267.856,8.77 C267.856,5.854 269.503,3.64 272.878,3.64 C276.28,3.64 277.9,5.854 277.9,8.77 L277.9,17.248 Z M275.362,17.464 L275.362,8.554 C275.362,7.015 274.552,5.908 272.878,5.908 C271.204,5.908 270.421,7.015 270.421,8.554 L270.421,17.464 C270.421,19.003 271.204,20.11 272.878,20.11 C274.552,20.11 275.362,19.003 275.362,17.464 Z M294.019,22 L291.697,22 L291.697,7.987 L290.968,11.416 L288.511,22 L286,22 L283.597,11.416 L282.841,7.987 L282.841,22 L280.573,22 L280.573,4.018 L284.137,4.018 L286.594,15.25 L287.323,18.679 L288.052,15.223 L290.455,4.018 L294.019,4.018 L294.019,22 Z M299.149,21.649 C299.149,23.35 298.339,24.565 296.449,24.565 L296.449,23.782 C297.394,23.782 297.934,23.107 297.934,22 L296.935,22 L296.935,18.949 L299.149,18.949 L299.149,21.649 Z M162.124,44.653 C162.124,47.272 160.639,49.405 157.237,49.405 C153.835,49.405 152.215,47.056 152.215,44.41 L152.215,35.608 C152.215,32.962 153.835,30.64 157.237,30.64 C160.639,30.64 162.124,32.746 162.124,35.365 L162.124,37.309 L159.829,37.309 L159.829,35.419 C159.829,33.907 158.992,32.908 157.318,32.908 C155.617,32.908 154.78,33.934 154.78,35.311 L154.78,44.707 C154.78,46.084 155.617,47.11 157.318,47.11 C158.992,47.11 159.829,46.138 159.829,44.599 L159.829,42.709 L162.124,42.709 L162.124,44.653 Z M174.652,49 L172.114,49 L172.114,41.116 L167.011,41.116 L167.011,49 L164.446,49 L164.446,31.018 L167.011,31.018 L167.011,38.821 L172.114,38.821 L172.114,31.018 L174.652,31.018 L174.652,49 Z M185.938,49 L177.568,49 L177.568,31.018 L185.938,31.018 L185.938,33.34 L180.106,33.34 L180.106,38.47 L184.318,38.47 L184.318,40.684 L180.106,40.684 L180.106,46.678 L185.938,46.678 L185.938,49 Z M197.008,33.367 L193.336,33.367 L193.336,49 L190.771,49 L190.771,33.367 L187.072,33.367 L187.072,31.018 L197.008,31.018 L197.008,33.367 Z M213.397,49 L210.616,49 L207.214,40.981 L205.783,43.438 L205.783,49 L203.245,49 L203.245,31.018 L205.783,31.018 L205.783,39.766 L210.67,31.018 L213.397,31.018 L208.861,38.74 L213.397,49 Z M217.771,49 L215.206,49 L215.206,31.018 L217.771,31.018 L217.771,49 Z M230.839,49 L229.03,49 L224.575,40.252 L223.063,37.093 L223.063,49 L220.633,49 L220.633,31.018 L222.712,31.018 L226.978,39.928 L228.409,43.087 L228.409,31.018 L230.839,31.018 L230.839,49 Z M243.421,49 L242.152,49 L241.666,47.623 C241.045,48.784 239.776,49.405 238.156,49.405 C235.024,49.405 233.485,47.218 233.485,44.464 L233.485,35.554 C233.485,32.908 235.132,30.64 238.507,30.64 C241.909,30.64 243.313,32.665 243.313,35.554 L243.313,36.607 L240.883,36.607 L240.883,35.257 C240.883,34.042 240.181,32.908 238.507,32.908 C236.833,32.908 236.05,34.096 236.05,35.311 L236.05,44.707 C236.05,45.949 236.806,47.137 238.507,47.137 C240.208,47.137 240.991,45.949 240.991,44.707 L240.991,41.926 L238.588,41.926 L238.588,39.766 L243.421,39.766 L243.421,49 Z M248.173,48.649 C248.173,50.35 247.363,51.565 245.473,51.565 L245.473,50.782 C246.418,50.782 246.958,50.107 246.958,49 L245.959,49 L245.959,45.949 L248.173,45.949 L248.173,48.649 Z M265.372,44.14 C265.372,46.921 263.914,49 260.566,49 L255.49,49 L255.49,31.018 L260.566,31.018 C263.914,31.018 265.372,33.097 265.372,35.878 L265.372,44.14 Z M262.834,44.032 L262.834,36.013 C262.834,34.312 262.078,33.367 260.404,33.367 L258.055,33.367 L258.055,46.651 L260.404,46.651 C262.078,46.651 262.834,45.706 262.834,44.032 Z M276.604,44.41 C276.604,47.326 275.281,49.405 272.041,49.405 C268.963,49.405 267.37,47.65 267.37,44.707 L267.37,41.845 L269.773,41.845 L269.773,44.626 C269.773,46.3 270.529,47.11 271.96,47.11 C273.391,47.11 274.039,46.3 274.039,44.626 L274.039,31.018 L276.604,31.018 L276.604,44.41 Z M293.128,44.518 C293.128,47.488 291.022,49.405 288.187,49.405 C285.217,49.405 283.246,47.461 283.246,44.842 L283.246,43.6 L285.784,43.6 L285.784,44.437 C285.784,46.273 286.621,47.218 288.214,47.218 C289.78,47.218 290.59,46.273 290.59,44.896 C290.59,43.303 289.888,42.304 287.62,40.873 C285.595,39.577 283.462,37.822 283.462,35.23 C283.462,32.665 285.163,30.64 288.214,30.64 C291.13,30.64 292.993,32.557 292.993,35.203 L292.993,36.364 L290.563,36.364 L290.563,35.527 C290.563,34.015 289.834,32.827 288.133,32.827 C286.729,32.827 286,33.664 286,34.879 C286,36.472 286.729,37.309 289.321,38.983 C291.94,40.684 293.128,42.196 293.128,44.518 Z M303.793,49 L295.423,49 L295.423,31.018 L303.793,31.018 L303.793,33.34 L297.961,33.34 L297.961,38.47 L302.173,38.47 L302.173,40.684 L297.961,40.684 L297.961,46.678 L303.793,46.678 L303.793,49 Z M314.863,33.367 L311.191,33.367 L311.191,49 L308.626,49 L308.626,33.367 L304.927,33.367 L304.927,31.018 L314.863,31.018 L314.863,33.367 Z" id="total-freedom,-chet"></path>
                <path d="M15.4752,15.6784 C15.4752,17.752 13.1328,19.48 8.0064,19.48 C2.88,19.48 0.5376,17.752 0.5376,15.6784 L0.5376,15.5632 C0.5376,14.2768 1.6704,13.048 3.9744,12.5104 C2.0928,12.2224 0.9024,11.0704 0.9024,9.784 L0.9024,9.6688 C0.9024,7.7488 2.8992,5.7328 8.0064,5.7328 C13.0944,5.7328 15.1104,7.7488 15.1104,9.6688 L15.1104,9.784 C15.1104,11.0704 13.9008,12.2224 12.0192,12.5104 C14.3424,13.048 15.4752,14.2768 15.4752,15.5632 L15.4752,15.6784 Z M9.6384,10.3984 L9.6384,10.2832 C9.6384,9.7648 9.2544,9.1696 8.0064,9.1696 C6.7584,9.1696 6.3552,9.7648 6.3552,10.2832 L6.3552,10.3984 C6.3552,11.1088 7.0272,11.5504 8.0064,11.5504 C8.9856,11.5504 9.6384,11.1088 9.6384,10.3984 Z M9.6384,14.8912 L9.6384,14.7568 C9.6384,14.1424 9.1008,13.6432 8.0064,13.6432 C6.8928,13.6432 6.3552,14.1424 6.3552,14.7568 L6.3552,14.8912 C6.3552,15.5056 6.816,16.0432 8.0064,16.0432 C9.1776,16.0432 9.6384,15.5056 9.6384,14.8912 Z M32.736,10.6864 C32.736,13.0096 31.008,15.1216 27.168,15.1216 L23.5584,15.1216 L23.5584,19 L16.8768,19 L16.8768,6.2128 L27.0144,6.2128 C30.8736,6.2128 32.736,8.1712 32.736,10.4944 L32.736,10.6864 Z M25.9776,11.2624 L25.9776,11.2048 C25.9776,10.4944 25.6704,10.1488 24.672,10.1488 L23.5584,10.1488 L23.5584,12.3184 L24.672,12.3184 C25.6704,12.3184 25.9776,11.9344 25.9776,11.2624 Z M56.5632,19 L50.1888,19 L50.1888,12.1072 L49.6512,13.6816 L47.7888,19 L42.048,19 L40.2048,13.6816 L39.6672,12.1072 L39.6672,19 L33.984,19 L33.984,6.2128 L43.392,6.2128 L45.12,11.224 L45.4272,12.2416 L45.7344,11.224 L47.4624,6.2128 L56.5632,6.2128 L56.5632,19 Z M65.4912,14.6416 L58.0992,14.6416 L58.0992,11.7616 L65.4912,11.7616 L65.4912,14.6416 Z M72.96,19 L67.0272,19 L67.0272,8.4016 C68.6208,8.4016 69.4464,7.3456 69.4464,6.2128 L72.96,6.2128 L72.96,19 Z M89.5488,12.8944 C89.5488,17.0608 86.3808,19.48 81.888,19.48 C77.376,19.48 74.208,17.0608 74.208,12.8944 L74.208,12.3184 C74.208,8.1136 77.376,5.7328 81.888,5.7328 C86.3808,5.7328 89.5488,8.1136 89.5488,12.3184 L89.5488,12.8944 Z M83.8464,13.0288 L83.8464,12.1456 C83.8464,10.4176 83.136,9.5728 81.888,9.5728 C80.6208,9.5728 79.9104,10.4176 79.9104,12.1456 L79.9104,13.0288 C79.9104,14.7568 80.6208,15.64 81.888,15.64 C83.136,15.64 83.8464,14.7568 83.8464,13.0288 Z M106.656,10.6864 C106.656,13.0096 104.928,15.1216 101.088,15.1216 L97.4784,15.1216 L97.4784,19 L90.7968,19 L90.7968,6.2128 L100.9344,6.2128 C104.7936,6.2128 106.656,8.1712 106.656,10.4944 L106.656,10.6864 Z M99.8976,11.2624 L99.8976,11.2048 C99.8976,10.4944 99.5904,10.1488 98.592,10.1488 L97.4784,10.1488 L97.4784,12.3184 L98.592,12.3184 C99.5904,12.3184 99.8976,11.9344 99.8976,11.2624 Z M130.4832,19 L124.1088,19 L124.1088,12.1072 L123.5712,13.6816 L121.7088,19 L115.968,19 L114.1248,13.6816 L113.5872,12.1072 L113.5872,19 L107.904,19 L107.904,6.2128 L117.312,6.2128 L119.04,11.224 L119.3472,12.2416 L119.6544,11.224 L121.3824,6.2128 L130.4832,6.2128 L130.4832,19 Z" id="8pm-10pm"></path>
            </g>
        </g>
        <path d="M161.936,3.727 L158.264,3.727 L158.264,19.36 L155.699,19.36 L155.699,3.727 L152,3.727 L152,1.378 L161.936,1.378 L161.936,3.727 Z M173.33,19.36 L170.738,19.36 L169.793,14.959 L165.905,14.959 L164.96,19.36 L162.476,19.36 L166.553,1.378 L169.253,1.378 L173.33,19.36 Z M169.334,12.772 L167.849,5.401 L166.364,12.772 L169.334,12.772 Z M185.264,19.549 L184.697,19.549 C182.672,19.549 181.97,18.982 181.97,17.119 L181.97,13.609 C181.97,12.367 181.403,11.53 180.107,11.53 L177.569,11.53 L177.569,19.36 L175.004,19.36 L175.004,1.378 L180.215,1.378 C183.131,1.378 184.427,2.836 184.427,5.401 L184.427,7.372 C184.427,9.127 183.833,10.18 182.105,10.531 C183.806,10.801 184.508,12.232 184.508,13.663 L184.508,16.93 C184.508,17.416 184.724,17.632 185.264,17.632 L185.264,19.549 Z M181.862,7.534 L181.862,5.347 C181.862,4.321 181.43,3.592 180.215,3.592 L177.569,3.592 L177.569,9.586 L179.945,9.586 C181.187,9.586 181.862,8.884 181.862,7.534 Z M196.982,14.608 C196.982,17.551 195.362,19.765 191.96,19.765 C188.585,19.765 186.938,17.551 186.938,14.608 L186.938,6.13 C186.938,3.214 188.585,1 191.96,1 C195.362,1 196.982,3.214 196.982,6.13 L196.982,14.608 Z M194.444,14.824 L194.444,5.914 C194.444,4.375 193.634,3.268 191.96,3.268 C190.286,3.268 189.503,4.375 189.503,5.914 L189.503,14.824 C189.503,16.363 190.286,17.47 191.96,17.47 C193.634,17.47 194.444,16.363 194.444,14.824 Z M208.484,3.727 L204.812,3.727 L204.812,19.36 L202.247,19.36 L202.247,3.727 L198.548,3.727 L198.548,1.378 L208.484,1.378 L208.484,3.727 Z M224.981,19.549 L224.414,19.549 C222.389,19.549 221.687,18.982 221.687,17.119 L221.687,13.609 C221.687,12.367 221.12,11.53 219.824,11.53 L217.286,11.53 L217.286,19.36 L214.721,19.36 L214.721,1.378 L219.932,1.378 C222.848,1.378 224.144,2.836 224.144,5.401 L224.144,7.372 C224.144,9.127 223.55,10.18 221.822,10.531 C223.523,10.801 224.225,12.232 224.225,13.663 L224.225,16.93 C224.225,17.416 224.441,17.632 224.981,17.632 L224.981,19.549 Z M221.579,7.534 L221.579,5.347 C221.579,4.321 221.147,3.592 219.932,3.592 L217.286,3.592 L217.286,9.586 L219.662,9.586 C220.904,9.586 221.579,8.884 221.579,7.534 Z M235.268,19.36 L226.898,19.36 L226.898,1.378 L235.268,1.378 L235.268,3.7 L229.436,3.7 L229.436,8.83 L233.648,8.83 L233.648,11.044 L229.436,11.044 L229.436,17.038 L235.268,17.038 L235.268,19.36 Z M247.094,19.36 L244.502,19.36 L243.557,14.959 L239.669,14.959 L238.724,19.36 L236.24,19.36 L240.317,1.378 L243.017,1.378 L247.094,19.36 Z M243.098,12.772 L241.613,5.401 L240.128,12.772 L243.098,12.772 Z M258.65,14.5 C258.65,17.281 257.192,19.36 253.844,19.36 L248.768,19.36 L248.768,1.378 L253.844,1.378 C257.192,1.378 258.65,3.457 258.65,6.238 L258.65,14.5 Z M256.112,14.392 L256.112,6.373 C256.112,4.672 255.356,3.727 253.682,3.727 L251.333,3.727 L251.333,17.011 L253.682,17.011 C255.356,17.011 256.112,16.066 256.112,14.392 Z M269.693,19.36 L261.323,19.36 L261.323,1.378 L269.693,1.378 L269.693,3.7 L263.861,3.7 L263.861,8.83 L268.073,8.83 L268.073,11.044 L263.861,11.044 L263.861,17.038 L269.693,17.038 L269.693,19.36 Z M282.194,19.549 L281.627,19.549 C279.602,19.549 278.9,18.982 278.9,17.119 L278.9,13.609 C278.9,12.367 278.333,11.53 277.037,11.53 L274.499,11.53 L274.499,19.36 L271.934,19.36 L271.934,1.378 L277.145,1.378 C280.061,1.378 281.357,2.836 281.357,5.401 L281.357,7.372 C281.357,9.127 280.763,10.18 279.035,10.531 C280.736,10.801 281.438,12.232 281.438,13.663 L281.438,16.93 C281.438,17.416 281.654,17.632 282.194,17.632 L282.194,19.549 Z M278.792,7.534 L278.792,5.347 C278.792,4.321 278.36,3.592 277.145,3.592 L274.499,3.592 L274.499,9.586 L276.875,9.586 C278.117,9.586 278.792,8.884 278.792,7.534 Z M293.345,14.878 C293.345,17.848 291.239,19.765 288.404,19.765 C285.434,19.765 283.463,17.821 283.463,15.202 L283.463,13.96 L286.001,13.96 L286.001,14.797 C286.001,16.633 286.838,17.578 288.431,17.578 C289.997,17.578 290.807,16.633 290.807,15.256 C290.807,13.663 290.105,12.664 287.837,11.233 C285.812,9.937 283.679,8.182 283.679,5.59 C283.679,3.025 285.38,1 288.431,1 C291.347,1 293.21,2.917 293.21,5.563 L293.21,6.724 L290.78,6.724 L290.78,5.887 C290.78,4.375 290.051,3.187 288.35,3.187 C286.946,3.187 286.217,4.024 286.217,5.239 C286.217,6.832 286.946,7.669 289.538,9.343 C292.157,11.044 293.345,12.556 293.345,14.878 Z" id="tarot-readers" fill="#000000"></path>
    </g>
</svg>