<?xml version="1.0" encoding="UTF-8"?>
<svg width="420px" height="225px" viewBox="0 0 420 225" version="1.1" xmlns="http://www.w3.org/2000/svg" xmlns:xlink="http://www.w3.org/1999/xlink">
    <!-- Generator: Sketch 49.3 (51167) - http://www.bohemiancoding.com/sketch -->
    <title>saturday-s</title>
    <desc>Created with Sketch.</desc>
    <defs></defs>
    <g id="saturday-s" stroke="none" stroke-width="1" fill="none" fill-rule="evenodd">
        <g id="Group" transform="translate(0.000000, 3.000000)" fill="#000000">
            <g id="Group-2">
                <path d="M18.2784,12.7872 L11.3472,12.7872 L10.5984,10.56 L6.7008,10.56 L5.8368,12.7872 L0,12.7872 L5.6448,0 L12.5184,0 L18.2784,12.7872 Z M9.6384,7.6416 L8.8128,5.2416 L7.872,7.6416 L9.6384,7.6416 Z M33.4656,12.7872 L18.72,12.7872 L18.72,0 L25.4016,0 L25.4016,8.352 L33.4656,8.352 L33.4656,12.7872 Z M49.344,12.7872 L34.5984,12.7872 L34.5984,0 L41.28,0 L41.28,8.352 L49.344,8.352 L49.344,12.7872 Z M72.096,6.4896 C72.096,9.9264 69.1008,12.7872 63.4176,12.7872 L55.2,12.7872 L55.2,0 L63.4176,0 C69.1008,0 72.096,2.8032 72.096,6.2592 L72.096,6.4896 Z M65.2992,6.528 L65.2992,6.2208 C65.2992,4.9344 64.6656,3.8592 62.9376,3.8592 L61.8816,3.8592 L61.8816,8.8896 L62.9376,8.8896 C64.6656,8.8896 65.2992,7.8144 65.2992,6.528 Z M90.2592,12.7872 L83.328,12.7872 L82.5792,10.56 L78.6816,10.56 L77.8176,12.7872 L71.9808,12.7872 L77.6256,0 L84.4992,0 L90.2592,12.7872 Z M81.6192,7.6416 L80.7936,5.2416 L79.8528,7.6416 L81.6192,7.6416 Z M108.3264,0 L102.1632,8.448 L102.1632,12.7872 L95.4816,12.7872 L95.4816,8.448 L89.472,0 L96.864,0 L99.3216,3.7248 L101.6832,0 L108.3264,0 Z" id="ALL-DAY"></path>
            </g>
            <g id="Group-5" transform="translate(0.000000, 50.000000)">
                <path d="M165.854,18.36 L163.262,18.36 L162.317,13.959 L158.429,13.959 L157.484,18.36 L155,18.36 L159.077,0.378 L161.777,0.378 L165.854,18.36 Z M161.858,11.772 L160.373,4.401 L158.888,11.772 L161.858,11.772 Z M176.762,13.878 C176.762,16.848 174.656,18.765 171.821,18.765 C168.851,18.765 166.88,16.821 166.88,14.202 L166.88,12.96 L169.418,12.96 L169.418,13.797 C169.418,15.633 170.255,16.578 171.848,16.578 C173.414,16.578 174.224,15.633 174.224,14.256 C174.224,12.663 173.522,11.664 171.254,10.233 C169.229,8.937 167.096,7.182 167.096,4.59 C167.096,2.025 168.797,0 171.848,0 C174.764,0 176.627,1.917 176.627,4.563 L176.627,5.724 L174.197,5.724 L174.197,4.887 C174.197,3.375 173.468,2.187 171.767,2.187 C170.363,2.187 169.634,3.024 169.634,4.239 C169.634,5.832 170.363,6.669 172.955,8.343 C175.574,10.044 176.762,11.556 176.762,13.878 Z M187.886,2.727 L184.214,2.727 L184.214,18.36 L181.649,18.36 L181.649,2.727 L177.95,2.727 L177.95,0.378 L187.886,0.378 L187.886,2.727 Z M199.955,18.549 L199.388,18.549 C197.363,18.549 196.661,17.982 196.661,16.119 L196.661,12.609 C196.661,11.367 196.094,10.53 194.798,10.53 L192.26,10.53 L192.26,18.36 L189.695,18.36 L189.695,0.378 L194.906,0.378 C197.822,0.378 199.118,1.836 199.118,4.401 L199.118,6.372 C199.118,8.127 198.524,9.18 196.796,9.531 C198.497,9.801 199.199,11.232 199.199,12.663 L199.199,15.93 C199.199,16.416 199.415,16.632 199.955,16.632 L199.955,18.549 Z M196.553,6.534 L196.553,4.347 C196.553,3.321 196.121,2.592 194.906,2.592 L192.26,2.592 L192.26,8.586 L194.636,8.586 C195.878,8.586 196.553,7.884 196.553,6.534 Z M211.673,13.608 C211.673,16.551 210.053,18.765 206.651,18.765 C203.276,18.765 201.629,16.551 201.629,13.608 L201.629,5.13 C201.629,2.214 203.276,0 206.651,0 C210.053,0 211.673,2.214 211.673,5.13 L211.673,13.608 Z M209.135,13.824 L209.135,4.914 C209.135,3.375 208.325,2.268 206.651,2.268 C204.977,2.268 204.194,3.375 204.194,4.914 L204.194,13.824 C204.194,15.363 204.977,16.47 206.651,16.47 C208.325,16.47 209.135,15.363 209.135,13.824 Z M223.175,2.727 L219.503,2.727 L219.503,18.36 L216.938,18.36 L216.938,2.727 L213.239,2.727 L213.239,0.378 L223.175,0.378 L223.175,2.727 Z M239.996,0.378 L236.675,18.36 L234.191,18.36 L231.923,5.967 L229.493,18.36 L227.009,18.36 L223.85,0.378 L226.442,0.378 L228.332,13.662 L230.87,0.378 L233.192,0.378 L235.514,13.662 L237.485,0.378 L239.996,0.378 Z M244.235,18.36 L241.67,18.36 L241.67,0.378 L244.235,0.378 L244.235,18.36 Z M257.303,18.36 L255.494,18.36 L251.039,9.612 L249.527,6.453 L249.527,18.36 L247.097,18.36 L247.097,0.378 L249.176,0.378 L253.442,9.288 L254.873,12.447 L254.873,0.378 L257.303,0.378 L257.303,18.36 Z M269.426,13.878 C269.426,16.848 267.32,18.765 264.485,18.765 C261.515,18.765 259.544,16.821 259.544,14.202 L259.544,12.96 L262.082,12.96 L262.082,13.797 C262.082,15.633 262.919,16.578 264.512,16.578 C266.078,16.578 266.888,15.633 266.888,14.256 C266.888,12.663 266.186,11.664 263.918,10.233 C261.893,8.937 259.76,7.182 259.76,4.59 C259.76,2.025 261.461,0 264.512,0 C267.428,0 269.291,1.917 269.291,4.563 L269.291,5.724 L266.861,5.724 L266.861,4.887 C266.861,3.375 266.132,2.187 264.431,2.187 C263.027,2.187 262.298,3.024 262.298,4.239 C262.298,5.832 263.027,6.669 265.619,8.343 C268.238,10.044 269.426,11.556 269.426,13.878 Z M284.519,18.36 L276.149,18.36 L276.149,0.378 L284.519,0.378 L284.519,2.7 L278.687,2.7 L278.687,7.83 L282.899,7.83 L282.899,10.044 L278.687,10.044 L278.687,16.038 L284.519,16.038 L284.519,18.36 Z M296.669,0.378 L292.322,18.36 L289.865,18.36 L285.626,0.378 L288.299,0.378 L291.188,14.283 L294.077,0.378 L296.669,0.378 Z M306.713,18.36 L298.343,18.36 L298.343,0.378 L306.713,0.378 L306.713,2.7 L300.881,2.7 L300.881,7.83 L305.093,7.83 L305.093,10.044 L300.881,10.044 L300.881,16.038 L306.713,16.038 L306.713,18.36 Z M319.133,18.36 L317.324,18.36 L312.869,9.612 L311.357,6.453 L311.357,18.36 L308.927,18.36 L308.927,0.378 L311.006,0.378 L315.272,9.288 L316.703,12.447 L316.703,0.378 L319.133,0.378 L319.133,18.36 Z M330.851,2.727 L327.179,2.727 L327.179,18.36 L324.614,18.36 L324.614,2.727 L320.915,2.727 L320.915,0.378 L330.851,0.378 L330.851,2.727 Z" id="astrotwins-event"></path>
                <path d="M15.0912,10.9856 C15.0912,13.52 12.288,15.7472 7.8912,15.7472 C3.168,15.7472 0,13.2704 0,9.2576 L0,8.9504 C0,4.7456 3.8592,2 8.448,2 C10.9056,2 12.6912,2.4416 14.6688,3.2672 L13.4016,6.3584 C12.2688,5.9744 10.944,5.6864 9.5424,5.6864 C7.3152,5.6864 5.76,6.9152 5.76,8.5664 L5.76,8.7584 C6.8736,7.76 8.1216,7.0304 10.272,7.0304 C13.2672,7.0304 15.0912,8.8736 15.0912,10.8896 L15.0912,10.9856 Z M9.8496,10.5632 L9.8496,10.5056 C9.8496,9.8528 9.2352,9.296 8.0448,9.296 C7.0848,9.296 6.3936,9.6608 5.76,10.1792 L5.76,10.2368 C5.76,11.1584 6.6624,11.9072 7.7568,11.9072 C9.0816,11.9072 9.8496,11.1776 9.8496,10.5632 Z M32.0832,6.9536 C32.0832,9.2768 30.3552,11.3888 26.5152,11.3888 L22.9056,11.3888 L22.9056,15.2672 L16.224,15.2672 L16.224,2.48 L26.3616,2.48 C30.2208,2.48 32.0832,4.4384 32.0832,6.7616 L32.0832,6.9536 Z M25.3248,7.5296 L25.3248,7.472 C25.3248,6.7616 25.0176,6.416 24.0192,6.416 L22.9056,6.416 L22.9056,8.5856 L24.0192,8.5856 C25.0176,8.5856 25.3248,8.2016 25.3248,7.5296 Z M55.9104,15.2672 L49.536,15.2672 L49.536,8.3744 L48.9984,9.9488 L47.136,15.2672 L41.3952,15.2672 L39.552,9.9488 L39.0144,8.3744 L39.0144,15.2672 L33.3312,15.2672 L33.3312,2.48 L42.7392,2.48 L44.4672,7.4912 L44.7744,8.5088 L45.0816,7.4912 L46.8096,2.48 L55.9104,2.48 L55.9104,15.2672 Z M64.8384,10.9088 L57.4464,10.9088 L57.4464,8.0288 L64.8384,8.0288 L64.8384,10.9088 Z M80.9856,11.9456 C80.9856,14.0192 78.6432,15.7472 73.5168,15.7472 C68.3904,15.7472 66.048,14.0192 66.048,11.9456 L66.048,11.8304 C66.048,10.544 67.1808,9.3152 69.4848,8.7776 C67.6032,8.4896 66.4128,7.3376 66.4128,6.0512 L66.4128,5.936 C66.4128,4.016 68.4096,2 73.5168,2 C78.6048,2 80.6208,4.016 80.6208,5.936 L80.6208,6.0512 C80.6208,7.3376 79.4112,8.4896 77.5296,8.7776 C79.8528,9.3152 80.9856,10.544 80.9856,11.8304 L80.9856,11.9456 Z M75.1488,6.6656 L75.1488,6.5504 C75.1488,6.032 74.7648,5.4368 73.5168,5.4368 C72.2688,5.4368 71.8656,6.032 71.8656,6.5504 L71.8656,6.6656 C71.8656,7.376 72.5376,7.8176 73.5168,7.8176 C74.496,7.8176 75.1488,7.376 75.1488,6.6656 Z M75.1488,11.1584 L75.1488,11.024 C75.1488,10.4096 74.6112,9.9104 73.5168,9.9104 C72.4032,9.9104 71.8656,10.4096 71.8656,11.024 L71.8656,11.1584 C71.8656,11.7728 72.3264,12.3104 73.5168,12.3104 C74.688,12.3104 75.1488,11.7728 75.1488,11.1584 Z M98.2464,6.9536 C98.2464,9.2768 96.5184,11.3888 92.6784,11.3888 L89.0688,11.3888 L89.0688,15.2672 L82.3872,15.2672 L82.3872,2.48 L92.5248,2.48 C96.384,2.48 98.2464,4.4384 98.2464,6.7616 L98.2464,6.9536 Z M91.488,7.5296 L91.488,7.472 C91.488,6.7616 91.1808,6.416 90.1824,6.416 L89.0688,6.416 L89.0688,8.5856 L90.1824,8.5856 C91.1808,8.5856 91.488,8.2016 91.488,7.5296 Z M122.0736,15.2672 L115.6992,15.2672 L115.6992,8.3744 L115.1616,9.9488 L113.2992,15.2672 L107.5584,15.2672 L105.7152,9.9488 L105.1776,8.3744 L105.1776,15.2672 L99.4944,15.2672 L99.4944,2.48 L108.9024,2.48 L110.6304,7.4912 L110.9376,8.5088 L111.2448,7.4912 L112.9728,2.48 L122.0736,2.48 L122.0736,15.2672 Z" id="6pm-8pm"></path>
            </g>
            <g id="Group-8" transform="translate(0.000000, 102.000000)">
                <path d="M164.936,2.727 L161.264,2.727 L161.264,18.36 L158.699,18.36 L158.699,2.727 L155,2.727 L155,0.378 L164.936,0.378 L164.936,2.727 Z M176.546,13.608 C176.546,16.551 174.926,18.765 171.524,18.765 C168.149,18.765 166.502,16.551 166.502,13.608 L166.502,5.13 C166.502,2.214 168.149,0 171.524,0 C174.926,0 176.546,2.214 176.546,5.13 L176.546,13.608 Z M174.008,13.824 L174.008,4.914 C174.008,3.375 173.198,2.268 171.524,2.268 C169.85,2.268 169.067,3.375 169.067,4.914 L169.067,13.824 C169.067,15.363 169.85,16.47 171.524,16.47 C173.198,16.47 174.008,15.363 174.008,13.824 Z M188.048,2.727 L184.376,2.727 L184.376,18.36 L181.811,18.36 L181.811,2.727 L178.112,2.727 L178.112,0.378 L188.048,0.378 L188.048,2.727 Z M199.442,18.36 L196.85,18.36 L195.905,13.959 L192.017,13.959 L191.072,18.36 L188.588,18.36 L192.665,0.378 L195.365,0.378 L199.442,18.36 Z M195.446,11.772 L193.961,4.401 L192.476,11.772 L195.446,11.772 Z M209.351,18.36 L201.116,18.36 L201.116,0.378 L203.654,0.378 L203.654,16.038 L209.351,16.038 L209.351,18.36 Z M223.904,2.673 L218.18,2.673 L218.18,8.208 L222.581,8.208 L222.581,10.449 L218.18,10.449 L218.18,18.36 L215.615,18.36 L215.615,0.351 L223.904,0.351 L223.904,2.673 Z M236.054,18.549 L235.487,18.549 C233.462,18.549 232.76,17.982 232.76,16.119 L232.76,12.609 C232.76,11.367 232.193,10.53 230.897,10.53 L228.359,10.53 L228.359,18.36 L225.794,18.36 L225.794,0.378 L231.005,0.378 C233.921,0.378 235.217,1.836 235.217,4.401 L235.217,6.372 C235.217,8.127 234.623,9.18 232.895,9.531 C234.596,9.801 235.298,11.232 235.298,12.663 L235.298,15.93 C235.298,16.416 235.514,16.632 236.054,16.632 L236.054,18.549 Z M232.652,6.534 L232.652,4.347 C232.652,3.321 232.22,2.592 231.005,2.592 L228.359,2.592 L228.359,8.586 L230.735,8.586 C231.977,8.586 232.652,7.884 232.652,6.534 Z M246.341,18.36 L237.971,18.36 L237.971,0.378 L246.341,0.378 L246.341,2.7 L240.509,2.7 L240.509,7.83 L244.721,7.83 L244.721,10.044 L240.509,10.044 L240.509,16.038 L246.341,16.038 L246.341,18.36 Z M256.952,18.36 L248.582,18.36 L248.582,0.378 L256.952,0.378 L256.952,2.7 L251.12,2.7 L251.12,7.83 L255.332,7.83 L255.332,10.044 L251.12,10.044 L251.12,16.038 L256.952,16.038 L256.952,18.36 Z M269.075,13.5 C269.075,16.281 267.617,18.36 264.269,18.36 L259.193,18.36 L259.193,0.378 L264.269,0.378 C267.617,0.378 269.075,2.457 269.075,5.238 L269.075,13.5 Z M266.537,13.392 L266.537,5.373 C266.537,3.672 265.781,2.727 264.107,2.727 L261.758,2.727 L261.758,16.011 L264.107,16.011 C265.781,16.011 266.537,15.066 266.537,13.392 Z M281.549,13.608 C281.549,16.551 279.929,18.765 276.527,18.765 C273.152,18.765 271.505,16.551 271.505,13.608 L271.505,5.13 C271.505,2.214 273.152,0 276.527,0 C279.929,0 281.549,2.214 281.549,5.13 L281.549,13.608 Z M279.011,13.824 L279.011,4.914 C279.011,3.375 278.201,2.268 276.527,2.268 C274.853,2.268 274.07,3.375 274.07,4.914 L274.07,13.824 C274.07,15.363 274.853,16.47 276.527,16.47 C278.201,16.47 279.011,15.363 279.011,13.824 Z M297.668,18.36 L295.346,18.36 L295.346,4.347 L294.617,7.776 L292.16,18.36 L289.649,18.36 L287.246,7.776 L286.49,4.347 L286.49,18.36 L284.222,18.36 L284.222,0.378 L287.786,0.378 L290.243,11.61 L290.972,15.039 L291.701,11.583 L294.104,0.378 L297.668,0.378 L297.668,18.36 Z M302.798,18.009 C302.798,19.71 301.988,20.925 300.098,20.925 L300.098,20.142 C301.043,20.142 301.583,19.467 301.583,18.36 L300.584,18.36 L300.584,15.309 L302.798,15.309 L302.798,18.009 Z M165.773,41.013 C165.773,43.632 164.288,45.765 160.886,45.765 C157.484,45.765 155.864,43.416 155.864,40.77 L155.864,31.968 C155.864,29.322 157.484,27 160.886,27 C164.288,27 165.773,29.106 165.773,31.725 L165.773,33.669 L163.478,33.669 L163.478,31.779 C163.478,30.267 162.641,29.268 160.967,29.268 C159.266,29.268 158.429,30.294 158.429,31.671 L158.429,41.067 C158.429,42.444 159.266,43.47 160.967,43.47 C162.641,43.47 163.478,42.498 163.478,40.959 L163.478,39.069 L165.773,39.069 L165.773,41.013 Z M178.301,45.36 L175.763,45.36 L175.763,37.476 L170.66,37.476 L170.66,45.36 L168.095,45.36 L168.095,27.378 L170.66,27.378 L170.66,35.181 L175.763,35.181 L175.763,27.378 L178.301,27.378 L178.301,45.36 Z M189.587,45.36 L181.217,45.36 L181.217,27.378 L189.587,27.378 L189.587,29.7 L183.755,29.7 L183.755,34.83 L187.967,34.83 L187.967,37.044 L183.755,37.044 L183.755,43.038 L189.587,43.038 L189.587,45.36 Z M200.657,29.727 L196.985,29.727 L196.985,45.36 L194.42,45.36 L194.42,29.727 L190.721,29.727 L190.721,27.378 L200.657,27.378 L200.657,29.727 Z M217.046,45.36 L214.265,45.36 L210.863,37.341 L209.432,39.798 L209.432,45.36 L206.894,45.36 L206.894,27.378 L209.432,27.378 L209.432,36.126 L214.319,27.378 L217.046,27.378 L212.51,35.1 L217.046,45.36 Z M221.42,45.36 L218.855,45.36 L218.855,27.378 L221.42,27.378 L221.42,45.36 Z M234.488,45.36 L232.679,45.36 L228.224,36.612 L226.712,33.453 L226.712,45.36 L224.282,45.36 L224.282,27.378 L226.361,27.378 L230.627,36.288 L232.058,39.447 L232.058,27.378 L234.488,27.378 L234.488,45.36 Z M247.07,45.36 L245.801,45.36 L245.315,43.983 C244.694,45.144 243.425,45.765 241.805,45.765 C238.673,45.765 237.134,43.578 237.134,40.824 L237.134,31.914 C237.134,29.268 238.781,27 242.156,27 C245.558,27 246.962,29.025 246.962,31.914 L246.962,32.967 L244.532,32.967 L244.532,31.617 C244.532,30.402 243.83,29.268 242.156,29.268 C240.482,29.268 239.699,30.456 239.699,31.671 L239.699,41.067 C239.699,42.309 240.455,43.497 242.156,43.497 C243.857,43.497 244.64,42.309 244.64,41.067 L244.64,38.286 L242.237,38.286 L242.237,36.126 L247.07,36.126 L247.07,45.36 Z M251.822,45.009 C251.822,46.71 251.012,47.925 249.122,47.925 L249.122,47.142 C250.067,47.142 250.607,46.467 250.607,45.36 L249.608,45.36 L249.608,42.309 L251.822,42.309 L251.822,45.009 Z M269.021,40.5 C269.021,43.281 267.563,45.36 264.215,45.36 L259.139,45.36 L259.139,27.378 L264.215,27.378 C267.563,27.378 269.021,29.457 269.021,32.238 L269.021,40.5 Z M266.483,40.392 L266.483,32.373 C266.483,30.672 265.727,29.727 264.053,29.727 L261.704,29.727 L261.704,43.011 L264.053,43.011 C265.727,43.011 266.483,42.066 266.483,40.392 Z M280.253,40.77 C280.253,43.686 278.93,45.765 275.69,45.765 C272.612,45.765 271.019,44.01 271.019,41.067 L271.019,38.205 L273.422,38.205 L273.422,40.986 C273.422,42.66 274.178,43.47 275.609,43.47 C277.04,43.47 277.688,42.66 277.688,40.986 L277.688,27.378 L280.253,27.378 L280.253,40.77 Z M296.777,40.878 C296.777,43.848 294.671,45.765 291.836,45.765 C288.866,45.765 286.895,43.821 286.895,41.202 L286.895,39.96 L289.433,39.96 L289.433,40.797 C289.433,42.633 290.27,43.578 291.863,43.578 C293.429,43.578 294.239,42.633 294.239,41.256 C294.239,39.663 293.537,38.664 291.269,37.233 C289.244,35.937 287.111,34.182 287.111,31.59 C287.111,29.025 288.812,27 291.863,27 C294.779,27 296.642,28.917 296.642,31.563 L296.642,32.724 L294.212,32.724 L294.212,31.887 C294.212,30.375 293.483,29.187 291.782,29.187 C290.378,29.187 289.649,30.024 289.649,31.239 C289.649,32.832 290.378,33.669 292.97,35.343 C295.589,37.044 296.777,38.556 296.777,40.878 Z M307.442,45.36 L299.072,45.36 L299.072,27.378 L307.442,27.378 L307.442,29.7 L301.61,29.7 L301.61,34.83 L305.822,34.83 L305.822,37.044 L301.61,37.044 L301.61,43.038 L307.442,43.038 L307.442,45.36 Z M318.512,29.727 L314.84,29.727 L314.84,45.36 L312.275,45.36 L312.275,29.727 L308.576,29.727 L308.576,27.378 L318.512,27.378 L318.512,29.727 Z" id="total-freedom,-chet"></path>
                <path d="M14.9376,11.9456 C14.9376,14.0192 12.5952,15.7472 7.4688,15.7472 C2.3424,15.7472 0,14.0192 0,11.9456 L0,11.8304 C0,10.544 1.1328,9.3152 3.4368,8.7776 C1.5552,8.4896 0.3648,7.3376 0.3648,6.0512 L0.3648,5.936 C0.3648,4.016 2.3616,2 7.4688,2 C12.5568,2 14.5728,4.016 14.5728,5.936 L14.5728,6.0512 C14.5728,7.3376 13.3632,8.4896 11.4816,8.7776 C13.8048,9.3152 14.9376,10.544 14.9376,11.8304 L14.9376,11.9456 Z M9.1008,6.6656 L9.1008,6.5504 C9.1008,6.032 8.7168,5.4368 7.4688,5.4368 C6.2208,5.4368 5.8176,6.032 5.8176,6.5504 L5.8176,6.6656 C5.8176,7.376 6.4896,7.8176 7.4688,7.8176 C8.448,7.8176 9.1008,7.376 9.1008,6.6656 Z M9.1008,11.1584 L9.1008,11.024 C9.1008,10.4096 8.5632,9.9104 7.4688,9.9104 C6.3552,9.9104 5.8176,10.4096 5.8176,11.024 L5.8176,11.1584 C5.8176,11.7728 6.2784,12.3104 7.4688,12.3104 C8.64,12.3104 9.1008,11.7728 9.1008,11.1584 Z M32.1984,6.9536 C32.1984,9.2768 30.4704,11.3888 26.6304,11.3888 L23.0208,11.3888 L23.0208,15.2672 L16.3392,15.2672 L16.3392,2.48 L26.4768,2.48 C30.336,2.48 32.1984,4.4384 32.1984,6.7616 L32.1984,6.9536 Z M25.44,7.5296 L25.44,7.472 C25.44,6.7616 25.1328,6.416 24.1344,6.416 L23.0208,6.416 L23.0208,8.5856 L24.1344,8.5856 C25.1328,8.5856 25.44,8.2016 25.44,7.5296 Z M56.0256,15.2672 L49.6512,15.2672 L49.6512,8.3744 L49.1136,9.9488 L47.2512,15.2672 L41.5104,15.2672 L39.6672,9.9488 L39.1296,8.3744 L39.1296,15.2672 L33.4464,15.2672 L33.4464,2.48 L42.8544,2.48 L44.5824,7.4912 L44.8896,8.5088 L45.1968,7.4912 L46.9248,2.48 L56.0256,2.48 L56.0256,15.2672 Z M64.9536,10.9088 L57.5616,10.9088 L57.5616,8.0288 L64.9536,8.0288 L64.9536,10.9088 Z M72.4224,15.2672 L66.4896,15.2672 L66.4896,4.6688 C68.0832,4.6688 68.9088,3.6128 68.9088,2.48 L72.4224,2.48 L72.4224,15.2672 Z M89.0112,9.1616 C89.0112,13.328 85.8432,15.7472 81.3504,15.7472 C76.8384,15.7472 73.6704,13.328 73.6704,9.1616 L73.6704,8.5856 C73.6704,4.3808 76.8384,2 81.3504,2 C85.8432,2 89.0112,4.3808 89.0112,8.5856 L89.0112,9.1616 Z M83.3088,9.296 L83.3088,8.4128 C83.3088,6.6848 82.5984,5.84 81.3504,5.84 C80.0832,5.84 79.3728,6.6848 79.3728,8.4128 L79.3728,9.296 C79.3728,11.024 80.0832,11.9072 81.3504,11.9072 C82.5984,11.9072 83.3088,11.024 83.3088,9.296 Z M106.1184,6.9536 C106.1184,9.2768 104.3904,11.3888 100.5504,11.3888 L96.9408,11.3888 L96.9408,15.2672 L90.2592,15.2672 L90.2592,2.48 L100.3968,2.48 C104.256,2.48 106.1184,4.4384 106.1184,6.7616 L106.1184,6.9536 Z M99.36,7.5296 L99.36,7.472 C99.36,6.7616 99.0528,6.416 98.0544,6.416 L96.9408,6.416 L96.9408,8.5856 L98.0544,8.5856 C99.0528,8.5856 99.36,8.2016 99.36,7.5296 Z M129.9456,15.2672 L123.5712,15.2672 L123.5712,8.3744 L123.0336,9.9488 L121.1712,15.2672 L115.4304,15.2672 L113.5872,9.9488 L113.0496,8.3744 L113.0496,15.2672 L107.3664,15.2672 L107.3664,2.48 L116.7744,2.48 L118.5024,7.4912 L118.8096,8.5088 L119.1168,7.4912 L120.8448,2.48 L129.9456,2.48 L129.9456,15.2672 Z" id="8pm-10pm"></path>
            </g>
        </g>
        <path d="M164.936,3.727 L161.264,3.727 L161.264,19.36 L158.699,19.36 L158.699,3.727 L155,3.727 L155,1.378 L164.936,1.378 L164.936,3.727 Z M176.33,19.36 L173.738,19.36 L172.793,14.959 L168.905,14.959 L167.96,19.36 L165.476,19.36 L169.553,1.378 L172.253,1.378 L176.33,19.36 Z M172.334,12.772 L170.849,5.401 L169.364,12.772 L172.334,12.772 Z M188.264,19.549 L187.697,19.549 C185.672,19.549 184.97,18.982 184.97,17.119 L184.97,13.609 C184.97,12.367 184.403,11.53 183.107,11.53 L180.569,11.53 L180.569,19.36 L178.004,19.36 L178.004,1.378 L183.215,1.378 C186.131,1.378 187.427,2.836 187.427,5.401 L187.427,7.372 C187.427,9.127 186.833,10.18 185.105,10.531 C186.806,10.801 187.508,12.232 187.508,13.663 L187.508,16.93 C187.508,17.416 187.724,17.632 188.264,17.632 L188.264,19.549 Z M184.862,7.534 L184.862,5.347 C184.862,4.321 184.43,3.592 183.215,3.592 L180.569,3.592 L180.569,9.586 L182.945,9.586 C184.187,9.586 184.862,8.884 184.862,7.534 Z M199.982,14.608 C199.982,17.551 198.362,19.765 194.96,19.765 C191.585,19.765 189.938,17.551 189.938,14.608 L189.938,6.13 C189.938,3.214 191.585,1 194.96,1 C198.362,1 199.982,3.214 199.982,6.13 L199.982,14.608 Z M197.444,14.824 L197.444,5.914 C197.444,4.375 196.634,3.268 194.96,3.268 C193.286,3.268 192.503,4.375 192.503,5.914 L192.503,14.824 C192.503,16.363 193.286,17.47 194.96,17.47 C196.634,17.47 197.444,16.363 197.444,14.824 Z M211.484,3.727 L207.812,3.727 L207.812,19.36 L205.247,19.36 L205.247,3.727 L201.548,3.727 L201.548,1.378 L211.484,1.378 L211.484,3.727 Z M227.981,19.549 L227.414,19.549 C225.389,19.549 224.687,18.982 224.687,17.119 L224.687,13.609 C224.687,12.367 224.12,11.53 222.824,11.53 L220.286,11.53 L220.286,19.36 L217.721,19.36 L217.721,1.378 L222.932,1.378 C225.848,1.378 227.144,2.836 227.144,5.401 L227.144,7.372 C227.144,9.127 226.55,10.18 224.822,10.531 C226.523,10.801 227.225,12.232 227.225,13.663 L227.225,16.93 C227.225,17.416 227.441,17.632 227.981,17.632 L227.981,19.549 Z M224.579,7.534 L224.579,5.347 C224.579,4.321 224.147,3.592 222.932,3.592 L220.286,3.592 L220.286,9.586 L222.662,9.586 C223.904,9.586 224.579,8.884 224.579,7.534 Z M238.268,19.36 L229.898,19.36 L229.898,1.378 L238.268,1.378 L238.268,3.7 L232.436,3.7 L232.436,8.83 L236.648,8.83 L236.648,11.044 L232.436,11.044 L232.436,17.038 L238.268,17.038 L238.268,19.36 Z M250.094,19.36 L247.502,19.36 L246.557,14.959 L242.669,14.959 L241.724,19.36 L239.24,19.36 L243.317,1.378 L246.017,1.378 L250.094,19.36 Z M246.098,12.772 L244.613,5.401 L243.128,12.772 L246.098,12.772 Z M261.65,14.5 C261.65,17.281 260.192,19.36 256.844,19.36 L251.768,19.36 L251.768,1.378 L256.844,1.378 C260.192,1.378 261.65,3.457 261.65,6.238 L261.65,14.5 Z M259.112,14.392 L259.112,6.373 C259.112,4.672 258.356,3.727 256.682,3.727 L254.333,3.727 L254.333,17.011 L256.682,17.011 C258.356,17.011 259.112,16.066 259.112,14.392 Z M272.693,19.36 L264.323,19.36 L264.323,1.378 L272.693,1.378 L272.693,3.7 L266.861,3.7 L266.861,8.83 L271.073,8.83 L271.073,11.044 L266.861,11.044 L266.861,17.038 L272.693,17.038 L272.693,19.36 Z M285.194,19.549 L284.627,19.549 C282.602,19.549 281.9,18.982 281.9,17.119 L281.9,13.609 C281.9,12.367 281.333,11.53 280.037,11.53 L277.499,11.53 L277.499,19.36 L274.934,19.36 L274.934,1.378 L280.145,1.378 C283.061,1.378 284.357,2.836 284.357,5.401 L284.357,7.372 C284.357,9.127 283.763,10.18 282.035,10.531 C283.736,10.801 284.438,12.232 284.438,13.663 L284.438,16.93 C284.438,17.416 284.654,17.632 285.194,17.632 L285.194,19.549 Z M281.792,7.534 L281.792,5.347 C281.792,4.321 281.36,3.592 280.145,3.592 L277.499,3.592 L277.499,9.586 L279.875,9.586 C281.117,9.586 281.792,8.884 281.792,7.534 Z M296.345,14.878 C296.345,17.848 294.239,19.765 291.404,19.765 C288.434,19.765 286.463,17.821 286.463,15.202 L286.463,13.96 L289.001,13.96 L289.001,14.797 C289.001,16.633 289.838,17.578 291.431,17.578 C292.997,17.578 293.807,16.633 293.807,15.256 C293.807,13.663 293.105,12.664 290.837,11.233 C288.812,9.937 286.679,8.182 286.679,5.59 C286.679,3.025 288.38,1 291.431,1 C294.347,1 296.21,2.917 296.21,5.563 L296.21,6.724 L293.78,6.724 L293.78,5.887 C293.78,4.375 293.051,3.187 291.35,3.187 C289.946,3.187 289.217,4.024 289.217,5.239 C289.217,6.832 289.946,7.669 292.538,9.343 C295.157,11.044 296.345,12.556 296.345,14.878 Z" id="tarot-readers" fill="#000000"></path>
    </g>
</svg>