<svg height="51" viewBox="0 0 503 51" width="503" xmlns="http://www.w3.org/2000/svg"><path d="m60.99 33.46c0 10.5-9.45 17.29-30.45 17.29-11.2 0-23.1-2.87-29.82-6.86l6.58-11.27c8.96 3.71 17.64 5.18 23.52 5.18 4.06 0 6.51-.77 6.51-2.03 0-4.48-34.65-1.12-34.65-18.9 0-8.89 9.8-16.24 28.91-16.24 13.16 0 23.8 3.22 28.77 5.95l-7.07 10.71c-7.77-2.38-15.05-3.71-20.02-3.71-3.36 0-5.46.63-5.46 1.96 0 4.97 33.18.77 33.18 17.92zm62.760973 9.31c-6.02 5.04-15.12 7.98-25.8299997 7.98-20.44 0-33.74-10.22-33.74-24.78v-.56c0-14.56 13.3-24.78 33.74-24.78 10.7099997 0 21.0699997 3.36 26.5999997 7.98l-9.1 11.55c-3.78-2.45-8.89-4.13-13.93-4.13-7.0699997 0-12.4599997 3.78-12.4599997 9.52v.28c0 5.74 5.39 9.52 12.4599997 9.52 5.39 0 10.99-2.03 13.93-4.13zm66.120974 6.23h-24.43v-16.17h-12.32v16.17h-24.36v-46.62h24.36v17.5h12.32v-17.5h24.43zm60.520973 0h-53.41v-46.62h53.41v14.91h-29.05v4.41h18.2v7.14h-18.2v3.99h29.05zm67.030973-22.96c0 12.53-10.92 22.96-31.64 22.96h-29.96v-46.62h29.96c20.72 0 31.64 10.22 31.64 22.82zm-24.78.14v-1.12c0-4.69-2.31-8.61-8.61-8.61h-3.85v18.34h3.85c6.3 0 8.61-3.92 8.61-8.61zm90.760973 2.8c0 12.18-8.26 21.77-30.31 21.77-21.98 0-30.66-9.59-30.66-21.77v-26.6h24.36v24.85c0 5.81 1.75 8.33 7.56 8.33s7.42-2.52 7.42-8.33v-24.85h21.63zm60.520974 20.02h-53.76v-46.62h24.36v30.45h29.4zm58.350973 0h-53.41v-46.62h53.41v14.91h-29.05v4.41h18.2v7.14h-18.2v3.99h29.05z" fill-rule="evenodd"/></svg>