<?xml version="1.0" encoding="UTF-8"?>
<svg width="502px" height="94px" viewBox="0 0 502 94" version="1.1" xmlns="http://www.w3.org/2000/svg" xmlns:xlink="http://www.w3.org/1999/xlink">
    <!-- Generator: Sketch 49.3 (51167) - http://www.bohemiancoding.com/sketch -->
    <title>Group 11</title>
    <desc>Created with Sketch.</desc>
    <defs></defs>
    <g id="Page-1" stroke="none" stroke-width="1" fill="none" fill-rule="evenodd">
        <g id="Group-11" fill="#000000">
            <path d="M173.41,84.54 C173.41,90.03 169.54,93.48 162.46,93.48 C158.23,93.48 154.18,92.37 151,90.3 L153.94,84.39 C156.13,85.47 158.35,86.22 160.48,86.22 C162.28,86.22 162.97,85.38 162.97,83.76 L162.97,72.75 L173.41,72.75 L173.41,84.54 Z M202.28756,84.15 C202.28756,89.37 198.74756,93.48 189.29756,93.48 C179.87756,93.48 176.15756,89.37 176.15756,84.15 L176.15756,72.75 L186.59756,72.75 L186.59756,83.4 C186.59756,85.89 187.34756,86.97 189.83756,86.97 C192.32756,86.97 193.01756,85.89 193.01756,83.4 L193.01756,72.75 L202.28756,72.75 L202.28756,84.15 Z M231.22512,92.73 L222.28512,92.73 L215.29512,85.8 L214.54512,84.93 L214.54512,92.73 L205.18512,92.73 L205.18512,72.75 L213.64512,72.75 L221.14512,79.74 L221.83512,80.49 L221.83512,72.75 L231.22512,72.75 L231.22512,92.73 Z M257.162681,92.73 L234.272681,92.73 L234.272681,72.75 L257.162681,72.75 L257.162681,79.14 L244.712681,79.14 L244.712681,81.03 L252.512681,81.03 L252.512681,84.09 L244.712681,84.09 L244.712681,85.8 L257.162681,85.8 L257.162681,92.73 Z M276.787801,92.73 L267.517801,92.73 L267.517801,76.17 C270.007801,76.17 271.297801,74.52 271.297801,72.75 L276.787801,72.75 L276.787801,92.73 Z M300.325361,78.36 C300.325361,82.14 296.005361,84.27 288.895361,86.7 L300.415361,86.7 L300.415361,92.73 L278.635361,92.73 L278.635361,90.48 C278.635361,82.47 291.685361,82.53 291.685361,79.5 C291.685361,78.63 290.755361,78 288.655361,78 C286.405361,78 283.585361,78.78 280.915361,79.92 L278.875361,74.34 C282.415361,72.81 285.475361,72 289.975361,72 C296.125361,72 300.325361,74.88 300.325361,78.36 Z M314.172921,85.92 L302.622921,85.92 L302.622921,81.42 L314.172921,81.42 L314.172921,85.92 Z M326.190482,92.73 L316.920482,92.73 L316.920482,76.17 C319.410482,76.17 320.700482,74.52 320.700482,72.75 L326.190482,72.75 L326.190482,92.73 Z M349.878042,77.1 C344.868042,81.96 341.778042,86.34 340.338042,92.73 L330.468042,92.73 C332.208042,87.12 336.528042,81.78 341.508042,78.9 L328.248042,78.9 L328.248042,72.75 L349.878042,72.75 L349.878042,77.1 Z" id="JUNE-12-17"></path>
            <path d="M60.27,32.83 C60.27,43.33 50.82,50.12 29.82,50.12 C18.62,50.12 6.72,47.25 0,43.26 L6.58,31.99 C15.54,35.7 24.22,37.17 30.1,37.17 C34.16,37.17 36.61,36.4 36.61,35.14 C36.61,30.66 1.96,34.02 1.96,16.24 C1.96,7.35 11.76,0 30.87,0 C44.03,0 54.67,3.22 59.64,5.95 L52.57,16.66 C44.8,14.28 37.52,12.95 32.55,12.95 C29.19,12.95 27.09,13.58 27.09,14.91 C27.09,19.88 60.27,15.68 60.27,32.83 Z M123.030973,42.14 C117.010973,47.18 107.910973,50.12 97.2009733,50.12 C76.7609733,50.12 63.4609733,39.9 63.4609733,25.34 L63.4609733,24.78 C63.4609733,10.22 76.7609733,0 97.2009733,0 C107.910973,0 118.270973,3.36 123.800973,7.98 L114.700973,19.53 C110.920973,17.08 105.810973,15.4 100.770973,15.4 C93.7009733,15.4 88.3109733,19.18 88.3109733,24.92 L88.3109733,25.2 C88.3109733,30.94 93.7009733,34.72 100.770973,34.72 C106.160973,34.72 111.760973,32.69 114.700973,30.59 L123.030973,42.14 Z M189.151947,48.37 L164.721947,48.37 L164.721947,32.2 L152.401947,32.2 L152.401947,48.37 L128.041947,48.37 L128.041947,1.75 L152.401947,1.75 L152.401947,19.25 L164.721947,19.25 L164.721947,1.75 L189.151947,1.75 L189.151947,48.37 Z M249.67292,48.37 L196.26292,48.37 L196.26292,1.75 L249.67292,1.75 L249.67292,16.66 L220.62292,16.66 L220.62292,21.07 L238.82292,21.07 L238.82292,28.21 L220.62292,28.21 L220.62292,32.2 L249.67292,32.2 L249.67292,48.37 Z M316.703893,25.41 C316.703893,37.94 305.783893,48.37 285.063893,48.37 L255.103893,48.37 L255.103893,1.75 L285.063893,1.75 C305.783893,1.75 316.703893,11.97 316.703893,24.57 L316.703893,25.41 Z M291.923893,25.55 L291.923893,24.43 C291.923893,19.74 289.613893,15.82 283.313893,15.82 L279.463893,15.82 L279.463893,34.16 L283.313893,34.16 C289.613893,34.16 291.923893,30.24 291.923893,25.55 Z M382.684866,28.35 C382.684866,40.53 374.424866,50.12 352.374866,50.12 C330.394866,50.12 321.714866,40.53 321.714866,28.35 L321.714866,1.75 L346.074866,1.75 L346.074866,26.6 C346.074866,32.41 347.824866,34.93 353.634866,34.93 C359.444866,34.93 361.054866,32.41 361.054866,26.6 L361.054866,1.75 L382.684866,1.75 L382.684866,28.35 Z M443.20584,48.37 L389.44584,48.37 L389.44584,1.75 L413.80584,1.75 L413.80584,32.2 L443.20584,32.2 L443.20584,48.37 Z M501.556813,48.37 L448.146813,48.37 L448.146813,1.75 L501.556813,1.75 L501.556813,16.66 L472.506813,16.66 L472.506813,21.07 L490.706813,21.07 L490.706813,28.21 L472.506813,28.21 L472.506813,32.2 L501.556813,32.2 L501.556813,48.37 Z" id="schedule"></path>
        </g>
    </g>
</svg>