<?xml version="1.0" encoding="UTF-8"?>
<svg width="420px" height="45px" viewBox="0 0 420 45" version="1.1" xmlns="http://www.w3.org/2000/svg" xmlns:xlink="http://www.w3.org/1999/xlink">
    <!-- Generator: Sketch 49.3 (51167) - http://www.bohemiancoding.com/sketch -->
    <title>June 12</title>
    <desc>Created with Sketch.</desc>
    <defs></defs>
    <g id="Page-1" stroke="none" stroke-width="1" fill="none" fill-rule="evenodd">
        <g id="Calendar" transform="translate(-1227.000000, -615.000000)">
            <g id="June-12" transform="translate(1227.000000, 615.000000)">
                <rect id="Rectangle-Copy-7" fill="#000000" x="0" y="0" width="420" height="45"></rect>
                <path d="M294.116,28.5 L288.554,28.5 L288.554,18.564 C290.048,18.564 290.822,17.574 290.822,16.512 L294.116,16.512 L294.116,28.5 Z M309.668,22.776 C309.668,26.682 306.698,28.95 302.486,28.95 C298.256,28.95 295.286,26.682 295.286,22.776 L295.286,22.236 C295.286,18.294 298.256,16.062 302.486,16.062 C306.698,16.062 309.668,18.294 309.668,22.236 L309.668,22.776 Z M304.322,22.902 L304.322,22.074 C304.322,20.454 303.656,19.662 302.486,19.662 C301.298,19.662 300.632,20.454 300.632,22.074 L300.632,22.902 C300.632,24.522 301.298,25.35 302.486,25.35 C303.656,25.35 304.322,24.522 304.322,22.902 Z M326.696,28.5 L320.198,28.5 L319.496,26.412 L315.842,26.412 L315.032,28.5 L309.56,28.5 L314.852,16.512 L321.296,16.512 L326.696,28.5 Z M318.596,23.676 L317.822,21.426 L316.94,23.676 L318.596,23.676 Z M348.278,28.5 L342.302,28.5 L342.302,22.038 L341.798,23.514 L340.052,28.5 L334.67,28.5 L332.942,23.514 L332.438,22.038 L332.438,28.5 L327.11,28.5 L327.11,16.512 L335.93,16.512 L337.55,21.21 L337.838,22.164 L338.126,21.21 L339.746,16.512 L348.278,16.512 L348.278,28.5 Z M356.648,24.414 L349.718,24.414 L349.718,21.714 L356.648,21.714 L356.648,24.414 Z M370.742,25.422 C370.742,27.222 368.15,28.95 363.992,28.95 C361.706,28.95 359.474,28.464 357.278,27.6 L358.466,24.288 C360.104,24.972 361.85,25.458 363.326,25.458 C364.586,25.458 365.18,25.116 365.18,24.576 L365.18,24.522 C365.18,23.946 364.55,23.64 363.47,23.64 L362.246,23.64 L362.246,21.372 L363.524,21.372 C364.532,21.372 365.18,21.03 365.18,20.49 L365.18,20.436 C365.18,19.932 364.568,19.554 363.326,19.554 C361.724,19.554 360.392,20.004 358.988,20.724 L357.8,17.412 C359.978,16.458 361.4,16.062 364.298,16.062 C368.33,16.062 370.562,17.826 370.562,19.5 L370.562,19.59 C370.562,20.778 369.626,22.182 366.512,22.416 C369.968,22.758 370.742,24.126 370.742,25.314 L370.742,25.422 Z M386.852,20.706 C386.852,22.884 385.232,24.864 381.632,24.864 L378.248,24.864 L378.248,28.5 L371.984,28.5 L371.984,16.512 L381.488,16.512 C385.106,16.512 386.852,18.348 386.852,20.526 L386.852,20.706 Z M380.516,21.246 L380.516,21.192 C380.516,20.526 380.228,20.202 379.292,20.202 L378.248,20.202 L378.248,22.236 L379.292,22.236 C380.228,22.236 380.516,21.876 380.516,21.246 Z M409.19,28.5 L403.214,28.5 L403.214,22.038 L402.71,23.514 L400.964,28.5 L395.582,28.5 L393.854,23.514 L393.35,22.038 L393.35,28.5 L388.022,28.5 L388.022,16.512 L396.842,16.512 L398.462,21.21 L398.75,22.164 L399.038,21.21 L400.658,16.512 L409.19,16.512 L409.19,28.5 Z" id="10am-3PM" fill="#FFFFFF"></path>
                <path d="M29.188,23.902 C29.188,28.66 25.834,31.65 19.698,31.65 C16.032,31.65 12.522,30.688 9.766,28.894 L12.314,23.772 C14.212,24.708 16.136,25.358 17.982,25.358 C19.542,25.358 20.14,24.63 20.14,23.226 L20.14,13.684 L29.188,13.684 L29.188,23.902 Z M54.2152188,23.564 C54.2152188,28.088 51.1472188,31.65 42.9572188,31.65 C34.7932188,31.65 31.5692188,28.088 31.5692188,23.564 L31.5692188,13.684 L40.6172188,13.684 L40.6172188,22.914 C40.6172188,25.072 41.2672188,26.008 43.4252188,26.008 C45.5832188,26.008 46.1812188,25.072 46.1812188,22.914 L46.1812188,13.684 L54.2152188,13.684 L54.2152188,23.564 Z M79.2944376,31 L71.5464376,31 L65.4884376,24.994 L64.8384376,24.24 L64.8384376,31 L56.7264376,31 L56.7264376,13.684 L64.0584376,13.684 L70.5584376,19.742 L71.1564376,20.392 L71.1564376,13.684 L79.2944376,13.684 L79.2944376,31 Z M101.773656,31 L81.9356564,31 L81.9356564,13.684 L101.773656,13.684 L101.773656,19.222 L90.9836564,19.222 L90.9836564,20.86 L97.7436564,20.86 L97.7436564,23.512 L90.9836564,23.512 L90.9836564,24.994 L101.773656,24.994 L101.773656,31 Z M118.782094,31 L110.748094,31 L110.748094,16.648 C112.906094,16.648 114.024094,15.218 114.024094,13.684 L118.782094,13.684 L118.782094,31 Z M139.311313,17.454 C134.969313,21.666 132.291313,25.462 131.043313,31 L122.489313,31 C123.997313,26.138 127.741313,21.51 132.057313,19.014 L120.565313,19.014 L120.565313,13.684 L139.311313,13.684 L139.311313,17.454 Z" id="june-17" fill="#FFFFFF"></path>
            </g>
        </g>
    </g>
</svg>