<?xml version="1.0" encoding="UTF-8"?>
<svg width="410px" height="27px" viewBox="0 0 410 27" version="1.1" xmlns="http://www.w3.org/2000/svg" xmlns:xlink="http://www.w3.org/1999/xlink">
    <!-- Generator: Sketch 49.3 (51167) - http://www.bohemiancoding.com/sketch -->
    <title>sunday-m</title>
    <desc>Created with Sketch.</desc>
    <defs></defs>
    <g id="sunday-m" stroke="none" stroke-width="1" fill="none" fill-rule="evenodd">
        <g id="Group-2" transform="translate(-1.000000, 3.000000)" fill="#000000">
            <path d="M18.7792,13 L11.848,13 L11.0992,10.7728 L7.2016,10.7728 L6.3376,13 L0.5008,13 L6.1456,0.2128 L13.0192,0.2128 L18.7792,13 Z M10.1392,7.8544 L9.3136,5.4544 L8.3728,7.8544 L10.1392,7.8544 Z M33.9664,13 L19.2208,13 L19.2208,0.2128 L25.9024,0.2128 L25.9024,8.5648 L33.9664,8.5648 L33.9664,13 Z M49.8448,13 L35.0992,13 L35.0992,0.2128 L41.7808,0.2128 L41.7808,8.5648 L49.8448,8.5648 L49.8448,13 Z M72.5968,6.7024 C72.5968,10.1392 69.6016,13 63.9184,13 L55.7008,13 L55.7008,0.2128 L63.9184,0.2128 C69.6016,0.2128 72.5968,3.016 72.5968,6.472 L72.5968,6.7024 Z M65.8,6.7408 L65.8,6.4336 C65.8,5.1472 65.1664,4.072 63.4384,4.072 L62.3824,4.072 L62.3824,9.1024 L63.4384,9.1024 C65.1664,9.1024 65.8,8.0272 65.8,6.7408 Z M90.76,13 L83.8288,13 L83.08,10.7728 L79.1824,10.7728 L78.3184,13 L72.4816,13 L78.1264,0.2128 L85,0.2128 L90.76,13 Z M82.12,7.8544 L81.2944,5.4544 L80.3536,7.8544 L82.12,7.8544 Z M108.8272,0.2128 L102.664,8.6608 L102.664,13 L95.9824,13 L95.9824,8.6608 L89.9728,0.2128 L97.3648,0.2128 L99.8224,3.9376 L102.184,0.2128 L108.8272,0.2128 Z" id="ALL-DAY"></path>
        </g>
        <path d="M161.936,3.727 L158.264,3.727 L158.264,19.36 L155.699,19.36 L155.699,3.727 L152,3.727 L152,1.378 L161.936,1.378 L161.936,3.727 Z M173.33,19.36 L170.738,19.36 L169.793,14.959 L165.905,14.959 L164.96,19.36 L162.476,19.36 L166.553,1.378 L169.253,1.378 L173.33,19.36 Z M169.334,12.772 L167.849,5.401 L166.364,12.772 L169.334,12.772 Z M185.264,19.549 L184.697,19.549 C182.672,19.549 181.97,18.982 181.97,17.119 L181.97,13.609 C181.97,12.367 181.403,11.53 180.107,11.53 L177.569,11.53 L177.569,19.36 L175.004,19.36 L175.004,1.378 L180.215,1.378 C183.131,1.378 184.427,2.836 184.427,5.401 L184.427,7.372 C184.427,9.127 183.833,10.18 182.105,10.531 C183.806,10.801 184.508,12.232 184.508,13.663 L184.508,16.93 C184.508,17.416 184.724,17.632 185.264,17.632 L185.264,19.549 Z M181.862,7.534 L181.862,5.347 C181.862,4.321 181.43,3.592 180.215,3.592 L177.569,3.592 L177.569,9.586 L179.945,9.586 C181.187,9.586 181.862,8.884 181.862,7.534 Z M196.982,14.608 C196.982,17.551 195.362,19.765 191.96,19.765 C188.585,19.765 186.938,17.551 186.938,14.608 L186.938,6.13 C186.938,3.214 188.585,1 191.96,1 C195.362,1 196.982,3.214 196.982,6.13 L196.982,14.608 Z M194.444,14.824 L194.444,5.914 C194.444,4.375 193.634,3.268 191.96,3.268 C190.286,3.268 189.503,4.375 189.503,5.914 L189.503,14.824 C189.503,16.363 190.286,17.47 191.96,17.47 C193.634,17.47 194.444,16.363 194.444,14.824 Z M208.484,3.727 L204.812,3.727 L204.812,19.36 L202.247,19.36 L202.247,3.727 L198.548,3.727 L198.548,1.378 L208.484,1.378 L208.484,3.727 Z M224.981,19.549 L224.414,19.549 C222.389,19.549 221.687,18.982 221.687,17.119 L221.687,13.609 C221.687,12.367 221.12,11.53 219.824,11.53 L217.286,11.53 L217.286,19.36 L214.721,19.36 L214.721,1.378 L219.932,1.378 C222.848,1.378 224.144,2.836 224.144,5.401 L224.144,7.372 C224.144,9.127 223.55,10.18 221.822,10.531 C223.523,10.801 224.225,12.232 224.225,13.663 L224.225,16.93 C224.225,17.416 224.441,17.632 224.981,17.632 L224.981,19.549 Z M221.579,7.534 L221.579,5.347 C221.579,4.321 221.147,3.592 219.932,3.592 L217.286,3.592 L217.286,9.586 L219.662,9.586 C220.904,9.586 221.579,8.884 221.579,7.534 Z M235.268,19.36 L226.898,19.36 L226.898,1.378 L235.268,1.378 L235.268,3.7 L229.436,3.7 L229.436,8.83 L233.648,8.83 L233.648,11.044 L229.436,11.044 L229.436,17.038 L235.268,17.038 L235.268,19.36 Z M247.094,19.36 L244.502,19.36 L243.557,14.959 L239.669,14.959 L238.724,19.36 L236.24,19.36 L240.317,1.378 L243.017,1.378 L247.094,19.36 Z M243.098,12.772 L241.613,5.401 L240.128,12.772 L243.098,12.772 Z M258.65,14.5 C258.65,17.281 257.192,19.36 253.844,19.36 L248.768,19.36 L248.768,1.378 L253.844,1.378 C257.192,1.378 258.65,3.457 258.65,6.238 L258.65,14.5 Z M256.112,14.392 L256.112,6.373 C256.112,4.672 255.356,3.727 253.682,3.727 L251.333,3.727 L251.333,17.011 L253.682,17.011 C255.356,17.011 256.112,16.066 256.112,14.392 Z M269.693,19.36 L261.323,19.36 L261.323,1.378 L269.693,1.378 L269.693,3.7 L263.861,3.7 L263.861,8.83 L268.073,8.83 L268.073,11.044 L263.861,11.044 L263.861,17.038 L269.693,17.038 L269.693,19.36 Z M282.194,19.549 L281.627,19.549 C279.602,19.549 278.9,18.982 278.9,17.119 L278.9,13.609 C278.9,12.367 278.333,11.53 277.037,11.53 L274.499,11.53 L274.499,19.36 L271.934,19.36 L271.934,1.378 L277.145,1.378 C280.061,1.378 281.357,2.836 281.357,5.401 L281.357,7.372 C281.357,9.127 280.763,10.18 279.035,10.531 C280.736,10.801 281.438,12.232 281.438,13.663 L281.438,16.93 C281.438,17.416 281.654,17.632 282.194,17.632 L282.194,19.549 Z M278.792,7.534 L278.792,5.347 C278.792,4.321 278.36,3.592 277.145,3.592 L274.499,3.592 L274.499,9.586 L276.875,9.586 C278.117,9.586 278.792,8.884 278.792,7.534 Z M293.345,14.878 C293.345,17.848 291.239,19.765 288.404,19.765 C285.434,19.765 283.463,17.821 283.463,15.202 L283.463,13.96 L286.001,13.96 L286.001,14.797 C286.001,16.633 286.838,17.578 288.431,17.578 C289.997,17.578 290.807,16.633 290.807,15.256 C290.807,13.663 290.105,12.664 287.837,11.233 C285.812,9.937 283.679,8.182 283.679,5.59 C283.679,3.025 285.38,1 288.431,1 C291.347,1 293.21,2.917 293.21,5.563 L293.21,6.724 L290.78,6.724 L290.78,5.887 C290.78,4.375 290.051,3.187 288.35,3.187 C286.946,3.187 286.217,4.024 286.217,5.239 C286.217,6.832 286.946,7.669 289.538,9.343 C292.157,11.044 293.345,12.556 293.345,14.878 Z" id="tarot-readers" fill="#000000"></path>
    </g>
</svg>