<?xml version="1.0" encoding="UTF-8"?>
<svg width="420px" height="225px" viewBox="0 0 420 225" version="1.1" xmlns="http://www.w3.org/2000/svg" xmlns:xlink="http://www.w3.org/1999/xlink">
    <!-- Generator: Sketch 49.3 (51167) - http://www.bohemiancoding.com/sketch -->
    <title>sunday-s</title>
    <desc>Created with Sketch.</desc>
    <defs></defs>
    <g id="sunday-s" stroke="none" stroke-width="1" fill="none" fill-rule="evenodd">
        <path d="M18.2784,15.7872 L11.3472,15.7872 L10.5984,13.56 L6.7008,13.56 L5.8368,15.7872 L0,15.7872 L5.6448,3 L12.5184,3 L18.2784,15.7872 Z M9.6384,10.6416 L8.8128,8.2416 L7.872,10.6416 L9.6384,10.6416 Z M33.4656,15.7872 L18.72,15.7872 L18.72,3 L25.4016,3 L25.4016,11.352 L33.4656,11.352 L33.4656,15.7872 Z M49.344,15.7872 L34.5984,15.7872 L34.5984,3 L41.28,3 L41.28,11.352 L49.344,11.352 L49.344,15.7872 Z M72.096,9.4896 C72.096,12.9264 69.1008,15.7872 63.4176,15.7872 L55.2,15.7872 L55.2,3 L63.4176,3 C69.1008,3 72.096,5.8032 72.096,9.2592 L72.096,9.4896 Z M65.2992,9.528 L65.2992,9.2208 C65.2992,7.9344 64.6656,6.8592 62.9376,6.8592 L61.8816,6.8592 L61.8816,11.8896 L62.9376,11.8896 C64.6656,11.8896 65.2992,10.8144 65.2992,9.528 Z M90.2592,15.7872 L83.328,15.7872 L82.5792,13.56 L78.6816,13.56 L77.8176,15.7872 L71.9808,15.7872 L77.6256,3 L84.4992,3 L90.2592,15.7872 Z M81.6192,10.6416 L80.7936,8.2416 L79.8528,10.6416 L81.6192,10.6416 Z M108.3264,3 L102.1632,11.448 L102.1632,15.7872 L95.4816,15.7872 L95.4816,11.448 L89.472,3 L96.864,3 L99.3216,6.7248 L101.6832,3 L108.3264,3 Z" id="ALL-DAY" fill="#000000"></path>
        <path d="M164.936,3.727 L161.264,3.727 L161.264,19.36 L158.699,19.36 L158.699,3.727 L155,3.727 L155,1.378 L164.936,1.378 L164.936,3.727 Z M176.33,19.36 L173.738,19.36 L172.793,14.959 L168.905,14.959 L167.96,19.36 L165.476,19.36 L169.553,1.378 L172.253,1.378 L176.33,19.36 Z M172.334,12.772 L170.849,5.401 L169.364,12.772 L172.334,12.772 Z M188.264,19.549 L187.697,19.549 C185.672,19.549 184.97,18.982 184.97,17.119 L184.97,13.609 C184.97,12.367 184.403,11.53 183.107,11.53 L180.569,11.53 L180.569,19.36 L178.004,19.36 L178.004,1.378 L183.215,1.378 C186.131,1.378 187.427,2.836 187.427,5.401 L187.427,7.372 C187.427,9.127 186.833,10.18 185.105,10.531 C186.806,10.801 187.508,12.232 187.508,13.663 L187.508,16.93 C187.508,17.416 187.724,17.632 188.264,17.632 L188.264,19.549 Z M184.862,7.534 L184.862,5.347 C184.862,4.321 184.43,3.592 183.215,3.592 L180.569,3.592 L180.569,9.586 L182.945,9.586 C184.187,9.586 184.862,8.884 184.862,7.534 Z M199.982,14.608 C199.982,17.551 198.362,19.765 194.96,19.765 C191.585,19.765 189.938,17.551 189.938,14.608 L189.938,6.13 C189.938,3.214 191.585,1 194.96,1 C198.362,1 199.982,3.214 199.982,6.13 L199.982,14.608 Z M197.444,14.824 L197.444,5.914 C197.444,4.375 196.634,3.268 194.96,3.268 C193.286,3.268 192.503,4.375 192.503,5.914 L192.503,14.824 C192.503,16.363 193.286,17.47 194.96,17.47 C196.634,17.47 197.444,16.363 197.444,14.824 Z M211.484,3.727 L207.812,3.727 L207.812,19.36 L205.247,19.36 L205.247,3.727 L201.548,3.727 L201.548,1.378 L211.484,1.378 L211.484,3.727 Z M227.981,19.549 L227.414,19.549 C225.389,19.549 224.687,18.982 224.687,17.119 L224.687,13.609 C224.687,12.367 224.12,11.53 222.824,11.53 L220.286,11.53 L220.286,19.36 L217.721,19.36 L217.721,1.378 L222.932,1.378 C225.848,1.378 227.144,2.836 227.144,5.401 L227.144,7.372 C227.144,9.127 226.55,10.18 224.822,10.531 C226.523,10.801 227.225,12.232 227.225,13.663 L227.225,16.93 C227.225,17.416 227.441,17.632 227.981,17.632 L227.981,19.549 Z M224.579,7.534 L224.579,5.347 C224.579,4.321 224.147,3.592 222.932,3.592 L220.286,3.592 L220.286,9.586 L222.662,9.586 C223.904,9.586 224.579,8.884 224.579,7.534 Z M238.268,19.36 L229.898,19.36 L229.898,1.378 L238.268,1.378 L238.268,3.7 L232.436,3.7 L232.436,8.83 L236.648,8.83 L236.648,11.044 L232.436,11.044 L232.436,17.038 L238.268,17.038 L238.268,19.36 Z M250.094,19.36 L247.502,19.36 L246.557,14.959 L242.669,14.959 L241.724,19.36 L239.24,19.36 L243.317,1.378 L246.017,1.378 L250.094,19.36 Z M246.098,12.772 L244.613,5.401 L243.128,12.772 L246.098,12.772 Z M261.65,14.5 C261.65,17.281 260.192,19.36 256.844,19.36 L251.768,19.36 L251.768,1.378 L256.844,1.378 C260.192,1.378 261.65,3.457 261.65,6.238 L261.65,14.5 Z M259.112,14.392 L259.112,6.373 C259.112,4.672 258.356,3.727 256.682,3.727 L254.333,3.727 L254.333,17.011 L256.682,17.011 C258.356,17.011 259.112,16.066 259.112,14.392 Z M272.693,19.36 L264.323,19.36 L264.323,1.378 L272.693,1.378 L272.693,3.7 L266.861,3.7 L266.861,8.83 L271.073,8.83 L271.073,11.044 L266.861,11.044 L266.861,17.038 L272.693,17.038 L272.693,19.36 Z M285.194,19.549 L284.627,19.549 C282.602,19.549 281.9,18.982 281.9,17.119 L281.9,13.609 C281.9,12.367 281.333,11.53 280.037,11.53 L277.499,11.53 L277.499,19.36 L274.934,19.36 L274.934,1.378 L280.145,1.378 C283.061,1.378 284.357,2.836 284.357,5.401 L284.357,7.372 C284.357,9.127 283.763,10.18 282.035,10.531 C283.736,10.801 284.438,12.232 284.438,13.663 L284.438,16.93 C284.438,17.416 284.654,17.632 285.194,17.632 L285.194,19.549 Z M281.792,7.534 L281.792,5.347 C281.792,4.321 281.36,3.592 280.145,3.592 L277.499,3.592 L277.499,9.586 L279.875,9.586 C281.117,9.586 281.792,8.884 281.792,7.534 Z M296.345,14.878 C296.345,17.848 294.239,19.765 291.404,19.765 C288.434,19.765 286.463,17.821 286.463,15.202 L286.463,13.96 L289.001,13.96 L289.001,14.797 C289.001,16.633 289.838,17.578 291.431,17.578 C292.997,17.578 293.807,16.633 293.807,15.256 C293.807,13.663 293.105,12.664 290.837,11.233 C288.812,9.937 286.679,8.182 286.679,5.59 C286.679,3.025 288.38,1 291.431,1 C294.347,1 296.21,2.917 296.21,5.563 L296.21,6.724 L293.78,6.724 L293.78,5.887 C293.78,4.375 293.051,3.187 291.35,3.187 C289.946,3.187 289.217,4.024 289.217,5.239 C289.217,6.832 289.946,7.669 292.538,9.343 C295.157,11.044 296.345,12.556 296.345,14.878 Z" id="tarot-readers" fill="#000000"></path>
    </g>
</svg>