<svg height="38" viewBox="0 0 287 38" width="287" xmlns="http://www.w3.org/2000/svg"><g fill="none" fill-rule="evenodd" transform=""><path d="m0 0h287v38h-287z" fill="#000"/><path d="m27.236 18.994c0 4.026-2.838 6.556-8.03 6.556-3.102 0-6.072-.814-8.404-2.332l2.156-4.334c1.606.792 3.234 1.342 4.796 1.342 1.32 0 1.826-.616 1.826-1.804v-8.074h7.656zm21.1768773-.286c0 3.828-2.596 6.842-9.526 6.842-6.908 0-9.636-3.014-9.636-6.842v-8.36h7.656v7.81c0 1.826.55 2.618 2.376 2.618s2.332-.792 2.332-2.618v-7.81h6.798zm21.2208773 6.292h-6.556l-5.126-5.082-.55-.638v5.72h-6.864v-14.652h6.204l5.5 5.126.506.55v-5.676h6.886zm19.0208773 0h-16.786v-14.652h16.786v4.686h-9.13v1.386h5.72v2.244h-5.72v1.254h9.13zm14.3917541 0h-6.7979995v-12.144c1.826 0 2.772-1.21 2.772-2.508h4.0259995zm18.624878-2.75h-2.2v2.75h-6.666v-2.75h-8.162v-3.366l8.69-8.536h6.138v7.898h2.2zm-8.866-4.004v-2.464l-2.42 2.464z" fill="#fff"/></g></svg>