<?xml version="1.0" encoding="UTF-8"?>
<svg width="420px" height="225px" viewBox="0 0 420 225" version="1.1" xmlns="http://www.w3.org/2000/svg" xmlns:xlink="http://www.w3.org/1999/xlink">
    <!-- Generator: Sketch 49.3 (51167) - http://www.bohemiancoding.com/sketch -->
    <title>thursday-s</title>
    <desc>Created with Sketch.</desc>
    <defs></defs>
    <g id="thursday-s" stroke="none" stroke-width="1" fill="none" fill-rule="evenodd">
        <path d="M164.936,71.36 L163.667,71.36 L163.181,69.983 C162.56,71.144 161.291,71.765 159.671,71.765 C156.539,71.765 155,69.578 155,66.824 L155,57.914 C155,55.268 156.647,53 160.022,53 C163.424,53 164.828,55.025 164.828,57.914 L164.828,58.967 L162.398,58.967 L162.398,57.617 C162.398,56.402 161.696,55.268 160.022,55.268 C158.348,55.268 157.565,56.456 157.565,57.671 L157.565,67.067 C157.565,68.309 158.321,69.497 160.022,69.497 C161.723,69.497 162.506,68.309 162.506,67.067 L162.506,64.286 L160.103,64.286 L160.103,62.126 L164.936,62.126 L164.936,71.36 Z M170.039,71.36 L167.474,71.36 L167.474,53.378 L170.039,53.378 L170.039,71.36 Z M181.973,54.539 L175.385,69.038 L181.73,69.038 L181.73,71.36 L172.145,71.36 L172.145,70.199 L178.814,55.727 L172.496,55.727 L172.496,53.378 L181.973,53.378 L181.973,54.539 Z M196.742,71.36 L188.507,71.36 L188.507,53.378 L191.045,53.378 L191.045,69.038 L196.742,69.038 L196.742,71.36 Z M201.143,71.36 L198.578,71.36 L198.578,53.378 L201.143,53.378 L201.143,71.36 Z M213.941,53.378 L209.594,71.36 L207.137,71.36 L202.898,53.378 L205.571,53.378 L208.46,67.283 L211.349,53.378 L213.941,53.378 Z M223.985,71.36 L215.615,71.36 L215.615,53.378 L223.985,53.378 L223.985,55.7 L218.153,55.7 L218.153,60.83 L222.365,60.83 L222.365,63.044 L218.153,63.044 L218.153,69.038 L223.985,69.038 L223.985,71.36 Z M240.347,71.36 L239.078,71.36 L238.592,69.983 C237.971,71.144 236.702,71.765 235.082,71.765 C231.95,71.765 230.411,69.578 230.411,66.824 L230.411,57.914 C230.411,55.268 232.058,53 235.433,53 C238.835,53 240.239,55.025 240.239,57.914 L240.239,58.967 L237.809,58.967 L237.809,57.617 C237.809,56.402 237.107,55.268 235.433,55.268 C233.759,55.268 232.976,56.456 232.976,57.671 L232.976,67.067 C232.976,68.309 233.732,69.497 235.433,69.497 C237.134,69.497 237.917,68.309 237.917,67.067 L237.917,64.286 L235.514,64.286 L235.514,62.126 L240.347,62.126 L240.347,71.36 Z M253.145,71.549 L252.578,71.549 C250.553,71.549 249.851,70.982 249.851,69.119 L249.851,65.609 C249.851,64.367 249.284,63.53 247.988,63.53 L245.45,63.53 L245.45,71.36 L242.885,71.36 L242.885,53.378 L248.096,53.378 C251.012,53.378 252.308,54.836 252.308,57.401 L252.308,59.372 C252.308,61.127 251.714,62.18 249.986,62.531 C251.687,62.801 252.389,64.232 252.389,65.663 L252.389,68.93 C252.389,69.416 252.605,69.632 253.145,69.632 L253.145,71.549 Z M249.743,59.534 L249.743,57.347 C249.743,56.321 249.311,55.592 248.096,55.592 L245.45,55.592 L245.45,61.586 L247.826,61.586 C249.068,61.586 249.743,60.884 249.743,59.534 Z M264.647,71.36 L262.055,71.36 L261.11,66.959 L257.222,66.959 L256.277,71.36 L253.793,71.36 L257.87,53.378 L260.57,53.378 L264.647,71.36 Z M260.651,64.772 L259.166,57.401 L257.681,64.772 L260.651,64.772 Z M274.61,55.673 L268.886,55.673 L268.886,61.208 L273.287,61.208 L273.287,63.449 L268.886,63.449 L268.886,71.36 L266.321,71.36 L266.321,53.351 L274.61,53.351 L274.61,55.673 Z M284.789,55.673 L279.065,55.673 L279.065,61.208 L283.466,61.208 L283.466,63.449 L279.065,63.449 L279.065,71.36 L276.5,71.36 L276.5,53.351 L284.789,53.351 L284.789,55.673 Z M289.244,71.36 L286.679,71.36 L286.679,53.378 L289.244,53.378 L289.244,71.36 Z M300.962,55.727 L297.29,55.727 L297.29,71.36 L294.725,71.36 L294.725,55.727 L291.026,55.727 L291.026,53.378 L300.962,53.378 L300.962,55.727 Z M305.336,71.36 L302.771,71.36 L302.771,53.378 L305.336,53.378 L305.336,71.36 Z" id="giz-live-graffiti" fill="#000000"></path>
        <path d="M14.7456,55 C14.5728,57.2848 13.728,58.7056 11.8272,58.7056 L5.8944,58.7056 L5.6832,60.9904 C6.7968,60.1648 7.8336,59.6848 9.7344,59.6848 C13.056,59.6848 14.8992,61.432 14.8992,63.6208 L14.8992,63.6784 C14.8992,66.1936 12.5376,68.2672 7.6224,68.2672 C4.7808,68.2672 2.4,67.7872 0,66.9232 L1.2672,63.5824 C3.2064,64.2544 5.1264,64.4848 6.816,64.4848 C8.4096,64.4848 9.1008,63.9088 9.1008,63.1408 L9.1008,63.064 C9.1008,62.5264 8.6592,61.8736 7.5072,61.8736 C6.4896,61.8736 5.8944,62.1424 5.1648,62.8144 L0.6528,62.2768 L1.248,55 L14.7456,55 Z M31.9296,59.4736 C31.9296,61.7968 30.2016,63.9088 26.3616,63.9088 L22.752,63.9088 L22.752,67.7872 L16.0704,67.7872 L16.0704,55 L26.208,55 C30.0672,55 31.9296,56.9584 31.9296,59.2816 L31.9296,59.4736 Z M25.1712,60.0496 L25.1712,59.992 C25.1712,59.2816 24.864,58.936 23.8656,58.936 L22.752,58.936 L22.752,61.1056 L23.8656,61.1056 C24.864,61.1056 25.1712,60.7216 25.1712,60.0496 Z M55.7568,67.7872 L49.3824,67.7872 L49.3824,60.8944 L48.8448,62.4688 L46.9824,67.7872 L41.2416,67.7872 L39.3984,62.4688 L38.8608,60.8944 L38.8608,67.7872 L33.1776,67.7872 L33.1776,55 L42.5856,55 L44.3136,60.0112 L44.6208,61.0288 L44.928,60.0112 L46.656,55 L55.7568,55 L55.7568,67.7872 Z M64.6848,63.4288 L57.2928,63.4288 L57.2928,60.5488 L64.6848,60.5488 L64.6848,63.4288 Z M79.4304,57.784 C76.224,60.8944 74.2464,63.6976 73.3248,67.7872 L67.008,67.7872 C68.1216,64.1968 70.8864,60.7792 74.0736,58.936 L65.5872,58.936 L65.5872,55 L79.4304,55 L79.4304,57.784 Z M96.0192,59.4736 C96.0192,61.7968 94.2912,63.9088 90.4512,63.9088 L86.8416,63.9088 L86.8416,67.7872 L80.16,67.7872 L80.16,55 L90.2976,55 C94.1568,55 96.0192,56.9584 96.0192,59.2816 L96.0192,59.4736 Z M89.2608,60.0496 L89.2608,59.992 C89.2608,59.2816 88.9536,58.936 87.9552,58.936 L86.8416,58.936 L86.8416,61.1056 L87.9552,61.1056 C88.9536,61.1056 89.2608,60.7216 89.2608,60.0496 Z M119.8464,67.7872 L113.472,67.7872 L113.472,60.8944 L112.9344,62.4688 L111.072,67.7872 L105.3312,67.7872 L103.488,62.4688 L102.9504,60.8944 L102.9504,67.7872 L97.2672,67.7872 L97.2672,55 L106.6752,55 L108.4032,60.0112 L108.7104,61.0288 L109.0176,60.0112 L110.7456,55 L119.8464,55 L119.8464,67.7872 Z" id="5pm-7pm" fill="#000000"></path>
        <path d="M165.044,118.608 C165.044,121.551 163.424,123.765 160.022,123.765 C156.647,123.765 155,121.551 155,118.608 L155,110.13 C155,107.214 156.647,105 160.022,105 C163.424,105 165.044,107.214 165.044,110.13 L165.044,118.608 Z M162.506,118.824 L162.506,109.914 C162.506,108.375 161.696,107.268 160.022,107.268 C158.348,107.268 157.565,108.375 157.565,109.914 L157.565,118.824 C157.565,120.363 158.348,121.47 160.022,121.47 C161.696,121.47 162.506,120.363 162.506,118.824 Z M176.951,118.878 C176.951,121.848 174.845,123.765 172.01,123.765 C169.04,123.765 167.069,121.821 167.069,119.202 L167.069,117.96 L169.607,117.96 L169.607,118.797 C169.607,120.633 170.444,121.578 172.037,121.578 C173.603,121.578 174.413,120.633 174.413,119.256 C174.413,117.663 173.711,116.664 171.443,115.233 C169.418,113.937 167.285,112.182 167.285,109.59 C167.285,107.025 168.986,105 172.037,105 C174.953,105 176.816,106.917 176.816,109.563 L176.816,110.724 L174.386,110.724 L174.386,109.887 C174.386,108.375 173.657,107.187 171.956,107.187 C170.552,107.187 169.823,108.024 169.823,109.239 C169.823,110.832 170.552,111.669 173.144,113.343 C175.763,115.044 176.951,116.556 176.951,118.878 Z M189.398,123.36 L186.617,123.36 L183.215,115.341 L181.784,117.798 L181.784,123.36 L179.246,123.36 L179.246,105.378 L181.784,105.378 L181.784,114.126 L186.671,105.378 L189.398,105.378 L184.862,113.1 L189.398,123.36 Z M200.792,123.36 L198.2,123.36 L197.255,118.959 L193.367,118.959 L192.422,123.36 L189.938,123.36 L194.015,105.378 L196.715,105.378 L200.792,123.36 Z M196.796,116.772 L195.311,109.401 L193.826,116.772 L196.796,116.772 Z M212.726,123.549 L212.159,123.549 C210.134,123.549 209.432,122.982 209.432,121.119 L209.432,117.609 C209.432,116.367 208.865,115.53 207.569,115.53 L205.031,115.53 L205.031,123.36 L202.466,123.36 L202.466,105.378 L207.677,105.378 C210.593,105.378 211.889,106.836 211.889,109.401 L211.889,111.372 C211.889,113.127 211.295,114.18 209.567,114.531 C211.268,114.801 211.97,116.232 211.97,117.663 L211.97,120.93 C211.97,121.416 212.186,121.632 212.726,121.632 L212.726,123.549 Z M209.324,111.534 L209.324,109.347 C209.324,108.321 208.892,107.592 207.677,107.592 L205.031,107.592 L205.031,113.586 L207.407,113.586 C208.649,113.586 209.324,112.884 209.324,111.534 Z M232.517,123.36 L230.195,123.36 L230.195,109.347 L229.466,112.776 L227.009,123.36 L224.498,123.36 L222.095,112.776 L221.339,109.347 L221.339,123.36 L219.071,123.36 L219.071,105.378 L222.635,105.378 L225.092,116.61 L225.821,120.039 L226.55,116.583 L228.953,105.378 L232.517,105.378 L232.517,123.36 Z M245.018,123.36 L242.426,123.36 L241.481,118.959 L237.593,118.959 L236.648,123.36 L234.164,123.36 L238.241,105.378 L240.941,105.378 L245.018,123.36 Z M241.022,116.772 L239.537,109.401 L238.052,116.772 L241.022,116.772 Z M256.871,123.36 L255.062,123.36 L250.607,114.612 L249.095,111.453 L249.095,123.36 L246.665,123.36 L246.665,105.378 L248.744,105.378 L253.01,114.288 L254.441,117.447 L254.441,105.378 L256.871,105.378 L256.871,123.36 Z M269.939,123.36 L268.13,123.36 L263.675,114.612 L262.163,111.453 L262.163,123.36 L259.733,123.36 L259.733,105.378 L261.812,105.378 L266.078,114.288 L267.509,117.447 L267.509,105.378 L269.939,105.378 L269.939,123.36 Z M275.042,123.009 C275.042,124.71 274.232,125.925 272.342,125.925 L272.342,125.142 C273.287,125.142 273.827,124.467 273.827,123.36 L272.828,123.36 L272.828,120.309 L275.042,120.309 L275.042,123.009 Z M165.125,145.5 C165.125,148.281 163.667,150.36 160.319,150.36 L155.243,150.36 L155.243,132.378 L160.319,132.378 C163.667,132.378 165.125,134.457 165.125,137.238 L165.125,145.5 Z M162.587,145.392 L162.587,137.373 C162.587,135.672 161.831,134.727 160.157,134.727 L157.808,134.727 L157.808,148.011 L160.157,148.011 C161.831,148.011 162.587,147.066 162.587,145.392 Z M176.357,145.77 C176.357,148.686 175.034,150.765 171.794,150.765 C168.716,150.765 167.123,149.01 167.123,146.067 L167.123,143.205 L169.526,143.205 L169.526,145.986 C169.526,147.66 170.282,148.47 171.713,148.47 C173.144,148.47 173.792,147.66 173.792,145.986 L173.792,132.378 L176.357,132.378 L176.357,145.77 Z M192.881,145.878 C192.881,148.848 190.775,150.765 187.94,150.765 C184.97,150.765 182.999,148.821 182.999,146.202 L182.999,144.96 L185.537,144.96 L185.537,145.797 C185.537,147.633 186.374,148.578 187.967,148.578 C189.533,148.578 190.343,147.633 190.343,146.256 C190.343,144.663 189.641,143.664 187.373,142.233 C185.348,140.937 183.215,139.182 183.215,136.59 C183.215,134.025 184.916,132 187.967,132 C190.883,132 192.746,133.917 192.746,136.563 L192.746,137.724 L190.316,137.724 L190.316,136.887 C190.316,135.375 189.587,134.187 187.886,134.187 C186.482,134.187 185.753,135.024 185.753,136.239 C185.753,137.832 186.482,138.669 189.074,140.343 C191.693,142.044 192.881,143.556 192.881,145.878 Z M203.546,150.36 L195.176,150.36 L195.176,132.378 L203.546,132.378 L203.546,134.7 L197.714,134.7 L197.714,139.83 L201.926,139.83 L201.926,142.044 L197.714,142.044 L197.714,148.038 L203.546,148.038 L203.546,150.36 Z M214.616,134.727 L210.944,134.727 L210.944,150.36 L208.379,150.36 L208.379,134.727 L204.68,134.727 L204.68,132.378 L214.616,132.378 L214.616,134.727 Z" id="oskar-mann,-dj-set" fill="#000000"></path>
        <path d="M14.9376,116.9456 C14.9376,119.0192 12.5952,120.7472 7.4688,120.7472 C2.3424,120.7472 0,119.0192 0,116.9456 L0,116.8304 C0,115.544 1.1328,114.3152 3.4368,113.7776 C1.5552,113.4896 0.3648,112.3376 0.3648,111.0512 L0.3648,110.936 C0.3648,109.016 2.3616,107 7.4688,107 C12.5568,107 14.5728,109.016 14.5728,110.936 L14.5728,111.0512 C14.5728,112.3376 13.3632,113.4896 11.4816,113.7776 C13.8048,114.3152 14.9376,115.544 14.9376,116.8304 L14.9376,116.9456 Z M9.1008,111.6656 L9.1008,111.5504 C9.1008,111.032 8.7168,110.4368 7.4688,110.4368 C6.2208,110.4368 5.8176,111.032 5.8176,111.5504 L5.8176,111.6656 C5.8176,112.376 6.4896,112.8176 7.4688,112.8176 C8.448,112.8176 9.1008,112.376 9.1008,111.6656 Z M9.1008,116.1584 L9.1008,116.024 C9.1008,115.4096 8.5632,114.9104 7.4688,114.9104 C6.3552,114.9104 5.8176,115.4096 5.8176,116.024 L5.8176,116.1584 C5.8176,116.7728 6.2784,117.3104 7.4688,117.3104 C8.64,117.3104 9.1008,116.7728 9.1008,116.1584 Z M32.1984,111.9536 C32.1984,114.2768 30.4704,116.3888 26.6304,116.3888 L23.0208,116.3888 L23.0208,120.2672 L16.3392,120.2672 L16.3392,107.48 L26.4768,107.48 C30.336,107.48 32.1984,109.4384 32.1984,111.7616 L32.1984,111.9536 Z M25.44,112.5296 L25.44,112.472 C25.44,111.7616 25.1328,111.416 24.1344,111.416 L23.0208,111.416 L23.0208,113.5856 L24.1344,113.5856 C25.1328,113.5856 25.44,113.2016 25.44,112.5296 Z M56.0256,120.2672 L49.6512,120.2672 L49.6512,113.3744 L49.1136,114.9488 L47.2512,120.2672 L41.5104,120.2672 L39.6672,114.9488 L39.1296,113.3744 L39.1296,120.2672 L33.4464,120.2672 L33.4464,107.48 L42.8544,107.48 L44.5824,112.4912 L44.8896,113.5088 L45.1968,112.4912 L46.9248,107.48 L56.0256,107.48 L56.0256,120.2672 Z M64.9536,115.9088 L57.5616,115.9088 L57.5616,113.0288 L64.9536,113.0288 L64.9536,115.9088 Z M72.4224,120.2672 L66.4896,120.2672 L66.4896,109.6688 C68.0832,109.6688 68.9088,108.6128 68.9088,107.48 L72.4224,107.48 L72.4224,120.2672 Z M89.0112,114.1616 C89.0112,118.328 85.8432,120.7472 81.3504,120.7472 C76.8384,120.7472 73.6704,118.328 73.6704,114.1616 L73.6704,113.5856 C73.6704,109.3808 76.8384,107 81.3504,107 C85.8432,107 89.0112,109.3808 89.0112,113.5856 L89.0112,114.1616 Z M83.3088,114.296 L83.3088,113.4128 C83.3088,111.6848 82.5984,110.84 81.3504,110.84 C80.0832,110.84 79.3728,111.6848 79.3728,113.4128 L79.3728,114.296 C79.3728,116.024 80.0832,116.9072 81.3504,116.9072 C82.5984,116.9072 83.3088,116.024 83.3088,114.296 Z M106.1184,111.9536 C106.1184,114.2768 104.3904,116.3888 100.5504,116.3888 L96.9408,116.3888 L96.9408,120.2672 L90.2592,120.2672 L90.2592,107.48 L100.3968,107.48 C104.256,107.48 106.1184,109.4384 106.1184,111.7616 L106.1184,111.9536 Z M99.36,112.5296 L99.36,112.472 C99.36,111.7616 99.0528,111.416 98.0544,111.416 L96.9408,111.416 L96.9408,113.5856 L98.0544,113.5856 C99.0528,113.5856 99.36,113.2016 99.36,112.5296 Z M129.9456,120.2672 L123.5712,120.2672 L123.5712,113.3744 L123.0336,114.9488 L121.1712,120.2672 L115.4304,120.2672 L113.5872,114.9488 L113.0496,113.3744 L113.0496,120.2672 L107.3664,120.2672 L107.3664,107.48 L116.7744,107.48 L118.5024,112.4912 L118.8096,113.5088 L119.1168,112.4912 L120.8448,107.48 L129.9456,107.48 L129.9456,120.2672 Z" id="8pm-10pm" fill="#000000"></path>
        <path d="M18.2784,15.7872 L11.3472,15.7872 L10.5984,13.56 L6.7008,13.56 L5.8368,15.7872 L0,15.7872 L5.6448,3 L12.5184,3 L18.2784,15.7872 Z M9.6384,10.6416 L8.8128,8.2416 L7.872,10.6416 L9.6384,10.6416 Z M33.4656,15.7872 L18.72,15.7872 L18.72,3 L25.4016,3 L25.4016,11.352 L33.4656,11.352 L33.4656,15.7872 Z M49.344,15.7872 L34.5984,15.7872 L34.5984,3 L41.28,3 L41.28,11.352 L49.344,11.352 L49.344,15.7872 Z M72.096,9.4896 C72.096,12.9264 69.1008,15.7872 63.4176,15.7872 L55.2,15.7872 L55.2,3 L63.4176,3 C69.1008,3 72.096,5.8032 72.096,9.2592 L72.096,9.4896 Z M65.2992,9.528 L65.2992,9.2208 C65.2992,7.9344 64.6656,6.8592 62.9376,6.8592 L61.8816,6.8592 L61.8816,11.8896 L62.9376,11.8896 C64.6656,11.8896 65.2992,10.8144 65.2992,9.528 Z M90.2592,15.7872 L83.328,15.7872 L82.5792,13.56 L78.6816,13.56 L77.8176,15.7872 L71.9808,15.7872 L77.6256,3 L84.4992,3 L90.2592,15.7872 Z M81.6192,10.6416 L80.7936,8.2416 L79.8528,10.6416 L81.6192,10.6416 Z M108.3264,3 L102.1632,11.448 L102.1632,15.7872 L95.4816,15.7872 L95.4816,11.448 L89.472,3 L96.864,3 L99.3216,6.7248 L101.6832,3 L108.3264,3 Z" id="ALL-DAY" fill="#000000"></path>
        <path d="M164.936,3.727 L161.264,3.727 L161.264,19.36 L158.699,19.36 L158.699,3.727 L155,3.727 L155,1.378 L164.936,1.378 L164.936,3.727 Z M176.33,19.36 L173.738,19.36 L172.793,14.959 L168.905,14.959 L167.96,19.36 L165.476,19.36 L169.553,1.378 L172.253,1.378 L176.33,19.36 Z M172.334,12.772 L170.849,5.401 L169.364,12.772 L172.334,12.772 Z M188.264,19.549 L187.697,19.549 C185.672,19.549 184.97,18.982 184.97,17.119 L184.97,13.609 C184.97,12.367 184.403,11.53 183.107,11.53 L180.569,11.53 L180.569,19.36 L178.004,19.36 L178.004,1.378 L183.215,1.378 C186.131,1.378 187.427,2.836 187.427,5.401 L187.427,7.372 C187.427,9.127 186.833,10.18 185.105,10.531 C186.806,10.801 187.508,12.232 187.508,13.663 L187.508,16.93 C187.508,17.416 187.724,17.632 188.264,17.632 L188.264,19.549 Z M184.862,7.534 L184.862,5.347 C184.862,4.321 184.43,3.592 183.215,3.592 L180.569,3.592 L180.569,9.586 L182.945,9.586 C184.187,9.586 184.862,8.884 184.862,7.534 Z M199.982,14.608 C199.982,17.551 198.362,19.765 194.96,19.765 C191.585,19.765 189.938,17.551 189.938,14.608 L189.938,6.13 C189.938,3.214 191.585,1 194.96,1 C198.362,1 199.982,3.214 199.982,6.13 L199.982,14.608 Z M197.444,14.824 L197.444,5.914 C197.444,4.375 196.634,3.268 194.96,3.268 C193.286,3.268 192.503,4.375 192.503,5.914 L192.503,14.824 C192.503,16.363 193.286,17.47 194.96,17.47 C196.634,17.47 197.444,16.363 197.444,14.824 Z M211.484,3.727 L207.812,3.727 L207.812,19.36 L205.247,19.36 L205.247,3.727 L201.548,3.727 L201.548,1.378 L211.484,1.378 L211.484,3.727 Z M227.981,19.549 L227.414,19.549 C225.389,19.549 224.687,18.982 224.687,17.119 L224.687,13.609 C224.687,12.367 224.12,11.53 222.824,11.53 L220.286,11.53 L220.286,19.36 L217.721,19.36 L217.721,1.378 L222.932,1.378 C225.848,1.378 227.144,2.836 227.144,5.401 L227.144,7.372 C227.144,9.127 226.55,10.18 224.822,10.531 C226.523,10.801 227.225,12.232 227.225,13.663 L227.225,16.93 C227.225,17.416 227.441,17.632 227.981,17.632 L227.981,19.549 Z M224.579,7.534 L224.579,5.347 C224.579,4.321 224.147,3.592 222.932,3.592 L220.286,3.592 L220.286,9.586 L222.662,9.586 C223.904,9.586 224.579,8.884 224.579,7.534 Z M238.268,19.36 L229.898,19.36 L229.898,1.378 L238.268,1.378 L238.268,3.7 L232.436,3.7 L232.436,8.83 L236.648,8.83 L236.648,11.044 L232.436,11.044 L232.436,17.038 L238.268,17.038 L238.268,19.36 Z M250.094,19.36 L247.502,19.36 L246.557,14.959 L242.669,14.959 L241.724,19.36 L239.24,19.36 L243.317,1.378 L246.017,1.378 L250.094,19.36 Z M246.098,12.772 L244.613,5.401 L243.128,12.772 L246.098,12.772 Z M261.65,14.5 C261.65,17.281 260.192,19.36 256.844,19.36 L251.768,19.36 L251.768,1.378 L256.844,1.378 C260.192,1.378 261.65,3.457 261.65,6.238 L261.65,14.5 Z M259.112,14.392 L259.112,6.373 C259.112,4.672 258.356,3.727 256.682,3.727 L254.333,3.727 L254.333,17.011 L256.682,17.011 C258.356,17.011 259.112,16.066 259.112,14.392 Z M272.693,19.36 L264.323,19.36 L264.323,1.378 L272.693,1.378 L272.693,3.7 L266.861,3.7 L266.861,8.83 L271.073,8.83 L271.073,11.044 L266.861,11.044 L266.861,17.038 L272.693,17.038 L272.693,19.36 Z M285.194,19.549 L284.627,19.549 C282.602,19.549 281.9,18.982 281.9,17.119 L281.9,13.609 C281.9,12.367 281.333,11.53 280.037,11.53 L277.499,11.53 L277.499,19.36 L274.934,19.36 L274.934,1.378 L280.145,1.378 C283.061,1.378 284.357,2.836 284.357,5.401 L284.357,7.372 C284.357,9.127 283.763,10.18 282.035,10.531 C283.736,10.801 284.438,12.232 284.438,13.663 L284.438,16.93 C284.438,17.416 284.654,17.632 285.194,17.632 L285.194,19.549 Z M281.792,7.534 L281.792,5.347 C281.792,4.321 281.36,3.592 280.145,3.592 L277.499,3.592 L277.499,9.586 L279.875,9.586 C281.117,9.586 281.792,8.884 281.792,7.534 Z M296.345,14.878 C296.345,17.848 294.239,19.765 291.404,19.765 C288.434,19.765 286.463,17.821 286.463,15.202 L286.463,13.96 L289.001,13.96 L289.001,14.797 C289.001,16.633 289.838,17.578 291.431,17.578 C292.997,17.578 293.807,16.633 293.807,15.256 C293.807,13.663 293.105,12.664 290.837,11.233 C288.812,9.937 286.679,8.182 286.679,5.59 C286.679,3.025 288.38,1 291.431,1 C294.347,1 296.21,2.917 296.21,5.563 L296.21,6.724 L293.78,6.724 L293.78,5.887 C293.78,4.375 293.051,3.187 291.35,3.187 C289.946,3.187 289.217,4.024 289.217,5.239 C289.217,6.832 289.946,7.669 292.538,9.343 C295.157,11.044 296.345,12.556 296.345,14.878 Z" id="tarot-readers" fill="#000000"></path>
    </g>
</svg>