<?xml version="1.0" encoding="UTF-8"?>
<svg width="410px" height="134px" viewBox="0 0 410 134" version="1.1" xmlns="http://www.w3.org/2000/svg" xmlns:xlink="http://www.w3.org/1999/xlink">
    <!-- Generator: Sketch 49.3 (51167) - http://www.bohemiancoding.com/sketch -->
    <title>thursday-m</title>
    <desc>Created with Sketch.</desc>
    <defs></defs>
    <g id="thursday-m" stroke="none" stroke-width="1" fill="none" fill-rule="evenodd">
        <g id="Group" transform="translate(-1.000000, 3.000000)" fill="#000000">
            <g id="Group-2">
                <path d="M18.7792,13 L11.848,13 L11.0992,10.7728 L7.2016,10.7728 L6.3376,13 L0.5008,13 L6.1456,0.2128 L13.0192,0.2128 L18.7792,13 Z M10.1392,7.8544 L9.3136,5.4544 L8.3728,7.8544 L10.1392,7.8544 Z M33.9664,13 L19.2208,13 L19.2208,0.2128 L25.9024,0.2128 L25.9024,8.5648 L33.9664,8.5648 L33.9664,13 Z M49.8448,13 L35.0992,13 L35.0992,0.2128 L41.7808,0.2128 L41.7808,8.5648 L49.8448,8.5648 L49.8448,13 Z M72.5968,6.7024 C72.5968,10.1392 69.6016,13 63.9184,13 L55.7008,13 L55.7008,0.2128 L63.9184,0.2128 C69.6016,0.2128 72.5968,3.016 72.5968,6.472 L72.5968,6.7024 Z M65.8,6.7408 L65.8,6.4336 C65.8,5.1472 65.1664,4.072 63.4384,4.072 L62.3824,4.072 L62.3824,9.1024 L63.4384,9.1024 C65.1664,9.1024 65.8,8.0272 65.8,6.7408 Z M90.76,13 L83.8288,13 L83.08,10.7728 L79.1824,10.7728 L78.3184,13 L72.4816,13 L78.1264,0.2128 L85,0.2128 L90.76,13 Z M82.12,7.8544 L81.2944,5.4544 L80.3536,7.8544 L82.12,7.8544 Z M108.8272,0.2128 L102.664,8.6608 L102.664,13 L95.9824,13 L95.9824,8.6608 L89.9728,0.2128 L97.3648,0.2128 L99.8224,3.9376 L102.184,0.2128 L108.8272,0.2128 Z" id="ALL-DAY"></path>
            </g>
            <g id="Group-5" transform="translate(1.000000, 36.000000)">
                <path d="M162.151,22 L160.882,22 L160.396,20.623 C159.775,21.784 158.506,22.405 156.886,22.405 C153.754,22.405 152.215,20.218 152.215,17.464 L152.215,8.554 C152.215,5.908 153.862,3.64 157.237,3.64 C160.639,3.64 162.043,5.665 162.043,8.554 L162.043,9.607 L159.613,9.607 L159.613,8.257 C159.613,7.042 158.911,5.908 157.237,5.908 C155.563,5.908 154.78,7.096 154.78,8.311 L154.78,17.707 C154.78,18.949 155.536,20.137 157.237,20.137 C158.938,20.137 159.721,18.949 159.721,17.707 L159.721,14.926 L157.318,14.926 L157.318,12.766 L162.151,12.766 L162.151,22 Z M167.254,22 L164.689,22 L164.689,4.018 L167.254,4.018 L167.254,22 Z M179.188,5.179 L172.6,19.678 L178.945,19.678 L178.945,22 L169.36,22 L169.36,20.839 L176.029,6.367 L169.711,6.367 L169.711,4.018 L179.188,4.018 L179.188,5.179 Z M193.957,22 L185.722,22 L185.722,4.018 L188.26,4.018 L188.26,19.678 L193.957,19.678 L193.957,22 Z M198.358,22 L195.793,22 L195.793,4.018 L198.358,4.018 L198.358,22 Z M211.156,4.018 L206.809,22 L204.352,22 L200.113,4.018 L202.786,4.018 L205.675,17.923 L208.564,4.018 L211.156,4.018 Z M221.2,22 L212.83,22 L212.83,4.018 L221.2,4.018 L221.2,6.34 L215.368,6.34 L215.368,11.47 L219.58,11.47 L219.58,13.684 L215.368,13.684 L215.368,19.678 L221.2,19.678 L221.2,22 Z M237.562,22 L236.293,22 L235.807,20.623 C235.186,21.784 233.917,22.405 232.297,22.405 C229.165,22.405 227.626,20.218 227.626,17.464 L227.626,8.554 C227.626,5.908 229.273,3.64 232.648,3.64 C236.05,3.64 237.454,5.665 237.454,8.554 L237.454,9.607 L235.024,9.607 L235.024,8.257 C235.024,7.042 234.322,5.908 232.648,5.908 C230.974,5.908 230.191,7.096 230.191,8.311 L230.191,17.707 C230.191,18.949 230.947,20.137 232.648,20.137 C234.349,20.137 235.132,18.949 235.132,17.707 L235.132,14.926 L232.729,14.926 L232.729,12.766 L237.562,12.766 L237.562,22 Z M250.36,22.189 L249.793,22.189 C247.768,22.189 247.066,21.622 247.066,19.759 L247.066,16.249 C247.066,15.007 246.499,14.17 245.203,14.17 L242.665,14.17 L242.665,22 L240.1,22 L240.1,4.018 L245.311,4.018 C248.227,4.018 249.523,5.476 249.523,8.041 L249.523,10.012 C249.523,11.767 248.929,12.82 247.201,13.171 C248.902,13.441 249.604,14.872 249.604,16.303 L249.604,19.57 C249.604,20.056 249.82,20.272 250.36,20.272 L250.36,22.189 Z M246.958,10.174 L246.958,7.987 C246.958,6.961 246.526,6.232 245.311,6.232 L242.665,6.232 L242.665,12.226 L245.041,12.226 C246.283,12.226 246.958,11.524 246.958,10.174 Z M261.862,22 L259.27,22 L258.325,17.599 L254.437,17.599 L253.492,22 L251.008,22 L255.085,4.018 L257.785,4.018 L261.862,22 Z M257.866,15.412 L256.381,8.041 L254.896,15.412 L257.866,15.412 Z M271.825,6.313 L266.101,6.313 L266.101,11.848 L270.502,11.848 L270.502,14.089 L266.101,14.089 L266.101,22 L263.536,22 L263.536,3.991 L271.825,3.991 L271.825,6.313 Z M282.004,6.313 L276.28,6.313 L276.28,11.848 L280.681,11.848 L280.681,14.089 L276.28,14.089 L276.28,22 L273.715,22 L273.715,3.991 L282.004,3.991 L282.004,6.313 Z M286.459,22 L283.894,22 L283.894,4.018 L286.459,4.018 L286.459,22 Z M298.177,6.367 L294.505,6.367 L294.505,22 L291.94,22 L291.94,6.367 L288.241,6.367 L288.241,4.018 L298.177,4.018 L298.177,6.367 Z M302.551,22 L299.986,22 L299.986,4.018 L302.551,4.018 L302.551,22 Z" id="giz-live-graffiti"></path>
                <path d="M15.1296,6.2128 C14.9568,8.4976 14.112,9.9184 12.2112,9.9184 L6.2784,9.9184 L6.0672,12.2032 C7.1808,11.3776 8.2176,10.8976 10.1184,10.8976 C13.44,10.8976 15.2832,12.6448 15.2832,14.8336 L15.2832,14.8912 C15.2832,17.4064 12.9216,19.48 8.0064,19.48 C5.1648,19.48 2.784,19 0.384,18.136 L1.6512,14.7952 C3.5904,15.4672 5.5104,15.6976 7.2,15.6976 C8.7936,15.6976 9.4848,15.1216 9.4848,14.3536 L9.4848,14.2768 C9.4848,13.7392 9.0432,13.0864 7.8912,13.0864 C6.8736,13.0864 6.2784,13.3552 5.5488,14.0272 L1.0368,13.4896 L1.632,6.2128 L15.1296,6.2128 Z M32.3136,10.6864 C32.3136,13.0096 30.5856,15.1216 26.7456,15.1216 L23.136,15.1216 L23.136,19 L16.4544,19 L16.4544,6.2128 L26.592,6.2128 C30.4512,6.2128 32.3136,8.1712 32.3136,10.4944 L32.3136,10.6864 Z M25.5552,11.2624 L25.5552,11.2048 C25.5552,10.4944 25.248,10.1488 24.2496,10.1488 L23.136,10.1488 L23.136,12.3184 L24.2496,12.3184 C25.248,12.3184 25.5552,11.9344 25.5552,11.2624 Z M56.1408,19 L49.7664,19 L49.7664,12.1072 L49.2288,13.6816 L47.3664,19 L41.6256,19 L39.7824,13.6816 L39.2448,12.1072 L39.2448,19 L33.5616,19 L33.5616,6.2128 L42.9696,6.2128 L44.6976,11.224 L45.0048,12.2416 L45.312,11.224 L47.04,6.2128 L56.1408,6.2128 L56.1408,19 Z M65.0688,14.6416 L57.6768,14.6416 L57.6768,11.7616 L65.0688,11.7616 L65.0688,14.6416 Z M79.8144,8.9968 C76.608,12.1072 74.6304,14.9104 73.7088,19 L67.392,19 C68.5056,15.4096 71.2704,11.992 74.4576,10.1488 L65.9712,10.1488 L65.9712,6.2128 L79.8144,6.2128 L79.8144,8.9968 Z M96.4032,10.6864 C96.4032,13.0096 94.6752,15.1216 90.8352,15.1216 L87.2256,15.1216 L87.2256,19 L80.544,19 L80.544,6.2128 L90.6816,6.2128 C94.5408,6.2128 96.4032,8.1712 96.4032,10.4944 L96.4032,10.6864 Z M89.6448,11.2624 L89.6448,11.2048 C89.6448,10.4944 89.3376,10.1488 88.3392,10.1488 L87.2256,10.1488 L87.2256,12.3184 L88.3392,12.3184 C89.3376,12.3184 89.6448,11.9344 89.6448,11.2624 Z M120.2304,19 L113.856,19 L113.856,12.1072 L113.3184,13.6816 L111.456,19 L105.7152,19 L103.872,13.6816 L103.3344,12.1072 L103.3344,19 L97.6512,19 L97.6512,6.2128 L107.0592,6.2128 L108.7872,11.224 L109.0944,12.2416 L109.4016,11.224 L111.1296,6.2128 L120.2304,6.2128 L120.2304,19 Z" id="5pm-7pm"></path>
            </g>
            <g id="Group-8" transform="translate(1.000000, 78.000000)">
                <path d="M162.259,17.248 C162.259,20.191 160.639,22.405 157.237,22.405 C153.862,22.405 152.215,20.191 152.215,17.248 L152.215,8.77 C152.215,5.854 153.862,3.64 157.237,3.64 C160.639,3.64 162.259,5.854 162.259,8.77 L162.259,17.248 Z M159.721,17.464 L159.721,8.554 C159.721,7.015 158.911,5.908 157.237,5.908 C155.563,5.908 154.78,7.015 154.78,8.554 L154.78,17.464 C154.78,19.003 155.563,20.11 157.237,20.11 C158.911,20.11 159.721,19.003 159.721,17.464 Z M174.166,17.518 C174.166,20.488 172.06,22.405 169.225,22.405 C166.255,22.405 164.284,20.461 164.284,17.842 L164.284,16.6 L166.822,16.6 L166.822,17.437 C166.822,19.273 167.659,20.218 169.252,20.218 C170.818,20.218 171.628,19.273 171.628,17.896 C171.628,16.303 170.926,15.304 168.658,13.873 C166.633,12.577 164.5,10.822 164.5,8.23 C164.5,5.665 166.201,3.64 169.252,3.64 C172.168,3.64 174.031,5.557 174.031,8.203 L174.031,9.364 L171.601,9.364 L171.601,8.527 C171.601,7.015 170.872,5.827 169.171,5.827 C167.767,5.827 167.038,6.664 167.038,7.879 C167.038,9.472 167.767,10.309 170.359,11.983 C172.978,13.684 174.166,15.196 174.166,17.518 Z M186.613,22 L183.832,22 L180.43,13.981 L178.999,16.438 L178.999,22 L176.461,22 L176.461,4.018 L178.999,4.018 L178.999,12.766 L183.886,4.018 L186.613,4.018 L182.077,11.74 L186.613,22 Z M198.007,22 L195.415,22 L194.47,17.599 L190.582,17.599 L189.637,22 L187.153,22 L191.23,4.018 L193.93,4.018 L198.007,22 Z M194.011,15.412 L192.526,8.041 L191.041,15.412 L194.011,15.412 Z M209.941,22.189 L209.374,22.189 C207.349,22.189 206.647,21.622 206.647,19.759 L206.647,16.249 C206.647,15.007 206.08,14.17 204.784,14.17 L202.246,14.17 L202.246,22 L199.681,22 L199.681,4.018 L204.892,4.018 C207.808,4.018 209.104,5.476 209.104,8.041 L209.104,10.012 C209.104,11.767 208.51,12.82 206.782,13.171 C208.483,13.441 209.185,14.872 209.185,16.303 L209.185,19.57 C209.185,20.056 209.401,20.272 209.941,20.272 L209.941,22.189 Z M206.539,10.174 L206.539,7.987 C206.539,6.961 206.107,6.232 204.892,6.232 L202.246,6.232 L202.246,12.226 L204.622,12.226 C205.864,12.226 206.539,11.524 206.539,10.174 Z M229.732,22 L227.41,22 L227.41,7.987 L226.681,11.416 L224.224,22 L221.713,22 L219.31,11.416 L218.554,7.987 L218.554,22 L216.286,22 L216.286,4.018 L219.85,4.018 L222.307,15.25 L223.036,18.679 L223.765,15.223 L226.168,4.018 L229.732,4.018 L229.732,22 Z M242.233,22 L239.641,22 L238.696,17.599 L234.808,17.599 L233.863,22 L231.379,22 L235.456,4.018 L238.156,4.018 L242.233,22 Z M238.237,15.412 L236.752,8.041 L235.267,15.412 L238.237,15.412 Z M254.086,22 L252.277,22 L247.822,13.252 L246.31,10.093 L246.31,22 L243.88,22 L243.88,4.018 L245.959,4.018 L250.225,12.928 L251.656,16.087 L251.656,4.018 L254.086,4.018 L254.086,22 Z M267.154,22 L265.345,22 L260.89,13.252 L259.378,10.093 L259.378,22 L256.948,22 L256.948,4.018 L259.027,4.018 L263.293,12.928 L264.724,16.087 L264.724,4.018 L267.154,4.018 L267.154,22 Z M272.257,21.649 C272.257,23.35 271.447,24.565 269.557,24.565 L269.557,23.782 C270.502,23.782 271.042,23.107 271.042,22 L270.043,22 L270.043,18.949 L272.257,18.949 L272.257,21.649 Z M162.34,44.14 C162.34,46.921 160.882,49 157.534,49 L152.458,49 L152.458,31.018 L157.534,31.018 C160.882,31.018 162.34,33.097 162.34,35.878 L162.34,44.14 Z M159.802,44.032 L159.802,36.013 C159.802,34.312 159.046,33.367 157.372,33.367 L155.023,33.367 L155.023,46.651 L157.372,46.651 C159.046,46.651 159.802,45.706 159.802,44.032 Z M173.572,44.41 C173.572,47.326 172.249,49.405 169.009,49.405 C165.931,49.405 164.338,47.65 164.338,44.707 L164.338,41.845 L166.741,41.845 L166.741,44.626 C166.741,46.3 167.497,47.11 168.928,47.11 C170.359,47.11 171.007,46.3 171.007,44.626 L171.007,31.018 L173.572,31.018 L173.572,44.41 Z M190.096,44.518 C190.096,47.488 187.99,49.405 185.155,49.405 C182.185,49.405 180.214,47.461 180.214,44.842 L180.214,43.6 L182.752,43.6 L182.752,44.437 C182.752,46.273 183.589,47.218 185.182,47.218 C186.748,47.218 187.558,46.273 187.558,44.896 C187.558,43.303 186.856,42.304 184.588,40.873 C182.563,39.577 180.43,37.822 180.43,35.23 C180.43,32.665 182.131,30.64 185.182,30.64 C188.098,30.64 189.961,32.557 189.961,35.203 L189.961,36.364 L187.531,36.364 L187.531,35.527 C187.531,34.015 186.802,32.827 185.101,32.827 C183.697,32.827 182.968,33.664 182.968,34.879 C182.968,36.472 183.697,37.309 186.289,38.983 C188.908,40.684 190.096,42.196 190.096,44.518 Z M200.761,49 L192.391,49 L192.391,31.018 L200.761,31.018 L200.761,33.34 L194.929,33.34 L194.929,38.47 L199.141,38.47 L199.141,40.684 L194.929,40.684 L194.929,46.678 L200.761,46.678 L200.761,49 Z M211.831,33.367 L208.159,33.367 L208.159,49 L205.594,49 L205.594,33.367 L201.895,33.367 L201.895,31.018 L211.831,31.018 L211.831,33.367 Z" id="oskar-mann,-dj-set"></path>
                <path d="M15.4752,15.6784 C15.4752,17.752 13.1328,19.48 8.0064,19.48 C2.88,19.48 0.5376,17.752 0.5376,15.6784 L0.5376,15.5632 C0.5376,14.2768 1.6704,13.048 3.9744,12.5104 C2.0928,12.2224 0.9024,11.0704 0.9024,9.784 L0.9024,9.6688 C0.9024,7.7488 2.8992,5.7328 8.0064,5.7328 C13.0944,5.7328 15.1104,7.7488 15.1104,9.6688 L15.1104,9.784 C15.1104,11.0704 13.9008,12.2224 12.0192,12.5104 C14.3424,13.048 15.4752,14.2768 15.4752,15.5632 L15.4752,15.6784 Z M9.6384,10.3984 L9.6384,10.2832 C9.6384,9.7648 9.2544,9.1696 8.0064,9.1696 C6.7584,9.1696 6.3552,9.7648 6.3552,10.2832 L6.3552,10.3984 C6.3552,11.1088 7.0272,11.5504 8.0064,11.5504 C8.9856,11.5504 9.6384,11.1088 9.6384,10.3984 Z M9.6384,14.8912 L9.6384,14.7568 C9.6384,14.1424 9.1008,13.6432 8.0064,13.6432 C6.8928,13.6432 6.3552,14.1424 6.3552,14.7568 L6.3552,14.8912 C6.3552,15.5056 6.816,16.0432 8.0064,16.0432 C9.1776,16.0432 9.6384,15.5056 9.6384,14.8912 Z M32.736,10.6864 C32.736,13.0096 31.008,15.1216 27.168,15.1216 L23.5584,15.1216 L23.5584,19 L16.8768,19 L16.8768,6.2128 L27.0144,6.2128 C30.8736,6.2128 32.736,8.1712 32.736,10.4944 L32.736,10.6864 Z M25.9776,11.2624 L25.9776,11.2048 C25.9776,10.4944 25.6704,10.1488 24.672,10.1488 L23.5584,10.1488 L23.5584,12.3184 L24.672,12.3184 C25.6704,12.3184 25.9776,11.9344 25.9776,11.2624 Z M56.5632,19 L50.1888,19 L50.1888,12.1072 L49.6512,13.6816 L47.7888,19 L42.048,19 L40.2048,13.6816 L39.6672,12.1072 L39.6672,19 L33.984,19 L33.984,6.2128 L43.392,6.2128 L45.12,11.224 L45.4272,12.2416 L45.7344,11.224 L47.4624,6.2128 L56.5632,6.2128 L56.5632,19 Z M65.4912,14.6416 L58.0992,14.6416 L58.0992,11.7616 L65.4912,11.7616 L65.4912,14.6416 Z M72.96,19 L67.0272,19 L67.0272,8.4016 C68.6208,8.4016 69.4464,7.3456 69.4464,6.2128 L72.96,6.2128 L72.96,19 Z M89.5488,12.8944 C89.5488,17.0608 86.3808,19.48 81.888,19.48 C77.376,19.48 74.208,17.0608 74.208,12.8944 L74.208,12.3184 C74.208,8.1136 77.376,5.7328 81.888,5.7328 C86.3808,5.7328 89.5488,8.1136 89.5488,12.3184 L89.5488,12.8944 Z M83.8464,13.0288 L83.8464,12.1456 C83.8464,10.4176 83.136,9.5728 81.888,9.5728 C80.6208,9.5728 79.9104,10.4176 79.9104,12.1456 L79.9104,13.0288 C79.9104,14.7568 80.6208,15.64 81.888,15.64 C83.136,15.64 83.8464,14.7568 83.8464,13.0288 Z M106.656,10.6864 C106.656,13.0096 104.928,15.1216 101.088,15.1216 L97.4784,15.1216 L97.4784,19 L90.7968,19 L90.7968,6.2128 L100.9344,6.2128 C104.7936,6.2128 106.656,8.1712 106.656,10.4944 L106.656,10.6864 Z M99.8976,11.2624 L99.8976,11.2048 C99.8976,10.4944 99.5904,10.1488 98.592,10.1488 L97.4784,10.1488 L97.4784,12.3184 L98.592,12.3184 C99.5904,12.3184 99.8976,11.9344 99.8976,11.2624 Z M130.4832,19 L124.1088,19 L124.1088,12.1072 L123.5712,13.6816 L121.7088,19 L115.968,19 L114.1248,13.6816 L113.5872,12.1072 L113.5872,19 L107.904,19 L107.904,6.2128 L117.312,6.2128 L119.04,11.224 L119.3472,12.2416 L119.6544,11.224 L121.3824,6.2128 L130.4832,6.2128 L130.4832,19 Z" id="8pm-10pm"></path>
            </g>
        </g>
        <path d="M161.936,3.727 L158.264,3.727 L158.264,19.36 L155.699,19.36 L155.699,3.727 L152,3.727 L152,1.378 L161.936,1.378 L161.936,3.727 Z M173.33,19.36 L170.738,19.36 L169.793,14.959 L165.905,14.959 L164.96,19.36 L162.476,19.36 L166.553,1.378 L169.253,1.378 L173.33,19.36 Z M169.334,12.772 L167.849,5.401 L166.364,12.772 L169.334,12.772 Z M185.264,19.549 L184.697,19.549 C182.672,19.549 181.97,18.982 181.97,17.119 L181.97,13.609 C181.97,12.367 181.403,11.53 180.107,11.53 L177.569,11.53 L177.569,19.36 L175.004,19.36 L175.004,1.378 L180.215,1.378 C183.131,1.378 184.427,2.836 184.427,5.401 L184.427,7.372 C184.427,9.127 183.833,10.18 182.105,10.531 C183.806,10.801 184.508,12.232 184.508,13.663 L184.508,16.93 C184.508,17.416 184.724,17.632 185.264,17.632 L185.264,19.549 Z M181.862,7.534 L181.862,5.347 C181.862,4.321 181.43,3.592 180.215,3.592 L177.569,3.592 L177.569,9.586 L179.945,9.586 C181.187,9.586 181.862,8.884 181.862,7.534 Z M196.982,14.608 C196.982,17.551 195.362,19.765 191.96,19.765 C188.585,19.765 186.938,17.551 186.938,14.608 L186.938,6.13 C186.938,3.214 188.585,1 191.96,1 C195.362,1 196.982,3.214 196.982,6.13 L196.982,14.608 Z M194.444,14.824 L194.444,5.914 C194.444,4.375 193.634,3.268 191.96,3.268 C190.286,3.268 189.503,4.375 189.503,5.914 L189.503,14.824 C189.503,16.363 190.286,17.47 191.96,17.47 C193.634,17.47 194.444,16.363 194.444,14.824 Z M208.484,3.727 L204.812,3.727 L204.812,19.36 L202.247,19.36 L202.247,3.727 L198.548,3.727 L198.548,1.378 L208.484,1.378 L208.484,3.727 Z M224.981,19.549 L224.414,19.549 C222.389,19.549 221.687,18.982 221.687,17.119 L221.687,13.609 C221.687,12.367 221.12,11.53 219.824,11.53 L217.286,11.53 L217.286,19.36 L214.721,19.36 L214.721,1.378 L219.932,1.378 C222.848,1.378 224.144,2.836 224.144,5.401 L224.144,7.372 C224.144,9.127 223.55,10.18 221.822,10.531 C223.523,10.801 224.225,12.232 224.225,13.663 L224.225,16.93 C224.225,17.416 224.441,17.632 224.981,17.632 L224.981,19.549 Z M221.579,7.534 L221.579,5.347 C221.579,4.321 221.147,3.592 219.932,3.592 L217.286,3.592 L217.286,9.586 L219.662,9.586 C220.904,9.586 221.579,8.884 221.579,7.534 Z M235.268,19.36 L226.898,19.36 L226.898,1.378 L235.268,1.378 L235.268,3.7 L229.436,3.7 L229.436,8.83 L233.648,8.83 L233.648,11.044 L229.436,11.044 L229.436,17.038 L235.268,17.038 L235.268,19.36 Z M247.094,19.36 L244.502,19.36 L243.557,14.959 L239.669,14.959 L238.724,19.36 L236.24,19.36 L240.317,1.378 L243.017,1.378 L247.094,19.36 Z M243.098,12.772 L241.613,5.401 L240.128,12.772 L243.098,12.772 Z M258.65,14.5 C258.65,17.281 257.192,19.36 253.844,19.36 L248.768,19.36 L248.768,1.378 L253.844,1.378 C257.192,1.378 258.65,3.457 258.65,6.238 L258.65,14.5 Z M256.112,14.392 L256.112,6.373 C256.112,4.672 255.356,3.727 253.682,3.727 L251.333,3.727 L251.333,17.011 L253.682,17.011 C255.356,17.011 256.112,16.066 256.112,14.392 Z M269.693,19.36 L261.323,19.36 L261.323,1.378 L269.693,1.378 L269.693,3.7 L263.861,3.7 L263.861,8.83 L268.073,8.83 L268.073,11.044 L263.861,11.044 L263.861,17.038 L269.693,17.038 L269.693,19.36 Z M282.194,19.549 L281.627,19.549 C279.602,19.549 278.9,18.982 278.9,17.119 L278.9,13.609 C278.9,12.367 278.333,11.53 277.037,11.53 L274.499,11.53 L274.499,19.36 L271.934,19.36 L271.934,1.378 L277.145,1.378 C280.061,1.378 281.357,2.836 281.357,5.401 L281.357,7.372 C281.357,9.127 280.763,10.18 279.035,10.531 C280.736,10.801 281.438,12.232 281.438,13.663 L281.438,16.93 C281.438,17.416 281.654,17.632 282.194,17.632 L282.194,19.549 Z M278.792,7.534 L278.792,5.347 C278.792,4.321 278.36,3.592 277.145,3.592 L274.499,3.592 L274.499,9.586 L276.875,9.586 C278.117,9.586 278.792,8.884 278.792,7.534 Z M293.345,14.878 C293.345,17.848 291.239,19.765 288.404,19.765 C285.434,19.765 283.463,17.821 283.463,15.202 L283.463,13.96 L286.001,13.96 L286.001,14.797 C286.001,16.633 286.838,17.578 288.431,17.578 C289.997,17.578 290.807,16.633 290.807,15.256 C290.807,13.663 290.105,12.664 287.837,11.233 C285.812,9.937 283.679,8.182 283.679,5.59 C283.679,3.025 285.38,1 288.431,1 C291.347,1 293.21,2.917 293.21,5.563 L293.21,6.724 L290.78,6.724 L290.78,5.887 C290.78,4.375 290.051,3.187 288.35,3.187 C286.946,3.187 286.217,4.024 286.217,5.239 C286.217,6.832 286.946,7.669 289.538,9.343 C292.157,11.044 293.345,12.556 293.345,14.878 Z" id="tarot-readers" fill="#000000"></path>
    </g>
</svg>