<?xml version="1.0" encoding="UTF-8"?>
<svg width="410px" height="162px" viewBox="0 0 410 162" version="1.1" xmlns="http://www.w3.org/2000/svg" xmlns:xlink="http://www.w3.org/1999/xlink">
    <!-- Generator: Sketch 49.3 (51167) - http://www.bohemiancoding.com/sketch -->
    <title>tuesday-m</title>
    <desc>Created with Sketch.</desc>
    <defs></defs>
    <g id="tuesday-m" stroke="none" stroke-width="1" fill="none" fill-rule="evenodd">
        <path d="M161.911748,3.76115108 L158.248711,3.76115108 L158.248711,19.5899281 L155.689971,19.5899281 L155.689971,3.76115108 L152,3.76115108 L152,1.38273381 L161.911748,1.38273381 L161.911748,3.76115108 Z M173.277937,19.5899281 L170.692264,19.5899281 L169.74957,15.1338129 L165.87106,15.1338129 L164.928367,19.5899281 L162.45043,19.5899281 L166.517479,1.38273381 L169.210888,1.38273381 L173.277937,19.5899281 Z M169.291691,12.9194245 L167.810315,5.45611511 L166.32894,12.9194245 L169.291691,12.9194245 Z M185.182808,19.781295 L184.617192,19.781295 C182.597135,19.781295 181.896848,19.2071942 181.896848,17.3208633 L181.896848,13.7669065 C181.896848,12.5093525 181.331232,11.6618705 180.038395,11.6618705 L177.50659,11.6618705 L177.50659,19.5899281 L174.947851,19.5899281 L174.947851,1.38273381 L180.146132,1.38273381 C183.055014,1.38273381 184.347851,2.85899281 184.347851,5.45611511 L184.347851,7.45179856 C184.347851,9.22877698 183.755301,10.294964 182.031519,10.6503597 C183.728367,10.923741 184.428653,12.3726619 184.428653,13.8215827 L184.428653,17.1294964 C184.428653,17.6215827 184.644126,17.8402878 185.182808,17.8402878 L185.182808,19.781295 Z M181.789112,7.61582734 L181.789112,5.40143885 C181.789112,4.36258993 181.358166,3.62446043 180.146132,3.62446043 L177.50659,3.62446043 L177.50659,9.69352518 L179.876791,9.69352518 C181.115759,9.69352518 181.789112,8.98273381 181.789112,7.61582734 Z M196.872206,14.7784173 C196.872206,17.7582734 195.25616,20 191.862464,20 C188.495702,20 186.852722,17.7582734 186.852722,14.7784173 L186.852722,6.1942446 C186.852722,3.24172662 188.495702,1 191.862464,1 C195.25616,1 196.872206,3.24172662 196.872206,6.1942446 L196.872206,14.7784173 Z M194.340401,14.9971223 L194.340401,5.97553957 C194.340401,4.41726619 193.532378,3.29640288 191.862464,3.29640288 C190.19255,3.29640288 189.411461,4.41726619 189.411461,5.97553957 L189.411461,14.9971223 C189.411461,16.5553957 190.19255,17.676259 191.862464,17.676259 C193.532378,17.676259 194.340401,16.5553957 194.340401,14.9971223 Z M208.346132,3.76115108 L204.683095,3.76115108 L204.683095,19.5899281 L202.124355,19.5899281 L202.124355,3.76115108 L198.434384,3.76115108 L198.434384,1.38273381 L208.346132,1.38273381 L208.346132,3.76115108 Z M224.802865,19.781295 L224.237249,19.781295 C222.217192,19.781295 221.516905,19.2071942 221.516905,17.3208633 L221.516905,13.7669065 C221.516905,12.5093525 220.951289,11.6618705 219.658453,11.6618705 L217.126648,11.6618705 L217.126648,19.5899281 L214.567908,19.5899281 L214.567908,1.38273381 L219.766189,1.38273381 C222.675072,1.38273381 223.967908,2.85899281 223.967908,5.45611511 L223.967908,7.45179856 C223.967908,9.22877698 223.375358,10.294964 221.651576,10.6503597 C223.348424,10.923741 224.048711,12.3726619 224.048711,13.8215827 L224.048711,17.1294964 C224.048711,17.6215827 224.264183,17.8402878 224.802865,17.8402878 L224.802865,19.781295 Z M221.409169,7.61582734 L221.409169,5.40143885 C221.409169,4.36258993 220.978223,3.62446043 219.766189,3.62446043 L217.126648,3.62446043 L217.126648,9.69352518 L219.496848,9.69352518 C220.735817,9.69352518 221.409169,8.98273381 221.409169,7.61582734 Z M235.064756,19.5899281 L226.715186,19.5899281 L226.715186,1.38273381 L235.064756,1.38273381 L235.064756,3.73381295 L229.246991,3.73381295 L229.246991,8.92805755 L233.448711,8.92805755 L233.448711,11.1697842 L229.246991,11.1697842 L229.246991,17.2388489 L235.064756,17.2388489 L235.064756,19.5899281 Z M246.861891,19.5899281 L244.276218,19.5899281 L243.333524,15.1338129 L239.455014,15.1338129 L238.512321,19.5899281 L236.034384,19.5899281 L240.101433,1.38273381 L242.794842,1.38273381 L246.861891,19.5899281 Z M242.875645,12.9194245 L241.394269,5.45611511 L239.912894,12.9194245 L242.875645,12.9194245 Z M258.389685,14.6690647 C258.389685,17.4848921 256.935244,19.5899281 253.595415,19.5899281 L248.531805,19.5899281 L248.531805,1.38273381 L253.595415,1.38273381 C256.935244,1.38273381 258.389685,3.48776978 258.389685,6.30359712 L258.389685,14.6690647 Z M255.85788,14.5597122 L255.85788,6.44028777 C255.85788,4.71798561 255.103725,3.76115108 253.433811,3.76115108 L251.090544,3.76115108 L251.090544,17.2115108 L253.433811,17.2115108 C255.103725,17.2115108 255.85788,16.2546763 255.85788,14.5597122 Z M269.405731,19.5899281 L261.05616,19.5899281 L261.05616,1.38273381 L269.405731,1.38273381 L269.405731,3.73381295 L263.587966,3.73381295 L263.587966,8.92805755 L267.789685,8.92805755 L267.789685,11.1697842 L263.587966,11.1697842 L263.587966,17.2388489 L269.405731,17.2388489 L269.405731,19.5899281 Z M281.876218,19.781295 L281.310602,19.781295 C279.290544,19.781295 278.590258,19.2071942 278.590258,17.3208633 L278.590258,13.7669065 C278.590258,12.5093525 278.024642,11.6618705 276.731805,11.6618705 L274.2,11.6618705 L274.2,19.5899281 L271.641261,19.5899281 L271.641261,1.38273381 L276.839542,1.38273381 C279.748424,1.38273381 281.041261,2.85899281 281.041261,5.45611511 L281.041261,7.45179856 C281.041261,9.22877698 280.448711,10.294964 278.724928,10.6503597 C280.421777,10.923741 281.122063,12.3726619 281.122063,13.8215827 L281.122063,17.1294964 C281.122063,17.6215827 281.337536,17.8402878 281.876218,17.8402878 L281.876218,19.781295 Z M278.482521,7.61582734 L278.482521,5.40143885 C278.482521,4.36258993 278.051576,3.62446043 276.839542,3.62446043 L274.2,3.62446043 L274.2,9.69352518 L276.570201,9.69352518 C277.809169,9.69352518 278.482521,8.98273381 278.482521,7.61582734 Z M293,15.0517986 C293,18.0589928 290.89914,20 288.07106,20 C285.108309,20 283.14212,18.0316547 283.14212,15.3798561 L283.14212,14.1223022 L285.673926,14.1223022 L285.673926,14.9697842 C285.673926,16.828777 286.508883,17.7856115 288.097994,17.7856115 C289.660172,17.7856115 290.468195,16.828777 290.468195,15.4345324 C290.468195,13.8215827 289.767908,12.8100719 287.505444,11.3611511 C285.485387,10.0489209 283.357593,8.27194245 283.357593,5.64748201 C283.357593,3.05035971 285.054441,1 288.097994,1 C291.006877,1 292.86533,2.94100719 292.86533,5.62014388 L292.86533,6.79568345 L290.441261,6.79568345 L290.441261,5.94820144 C290.441261,4.41726619 289.71404,3.21438849 288.017192,3.21438849 C286.616619,3.21438849 285.889398,4.0618705 285.889398,5.29208633 C285.889398,6.90503597 286.616619,7.75251799 289.202292,9.44748201 C291.8149,11.1697842 293,12.7007194 293,15.0517986 Z" id="tarot-readers" fill="#000000"></path>
        <g id="Group-3" transform="translate(0.000000, 1.000000)" fill="#000000">
            <path d="M160.37,122.36 L152,122.36 L152,104.378 L160.37,104.378 L160.37,106.7 L154.538,106.7 L154.538,111.83 L158.75,111.83 L158.75,114.044 L154.538,114.044 L154.538,120.038 L160.37,120.038 L160.37,122.36 Z M172.79,122.36 L170.981,122.36 L166.526,113.612 L165.014,110.453 L165.014,122.36 L162.584,122.36 L162.584,104.378 L164.663,104.378 L168.929,113.288 L170.36,116.447 L170.36,104.378 L172.79,104.378 L172.79,122.36 Z M184.913,117.878 C184.913,120.848 182.807,122.765 179.972,122.765 C177.002,122.765 175.031,120.821 175.031,118.202 L175.031,116.96 L177.569,116.96 L177.569,117.797 C177.569,119.633 178.406,120.578 179.999,120.578 C181.565,120.578 182.375,119.633 182.375,118.256 C182.375,116.663 181.673,115.664 179.405,114.233 C177.38,112.937 175.247,111.182 175.247,108.59 C175.247,106.025 176.948,104 179.999,104 C182.915,104 184.778,105.917 184.778,108.563 L184.778,109.724 L182.348,109.724 L182.348,108.887 C182.348,107.375 181.619,106.187 179.918,106.187 C178.514,106.187 177.785,107.024 177.785,108.239 C177.785,109.832 178.514,110.669 181.106,112.343 C183.725,114.044 184.913,115.556 184.913,117.878 Z M195.578,122.36 L187.208,122.36 L187.208,104.378 L195.578,104.378 L195.578,106.7 L189.746,106.7 L189.746,111.83 L193.958,111.83 L193.958,114.044 L189.746,114.044 L189.746,120.038 L195.578,120.038 L195.578,122.36 Z M211.265,122.36 L208.943,122.36 L208.943,108.347 L208.214,111.776 L205.757,122.36 L203.246,122.36 L200.843,111.776 L200.087,108.347 L200.087,122.36 L197.819,122.36 L197.819,104.378 L201.383,104.378 L203.84,115.61 L204.569,119.039 L205.298,115.583 L207.701,104.378 L211.265,104.378 L211.265,122.36 Z M223.739,118.337 C223.739,120.902 222.443,122.36 219.527,122.36 L214.181,122.36 L214.181,104.378 L219.392,104.378 C222.308,104.378 223.55,105.836 223.55,108.401 L223.55,109.859 C223.55,111.722 222.794,112.775 221.255,113.099 C223.01,113.45 223.739,114.665 223.739,116.42 L223.739,118.337 Z M221.039,110.237 L221.039,108.347 C221.039,107.321 220.634,106.592 219.419,106.592 L216.746,106.592 L216.746,112.262 L219.122,112.262 C220.391,112.262 221.039,111.56 221.039,110.237 Z M221.174,118.418 L221.174,116.312 C221.174,114.989 220.499,114.287 219.257,114.287 L216.746,114.287 L216.746,120.146 L219.527,120.146 C220.742,120.146 221.174,119.417 221.174,118.418 Z M234.458,122.36 L226.223,122.36 L226.223,104.378 L228.761,104.378 L228.761,120.038 L234.458,120.038 L234.458,122.36 Z M244.664,122.36 L236.294,122.36 L236.294,104.378 L244.664,104.378 L244.664,106.7 L238.832,106.7 L238.832,111.83 L243.044,111.83 L243.044,114.044 L238.832,114.044 L238.832,120.038 L244.664,120.038 L244.664,122.36 Z M259.703,122.36 L251.333,122.36 L251.333,104.378 L259.703,104.378 L259.703,106.7 L253.871,106.7 L253.871,111.83 L258.083,111.83 L258.083,114.044 L253.871,114.044 L253.871,120.038 L259.703,120.038 L259.703,122.36 Z M272.123,122.36 L270.314,122.36 L265.859,113.612 L264.347,110.453 L264.347,122.36 L261.917,122.36 L261.917,104.378 L263.996,104.378 L268.262,113.288 L269.693,116.447 L269.693,104.378 L272.123,104.378 L272.123,122.36 Z M283.841,106.727 L280.169,106.727 L280.169,122.36 L277.604,122.36 L277.604,106.727 L273.905,106.727 L273.905,104.378 L283.841,104.378 L283.841,106.727 Z M294.02,122.36 L285.65,122.36 L285.65,104.378 L294.02,104.378 L294.02,106.7 L288.188,106.7 L288.188,111.83 L292.4,111.83 L292.4,114.044 L288.188,114.044 L288.188,120.038 L294.02,120.038 L294.02,122.36 Z M306.44,122.36 L304.631,122.36 L300.176,113.612 L298.664,110.453 L298.664,122.36 L296.234,122.36 L296.234,104.378 L298.313,104.378 L302.579,113.288 L304.01,116.447 L304.01,104.378 L306.44,104.378 L306.44,122.36 Z M319.211,117.5 C319.211,120.281 317.753,122.36 314.405,122.36 L309.329,122.36 L309.329,104.378 L314.405,104.378 C317.753,104.378 319.211,106.457 319.211,109.238 L319.211,117.5 Z M316.673,117.392 L316.673,109.373 C316.673,107.672 315.917,106.727 314.243,106.727 L311.894,106.727 L311.894,120.011 L314.243,120.011 C315.917,120.011 316.673,119.066 316.673,117.392 Z M331.847,118.067 C331.847,121.037 329.768,122.765 326.825,122.765 C323.909,122.765 321.83,121.037 321.83,118.067 L321.83,104.378 L324.395,104.378 L324.395,118.067 C324.395,119.66 325.178,120.524 326.852,120.524 C328.526,120.524 329.309,119.66 329.309,118.067 L329.309,104.378 L331.847,104.378 L331.847,118.067 Z M336.923,113.585 L334.709,113.585 L334.709,110.534 L336.923,110.534 L336.923,113.585 Z M336.923,122.36 L334.709,122.36 L334.709,119.309 L336.923,119.309 L336.923,122.36 Z M161.423,138.02 C161.423,140.558 160.127,142.151 157.211,142.151 L154.538,142.151 L154.538,149.36 L152,149.36 L152,131.378 L157.211,131.378 C160.127,131.378 161.423,132.944 161.423,135.536 L161.423,138.02 Z M158.858,138.101 L158.858,135.455 C158.858,134.267 158.426,133.592 157.238,133.592 L154.538,133.592 L154.538,139.964 L157.238,139.964 C158.426,139.964 158.858,139.262 158.858,138.101 Z M173.816,149.36 L171.278,149.36 L171.278,141.476 L166.175,141.476 L166.175,149.36 L163.61,149.36 L163.61,131.378 L166.175,131.378 L166.175,139.181 L171.278,139.181 L171.278,131.378 L173.816,131.378 L173.816,149.36 Z M186.533,144.608 C186.533,147.551 184.913,149.765 181.511,149.765 C178.136,149.765 176.489,147.551 176.489,144.608 L176.489,136.13 C176.489,133.214 178.136,131 181.511,131 C184.913,131 186.533,133.214 186.533,136.13 L186.533,144.608 Z M183.995,144.824 L183.995,135.914 C183.995,134.375 183.185,133.268 181.511,133.268 C179.837,133.268 179.054,134.375 179.054,135.914 L179.054,144.824 C179.054,146.363 179.837,147.47 181.511,147.47 C183.185,147.47 183.995,146.363 183.995,144.824 Z M198.035,133.727 L194.363,133.727 L194.363,149.36 L191.798,149.36 L191.798,133.727 L188.099,133.727 L188.099,131.378 L198.035,131.378 L198.035,133.727 Z M209.429,149.36 L206.837,149.36 L205.892,144.959 L202.004,144.959 L201.059,149.36 L198.575,149.36 L202.652,131.378 L205.352,131.378 L209.429,149.36 Z M205.433,142.772 L203.948,135.401 L202.463,142.772 L205.433,142.772 Z M220.769,131.378 L216.449,142.124 L216.449,149.36 L213.911,149.36 L213.911,142.124 L209.564,131.378 L212.318,131.378 L215.261,139.667 L218.204,131.378 L220.769,131.378 Z M239.885,146.822 C239.885,148.739 238.805,149.765 237.104,149.765 C236.105,149.765 235.106,149.198 234.161,148.28 C233.135,149.198 231.731,149.765 230.354,149.765 C227.681,149.765 225.953,147.767 225.953,145.283 C225.953,142.907 227.276,141.098 229.355,139.613 C228.869,138.29 228.572,136.859 228.572,135.644 C228.572,133.025 230.03,130.973 232.541,130.973 C234.917,130.973 235.97,132.674 235.97,134.942 C235.97,137.264 234.296,138.992 232.028,140.369 C232.568,141.962 233.405,143.933 234.242,145.121 C235.268,143.582 235.97,141.395 235.97,140.072 L237.995,140.072 C237.968,142.097 236.969,144.824 235.592,146.768 C236.132,147.335 236.726,147.659 237.293,147.659 C237.833,147.659 238.076,147.389 238.076,146.741 L238.076,145.013 L239.885,145.013 L239.885,146.822 Z M233.81,134.969 C233.81,133.889 233.432,133.187 232.541,133.187 C231.488,133.187 230.867,134.051 230.867,135.617 C230.867,136.4 231.056,137.453 231.353,138.56 C233.216,137.318 233.81,135.914 233.81,134.969 Z M232.784,146.822 C231.758,145.472 230.813,143.501 230.111,141.665 C229.085,142.475 228.383,143.609 228.383,144.932 C228.383,146.687 229.328,147.578 230.948,147.578 C231.677,147.578 232.379,147.227 232.784,146.822 Z M255.221,144.878 C255.221,147.848 253.115,149.765 250.28,149.765 C247.31,149.765 245.339,147.821 245.339,145.202 L245.339,143.96 L247.877,143.96 L247.877,144.797 C247.877,146.633 248.714,147.578 250.307,147.578 C251.873,147.578 252.683,146.633 252.683,145.256 C252.683,143.663 251.981,142.664 249.713,141.233 C247.688,139.937 245.555,138.182 245.555,135.59 C245.555,133.025 247.256,131 250.307,131 C253.223,131 255.086,132.917 255.086,135.563 L255.086,136.724 L252.656,136.724 L252.656,135.887 C252.656,134.375 251.927,133.187 250.226,133.187 C248.822,133.187 248.093,134.024 248.093,135.239 C248.093,136.832 248.822,137.669 251.414,139.343 C254.033,141.044 255.221,142.556 255.221,144.878 Z M267.101,149.36 L264.509,149.36 L263.564,144.959 L259.676,144.959 L258.731,149.36 L256.247,149.36 L260.324,131.378 L263.024,131.378 L267.101,149.36 Z M263.105,142.772 L261.62,135.401 L260.135,142.772 L263.105,142.772 Z M282.221,149.36 L279.899,149.36 L279.899,135.347 L279.17,138.776 L276.713,149.36 L274.202,149.36 L271.799,138.776 L271.043,135.347 L271.043,149.36 L268.775,149.36 L268.775,131.378 L272.339,131.378 L274.796,142.61 L275.525,146.039 L276.254,142.583 L278.657,131.378 L282.221,131.378 L282.221,149.36 Z M299.366,144.608 C299.366,147.551 297.746,149.765 294.344,149.765 C290.969,149.765 289.322,147.551 289.322,144.608 L289.322,136.13 C289.322,133.214 290.969,131 294.344,131 C297.746,131 299.366,133.214 299.366,136.13 L299.366,144.608 Z M296.828,144.824 L296.828,135.914 C296.828,134.375 296.018,133.268 294.344,133.268 C292.67,133.268 291.887,134.375 291.887,135.914 L291.887,144.824 C291.887,146.363 292.67,147.47 294.344,147.47 C296.018,147.47 296.828,146.363 296.828,144.824 Z M311.597,145.337 C311.597,147.902 310.301,149.36 307.385,149.36 L302.039,149.36 L302.039,131.378 L307.25,131.378 C310.166,131.378 311.408,132.836 311.408,135.401 L311.408,136.859 C311.408,138.722 310.652,139.775 309.113,140.099 C310.868,140.45 311.597,141.665 311.597,143.42 L311.597,145.337 Z M308.897,137.237 L308.897,135.347 C308.897,134.321 308.492,133.592 307.277,133.592 L304.604,133.592 L304.604,139.262 L306.98,139.262 C308.249,139.262 308.897,138.56 308.897,137.237 Z M309.032,145.418 L309.032,143.312 C309.032,141.989 308.357,141.287 307.115,141.287 L304.604,141.287 L304.604,147.146 L307.385,147.146 C308.6,147.146 309.032,146.417 309.032,145.418 Z M316.295,149.009 C316.295,150.71 315.485,151.925 313.595,151.925 L313.595,151.142 C314.54,151.142 315.08,150.467 315.08,149.36 L314.081,149.36 L314.081,146.309 L316.295,146.309 L316.295,149.009 Z M333.494,144.5 C333.494,147.281 332.036,149.36 328.688,149.36 L323.612,149.36 L323.612,131.378 L328.688,131.378 C332.036,131.378 333.494,133.457 333.494,136.238 L333.494,144.5 Z M330.956,144.392 L330.956,136.373 C330.956,134.672 330.2,133.727 328.526,133.727 L326.177,133.727 L326.177,147.011 L328.526,147.011 C330.2,147.011 330.956,146.066 330.956,144.392 Z M344.726,144.77 C344.726,147.686 343.403,149.765 340.163,149.765 C337.085,149.765 335.492,148.01 335.492,145.067 L335.492,142.205 L337.895,142.205 L337.895,144.986 C337.895,146.66 338.651,147.47 340.082,147.47 C341.513,147.47 342.161,146.66 342.161,144.986 L342.161,131.378 L344.726,131.378 L344.726,144.77 Z M361.25,144.878 C361.25,147.848 359.144,149.765 356.309,149.765 C353.339,149.765 351.368,147.821 351.368,145.202 L351.368,143.96 L353.906,143.96 L353.906,144.797 C353.906,146.633 354.743,147.578 356.336,147.578 C357.902,147.578 358.712,146.633 358.712,145.256 C358.712,143.663 358.01,142.664 355.742,141.233 C353.717,139.937 351.584,138.182 351.584,135.59 C351.584,133.025 353.285,131 356.336,131 C359.252,131 361.115,132.917 361.115,135.563 L361.115,136.724 L358.685,136.724 L358.685,135.887 C358.685,134.375 357.956,133.187 356.255,133.187 C354.851,133.187 354.122,134.024 354.122,135.239 C354.122,136.832 354.851,137.669 357.443,139.343 C360.062,141.044 361.25,142.556 361.25,144.878 Z M371.915,149.36 L363.545,149.36 L363.545,131.378 L371.915,131.378 L371.915,133.7 L366.083,133.7 L366.083,138.83 L370.295,138.83 L370.295,141.044 L366.083,141.044 L366.083,147.038 L371.915,147.038 L371.915,149.36 Z M382.985,133.727 L379.313,133.727 L379.313,149.36 L376.748,149.36 L376.748,133.727 L373.049,133.727 L373.049,131.378 L382.985,131.378 L382.985,133.727 Z" id="ensemble-entendu:-ph"></path>
            <path d="M15.0912,114.9856 C15.0912,117.52 12.288,119.7472 7.8912,119.7472 C3.168,119.7472 0,117.2704 0,113.2576 L0,112.9504 C0,108.7456 3.8592,106 8.448,106 C10.9056,106 12.6912,106.4416 14.6688,107.2672 L13.4016,110.3584 C12.2688,109.9744 10.944,109.6864 9.5424,109.6864 C7.3152,109.6864 5.76,110.9152 5.76,112.5664 L5.76,112.7584 C6.8736,111.76 8.1216,111.0304 10.272,111.0304 C13.2672,111.0304 15.0912,112.8736 15.0912,114.8896 L15.0912,114.9856 Z M9.8496,114.5632 L9.8496,114.5056 C9.8496,113.8528 9.2352,113.296 8.0448,113.296 C7.0848,113.296 6.3936,113.6608 5.76,114.1792 L5.76,114.2368 C5.76,115.1584 6.6624,115.9072 7.7568,115.9072 C9.0816,115.9072 9.8496,115.1776 9.8496,114.5632 Z M32.0832,110.9536 C32.0832,113.2768 30.3552,115.3888 26.5152,115.3888 L22.9056,115.3888 L22.9056,119.2672 L16.224,119.2672 L16.224,106.48 L26.3616,106.48 C30.2208,106.48 32.0832,108.4384 32.0832,110.7616 L32.0832,110.9536 Z M25.3248,111.5296 L25.3248,111.472 C25.3248,110.7616 25.0176,110.416 24.0192,110.416 L22.9056,110.416 L22.9056,112.5856 L24.0192,112.5856 C25.0176,112.5856 25.3248,112.2016 25.3248,111.5296 Z M55.9104,119.2672 L49.536,119.2672 L49.536,112.3744 L48.9984,113.9488 L47.136,119.2672 L41.3952,119.2672 L39.552,113.9488 L39.0144,112.3744 L39.0144,119.2672 L33.3312,119.2672 L33.3312,106.48 L42.7392,106.48 L44.4672,111.4912 L44.7744,112.5088 L45.0816,111.4912 L46.8096,106.48 L55.9104,106.48 L55.9104,119.2672 Z M64.8384,114.9088 L57.4464,114.9088 L57.4464,112.0288 L64.8384,112.0288 L64.8384,114.9088 Z M80.9856,115.9456 C80.9856,118.0192 78.6432,119.7472 73.5168,119.7472 C68.3904,119.7472 66.048,118.0192 66.048,115.9456 L66.048,115.8304 C66.048,114.544 67.1808,113.3152 69.4848,112.7776 C67.6032,112.4896 66.4128,111.3376 66.4128,110.0512 L66.4128,109.936 C66.4128,108.016 68.4096,106 73.5168,106 C78.6048,106 80.6208,108.016 80.6208,109.936 L80.6208,110.0512 C80.6208,111.3376 79.4112,112.4896 77.5296,112.7776 C79.8528,113.3152 80.9856,114.544 80.9856,115.8304 L80.9856,115.9456 Z M75.1488,110.6656 L75.1488,110.5504 C75.1488,110.032 74.7648,109.4368 73.5168,109.4368 C72.2688,109.4368 71.8656,110.032 71.8656,110.5504 L71.8656,110.6656 C71.8656,111.376 72.5376,111.8176 73.5168,111.8176 C74.496,111.8176 75.1488,111.376 75.1488,110.6656 Z M75.1488,115.1584 L75.1488,115.024 C75.1488,114.4096 74.6112,113.9104 73.5168,113.9104 C72.4032,113.9104 71.8656,114.4096 71.8656,115.024 L71.8656,115.1584 C71.8656,115.7728 72.3264,116.3104 73.5168,116.3104 C74.688,116.3104 75.1488,115.7728 75.1488,115.1584 Z M98.2464,110.9536 C98.2464,113.2768 96.5184,115.3888 92.6784,115.3888 L89.0688,115.3888 L89.0688,119.2672 L82.3872,119.2672 L82.3872,106.48 L92.5248,106.48 C96.384,106.48 98.2464,108.4384 98.2464,110.7616 L98.2464,110.9536 Z M91.488,111.5296 L91.488,111.472 C91.488,110.7616 91.1808,110.416 90.1824,110.416 L89.0688,110.416 L89.0688,112.5856 L90.1824,112.5856 C91.1808,112.5856 91.488,112.2016 91.488,111.5296 Z M122.0736,119.2672 L115.6992,119.2672 L115.6992,112.3744 L115.1616,113.9488 L113.2992,119.2672 L107.5584,119.2672 L105.7152,113.9488 L105.1776,112.3744 L105.1776,119.2672 L99.4944,119.2672 L99.4944,106.48 L108.9024,106.48 L110.6304,111.4912 L110.9376,112.5088 L111.2448,111.4912 L112.9728,106.48 L122.0736,106.48 L122.0736,119.2672 Z" id="6pm-8pm"></path>
            <path d="M18.2784,14.7872 L11.3472,14.7872 L10.5984,12.56 L6.7008,12.56 L5.8368,14.7872 L0,14.7872 L5.6448,2 L12.5184,2 L18.2784,14.7872 Z M9.6384,9.6416 L8.8128,7.2416 L7.872,9.6416 L9.6384,9.6416 Z M33.4656,14.7872 L18.72,14.7872 L18.72,2 L25.4016,2 L25.4016,10.352 L33.4656,10.352 L33.4656,14.7872 Z M49.344,14.7872 L34.5984,14.7872 L34.5984,2 L41.28,2 L41.28,10.352 L49.344,10.352 L49.344,14.7872 Z M72.096,8.4896 C72.096,11.9264 69.1008,14.7872 63.4176,14.7872 L55.2,14.7872 L55.2,2 L63.4176,2 C69.1008,2 72.096,4.8032 72.096,8.2592 L72.096,8.4896 Z M65.2992,8.528 L65.2992,8.2208 C65.2992,6.9344 64.6656,5.8592 62.9376,5.8592 L61.8816,5.8592 L61.8816,10.8896 L62.9376,10.8896 C64.6656,10.8896 65.2992,9.8144 65.2992,8.528 Z M90.2592,14.7872 L83.328,14.7872 L82.5792,12.56 L78.6816,12.56 L77.8176,14.7872 L71.9808,14.7872 L77.6256,2 L84.4992,2 L90.2592,14.7872 Z M81.6192,9.6416 L80.7936,7.2416 L79.8528,9.6416 L81.6192,9.6416 Z M108.3264,2 L102.1632,10.448 L102.1632,14.7872 L95.4816,14.7872 L95.4816,10.448 L89.472,2 L96.864,2 L99.3216,5.7248 L101.6832,2 L108.3264,2 Z" id="ALL-DAY"></path>
            <path d="M14.7456,54 C14.5728,56.2848 13.728,57.7056 11.8272,57.7056 L5.8944,57.7056 L5.6832,59.9904 C6.7968,59.1648 7.8336,58.6848 9.7344,58.6848 C13.056,58.6848 14.8992,60.432 14.8992,62.6208 L14.8992,62.6784 C14.8992,65.1936 12.5376,67.2672 7.6224,67.2672 C4.7808,67.2672 2.4,66.7872 0,65.9232 L1.2672,62.5824 C3.2064,63.2544 5.1264,63.4848 6.816,63.4848 C8.4096,63.4848 9.1008,62.9088 9.1008,62.1408 L9.1008,62.064 C9.1008,61.5264 8.6592,60.8736 7.5072,60.8736 C6.4896,60.8736 5.8944,61.1424 5.1648,61.8144 L0.6528,61.2768 L1.248,54 L14.7456,54 Z M31.9296,58.4736 C31.9296,60.7968 30.2016,62.9088 26.3616,62.9088 L22.752,62.9088 L22.752,66.7872 L16.0704,66.7872 L16.0704,54 L26.208,54 C30.0672,54 31.9296,55.9584 31.9296,58.2816 L31.9296,58.4736 Z M25.1712,59.0496 L25.1712,58.992 C25.1712,58.2816 24.864,57.936 23.8656,57.936 L22.752,57.936 L22.752,60.1056 L23.8656,60.1056 C24.864,60.1056 25.1712,59.7216 25.1712,59.0496 Z M55.7568,66.7872 L49.3824,66.7872 L49.3824,59.8944 L48.8448,61.4688 L46.9824,66.7872 L41.2416,66.7872 L39.3984,61.4688 L38.8608,59.8944 L38.8608,66.7872 L33.1776,66.7872 L33.1776,54 L42.5856,54 L44.3136,59.0112 L44.6208,60.0288 L44.928,59.0112 L46.656,54 L55.7568,54 L55.7568,66.7872 Z M64.6848,62.4288 L57.2928,62.4288 L57.2928,59.5488 L64.6848,59.5488 L64.6848,62.4288 Z M79.4304,56.784 C76.224,59.8944 74.2464,62.6976 73.3248,66.7872 L67.008,66.7872 C68.1216,63.1968 70.8864,59.7792 74.0736,57.936 L65.5872,57.936 L65.5872,54 L79.4304,54 L79.4304,56.784 Z M96.0192,58.4736 C96.0192,60.7968 94.2912,62.9088 90.4512,62.9088 L86.8416,62.9088 L86.8416,66.7872 L80.16,66.7872 L80.16,54 L90.2976,54 C94.1568,54 96.0192,55.9584 96.0192,58.2816 L96.0192,58.4736 Z M89.2608,59.0496 L89.2608,58.992 C89.2608,58.2816 88.9536,57.936 87.9552,57.936 L86.8416,57.936 L86.8416,60.1056 L87.9552,60.1056 C88.9536,60.1056 89.2608,59.7216 89.2608,59.0496 Z M119.8464,66.7872 L113.472,66.7872 L113.472,59.8944 L112.9344,61.4688 L111.072,66.7872 L105.3312,66.7872 L103.488,61.4688 L102.9504,59.8944 L102.9504,66.7872 L97.2672,66.7872 L97.2672,54 L106.6752,54 L108.4032,59.0112 L108.7104,60.0288 L109.0176,59.0112 L110.7456,54 L119.8464,54 L119.8464,66.7872 Z" id="5pm-7pm"></path>
            <path d="M161.936,2.727 L158.264,2.727 L158.264,18.36 L155.699,18.36 L155.699,2.727 L152,2.727 L152,0.378 L161.936,0.378 L161.936,2.727 Z M173.33,18.36 L170.738,18.36 L169.793,13.959 L165.905,13.959 L164.96,18.36 L162.476,18.36 L166.553,0.378 L169.253,0.378 L173.33,18.36 Z M169.334,11.772 L167.849,4.401 L166.364,11.772 L169.334,11.772 Z M185.264,18.549 L184.697,18.549 C182.672,18.549 181.97,17.982 181.97,16.119 L181.97,12.609 C181.97,11.367 181.403,10.53 180.107,10.53 L177.569,10.53 L177.569,18.36 L175.004,18.36 L175.004,0.378 L180.215,0.378 C183.131,0.378 184.427,1.836 184.427,4.401 L184.427,6.372 C184.427,8.127 183.833,9.18 182.105,9.531 C183.806,9.801 184.508,11.232 184.508,12.663 L184.508,15.93 C184.508,16.416 184.724,16.632 185.264,16.632 L185.264,18.549 Z M181.862,6.534 L181.862,4.347 C181.862,3.321 181.43,2.592 180.215,2.592 L177.569,2.592 L177.569,8.586 L179.945,8.586 C181.187,8.586 181.862,7.884 181.862,6.534 Z M196.982,13.608 C196.982,16.551 195.362,18.765 191.96,18.765 C188.585,18.765 186.938,16.551 186.938,13.608 L186.938,5.13 C186.938,2.214 188.585,0 191.96,0 C195.362,0 196.982,2.214 196.982,5.13 L196.982,13.608 Z M194.444,13.824 L194.444,4.914 C194.444,3.375 193.634,2.268 191.96,2.268 C190.286,2.268 189.503,3.375 189.503,4.914 L189.503,13.824 C189.503,15.363 190.286,16.47 191.96,16.47 C193.634,16.47 194.444,15.363 194.444,13.824 Z M208.484,2.727 L204.812,2.727 L204.812,18.36 L202.247,18.36 L202.247,2.727 L198.548,2.727 L198.548,0.378 L208.484,0.378 L208.484,2.727 Z M224.981,18.549 L224.414,18.549 C222.389,18.549 221.687,17.982 221.687,16.119 L221.687,12.609 C221.687,11.367 221.12,10.53 219.824,10.53 L217.286,10.53 L217.286,18.36 L214.721,18.36 L214.721,0.378 L219.932,0.378 C222.848,0.378 224.144,1.836 224.144,4.401 L224.144,6.372 C224.144,8.127 223.55,9.18 221.822,9.531 C223.523,9.801 224.225,11.232 224.225,12.663 L224.225,15.93 C224.225,16.416 224.441,16.632 224.981,16.632 L224.981,18.549 Z M221.579,6.534 L221.579,4.347 C221.579,3.321 221.147,2.592 219.932,2.592 L217.286,2.592 L217.286,8.586 L219.662,8.586 C220.904,8.586 221.579,7.884 221.579,6.534 Z M235.268,18.36 L226.898,18.36 L226.898,0.378 L235.268,0.378 L235.268,2.7 L229.436,2.7 L229.436,7.83 L233.648,7.83 L233.648,10.044 L229.436,10.044 L229.436,16.038 L235.268,16.038 L235.268,18.36 Z M247.094,18.36 L244.502,18.36 L243.557,13.959 L239.669,13.959 L238.724,18.36 L236.24,18.36 L240.317,0.378 L243.017,0.378 L247.094,18.36 Z M243.098,11.772 L241.613,4.401 L240.128,11.772 L243.098,11.772 Z M258.65,13.5 C258.65,16.281 257.192,18.36 253.844,18.36 L248.768,18.36 L248.768,0.378 L253.844,0.378 C257.192,0.378 258.65,2.457 258.65,5.238 L258.65,13.5 Z M256.112,13.392 L256.112,5.373 C256.112,3.672 255.356,2.727 253.682,2.727 L251.333,2.727 L251.333,16.011 L253.682,16.011 C255.356,16.011 256.112,15.066 256.112,13.392 Z M269.693,18.36 L261.323,18.36 L261.323,0.378 L269.693,0.378 L269.693,2.7 L263.861,2.7 L263.861,7.83 L268.073,7.83 L268.073,10.044 L263.861,10.044 L263.861,16.038 L269.693,16.038 L269.693,18.36 Z M282.194,18.549 L281.627,18.549 C279.602,18.549 278.9,17.982 278.9,16.119 L278.9,12.609 C278.9,11.367 278.333,10.53 277.037,10.53 L274.499,10.53 L274.499,18.36 L271.934,18.36 L271.934,0.378 L277.145,0.378 C280.061,0.378 281.357,1.836 281.357,4.401 L281.357,6.372 C281.357,8.127 280.763,9.18 279.035,9.531 C280.736,9.801 281.438,11.232 281.438,12.663 L281.438,15.93 C281.438,16.416 281.654,16.632 282.194,16.632 L282.194,18.549 Z M278.792,6.534 L278.792,4.347 C278.792,3.321 278.36,2.592 277.145,2.592 L274.499,2.592 L274.499,8.586 L276.875,8.586 C278.117,8.586 278.792,7.884 278.792,6.534 Z M293.345,13.878 C293.345,16.848 291.239,18.765 288.404,18.765 C285.434,18.765 283.463,16.821 283.463,14.202 L283.463,12.96 L286.001,12.96 L286.001,13.797 C286.001,15.633 286.838,16.578 288.431,16.578 C289.997,16.578 290.807,15.633 290.807,14.256 C290.807,12.663 290.105,11.664 287.837,10.233 C285.812,8.937 283.679,7.182 283.679,4.59 C283.679,2.025 285.38,0 288.431,0 C291.347,0 293.21,1.917 293.21,4.563 L293.21,5.724 L290.78,5.724 L290.78,4.887 C290.78,3.375 290.051,2.187 288.35,2.187 C286.946,2.187 286.217,3.024 286.217,4.239 C286.217,5.832 286.946,6.669 289.538,8.343 C292.157,10.044 293.345,11.556 293.345,13.878 Z" id="tarot-readers"></path>
            <path d="M162.34,65.14 C162.34,67.921 160.882,70 157.534,70 L152.458,70 L152.458,52.018 L157.534,52.018 C160.882,52.018 162.34,54.097 162.34,56.878 L162.34,65.14 Z M159.802,65.032 L159.802,57.013 C159.802,55.312 159.046,54.367 157.372,54.367 L155.023,54.367 L155.023,67.651 L157.372,67.651 C159.046,67.651 159.802,66.706 159.802,65.032 Z M174.598,70 L172.006,70 L171.061,65.599 L167.173,65.599 L166.228,70 L163.744,70 L167.821,52.018 L170.521,52.018 L174.598,70 Z M170.602,63.412 L169.117,56.041 L167.632,63.412 L170.602,63.412 Z M178.837,70 L176.272,70 L176.272,52.018 L178.837,52.018 L178.837,70 Z M191.905,70 L190.096,70 L185.641,61.252 L184.129,58.093 L184.129,70 L181.699,70 L181.699,52.018 L183.778,52.018 L188.044,60.928 L189.475,64.087 L189.475,52.018 L191.905,52.018 L191.905,70 Z M207.457,70 L199.222,70 L199.222,52.018 L201.76,52.018 L201.76,67.678 L207.457,67.678 L207.457,70 Z M211.858,70 L209.293,70 L209.293,52.018 L211.858,52.018 L211.858,70 Z M224.656,52.018 L220.309,70 L217.852,70 L213.613,52.018 L216.286,52.018 L219.175,65.923 L222.064,52.018 L224.656,52.018 Z M234.7,70 L226.33,70 L226.33,52.018 L234.7,52.018 L234.7,54.34 L228.868,54.34 L228.868,59.47 L233.08,59.47 L233.08,61.684 L228.868,61.684 L228.868,67.678 L234.7,67.678 L234.7,70 Z M251.062,70 L249.793,70 L249.307,68.623 C248.686,69.784 247.417,70.405 245.797,70.405 C242.665,70.405 241.126,68.218 241.126,65.464 L241.126,56.554 C241.126,53.908 242.773,51.64 246.148,51.64 C249.55,51.64 250.954,53.665 250.954,56.554 L250.954,57.607 L248.524,57.607 L248.524,56.257 C248.524,55.042 247.822,53.908 246.148,53.908 C244.474,53.908 243.691,55.096 243.691,56.311 L243.691,65.707 C243.691,66.949 244.447,68.137 246.148,68.137 C247.849,68.137 248.632,66.949 248.632,65.707 L248.632,62.926 L246.229,62.926 L246.229,60.766 L251.062,60.766 L251.062,70 Z M263.86,70.189 L263.293,70.189 C261.268,70.189 260.566,69.622 260.566,67.759 L260.566,64.249 C260.566,63.007 259.999,62.17 258.703,62.17 L256.165,62.17 L256.165,70 L253.6,70 L253.6,52.018 L258.811,52.018 C261.727,52.018 263.023,53.476 263.023,56.041 L263.023,58.012 C263.023,59.767 262.429,60.82 260.701,61.171 C262.402,61.441 263.104,62.872 263.104,64.303 L263.104,67.57 C263.104,68.056 263.32,68.272 263.86,68.272 L263.86,70.189 Z M260.458,58.174 L260.458,55.987 C260.458,54.961 260.026,54.232 258.811,54.232 L256.165,54.232 L256.165,60.226 L258.541,60.226 C259.783,60.226 260.458,59.524 260.458,58.174 Z M275.362,70 L272.77,70 L271.825,65.599 L267.937,65.599 L266.992,70 L264.508,70 L268.585,52.018 L271.285,52.018 L275.362,70 Z M271.366,63.412 L269.881,56.041 L268.396,63.412 L271.366,63.412 Z M285.325,54.313 L279.601,54.313 L279.601,59.848 L284.002,59.848 L284.002,62.089 L279.601,62.089 L279.601,70 L277.036,70 L277.036,51.991 L285.325,51.991 L285.325,54.313 Z M295.504,54.313 L289.78,54.313 L289.78,59.848 L294.181,59.848 L294.181,62.089 L289.78,62.089 L289.78,70 L287.215,70 L287.215,51.991 L295.504,51.991 L295.504,54.313 Z M299.959,70 L297.394,70 L297.394,52.018 L299.959,52.018 L299.959,70 Z M311.677,54.367 L308.005,54.367 L308.005,70 L305.44,70 L305.44,54.367 L301.741,54.367 L301.741,52.018 L311.677,52.018 L311.677,54.367 Z M316.051,70 L313.486,70 L313.486,52.018 L316.051,52.018 L316.051,70 Z" id="dain-live-graffiti"></path>
        </g>
    </g>
</svg>