<?xml version="1.0" encoding="UTF-8"?>
<svg width="420px" height="225px" viewBox="0 0 420 225" version="1.1" xmlns="http://www.w3.org/2000/svg" xmlns:xlink="http://www.w3.org/1999/xlink">
    <!-- Generator: Sketch 49.3 (51167) - http://www.bohemiancoding.com/sketch -->
    <title>tuesday-s</title>
    <desc>Created with Sketch.</desc>
    <defs></defs>
    <g id="tuesday-s" stroke="none" stroke-width="1" fill="none" fill-rule="evenodd">
        <g id="Group-10" transform="translate(0.000000, 1.000000)">
            <g id="Group-6" fill="#000000">
                <g id="Group-3">
                    <path d="M163.37,122.36 L155,122.36 L155,104.378 L163.37,104.378 L163.37,106.7 L157.538,106.7 L157.538,111.83 L161.75,111.83 L161.75,114.044 L157.538,114.044 L157.538,120.038 L163.37,120.038 L163.37,122.36 Z M175.79,122.36 L173.981,122.36 L169.526,113.612 L168.014,110.453 L168.014,122.36 L165.584,122.36 L165.584,104.378 L167.663,104.378 L171.929,113.288 L173.36,116.447 L173.36,104.378 L175.79,104.378 L175.79,122.36 Z M187.913,117.878 C187.913,120.848 185.807,122.765 182.972,122.765 C180.002,122.765 178.031,120.821 178.031,118.202 L178.031,116.96 L180.569,116.96 L180.569,117.797 C180.569,119.633 181.406,120.578 182.999,120.578 C184.565,120.578 185.375,119.633 185.375,118.256 C185.375,116.663 184.673,115.664 182.405,114.233 C180.38,112.937 178.247,111.182 178.247,108.59 C178.247,106.025 179.948,104 182.999,104 C185.915,104 187.778,105.917 187.778,108.563 L187.778,109.724 L185.348,109.724 L185.348,108.887 C185.348,107.375 184.619,106.187 182.918,106.187 C181.514,106.187 180.785,107.024 180.785,108.239 C180.785,109.832 181.514,110.669 184.106,112.343 C186.725,114.044 187.913,115.556 187.913,117.878 Z M198.578,122.36 L190.208,122.36 L190.208,104.378 L198.578,104.378 L198.578,106.7 L192.746,106.7 L192.746,111.83 L196.958,111.83 L196.958,114.044 L192.746,114.044 L192.746,120.038 L198.578,120.038 L198.578,122.36 Z M214.265,122.36 L211.943,122.36 L211.943,108.347 L211.214,111.776 L208.757,122.36 L206.246,122.36 L203.843,111.776 L203.087,108.347 L203.087,122.36 L200.819,122.36 L200.819,104.378 L204.383,104.378 L206.84,115.61 L207.569,119.039 L208.298,115.583 L210.701,104.378 L214.265,104.378 L214.265,122.36 Z M226.739,118.337 C226.739,120.902 225.443,122.36 222.527,122.36 L217.181,122.36 L217.181,104.378 L222.392,104.378 C225.308,104.378 226.55,105.836 226.55,108.401 L226.55,109.859 C226.55,111.722 225.794,112.775 224.255,113.099 C226.01,113.45 226.739,114.665 226.739,116.42 L226.739,118.337 Z M224.039,110.237 L224.039,108.347 C224.039,107.321 223.634,106.592 222.419,106.592 L219.746,106.592 L219.746,112.262 L222.122,112.262 C223.391,112.262 224.039,111.56 224.039,110.237 Z M224.174,118.418 L224.174,116.312 C224.174,114.989 223.499,114.287 222.257,114.287 L219.746,114.287 L219.746,120.146 L222.527,120.146 C223.742,120.146 224.174,119.417 224.174,118.418 Z M237.458,122.36 L229.223,122.36 L229.223,104.378 L231.761,104.378 L231.761,120.038 L237.458,120.038 L237.458,122.36 Z M247.664,122.36 L239.294,122.36 L239.294,104.378 L247.664,104.378 L247.664,106.7 L241.832,106.7 L241.832,111.83 L246.044,111.83 L246.044,114.044 L241.832,114.044 L241.832,120.038 L247.664,120.038 L247.664,122.36 Z M262.703,122.36 L254.333,122.36 L254.333,104.378 L262.703,104.378 L262.703,106.7 L256.871,106.7 L256.871,111.83 L261.083,111.83 L261.083,114.044 L256.871,114.044 L256.871,120.038 L262.703,120.038 L262.703,122.36 Z M275.123,122.36 L273.314,122.36 L268.859,113.612 L267.347,110.453 L267.347,122.36 L264.917,122.36 L264.917,104.378 L266.996,104.378 L271.262,113.288 L272.693,116.447 L272.693,104.378 L275.123,104.378 L275.123,122.36 Z M286.841,106.727 L283.169,106.727 L283.169,122.36 L280.604,122.36 L280.604,106.727 L276.905,106.727 L276.905,104.378 L286.841,104.378 L286.841,106.727 Z M297.02,122.36 L288.65,122.36 L288.65,104.378 L297.02,104.378 L297.02,106.7 L291.188,106.7 L291.188,111.83 L295.4,111.83 L295.4,114.044 L291.188,114.044 L291.188,120.038 L297.02,120.038 L297.02,122.36 Z M309.44,122.36 L307.631,122.36 L303.176,113.612 L301.664,110.453 L301.664,122.36 L299.234,122.36 L299.234,104.378 L301.313,104.378 L305.579,113.288 L307.01,116.447 L307.01,104.378 L309.44,104.378 L309.44,122.36 Z M322.211,117.5 C322.211,120.281 320.753,122.36 317.405,122.36 L312.329,122.36 L312.329,104.378 L317.405,104.378 C320.753,104.378 322.211,106.457 322.211,109.238 L322.211,117.5 Z M319.673,117.392 L319.673,109.373 C319.673,107.672 318.917,106.727 317.243,106.727 L314.894,106.727 L314.894,120.011 L317.243,120.011 C318.917,120.011 319.673,119.066 319.673,117.392 Z M334.847,118.067 C334.847,121.037 332.768,122.765 329.825,122.765 C326.909,122.765 324.83,121.037 324.83,118.067 L324.83,104.378 L327.395,104.378 L327.395,118.067 C327.395,119.66 328.178,120.524 329.852,120.524 C331.526,120.524 332.309,119.66 332.309,118.067 L332.309,104.378 L334.847,104.378 L334.847,118.067 Z M339.923,113.585 L337.709,113.585 L337.709,110.534 L339.923,110.534 L339.923,113.585 Z M339.923,122.36 L337.709,122.36 L337.709,119.309 L339.923,119.309 L339.923,122.36 Z M164.423,138.02 C164.423,140.558 163.127,142.151 160.211,142.151 L157.538,142.151 L157.538,149.36 L155,149.36 L155,131.378 L160.211,131.378 C163.127,131.378 164.423,132.944 164.423,135.536 L164.423,138.02 Z M161.858,138.101 L161.858,135.455 C161.858,134.267 161.426,133.592 160.238,133.592 L157.538,133.592 L157.538,139.964 L160.238,139.964 C161.426,139.964 161.858,139.262 161.858,138.101 Z M176.816,149.36 L174.278,149.36 L174.278,141.476 L169.175,141.476 L169.175,149.36 L166.61,149.36 L166.61,131.378 L169.175,131.378 L169.175,139.181 L174.278,139.181 L174.278,131.378 L176.816,131.378 L176.816,149.36 Z M189.533,144.608 C189.533,147.551 187.913,149.765 184.511,149.765 C181.136,149.765 179.489,147.551 179.489,144.608 L179.489,136.13 C179.489,133.214 181.136,131 184.511,131 C187.913,131 189.533,133.214 189.533,136.13 L189.533,144.608 Z M186.995,144.824 L186.995,135.914 C186.995,134.375 186.185,133.268 184.511,133.268 C182.837,133.268 182.054,134.375 182.054,135.914 L182.054,144.824 C182.054,146.363 182.837,147.47 184.511,147.47 C186.185,147.47 186.995,146.363 186.995,144.824 Z M201.035,133.727 L197.363,133.727 L197.363,149.36 L194.798,149.36 L194.798,133.727 L191.099,133.727 L191.099,131.378 L201.035,131.378 L201.035,133.727 Z M212.429,149.36 L209.837,149.36 L208.892,144.959 L205.004,144.959 L204.059,149.36 L201.575,149.36 L205.652,131.378 L208.352,131.378 L212.429,149.36 Z M208.433,142.772 L206.948,135.401 L205.463,142.772 L208.433,142.772 Z M223.769,131.378 L219.449,142.124 L219.449,149.36 L216.911,149.36 L216.911,142.124 L212.564,131.378 L215.318,131.378 L218.261,139.667 L221.204,131.378 L223.769,131.378 Z M242.885,146.822 C242.885,148.739 241.805,149.765 240.104,149.765 C239.105,149.765 238.106,149.198 237.161,148.28 C236.135,149.198 234.731,149.765 233.354,149.765 C230.681,149.765 228.953,147.767 228.953,145.283 C228.953,142.907 230.276,141.098 232.355,139.613 C231.869,138.29 231.572,136.859 231.572,135.644 C231.572,133.025 233.03,130.973 235.541,130.973 C237.917,130.973 238.97,132.674 238.97,134.942 C238.97,137.264 237.296,138.992 235.028,140.369 C235.568,141.962 236.405,143.933 237.242,145.121 C238.268,143.582 238.97,141.395 238.97,140.072 L240.995,140.072 C240.968,142.097 239.969,144.824 238.592,146.768 C239.132,147.335 239.726,147.659 240.293,147.659 C240.833,147.659 241.076,147.389 241.076,146.741 L241.076,145.013 L242.885,145.013 L242.885,146.822 Z M236.81,134.969 C236.81,133.889 236.432,133.187 235.541,133.187 C234.488,133.187 233.867,134.051 233.867,135.617 C233.867,136.4 234.056,137.453 234.353,138.56 C236.216,137.318 236.81,135.914 236.81,134.969 Z M235.784,146.822 C234.758,145.472 233.813,143.501 233.111,141.665 C232.085,142.475 231.383,143.609 231.383,144.932 C231.383,146.687 232.328,147.578 233.948,147.578 C234.677,147.578 235.379,147.227 235.784,146.822 Z M258.221,144.878 C258.221,147.848 256.115,149.765 253.28,149.765 C250.31,149.765 248.339,147.821 248.339,145.202 L248.339,143.96 L250.877,143.96 L250.877,144.797 C250.877,146.633 251.714,147.578 253.307,147.578 C254.873,147.578 255.683,146.633 255.683,145.256 C255.683,143.663 254.981,142.664 252.713,141.233 C250.688,139.937 248.555,138.182 248.555,135.59 C248.555,133.025 250.256,131 253.307,131 C256.223,131 258.086,132.917 258.086,135.563 L258.086,136.724 L255.656,136.724 L255.656,135.887 C255.656,134.375 254.927,133.187 253.226,133.187 C251.822,133.187 251.093,134.024 251.093,135.239 C251.093,136.832 251.822,137.669 254.414,139.343 C257.033,141.044 258.221,142.556 258.221,144.878 Z M270.101,149.36 L267.509,149.36 L266.564,144.959 L262.676,144.959 L261.731,149.36 L259.247,149.36 L263.324,131.378 L266.024,131.378 L270.101,149.36 Z M266.105,142.772 L264.62,135.401 L263.135,142.772 L266.105,142.772 Z M285.221,149.36 L282.899,149.36 L282.899,135.347 L282.17,138.776 L279.713,149.36 L277.202,149.36 L274.799,138.776 L274.043,135.347 L274.043,149.36 L271.775,149.36 L271.775,131.378 L275.339,131.378 L277.796,142.61 L278.525,146.039 L279.254,142.583 L281.657,131.378 L285.221,131.378 L285.221,149.36 Z M302.366,144.608 C302.366,147.551 300.746,149.765 297.344,149.765 C293.969,149.765 292.322,147.551 292.322,144.608 L292.322,136.13 C292.322,133.214 293.969,131 297.344,131 C300.746,131 302.366,133.214 302.366,136.13 L302.366,144.608 Z M299.828,144.824 L299.828,135.914 C299.828,134.375 299.018,133.268 297.344,133.268 C295.67,133.268 294.887,134.375 294.887,135.914 L294.887,144.824 C294.887,146.363 295.67,147.47 297.344,147.47 C299.018,147.47 299.828,146.363 299.828,144.824 Z M314.597,145.337 C314.597,147.902 313.301,149.36 310.385,149.36 L305.039,149.36 L305.039,131.378 L310.25,131.378 C313.166,131.378 314.408,132.836 314.408,135.401 L314.408,136.859 C314.408,138.722 313.652,139.775 312.113,140.099 C313.868,140.45 314.597,141.665 314.597,143.42 L314.597,145.337 Z M311.897,137.237 L311.897,135.347 C311.897,134.321 311.492,133.592 310.277,133.592 L307.604,133.592 L307.604,139.262 L309.98,139.262 C311.249,139.262 311.897,138.56 311.897,137.237 Z M312.032,145.418 L312.032,143.312 C312.032,141.989 311.357,141.287 310.115,141.287 L307.604,141.287 L307.604,147.146 L310.385,147.146 C311.6,147.146 312.032,146.417 312.032,145.418 Z M319.295,149.009 C319.295,150.71 318.485,151.925 316.595,151.925 L316.595,151.142 C317.54,151.142 318.08,150.467 318.08,149.36 L317.081,149.36 L317.081,146.309 L319.295,146.309 L319.295,149.009 Z M336.494,144.5 C336.494,147.281 335.036,149.36 331.688,149.36 L326.612,149.36 L326.612,131.378 L331.688,131.378 C335.036,131.378 336.494,133.457 336.494,136.238 L336.494,144.5 Z M333.956,144.392 L333.956,136.373 C333.956,134.672 333.2,133.727 331.526,133.727 L329.177,133.727 L329.177,147.011 L331.526,147.011 C333.2,147.011 333.956,146.066 333.956,144.392 Z M347.726,144.77 C347.726,147.686 346.403,149.765 343.163,149.765 C340.085,149.765 338.492,148.01 338.492,145.067 L338.492,142.205 L340.895,142.205 L340.895,144.986 C340.895,146.66 341.651,147.47 343.082,147.47 C344.513,147.47 345.161,146.66 345.161,144.986 L345.161,131.378 L347.726,131.378 L347.726,144.77 Z M364.25,144.878 C364.25,147.848 362.144,149.765 359.309,149.765 C356.339,149.765 354.368,147.821 354.368,145.202 L354.368,143.96 L356.906,143.96 L356.906,144.797 C356.906,146.633 357.743,147.578 359.336,147.578 C360.902,147.578 361.712,146.633 361.712,145.256 C361.712,143.663 361.01,142.664 358.742,141.233 C356.717,139.937 354.584,138.182 354.584,135.59 C354.584,133.025 356.285,131 359.336,131 C362.252,131 364.115,132.917 364.115,135.563 L364.115,136.724 L361.685,136.724 L361.685,135.887 C361.685,134.375 360.956,133.187 359.255,133.187 C357.851,133.187 357.122,134.024 357.122,135.239 C357.122,136.832 357.851,137.669 360.443,139.343 C363.062,141.044 364.25,142.556 364.25,144.878 Z M374.915,149.36 L366.545,149.36 L366.545,131.378 L374.915,131.378 L374.915,133.7 L369.083,133.7 L369.083,138.83 L373.295,138.83 L373.295,141.044 L369.083,141.044 L369.083,147.038 L374.915,147.038 L374.915,149.36 Z M385.985,133.727 L382.313,133.727 L382.313,149.36 L379.748,149.36 L379.748,133.727 L376.049,133.727 L376.049,131.378 L385.985,131.378 L385.985,133.727 Z" id="ensemble-entendu:-ph"></path>
                    <path d="M15.0912,114.9856 C15.0912,117.52 12.288,119.7472 7.8912,119.7472 C3.168,119.7472 0,117.2704 0,113.2576 L0,112.9504 C0,108.7456 3.8592,106 8.448,106 C10.9056,106 12.6912,106.4416 14.6688,107.2672 L13.4016,110.3584 C12.2688,109.9744 10.944,109.6864 9.5424,109.6864 C7.3152,109.6864 5.76,110.9152 5.76,112.5664 L5.76,112.7584 C6.8736,111.76 8.1216,111.0304 10.272,111.0304 C13.2672,111.0304 15.0912,112.8736 15.0912,114.8896 L15.0912,114.9856 Z M9.8496,114.5632 L9.8496,114.5056 C9.8496,113.8528 9.2352,113.296 8.0448,113.296 C7.0848,113.296 6.3936,113.6608 5.76,114.1792 L5.76,114.2368 C5.76,115.1584 6.6624,115.9072 7.7568,115.9072 C9.0816,115.9072 9.8496,115.1776 9.8496,114.5632 Z M32.0832,110.9536 C32.0832,113.2768 30.3552,115.3888 26.5152,115.3888 L22.9056,115.3888 L22.9056,119.2672 L16.224,119.2672 L16.224,106.48 L26.3616,106.48 C30.2208,106.48 32.0832,108.4384 32.0832,110.7616 L32.0832,110.9536 Z M25.3248,111.5296 L25.3248,111.472 C25.3248,110.7616 25.0176,110.416 24.0192,110.416 L22.9056,110.416 L22.9056,112.5856 L24.0192,112.5856 C25.0176,112.5856 25.3248,112.2016 25.3248,111.5296 Z M55.9104,119.2672 L49.536,119.2672 L49.536,112.3744 L48.9984,113.9488 L47.136,119.2672 L41.3952,119.2672 L39.552,113.9488 L39.0144,112.3744 L39.0144,119.2672 L33.3312,119.2672 L33.3312,106.48 L42.7392,106.48 L44.4672,111.4912 L44.7744,112.5088 L45.0816,111.4912 L46.8096,106.48 L55.9104,106.48 L55.9104,119.2672 Z M64.8384,114.9088 L57.4464,114.9088 L57.4464,112.0288 L64.8384,112.0288 L64.8384,114.9088 Z M80.9856,115.9456 C80.9856,118.0192 78.6432,119.7472 73.5168,119.7472 C68.3904,119.7472 66.048,118.0192 66.048,115.9456 L66.048,115.8304 C66.048,114.544 67.1808,113.3152 69.4848,112.7776 C67.6032,112.4896 66.4128,111.3376 66.4128,110.0512 L66.4128,109.936 C66.4128,108.016 68.4096,106 73.5168,106 C78.6048,106 80.6208,108.016 80.6208,109.936 L80.6208,110.0512 C80.6208,111.3376 79.4112,112.4896 77.5296,112.7776 C79.8528,113.3152 80.9856,114.544 80.9856,115.8304 L80.9856,115.9456 Z M75.1488,110.6656 L75.1488,110.5504 C75.1488,110.032 74.7648,109.4368 73.5168,109.4368 C72.2688,109.4368 71.8656,110.032 71.8656,110.5504 L71.8656,110.6656 C71.8656,111.376 72.5376,111.8176 73.5168,111.8176 C74.496,111.8176 75.1488,111.376 75.1488,110.6656 Z M75.1488,115.1584 L75.1488,115.024 C75.1488,114.4096 74.6112,113.9104 73.5168,113.9104 C72.4032,113.9104 71.8656,114.4096 71.8656,115.024 L71.8656,115.1584 C71.8656,115.7728 72.3264,116.3104 73.5168,116.3104 C74.688,116.3104 75.1488,115.7728 75.1488,115.1584 Z M98.2464,110.9536 C98.2464,113.2768 96.5184,115.3888 92.6784,115.3888 L89.0688,115.3888 L89.0688,119.2672 L82.3872,119.2672 L82.3872,106.48 L92.5248,106.48 C96.384,106.48 98.2464,108.4384 98.2464,110.7616 L98.2464,110.9536 Z M91.488,111.5296 L91.488,111.472 C91.488,110.7616 91.1808,110.416 90.1824,110.416 L89.0688,110.416 L89.0688,112.5856 L90.1824,112.5856 C91.1808,112.5856 91.488,112.2016 91.488,111.5296 Z M122.0736,119.2672 L115.6992,119.2672 L115.6992,112.3744 L115.1616,113.9488 L113.2992,119.2672 L107.5584,119.2672 L105.7152,113.9488 L105.1776,112.3744 L105.1776,119.2672 L99.4944,119.2672 L99.4944,106.48 L108.9024,106.48 L110.6304,111.4912 L110.9376,112.5088 L111.2448,111.4912 L112.9728,106.48 L122.0736,106.48 L122.0736,119.2672 Z" id="6pm-8pm"></path>
                    <path d="M18.2784,14.7872 L11.3472,14.7872 L10.5984,12.56 L6.7008,12.56 L5.8368,14.7872 L0,14.7872 L5.6448,2 L12.5184,2 L18.2784,14.7872 Z M9.6384,9.6416 L8.8128,7.2416 L7.872,9.6416 L9.6384,9.6416 Z M33.4656,14.7872 L18.72,14.7872 L18.72,2 L25.4016,2 L25.4016,10.352 L33.4656,10.352 L33.4656,14.7872 Z M49.344,14.7872 L34.5984,14.7872 L34.5984,2 L41.28,2 L41.28,10.352 L49.344,10.352 L49.344,14.7872 Z M72.096,8.4896 C72.096,11.9264 69.1008,14.7872 63.4176,14.7872 L55.2,14.7872 L55.2,2 L63.4176,2 C69.1008,2 72.096,4.8032 72.096,8.2592 L72.096,8.4896 Z M65.2992,8.528 L65.2992,8.2208 C65.2992,6.9344 64.6656,5.8592 62.9376,5.8592 L61.8816,5.8592 L61.8816,10.8896 L62.9376,10.8896 C64.6656,10.8896 65.2992,9.8144 65.2992,8.528 Z M90.2592,14.7872 L83.328,14.7872 L82.5792,12.56 L78.6816,12.56 L77.8176,14.7872 L71.9808,14.7872 L77.6256,2 L84.4992,2 L90.2592,14.7872 Z M81.6192,9.6416 L80.7936,7.2416 L79.8528,9.6416 L81.6192,9.6416 Z M108.3264,2 L102.1632,10.448 L102.1632,14.7872 L95.4816,14.7872 L95.4816,10.448 L89.472,2 L96.864,2 L99.3216,5.7248 L101.6832,2 L108.3264,2 Z" id="ALL-DAY"></path>
                    <path d="M14.7456,54 C14.5728,56.2848 13.728,57.7056 11.8272,57.7056 L5.8944,57.7056 L5.6832,59.9904 C6.7968,59.1648 7.8336,58.6848 9.7344,58.6848 C13.056,58.6848 14.8992,60.432 14.8992,62.6208 L14.8992,62.6784 C14.8992,65.1936 12.5376,67.2672 7.6224,67.2672 C4.7808,67.2672 2.4,66.7872 0,65.9232 L1.2672,62.5824 C3.2064,63.2544 5.1264,63.4848 6.816,63.4848 C8.4096,63.4848 9.1008,62.9088 9.1008,62.1408 L9.1008,62.064 C9.1008,61.5264 8.6592,60.8736 7.5072,60.8736 C6.4896,60.8736 5.8944,61.1424 5.1648,61.8144 L0.6528,61.2768 L1.248,54 L14.7456,54 Z M31.9296,58.4736 C31.9296,60.7968 30.2016,62.9088 26.3616,62.9088 L22.752,62.9088 L22.752,66.7872 L16.0704,66.7872 L16.0704,54 L26.208,54 C30.0672,54 31.9296,55.9584 31.9296,58.2816 L31.9296,58.4736 Z M25.1712,59.0496 L25.1712,58.992 C25.1712,58.2816 24.864,57.936 23.8656,57.936 L22.752,57.936 L22.752,60.1056 L23.8656,60.1056 C24.864,60.1056 25.1712,59.7216 25.1712,59.0496 Z M55.7568,66.7872 L49.3824,66.7872 L49.3824,59.8944 L48.8448,61.4688 L46.9824,66.7872 L41.2416,66.7872 L39.3984,61.4688 L38.8608,59.8944 L38.8608,66.7872 L33.1776,66.7872 L33.1776,54 L42.5856,54 L44.3136,59.0112 L44.6208,60.0288 L44.928,59.0112 L46.656,54 L55.7568,54 L55.7568,66.7872 Z M64.6848,62.4288 L57.2928,62.4288 L57.2928,59.5488 L64.6848,59.5488 L64.6848,62.4288 Z M79.4304,56.784 C76.224,59.8944 74.2464,62.6976 73.3248,66.7872 L67.008,66.7872 C68.1216,63.1968 70.8864,59.7792 74.0736,57.936 L65.5872,57.936 L65.5872,54 L79.4304,54 L79.4304,56.784 Z M96.0192,58.4736 C96.0192,60.7968 94.2912,62.9088 90.4512,62.9088 L86.8416,62.9088 L86.8416,66.7872 L80.16,66.7872 L80.16,54 L90.2976,54 C94.1568,54 96.0192,55.9584 96.0192,58.2816 L96.0192,58.4736 Z M89.2608,59.0496 L89.2608,58.992 C89.2608,58.2816 88.9536,57.936 87.9552,57.936 L86.8416,57.936 L86.8416,60.1056 L87.9552,60.1056 C88.9536,60.1056 89.2608,59.7216 89.2608,59.0496 Z M119.8464,66.7872 L113.472,66.7872 L113.472,59.8944 L112.9344,61.4688 L111.072,66.7872 L105.3312,66.7872 L103.488,61.4688 L102.9504,59.8944 L102.9504,66.7872 L97.2672,66.7872 L97.2672,54 L106.6752,54 L108.4032,59.0112 L108.7104,60.0288 L109.0176,59.0112 L110.7456,54 L119.8464,54 L119.8464,66.7872 Z" id="5pm-7pm"></path>
                    <path d="M164.936,2.727 L161.264,2.727 L161.264,18.36 L158.699,18.36 L158.699,2.727 L155,2.727 L155,0.378 L164.936,0.378 L164.936,2.727 Z M176.33,18.36 L173.738,18.36 L172.793,13.959 L168.905,13.959 L167.96,18.36 L165.476,18.36 L169.553,0.378 L172.253,0.378 L176.33,18.36 Z M172.334,11.772 L170.849,4.401 L169.364,11.772 L172.334,11.772 Z M188.264,18.549 L187.697,18.549 C185.672,18.549 184.97,17.982 184.97,16.119 L184.97,12.609 C184.97,11.367 184.403,10.53 183.107,10.53 L180.569,10.53 L180.569,18.36 L178.004,18.36 L178.004,0.378 L183.215,0.378 C186.131,0.378 187.427,1.836 187.427,4.401 L187.427,6.372 C187.427,8.127 186.833,9.18 185.105,9.531 C186.806,9.801 187.508,11.232 187.508,12.663 L187.508,15.93 C187.508,16.416 187.724,16.632 188.264,16.632 L188.264,18.549 Z M184.862,6.534 L184.862,4.347 C184.862,3.321 184.43,2.592 183.215,2.592 L180.569,2.592 L180.569,8.586 L182.945,8.586 C184.187,8.586 184.862,7.884 184.862,6.534 Z M199.982,13.608 C199.982,16.551 198.362,18.765 194.96,18.765 C191.585,18.765 189.938,16.551 189.938,13.608 L189.938,5.13 C189.938,2.214 191.585,0 194.96,0 C198.362,0 199.982,2.214 199.982,5.13 L199.982,13.608 Z M197.444,13.824 L197.444,4.914 C197.444,3.375 196.634,2.268 194.96,2.268 C193.286,2.268 192.503,3.375 192.503,4.914 L192.503,13.824 C192.503,15.363 193.286,16.47 194.96,16.47 C196.634,16.47 197.444,15.363 197.444,13.824 Z M211.484,2.727 L207.812,2.727 L207.812,18.36 L205.247,18.36 L205.247,2.727 L201.548,2.727 L201.548,0.378 L211.484,0.378 L211.484,2.727 Z M227.981,18.549 L227.414,18.549 C225.389,18.549 224.687,17.982 224.687,16.119 L224.687,12.609 C224.687,11.367 224.12,10.53 222.824,10.53 L220.286,10.53 L220.286,18.36 L217.721,18.36 L217.721,0.378 L222.932,0.378 C225.848,0.378 227.144,1.836 227.144,4.401 L227.144,6.372 C227.144,8.127 226.55,9.18 224.822,9.531 C226.523,9.801 227.225,11.232 227.225,12.663 L227.225,15.93 C227.225,16.416 227.441,16.632 227.981,16.632 L227.981,18.549 Z M224.579,6.534 L224.579,4.347 C224.579,3.321 224.147,2.592 222.932,2.592 L220.286,2.592 L220.286,8.586 L222.662,8.586 C223.904,8.586 224.579,7.884 224.579,6.534 Z M238.268,18.36 L229.898,18.36 L229.898,0.378 L238.268,0.378 L238.268,2.7 L232.436,2.7 L232.436,7.83 L236.648,7.83 L236.648,10.044 L232.436,10.044 L232.436,16.038 L238.268,16.038 L238.268,18.36 Z M250.094,18.36 L247.502,18.36 L246.557,13.959 L242.669,13.959 L241.724,18.36 L239.24,18.36 L243.317,0.378 L246.017,0.378 L250.094,18.36 Z M246.098,11.772 L244.613,4.401 L243.128,11.772 L246.098,11.772 Z M261.65,13.5 C261.65,16.281 260.192,18.36 256.844,18.36 L251.768,18.36 L251.768,0.378 L256.844,0.378 C260.192,0.378 261.65,2.457 261.65,5.238 L261.65,13.5 Z M259.112,13.392 L259.112,5.373 C259.112,3.672 258.356,2.727 256.682,2.727 L254.333,2.727 L254.333,16.011 L256.682,16.011 C258.356,16.011 259.112,15.066 259.112,13.392 Z M272.693,18.36 L264.323,18.36 L264.323,0.378 L272.693,0.378 L272.693,2.7 L266.861,2.7 L266.861,7.83 L271.073,7.83 L271.073,10.044 L266.861,10.044 L266.861,16.038 L272.693,16.038 L272.693,18.36 Z M285.194,18.549 L284.627,18.549 C282.602,18.549 281.9,17.982 281.9,16.119 L281.9,12.609 C281.9,11.367 281.333,10.53 280.037,10.53 L277.499,10.53 L277.499,18.36 L274.934,18.36 L274.934,0.378 L280.145,0.378 C283.061,0.378 284.357,1.836 284.357,4.401 L284.357,6.372 C284.357,8.127 283.763,9.18 282.035,9.531 C283.736,9.801 284.438,11.232 284.438,12.663 L284.438,15.93 C284.438,16.416 284.654,16.632 285.194,16.632 L285.194,18.549 Z M281.792,6.534 L281.792,4.347 C281.792,3.321 281.36,2.592 280.145,2.592 L277.499,2.592 L277.499,8.586 L279.875,8.586 C281.117,8.586 281.792,7.884 281.792,6.534 Z M296.345,13.878 C296.345,16.848 294.239,18.765 291.404,18.765 C288.434,18.765 286.463,16.821 286.463,14.202 L286.463,12.96 L289.001,12.96 L289.001,13.797 C289.001,15.633 289.838,16.578 291.431,16.578 C292.997,16.578 293.807,15.633 293.807,14.256 C293.807,12.663 293.105,11.664 290.837,10.233 C288.812,8.937 286.679,7.182 286.679,4.59 C286.679,2.025 288.38,0 291.431,0 C294.347,0 296.21,1.917 296.21,4.563 L296.21,5.724 L293.78,5.724 L293.78,4.887 C293.78,3.375 293.051,2.187 291.35,2.187 C289.946,2.187 289.217,3.024 289.217,4.239 C289.217,5.832 289.946,6.669 292.538,8.343 C295.157,10.044 296.345,11.556 296.345,13.878 Z" id="tarot-readers"></path>
                    <path d="M165.34,65.14 C165.34,67.921 163.882,70 160.534,70 L155.458,70 L155.458,52.018 L160.534,52.018 C163.882,52.018 165.34,54.097 165.34,56.878 L165.34,65.14 Z M162.802,65.032 L162.802,57.013 C162.802,55.312 162.046,54.367 160.372,54.367 L158.023,54.367 L158.023,67.651 L160.372,67.651 C162.046,67.651 162.802,66.706 162.802,65.032 Z M177.598,70 L175.006,70 L174.061,65.599 L170.173,65.599 L169.228,70 L166.744,70 L170.821,52.018 L173.521,52.018 L177.598,70 Z M173.602,63.412 L172.117,56.041 L170.632,63.412 L173.602,63.412 Z M181.837,70 L179.272,70 L179.272,52.018 L181.837,52.018 L181.837,70 Z M194.905,70 L193.096,70 L188.641,61.252 L187.129,58.093 L187.129,70 L184.699,70 L184.699,52.018 L186.778,52.018 L191.044,60.928 L192.475,64.087 L192.475,52.018 L194.905,52.018 L194.905,70 Z M210.457,70 L202.222,70 L202.222,52.018 L204.76,52.018 L204.76,67.678 L210.457,67.678 L210.457,70 Z M214.858,70 L212.293,70 L212.293,52.018 L214.858,52.018 L214.858,70 Z M227.656,52.018 L223.309,70 L220.852,70 L216.613,52.018 L219.286,52.018 L222.175,65.923 L225.064,52.018 L227.656,52.018 Z M237.7,70 L229.33,70 L229.33,52.018 L237.7,52.018 L237.7,54.34 L231.868,54.34 L231.868,59.47 L236.08,59.47 L236.08,61.684 L231.868,61.684 L231.868,67.678 L237.7,67.678 L237.7,70 Z M254.062,70 L252.793,70 L252.307,68.623 C251.686,69.784 250.417,70.405 248.797,70.405 C245.665,70.405 244.126,68.218 244.126,65.464 L244.126,56.554 C244.126,53.908 245.773,51.64 249.148,51.64 C252.55,51.64 253.954,53.665 253.954,56.554 L253.954,57.607 L251.524,57.607 L251.524,56.257 C251.524,55.042 250.822,53.908 249.148,53.908 C247.474,53.908 246.691,55.096 246.691,56.311 L246.691,65.707 C246.691,66.949 247.447,68.137 249.148,68.137 C250.849,68.137 251.632,66.949 251.632,65.707 L251.632,62.926 L249.229,62.926 L249.229,60.766 L254.062,60.766 L254.062,70 Z M266.86,70.189 L266.293,70.189 C264.268,70.189 263.566,69.622 263.566,67.759 L263.566,64.249 C263.566,63.007 262.999,62.17 261.703,62.17 L259.165,62.17 L259.165,70 L256.6,70 L256.6,52.018 L261.811,52.018 C264.727,52.018 266.023,53.476 266.023,56.041 L266.023,58.012 C266.023,59.767 265.429,60.82 263.701,61.171 C265.402,61.441 266.104,62.872 266.104,64.303 L266.104,67.57 C266.104,68.056 266.32,68.272 266.86,68.272 L266.86,70.189 Z M263.458,58.174 L263.458,55.987 C263.458,54.961 263.026,54.232 261.811,54.232 L259.165,54.232 L259.165,60.226 L261.541,60.226 C262.783,60.226 263.458,59.524 263.458,58.174 Z M278.362,70 L275.77,70 L274.825,65.599 L270.937,65.599 L269.992,70 L267.508,70 L271.585,52.018 L274.285,52.018 L278.362,70 Z M274.366,63.412 L272.881,56.041 L271.396,63.412 L274.366,63.412 Z M288.325,54.313 L282.601,54.313 L282.601,59.848 L287.002,59.848 L287.002,62.089 L282.601,62.089 L282.601,70 L280.036,70 L280.036,51.991 L288.325,51.991 L288.325,54.313 Z M298.504,54.313 L292.78,54.313 L292.78,59.848 L297.181,59.848 L297.181,62.089 L292.78,62.089 L292.78,70 L290.215,70 L290.215,51.991 L298.504,51.991 L298.504,54.313 Z M302.959,70 L300.394,70 L300.394,52.018 L302.959,52.018 L302.959,70 Z M314.677,54.367 L311.005,54.367 L311.005,70 L308.44,70 L308.44,54.367 L304.741,54.367 L304.741,52.018 L314.677,52.018 L314.677,54.367 Z M319.051,70 L316.486,70 L316.486,52.018 L319.051,52.018 L319.051,70 Z" id="dain-live-graffiti"></path>
                </g>
            </g>
            <g id="Group-2" transform="translate(0.000000, 2.000000)"></g>
            <g id="Group-5" transform="translate(0.000000, 54.000000)"></g>
        </g>
        <g id="Group" transform="translate(155.000000, 52.000000)">
            <g id="Group-5"></g>
        </g>
    </g>
</svg>