<svg height="38" viewBox="0 0 287 38" width="287" xmlns="http://www.w3.org/2000/svg"><g fill="none" fill-rule="evenodd" transform=""><path d="m0 0h287v38h-287z" fill="#000"/><path d="m27.236 18.994c0 4.026-2.838 6.556-8.03 6.556-3.102 0-6.072-.814-8.404-2.332l2.156-4.334c1.606.792 3.234 1.342 4.796 1.342 1.32 0 1.826-.616 1.826-1.804v-8.074h7.656zm21.1768773-.286c0 3.828-2.596 6.842-9.526 6.842-6.908 0-9.636-3.014-9.636-6.842v-8.36h7.656v7.81c0 1.826.55 2.618 2.376 2.618s2.332-.792 2.332-2.618v-7.81h6.798zm21.2208773 6.292h-6.556l-5.126-5.082-.55-.638v5.72h-6.864v-14.652h6.204l5.5 5.126.506.55v-5.676h6.886zm19.0208773 0h-16.786v-14.652h16.786v4.686h-9.13v1.386h5.72v2.244h-5.72v1.254h9.13zm14.3917541 0h-6.7979995v-12.144c1.826 0 2.772-1.21 2.772-2.508h4.0259995zm17.700878-3.762c0 2.2-3.168 4.312-8.25 4.312-2.794 0-5.522-.594-8.206-1.65l1.452-4.048c2.002.836 4.136 1.43 5.94 1.43 1.54 0 2.266-.418 2.266-1.078v-.066c0-.704-.77-1.078-2.09-1.078h-1.496v-2.772h1.562c1.232 0 2.024-.418 2.024-1.078v-.066c0-.616-.748-1.078-2.266-1.078-1.958 0-3.586.55-5.302 1.43l-1.452-4.048c2.662-1.166 4.4-1.65 7.942-1.65 4.928 0 7.656 2.156 7.656 4.202v.11c0 1.452-1.144 3.168-4.95 3.454 4.224.418 5.17 2.09 5.17 3.542z" fill="#fff"/></g></svg>