<?xml version="1.0" encoding="UTF-8"?>
<svg width="420px" height="45px" viewBox="0 0 420 45" version="1.1" xmlns="http://www.w3.org/2000/svg" xmlns:xlink="http://www.w3.org/1999/xlink">
    <!-- Generator: Sketch 49.3 (51167) - http://www.bohemiancoding.com/sketch -->
    <title>June 12</title>
    <desc>Created with Sketch.</desc>
    <defs></defs>
    <g id="Page-1" stroke="none" stroke-width="1" fill="none" fill-rule="evenodd">
        <g id="Calendar" transform="translate(-727.000000, -250.000000)">
            <g id="June-12" transform="translate(727.000000, 250.000000)">
                <rect id="Rectangle-Copy-7" fill="#000000" x="0" y="0" width="420" height="45"></rect>
                <path d="M294.692,28.5 L289.13,28.5 L289.13,18.564 C290.624,18.564 291.398,17.574 291.398,16.512 L294.692,16.512 L294.692,28.5 Z M308.606,19.878 C308.606,22.146 306.014,23.424 301.748,24.882 L308.66,24.882 L308.66,28.5 L295.592,28.5 L295.592,27.15 C295.592,22.344 303.422,22.38 303.422,20.562 C303.422,20.04 302.864,19.662 301.604,19.662 C300.254,19.662 298.562,20.13 296.96,20.814 L295.736,17.466 C297.86,16.548 299.696,16.062 302.396,16.062 C306.086,16.062 308.606,17.79 308.606,19.878 Z M324.824,20.706 C324.824,22.884 323.204,24.864 319.604,24.864 L316.22,24.864 L316.22,28.5 L309.956,28.5 L309.956,16.512 L319.46,16.512 C323.078,16.512 324.824,18.348 324.824,20.526 L324.824,20.706 Z M318.488,21.246 L318.488,21.192 C318.488,20.526 318.2,20.202 317.264,20.202 L316.22,20.202 L316.22,22.236 L317.264,22.236 C318.2,22.236 318.488,21.876 318.488,21.246 Z M347.162,28.5 L341.186,28.5 L341.186,22.038 L340.682,23.514 L338.936,28.5 L333.554,28.5 L331.826,23.514 L331.322,22.038 L331.322,28.5 L325.994,28.5 L325.994,16.512 L334.814,16.512 L336.434,21.21 L336.722,22.164 L337.01,21.21 L338.63,16.512 L347.162,16.512 L347.162,28.5 Z M355.532,24.414 L348.602,24.414 L348.602,21.714 L355.532,21.714 L355.532,24.414 Z M370.67,25.386 C370.67,27.33 368.474,28.95 363.668,28.95 C358.862,28.95 356.666,27.33 356.666,25.386 L356.666,25.278 C356.666,24.072 357.728,22.92 359.888,22.416 C358.124,22.146 357.008,21.066 357.008,19.86 L357.008,19.752 C357.008,17.952 358.88,16.062 363.668,16.062 C368.438,16.062 370.328,17.952 370.328,19.752 L370.328,19.86 C370.328,21.066 369.194,22.146 367.43,22.416 C369.608,22.92 370.67,24.072 370.67,25.278 L370.67,25.386 Z M365.198,20.436 L365.198,20.328 C365.198,19.842 364.838,19.284 363.668,19.284 C362.498,19.284 362.12,19.842 362.12,20.328 L362.12,20.436 C362.12,21.102 362.75,21.516 363.668,21.516 C364.586,21.516 365.198,21.102 365.198,20.436 Z M365.198,24.648 L365.198,24.522 C365.198,23.946 364.694,23.478 363.668,23.478 C362.624,23.478 362.12,23.946 362.12,24.522 L362.12,24.648 C362.12,25.224 362.552,25.728 363.668,25.728 C364.766,25.728 365.198,25.224 365.198,24.648 Z M386.852,20.706 C386.852,22.884 385.232,24.864 381.632,24.864 L378.248,24.864 L378.248,28.5 L371.984,28.5 L371.984,16.512 L381.488,16.512 C385.106,16.512 386.852,18.348 386.852,20.526 L386.852,20.706 Z M380.516,21.246 L380.516,21.192 C380.516,20.526 380.228,20.202 379.292,20.202 L378.248,20.202 L378.248,22.236 L379.292,22.236 C380.228,22.236 380.516,21.876 380.516,21.246 Z M409.19,28.5 L403.214,28.5 L403.214,22.038 L402.71,23.514 L400.964,28.5 L395.582,28.5 L393.854,23.514 L393.35,22.038 L393.35,28.5 L388.022,28.5 L388.022,16.512 L396.842,16.512 L398.462,21.21 L398.75,22.164 L399.038,21.21 L400.658,16.512 L409.19,16.512 L409.19,28.5 Z" id="12PM-8PM" fill="#FFFFFF"></path>
                <path d="M29.188,23.902 C29.188,28.66 25.834,31.65 19.698,31.65 C16.032,31.65 12.522,30.688 9.766,28.894 L12.314,23.772 C14.212,24.708 16.136,25.358 17.982,25.358 C19.542,25.358 20.14,24.63 20.14,23.226 L20.14,13.684 L29.188,13.684 L29.188,23.902 Z M54.2152188,23.564 C54.2152188,28.088 51.1472188,31.65 42.9572188,31.65 C34.7932188,31.65 31.5692188,28.088 31.5692188,23.564 L31.5692188,13.684 L40.6172188,13.684 L40.6172188,22.914 C40.6172188,25.072 41.2672188,26.008 43.4252188,26.008 C45.5832188,26.008 46.1812188,25.072 46.1812188,22.914 L46.1812188,13.684 L54.2152188,13.684 L54.2152188,23.564 Z M79.2944376,31 L71.5464376,31 L65.4884376,24.994 L64.8384376,24.24 L64.8384376,31 L56.7264376,31 L56.7264376,13.684 L64.0584376,13.684 L70.5584376,19.742 L71.1564376,20.392 L71.1564376,13.684 L79.2944376,13.684 L79.2944376,31 Z M101.773656,31 L81.9356564,31 L81.9356564,13.684 L101.773656,13.684 L101.773656,19.222 L90.9836564,19.222 L90.9836564,20.86 L97.7436564,20.86 L97.7436564,23.512 L90.9836564,23.512 L90.9836564,24.994 L101.773656,24.994 L101.773656,31 Z M118.782094,31 L110.748094,31 L110.748094,16.648 C112.906094,16.648 114.024094,15.218 114.024094,13.684 L118.782094,13.684 L118.782094,31 Z M139.701313,26.554 C139.701313,29.154 135.957313,31.65 129.951313,31.65 C126.649313,31.65 123.425313,30.948 120.253313,29.7 L121.969313,24.916 C124.335313,25.904 126.857313,26.606 128.989313,26.606 C130.809313,26.606 131.667313,26.112 131.667313,25.332 L131.667313,25.254 C131.667313,24.422 130.757313,23.98 129.197313,23.98 L127.429313,23.98 L127.429313,20.704 L129.275313,20.704 C130.731313,20.704 131.667313,20.21 131.667313,19.43 L131.667313,19.352 C131.667313,18.624 130.783313,18.078 128.989313,18.078 C126.675313,18.078 124.751313,18.728 122.723313,19.768 L121.007313,14.984 C124.153313,13.606 126.207313,13.034 130.393313,13.034 C136.217313,13.034 139.441313,15.582 139.441313,18 L139.441313,18.13 C139.441313,19.846 138.089313,21.874 133.591313,22.212 C138.583313,22.706 139.701313,24.682 139.701313,26.398 L139.701313,26.554 Z" id="june-13" fill="#FFFFFF"></path>
            </g>
        </g>
    </g>
</svg>