<?xml version="1.0" encoding="UTF-8"?>
<svg width="410px" height="187px" viewBox="0 0 410 187" version="1.1" xmlns="http://www.w3.org/2000/svg" xmlns:xlink="http://www.w3.org/1999/xlink">
    <!-- Generator: Sketch 49.3 (51167) - http://www.bohemiancoding.com/sketch -->
    <title>wednesday-m</title>
    <desc>Created with Sketch.</desc>
    <defs></defs>
    <g id="wednesday-m" stroke="none" stroke-width="1" fill="none" fill-rule="evenodd">
        <g id="Group-11" transform="translate(-1.000000, 3.000000)" fill="#000000">
            <g id="Group-2">
                <path d="M18.7792,13 L11.848,13 L11.0992,10.7728 L7.2016,10.7728 L6.3376,13 L0.5008,13 L6.1456,0.2128 L13.0192,0.2128 L18.7792,13 Z M10.1392,7.8544 L9.3136,5.4544 L8.3728,7.8544 L10.1392,7.8544 Z M33.9664,13 L19.2208,13 L19.2208,0.2128 L25.9024,0.2128 L25.9024,8.5648 L33.9664,8.5648 L33.9664,13 Z M49.8448,13 L35.0992,13 L35.0992,0.2128 L41.7808,0.2128 L41.7808,8.5648 L49.8448,8.5648 L49.8448,13 Z M72.5968,6.7024 C72.5968,10.1392 69.6016,13 63.9184,13 L55.7008,13 L55.7008,0.2128 L63.9184,0.2128 C69.6016,0.2128 72.5968,3.016 72.5968,6.472 L72.5968,6.7024 Z M65.8,6.7408 L65.8,6.4336 C65.8,5.1472 65.1664,4.072 63.4384,4.072 L62.3824,4.072 L62.3824,9.1024 L63.4384,9.1024 C65.1664,9.1024 65.8,8.0272 65.8,6.7408 Z M90.76,13 L83.8288,13 L83.08,10.7728 L79.1824,10.7728 L78.3184,13 L72.4816,13 L78.1264,0.2128 L85,0.2128 L90.76,13 Z M82.12,7.8544 L81.2944,5.4544 L80.3536,7.8544 L82.12,7.8544 Z M108.8272,0.2128 L102.664,8.6608 L102.664,13 L95.9824,13 L95.9824,8.6608 L89.9728,0.2128 L97.3648,0.2128 L99.8224,3.9376 L102.184,0.2128 L108.8272,0.2128 Z" id="ALL-DAY"></path>
            </g>
            <g id="Group-5" transform="translate(1.000000, 36.000000)">
                <path d="M162.016,17.977 C162.016,20.542 160.72,22 157.804,22 L152.458,22 L152.458,4.018 L157.669,4.018 C160.585,4.018 161.827,5.476 161.827,8.041 L161.827,9.499 C161.827,11.362 161.071,12.415 159.532,12.739 C161.287,13.09 162.016,14.305 162.016,16.06 L162.016,17.977 Z M159.316,9.877 L159.316,7.987 C159.316,6.961 158.911,6.232 157.696,6.232 L155.023,6.232 L155.023,11.902 L157.399,11.902 C158.668,11.902 159.316,11.2 159.316,9.877 Z M159.451,18.058 L159.451,15.952 C159.451,14.629 158.776,13.927 157.534,13.927 L155.023,13.927 L155.023,19.786 L157.804,19.786 C159.019,19.786 159.451,19.057 159.451,18.058 Z M174.652,22 L171.871,22 L168.469,13.981 L167.038,16.438 L167.038,22 L164.5,22 L164.5,4.018 L167.038,4.018 L167.038,12.766 L171.925,4.018 L174.652,4.018 L170.116,11.74 L174.652,22 Z M190.123,17.518 C190.123,20.488 188.017,22.405 185.182,22.405 C182.212,22.405 180.241,20.461 180.241,17.842 L180.241,16.6 L182.779,16.6 L182.779,17.437 C182.779,19.273 183.616,20.218 185.209,20.218 C186.775,20.218 187.585,19.273 187.585,17.896 C187.585,16.303 186.883,15.304 184.615,13.873 C182.59,12.577 180.457,10.822 180.457,8.23 C180.457,5.665 182.158,3.64 185.209,3.64 C188.125,3.64 189.988,5.557 189.988,8.203 L189.988,9.364 L187.558,9.364 L187.558,8.527 C187.558,7.015 186.829,5.827 185.128,5.827 C183.724,5.827 182.995,6.664 182.995,7.879 C182.995,9.472 183.724,10.309 186.316,11.983 C188.935,13.684 190.123,15.196 190.123,17.518 Z M201.247,6.367 L197.575,6.367 L197.575,22 L195.01,22 L195.01,6.367 L191.311,6.367 L191.311,4.018 L201.247,4.018 L201.247,6.367 Z M211.426,22 L203.056,22 L203.056,4.018 L211.426,4.018 L211.426,6.34 L205.594,6.34 L205.594,11.47 L209.806,11.47 L209.806,13.684 L205.594,13.684 L205.594,19.678 L211.426,19.678 L211.426,22 Z M223.09,10.66 C223.09,13.198 221.794,14.791 218.878,14.791 L216.205,14.791 L216.205,22 L213.667,22 L213.667,4.018 L218.878,4.018 C221.794,4.018 223.09,5.584 223.09,8.176 L223.09,10.66 Z M220.525,10.741 L220.525,8.095 C220.525,6.907 220.093,6.232 218.905,6.232 L216.205,6.232 L216.205,12.604 L218.905,12.604 C220.093,12.604 220.525,11.902 220.525,10.741 Z M234.7,10.66 C234.7,13.198 233.404,14.791 230.488,14.791 L227.815,14.791 L227.815,22 L225.277,22 L225.277,4.018 L230.488,4.018 C233.404,4.018 234.7,5.584 234.7,8.176 L234.7,10.66 Z M232.135,10.741 L232.135,8.095 C232.135,6.907 231.703,6.232 230.515,6.232 L227.815,6.232 L227.815,12.604 L230.515,12.604 C231.703,12.604 232.135,11.902 232.135,10.741 Z M245.257,22 L236.887,22 L236.887,4.018 L245.257,4.018 L245.257,6.34 L239.425,6.34 L239.425,11.47 L243.637,11.47 L243.637,13.684 L239.425,13.684 L239.425,19.678 L245.257,19.678 L245.257,22 Z M257.758,22.189 L257.191,22.189 C255.166,22.189 254.464,21.622 254.464,19.759 L254.464,16.249 C254.464,15.007 253.897,14.17 252.601,14.17 L250.063,14.17 L250.063,22 L247.498,22 L247.498,4.018 L252.709,4.018 C255.625,4.018 256.921,5.476 256.921,8.041 L256.921,10.012 C256.921,11.767 256.327,12.82 254.599,13.171 C256.3,13.441 257.002,14.872 257.002,16.303 L257.002,19.57 C257.002,20.056 257.218,20.272 257.758,20.272 L257.758,22.189 Z M254.356,10.174 L254.356,7.987 C254.356,6.961 253.924,6.232 252.709,6.232 L250.063,6.232 L250.063,12.226 L252.439,12.226 C253.681,12.226 254.356,11.524 254.356,10.174 Z M268.909,17.518 C268.909,20.488 266.803,22.405 263.968,22.405 C260.998,22.405 259.027,20.461 259.027,17.842 L259.027,16.6 L261.565,16.6 L261.565,17.437 C261.565,19.273 262.402,20.218 263.995,20.218 C265.561,20.218 266.371,19.273 266.371,17.896 C266.371,16.303 265.669,15.304 263.401,13.873 C261.376,12.577 259.243,10.822 259.243,8.23 C259.243,5.665 260.944,3.64 263.995,3.64 C266.911,3.64 268.774,5.557 268.774,8.203 L268.774,9.364 L266.344,9.364 L266.344,8.527 C266.344,7.015 265.615,5.827 263.914,5.827 C262.51,5.827 261.781,6.664 261.781,7.879 C261.781,9.472 262.51,10.309 265.102,11.983 C267.721,13.684 268.909,15.196 268.909,17.518 Z" id="bk-steppers"></path>
                <path d="M14.3616,15.7168 C14.3616,17.6368 11.5968,19.48 7.1616,19.48 C4.7232,19.48 2.3424,18.9616 0,18.04 L1.2672,14.5072 C3.0144,15.2368 4.8768,15.7552 6.4512,15.7552 C7.7952,15.7552 8.4288,15.3904 8.4288,14.8144 L8.4288,14.7568 C8.4288,14.1424 7.7568,13.816 6.6048,13.816 L5.2992,13.816 L5.2992,11.3968 L6.6624,11.3968 C7.7376,11.3968 8.4288,11.032 8.4288,10.456 L8.4288,10.3984 C8.4288,9.8608 7.776,9.4576 6.4512,9.4576 C4.7424,9.4576 3.3216,9.9376 1.824,10.7056 L0.5568,7.1728 C2.88,6.1552 4.3968,5.7328 7.488,5.7328 C11.7888,5.7328 14.1696,7.6144 14.1696,9.4 L14.1696,9.496 C14.1696,10.7632 13.1712,12.2608 9.8496,12.5104 C13.536,12.8752 14.3616,14.3344 14.3616,15.6016 L14.3616,15.7168 Z M31.5456,10.6864 C31.5456,13.0096 29.8176,15.1216 25.9776,15.1216 L22.368,15.1216 L22.368,19 L15.6864,19 L15.6864,6.2128 L25.824,6.2128 C29.6832,6.2128 31.5456,8.1712 31.5456,10.4944 L31.5456,10.6864 Z M24.7872,11.2624 L24.7872,11.2048 C24.7872,10.4944 24.48,10.1488 23.4816,10.1488 L22.368,10.1488 L22.368,12.3184 L23.4816,12.3184 C24.48,12.3184 24.7872,11.9344 24.7872,11.2624 Z M55.3728,19 L48.9984,19 L48.9984,12.1072 L48.4608,13.6816 L46.5984,19 L40.8576,19 L39.0144,13.6816 L38.4768,12.1072 L38.4768,19 L32.7936,19 L32.7936,6.2128 L42.2016,6.2128 L43.9296,11.224 L44.2368,12.2416 L44.544,11.224 L46.272,6.2128 L55.3728,6.2128 L55.3728,19 Z M64.3008,14.6416 L56.9088,14.6416 L56.9088,11.7616 L64.3008,11.7616 L64.3008,14.6416 Z M80.1408,16.6 L78.2208,16.6 L78.2208,19 L72.4032,19 L72.4032,16.6 L65.28,16.6 L65.28,13.6624 L72.864,6.2128 L78.2208,6.2128 L78.2208,13.1056 L80.1408,13.1056 L80.1408,16.6 Z M72.4032,13.1056 L72.4032,10.9552 L70.2912,13.1056 L72.4032,13.1056 Z M97.2672,10.6864 C97.2672,13.0096 95.5392,15.1216 91.6992,15.1216 L88.0896,15.1216 L88.0896,19 L81.408,19 L81.408,6.2128 L91.5456,6.2128 C95.4048,6.2128 97.2672,8.1712 97.2672,10.4944 L97.2672,10.6864 Z M90.5088,11.2624 L90.5088,11.2048 C90.5088,10.4944 90.2016,10.1488 89.2032,10.1488 L88.0896,10.1488 L88.0896,12.3184 L89.2032,12.3184 C90.2016,12.3184 90.5088,11.9344 90.5088,11.2624 Z M121.0944,19 L114.72,19 L114.72,12.1072 L114.1824,13.6816 L112.32,19 L106.5792,19 L104.736,13.6816 L104.1984,12.1072 L104.1984,19 L98.5152,19 L98.5152,6.2128 L107.9232,6.2128 L109.6512,11.224 L109.9584,12.2416 L110.2656,11.224 L111.9936,6.2128 L121.0944,6.2128 L121.0944,19 Z" id="3pm-4pm"></path>
            </g>
            <g id="Group-8" transform="translate(1.000000, 78.000000)">
                <path d="M161.287,6.367 L157.615,6.367 L157.615,22 L155.05,22 L155.05,6.367 L151.351,6.367 L151.351,4.018 L161.287,4.018 L161.287,6.367 Z M173.302,22 L170.764,22 L170.764,14.116 L165.661,14.116 L165.661,22 L163.096,22 L163.096,4.018 L165.661,4.018 L165.661,11.821 L170.764,11.821 L170.764,4.018 L173.302,4.018 L173.302,22 Z M186.019,17.248 C186.019,20.191 184.399,22.405 180.997,22.405 C177.622,22.405 175.975,20.191 175.975,17.248 L175.975,8.77 C175.975,5.854 177.622,3.64 180.997,3.64 C184.399,3.64 186.019,5.854 186.019,8.77 L186.019,17.248 Z M183.481,17.464 L183.481,8.554 C183.481,7.015 182.671,5.908 180.997,5.908 C179.323,5.908 178.54,7.015 178.54,8.554 L178.54,17.464 C178.54,19.003 179.323,20.11 180.997,20.11 C182.671,20.11 183.481,19.003 183.481,17.464 Z M202.138,22 L199.816,22 L199.816,7.987 L199.087,11.416 L196.63,22 L194.119,22 L191.716,11.416 L190.96,7.987 L190.96,22 L188.692,22 L188.692,4.018 L192.256,4.018 L194.713,15.25 L195.442,18.679 L196.171,15.223 L198.574,4.018 L202.138,4.018 L202.138,22 Z M214.639,22 L212.047,22 L211.102,17.599 L207.214,17.599 L206.269,22 L203.785,22 L207.862,4.018 L210.562,4.018 L214.639,22 Z M210.643,15.412 L209.158,8.041 L207.673,15.412 L210.643,15.412 Z M225.547,17.518 C225.547,20.488 223.441,22.405 220.606,22.405 C217.636,22.405 215.665,20.461 215.665,17.842 L215.665,16.6 L218.203,16.6 L218.203,17.437 C218.203,19.273 219.04,20.218 220.633,20.218 C222.199,20.218 223.009,19.273 223.009,17.896 C223.009,16.303 222.307,15.304 220.039,13.873 C218.014,12.577 215.881,10.822 215.881,8.23 C215.881,5.665 217.582,3.64 220.633,3.64 C223.549,3.64 225.412,5.557 225.412,8.203 L225.412,9.364 L222.982,9.364 L222.982,8.527 C222.982,7.015 222.253,5.827 220.552,5.827 C219.148,5.827 218.419,6.664 218.419,7.879 C218.419,9.472 219.148,10.309 221.74,11.983 C224.359,13.684 225.547,15.196 225.547,17.518 Z M241.855,22 L239.263,22 L238.318,17.599 L234.43,17.599 L233.485,22 L231.001,22 L235.078,4.018 L237.778,4.018 L241.855,22 Z M237.859,15.412 L236.374,8.041 L234.889,15.412 L237.859,15.412 Z M251.764,22 L243.529,22 L243.529,4.018 L246.067,4.018 L246.067,19.678 L251.764,19.678 L251.764,22 Z M261.835,22 L253.6,22 L253.6,4.018 L256.138,4.018 L256.138,19.678 L261.835,19.678 L261.835,22 Z M272.041,22 L263.671,22 L263.671,4.018 L272.041,4.018 L272.041,6.34 L266.209,6.34 L266.209,11.47 L270.421,11.47 L270.421,13.684 L266.209,13.684 L266.209,19.678 L272.041,19.678 L272.041,22 Z M284.461,22 L282.652,22 L278.197,13.252 L276.685,10.093 L276.685,22 L274.255,22 L274.255,4.018 L276.334,4.018 L280.6,12.928 L282.031,16.087 L282.031,4.018 L284.461,4.018 L284.461,22 Z M300.013,22 L291.778,22 L291.778,4.018 L294.316,4.018 L294.316,19.678 L300.013,19.678 L300.013,22 Z M304.414,22 L301.849,22 L301.849,4.018 L304.414,4.018 L304.414,22 Z M317.212,4.018 L312.865,22 L310.408,22 L306.169,4.018 L308.842,4.018 L311.731,17.923 L314.62,4.018 L317.212,4.018 Z M327.256,22 L318.886,22 L318.886,4.018 L327.256,4.018 L327.256,6.34 L321.424,6.34 L321.424,11.47 L325.636,11.47 L325.636,13.684 L321.424,13.684 L321.424,19.678 L327.256,19.678 L327.256,22 Z M343.618,22 L342.349,22 L341.863,20.623 C341.242,21.784 339.973,22.405 338.353,22.405 C335.221,22.405 333.682,20.218 333.682,17.464 L333.682,8.554 C333.682,5.908 335.329,3.64 338.704,3.64 C342.106,3.64 343.51,5.665 343.51,8.554 L343.51,9.607 L341.08,9.607 L341.08,8.257 C341.08,7.042 340.378,5.908 338.704,5.908 C337.03,5.908 336.247,7.096 336.247,8.311 L336.247,17.707 C336.247,18.949 337.003,20.137 338.704,20.137 C340.405,20.137 341.188,18.949 341.188,17.707 L341.188,14.926 L338.785,14.926 L338.785,12.766 L343.618,12.766 L343.618,22 Z M356.416,22.189 L355.849,22.189 C353.824,22.189 353.122,21.622 353.122,19.759 L353.122,16.249 C353.122,15.007 352.555,14.17 351.259,14.17 L348.721,14.17 L348.721,22 L346.156,22 L346.156,4.018 L351.367,4.018 C354.283,4.018 355.579,5.476 355.579,8.041 L355.579,10.012 C355.579,11.767 354.985,12.82 353.257,13.171 C354.958,13.441 355.66,14.872 355.66,16.303 L355.66,19.57 C355.66,20.056 355.876,20.272 356.416,20.272 L356.416,22.189 Z M353.014,10.174 L353.014,7.987 C353.014,6.961 352.582,6.232 351.367,6.232 L348.721,6.232 L348.721,12.226 L351.097,12.226 C352.339,12.226 353.014,11.524 353.014,10.174 Z M367.918,22 L365.326,22 L364.381,17.599 L360.493,17.599 L359.548,22 L357.064,22 L361.141,4.018 L363.841,4.018 L367.918,22 Z M363.922,15.412 L362.437,8.041 L360.952,15.412 L363.922,15.412 Z M377.881,6.313 L372.157,6.313 L372.157,11.848 L376.558,11.848 L376.558,14.089 L372.157,14.089 L372.157,22 L369.592,22 L369.592,3.991 L377.881,3.991 L377.881,6.313 Z M388.06,6.313 L382.336,6.313 L382.336,11.848 L386.737,11.848 L386.737,14.089 L382.336,14.089 L382.336,22 L379.771,22 L379.771,3.991 L388.06,3.991 L388.06,6.313 Z M392.515,22 L389.95,22 L389.95,4.018 L392.515,4.018 L392.515,22 Z M404.233,6.367 L400.561,6.367 L400.561,22 L397.996,22 L397.996,6.367 L394.297,6.367 L394.297,4.018 L404.233,4.018 L404.233,6.367 Z M408.607,22 L406.042,22 L406.042,4.018 L408.607,4.018 L408.607,22 Z" id="thomas-allen-live-gr"></path>
                <path d="M15.168,16.6 L13.248,16.6 L13.248,19 L7.4304,19 L7.4304,16.6 L0.3072,16.6 L0.3072,13.6624 L7.8912,6.2128 L13.248,6.2128 L13.248,13.1056 L15.168,13.1056 L15.168,16.6 Z M7.4304,13.1056 L7.4304,10.9552 L5.3184,13.1056 L7.4304,13.1056 Z M32.2944,10.6864 C32.2944,13.0096 30.5664,15.1216 26.7264,15.1216 L23.1168,15.1216 L23.1168,19 L16.4352,19 L16.4352,6.2128 L26.5728,6.2128 C30.432,6.2128 32.2944,8.1712 32.2944,10.4944 L32.2944,10.6864 Z M25.536,11.2624 L25.536,11.2048 C25.536,10.4944 25.2288,10.1488 24.2304,10.1488 L23.1168,10.1488 L23.1168,12.3184 L24.2304,12.3184 C25.2288,12.3184 25.536,11.9344 25.536,11.2624 Z M56.1216,19 L49.7472,19 L49.7472,12.1072 L49.2096,13.6816 L47.3472,19 L41.6064,19 L39.7632,13.6816 L39.2256,12.1072 L39.2256,19 L33.5424,19 L33.5424,6.2128 L42.9504,6.2128 L44.6784,11.224 L44.9856,12.2416 L45.2928,11.224 L47.0208,6.2128 L56.1216,6.2128 L56.1216,19 Z M65.0496,14.6416 L57.6576,14.6416 L57.6576,11.7616 L65.0496,11.7616 L65.0496,14.6416 Z M81.2544,14.7184 C81.2544,17.2528 78.4512,19.48 74.0544,19.48 C69.3312,19.48 66.1632,17.0032 66.1632,12.9904 L66.1632,12.6832 C66.1632,8.4784 70.0224,5.7328 74.6112,5.7328 C77.0688,5.7328 78.8544,6.1744 80.832,7 L79.5648,10.0912 C78.432,9.7072 77.1072,9.4192 75.7056,9.4192 C73.4784,9.4192 71.9232,10.648 71.9232,12.2992 L71.9232,12.4912 C73.0368,11.4928 74.2848,10.7632 76.4352,10.7632 C79.4304,10.7632 81.2544,12.6064 81.2544,14.6224 L81.2544,14.7184 Z M76.0128,14.296 L76.0128,14.2384 C76.0128,13.5856 75.3984,13.0288 74.208,13.0288 C73.248,13.0288 72.5568,13.3936 71.9232,13.912 L71.9232,13.9696 C71.9232,14.8912 72.8256,15.64 73.92,15.64 C75.2448,15.64 76.0128,14.9104 76.0128,14.296 Z M98.2464,10.6864 C98.2464,13.0096 96.5184,15.1216 92.6784,15.1216 L89.0688,15.1216 L89.0688,19 L82.3872,19 L82.3872,6.2128 L92.5248,6.2128 C96.384,6.2128 98.2464,8.1712 98.2464,10.4944 L98.2464,10.6864 Z M91.488,11.2624 L91.488,11.2048 C91.488,10.4944 91.1808,10.1488 90.1824,10.1488 L89.0688,10.1488 L89.0688,12.3184 L90.1824,12.3184 C91.1808,12.3184 91.488,11.9344 91.488,11.2624 Z M122.0736,19 L115.6992,19 L115.6992,12.1072 L115.1616,13.6816 L113.2992,19 L107.5584,19 L105.7152,13.6816 L105.1776,12.1072 L105.1776,19 L99.4944,19 L99.4944,6.2128 L108.9024,6.2128 L110.6304,11.224 L110.9376,12.2416 L111.2448,11.224 L112.9728,6.2128 L122.0736,6.2128 L122.0736,19 Z" id="4pm-6pm"></path>
            </g>
            <g id="Group-7" transform="translate(1.000000, 120.000000)">
                <path d="M162.367,4.018 L158.02,22 L155.563,22 L151.324,4.018 L153.997,4.018 L156.886,17.923 L159.775,4.018 L162.367,4.018 Z M174.247,22 L171.709,22 L171.709,14.116 L166.606,14.116 L166.606,22 L164.041,22 L164.041,4.018 L166.606,4.018 L166.606,11.821 L171.709,11.821 L171.709,4.018 L174.247,4.018 L174.247,22 Z M187.072,4.018 L182.725,22 L180.268,22 L176.029,4.018 L178.702,4.018 L181.591,17.923 L184.48,4.018 L187.072,4.018 Z M196.981,22 L188.746,22 L188.746,4.018 L191.284,4.018 L191.284,19.678 L196.981,19.678 L196.981,22 Z M201.031,21.649 C201.031,23.35 200.221,24.565 198.331,24.565 L198.331,23.782 C199.276,23.782 199.816,23.107 199.816,22 L198.817,22 L198.817,18.949 L201.031,18.949 L201.031,21.649 Z M217.771,10.66 C217.771,13.198 216.475,14.791 213.559,14.791 L210.886,14.791 L210.886,22 L208.348,22 L208.348,4.018 L213.559,4.018 C216.475,4.018 217.771,5.584 217.771,8.176 L217.771,10.66 Z M215.206,10.741 L215.206,8.095 C215.206,6.907 214.774,6.232 213.586,6.232 L210.886,6.232 L210.886,12.604 L213.586,12.604 C214.774,12.604 215.206,11.902 215.206,10.741 Z M230.164,22 L227.626,22 L227.626,14.116 L222.523,14.116 L222.523,22 L219.958,22 L219.958,4.018 L222.523,4.018 L222.523,11.821 L227.626,11.821 L227.626,4.018 L230.164,4.018 L230.164,22 Z M242.881,17.248 C242.881,20.191 241.261,22.405 237.859,22.405 C234.484,22.405 232.837,20.191 232.837,17.248 L232.837,8.77 C232.837,5.854 234.484,3.64 237.859,3.64 C241.261,3.64 242.881,5.854 242.881,8.77 L242.881,17.248 Z M240.343,17.464 L240.343,8.554 C240.343,7.015 239.533,5.908 237.859,5.908 C236.185,5.908 235.402,7.015 235.402,8.554 L235.402,17.464 C235.402,19.003 236.185,20.11 237.859,20.11 C239.533,20.11 240.343,19.003 240.343,17.464 Z M255.733,22 L253.924,22 L249.469,13.252 L247.957,10.093 L247.957,22 L245.527,22 L245.527,4.018 L247.606,4.018 L251.872,12.928 L253.303,16.087 L253.303,4.018 L255.733,4.018 L255.733,22 Z M266.992,22 L258.622,22 L258.622,4.018 L266.992,4.018 L266.992,6.34 L261.16,6.34 L261.16,11.47 L265.372,11.47 L265.372,13.684 L261.16,13.684 L261.16,19.678 L266.992,19.678 L266.992,22 Z M278.926,22 L277.657,22 L277.171,20.623 C276.55,21.784 275.281,22.405 273.661,22.405 C270.529,22.405 268.99,20.218 268.99,17.464 L268.99,8.554 C268.99,5.908 270.637,3.64 274.012,3.64 C277.414,3.64 278.818,5.665 278.818,8.554 L278.818,9.607 L276.388,9.607 L276.388,8.257 C276.388,7.042 275.686,5.908 274.012,5.908 C272.338,5.908 271.555,7.096 271.555,8.311 L271.555,17.707 C271.555,18.949 272.311,20.137 274.012,20.137 C275.713,20.137 276.496,18.949 276.496,17.707 L276.496,14.926 L274.093,14.926 L274.093,12.766 L278.926,12.766 L278.926,22 Z M284.272,22 L281.842,22 L281.842,5.179 C282.706,5.179 283.003,4.612 283.003,4.018 L284.272,4.018 L284.272,22 Z M297.853,22.189 L297.286,22.189 C295.261,22.189 294.559,21.622 294.559,19.759 L294.559,16.249 C294.559,15.007 293.992,14.17 292.696,14.17 L290.158,14.17 L290.158,22 L287.593,22 L287.593,4.018 L292.804,4.018 C295.72,4.018 297.016,5.476 297.016,8.041 L297.016,10.012 C297.016,11.767 296.422,12.82 294.694,13.171 C296.395,13.441 297.097,14.872 297.097,16.303 L297.097,19.57 C297.097,20.056 297.313,20.272 297.853,20.272 L297.853,22.189 Z M294.451,10.174 L294.451,7.987 C294.451,6.961 294.019,6.232 292.804,6.232 L290.158,6.232 L290.158,12.226 L292.534,12.226 C293.776,12.226 294.451,11.524 294.451,10.174 Z M308.005,22 L299.77,22 L299.77,4.018 L302.308,4.018 L302.308,19.678 L308.005,19.678 L308.005,22 Z M312.055,21.649 C312.055,23.35 311.245,24.565 309.355,24.565 L309.355,23.782 C310.3,23.782 310.84,23.107 310.84,22 L309.841,22 L309.841,18.949 L312.055,18.949 L312.055,21.649 Z M329.551,22 L327.742,22 L323.287,13.252 L321.775,10.093 L321.775,22 L319.345,22 L319.345,4.018 L321.424,4.018 L325.69,12.928 L327.121,16.087 L327.121,4.018 L329.551,4.018 L329.551,22 Z M342.592,22 L339.811,22 L336.409,13.981 L334.978,16.438 L334.978,22 L332.44,22 L332.44,4.018 L334.978,4.018 L334.978,12.766 L339.865,4.018 L342.592,4.018 L338.056,11.74 L342.592,22 Z M162.016,44.977 C162.016,47.542 160.72,49 157.804,49 L152.458,49 L152.458,31.018 L157.669,31.018 C160.585,31.018 161.827,32.476 161.827,35.041 L161.827,36.499 C161.827,38.362 161.071,39.415 159.532,39.739 C161.287,40.09 162.016,41.305 162.016,43.06 L162.016,44.977 Z M159.316,36.877 L159.316,34.987 C159.316,33.961 158.911,33.232 157.696,33.232 L155.023,33.232 L155.023,38.902 L157.399,38.902 C158.668,38.902 159.316,38.2 159.316,36.877 Z M159.451,45.058 L159.451,42.952 C159.451,41.629 158.776,40.927 157.534,40.927 L155.023,40.927 L155.023,46.786 L157.804,46.786 C159.019,46.786 159.451,46.057 159.451,45.058 Z M174.085,49 L171.493,49 L170.548,44.599 L166.66,44.599 L165.715,49 L163.231,49 L167.308,31.018 L170.008,31.018 L174.085,49 Z M170.089,42.412 L168.604,35.041 L167.119,42.412 L170.089,42.412 Z M185.641,44.14 C185.641,46.921 184.183,49 180.835,49 L175.759,49 L175.759,31.018 L180.835,31.018 C184.183,31.018 185.641,33.097 185.641,35.878 L185.641,44.14 Z M183.103,44.032 L183.103,36.013 C183.103,34.312 182.347,33.367 180.673,33.367 L178.324,33.367 L178.324,46.651 L180.673,46.651 C182.347,46.651 183.103,45.706 183.103,44.032 Z M197.143,33.367 L193.471,33.367 L193.471,49 L190.906,49 L190.906,33.367 L187.207,33.367 L187.207,31.018 L197.143,31.018 L197.143,33.367 Z M207.997,32.179 L201.409,46.678 L207.754,46.678 L207.754,49 L198.169,49 L198.169,47.839 L204.838,33.367 L198.52,33.367 L198.52,31.018 L207.997,31.018 L207.997,32.179 Z M227.977,49 L225.655,49 L225.655,34.987 L224.926,38.416 L222.469,49 L219.958,49 L217.555,38.416 L216.799,34.987 L216.799,49 L214.531,49 L214.531,31.018 L218.095,31.018 L220.552,42.25 L221.281,45.679 L222.01,42.223 L224.413,31.018 L227.977,31.018 L227.977,49 Z M240.478,49 L237.886,49 L236.941,44.599 L233.053,44.599 L232.108,49 L229.624,49 L233.701,31.018 L236.401,31.018 L240.478,49 Z M236.482,42.412 L234.997,35.041 L233.512,42.412 L236.482,42.412 Z M252.412,49.189 L251.845,49.189 C249.82,49.189 249.118,48.622 249.118,46.759 L249.118,43.249 C249.118,42.007 248.551,41.17 247.255,41.17 L244.717,41.17 L244.717,49 L242.152,49 L242.152,31.018 L247.363,31.018 C250.279,31.018 251.575,32.476 251.575,35.041 L251.575,37.012 C251.575,38.767 250.981,39.82 249.253,40.171 C250.954,40.441 251.656,41.872 251.656,43.303 L251.656,46.57 C251.656,47.056 251.872,47.272 252.412,47.272 L252.412,49.189 Z M249.01,37.174 L249.01,34.987 C249.01,33.961 248.578,33.232 247.363,33.232 L244.717,33.232 L244.717,39.226 L247.093,39.226 C248.335,39.226 249.01,38.524 249.01,37.174 Z M264.292,44.707 C264.292,47.677 262.213,49.405 259.27,49.405 C256.354,49.405 254.275,47.677 254.275,44.707 L254.275,31.018 L256.84,31.018 L256.84,44.707 C256.84,46.3 257.623,47.164 259.297,47.164 C260.971,47.164 261.754,46.3 261.754,44.707 L261.754,31.018 L264.292,31.018 L264.292,44.707 Z M269.368,48.649 C269.368,50.35 268.558,51.565 266.668,51.565 L266.668,50.782 C267.613,50.782 268.153,50.107 268.153,49 L267.154,49 L267.154,45.949 L269.368,45.949 L269.368,48.649 Z M286.567,44.14 C286.567,46.921 285.109,49 281.761,49 L276.685,49 L276.685,31.018 L281.761,31.018 C285.109,31.018 286.567,33.097 286.567,35.878 L286.567,44.14 Z M284.029,44.032 L284.029,36.013 C284.029,34.312 283.273,33.367 281.599,33.367 L279.25,33.367 L279.25,46.651 L281.599,46.651 C283.273,46.651 284.029,45.706 284.029,44.032 Z M297.799,44.41 C297.799,47.326 296.476,49.405 293.236,49.405 C290.158,49.405 288.565,47.65 288.565,44.707 L288.565,41.845 L290.968,41.845 L290.968,44.626 C290.968,46.3 291.724,47.11 293.155,47.11 C294.586,47.11 295.234,46.3 295.234,44.626 L295.234,31.018 L297.799,31.018 L297.799,44.41 Z M314.323,44.518 C314.323,47.488 312.217,49.405 309.382,49.405 C306.412,49.405 304.441,47.461 304.441,44.842 L304.441,43.6 L306.979,43.6 L306.979,44.437 C306.979,46.273 307.816,47.218 309.409,47.218 C310.975,47.218 311.785,46.273 311.785,44.896 C311.785,43.303 311.083,42.304 308.815,40.873 C306.79,39.577 304.657,37.822 304.657,35.23 C304.657,32.665 306.358,30.64 309.409,30.64 C312.325,30.64 314.188,32.557 314.188,35.203 L314.188,36.364 L311.758,36.364 L311.758,35.527 C311.758,34.015 311.029,32.827 309.328,32.827 C307.924,32.827 307.195,33.664 307.195,34.879 C307.195,36.472 307.924,37.309 310.516,38.983 C313.135,40.684 314.323,42.196 314.323,44.518 Z M324.988,49 L316.618,49 L316.618,31.018 L324.988,31.018 L324.988,33.34 L319.156,33.34 L319.156,38.47 L323.368,38.47 L323.368,40.684 L319.156,40.684 L319.156,46.678 L324.988,46.678 L324.988,49 Z M336.058,33.367 L332.386,33.367 L332.386,49 L329.821,49 L329.821,33.367 L326.122,33.367 L326.122,31.018 L336.058,31.018 L336.058,33.367 Z" id="vhvl,-phoneg1rl,-nk"></path>
                <path d="M15.5328,14.7184 C15.5328,17.2528 12.7296,19.48 8.3328,19.48 C3.6096,19.48 0.4416,17.0032 0.4416,12.9904 L0.4416,12.6832 C0.4416,8.4784 4.3008,5.7328 8.8896,5.7328 C11.3472,5.7328 13.1328,6.1744 15.1104,7 L13.8432,10.0912 C12.7104,9.7072 11.3856,9.4192 9.984,9.4192 C7.7568,9.4192 6.2016,10.648 6.2016,12.2992 L6.2016,12.4912 C7.3152,11.4928 8.5632,10.7632 10.7136,10.7632 C13.7088,10.7632 15.5328,12.6064 15.5328,14.6224 L15.5328,14.7184 Z M10.2912,14.296 L10.2912,14.2384 C10.2912,13.5856 9.6768,13.0288 8.4864,13.0288 C7.5264,13.0288 6.8352,13.3936 6.2016,13.912 L6.2016,13.9696 C6.2016,14.8912 7.104,15.64 8.1984,15.64 C9.5232,15.64 10.2912,14.9104 10.2912,14.296 Z M32.5248,10.6864 C32.5248,13.0096 30.7968,15.1216 26.9568,15.1216 L23.3472,15.1216 L23.3472,19 L16.6656,19 L16.6656,6.2128 L26.8032,6.2128 C30.6624,6.2128 32.5248,8.1712 32.5248,10.4944 L32.5248,10.6864 Z M25.7664,11.2624 L25.7664,11.2048 C25.7664,10.4944 25.4592,10.1488 24.4608,10.1488 L23.3472,10.1488 L23.3472,12.3184 L24.4608,12.3184 C25.4592,12.3184 25.7664,11.9344 25.7664,11.2624 Z M56.352,19 L49.9776,19 L49.9776,12.1072 L49.44,13.6816 L47.5776,19 L41.8368,19 L39.9936,13.6816 L39.456,12.1072 L39.456,19 L33.7728,19 L33.7728,6.2128 L43.1808,6.2128 L44.9088,11.224 L45.216,12.2416 L45.5232,11.224 L47.2512,6.2128 L56.352,6.2128 L56.352,19 Z M65.28,14.6416 L57.888,14.6416 L57.888,11.7616 L65.28,11.7616 L65.28,14.6416 Z M81.4272,15.6784 C81.4272,17.752 79.0848,19.48 73.9584,19.48 C68.832,19.48 66.4896,17.752 66.4896,15.6784 L66.4896,15.5632 C66.4896,14.2768 67.6224,13.048 69.9264,12.5104 C68.0448,12.2224 66.8544,11.0704 66.8544,9.784 L66.8544,9.6688 C66.8544,7.7488 68.8512,5.7328 73.9584,5.7328 C79.0464,5.7328 81.0624,7.7488 81.0624,9.6688 L81.0624,9.784 C81.0624,11.0704 79.8528,12.2224 77.9712,12.5104 C80.2944,13.048 81.4272,14.2768 81.4272,15.5632 L81.4272,15.6784 Z M75.5904,10.3984 L75.5904,10.2832 C75.5904,9.7648 75.2064,9.1696 73.9584,9.1696 C72.7104,9.1696 72.3072,9.7648 72.3072,10.2832 L72.3072,10.3984 C72.3072,11.1088 72.9792,11.5504 73.9584,11.5504 C74.9376,11.5504 75.5904,11.1088 75.5904,10.3984 Z M75.5904,14.8912 L75.5904,14.7568 C75.5904,14.1424 75.0528,13.6432 73.9584,13.6432 C72.8448,13.6432 72.3072,14.1424 72.3072,14.7568 L72.3072,14.8912 C72.3072,15.5056 72.768,16.0432 73.9584,16.0432 C75.1296,16.0432 75.5904,15.5056 75.5904,14.8912 Z M98.688,10.6864 C98.688,13.0096 96.96,15.1216 93.12,15.1216 L89.5104,15.1216 L89.5104,19 L82.8288,19 L82.8288,6.2128 L92.9664,6.2128 C96.8256,6.2128 98.688,8.1712 98.688,10.4944 L98.688,10.6864 Z M91.9296,11.2624 L91.9296,11.2048 C91.9296,10.4944 91.6224,10.1488 90.624,10.1488 L89.5104,10.1488 L89.5104,12.3184 L90.624,12.3184 C91.6224,12.3184 91.9296,11.9344 91.9296,11.2624 Z M122.5152,19 L116.1408,19 L116.1408,12.1072 L115.6032,13.6816 L113.7408,19 L108,19 L106.1568,13.6816 L105.6192,12.1072 L105.6192,19 L99.936,19 L99.936,6.2128 L109.344,6.2128 L111.072,11.224 L111.3792,12.2416 L111.6864,11.224 L113.4144,6.2128 L122.5152,6.2128 L122.5152,19 Z" id="6pm-8pm"></path>
            </g>
        </g>
        <path d="M161.911748,3.76115108 L158.248711,3.76115108 L158.248711,19.5899281 L155.689971,19.5899281 L155.689971,3.76115108 L152,3.76115108 L152,1.38273381 L161.911748,1.38273381 L161.911748,3.76115108 Z M173.277937,19.5899281 L170.692264,19.5899281 L169.74957,15.1338129 L165.87106,15.1338129 L164.928367,19.5899281 L162.45043,19.5899281 L166.517479,1.38273381 L169.210888,1.38273381 L173.277937,19.5899281 Z M169.291691,12.9194245 L167.810315,5.45611511 L166.32894,12.9194245 L169.291691,12.9194245 Z M185.182808,19.781295 L184.617192,19.781295 C182.597135,19.781295 181.896848,19.2071942 181.896848,17.3208633 L181.896848,13.7669065 C181.896848,12.5093525 181.331232,11.6618705 180.038395,11.6618705 L177.50659,11.6618705 L177.50659,19.5899281 L174.947851,19.5899281 L174.947851,1.38273381 L180.146132,1.38273381 C183.055014,1.38273381 184.347851,2.85899281 184.347851,5.45611511 L184.347851,7.45179856 C184.347851,9.22877698 183.755301,10.294964 182.031519,10.6503597 C183.728367,10.923741 184.428653,12.3726619 184.428653,13.8215827 L184.428653,17.1294964 C184.428653,17.6215827 184.644126,17.8402878 185.182808,17.8402878 L185.182808,19.781295 Z M181.789112,7.61582734 L181.789112,5.40143885 C181.789112,4.36258993 181.358166,3.62446043 180.146132,3.62446043 L177.50659,3.62446043 L177.50659,9.69352518 L179.876791,9.69352518 C181.115759,9.69352518 181.789112,8.98273381 181.789112,7.61582734 Z M196.872206,14.7784173 C196.872206,17.7582734 195.25616,20 191.862464,20 C188.495702,20 186.852722,17.7582734 186.852722,14.7784173 L186.852722,6.1942446 C186.852722,3.24172662 188.495702,1 191.862464,1 C195.25616,1 196.872206,3.24172662 196.872206,6.1942446 L196.872206,14.7784173 Z M194.340401,14.9971223 L194.340401,5.97553957 C194.340401,4.41726619 193.532378,3.29640288 191.862464,3.29640288 C190.19255,3.29640288 189.411461,4.41726619 189.411461,5.97553957 L189.411461,14.9971223 C189.411461,16.5553957 190.19255,17.676259 191.862464,17.676259 C193.532378,17.676259 194.340401,16.5553957 194.340401,14.9971223 Z M208.346132,3.76115108 L204.683095,3.76115108 L204.683095,19.5899281 L202.124355,19.5899281 L202.124355,3.76115108 L198.434384,3.76115108 L198.434384,1.38273381 L208.346132,1.38273381 L208.346132,3.76115108 Z M224.802865,19.781295 L224.237249,19.781295 C222.217192,19.781295 221.516905,19.2071942 221.516905,17.3208633 L221.516905,13.7669065 C221.516905,12.5093525 220.951289,11.6618705 219.658453,11.6618705 L217.126648,11.6618705 L217.126648,19.5899281 L214.567908,19.5899281 L214.567908,1.38273381 L219.766189,1.38273381 C222.675072,1.38273381 223.967908,2.85899281 223.967908,5.45611511 L223.967908,7.45179856 C223.967908,9.22877698 223.375358,10.294964 221.651576,10.6503597 C223.348424,10.923741 224.048711,12.3726619 224.048711,13.8215827 L224.048711,17.1294964 C224.048711,17.6215827 224.264183,17.8402878 224.802865,17.8402878 L224.802865,19.781295 Z M221.409169,7.61582734 L221.409169,5.40143885 C221.409169,4.36258993 220.978223,3.62446043 219.766189,3.62446043 L217.126648,3.62446043 L217.126648,9.69352518 L219.496848,9.69352518 C220.735817,9.69352518 221.409169,8.98273381 221.409169,7.61582734 Z M235.064756,19.5899281 L226.715186,19.5899281 L226.715186,1.38273381 L235.064756,1.38273381 L235.064756,3.73381295 L229.246991,3.73381295 L229.246991,8.92805755 L233.448711,8.92805755 L233.448711,11.1697842 L229.246991,11.1697842 L229.246991,17.2388489 L235.064756,17.2388489 L235.064756,19.5899281 Z M246.861891,19.5899281 L244.276218,19.5899281 L243.333524,15.1338129 L239.455014,15.1338129 L238.512321,19.5899281 L236.034384,19.5899281 L240.101433,1.38273381 L242.794842,1.38273381 L246.861891,19.5899281 Z M242.875645,12.9194245 L241.394269,5.45611511 L239.912894,12.9194245 L242.875645,12.9194245 Z M258.389685,14.6690647 C258.389685,17.4848921 256.935244,19.5899281 253.595415,19.5899281 L248.531805,19.5899281 L248.531805,1.38273381 L253.595415,1.38273381 C256.935244,1.38273381 258.389685,3.48776978 258.389685,6.30359712 L258.389685,14.6690647 Z M255.85788,14.5597122 L255.85788,6.44028777 C255.85788,4.71798561 255.103725,3.76115108 253.433811,3.76115108 L251.090544,3.76115108 L251.090544,17.2115108 L253.433811,17.2115108 C255.103725,17.2115108 255.85788,16.2546763 255.85788,14.5597122 Z M269.405731,19.5899281 L261.05616,19.5899281 L261.05616,1.38273381 L269.405731,1.38273381 L269.405731,3.73381295 L263.587966,3.73381295 L263.587966,8.92805755 L267.789685,8.92805755 L267.789685,11.1697842 L263.587966,11.1697842 L263.587966,17.2388489 L269.405731,17.2388489 L269.405731,19.5899281 Z M281.876218,19.781295 L281.310602,19.781295 C279.290544,19.781295 278.590258,19.2071942 278.590258,17.3208633 L278.590258,13.7669065 C278.590258,12.5093525 278.024642,11.6618705 276.731805,11.6618705 L274.2,11.6618705 L274.2,19.5899281 L271.641261,19.5899281 L271.641261,1.38273381 L276.839542,1.38273381 C279.748424,1.38273381 281.041261,2.85899281 281.041261,5.45611511 L281.041261,7.45179856 C281.041261,9.22877698 280.448711,10.294964 278.724928,10.6503597 C280.421777,10.923741 281.122063,12.3726619 281.122063,13.8215827 L281.122063,17.1294964 C281.122063,17.6215827 281.337536,17.8402878 281.876218,17.8402878 L281.876218,19.781295 Z M278.482521,7.61582734 L278.482521,5.40143885 C278.482521,4.36258993 278.051576,3.62446043 276.839542,3.62446043 L274.2,3.62446043 L274.2,9.69352518 L276.570201,9.69352518 C277.809169,9.69352518 278.482521,8.98273381 278.482521,7.61582734 Z M293,15.0517986 C293,18.0589928 290.89914,20 288.07106,20 C285.108309,20 283.14212,18.0316547 283.14212,15.3798561 L283.14212,14.1223022 L285.673926,14.1223022 L285.673926,14.9697842 C285.673926,16.828777 286.508883,17.7856115 288.097994,17.7856115 C289.660172,17.7856115 290.468195,16.828777 290.468195,15.4345324 C290.468195,13.8215827 289.767908,12.8100719 287.505444,11.3611511 C285.485387,10.0489209 283.357593,8.27194245 283.357593,5.64748201 C283.357593,3.05035971 285.054441,1 288.097994,1 C291.006877,1 292.86533,2.94100719 292.86533,5.62014388 L292.86533,6.79568345 L290.441261,6.79568345 L290.441261,5.94820144 C290.441261,4.41726619 289.71404,3.21438849 288.017192,3.21438849 C286.616619,3.21438849 285.889398,4.0618705 285.889398,5.29208633 C285.889398,6.90503597 286.616619,7.75251799 289.202292,9.44748201 C291.8149,11.1697842 293,12.7007194 293,15.0517986 Z" id="tarot-readers" fill="#000000"></path>
    </g>
</svg>