<?xml version="1.0" encoding="UTF-8"?>
<svg width="420px" height="225px" viewBox="0 0 420 225" version="1.1" xmlns="http://www.w3.org/2000/svg" xmlns:xlink="http://www.w3.org/1999/xlink">
    <!-- Generator: Sketch 49.3 (51167) - http://www.bohemiancoding.com/sketch -->
    <title>wednesday-s</title>
    <desc>Created with Sketch.</desc>
    <defs></defs>
    <g id="wednesday-s" stroke="none" stroke-width="1" fill="none" fill-rule="evenodd">
        <g id="Group-11" transform="translate(0.000000, 3.000000)" fill="#000000">
            <g id="Group-2">
                <path d="M18.2784,12.7872 L11.3472,12.7872 L10.5984,10.56 L6.7008,10.56 L5.8368,12.7872 L0,12.7872 L5.6448,0 L12.5184,0 L18.2784,12.7872 Z M9.6384,7.6416 L8.8128,5.2416 L7.872,7.6416 L9.6384,7.6416 Z M33.4656,12.7872 L18.72,12.7872 L18.72,0 L25.4016,0 L25.4016,8.352 L33.4656,8.352 L33.4656,12.7872 Z M49.344,12.7872 L34.5984,12.7872 L34.5984,0 L41.28,0 L41.28,8.352 L49.344,8.352 L49.344,12.7872 Z M72.096,6.4896 C72.096,9.9264 69.1008,12.7872 63.4176,12.7872 L55.2,12.7872 L55.2,0 L63.4176,0 C69.1008,0 72.096,2.8032 72.096,6.2592 L72.096,6.4896 Z M65.2992,6.528 L65.2992,6.2208 C65.2992,4.9344 64.6656,3.8592 62.9376,3.8592 L61.8816,3.8592 L61.8816,8.8896 L62.9376,8.8896 C64.6656,8.8896 65.2992,7.8144 65.2992,6.528 Z M90.2592,12.7872 L83.328,12.7872 L82.5792,10.56 L78.6816,10.56 L77.8176,12.7872 L71.9808,12.7872 L77.6256,0 L84.4992,0 L90.2592,12.7872 Z M81.6192,7.6416 L80.7936,5.2416 L79.8528,7.6416 L81.6192,7.6416 Z M108.3264,0 L102.1632,8.448 L102.1632,12.7872 L95.4816,12.7872 L95.4816,8.448 L89.472,0 L96.864,0 L99.3216,3.7248 L101.6832,0 L108.3264,0 Z" id="ALL-DAY"></path>
            </g>
            <g id="Group-5" transform="translate(0.000000, 50.000000)">
                <path d="M164.558,14.337 C164.558,16.902 163.262,18.36 160.346,18.36 L155,18.36 L155,0.378 L160.211,0.378 C163.127,0.378 164.369,1.836 164.369,4.401 L164.369,5.859 C164.369,7.722 163.613,8.775 162.074,9.099 C163.829,9.45 164.558,10.665 164.558,12.42 L164.558,14.337 Z M161.858,6.237 L161.858,4.347 C161.858,3.321 161.453,2.592 160.238,2.592 L157.565,2.592 L157.565,8.262 L159.941,8.262 C161.21,8.262 161.858,7.56 161.858,6.237 Z M161.993,14.418 L161.993,12.312 C161.993,10.989 161.318,10.287 160.076,10.287 L157.565,10.287 L157.565,16.146 L160.346,16.146 C161.561,16.146 161.993,15.417 161.993,14.418 Z M177.194,18.36 L174.413,18.36 L171.011,10.341 L169.58,12.798 L169.58,18.36 L167.042,18.36 L167.042,0.378 L169.58,0.378 L169.58,9.126 L174.467,0.378 L177.194,0.378 L172.658,8.1 L177.194,18.36 Z M192.665,13.878 C192.665,16.848 190.559,18.765 187.724,18.765 C184.754,18.765 182.783,16.821 182.783,14.202 L182.783,12.96 L185.321,12.96 L185.321,13.797 C185.321,15.633 186.158,16.578 187.751,16.578 C189.317,16.578 190.127,15.633 190.127,14.256 C190.127,12.663 189.425,11.664 187.157,10.233 C185.132,8.937 182.999,7.182 182.999,4.59 C182.999,2.025 184.7,0 187.751,0 C190.667,0 192.53,1.917 192.53,4.563 L192.53,5.724 L190.1,5.724 L190.1,4.887 C190.1,3.375 189.371,2.187 187.67,2.187 C186.266,2.187 185.537,3.024 185.537,4.239 C185.537,5.832 186.266,6.669 188.858,8.343 C191.477,10.044 192.665,11.556 192.665,13.878 Z M203.789,2.727 L200.117,2.727 L200.117,18.36 L197.552,18.36 L197.552,2.727 L193.853,2.727 L193.853,0.378 L203.789,0.378 L203.789,2.727 Z M213.968,18.36 L205.598,18.36 L205.598,0.378 L213.968,0.378 L213.968,2.7 L208.136,2.7 L208.136,7.83 L212.348,7.83 L212.348,10.044 L208.136,10.044 L208.136,16.038 L213.968,16.038 L213.968,18.36 Z M225.632,7.02 C225.632,9.558 224.336,11.151 221.42,11.151 L218.747,11.151 L218.747,18.36 L216.209,18.36 L216.209,0.378 L221.42,0.378 C224.336,0.378 225.632,1.944 225.632,4.536 L225.632,7.02 Z M223.067,7.101 L223.067,4.455 C223.067,3.267 222.635,2.592 221.447,2.592 L218.747,2.592 L218.747,8.964 L221.447,8.964 C222.635,8.964 223.067,8.262 223.067,7.101 Z M237.242,7.02 C237.242,9.558 235.946,11.151 233.03,11.151 L230.357,11.151 L230.357,18.36 L227.819,18.36 L227.819,0.378 L233.03,0.378 C235.946,0.378 237.242,1.944 237.242,4.536 L237.242,7.02 Z M234.677,7.101 L234.677,4.455 C234.677,3.267 234.245,2.592 233.057,2.592 L230.357,2.592 L230.357,8.964 L233.057,8.964 C234.245,8.964 234.677,8.262 234.677,7.101 Z M247.799,18.36 L239.429,18.36 L239.429,0.378 L247.799,0.378 L247.799,2.7 L241.967,2.7 L241.967,7.83 L246.179,7.83 L246.179,10.044 L241.967,10.044 L241.967,16.038 L247.799,16.038 L247.799,18.36 Z M260.3,18.549 L259.733,18.549 C257.708,18.549 257.006,17.982 257.006,16.119 L257.006,12.609 C257.006,11.367 256.439,10.53 255.143,10.53 L252.605,10.53 L252.605,18.36 L250.04,18.36 L250.04,0.378 L255.251,0.378 C258.167,0.378 259.463,1.836 259.463,4.401 L259.463,6.372 C259.463,8.127 258.869,9.18 257.141,9.531 C258.842,9.801 259.544,11.232 259.544,12.663 L259.544,15.93 C259.544,16.416 259.76,16.632 260.3,16.632 L260.3,18.549 Z M256.898,6.534 L256.898,4.347 C256.898,3.321 256.466,2.592 255.251,2.592 L252.605,2.592 L252.605,8.586 L254.981,8.586 C256.223,8.586 256.898,7.884 256.898,6.534 Z M271.451,13.878 C271.451,16.848 269.345,18.765 266.51,18.765 C263.54,18.765 261.569,16.821 261.569,14.202 L261.569,12.96 L264.107,12.96 L264.107,13.797 C264.107,15.633 264.944,16.578 266.537,16.578 C268.103,16.578 268.913,15.633 268.913,14.256 C268.913,12.663 268.211,11.664 265.943,10.233 C263.918,8.937 261.785,7.182 261.785,4.59 C261.785,2.025 263.486,0 266.537,0 C269.453,0 271.316,1.917 271.316,4.563 L271.316,5.724 L268.886,5.724 L268.886,4.887 C268.886,3.375 268.157,2.187 266.456,2.187 C265.052,2.187 264.323,3.024 264.323,4.239 C264.323,5.832 265.052,6.669 267.644,8.343 C270.263,10.044 271.451,11.556 271.451,13.878 Z" id="bk-steppers"></path>
                <path d="M14.3616,11.984 C14.3616,13.904 11.5968,15.7472 7.1616,15.7472 C4.7232,15.7472 2.3424,15.2288 0,14.3072 L1.2672,10.7744 C3.0144,11.504 4.8768,12.0224 6.4512,12.0224 C7.7952,12.0224 8.4288,11.6576 8.4288,11.0816 L8.4288,11.024 C8.4288,10.4096 7.7568,10.0832 6.6048,10.0832 L5.2992,10.0832 L5.2992,7.664 L6.6624,7.664 C7.7376,7.664 8.4288,7.2992 8.4288,6.7232 L8.4288,6.6656 C8.4288,6.128 7.776,5.7248 6.4512,5.7248 C4.7424,5.7248 3.3216,6.2048 1.824,6.9728 L0.5568,3.44 C2.88,2.4224 4.3968,2 7.488,2 C11.7888,2 14.1696,3.8816 14.1696,5.6672 L14.1696,5.7632 C14.1696,7.0304 13.1712,8.528 9.8496,8.7776 C13.536,9.1424 14.3616,10.6016 14.3616,11.8688 L14.3616,11.984 Z M31.5456,6.9536 C31.5456,9.2768 29.8176,11.3888 25.9776,11.3888 L22.368,11.3888 L22.368,15.2672 L15.6864,15.2672 L15.6864,2.48 L25.824,2.48 C29.6832,2.48 31.5456,4.4384 31.5456,6.7616 L31.5456,6.9536 Z M24.7872,7.5296 L24.7872,7.472 C24.7872,6.7616 24.48,6.416 23.4816,6.416 L22.368,6.416 L22.368,8.5856 L23.4816,8.5856 C24.48,8.5856 24.7872,8.2016 24.7872,7.5296 Z M55.3728,15.2672 L48.9984,15.2672 L48.9984,8.3744 L48.4608,9.9488 L46.5984,15.2672 L40.8576,15.2672 L39.0144,9.9488 L38.4768,8.3744 L38.4768,15.2672 L32.7936,15.2672 L32.7936,2.48 L42.2016,2.48 L43.9296,7.4912 L44.2368,8.5088 L44.544,7.4912 L46.272,2.48 L55.3728,2.48 L55.3728,15.2672 Z M64.3008,10.9088 L56.9088,10.9088 L56.9088,8.0288 L64.3008,8.0288 L64.3008,10.9088 Z M80.1408,12.8672 L78.2208,12.8672 L78.2208,15.2672 L72.4032,15.2672 L72.4032,12.8672 L65.28,12.8672 L65.28,9.9296 L72.864,2.48 L78.2208,2.48 L78.2208,9.3728 L80.1408,9.3728 L80.1408,12.8672 Z M72.4032,9.3728 L72.4032,7.2224 L70.2912,9.3728 L72.4032,9.3728 Z M97.2672,6.9536 C97.2672,9.2768 95.5392,11.3888 91.6992,11.3888 L88.0896,11.3888 L88.0896,15.2672 L81.408,15.2672 L81.408,2.48 L91.5456,2.48 C95.4048,2.48 97.2672,4.4384 97.2672,6.7616 L97.2672,6.9536 Z M90.5088,7.5296 L90.5088,7.472 C90.5088,6.7616 90.2016,6.416 89.2032,6.416 L88.0896,6.416 L88.0896,8.5856 L89.2032,8.5856 C90.2016,8.5856 90.5088,8.2016 90.5088,7.5296 Z M121.0944,15.2672 L114.72,15.2672 L114.72,8.3744 L114.1824,9.9488 L112.32,15.2672 L106.5792,15.2672 L104.736,9.9488 L104.1984,8.3744 L104.1984,15.2672 L98.5152,15.2672 L98.5152,2.48 L107.9232,2.48 L109.6512,7.4912 L109.9584,8.5088 L110.2656,7.4912 L111.9936,2.48 L121.0944,2.48 L121.0944,15.2672 Z" id="3pm-4pm"></path>
            </g>
            <g id="Group-8" transform="translate(0.000000, 102.000000)">
                <path d="M164.936,2.727 L161.264,2.727 L161.264,18.36 L158.699,18.36 L158.699,2.727 L155,2.727 L155,0.378 L164.936,0.378 L164.936,2.727 Z M176.951,18.36 L174.413,18.36 L174.413,10.476 L169.31,10.476 L169.31,18.36 L166.745,18.36 L166.745,0.378 L169.31,0.378 L169.31,8.181 L174.413,8.181 L174.413,0.378 L176.951,0.378 L176.951,18.36 Z M189.668,13.608 C189.668,16.551 188.048,18.765 184.646,18.765 C181.271,18.765 179.624,16.551 179.624,13.608 L179.624,5.13 C179.624,2.214 181.271,0 184.646,0 C188.048,0 189.668,2.214 189.668,5.13 L189.668,13.608 Z M187.13,13.824 L187.13,4.914 C187.13,3.375 186.32,2.268 184.646,2.268 C182.972,2.268 182.189,3.375 182.189,4.914 L182.189,13.824 C182.189,15.363 182.972,16.47 184.646,16.47 C186.32,16.47 187.13,15.363 187.13,13.824 Z M205.787,18.36 L203.465,18.36 L203.465,4.347 L202.736,7.776 L200.279,18.36 L197.768,18.36 L195.365,7.776 L194.609,4.347 L194.609,18.36 L192.341,18.36 L192.341,0.378 L195.905,0.378 L198.362,11.61 L199.091,15.039 L199.82,11.583 L202.223,0.378 L205.787,0.378 L205.787,18.36 Z M218.288,18.36 L215.696,18.36 L214.751,13.959 L210.863,13.959 L209.918,18.36 L207.434,18.36 L211.511,0.378 L214.211,0.378 L218.288,18.36 Z M214.292,11.772 L212.807,4.401 L211.322,11.772 L214.292,11.772 Z M229.196,13.878 C229.196,16.848 227.09,18.765 224.255,18.765 C221.285,18.765 219.314,16.821 219.314,14.202 L219.314,12.96 L221.852,12.96 L221.852,13.797 C221.852,15.633 222.689,16.578 224.282,16.578 C225.848,16.578 226.658,15.633 226.658,14.256 C226.658,12.663 225.956,11.664 223.688,10.233 C221.663,8.937 219.53,7.182 219.53,4.59 C219.53,2.025 221.231,0 224.282,0 C227.198,0 229.061,1.917 229.061,4.563 L229.061,5.724 L226.631,5.724 L226.631,4.887 C226.631,3.375 225.902,2.187 224.201,2.187 C222.797,2.187 222.068,3.024 222.068,4.239 C222.068,5.832 222.797,6.669 225.389,8.343 C228.008,10.044 229.196,11.556 229.196,13.878 Z M245.504,18.36 L242.912,18.36 L241.967,13.959 L238.079,13.959 L237.134,18.36 L234.65,18.36 L238.727,0.378 L241.427,0.378 L245.504,18.36 Z M241.508,11.772 L240.023,4.401 L238.538,11.772 L241.508,11.772 Z M255.413,18.36 L247.178,18.36 L247.178,0.378 L249.716,0.378 L249.716,16.038 L255.413,16.038 L255.413,18.36 Z M265.484,18.36 L257.249,18.36 L257.249,0.378 L259.787,0.378 L259.787,16.038 L265.484,16.038 L265.484,18.36 Z M275.69,18.36 L267.32,18.36 L267.32,0.378 L275.69,0.378 L275.69,2.7 L269.858,2.7 L269.858,7.83 L274.07,7.83 L274.07,10.044 L269.858,10.044 L269.858,16.038 L275.69,16.038 L275.69,18.36 Z M288.11,18.36 L286.301,18.36 L281.846,9.612 L280.334,6.453 L280.334,18.36 L277.904,18.36 L277.904,0.378 L279.983,0.378 L284.249,9.288 L285.68,12.447 L285.68,0.378 L288.11,0.378 L288.11,18.36 Z M303.662,18.36 L295.427,18.36 L295.427,0.378 L297.965,0.378 L297.965,16.038 L303.662,16.038 L303.662,18.36 Z M308.063,18.36 L305.498,18.36 L305.498,0.378 L308.063,0.378 L308.063,18.36 Z M320.861,0.378 L316.514,18.36 L314.057,18.36 L309.818,0.378 L312.491,0.378 L315.38,14.283 L318.269,0.378 L320.861,0.378 Z M330.905,18.36 L322.535,18.36 L322.535,0.378 L330.905,0.378 L330.905,2.7 L325.073,2.7 L325.073,7.83 L329.285,7.83 L329.285,10.044 L325.073,10.044 L325.073,16.038 L330.905,16.038 L330.905,18.36 Z M347.267,18.36 L345.998,18.36 L345.512,16.983 C344.891,18.144 343.622,18.765 342.002,18.765 C338.87,18.765 337.331,16.578 337.331,13.824 L337.331,4.914 C337.331,2.268 338.978,0 342.353,0 C345.755,0 347.159,2.025 347.159,4.914 L347.159,5.967 L344.729,5.967 L344.729,4.617 C344.729,3.402 344.027,2.268 342.353,2.268 C340.679,2.268 339.896,3.456 339.896,4.671 L339.896,14.067 C339.896,15.309 340.652,16.497 342.353,16.497 C344.054,16.497 344.837,15.309 344.837,14.067 L344.837,11.286 L342.434,11.286 L342.434,9.126 L347.267,9.126 L347.267,18.36 Z M360.065,18.549 L359.498,18.549 C357.473,18.549 356.771,17.982 356.771,16.119 L356.771,12.609 C356.771,11.367 356.204,10.53 354.908,10.53 L352.37,10.53 L352.37,18.36 L349.805,18.36 L349.805,0.378 L355.016,0.378 C357.932,0.378 359.228,1.836 359.228,4.401 L359.228,6.372 C359.228,8.127 358.634,9.18 356.906,9.531 C358.607,9.801 359.309,11.232 359.309,12.663 L359.309,15.93 C359.309,16.416 359.525,16.632 360.065,16.632 L360.065,18.549 Z M356.663,6.534 L356.663,4.347 C356.663,3.321 356.231,2.592 355.016,2.592 L352.37,2.592 L352.37,8.586 L354.746,8.586 C355.988,8.586 356.663,7.884 356.663,6.534 Z M371.567,18.36 L368.975,18.36 L368.03,13.959 L364.142,13.959 L363.197,18.36 L360.713,18.36 L364.79,0.378 L367.49,0.378 L371.567,18.36 Z M367.571,11.772 L366.086,4.401 L364.601,11.772 L367.571,11.772 Z M381.53,2.673 L375.806,2.673 L375.806,8.208 L380.207,8.208 L380.207,10.449 L375.806,10.449 L375.806,18.36 L373.241,18.36 L373.241,0.351 L381.53,0.351 L381.53,2.673 Z M391.709,2.673 L385.985,2.673 L385.985,8.208 L390.386,8.208 L390.386,10.449 L385.985,10.449 L385.985,18.36 L383.42,18.36 L383.42,0.351 L391.709,0.351 L391.709,2.673 Z M396.164,18.36 L393.599,18.36 L393.599,0.378 L396.164,0.378 L396.164,18.36 Z M407.882,2.727 L404.21,2.727 L404.21,18.36 L401.645,18.36 L401.645,2.727 L397.946,2.727 L397.946,0.378 L407.882,0.378 L407.882,2.727 Z M412.256,18.36 L409.691,18.36 L409.691,0.378 L412.256,0.378 L412.256,18.36 Z" id="thomas-allen-live-gr"></path>
                <path d="M14.8608,12.8672 L12.9408,12.8672 L12.9408,15.2672 L7.1232,15.2672 L7.1232,12.8672 L0,12.8672 L0,9.9296 L7.584,2.48 L12.9408,2.48 L12.9408,9.3728 L14.8608,9.3728 L14.8608,12.8672 Z M7.1232,9.3728 L7.1232,7.2224 L5.0112,9.3728 L7.1232,9.3728 Z M31.9872,6.9536 C31.9872,9.2768 30.2592,11.3888 26.4192,11.3888 L22.8096,11.3888 L22.8096,15.2672 L16.128,15.2672 L16.128,2.48 L26.2656,2.48 C30.1248,2.48 31.9872,4.4384 31.9872,6.7616 L31.9872,6.9536 Z M25.2288,7.5296 L25.2288,7.472 C25.2288,6.7616 24.9216,6.416 23.9232,6.416 L22.8096,6.416 L22.8096,8.5856 L23.9232,8.5856 C24.9216,8.5856 25.2288,8.2016 25.2288,7.5296 Z M55.8144,15.2672 L49.44,15.2672 L49.44,8.3744 L48.9024,9.9488 L47.04,15.2672 L41.2992,15.2672 L39.456,9.9488 L38.9184,8.3744 L38.9184,15.2672 L33.2352,15.2672 L33.2352,2.48 L42.6432,2.48 L44.3712,7.4912 L44.6784,8.5088 L44.9856,7.4912 L46.7136,2.48 L55.8144,2.48 L55.8144,15.2672 Z M64.7424,10.9088 L57.3504,10.9088 L57.3504,8.0288 L64.7424,8.0288 L64.7424,10.9088 Z M80.9472,10.9856 C80.9472,13.52 78.144,15.7472 73.7472,15.7472 C69.024,15.7472 65.856,13.2704 65.856,9.2576 L65.856,8.9504 C65.856,4.7456 69.7152,2 74.304,2 C76.7616,2 78.5472,2.4416 80.5248,3.2672 L79.2576,6.3584 C78.1248,5.9744 76.8,5.6864 75.3984,5.6864 C73.1712,5.6864 71.616,6.9152 71.616,8.5664 L71.616,8.7584 C72.7296,7.76 73.9776,7.0304 76.128,7.0304 C79.1232,7.0304 80.9472,8.8736 80.9472,10.8896 L80.9472,10.9856 Z M75.7056,10.5632 L75.7056,10.5056 C75.7056,9.8528 75.0912,9.296 73.9008,9.296 C72.9408,9.296 72.2496,9.6608 71.616,10.1792 L71.616,10.2368 C71.616,11.1584 72.5184,11.9072 73.6128,11.9072 C74.9376,11.9072 75.7056,11.1776 75.7056,10.5632 Z M97.9392,6.9536 C97.9392,9.2768 96.2112,11.3888 92.3712,11.3888 L88.7616,11.3888 L88.7616,15.2672 L82.08,15.2672 L82.08,2.48 L92.2176,2.48 C96.0768,2.48 97.9392,4.4384 97.9392,6.7616 L97.9392,6.9536 Z M91.1808,7.5296 L91.1808,7.472 C91.1808,6.7616 90.8736,6.416 89.8752,6.416 L88.7616,6.416 L88.7616,8.5856 L89.8752,8.5856 C90.8736,8.5856 91.1808,8.2016 91.1808,7.5296 Z M121.7664,15.2672 L115.392,15.2672 L115.392,8.3744 L114.8544,9.9488 L112.992,15.2672 L107.2512,15.2672 L105.408,9.9488 L104.8704,8.3744 L104.8704,15.2672 L99.1872,15.2672 L99.1872,2.48 L108.5952,2.48 L110.3232,7.4912 L110.6304,8.5088 L110.9376,7.4912 L112.6656,2.48 L121.7664,2.48 L121.7664,15.2672 Z" id="4pm-6pm"></path>
            </g>
            <g id="Group-7" transform="translate(0.000000, 154.000000)">
                <path d="M166.043,0.378 L161.696,18.36 L159.239,18.36 L155,0.378 L157.673,0.378 L160.562,14.283 L163.451,0.378 L166.043,0.378 Z M177.923,18.36 L175.385,18.36 L175.385,10.476 L170.282,10.476 L170.282,18.36 L167.717,18.36 L167.717,0.378 L170.282,0.378 L170.282,8.181 L175.385,8.181 L175.385,0.378 L177.923,0.378 L177.923,18.36 Z M190.748,0.378 L186.401,18.36 L183.944,18.36 L179.705,0.378 L182.378,0.378 L185.267,14.283 L188.156,0.378 L190.748,0.378 Z M200.657,18.36 L192.422,18.36 L192.422,0.378 L194.96,0.378 L194.96,16.038 L200.657,16.038 L200.657,18.36 Z M204.707,18.009 C204.707,19.71 203.897,20.925 202.007,20.925 L202.007,20.142 C202.952,20.142 203.492,19.467 203.492,18.36 L202.493,18.36 L202.493,15.309 L204.707,15.309 L204.707,18.009 Z M221.447,7.02 C221.447,9.558 220.151,11.151 217.235,11.151 L214.562,11.151 L214.562,18.36 L212.024,18.36 L212.024,0.378 L217.235,0.378 C220.151,0.378 221.447,1.944 221.447,4.536 L221.447,7.02 Z M218.882,7.101 L218.882,4.455 C218.882,3.267 218.45,2.592 217.262,2.592 L214.562,2.592 L214.562,8.964 L217.262,8.964 C218.45,8.964 218.882,8.262 218.882,7.101 Z M233.84,18.36 L231.302,18.36 L231.302,10.476 L226.199,10.476 L226.199,18.36 L223.634,18.36 L223.634,0.378 L226.199,0.378 L226.199,8.181 L231.302,8.181 L231.302,0.378 L233.84,0.378 L233.84,18.36 Z M246.557,13.608 C246.557,16.551 244.937,18.765 241.535,18.765 C238.16,18.765 236.513,16.551 236.513,13.608 L236.513,5.13 C236.513,2.214 238.16,0 241.535,0 C244.937,0 246.557,2.214 246.557,5.13 L246.557,13.608 Z M244.019,13.824 L244.019,4.914 C244.019,3.375 243.209,2.268 241.535,2.268 C239.861,2.268 239.078,3.375 239.078,4.914 L239.078,13.824 C239.078,15.363 239.861,16.47 241.535,16.47 C243.209,16.47 244.019,15.363 244.019,13.824 Z M259.409,18.36 L257.6,18.36 L253.145,9.612 L251.633,6.453 L251.633,18.36 L249.203,18.36 L249.203,0.378 L251.282,0.378 L255.548,9.288 L256.979,12.447 L256.979,0.378 L259.409,0.378 L259.409,18.36 Z M270.668,18.36 L262.298,18.36 L262.298,0.378 L270.668,0.378 L270.668,2.7 L264.836,2.7 L264.836,7.83 L269.048,7.83 L269.048,10.044 L264.836,10.044 L264.836,16.038 L270.668,16.038 L270.668,18.36 Z M282.602,18.36 L281.333,18.36 L280.847,16.983 C280.226,18.144 278.957,18.765 277.337,18.765 C274.205,18.765 272.666,16.578 272.666,13.824 L272.666,4.914 C272.666,2.268 274.313,0 277.688,0 C281.09,0 282.494,2.025 282.494,4.914 L282.494,5.967 L280.064,5.967 L280.064,4.617 C280.064,3.402 279.362,2.268 277.688,2.268 C276.014,2.268 275.231,3.456 275.231,4.671 L275.231,14.067 C275.231,15.309 275.987,16.497 277.688,16.497 C279.389,16.497 280.172,15.309 280.172,14.067 L280.172,11.286 L277.769,11.286 L277.769,9.126 L282.602,9.126 L282.602,18.36 Z M287.948,18.36 L285.518,18.36 L285.518,1.539 C286.382,1.539 286.679,0.972 286.679,0.378 L287.948,0.378 L287.948,18.36 Z M301.529,18.549 L300.962,18.549 C298.937,18.549 298.235,17.982 298.235,16.119 L298.235,12.609 C298.235,11.367 297.668,10.53 296.372,10.53 L293.834,10.53 L293.834,18.36 L291.269,18.36 L291.269,0.378 L296.48,0.378 C299.396,0.378 300.692,1.836 300.692,4.401 L300.692,6.372 C300.692,8.127 300.098,9.18 298.37,9.531 C300.071,9.801 300.773,11.232 300.773,12.663 L300.773,15.93 C300.773,16.416 300.989,16.632 301.529,16.632 L301.529,18.549 Z M298.127,6.534 L298.127,4.347 C298.127,3.321 297.695,2.592 296.48,2.592 L293.834,2.592 L293.834,8.586 L296.21,8.586 C297.452,8.586 298.127,7.884 298.127,6.534 Z M311.681,18.36 L303.446,18.36 L303.446,0.378 L305.984,0.378 L305.984,16.038 L311.681,16.038 L311.681,18.36 Z M315.731,18.009 C315.731,19.71 314.921,20.925 313.031,20.925 L313.031,20.142 C313.976,20.142 314.516,19.467 314.516,18.36 L313.517,18.36 L313.517,15.309 L315.731,15.309 L315.731,18.009 Z M333.227,18.36 L331.418,18.36 L326.963,9.612 L325.451,6.453 L325.451,18.36 L323.021,18.36 L323.021,0.378 L325.1,0.378 L329.366,9.288 L330.797,12.447 L330.797,0.378 L333.227,0.378 L333.227,18.36 Z M346.268,18.36 L343.487,18.36 L340.085,10.341 L338.654,12.798 L338.654,18.36 L336.116,18.36 L336.116,0.378 L338.654,0.378 L338.654,9.126 L343.541,0.378 L346.268,0.378 L341.732,8.1 L346.268,18.36 Z M165.692,41.337 C165.692,43.902 164.396,45.36 161.48,45.36 L156.134,45.36 L156.134,27.378 L161.345,27.378 C164.261,27.378 165.503,28.836 165.503,31.401 L165.503,32.859 C165.503,34.722 164.747,35.775 163.208,36.099 C164.963,36.45 165.692,37.665 165.692,39.42 L165.692,41.337 Z M162.992,33.237 L162.992,31.347 C162.992,30.321 162.587,29.592 161.372,29.592 L158.699,29.592 L158.699,35.262 L161.075,35.262 C162.344,35.262 162.992,34.56 162.992,33.237 Z M163.127,41.418 L163.127,39.312 C163.127,37.989 162.452,37.287 161.21,37.287 L158.699,37.287 L158.699,43.146 L161.48,43.146 C162.695,43.146 163.127,42.417 163.127,41.418 Z M177.761,45.36 L175.169,45.36 L174.224,40.959 L170.336,40.959 L169.391,45.36 L166.907,45.36 L170.984,27.378 L173.684,27.378 L177.761,45.36 Z M173.765,38.772 L172.28,31.401 L170.795,38.772 L173.765,38.772 Z M189.317,40.5 C189.317,43.281 187.859,45.36 184.511,45.36 L179.435,45.36 L179.435,27.378 L184.511,27.378 C187.859,27.378 189.317,29.457 189.317,32.238 L189.317,40.5 Z M186.779,40.392 L186.779,32.373 C186.779,30.672 186.023,29.727 184.349,29.727 L182,29.727 L182,43.011 L184.349,43.011 C186.023,43.011 186.779,42.066 186.779,40.392 Z M200.819,29.727 L197.147,29.727 L197.147,45.36 L194.582,45.36 L194.582,29.727 L190.883,29.727 L190.883,27.378 L200.819,27.378 L200.819,29.727 Z M211.673,28.539 L205.085,43.038 L211.43,43.038 L211.43,45.36 L201.845,45.36 L201.845,44.199 L208.514,29.727 L202.196,29.727 L202.196,27.378 L211.673,27.378 L211.673,28.539 Z M231.653,45.36 L229.331,45.36 L229.331,31.347 L228.602,34.776 L226.145,45.36 L223.634,45.36 L221.231,34.776 L220.475,31.347 L220.475,45.36 L218.207,45.36 L218.207,27.378 L221.771,27.378 L224.228,38.61 L224.957,42.039 L225.686,38.583 L228.089,27.378 L231.653,27.378 L231.653,45.36 Z M244.154,45.36 L241.562,45.36 L240.617,40.959 L236.729,40.959 L235.784,45.36 L233.3,45.36 L237.377,27.378 L240.077,27.378 L244.154,45.36 Z M240.158,38.772 L238.673,31.401 L237.188,38.772 L240.158,38.772 Z M256.088,45.549 L255.521,45.549 C253.496,45.549 252.794,44.982 252.794,43.119 L252.794,39.609 C252.794,38.367 252.227,37.53 250.931,37.53 L248.393,37.53 L248.393,45.36 L245.828,45.36 L245.828,27.378 L251.039,27.378 C253.955,27.378 255.251,28.836 255.251,31.401 L255.251,33.372 C255.251,35.127 254.657,36.18 252.929,36.531 C254.63,36.801 255.332,38.232 255.332,39.663 L255.332,42.93 C255.332,43.416 255.548,43.632 256.088,43.632 L256.088,45.549 Z M252.686,33.534 L252.686,31.347 C252.686,30.321 252.254,29.592 251.039,29.592 L248.393,29.592 L248.393,35.586 L250.769,35.586 C252.011,35.586 252.686,34.884 252.686,33.534 Z M267.968,41.067 C267.968,44.037 265.889,45.765 262.946,45.765 C260.03,45.765 257.951,44.037 257.951,41.067 L257.951,27.378 L260.516,27.378 L260.516,41.067 C260.516,42.66 261.299,43.524 262.973,43.524 C264.647,43.524 265.43,42.66 265.43,41.067 L265.43,27.378 L267.968,27.378 L267.968,41.067 Z M273.044,45.009 C273.044,46.71 272.234,47.925 270.344,47.925 L270.344,47.142 C271.289,47.142 271.829,46.467 271.829,45.36 L270.83,45.36 L270.83,42.309 L273.044,42.309 L273.044,45.009 Z M290.243,40.5 C290.243,43.281 288.785,45.36 285.437,45.36 L280.361,45.36 L280.361,27.378 L285.437,27.378 C288.785,27.378 290.243,29.457 290.243,32.238 L290.243,40.5 Z M287.705,40.392 L287.705,32.373 C287.705,30.672 286.949,29.727 285.275,29.727 L282.926,29.727 L282.926,43.011 L285.275,43.011 C286.949,43.011 287.705,42.066 287.705,40.392 Z M301.475,40.77 C301.475,43.686 300.152,45.765 296.912,45.765 C293.834,45.765 292.241,44.01 292.241,41.067 L292.241,38.205 L294.644,38.205 L294.644,40.986 C294.644,42.66 295.4,43.47 296.831,43.47 C298.262,43.47 298.91,42.66 298.91,40.986 L298.91,27.378 L301.475,27.378 L301.475,40.77 Z M317.999,40.878 C317.999,43.848 315.893,45.765 313.058,45.765 C310.088,45.765 308.117,43.821 308.117,41.202 L308.117,39.96 L310.655,39.96 L310.655,40.797 C310.655,42.633 311.492,43.578 313.085,43.578 C314.651,43.578 315.461,42.633 315.461,41.256 C315.461,39.663 314.759,38.664 312.491,37.233 C310.466,35.937 308.333,34.182 308.333,31.59 C308.333,29.025 310.034,27 313.085,27 C316.001,27 317.864,28.917 317.864,31.563 L317.864,32.724 L315.434,32.724 L315.434,31.887 C315.434,30.375 314.705,29.187 313.004,29.187 C311.6,29.187 310.871,30.024 310.871,31.239 C310.871,32.832 311.6,33.669 314.192,35.343 C316.811,37.044 317.999,38.556 317.999,40.878 Z M328.664,45.36 L320.294,45.36 L320.294,27.378 L328.664,27.378 L328.664,29.7 L322.832,29.7 L322.832,34.83 L327.044,34.83 L327.044,37.044 L322.832,37.044 L322.832,43.038 L328.664,43.038 L328.664,45.36 Z M339.734,29.727 L336.062,29.727 L336.062,45.36 L333.497,45.36 L333.497,29.727 L329.798,29.727 L329.798,27.378 L339.734,27.378 L339.734,29.727 Z" id="vhvl,-phoneg1rl,-nk"></path>
                <path d="M15.0912,10.9856 C15.0912,13.52 12.288,15.7472 7.8912,15.7472 C3.168,15.7472 0,13.2704 0,9.2576 L0,8.9504 C0,4.7456 3.8592,2 8.448,2 C10.9056,2 12.6912,2.4416 14.6688,3.2672 L13.4016,6.3584 C12.2688,5.9744 10.944,5.6864 9.5424,5.6864 C7.3152,5.6864 5.76,6.9152 5.76,8.5664 L5.76,8.7584 C6.8736,7.76 8.1216,7.0304 10.272,7.0304 C13.2672,7.0304 15.0912,8.8736 15.0912,10.8896 L15.0912,10.9856 Z M9.8496,10.5632 L9.8496,10.5056 C9.8496,9.8528 9.2352,9.296 8.0448,9.296 C7.0848,9.296 6.3936,9.6608 5.76,10.1792 L5.76,10.2368 C5.76,11.1584 6.6624,11.9072 7.7568,11.9072 C9.0816,11.9072 9.8496,11.1776 9.8496,10.5632 Z M32.0832,6.9536 C32.0832,9.2768 30.3552,11.3888 26.5152,11.3888 L22.9056,11.3888 L22.9056,15.2672 L16.224,15.2672 L16.224,2.48 L26.3616,2.48 C30.2208,2.48 32.0832,4.4384 32.0832,6.7616 L32.0832,6.9536 Z M25.3248,7.5296 L25.3248,7.472 C25.3248,6.7616 25.0176,6.416 24.0192,6.416 L22.9056,6.416 L22.9056,8.5856 L24.0192,8.5856 C25.0176,8.5856 25.3248,8.2016 25.3248,7.5296 Z M55.9104,15.2672 L49.536,15.2672 L49.536,8.3744 L48.9984,9.9488 L47.136,15.2672 L41.3952,15.2672 L39.552,9.9488 L39.0144,8.3744 L39.0144,15.2672 L33.3312,15.2672 L33.3312,2.48 L42.7392,2.48 L44.4672,7.4912 L44.7744,8.5088 L45.0816,7.4912 L46.8096,2.48 L55.9104,2.48 L55.9104,15.2672 Z M64.8384,10.9088 L57.4464,10.9088 L57.4464,8.0288 L64.8384,8.0288 L64.8384,10.9088 Z M80.9856,11.9456 C80.9856,14.0192 78.6432,15.7472 73.5168,15.7472 C68.3904,15.7472 66.048,14.0192 66.048,11.9456 L66.048,11.8304 C66.048,10.544 67.1808,9.3152 69.4848,8.7776 C67.6032,8.4896 66.4128,7.3376 66.4128,6.0512 L66.4128,5.936 C66.4128,4.016 68.4096,2 73.5168,2 C78.6048,2 80.6208,4.016 80.6208,5.936 L80.6208,6.0512 C80.6208,7.3376 79.4112,8.4896 77.5296,8.7776 C79.8528,9.3152 80.9856,10.544 80.9856,11.8304 L80.9856,11.9456 Z M75.1488,6.6656 L75.1488,6.5504 C75.1488,6.032 74.7648,5.4368 73.5168,5.4368 C72.2688,5.4368 71.8656,6.032 71.8656,6.5504 L71.8656,6.6656 C71.8656,7.376 72.5376,7.8176 73.5168,7.8176 C74.496,7.8176 75.1488,7.376 75.1488,6.6656 Z M75.1488,11.1584 L75.1488,11.024 C75.1488,10.4096 74.6112,9.9104 73.5168,9.9104 C72.4032,9.9104 71.8656,10.4096 71.8656,11.024 L71.8656,11.1584 C71.8656,11.7728 72.3264,12.3104 73.5168,12.3104 C74.688,12.3104 75.1488,11.7728 75.1488,11.1584 Z M98.2464,6.9536 C98.2464,9.2768 96.5184,11.3888 92.6784,11.3888 L89.0688,11.3888 L89.0688,15.2672 L82.3872,15.2672 L82.3872,2.48 L92.5248,2.48 C96.384,2.48 98.2464,4.4384 98.2464,6.7616 L98.2464,6.9536 Z M91.488,7.5296 L91.488,7.472 C91.488,6.7616 91.1808,6.416 90.1824,6.416 L89.0688,6.416 L89.0688,8.5856 L90.1824,8.5856 C91.1808,8.5856 91.488,8.2016 91.488,7.5296 Z M122.0736,15.2672 L115.6992,15.2672 L115.6992,8.3744 L115.1616,9.9488 L113.2992,15.2672 L107.5584,15.2672 L105.7152,9.9488 L105.1776,8.3744 L105.1776,15.2672 L99.4944,15.2672 L99.4944,2.48 L108.9024,2.48 L110.6304,7.4912 L110.9376,8.5088 L111.2448,7.4912 L112.9728,2.48 L122.0736,2.48 L122.0736,15.2672 Z" id="6pm-8pm"></path>
            </g>
        </g>
        <path d="M164.936,3.727 L161.264,3.727 L161.264,19.36 L158.699,19.36 L158.699,3.727 L155,3.727 L155,1.378 L164.936,1.378 L164.936,3.727 Z M176.33,19.36 L173.738,19.36 L172.793,14.959 L168.905,14.959 L167.96,19.36 L165.476,19.36 L169.553,1.378 L172.253,1.378 L176.33,19.36 Z M172.334,12.772 L170.849,5.401 L169.364,12.772 L172.334,12.772 Z M188.264,19.549 L187.697,19.549 C185.672,19.549 184.97,18.982 184.97,17.119 L184.97,13.609 C184.97,12.367 184.403,11.53 183.107,11.53 L180.569,11.53 L180.569,19.36 L178.004,19.36 L178.004,1.378 L183.215,1.378 C186.131,1.378 187.427,2.836 187.427,5.401 L187.427,7.372 C187.427,9.127 186.833,10.18 185.105,10.531 C186.806,10.801 187.508,12.232 187.508,13.663 L187.508,16.93 C187.508,17.416 187.724,17.632 188.264,17.632 L188.264,19.549 Z M184.862,7.534 L184.862,5.347 C184.862,4.321 184.43,3.592 183.215,3.592 L180.569,3.592 L180.569,9.586 L182.945,9.586 C184.187,9.586 184.862,8.884 184.862,7.534 Z M199.982,14.608 C199.982,17.551 198.362,19.765 194.96,19.765 C191.585,19.765 189.938,17.551 189.938,14.608 L189.938,6.13 C189.938,3.214 191.585,1 194.96,1 C198.362,1 199.982,3.214 199.982,6.13 L199.982,14.608 Z M197.444,14.824 L197.444,5.914 C197.444,4.375 196.634,3.268 194.96,3.268 C193.286,3.268 192.503,4.375 192.503,5.914 L192.503,14.824 C192.503,16.363 193.286,17.47 194.96,17.47 C196.634,17.47 197.444,16.363 197.444,14.824 Z M211.484,3.727 L207.812,3.727 L207.812,19.36 L205.247,19.36 L205.247,3.727 L201.548,3.727 L201.548,1.378 L211.484,1.378 L211.484,3.727 Z M227.981,19.549 L227.414,19.549 C225.389,19.549 224.687,18.982 224.687,17.119 L224.687,13.609 C224.687,12.367 224.12,11.53 222.824,11.53 L220.286,11.53 L220.286,19.36 L217.721,19.36 L217.721,1.378 L222.932,1.378 C225.848,1.378 227.144,2.836 227.144,5.401 L227.144,7.372 C227.144,9.127 226.55,10.18 224.822,10.531 C226.523,10.801 227.225,12.232 227.225,13.663 L227.225,16.93 C227.225,17.416 227.441,17.632 227.981,17.632 L227.981,19.549 Z M224.579,7.534 L224.579,5.347 C224.579,4.321 224.147,3.592 222.932,3.592 L220.286,3.592 L220.286,9.586 L222.662,9.586 C223.904,9.586 224.579,8.884 224.579,7.534 Z M238.268,19.36 L229.898,19.36 L229.898,1.378 L238.268,1.378 L238.268,3.7 L232.436,3.7 L232.436,8.83 L236.648,8.83 L236.648,11.044 L232.436,11.044 L232.436,17.038 L238.268,17.038 L238.268,19.36 Z M250.094,19.36 L247.502,19.36 L246.557,14.959 L242.669,14.959 L241.724,19.36 L239.24,19.36 L243.317,1.378 L246.017,1.378 L250.094,19.36 Z M246.098,12.772 L244.613,5.401 L243.128,12.772 L246.098,12.772 Z M261.65,14.5 C261.65,17.281 260.192,19.36 256.844,19.36 L251.768,19.36 L251.768,1.378 L256.844,1.378 C260.192,1.378 261.65,3.457 261.65,6.238 L261.65,14.5 Z M259.112,14.392 L259.112,6.373 C259.112,4.672 258.356,3.727 256.682,3.727 L254.333,3.727 L254.333,17.011 L256.682,17.011 C258.356,17.011 259.112,16.066 259.112,14.392 Z M272.693,19.36 L264.323,19.36 L264.323,1.378 L272.693,1.378 L272.693,3.7 L266.861,3.7 L266.861,8.83 L271.073,8.83 L271.073,11.044 L266.861,11.044 L266.861,17.038 L272.693,17.038 L272.693,19.36 Z M285.194,19.549 L284.627,19.549 C282.602,19.549 281.9,18.982 281.9,17.119 L281.9,13.609 C281.9,12.367 281.333,11.53 280.037,11.53 L277.499,11.53 L277.499,19.36 L274.934,19.36 L274.934,1.378 L280.145,1.378 C283.061,1.378 284.357,2.836 284.357,5.401 L284.357,7.372 C284.357,9.127 283.763,10.18 282.035,10.531 C283.736,10.801 284.438,12.232 284.438,13.663 L284.438,16.93 C284.438,17.416 284.654,17.632 285.194,17.632 L285.194,19.549 Z M281.792,7.534 L281.792,5.347 C281.792,4.321 281.36,3.592 280.145,3.592 L277.499,3.592 L277.499,9.586 L279.875,9.586 C281.117,9.586 281.792,8.884 281.792,7.534 Z M296.345,14.878 C296.345,17.848 294.239,19.765 291.404,19.765 C288.434,19.765 286.463,17.821 286.463,15.202 L286.463,13.96 L289.001,13.96 L289.001,14.797 C289.001,16.633 289.838,17.578 291.431,17.578 C292.997,17.578 293.807,16.633 293.807,15.256 C293.807,13.663 293.105,12.664 290.837,11.233 C288.812,9.937 286.679,8.182 286.679,5.59 C286.679,3.025 288.38,1 291.431,1 C294.347,1 296.21,2.917 296.21,5.563 L296.21,6.724 L293.78,6.724 L293.78,5.887 C293.78,4.375 293.051,3.187 291.35,3.187 C289.946,3.187 289.217,4.024 289.217,5.239 C289.217,6.832 289.946,7.669 292.538,9.343 C295.157,11.044 296.345,12.556 296.345,14.878 Z" id="tarot-readers" fill="#000000"></path>
    </g>
</svg>