<svg id="Layer_1" data-name="Layer 1" xmlns="http://www.w3.org/2000/svg" viewBox="0 0 174.03 38.26"><defs><style>.cls-1{isolation:isolate;}.cls-2{fill:#231f20;}</style></defs><title>mike-q-mix</title><g id="Page-1"><g id="Group-3"><g id="mike-q-mix" class="cls-1"><g class="cls-1"><path d="M20.37,16V7.75l-.64,1.88L17.5,16H10.62L8.41,9.63,7.77,7.75V16H1V.69H12.23l2.07,6,.37,1.22L15,6.69l2.06-6H28V16Z" transform="translate(-0.96 -0.11)"/><path d="M30.08,16V.69h8V16Z" transform="translate(-0.96 -0.11)"/><path d="M52.55,16l-2.67-4.42-1.72,1.8V16h-8V.69h8V6.55L52.5.69H61L55.26,7.24,61,16Z" transform="translate(-0.96 -0.11)"/><path d="M62.12,16V.69H79.66V5.58H70.12V7h6V9.38h-6v1.31h9.54V16Z" transform="translate(-0.96 -0.11)"/><path d="M105.31,16.58a6.6,6.6,0,0,1-3.43-.88,13.31,13.31,0,0,1-5,.88c-6.55,0-10.39-3.68-10.39-8.12V8.18C86.5,3.72,90.34.11,96.89.11s10.42,3.61,10.42,8.07v.28a6.61,6.61,0,0,1-1,3.58,2.9,2.9,0,0,0,1.7.42v3.72A6.53,6.53,0,0,1,105.31,16.58ZM99.15,8.14c0-1.71-.4-3.27-2.26-3.27s-2.23,1.56-2.23,3.27v.39c0,1.68.37,3.24,2.23,3.24a2.57,2.57,0,0,0,1.2-.3l-.85-1,1.91-1.79Z" transform="translate(-0.96 -0.11)"/><path d="M134.22,16V7.75l-.64,1.88L131.34,16h-6.87l-2.21-6.37-.64-1.88V16h-6.81V.69h11.27l2.07,6,.37,1.22.36-1.22,2.07-6h10.9V16Z" transform="translate(-0.96 -0.11)"/><path d="M143.93,16V.69h8V16Z" transform="translate(-0.96 -0.11)"/><path d="M166.21,16l-2.39-3.24L161.38,16h-8.23l6.16-7.59L153.15.69h8.74l2.48,3.47L166.79.69H175l-6.14,7.74L175,16Z" transform="translate(-0.96 -0.11)"/></g></g><g id="june-10" class="cls-1"><g class="cls-1"><path class="cls-2" d="M59.05,38.38c-2.85,0-4.33-1.63-4.33-4.35V31.38H57V34c0,1.55.7,2.3,2,2.3S60.9,35.5,60.9,34V21.35h2.37v12.4C63.27,36.45,62.05,38.38,59.05,38.38Z" transform="translate(-0.96 -0.11)"/><path class="cls-2" d="M70.77,38.38c-2.7,0-4.62-1.6-4.62-4.35V21.35h2.37V34a2.28,2.28,0,0,0,4.55,0V21.35h2.35V34C75.42,36.78,73.5,38.38,70.77,38.38Z" transform="translate(-0.96 -0.11)"/><path class="cls-2" d="M86.1,38,82,29.9,80.57,27V38H78.32V21.35h1.93l4,8.25,1.32,2.93V21.35h2.25V38Z" transform="translate(-0.96 -0.11)"/><path class="cls-2" d="M90.72,38V21.35h7.75V23.5h-5.4v4.75H97V30.3h-3.9v5.55h5.4V38Z" transform="translate(-0.96 -0.11)"/><path class="cls-2" d="M105.55,38V22.43a1,1,0,0,0,1.07-1.08h1.18V38Z" transform="translate(-0.96 -0.11)"/><path class="cls-2" d="M115.37,38.38A4.11,4.11,0,0,1,111,34.05V25.3a4.43,4.43,0,0,1,8.85,0v8.75A4.13,4.13,0,0,1,115.37,38.38Zm2.2-13.3a2,2,0,0,0-2.2-2,2.06,2.06,0,0,0-2.22,2v9.2a2.06,2.06,0,0,0,2.22,2,2,2,0,0,0,2.2-2Z" transform="translate(-0.96 -0.11)"/></g></g></g></g></svg>