<svg xmlns="http://www.w3.org/2000/svg" viewBox="0 0 255.99 93.78"><defs><style>.cls-1{isolation:isolate;}.cls-2{fill:#231f20;}</style></defs><title>Asset 1</title><g id="Layer_2" data-name="Layer 2"><g id="Layer_1-2" data-name="Layer 1"><g id="Page-1"><g id="Desktop-HD"><g id="Page-1-2" data-name="Page-1"><g id="_12PM" data-name="12PM" class="cls-1"><g class="cls-1"><path class="cls-2" d="M46.7,54.14c-10.1,0-20.83-2.59-26.88-6.19l5.93-10.16A58.4,58.4,0,0,0,47,42.46c3.66,0,5.87-.69,5.87-1.83,0-4-31.24-1-31.24-17,0-8,8.84-14.64,26.06-14.64,11.86,0,21.45,2.9,25.93,5.36L67.2,24c-7-2.15-13.56-3.35-18-3.35-3,0-4.93.57-4.93,1.77,0,4.48,29.91.69,29.91,16.15C74.14,48,65.62,54.14,46.7,54.14Z" transform="translate(0 -8.96)"/><path class="cls-2" d="M113.7,25.18V52.56h-22V25.18H76.23V10.54h53V25.18Z" transform="translate(0 -8.96)"/><path class="cls-2" d="M162,52.56l-2.46-7.32H146.71l-2.84,7.32H124.69l18.55-42h22.59l18.92,42Zm-8.33-24.8-3.09,7.89h5.8Z" transform="translate(0 -8.96)"/><path class="cls-2" d="M217.56,38.3V52.56h-22V38.3L175.85,10.54h24.29l8.08,12.24L216,10.54h21.83Z" transform="translate(0 -8.96)"/></g></g><g id="_-" data-name="-" class="cls-1"><g class="cls-1"><path class="cls-2" d="M73.38,101.16H49.47L42.84,80l-6.62,21.14H14.7L0,59.14H23.53l6,21.64,6.06-21.64H56.85L63.22,81l6.37-21.89H88.27Z" transform="translate(0 -8.96)"/><path class="cls-2" d="M115,102.74c-18,0-28.58-10.1-28.58-22.28v-.75c0-12.24,10.53-22.15,28.58-22.15s28.52,9.91,28.52,22.15v.75C143.49,92.64,133,102.74,115,102.74Zm6.12-23.16c0-4.67-1-9-6.12-9s-6.19,4.29-6.19,9v1.07c0,4.61,1.08,8.9,6.19,8.9s6.12-4.29,6.12-8.9Z" transform="translate(0 -8.96)"/><path class="cls-2" d="M181.6,101.16l-7.32-12.11L169.55,94v7.19h-22v-42h22V75.23l11.92-16.09h23.28L189,77.12l15.84,24Z" transform="translate(0 -8.96)"/><path class="cls-2" d="M207.85,101.16v-42H256V72.58H229.8v4h16.41V83H229.8v3.59H256v14.58Z" transform="translate(0 -8.96)"/></g></g></g></g></g></g></g></svg>