<svg id="Layer_1" data-name="Layer 1" xmlns="http://www.w3.org/2000/svg" viewBox="0 0 203.42 141.84"><defs><style>.cls-1{isolation:isolate;}.cls-2{fill:#231f20;}</style></defs><title>time</title><g id="Page-1"><g id="Desktop-HD"><g id="Page-1-2" data-name="Page-1"><g id="_12PM" data-name="12PM" class="cls-1"><g class="cls-1"><path class="cls-2" d="M1.77,44V9.17c5.23,0,8-3.47,8-7.19H21.26V44Z" transform="translate(-1.77 -0.4)"/><path class="cls-2" d="M46,31.32H70.23V44H24.42V39.27c0-16.85,27.44-16.72,27.44-23.1,0-1.82-2-3.15-6.37-3.15-4.73,0-10.66,1.64-16.28,4L24.92,5.32A53.79,53.79,0,0,1,48.27.4C61.2.4,70,6.46,70,13.78,70,21.73,61,26.21,46,31.32Z" transform="translate(-1.77 -0.4)"/><path class="cls-2" d="M108.59,31.25H96.73V44h-22V2h33.31c12.69,0,18.81,6.43,18.81,14.07v.63C126.89,24.31,121.21,31.25,108.59,31.25Zm-3.91-12.87c0-2.33-1-3.47-4.29-3.47H96.73V22h3.66c3.28,0,4.29-1.26,4.29-3.47Z" transform="translate(-1.77 -0.4)"/><path class="cls-2" d="M184.24,44V21.35l-1.77,5.17L176.35,44H157.49l-6.06-17.48-1.76-5.17V44H131V2h30.92l5.67,16.47,1,3.34,1-3.34L175.28,2h29.91V44Z" transform="translate(-1.77 -0.4)"/></g></g><g id="_-" data-name="-" class="cls-1"><g class="cls-1"><path class="cls-2" d="M91.33,78.28V68.81h24.29v9.47Z" transform="translate(-1.77 -0.4)"/></g></g><g id="_8PM" data-name="8PM" class="cls-1"><g class="cls-1"><path class="cls-2" d="M37.05,142.24c-16.84,0-24.54-5.68-24.54-12.49v-.38c0-4.23,3.72-8.27,11.29-10-6.18-.94-10.09-4.73-10.09-9V110c0-6.31,6.56-12.94,23.34-12.94S60.4,103.69,60.4,110v.38c0,4.22-4,8-10.16,9,7.63,1.77,11.36,5.81,11.36,10v.38C61.6,136.56,53.9,142.24,37.05,142.24ZM42.41,112c0-1.7-1.26-3.65-5.36-3.65s-5.43,2-5.43,3.65v.38c0,2.34,2.21,3.79,5.43,3.79s5.36-1.45,5.36-3.79Zm0,14.71c0-2-1.76-3.66-5.36-3.66s-5.43,1.64-5.43,3.66v.44c0,2,1.52,3.78,5.43,3.78s5.36-1.76,5.36-3.78Z" transform="translate(-1.77 -0.4)"/><path class="cls-2" d="M98.76,127.92H86.9v12.74h-22v-42H98.26c12.68,0,18.8,6.43,18.8,14.07v.63C117.06,121,111.38,127.92,98.76,127.92ZM94.85,115c0-2.33-1-3.47-4.29-3.47H86.9v7.13h3.66c3.28,0,4.29-1.26,4.29-3.47Z" transform="translate(-1.77 -0.4)"/><path class="cls-2" d="M173.15,140.66V118l-1.77,5.17-6.12,17.48H146.4l-6.06-17.48L138.58,118v22.65H119.9v-42h30.92l5.67,16.47,1,3.34,1-3.34,5.68-16.47H194.1v42Z" transform="translate(-1.77 -0.4)"/></g></g></g></g></g></svg>