<svg id="Layer_1" data-name="Layer 1" xmlns="http://www.w3.org/2000/svg" viewBox="0 0 277.56 334.12"><defs><style>.cls-1{isolation:isolate;}.cls-2{fill:#231f20;}</style></defs><title>headline</title><g id="Page-1"><g id="life-coach-will-see-you-now"><g class="cls-1"><path class="cls-2" d="M81.32,333.52l-14.7-14.58L65,317.12v16.4H45.36v-42H63.15l15.77,14.7,1.46,1.58V291.5h19.74v42Z" transform="translate(-1.17 -0.98)"/></g><g class="cls-1"><path class="cls-2" d="M131.81,335.1c-18,0-28.59-10.1-28.59-22.28v-.75c0-12.24,10.54-22.15,28.59-22.15s28.51,9.91,28.51,22.15v.75C160.32,325,149.79,335.1,131.81,335.1Zm6.12-23.16c0-4.67-1-9-6.12-9s-6.19,4.29-6.19,9V313c0,4.61,1.07,8.9,6.19,8.9s6.12-4.29,6.12-8.9Z" transform="translate(-1.17 -0.98)"/></g><g class="cls-1"><path class="cls-2" d="M230.69,333.52H206.77l-6.62-21.14-6.63,21.14H172l-14.7-42h23.53l6,21.64,6-21.64h21.27l6.37,21.89,6.37-21.89h18.68Z" transform="translate(-1.17 -0.98)"/></g><g class="cls-1"><path class="cls-2" d="M95.76,15.62V43h-22V15.62H58.29V1h53V15.62Z" transform="translate(-1.17 -0.98)"/><path class="cls-2" d="M148.39,43V28.42H137.28V43h-22V1h22V16.75h11.11V1h22V43Z" transform="translate(-1.17 -0.98)"/><path class="cls-2" d="M176.09,43V1h48.14V14.42H198v4h16.41v6.44H198v3.59h26.19V43Z" transform="translate(-1.17 -0.98)"/></g><g class="cls-1"><path class="cls-2" d="M51.85,91.6v-42h22V77h26.5V91.6Z" transform="translate(-1.17 -0.98)"/><path class="cls-2" d="M104,91.6v-42h22v42Z" transform="translate(-1.17 -0.98)"/><path class="cls-2" d="M153.62,63v5.11h13.82v7.44H153.62v16h-22v-42H181V63Z" transform="translate(-1.17 -0.98)"/><path class="cls-2" d="M184.16,91.6v-42h48.15V63H206.12v4h16.41v6.44H206.12V77h26.19V91.6Z" transform="translate(-1.17 -0.98)"/></g><g class="cls-1"><path class="cls-2" d="M94.72,270.66v14.26h-22V270.66L53,242.9H77.31l8.08,12.24,7.76-12.24H115Z" transform="translate(-1.17 -0.98)"/></g><g class="cls-1"><g class="cls-1"><path class="cls-2" d="M139,286.5c-18.05,0-28.59-10.1-28.59-22.28v-.75c0-12.24,10.54-22.15,28.59-22.15s28.51,9.91,28.51,22.15v.75C167.47,276.4,156.94,286.5,139,286.5Zm6.12-23.16c0-4.67-1-9-6.12-9s-6.19,4.29-6.19,9v1.07c0,4.61,1.07,8.9,6.19,8.9s6.12-4.29,6.12-8.9Z" transform="translate(-1.17 -0.98)"/></g><g class="cls-1"><path class="cls-2" d="M198.87,286.5c-19.81,0-27.63-8.65-27.63-19.62v-24h21.95v22.4c0,5.23,1.58,7.51,6.82,7.51s6.68-2.28,6.68-7.51V242.9h19.5v24C226.19,277.85,218.75,286.5,198.87,286.5Z" transform="translate(-1.17 -0.98)"/></g></g><g class="cls-1"><path class="cls-2" d="M31.58,141.24c-18.43,0-30.41-9.21-30.41-22.34v-.5c0-13.13,12-22.34,30.41-22.34,9.65,0,19,3,24,7.19l-8.2,10.42a23.86,23.86,0,0,0-12.56-3.73c-6.37,0-11.23,3.41-11.23,8.58v.26c0,5.17,4.86,8.58,11.23,8.58a23.63,23.63,0,0,0,12.56-3.73L54.86,134C49.43,138.59,41.23,141.24,31.58,141.24Z" transform="translate(-1.17 -0.98)"/></g><g class="cls-1"><path class="cls-2" d="M84.39,141.24c-18,0-28.58-10.1-28.58-22.28v-.75c0-12.24,10.53-22.15,28.58-22.15s28.52,9.91,28.52,22.15V119C112.91,131.14,102.37,141.24,84.39,141.24Zm6.12-23.16c0-4.67-1-9-6.12-9s-6.18,4.29-6.18,9v1.07c0,4.61,1.07,8.9,6.18,8.9s6.12-4.29,6.12-8.9Z" transform="translate(-1.17 -0.98)"/></g><g class="cls-1"><path class="cls-2" d="M147.29,139.66l-2.46-7.32H132l-2.84,7.32H110l18.55-42h22.59l18.93,42ZM139,114.86l-3.09,7.89h5.81Z" transform="translate(-1.17 -0.98)"/></g><g class="cls-1"><path class="cls-2" d="M197.52,141.24c-18.42,0-30.41-9.21-30.41-22.34v-.5c0-13.13,12-22.34,30.41-22.34,9.66,0,19,3,24,7.19l-8.2,10.42a23.89,23.89,0,0,0-12.56-3.73c-6.37,0-11.23,3.41-11.23,8.58v.26c0,5.17,4.86,8.58,11.23,8.58a23.63,23.63,0,0,0,12.56-3.73L220.81,134C215.38,138.59,207.18,141.24,197.52,141.24Z" transform="translate(-1.17 -0.98)"/><path class="cls-2" d="M256.71,139.66V125.08H245.6v14.58H223.65v-42H245.6v15.77h11.11V97.64h22v42Z" transform="translate(-1.17 -0.98)"/></g><g class="cls-1"><path class="cls-2" d="M104.52,188.26H80.61L74,167.12l-6.62,21.14H45.84l-14.7-42H54.68l6,21.64,6.06-21.64H88l6.37,21.89,6.37-21.89h18.68Z" transform="translate(-1.17 -0.98)"/><path class="cls-2" d="M121.31,188.26v-42h21.95v42Z" transform="translate(-1.17 -0.98)"/><path class="cls-2" d="M148.94,188.26v-42h22v27.44h26.5v14.58Z" transform="translate(-1.17 -0.98)"/><path class="cls-2" d="M201.12,188.26v-42h22v27.44h26.5v14.58Z" transform="translate(-1.17 -0.98)"/></g><g class="cls-1"><path class="cls-2" d="M87.64,237.9c-10.09,0-20.82-2.59-26.87-6.19l5.93-10.15a58.57,58.57,0,0,0,21.2,4.66c3.66,0,5.86-.69,5.86-1.82,0-4-31.23-1-31.23-17,0-8,8.84-14.64,26.06-14.64,11.86,0,21.45,2.9,25.93,5.36l-6.37,9.66c-7-2.15-13.57-3.35-18.05-3.35-3,0-4.92.57-4.92,1.77,0,4.48,29.91.69,29.91,16.15C115.09,231.78,106.57,237.9,87.64,237.9Z" transform="translate(-1.17 -0.98)"/><path class="cls-2" d="M118.81,236.32v-42H167v13.44H140.77v4h16.41v6.44H140.77v3.6H167v14.57Z" transform="translate(-1.17 -0.98)"/><path class="cls-2" d="M171.44,236.32v-42h48.14v13.44H193.39v4H209.8v6.44H193.39v3.6h26.19v14.57Z" transform="translate(-1.17 -0.98)"/></g></g></g></svg>