<svg id="Layer_1" data-name="Layer 1" xmlns="http://www.w3.org/2000/svg" viewBox="0 0 151.6 296.87"><defs><style>.cls-1{isolation:isolate;}.cls-2{fill:#231f20;}</style></defs><title>if-not-now</title><g id="Page-1"><g id="if-not" class="cls-1"><g class="cls-1"><path class="cls-2" d="M44,281.4H2V259.45H44Z" transform="translate(-0.4 -0.45)"/><path class="cls-2" d="M15.42,231.81h5.11V218H28v13.82H44v22H2V204.49H15.42Z" transform="translate(-0.4 -0.45)"/><path class="cls-2" d="M44,149.47l-14.58,14.7-1.82,1.58H44v19.68H2V167.64l14.7-15.77,1.58-1.45H2V130.67H44Z" transform="translate(-0.4 -0.45)"/><path class="cls-2" d="M45.58,98c0,18-10.1,28.58-22.28,28.58h-.75C10.31,126.56.4,116,.4,98s9.91-28.52,22.15-28.52h.75C35.48,69.46,45.58,80,45.58,98ZM22.42,91.86c-4.67,0-9,1-9,6.12s4.29,6.19,9,6.19h1.07c4.61,0,8.9-1.08,8.9-6.19s-4.29-6.12-8.9-6.12Z" transform="translate(-0.4 -0.45)"/><path class="cls-2" d="M16.62,30.79H44v22H16.62V68.26H2v-53H16.62Z" transform="translate(-0.4 -0.45)"/></g></g><g id="now_" data-name="now," class="cls-1"><g class="cls-1"><path class="cls-2" d="M98,221.75l-14.58,14.7L81.6,238H98v19.68H56V239.92l14.7-15.78,1.58-1.45H56V202.94H98Z" transform="translate(-0.4 -0.45)"/><path class="cls-2" d="M99.58,170.26c0,18-10.1,28.58-22.28,28.58h-.75c-12.24,0-22.15-10.54-22.15-28.58s9.91-28.52,22.15-28.52h.75C89.48,141.74,99.58,152.28,99.58,170.26Zm-23.16-6.12c-4.67,0-9,1-9,6.12s4.29,6.18,9,6.18h1.07c4.61,0,8.9-1.07,8.9-6.18s-4.29-6.12-8.9-6.12Z" transform="translate(-0.4 -0.45)"/><path class="cls-2" d="M98,69.93V93.84l-21.14,6.63L98,107.09v21.52l-42,14.7V119.78l21.64-6L56,107.72V86.46l21.89-6.37L56,73.72V55Z" transform="translate(-0.4 -0.45)"/><path class="cls-2" d="M107.46,61.67h-3.53c0-2.84-2.71-5.24-5.93-5.24v5.24H85.07V48.17H97.12C102.79,48.17,107.46,52.71,107.46,61.67Z" transform="translate(-0.4 -0.45)"/></g></g><g id="when_" data-name="when?" class="cls-1"><g class="cls-1"><path class="cls-2" d="M152,223.94v23.92l-21.14,6.62L152,261.11v21.51l-42,14.7V273.79l21.64-6L110,261.74V240.47l21.89-6.37L110,227.73V209.05Z" transform="translate(-0.4 -0.45)"/><path class="cls-2" d="M152,175.36H137.42v11.1H152v22H110v-22h15.77v-11.1H110v-22h42Z" transform="translate(-0.4 -0.45)"/><path class="cls-2" d="M152,148.92H110V100.78h13.44V127h4v-16.4h6.44V127h3.59V100.78H152Z" transform="translate(-0.4 -0.45)"/><path class="cls-2" d="M152,61.59l-14.58,14.7-1.82,1.58H152V97.56H110V79.76L124.68,64l1.58-1.45H110V42.79h42Z" transform="translate(-0.4 -0.45)"/><path class="cls-2" d="M136.73,17.11V30c-8.83,0-10.41-10.54-13.19-10.54-1.32,0-2.27,1.39-2.27,4.73,0,3.54,1.08,8.4,2.65,13.32l-10.41,4.16c-3.53-7.13-5.11-12.74-5.11-20.38,0-13.5,5.87-20.82,12.18-20.82C130.23.45,130.23,17.11,136.73,17.11ZM152,29.79H139.76V17.3H152Z" transform="translate(-0.4 -0.45)"/></g></g></g></svg>