<svg id="Layer_1" data-name="Layer 1" xmlns="http://www.w3.org/2000/svg" viewBox="0 0 165.25 68.24"><defs><style>.cls-1{isolation:isolate;}.cls-2{fill:#231f20;}</style></defs><title>visitors</title><g id="Page-1"><g id="Group-3"><g id="_2245" data-name="2245" class="cls-1"><g class="cls-1"><path d="M18.71,56.35H39.05V67H.58V63C.58,48.88,23.63,49,23.63,43.63,23.63,42.09,22,41,18.28,41c-4,0-9,1.38-13.67,3.39L1,34.51a45.18,45.18,0,0,1,19.6-4.13c10.87,0,18.29,5.09,18.29,11.24C38.9,48.29,31.26,52.06,18.71,56.35Z" transform="translate(-0.58 -0.09)"/><path d="M58.88,56.35H79.23V67H40.76V63c0-14.15,23.05-14.05,23.05-19.4,0-1.54-1.65-2.65-5.35-2.65-4,0-9,1.38-13.68,3.39l-3.6-9.86a45.22,45.22,0,0,1,19.61-4.13c10.86,0,18.28,5.09,18.28,11.24C79.07,48.29,71.44,52.06,58.88,56.35Z" transform="translate(-0.58 -0.09)"/><path d="M117.23,60.38V67H101.17V60.38H81.51V52.27l20.93-20.56h14.79v19h5.3v9.65ZM101.17,44.8l-5.83,5.93h5.83Z" transform="translate(-0.58 -0.09)"/><path d="M157.35,41.93H141l-.59,6.31a16.65,16.65,0,0,1,11.18-3.6c9.17,0,14.26,4.82,14.26,10.86v.16c0,6.94-6.52,12.67-20.08,12.67a59.93,59.93,0,0,1-21-3.71l3.49-9.23a46.81,46.81,0,0,0,15.32,2.49c4.4,0,6.31-1.59,6.31-3.7V54c0-1.48-1.22-3.28-4.4-3.28A8.43,8.43,0,0,0,139,53.27l-12.45-1.48,1.64-20.08h37.26C164.93,38,162.6,41.93,157.35,41.93Z" transform="translate(-0.58 -0.09)"/></g></g><g id="visitors" class="cls-1"><g class="cls-1"><path class="cls-2" d="M45.61,20H43L38.35.5h2.9l3.13,15.08L47.52.5h2.81Z" transform="translate(-0.58 -0.09)"/><path class="cls-2" d="M52.47,20V.5h2.78V20Z" transform="translate(-0.58 -0.09)"/><path class="cls-2" d="M63.36,20.44c-3.22,0-5.36-2.11-5.36-5V14.14h2.75v.91c0,2,.91,3,2.64,3A2.34,2.34,0,0,0,66,15.55c0-1.73-.76-2.81-3.22-4.36-2.2-1.41-4.51-3.31-4.51-6.12a4.77,4.77,0,0,1,5.15-5,4.81,4.81,0,0,1,5.18,5V6.3H65.94V5.39c0-1.64-.79-2.93-2.64-2.93A2.09,2.09,0,0,0,61,4.69c0,1.72.79,2.63,3.6,4.45s4.13,3.48,4.13,6A5.09,5.09,0,0,1,63.36,20.44Z" transform="translate(-0.58 -0.09)"/><path class="cls-2" d="M71.53,20V.5h2.78V20Z" transform="translate(-0.58 -0.09)"/><path class="cls-2" d="M83.36,3.05V20H80.58V3.05h-4V.5H87.35V3.05Z" transform="translate(-0.58 -0.09)"/><path class="cls-2" d="M94.55,20.44c-3.66,0-5.45-2.4-5.45-5.59V5.65c0-3.16,1.79-5.56,5.45-5.56S100,2.49,100,5.65v9.2C100,18,98.24,20.44,94.55,20.44Zm2.69-15a2.55,2.55,0,0,0-2.69-2.87c-1.82,0-2.67,1.2-2.67,2.87v9.66c0,1.67.85,2.87,2.67,2.87a2.55,2.55,0,0,0,2.69-2.87Z" transform="translate(-0.58 -0.09)"/><path class="cls-2" d="M113.73,20.21c-2.19,0-3-.62-3-2.64V13.76c0-1.34-.61-2.25-2-2.25H106V20h-2.78V.5h5.65c3.16,0,4.57,1.58,4.57,4.36V7c0,1.9-.65,3-2.52,3.42a3.16,3.16,0,0,1,2.61,3.4v3.54c0,.53.23.77.82.77v2.08ZM110.66,4.8c0-1.11-.47-1.9-1.79-1.9H106V9.4h2.58c1.34,0,2.08-.76,2.08-2.23Z" transform="translate(-0.58 -0.09)"/><path class="cls-2" d="M121.4,20.44c-3.22,0-5.35-2.11-5.35-5V14.14h2.75v.91c0,2,.91,3,2.63,3A2.34,2.34,0,0,0,124,15.55c0-1.73-.76-2.81-3.22-4.36-2.2-1.41-4.51-3.31-4.51-6.12a5.17,5.17,0,0,1,10.34,0V6.3H124V5.39c0-1.64-.79-2.93-2.63-2.93A2.09,2.09,0,0,0,119,4.69c0,1.72.79,2.63,3.6,4.45s4.13,3.48,4.13,6A5.09,5.09,0,0,1,121.4,20.44Z" transform="translate(-0.58 -0.09)"/></g></g></g></g></svg>