<svg id="Layer_1" data-name="Layer 1" xmlns="http://www.w3.org/2000/svg" viewBox="0 0 466.14 101.11"><defs><style>.cls-1{fill:#fff;}</style></defs><title>stretch-bobbito</title><path class="cls-1" d="M28.46,45.58C18.38,45.58,7.67,43,1.62,39.4L7.54,29.26a58.47,58.47,0,0,0,21.17,4.66c3.66,0,5.86-.69,5.86-1.83,0-4-31.19-1-31.19-17,0-8,8.83-14.62,26-14.62,11.84,0,21.42,2.9,25.89,5.36l-6.36,9.64c-7-2.14-13.55-3.34-18-3.34-3,0-4.92.57-4.92,1.76,0,4.48,29.87.7,29.87,16.13C55.87,39.46,47.36,45.58,28.46,45.58Z" transform="translate(-1.62 -0.46)"/><path class="cls-1" d="M95.37,16.66V44H73.44V16.66H57.94V2h52.92V16.66Z" transform="translate(-1.62 -0.46)"/><path class="cls-1" d="M149.29,44c-2.52,0-5-2.77-5-6.49V33.67c0-3-.63-4.48-3.84-4.48h-3.65V44H114.89V2H148.6c11.4,0,18.27,5,18.27,11.72v.57c0,4-3.84,8.19-10,9.38,7.31.7,9.33,5,9.33,9.83V37a8.6,8.6,0,0,0,2.27,6.36V44Zm-4.6-26.27c0-2.21-1.19-3-4.47-3h-3.46v6.68h3.46c3.28,0,4.47-1.38,4.47-3.46Z" transform="translate(-1.62 -0.46)"/><path class="cls-1" d="M171.4,44V2h48.08V15.46H193.33v4h16.38v6.42H193.33v3.6h26.15V44Z" transform="translate(-1.62 -0.46)"/><path class="cls-1" d="M259.73,16.66V44H237.81V16.66h-15.5V2h52.92V16.66Z" transform="translate(-1.62 -0.46)"/><path class="cls-1" d="M308.05,45.58c-18.4,0-30.37-9.2-30.37-22.31v-.5c0-13.11,12-22.31,30.37-22.31,9.64,0,19,3,23.94,7.19L323.8,18a23.87,23.87,0,0,0-12.54-3.71c-6.36,0-11.21,3.4-11.21,8.56v.26c0,5.16,4.85,8.56,11.21,8.56A23.61,23.61,0,0,0,323.8,28l7.5,10.39C325.88,42.93,317.69,45.58,308.05,45.58Z" transform="translate(-1.62 -0.46)"/><path class="cls-1" d="M368.09,44V29.45H357V44H335.08V2H357V17.79h11.09V2h22V44Z" transform="translate(-1.62 -0.46)"/><path class="cls-1" d="M457.74,45.58c-4.54,0-8.19-1.2-12.92-4.1-4.91,2.27-10.2,4.1-16,4.1C417.29,45.58,409,39.9,409,32.85c0-5.61,4.34-10.46,12.16-12.22a10.74,10.74,0,0,1-3-6.75c0-7.37,8.38-13.42,18.64-13.42,8.95,0,15.63,4.79,15.63,10.9,0,4.16-3.53,8.64-11.53,11.16a28,28,0,0,0,5.29,4.41,49.85,49.85,0,0,0,6.56-8.13l8.63,6.11A61,61,0,0,1,455,33.35a8.1,8.1,0,0,0,4.16,1.26,10.1,10.1,0,0,0,4.47-1.19l4.1,8.75A17.45,17.45,0,0,1,457.74,45.58ZM428.38,28a3.49,3.49,0,0,0-2.33,3.34c0,1.89,1.95,3.78,5,3.78a7.35,7.35,0,0,0,4.22-1.26A47,47,0,0,1,428.38,28Zm7.75-17.27a2.67,2.67,0,0,0-2.65,2.84,4,4,0,0,0,1.58,3.09c1.76-.44,3.46-2.15,3.46-3.66A2.22,2.22,0,0,0,436.13,10.73Z" transform="translate(-1.62 -0.46)"/><path class="cls-1" d="M88.66,100H53.56V58H87.9c11.53,0,16.95,4.6,16.95,11v.5c0,4.28-3.78,8.06-11.15,9.51,8.12,1.33,11.4,4.79,11.4,9.64v.51C105.1,95.34,100.06,100,88.66,100Zm-5.3-26.9c0-1.89-1.19-2.65-4.47-2.65h-3.4v5.48h3.4c3.28,0,4.47-.82,4.47-2.64Zm0,11.84c0-1.82-1.19-2.64-4.47-2.64h-3.4v5.48h3.4c3.28,0,4.47-.76,4.47-2.65Z" transform="translate(-1.62 -0.46)"/><path class="cls-1" d="M135.72,101.58c-18,0-28.54-10.09-28.54-22.25v-.75c0-12.22,10.52-22.12,28.54-22.12s28.47,9.9,28.47,22.12v.75C164.19,91.49,153.67,101.58,135.72,101.58Zm6.11-23.13c0-4.66-1-8.94-6.11-8.94s-6.18,4.28-6.18,8.94v1.07c0,4.6,1.07,8.89,6.18,8.89s6.11-4.29,6.11-8.89Z" transform="translate(-1.62 -0.46)"/><path class="cls-1" d="M203.38,100H168.29V58h34.33c11.53,0,16.95,4.6,16.95,11v.5c0,4.28-3.78,8.06-11.15,9.51,8.13,1.33,11.4,4.79,11.4,9.64v.51C219.82,95.34,214.78,100,203.38,100Zm-5.29-26.9c0-1.89-1.2-2.65-4.48-2.65h-3.4v5.48h3.4c3.28,0,4.48-.82,4.48-2.64Zm0,11.84c0-1.82-1.2-2.64-4.48-2.64h-3.4v5.48h3.4c3.28,0,4.48-.76,4.48-2.65Z" transform="translate(-1.62 -0.46)"/><path class="cls-1" d="M258.57,100h-35.1V58h34.34c11.53,0,16.95,4.6,16.95,11v.5c0,4.28-3.78,8.06-11.15,9.51,8.12,1.33,11.4,4.79,11.4,9.64v.51C275,95.34,270,100,258.57,100Zm-5.3-26.9c0-1.89-1.19-2.65-4.47-2.65h-3.4v5.48h3.4c3.28,0,4.47-.82,4.47-2.64Zm0,11.84c0-1.82-1.19-2.64-4.47-2.64h-3.4v5.48h3.4c3.28,0,4.47-.76,4.47-2.65Z" transform="translate(-1.62 -0.46)"/><path class="cls-1" d="M278.66,100V58h21.93v42Z" transform="translate(-1.62 -0.46)"/><path class="cls-1" d="M342,72.66V100H320.12V72.66h-15.5V58h52.92V72.66Z" transform="translate(-1.62 -0.46)"/><path class="cls-1" d="M388.53,101.58c-18,0-28.54-10.09-28.54-22.25v-.75c0-12.22,10.52-22.12,28.54-22.12S417,66.36,417,78.58v.75C417,91.49,406.49,101.58,388.53,101.58Zm6.11-23.13c0-4.66-1-8.94-6.11-8.94s-6.17,4.28-6.17,8.94v1.07c0,4.6,1.07,8.89,6.17,8.89s6.11-4.29,6.11-8.89Z" transform="translate(-1.62 -0.46)"/></svg>