<svg id="Layer_1" data-name="Layer 1" xmlns="http://www.w3.org/2000/svg" viewBox="0 0 236.12 43.57"><defs><style>.cls-1{fill:#fff;}</style></defs><title>yaeji</title><g id="Layer_2" data-name="Layer 2"><g id="Layer_1-2" data-name="Layer 1-2"><g id="Page-1"><g id="kenny-dope"><path class="cls-1" d="M41.65,27.72V42H19.72V27.72L0,0H24.26l8.06,12.22L40.07,0h21.8Z" transform="translate(0 0.04)"/><path class="cls-1" d="M88.45,42,86,34.65H73.21L70.37,42H51.22L69.74,0H92.3l18.9,42ZM80.14,17.2l-3.09,7.87h5.8Z" transform="translate(0 0.04)"/><path class="cls-1" d="M112.64,42V0h48.07V13.42H134.57v4H151v6.42H134.57v3.59h26.14V42Z" transform="translate(0 0.04)"/><path class="cls-1" d="M185.85,43.53a44.45,44.45,0,0,1-24.07-6.67L168,24.48c4.6,2.27,9.26,3.85,13.73,3.85,3.78,0,5.23-1.77,5.23-5.17V0h21.93V24.76C208.85,36.29,200.72,43.53,185.85,43.53Z" transform="translate(0 0.04)"/><path class="cls-1" d="M214.2,42V0h21.92V42Z" transform="translate(0 0.04)"/></g></g></g></g></svg>