<svg id="Layer_1" data-name="Layer 1" xmlns="http://www.w3.org/2000/svg" viewBox="0 0 171.47 116.48"><defs><style>.cls-1{isolation:isolate;}.cls-2{fill:#231f20;}</style></defs><title>you-are-here</title><g id="Page-1"><g id="Desktop-HD"><g id="Page-1-2" data-name="Page-1"><g id="you" class="cls-1"><g class="cls-1"><path class="cls-2" d="M46.09,23.59V35H28.52V23.59L12.72,1.38H32.15l6.47,9.8,6.2-9.8H62.29Z" transform="translate(-0.65 -0.12)"/><path class="cls-2" d="M81.47,36.26c-14.43,0-22.86-8.07-22.86-17.82v-.6C58.61,8.05,67,.12,81.47.12s22.82,7.93,22.82,17.72v.6C104.29,28.19,95.86,36.26,81.47,36.26Zm4.9-18.52c0-3.74-.81-7.17-4.9-7.17S76.53,14,76.53,17.74v.86c0,3.68.85,7.11,4.94,7.11s4.9-3.43,4.9-7.11Z" transform="translate(-0.65 -0.12)"/><path class="cls-2" d="M129.43,36.26c-15.85,0-22.11-6.91-22.11-15.7V1.38h17.56V19.3c0,4.19,1.27,6,5.45,6s5.36-1.82,5.36-6V1.38h15.59V20.56C151.28,29.35,145.33,36.26,129.43,36.26Z" transform="translate(-0.65 -0.12)"/></g></g><g id="are" class="cls-1"><g class="cls-1"><path class="cls-2" d="M47.4,75.8l-2-5.86H35.18L32.91,75.8H17.57L32.41,42.18H50.48L65.62,75.8ZM40.74,56l-2.48,6.31h4.65Z" transform="translate(-0.65 -0.12)"/><path class="cls-2" d="M94.34,75.8c-2,0-4-2.22-4-5.2V67.52c0-2.37-.5-3.58-3.07-3.58H84.3V75.8H66.78V42.18h27c9.13,0,14.63,4,14.63,9.39V52c0,3.23-3.07,6.56-8,7.52,5.85.55,7.47,4,7.47,7.87V70.2a6.88,6.88,0,0,0,1.82,5.09v.51Zm-3.68-21c0-1.77-1-2.42-3.59-2.42H84.3v5.35h2.77c2.63,0,3.59-1.11,3.59-2.78Z" transform="translate(-0.65 -0.12)"/><path class="cls-2" d="M112.06,75.8V42.18h38.51V52.93H129.63v3.18h13.12v5.15H129.63v2.88h20.94V75.8Z" transform="translate(-0.65 -0.12)"/></g></g><g id="here" class="cls-1"><g class="cls-1"><path class="cls-2" d="M27.1,116.6V104.94H18.21V116.6H.65V83H18.21V95.6H27.1V83H44.71V116.6Z" transform="translate(-0.65 -0.12)"/><path class="cls-2" d="M48.25,116.6V83H86.76V93.73h-21v3.18H78.94v5.15H65.81v2.88h21V116.6Z" transform="translate(-0.65 -0.12)"/><path class="cls-2" d="M116.9,116.6c-2,0-4-2.22-4-5.2v-3.08c0-2.37-.51-3.58-3.08-3.58h-2.93V116.6H89.34V83h27c9.14,0,14.64,4,14.64,9.39v.46c0,3.23-3.08,6.56-8,7.52,5.86.55,7.47,4,7.47,7.87V111a6.88,6.88,0,0,0,1.82,5.09v.51Zm-3.69-21c0-1.77-1-2.42-3.58-2.42h-2.78v5.35h2.78c2.62,0,3.58-1.11,3.58-2.78Z" transform="translate(-0.65 -0.12)"/><path class="cls-2" d="M133.61,116.6V83h38.51V93.73h-21v3.18h13.12v5.15H151.17v2.88h21V116.6Z" transform="translate(-0.65 -0.12)"/></g></g></g></g></g></svg>