<?xml version="1.0" encoding="UTF-8"?>
<svg width="196px" height="56px" viewBox="0 0 196 56" version="1.1" xmlns="http://www.w3.org/2000/svg" xmlns:xlink="http://www.w3.org/1999/xlink">
    <!-- Generator: Sketch 49.3 (51167) - http://www.bohemiancoding.com/sketch -->
    <title>special lineup to be</title>
    <desc>Created with Sketch.</desc>
    <defs></defs>
    <g id="03" stroke="none" stroke-width="1" fill="none" fill-rule="evenodd">
        <path d="M54.193,11.116 C54.193,14.416 51.223,16.55 44.623,16.55 C41.103,16.55 37.363,15.648 35.251,14.394 L37.319,10.852 C40.135,12.018 42.863,12.48 44.711,12.48 C45.987,12.48 46.757,12.238 46.757,11.842 C46.757,10.434 35.867,11.49 35.867,5.902 C35.867,3.108 38.947,0.798 44.953,0.798 C49.089,0.798 52.433,1.81 53.995,2.668 L51.773,6.034 C49.331,5.286 47.043,4.868 45.481,4.868 C44.425,4.868 43.765,5.066 43.765,5.484 C43.765,7.046 54.193,5.726 54.193,11.116 Z M73.663,6.474 C73.663,9.136 71.683,11.556 67.283,11.556 L63.147,11.556 L63.147,16 L55.491,16 L55.491,1.348 L67.107,1.348 C71.529,1.348 73.663,3.592 73.663,6.254 L73.663,6.474 Z M65.919,7.134 L65.919,7.068 C65.919,6.254 65.567,5.858 64.423,5.858 L63.147,5.858 L63.147,8.344 L64.423,8.344 C65.567,8.344 65.919,7.904 65.919,7.134 Z M91.879,16 L75.093,16 L75.093,1.348 L91.879,1.348 L91.879,6.034 L82.749,6.034 L82.749,7.42 L88.469,7.42 L88.469,9.664 L82.749,9.664 L82.749,10.918 L91.879,10.918 L91.879,16 Z M111.613,14.042 C109.721,15.626 106.861,16.55 103.495,16.55 C97.071,16.55 92.891,13.338 92.891,8.762 L92.891,8.586 C92.891,4.01 97.071,0.798 103.495,0.798 C106.861,0.798 110.117,1.854 111.855,3.306 L108.995,6.936 C107.807,6.166 106.201,5.638 104.617,5.638 C102.395,5.638 100.701,6.826 100.701,8.63 L100.701,8.718 C100.701,10.522 102.395,11.71 104.617,11.71 C106.311,11.71 108.071,11.072 108.995,10.412 L111.613,14.042 Z M120.589,16 L112.933,16 L112.933,1.348 L120.589,1.348 L120.589,16 Z M141.951,16 L134.009,16 L133.151,13.448 L128.685,13.448 L127.695,16 L121.007,16 L127.475,1.348 L135.351,1.348 L141.951,16 Z M132.051,10.104 L131.105,7.354 L130.027,10.104 L132.051,10.104 Z M159.353,16 L142.457,16 L142.457,1.348 L150.113,1.348 L150.113,10.918 L159.353,10.918 L159.353,16 Z M17.112,35.5 L0.216,35.5 L0.216,20.848 L7.872,20.848 L7.872,30.418 L17.112,30.418 L17.112,35.5 Z M26.066,35.5 L18.41,35.5 L18.41,20.848 L26.066,20.848 L26.066,35.5 Z M47.142,35.5 L40.586,35.5 L35.46,30.418 L34.91,29.78 L34.91,35.5 L28.046,35.5 L28.046,20.848 L34.25,20.848 L39.75,25.974 L40.256,26.524 L40.256,20.848 L47.142,20.848 L47.142,35.5 Z M65.908,35.5 L49.122,35.5 L49.122,20.848 L65.908,20.848 L65.908,25.534 L56.778,25.534 L56.778,26.92 L62.498,26.92 L62.498,29.164 L56.778,29.164 L56.778,30.418 L65.908,30.418 L65.908,35.5 Z M86.522,29.208 C86.522,33.036 83.926,36.05 76.996,36.05 C70.088,36.05 67.36,33.036 67.36,29.208 L67.36,20.848 L75.016,20.848 L75.016,28.658 C75.016,30.484 75.566,31.276 77.392,31.276 C79.218,31.276 79.724,30.484 79.724,28.658 L79.724,20.848 L86.522,20.848 L86.522,29.208 Z M106.564,25.974 C106.564,28.636 104.584,31.056 100.184,31.056 L96.048,31.056 L96.048,35.5 L88.392,35.5 L88.392,20.848 L100.008,20.848 C104.43,20.848 106.564,23.092 106.564,25.754 L106.564,25.974 Z M98.82,26.634 L98.82,26.568 C98.82,25.754 98.468,25.358 97.324,25.358 L96.048,25.358 L96.048,27.844 L97.324,27.844 C98.468,27.844 98.82,27.404 98.82,26.634 Z M131.424,25.952 L126.012,25.952 L126.012,35.5 L118.356,35.5 L118.356,25.952 L112.944,25.952 L112.944,20.848 L131.424,20.848 L131.424,25.952 Z M152.192,28.284 C152.192,32.53 148.518,36.05 142.248,36.05 C135.956,36.05 132.282,32.53 132.282,28.284 L132.282,28.02 C132.282,23.752 135.956,20.298 142.248,20.298 C148.518,20.298 152.192,23.752 152.192,28.02 L152.192,28.284 Z M144.382,28.35 L144.382,27.976 C144.382,26.348 144.03,24.852 142.248,24.852 C140.466,24.852 140.092,26.348 140.092,27.976 L140.092,28.35 C140.092,29.956 140.466,31.452 142.248,31.452 C144.03,31.452 144.382,29.956 144.382,28.35 Z M177.14,31.738 C177.14,33.872 175.38,35.5 171.398,35.5 L159.144,35.5 L159.144,20.848 L171.134,20.848 C175.16,20.848 177.052,22.454 177.052,24.698 L177.052,24.874 C177.052,26.37 175.732,27.69 173.158,28.196 C175.996,28.658 177.14,29.868 177.14,31.562 L177.14,31.738 Z M169.55,26.172 L169.55,26.106 C169.55,25.446 169.132,25.182 167.988,25.182 L166.8,25.182 L166.8,27.096 L167.988,27.096 C169.132,27.096 169.55,26.81 169.55,26.172 Z M169.55,30.308 L169.55,30.242 C169.55,29.604 169.132,29.318 167.988,29.318 L166.8,29.318 L166.8,31.232 L167.988,31.232 C169.132,31.232 169.55,30.968 169.55,30.308 Z M195.202,35.5 L178.416,35.5 L178.416,20.848 L195.202,20.848 L195.202,25.534 L186.072,25.534 L186.072,26.92 L191.792,26.92 L191.792,29.164 L186.072,29.164 L186.072,30.418 L195.202,30.418 L195.202,35.5 Z M26.198,55 L18.256,55 L17.398,52.448 L12.932,52.448 L11.942,55 L5.254,55 L11.722,40.348 L19.598,40.348 L26.198,55 Z M16.298,49.104 L15.352,46.354 L14.274,49.104 L16.298,49.104 Z M45.8,55 L39.244,55 L34.118,49.918 L33.568,49.28 L33.568,55 L26.704,55 L26.704,40.348 L32.908,40.348 L38.408,45.474 L38.914,46.024 L38.914,40.348 L45.8,40.348 L45.8,55 Z M66.876,55 L60.32,55 L55.194,49.918 L54.644,49.28 L54.644,55 L47.78,55 L47.78,40.348 L53.984,40.348 L59.484,45.474 L59.99,46.024 L59.99,40.348 L66.876,40.348 L66.876,55 Z M88.216,47.784 C88.216,52.03 84.542,55.55 78.272,55.55 C71.98,55.55 68.306,52.03 68.306,47.784 L68.306,47.52 C68.306,43.252 71.98,39.798 78.272,39.798 C84.542,39.798 88.216,43.252 88.216,47.52 L88.216,47.784 Z M80.406,47.85 L80.406,47.476 C80.406,45.848 80.054,44.352 78.272,44.352 C76.49,44.352 76.116,45.848 76.116,47.476 L76.116,47.85 C76.116,49.456 76.49,50.952 78.272,50.952 C80.054,50.952 80.406,49.456 80.406,47.85 Z M108.698,48.708 C108.698,52.536 106.102,55.55 99.172,55.55 C92.264,55.55 89.536,52.536 89.536,48.708 L89.536,40.348 L97.192,40.348 L97.192,48.158 C97.192,49.984 97.742,50.776 99.568,50.776 C101.394,50.776 101.9,49.984 101.9,48.158 L101.9,40.348 L108.698,40.348 L108.698,48.708 Z M129.664,55 L123.108,55 L117.982,49.918 L117.432,49.28 L117.432,55 L110.568,55 L110.568,40.348 L116.772,40.348 L122.272,45.474 L122.778,46.024 L122.778,40.348 L129.664,40.348 L129.664,55 Z M149.816,53.042 C147.924,54.626 145.064,55.55 141.698,55.55 C135.274,55.55 131.094,52.338 131.094,47.762 L131.094,47.586 C131.094,43.01 135.274,39.798 141.698,39.798 C145.064,39.798 148.32,40.854 150.058,42.306 L147.198,45.936 C146.01,45.166 144.404,44.638 142.82,44.638 C140.598,44.638 138.904,45.826 138.904,47.63 L138.904,47.718 C138.904,49.522 140.598,50.71 142.82,50.71 C144.514,50.71 146.274,50.072 147.198,49.412 L149.816,53.042 Z M167.922,55 L151.136,55 L151.136,40.348 L167.922,40.348 L167.922,45.034 L158.792,45.034 L158.792,46.42 L164.512,46.42 L164.512,48.664 L158.792,48.664 L158.792,49.918 L167.922,49.918 L167.922,55 Z M188.734,47.784 C188.734,51.722 185.302,55 178.79,55 L169.374,55 L169.374,40.348 L178.79,40.348 C185.302,40.348 188.734,43.56 188.734,47.52 L188.734,47.784 Z M180.946,47.828 L180.946,47.476 C180.946,46.002 180.22,44.77 178.24,44.77 L177.03,44.77 L177.03,50.534 L178.24,50.534 C180.22,50.534 180.946,49.302 180.946,47.828 Z" id="special-lineup-to-be" fill="#FFFFFF"></path>
    </g>
</svg>