<svg height="133" viewBox="0 0 109 133" width="109" xmlns="http://www.w3.org/2000/svg" xmlns:xlink="http://www.w3.org/1999/xlink"><filter id="a" height="202.2%" width="243.8%" x="-71.9%" y="-28.9%"><feOffset dx="0" dy="20" in="SourceAlpha" result="shadowOffsetOuter1"/><feGaussianBlur in="shadowOffsetOuter1" result="shadowBlurOuter1" stdDeviation="12"/><feColorMatrix in="shadowBlurOuter1" result="shadowMatrixOuter1" type="matrix" values="0 0 0 0 0   0 0 0 0 0   0 0 0 0 0  0 0 0 0.2 0"/><feMerge><feMergeNode in="shadowMatrixOuter1"/><feMergeNode in="SourceGraphic"/></feMerge></filter><g fill="#9b6c79" filter="url(#a)" transform="translate(23 3)"><path d="m53.9018182 9.19145455c-5.9269091-5.9269091-13.8076364-9.19145455-22.1890909-9.19145455-8.3830909 0-16.2621818 3.26454545-22.18909094 9.19145455-10.96854545 10.96690905-12.33163636 31.60145455-2.952 44.10327275l25.14109094 36.3076363 25.1034545-36.2569091c9.4172727-12.5525454 8.0541818-33.1870909-2.9143636-44.15399995zm-21.8994546 33.35399995c-6.3147272 0-11.4545454-5.1398181-11.4545454-11.4545454s5.1398182-11.4545455 11.4545454-11.4545455c6.3147273 0 11.4545455 5.1398182 11.4545455 11.4545455s-5.1398182 11.4545454-11.4545455 11.4545454z"/></g></svg>