<?xml version="1.0" encoding="UTF-8"?>
<svg width="149px" height="10px" viewBox="0 0 149 10" version="1.1" xmlns="http://www.w3.org/2000/svg" xmlns:xlink="http://www.w3.org/1999/xlink">
    <!-- Generator: Sketch 49.3 (51167) - http://www.bohemiancoding.com/sketch -->
    <title>Group 21</title>
    <desc>Created with Sketch.</desc>
    <defs></defs>
    <g id="03" stroke="none" stroke-width="1" fill="none" fill-rule="evenodd">
        <g id="Group-21" fill="#000000">
            <path d="M11.8916864,9.38031426 L9.23098943,9.38031426 L9.05451463,8.56581519 C8.2128656,9.32601432 7.00469198,9.71968887 5.75579341,9.71968887 C2.59282203,9.71968887 0,7.859916 0,4.9820193 L0,4.81911948 C0,1.98194773 2.71499689,0 6.33951774,0 C8.59296516,0 10.2898382,0.420824518 11.6744866,1.09957374 L10.2491133,3.73312073 C9.23098943,3.27157125 8.32146547,3.01364655 7.26261669,3.01364655 C5.7693684,3.01364655 4.81911948,3.85529559 4.81911948,5.02274425 L4.81911948,5.10419416 C4.81911948,6.14946796 5.5928936,6.88251712 6.82821718,6.88251712 C7.53411637,6.88251712 8.10426572,6.58386746 8.40291538,6.13589298 L8.40291538,6.08159304 L6.25806784,6.08159304 L6.25806784,4.47974487 L11.8916864,4.47974487 L11.8916864,9.38031426 Z M23.1046235,9.38031426 L12.7469104,9.38031426 L12.7469104,0.339374611 L23.1046235,0.339374611 L23.1046235,3.2308463 L17.471005,3.2308463 L17.471005,4.08607032 L21.000501,4.08607032 L21.000501,5.47071874 L17.471005,5.47071874 L17.471005,6.24449285 L23.1046235,6.24449285 L23.1046235,9.38031426 Z M35.1184848,3.48877101 L31.7790386,3.48877101 L31.7790386,9.38031426 L27.054944,9.38031426 L27.054944,3.48877101 L23.7154978,3.48877101 L23.7154978,0.339374611 L35.1184848,0.339374611 L35.1184848,3.48877101 Z M51.2727163,4.92771936 C51.2727163,7.35764158 49.1550187,9.38031426 45.1368233,9.38031426 L39.32673,9.38031426 L39.32673,0.339374611 L45.1368233,0.339374611 C49.1550187,0.339374611 51.2727163,2.32132234 51.2727163,4.76481955 L51.2727163,4.92771936 Z M46.4671718,4.95486933 L46.4671718,4.73766958 C46.4671718,3.82814562 46.0191973,3.06794649 44.7974487,3.06794649 L44.0508246,3.06794649 L44.0508246,6.62459242 L44.7974487,6.62459242 C46.0191973,6.62459242 46.4671718,5.86439329 46.4671718,4.95486933 Z M56.8791849,9.38031426 L52.1550903,9.38031426 L52.1550903,0.339374611 L56.8791849,0.339374611 L56.8791849,9.38031426 Z M69.6396703,9.38031426 L65.512875,9.38031426 C64.9698756,9.38031426 64.4268762,8.78301494 64.4268762,7.98209086 L64.4268762,7.15401681 C64.4268762,6.51599254 64.2911264,6.19019291 63.5988022,6.19019291 L62.8114531,6.19019291 L62.8114531,9.38031426 L58.1009335,9.38031426 L58.1009335,0.339374611 L65.3635502,0.339374611 C67.8206224,0.339374611 69.3002957,1.41179838 69.3002957,2.86432172 L69.3002957,2.98649658 C69.3002957,3.85529559 68.4722216,4.75124456 67.1418731,5.00916927 C68.7165713,5.15849409 69.1509708,6.08159304 69.1509708,7.12686684 L69.1509708,7.87349099 C69.1509708,8.44364033 69.2867207,8.86446485 69.6396703,9.24456442 L69.6396703,9.38031426 Z M64.5219011,3.7602707 L64.5219011,3.71954574 C64.5219011,3.24442129 64.2639764,3.06794649 63.5580772,3.06794649 L62.8114531,3.06794649 L62.8114531,4.50689484 L63.5580772,4.50689484 C64.2639764,4.50689484 64.5219011,4.20824518 64.5219011,3.7602707 Z M80.6354077,9.38031426 L70.2776945,9.38031426 L70.2776945,0.339374611 L80.6354077,0.339374611 L80.6354077,3.2308463 L75.0017891,3.2308463 L75.0017891,4.08607032 L78.5312851,4.08607032 L78.5312851,5.47071874 L75.0017891,5.47071874 L75.0017891,6.24449285 L80.6354077,6.24449285 L80.6354077,9.38031426 Z M92.8121687,8.17214064 C91.6447201,9.14953953 89.8799721,9.71968887 87.8029995,9.71968887 C83.839104,9.71968887 81.259857,7.73774114 81.259857,4.91414437 L81.259857,4.8055445 C81.259857,1.98194773 83.839104,0 87.8029995,0 C89.8799721,0 91.8890698,0.651599254 92.9614936,1.54754823 L91.1967456,3.78742066 C90.4636964,3.31229621 89.4727226,2.98649658 88.4953237,2.98649658 C87.1242503,2.98649658 86.0789765,3.71954574 86.0789765,4.83269447 L86.0789765,4.88699441 C86.0789765,6.00014313 87.1242503,6.73319229 88.4953237,6.73319229 C89.5405975,6.73319229 90.6265962,6.33951774 91.1967456,5.93226821 L92.8121687,8.17214064 Z M104.676705,3.48877101 L101.337259,3.48877101 L101.337259,9.38031426 L96.6131644,9.38031426 L96.6131644,3.48877101 L93.2737182,3.48877101 L93.2737182,0.339374611 L104.676705,0.339374611 L104.676705,3.48877101 Z M110.269599,9.38031426 L105.545504,9.38031426 L105.545504,0.339374611 L110.269599,0.339374611 L110.269599,9.38031426 Z M123.437334,4.92771936 C123.437334,7.54769136 121.170311,9.71968887 117.301441,9.71968887 C113.418995,9.71968887 111.151973,7.54769136 111.151973,4.92771936 L111.151973,4.76481955 C111.151973,2.13127256 113.418995,0 117.301441,0 C121.170311,0 123.437334,2.13127256 123.437334,4.76481955 L123.437334,4.92771936 Z M118.618214,4.96844431 L118.618214,4.73766958 C118.618214,3.73312073 118.401014,2.81002178 117.301441,2.81002178 C116.201867,2.81002178 115.971092,3.73312073 115.971092,4.73766958 L115.971092,4.96844431 C115.971092,5.95941818 116.201867,6.88251712 117.301441,6.88251712 C118.401014,6.88251712 118.618214,5.95941818 118.618214,4.96844431 Z M136.102794,9.38031426 L132.057449,9.38031426 L128.894477,6.24449285 L128.555103,5.8508183 L128.555103,9.38031426 L124.319708,9.38031426 L124.319708,0.339374611 L128.147853,0.339374611 L131.541599,3.50234599 L131.853824,3.8417206 L131.853824,0.339374611 L136.102794,0.339374611 L136.102794,9.38031426 Z M148.34743,6.36666771 C148.34743,8.40291538 146.514807,9.71968887 142.442312,9.71968887 C140.270314,9.71968887 137.962567,9.16311451 136.659369,8.3893404 L137.935417,6.2037679 C139.673015,6.92324207 141.356313,7.20831675 142.496612,7.20831675 C143.283961,7.20831675 143.759085,7.05899192 143.759085,6.8146422 C143.759085,5.94584319 137.039468,6.59744245 137.039468,3.14939639 C137.039468,1.42537337 138.939966,0 142.645937,0 C145.198034,0 147.261431,0.624449285 148.225255,1.15387368 L146.854182,3.2308463 C145.347359,2.76929683 143.93556,2.51137212 142.971736,2.51137212 C142.320137,2.51137212 141.912888,2.63354699 141.912888,2.89147169 C141.912888,3.85529559 148.34743,3.04079652 148.34743,6.36666771 Z" id="GET-DIRECTIONS"></path>
        </g>
    </g>
</svg>