<?xml version="1.0" encoding="UTF-8"?>
<svg width="1945px" height="253px" viewBox="0 0 1945 253" version="1.1" xmlns="http://www.w3.org/2000/svg" xmlns:xlink="http://www.w3.org/1999/xlink">
    <!-- Generator: Sketch 49.3 (51167) - http://www.bohemiancoding.com/sketch -->
    <title>get directions</title>
    <desc>Created with Sketch.</desc>
    <defs></defs>
    <g id="03" stroke="none" stroke-width="1" fill="none" fill-rule="evenodd">
        <path d="M18.34,235.92 C6.72394192,224.655944 0.916,209.754759 0.916,191.216 L0.916,62.384 C0.916,43.8452406 6.72394192,28.9440563 18.34,17.68 C29.9560581,6.41594368 45.267905,0.784 64.276,0.784 C83.284095,0.784 98.654608,6.41594368 110.388,17.68 C122.121392,28.9440563 127.988,43.9625728 127.988,62.736 L127.988,77.52 C127.988,79.8666784 126.814678,81.04 124.468,81.04 L97.716,81.04 C95.3693216,81.04 94.196,79.8666784 94.196,77.52 L94.196,62.032 C94.196,52.4106186 91.4386942,44.666696 85.924,38.8 C80.4093058,32.933304 73.1933779,30 64.276,30 C55.3586221,30 48.1426942,32.933304 42.628,38.8 C37.1133058,44.666696 34.356,52.4106186 34.356,62.032 L34.356,191.568 C34.356,201.189381 37.1133058,208.933304 42.628,214.8 C48.1426942,220.666696 55.3586221,223.6 64.276,223.6 C73.1933779,223.6 80.4093058,220.666696 85.924,214.8 C91.4386942,208.933304 94.196,201.189381 94.196,191.568 L94.196,152.848 C94.196,151.909329 93.7266714,151.44 92.788,151.44 L66.036,151.44 C63.6893216,151.44 62.516,150.266678 62.516,147.92 L62.516,126.096 C62.516,123.749322 63.6893216,122.576 66.036,122.576 L124.468,122.576 C126.814678,122.576 127.988,123.749322 127.988,126.096 L127.988,191.216 C127.988,209.754759 122.121392,224.655944 110.388,235.92 C98.654608,247.184056 83.284095,252.816 64.276,252.816 C45.267905,252.816 29.9560581,247.184056 18.34,235.92 Z M279.348,32.816 L200.148,32.816 C199.209329,32.816 198.74,33.2853286 198.74,34.224 L198.74,110.608 C198.74,111.546671 199.209329,112.016 200.148,112.016 L248.724,112.016 C251.070678,112.016 252.244,113.189322 252.244,115.536 L252.244,137.712 C252.244,140.058678 251.070678,141.232 248.724,141.232 L200.148,141.232 C199.209329,141.232 198.74,141.701329 198.74,142.64 L198.74,219.376 C198.74,220.314671 199.209329,220.784 200.148,220.784 L279.348,220.784 C281.694678,220.784 282.868,221.957322 282.868,224.304 L282.868,246.48 C282.868,248.826678 281.694678,250 279.348,250 L168.468,250 C166.121322,250 164.948,248.826678 164.948,246.48 L164.948,7.12 C164.948,4.7733216 166.121322,3.6 168.468,3.6 L279.348,3.6 C281.694678,3.6 282.868,4.7733216 282.868,7.12 L282.868,29.296 C282.868,31.6426784 281.694678,32.816 279.348,32.816 Z M439.156,7.12 L439.156,29.296 C439.156,31.6426784 437.982678,32.816 435.636,32.816 L389.524,32.816 C388.585329,32.816 388.116,33.2853286 388.116,34.224 L388.116,246.48 C388.116,248.826678 386.942678,250 384.596,250 L357.844,250 C355.497322,250 354.324,248.826678 354.324,246.48 L354.324,34.224 C354.324,33.2853286 353.854671,32.816 352.916,32.816 L309.268,32.816 C306.921322,32.816 305.748,31.6426784 305.748,29.296 L305.748,7.12 C305.748,4.7733216 306.921322,3.6 309.268,3.6 L435.636,3.6 C437.982678,3.6 439.156,4.7733216 439.156,7.12 Z M541.94,246.48 L541.94,7.12 C541.94,4.7733216 543.113322,3.6 545.46,3.6 L603.188,3.6 C622.665431,3.6 638.153276,9.58394016 649.652,21.552 C661.150724,33.5200598 666.9,49.7118979 666.9,70.128 L666.9,183.472 C666.9,203.888102 661.150724,220.07994 649.652,232.048 C638.153276,244.01606 622.665431,250 603.188,250 L545.46,250 C543.113322,250 541.94,248.826678 541.94,246.48 Z M577.14,220.784 L602.836,220.432 C611.753378,220.432 618.91064,216.970701 624.308,210.048 C629.70536,203.125299 632.521332,193.68006 632.756,181.712 L632.756,71.888 C632.756,59.9199402 630.05736,50.4160352 624.66,43.376 C619.26264,36.3359648 611.988046,32.816 602.836,32.816 L577.14,32.816 C576.201329,32.816 575.732,33.2853286 575.732,34.224 L575.732,219.376 C575.732,220.314671 576.201329,220.784 577.14,220.784 Z M707.028,246.48 L707.028,7.12 C707.028,4.7733216 708.201322,3.6 710.548,3.6 L737.3,3.6 C739.646678,3.6 740.82,4.7733216 740.82,7.12 L740.82,246.48 C740.82,248.826678 739.646678,250 737.3,250 L710.548,250 C708.201322,250 707.028,248.826678 707.028,246.48 Z M878.1,247.184 L845.364,141.584 C845.129332,140.879996 844.660004,140.528 843.956,140.528 L819.668,140.528 C818.729329,140.528 818.26,140.997329 818.26,141.936 L818.26,246.48 C818.26,248.826678 817.086678,250 814.74,250 L787.988,250 C785.641322,250 784.468,248.826678 784.468,246.48 L784.468,6.768 C784.468,4.4213216 785.641322,3.248 787.988,3.248 L850.996,3.248 C862.96406,3.248 873.523954,6.181304 882.676,12.048 C891.828046,17.914696 898.926641,26.1866133 903.972,36.864 C909.017359,47.5413867 911.54,59.6852653 911.54,73.296 C911.54,88.0800739 908.430698,100.927945 902.212,111.84 C895.993302,122.752055 887.604053,130.554643 877.044,135.248 C876.339996,135.952004 876.105332,136.655996 876.34,137.36 L912.596,246.128 L912.948,247.536 C912.948,249.178675 911.892011,250 909.78,250 L882.324,250 C880.211989,250 878.804004,249.061343 878.1,247.184 Z M818.26,33.872 L818.26,112.72 C818.26,113.658671 818.729329,114.128 819.668,114.128 L845.716,114.128 C855.337381,114.128 863.081304,110.432037 868.948,103.04 C874.814696,95.647963 877.748,85.8507277 877.748,73.648 C877.748,60.9759366 874.814696,50.944037 868.948,43.552 C863.081304,36.159963 855.337381,32.464 845.716,32.464 L819.668,32.464 C818.729329,32.464 818.26,32.9333286 818.26,33.872 Z M1058.324,32.816 L979.124,32.816 C978.185329,32.816 977.716,33.2853286 977.716,34.224 L977.716,110.608 C977.716,111.546671 978.185329,112.016 979.124,112.016 L1027.7,112.016 C1030.04668,112.016 1031.22,113.189322 1031.22,115.536 L1031.22,137.712 C1031.22,140.058678 1030.04668,141.232 1027.7,141.232 L979.124,141.232 C978.185329,141.232 977.716,141.701329 977.716,142.64 L977.716,219.376 C977.716,220.314671 978.185329,220.784 979.124,220.784 L1058.324,220.784 C1060.67068,220.784 1061.844,221.957322 1061.844,224.304 L1061.844,246.48 C1061.844,248.826678 1060.67068,250 1058.324,250 L947.444,250 C945.097322,250 943.924,248.826678 943.924,246.48 L943.924,7.12 C943.924,4.7733216 945.097322,3.6 947.444,3.6 L1058.324,3.6 C1060.67068,3.6 1061.844,4.7733216 1061.844,7.12 L1061.844,29.296 C1061.844,31.6426784 1060.67068,32.816 1058.324,32.816 Z M1108.484,235.392 C1096.86794,223.775942 1091.06,208.346763 1091.06,189.104 L1091.06,64.144 C1091.06,44.9012371 1096.86794,29.5307242 1108.484,18.032 C1120.10006,6.53327584 1135.4119,0.784 1154.42,0.784 C1173.66276,0.784 1189.09194,6.53327584 1200.708,18.032 C1212.32406,29.5307242 1218.132,44.9012371 1218.132,64.144 L1218.132,69.776 C1218.132,72.1226784 1216.95868,73.296 1214.612,73.296 L1187.86,74.704 C1185.51332,74.704 1184.34,73.5306784 1184.34,71.184 L1184.34,62.032 C1184.34,52.4106186 1181.58269,44.666696 1176.068,38.8 C1170.55331,32.933304 1163.33738,30 1154.42,30 C1145.50262,30 1138.34536,32.933304 1132.948,38.8 C1127.55064,44.666696 1124.852,52.4106186 1124.852,62.032 L1124.852,191.568 C1124.852,201.189381 1127.55064,208.933304 1132.948,214.8 C1138.34536,220.666696 1145.50262,223.6 1154.42,223.6 C1163.33738,223.6 1170.55331,220.666696 1176.068,214.8 C1181.58269,208.933304 1184.34,201.189381 1184.34,191.568 L1184.34,182.416 C1184.34,180.069322 1185.51332,178.896 1187.86,178.896 L1214.612,180.304 C1216.95868,180.304 1218.132,181.477322 1218.132,183.824 L1218.132,189.104 C1218.132,208.346763 1212.32406,223.775942 1200.708,235.392 C1189.09194,247.008058 1173.66276,252.816 1154.42,252.816 C1135.4119,252.816 1120.10006,247.008058 1108.484,235.392 Z M1377.236,7.12 L1377.236,29.296 C1377.236,31.6426784 1376.06268,32.816 1373.716,32.816 L1327.604,32.816 C1326.66533,32.816 1326.196,33.2853286 1326.196,34.224 L1326.196,246.48 C1326.196,248.826678 1325.02268,250 1322.676,250 L1295.924,250 C1293.57732,250 1292.404,248.826678 1292.404,246.48 L1292.404,34.224 C1292.404,33.2853286 1291.93467,32.816 1290.996,32.816 L1247.348,32.816 C1245.00132,32.816 1243.828,31.6426784 1243.828,29.296 L1243.828,7.12 C1243.828,4.7733216 1245.00132,3.6 1247.348,3.6 L1373.716,3.6 C1376.06268,3.6 1377.236,4.7733216 1377.236,7.12 Z M1409.62,246.48 L1409.62,7.12 C1409.62,4.7733216 1410.79332,3.6 1413.14,3.6 L1439.892,3.6 C1442.23868,3.6 1443.412,4.7733216 1443.412,7.12 L1443.412,246.48 C1443.412,248.826678 1442.23868,250 1439.892,250 L1413.14,250 C1410.79332,250 1409.62,248.826678 1409.62,246.48 Z M1499.732,235.216 C1487.99861,223.482608 1482.132,207.877431 1482.132,188.4 L1482.132,65.552 C1482.132,46.0745693 1487.99861,30.4107259 1499.732,18.56 C1511.46539,6.70927408 1526.95324,0.784 1546.196,0.784 C1565.67343,0.784 1581.33727,6.70927408 1593.188,18.56 C1605.03873,30.4107259 1610.964,46.0745693 1610.964,65.552 L1610.964,188.4 C1610.964,207.877431 1605.03873,223.482608 1593.188,235.216 C1581.33727,246.949392 1565.67343,252.816 1546.196,252.816 C1526.95324,252.816 1511.46539,246.949392 1499.732,235.216 Z M1568.724,214.272 C1574.35603,208.053302 1577.172,199.898717 1577.172,189.808 L1577.172,63.792 C1577.172,53.7012829 1574.35603,45.5466978 1568.724,39.328 C1563.09197,33.1093022 1555.58271,30 1546.196,30 C1537.04395,30 1529.71069,33.1093022 1524.196,39.328 C1518.68131,45.5466978 1515.924,53.7012829 1515.924,63.792 L1515.924,189.808 C1515.924,199.898717 1518.68131,208.053302 1524.196,214.272 C1529.71069,220.490698 1537.04395,223.6 1546.196,223.6 C1555.58271,223.6 1563.09197,220.490698 1568.724,214.272 Z M1650.036,246.48 L1650.036,7.12 C1650.036,4.7733216 1651.20932,3.6 1653.556,3.6 L1680.66,3.6 C1682.53734,3.6 1683.828,4.53865728 1684.532,6.416 L1747.188,161.648 C1747.42267,162.352004 1747.77466,162.645334 1748.244,162.528 C1748.71334,162.410666 1748.948,162.000004 1748.948,161.296 L1748.948,7.12 C1748.948,4.7733216 1750.12132,3.6 1752.468,3.6 L1778.868,3.6 C1781.21468,3.6 1782.388,4.7733216 1782.388,7.12 L1782.388,246.48 C1782.388,248.826678 1781.21468,250 1778.868,250 L1751.412,250 C1749.53466,250 1748.244,249.061343 1747.54,247.184 L1684.884,91.952 C1684.64933,91.2479965 1684.29734,90.896 1683.828,90.896 C1683.35866,90.896 1683.124,91.2479965 1683.124,91.952 L1683.476,246.48 C1683.476,248.826678 1682.30268,250 1679.956,250 L1653.556,250 C1651.20932,250 1650.036,248.826678 1650.036,246.48 Z M1837.124,235.392 C1825.74261,223.775942 1820.052,208.581427 1820.052,189.808 L1820.052,180.304 C1820.052,177.957322 1821.22532,176.784 1823.572,176.784 L1849.62,176.784 C1851.96668,176.784 1853.14,177.957322 1853.14,180.304 L1853.14,188.048 C1853.14,198.842721 1855.83864,207.466634 1861.236,213.92 C1866.63336,220.373366 1873.55596,223.6 1882.004,223.6 C1890.45204,223.6 1897.43331,220.490698 1902.948,214.272 C1908.46269,208.053302 1911.22,199.898717 1911.22,189.808 C1911.22,183.002633 1909.75335,177.018692 1906.82,171.856 C1903.88665,166.693308 1900.01469,162.058687 1895.204,157.952 C1890.39331,153.845313 1882.59072,147.802707 1871.796,139.824 C1859.82794,130.906622 1850.44137,123.280032 1843.636,116.944 C1836.83063,110.607968 1831.08136,102.981378 1826.388,94.064 C1821.69464,85.1466221 1819.348,74.7040598 1819.348,62.736 C1819.348,43.727905 1824.97994,28.6507224 1836.244,17.504 C1847.50806,6.3572776 1862.17458,0.784 1880.244,0.784 C1899.01743,0.784 1914.09461,6.76794016 1925.476,18.736 C1936.85739,30.7040598 1942.548,46.4265693 1942.548,65.904 L1942.548,74.704 C1942.548,77.0506784 1941.37468,78.224 1939.028,78.224 L1912.98,78.224 C1910.63332,78.224 1909.46,77.0506784 1909.46,74.704 L1909.46,65.2 C1909.46,54.6399472 1906.76136,46.1333656 1901.364,39.68 C1895.96664,33.2266344 1888.92671,30 1880.244,30 C1872.03063,30 1865.40136,32.8746379 1860.356,38.624 C1855.31064,44.3733621 1852.788,52.410615 1852.788,62.736 C1852.788,72.1227136 1855.36931,80.0426344 1860.532,86.496 C1865.69469,92.9493656 1875.55059,101.573279 1890.1,112.368 C1904.41474,122.928053 1915.15063,131.4933 1922.308,138.064 C1929.46537,144.6347 1934.97998,151.850627 1938.852,159.712 C1942.72402,167.573373 1944.66,176.901279 1944.66,187.696 C1944.66,207.408099 1938.85206,223.189274 1927.236,235.04 C1915.61994,246.890726 1900.54276,252.816 1882.004,252.816 C1863.46524,252.816 1848.50539,247.008058 1837.124,235.392 Z" id="get-directions" fill="#000000"></path>
    </g>
</svg>
